<svg width="20" height="20" viewBox="0 0 20 20" fill="none" xmlns="http://www.w3.org/2000/svg">
<path fill-rule="evenodd" clip-rule="evenodd" d="M9.93312 1.72716L1.75812 8.26116C1.73989 8.27821 1.72535 8.2988 1.71537 8.32167C1.7054 8.34454 1.70021 8.36921 1.70012 8.39416L1.63312 16.5272C1.63312 16.9693 1.80875 17.3933 2.12137 17.7059C2.43399 18.0185 2.858 18.1942 3.30012 18.1942L16.7001 18.3112C17.1422 18.3112 17.5662 18.1355 17.8789 17.8229C18.1915 17.5103 18.3671 17.0863 18.3671 16.6442V8.39416C18.3664 8.36843 18.3601 8.34317 18.3485 8.32018C18.3369 8.29719 18.3204 8.27704 18.3001 8.26116L10.1331 1.72716C10.1056 1.70256 10.07 1.68896 10.0331 1.68896C9.99622 1.68896 9.96062 1.70256 9.93312 1.72716Z" stroke="white" stroke-width="1.5" stroke-linecap="square" stroke-linejoin="round"/>
<path d="M13.0001 11.75H7.00006C6.86199 11.75 6.75006 11.8619 6.75006 12V18C6.75006 18.1381 6.86199 18.25 7.00006 18.25H13.0001C13.1381 18.25 13.2501 18.1381 13.2501 18V12C13.2501 11.8619 13.1381 11.75 13.0001 11.75Z" stroke="white" stroke-width="1.5" stroke-linejoin="round"/>
</svg>
