<svg width="20" height="20" viewBox="0 0 20 20" fill="none" xmlns="http://www.w3.org/2000/svg">
<path d="M17.0728 3.125H2.92997C1.95361 3.125 1.16211 4.00444 1.16211 5.08929V14.9107C1.16211 15.9956 1.95361 16.875 2.92997 16.875H17.0728C18.0492 16.875 18.8407 15.9956 18.8407 14.9107V5.08929C18.8407 4.00444 18.0492 3.125 17.0728 3.125Z" stroke="white" stroke-width="1.5" stroke-linecap="round" stroke-linejoin="bevel"/>
<path d="M2.14355 4.18262L8.92889 10.1061C9.08204 10.2401 9.26389 10.3464 9.46407 10.4189C9.66425 10.4914 9.87882 10.5288 10.0955 10.5288C10.3122 10.5288 10.5268 10.4914 10.727 10.4189C10.9271 10.3464 11.109 10.2401 11.2621 10.1061L17.8578 4.34115" stroke="white" stroke-width="1.5" stroke-linecap="round" stroke-linejoin="round"/>
</svg>
