<svg width="24" height="24" viewBox="0 0 24 24" fill="none" xmlns="http://www.w3.org/2000/svg">
<path fill-rule="evenodd" clip-rule="evenodd" d="M19 18H5L7.217 6.921C7.43822 5.81533 8.03565 4.82045 8.90766 4.10559C9.77968 3.39073 10.8724 3.00005 12 3V3C13.1276 3.00005 14.2203 3.39073 15.0923 4.10559C15.9644 4.82045 16.5618 5.81533 16.783 6.921L19 18Z" stroke="white" stroke-width="1.5" stroke-linecap="round" stroke-linejoin="round"/>
<path d="M3 18H21" stroke="white" stroke-width="1.5" stroke-linecap="round" stroke-linejoin="round"/>
<path d="M15 18C15 18.7956 14.6839 19.5587 14.1213 20.1213C13.5587 20.6839 12.7956 21 12 21C11.2044 21 10.4413 20.6839 9.87868 20.1213C9.31607 19.5587 9 18.7956 9 18" stroke="white" stroke-width="1.5" stroke-linecap="round" stroke-linejoin="round"/>
</svg>
