<svg width="16" height="16" viewBox="0 0 16 16" fill="none" xmlns="http://www.w3.org/2000/svg">
<path d="M5.00391 10.4717C4.53988 10.4717 4.16348 10.8475 4.16341 11.3115C4.16341 11.3272 4.16452 11.3429 4.16536 11.3584C4.16725 11.3741 4.16887 11.3899 4.16927 11.4059C4.21615 11.8256 4.57172 12.152 5.00391 12.152C5.38422 12.152 5.70504 11.8991 5.80859 11.5524C5.79062 11.5008 5.7793 11.446 5.7793 11.3883C5.7793 11.3097 5.79836 11.2358 5.83073 11.1696C5.76314 10.7733 5.41944 10.4717 5.00391 10.4717ZM10.6836 10.4717C10.2196 10.4717 9.84317 10.8475 9.8431 11.3115C9.84697 11.3366 9.84961 11.3622 9.84961 11.3883C9.84961 11.3938 9.84848 11.3992 9.84831 11.4046C9.89456 11.8249 10.251 12.152 10.6836 12.152C11.1477 12.152 11.5241 11.7756 11.5241 11.3115C11.524 10.8475 11.1476 10.4717 10.6836 10.4717ZM9.74479 8.66504V5.66699C9.73545 5.62879 9.72917 5.58894 9.72917 5.54785C9.72919 5.50667 9.73538 5.46699 9.74479 5.42871V4.53027C9.74479 4.43872 9.72709 4.34793 9.69206 4.26335C9.65705 4.17885 9.60567 4.10213 9.54102 4.03743C9.47628 3.9727 9.39904 3.92143 9.31445 3.88639C9.25111 3.86017 9.18452 3.84299 9.11654 3.83626L9.04818 3.83301H3.19727C3.01237 3.83301 2.83517 3.90669 2.70443 4.03743C2.57368 4.16818 2.5 4.34538 2.5 4.53027V10.2217C2.50002 10.4066 2.5737 10.5838 2.70443 10.7145C2.83516 10.8452 3.01241 10.9189 3.19727 10.9189H3.20703C3.38706 10.0914 4.12244 9.47168 5.00391 9.47168C5.87437 9.47172 6.60158 10.0763 6.79297 10.8883H8.89453C9.08593 10.0763 9.81311 9.47169 10.6836 9.47168C11.5459 9.47168 12.2672 10.0651 12.4668 10.8656H13.5156V8.25684L13.5078 8.16504C13.4927 8.07463 13.4563 7.98861 13.401 7.91439L12.0573 6.12728L12.0247 6.09408C12.0126 6.08423 11.9992 6.07557 11.985 6.06869C11.9569 6.05504 11.9258 6.04782 11.8945 6.04785H10.7448V8.66504C10.7448 8.94118 10.5209 9.16504 10.2448 9.16504C9.96878 9.16488 9.74479 8.94109 9.74479 8.66504ZM10.7448 5.04785H11.8939L12.0299 5.05566C12.1657 5.07096 12.2984 5.10964 12.4219 5.1696C12.5452 5.2295 12.6573 5.30951 12.7533 5.40658L12.8438 5.50944L12.8503 5.5179L14.2005 7.31348L14.2012 7.31478L14.2728 7.41829C14.4294 7.66689 14.5137 7.95549 14.5156 8.25098V11.2458C14.5156 11.4101 14.4502 11.5677 14.334 11.6839C14.2178 11.8001 14.0602 11.8656 13.8958 11.8656H12.4388C12.2037 12.6112 11.5069 13.152 10.6836 13.152C9.86882 13.152 9.17893 12.622 8.93685 11.8883H6.75C6.50787 12.6219 5.81859 13.152 5.00391 13.152C4.2006 13.152 3.51931 12.6366 3.26823 11.9189H3.19727C2.74719 11.9189 2.31567 11.7398 1.9974 11.4215C1.67913 11.1033 1.50002 10.6718 1.5 10.2217V4.53027C1.5 4.08016 1.67912 3.64868 1.9974 3.3304C2.31567 3.01213 2.74715 2.83301 3.19727 2.83301H9.04818L9.21419 2.84147C9.37995 2.85779 9.54282 2.89797 9.69727 2.96191C9.90318 3.0472 10.0905 3.17281 10.248 3.3304C10.4055 3.48793 10.5306 3.67476 10.6159 3.88053C10.7012 4.08644 10.7448 4.3074 10.7448 4.53027V5.04785Z" fill="currentColor"/>
</svg>
