<svg width="16" height="16" viewBox="0 0 16 16" fill="none" xmlns="http://www.w3.org/2000/svg">
<path d="M14.1667 11.0425V4.62774C14.1667 4.11351 13.8038 3.67066 13.2995 3.5698C12.0016 3.31022 10.6651 3.31022 9.36723 3.5698L6.50525 4.14206C5.29155 4.38477 4.04187 4.38477 2.82817 4.14206C2.31377 4.03918 1.83355 4.43263 1.83337 4.95717V11.3725C1.83344 11.8867 2.19635 12.3296 2.70056 12.4305C3.99844 12.69 5.33497 12.69 6.63285 12.4305L9.49483 11.8582C10.7086 11.6155 11.9582 11.6155 13.1719 11.8582C13.6864 11.9611 14.1667 11.5671 14.1667 11.0425ZM4.33337 10.1668C4.60952 10.1668 4.83337 10.3907 4.83337 10.6668C4.83332 10.9429 4.60948 11.1668 4.33337 11.1668H3.33337C3.05727 11.1668 2.83343 10.9429 2.83337 10.6668C2.83337 10.3907 3.05723 10.1668 3.33337 10.1668H4.33337ZM9.50004 8.00013C9.50004 7.17171 8.82847 6.50013 8.00004 6.50013C7.17161 6.50013 6.50004 7.17171 6.50004 8.00013C6.5001 8.82851 7.17165 9.50013 8.00004 9.50013C8.82843 9.50013 9.49998 8.82851 9.50004 8.00013ZM12.6667 4.83347C12.9428 4.83347 13.1667 5.05733 13.1667 5.33347C13.1666 5.60956 12.9428 5.83347 12.6667 5.83347H11.6667C11.3906 5.83347 11.1668 5.60956 11.1667 5.33347C11.1667 5.05733 11.3906 4.83347 11.6667 4.83347H12.6667ZM10.5 8.00013C10.5 9.3808 9.38072 10.5001 8.00004 10.5001C6.61936 10.5001 5.5001 9.3808 5.50004 8.00013C5.50004 6.61942 6.61933 5.50013 8.00004 5.50013C9.38075 5.50013 10.5 6.61942 10.5 8.00013ZM15.1667 11.0425C15.1667 12.1982 14.1092 13.0653 12.976 12.8387C11.8916 12.6218 10.7751 12.6218 9.69079 12.8387L6.82882 13.4109C5.40155 13.6964 3.93186 13.6964 2.5046 13.4109C1.53297 13.2166 0.833437 12.3634 0.833374 11.3725V4.95717C0.83355 3.80159 1.89094 2.93496 3.02413 3.16159C4.10845 3.37844 5.22497 3.37844 6.30929 3.16159L9.17126 2.58933C10.5986 2.30388 12.0682 2.30388 13.4955 2.58933C14.4672 2.78366 15.1667 3.63682 15.1667 4.62774V11.0425Z" fill="#676767"/>
</svg>
