<svg width="16" height="16" viewBox="0 0 16 16" fill="none" xmlns="http://www.w3.org/2000/svg">
<g clip-path="url(#clip0_270_57377)">
<path d="M13.4134 12.1394C13.6023 11.9382 13.9184 11.9279 14.1198 12.1166C14.3212 12.3055 14.3314 12.6222 14.1426 12.8236L13.1706 13.8608C13.0761 13.9615 12.9441 14.0182 12.806 14.0183C12.6678 14.0183 12.5353 13.9616 12.4408 13.8608L11.8574 13.2384C11.6686 13.0369 11.6788 12.7202 11.8802 12.5313C12.0816 12.3425 12.3984 12.3527 12.5872 12.5541L12.8053 12.7872L13.4134 12.1394Z" fill="#676767"/>
<path fill-rule="evenodd" clip-rule="evenodd" d="M5.2819 7.82821C5.7287 7.82834 6.10221 8.18765 6.10221 8.64461V9.90959C6.10206 10.3664 5.72861 10.7259 5.2819 10.726H3.99935C3.55264 10.7259 3.17919 10.3664 3.17904 9.90959V8.64461C3.17904 8.18766 3.55255 7.82835 3.99935 7.82821H5.2819ZM4.17904 9.72599H5.10221V8.82821H4.17904V9.72599Z" fill="#676767"/>
<path fill-rule="evenodd" clip-rule="evenodd" d="M8.9681 7.82821C9.41485 7.8284 9.78841 8.18769 9.78841 8.64461V9.90959C9.78826 10.3664 9.41476 10.7258 8.9681 10.726H7.68555C7.23882 10.7259 6.86539 10.3664 6.86523 9.90959V8.64461C6.86523 8.18764 7.23873 7.82832 7.68555 7.82821H8.9681ZM7.86523 9.72599H8.78841V8.82821H7.86523V9.72599Z" fill="#676767"/>
<path fill-rule="evenodd" clip-rule="evenodd" d="M12.224 2.10229C12.5 2.10229 12.7238 2.3263 12.724 2.60229V3.39331H13.3848C14.3625 3.39343 15.1665 4.17736 15.1667 5.15828V11.1752C15.5824 11.6682 15.8333 12.3047 15.8333 13.0001C15.8333 14.5649 14.5648 15.8334 13 15.8334C11.9927 15.8334 11.1088 15.3077 10.6068 14.5157H3.1276C2.14976 14.5156 1.34577 13.7311 1.3457 12.7501V5.15828C1.34586 4.17735 2.14981 3.39341 3.1276 3.39331H3.94857V2.60229C3.94874 2.3263 4.17253 2.10229 4.44857 2.10229C4.7245 2.10241 4.94839 2.32637 4.94857 2.60229V3.39331H11.724V2.60229C11.7241 2.3264 11.9481 2.10245 12.224 2.10229ZM13 11.1667C12.8645 11.1667 12.7326 11.1818 12.6055 11.2097C12.5645 11.2187 12.5243 11.2299 12.4844 11.2416C12.4712 11.2455 12.4577 11.2485 12.4447 11.2527C12.4064 11.2648 12.3691 11.2792 12.332 11.2937C12.1403 11.3688 11.9645 11.4747 11.8105 11.6062C11.7771 11.6348 11.7442 11.6639 11.7129 11.6947C11.6992 11.7082 11.6864 11.7225 11.6732 11.7364C11.6487 11.7621 11.6245 11.7881 11.6016 11.8152C11.5865 11.833 11.5724 11.8515 11.5579 11.8699C11.5367 11.8969 11.5158 11.9243 11.4961 11.9526C11.4837 11.9703 11.472 11.9884 11.4603 12.0066C11.4414 12.0358 11.4235 12.0655 11.4062 12.0958C11.3954 12.1149 11.3852 12.1342 11.375 12.1537C11.3593 12.1837 11.3441 12.2139 11.3301 12.2449C11.3197 12.2679 11.3096 12.291 11.3001 12.3145C11.2885 12.3434 11.2784 12.3729 11.2682 12.4024C11.26 12.4264 11.2514 12.4503 11.2441 12.4747C11.2349 12.5055 11.2277 12.5369 11.2201 12.5684C11.2136 12.5953 11.2058 12.6219 11.2005 12.6492C11.1945 12.6801 11.1913 12.7115 11.1868 12.7429C11.1834 12.7672 11.1782 12.7913 11.1758 12.8158C11.1697 12.8764 11.1667 12.9379 11.1667 13.0001C11.1667 14.0126 11.9875 14.8334 13 14.8334C14.0125 14.8334 14.8333 14.0126 14.8333 13.0001C14.8333 11.9876 14.0125 11.1667 13 11.1667ZM2.3457 12.7501C2.34577 13.1664 2.68955 13.5156 3.1276 13.5157H10.2148C10.1971 13.419 10.1841 13.3206 10.1764 13.2208C10.176 13.2165 10.1748 13.2121 10.1745 13.2078C10.174 13.2008 10.1743 13.1939 10.1738 13.1869C10.1698 13.1251 10.1667 13.0629 10.1667 13.0001C10.1667 12.8671 10.1763 12.7363 10.194 12.6082C10.1947 12.6029 10.1959 12.5978 10.1966 12.5925C10.2017 12.5574 10.2072 12.5224 10.2135 12.4877C10.2155 12.4769 10.2173 12.466 10.2194 12.4552C10.2235 12.434 10.2285 12.413 10.2331 12.392C10.2386 12.367 10.2439 12.3419 10.25 12.3171C10.255 12.2971 10.2602 12.2771 10.2656 12.2572C10.2718 12.2345 10.2785 12.212 10.2852 12.1895C10.2915 12.1684 10.2979 12.1473 10.3047 12.1264C10.313 12.1008 10.3217 12.0755 10.3307 12.0502C10.3352 12.0377 10.3391 12.0249 10.3437 12.0125C10.3554 11.9811 10.3681 11.9502 10.3809 11.9194C10.4023 11.8674 10.4248 11.816 10.4492 11.7657C10.5054 11.6498 10.5691 11.5382 10.64 11.4317L10.6504 11.4161C10.6568 11.4066 10.664 11.3976 10.6706 11.3881C10.7144 11.3248 10.7605 11.2632 10.8092 11.2039C10.8143 11.1976 10.8191 11.1911 10.8242 11.185C10.8473 11.1573 10.8711 11.1303 10.8952 11.1036C10.901 11.0971 10.9068 11.0905 10.9128 11.0841C10.9691 11.0228 11.0284 10.9644 11.0898 10.9083C11.0943 10.9042 11.0984 10.8999 11.1029 10.8959C11.1279 10.8734 11.1532 10.8512 11.179 10.8295C11.1879 10.8221 11.1968 10.8147 11.2057 10.8074C11.2295 10.7879 11.2536 10.7688 11.278 10.7501C11.2897 10.7411 11.3013 10.7322 11.3132 10.7234C11.3394 10.7039 11.3663 10.6853 11.3932 10.6667C11.4501 10.6275 11.5086 10.5905 11.5684 10.5554C11.5927 10.5411 11.6171 10.5267 11.6419 10.5131C11.6623 10.502 11.6831 10.4918 11.7038 10.4812C11.7207 10.4725 11.7375 10.4635 11.7546 10.4552C11.7782 10.4436 11.8022 10.4329 11.8262 10.422C11.8424 10.4145 11.8586 10.4069 11.875 10.3998C11.8961 10.3907 11.9174 10.3818 11.9388 10.3731C11.9591 10.3649 11.9795 10.3568 12 10.349C12.0203 10.3414 12.0407 10.3341 12.0612 10.3269C12.0836 10.319 12.1062 10.3114 12.1289 10.3041C12.1487 10.2977 12.1688 10.2919 12.1888 10.2859C12.2087 10.2799 12.2286 10.2738 12.2487 10.2683C12.2735 10.2615 12.2985 10.2549 12.3236 10.2488C12.3394 10.2449 12.3552 10.2413 12.3711 10.2377C12.4011 10.2309 12.4312 10.2247 12.4616 10.2188C12.4718 10.2169 12.482 10.2148 12.4922 10.213C12.5265 10.2068 12.5609 10.2004 12.5957 10.1954C12.5989 10.1949 12.6023 10.1951 12.6055 10.1947C12.7344 10.1768 12.8661 10.1667 13 10.1667C13.416 10.1667 13.8108 10.257 14.1667 10.4181V6.93628H2.3457V12.7501ZM3.1276 4.39331C2.68961 4.39341 2.34586 4.74204 2.3457 5.15828V5.93628H14.1667V5.15828C14.1665 4.74205 13.8227 4.39343 13.3848 4.39331H3.1276Z" fill="#676767"/>
</g>
<defs>
<clipPath id="clip0_270_57377">
<rect width="16" height="16" fill="white"/>
</clipPath>
</defs>
</svg>
