<svg width="16" height="16" viewBox="0 0 16 16" fill="none" xmlns="http://www.w3.org/2000/svg">
<path d="M1.5 12.6667V8.66666C1.5 7.96272 1.8971 7.35212 2.47917 7.04491C2.41018 6.32864 2.75977 5.60709 3.42773 5.22655L9.52669 1.75194C10.4357 1.23411 11.6014 1.53889 12.1302 2.4427L14.2428 6.05337C14.774 6.96117 14.4558 8.1193 13.543 8.63931L11.8333 9.61262V12.6667C11.8333 13.6792 11.0125 14.5 10 14.5H3.33333C2.32081 14.5 1.5 13.6792 1.5 12.6667ZM4.33333 11.8333C4.60937 11.8334 4.83333 12.0573 4.83333 12.3333C4.83333 12.6094 4.60937 12.8332 4.33333 12.8333H3.61914C3.343 12.8333 3.11914 12.6095 3.11914 12.3333C3.11914 12.0572 3.343 11.8333 3.61914 11.8333H4.33333ZM7.16667 10.6667C7.16667 10.3905 6.94281 10.1667 6.66667 10.1667C6.39052 10.1667 6.16667 10.3905 6.16667 10.6667C6.16667 10.9428 6.39053 11.1667 6.66667 11.1667C6.94281 11.1667 7.16666 10.9428 7.16667 10.6667ZM9.71419 8.49999C9.99033 8.49999 10.2142 8.72385 10.2142 8.99999C10.2142 9.27613 9.99033 9.49999 9.71419 9.49999H9C8.72386 9.49999 8.5 9.27613 8.5 8.99999C8.5 8.72385 8.72386 8.49999 9 8.49999H9.71419ZM11.2669 2.94791C11.0179 2.52222 10.4599 2.37133 10.0215 2.62108L3.92253 6.09569C3.64163 6.25583 3.48295 6.53942 3.47201 6.83332H10C10.9454 6.83332 11.7226 7.54901 11.8216 8.46809L13.0482 7.77017C13.4827 7.52259 13.6262 6.98025 13.3796 6.55858L11.2669 2.94791ZM8.16667 10.6667C8.16666 11.4951 7.49509 12.1667 6.66667 12.1667C5.83824 12.1667 5.16667 11.4951 5.16667 10.6667C5.16667 9.83823 5.83824 9.16666 6.66667 9.16666C7.49509 9.16666 8.16667 9.83823 8.16667 10.6667ZM2.5 12.6667C2.5 13.1269 2.8731 13.5 3.33333 13.5H10C10.4602 13.5 10.8333 13.1269 10.8333 12.6667V8.66666L10.8288 8.58137C10.7861 8.1612 10.4314 7.83332 10 7.83332H3.33333C2.8731 7.83332 2.5 8.20642 2.5 8.66666V12.6667Z" fill="#676767"/>
</svg>
