<svg width="16" height="16" viewBox="0 0 16 16" fill="none" xmlns="http://www.w3.org/2000/svg">
<path d="M13.5 9.33333C13.5 8.68045 13.0823 8.12666 12.5 7.92057V13C12.5 13.2761 12.7239 13.5 13 13.5C13.2761 13.5 13.5 13.2761 13.5 13V9.33333ZM8.66667 11.5C8.94281 11.5 9.16667 11.7239 9.16667 12C9.16667 12.2761 8.94281 12.5 8.66667 12.5H5.33333C5.05719 12.5 4.83333 12.2761 4.83333 12C4.83333 11.7239 5.05719 11.5 5.33333 11.5H8.66667ZM9.33333 9.5C9.60948 9.5 9.83333 9.72386 9.83333 10C9.83333 10.2761 9.60948 10.5 9.33333 10.5H4.66667C4.39052 10.5 4.16667 10.2761 4.16667 10C4.16667 9.72386 4.39052 9.5 4.66667 9.5H9.33333ZM8.31315 4.97982C8.50841 4.78456 8.82492 4.78456 9.02018 4.97982C9.21544 5.17508 9.21544 5.49159 9.02018 5.68685L7.35352 7.35352C7.15825 7.54878 6.84175 7.54878 6.64648 7.35352L5.64648 6.35352C5.45122 6.15825 5.45122 5.84175 5.64648 5.64648C5.84175 5.45122 6.15825 5.45122 6.35352 5.64648L7 6.29297L8.31315 4.97982ZM11.5 4C11.5 3.17157 10.8284 2.5 10 2.5H4C3.17157 2.5 2.5 3.17157 2.5 4V12C2.5 12.8284 3.17157 13.5 4 13.5H11.5872C11.5318 13.3434 11.5 13.1755 11.5 13V4ZM12.5 6.88281C13.6412 7.11441 14.5 8.12382 14.5 9.33333V13C14.5 13.8284 13.8284 14.5 13 14.5H4C2.61929 14.5 1.5 13.3807 1.5 12V4C1.5 2.61929 2.61929 1.5 4 1.5H10C11.3807 1.5 12.5 2.61929 12.5 4V6.88281Z" fill="#676767"/>
</svg>
