<svg width="16" height="16" viewBox="0 0 16 16" fill="none" xmlns="http://www.w3.org/2000/svg">
<path d="M14.6088 5.93628C14.8849 5.93628 15.1088 6.16014 15.1088 6.43628C15.1088 6.71242 14.8849 6.93628 14.6088 6.93628H1.84576C1.56962 6.93628 1.34576 6.71242 1.34576 6.43628C1.34576 6.16014 1.56962 5.93628 1.84576 5.93628H14.6088Z" fill="#676767"/>
<path d="M3.94843 3.8929V2.60254C3.94843 2.3264 4.17228 2.10254 4.44843 2.10254C4.72457 2.10254 4.94843 2.3264 4.94843 2.60254V3.8929C4.94843 4.16905 4.72457 4.3929 4.44843 4.3929C4.17228 4.3929 3.94843 4.16905 3.94843 3.8929Z" fill="#676767"/>
<path d="M11.7243 3.8929V2.60254C11.7243 2.3264 11.9482 2.10254 12.2243 2.10254C12.5004 2.10254 12.7243 2.3264 12.7243 2.60254V3.8929C12.7243 4.16905 12.5004 4.3929 12.2243 4.3929C11.9482 4.3929 11.7243 4.16905 11.7243 3.8929Z" fill="#676767"/>
<path d="M14.1667 5.15804C14.1666 4.7418 13.8228 4.39319 13.3848 4.39307H3.12767C2.68967 4.39317 2.34592 4.74179 2.34576 5.15804V12.7498C2.34576 13.1662 2.68957 13.5154 3.12767 13.5155H13.3848C13.8229 13.5153 14.1667 13.1662 14.1667 12.7498V5.15804ZM15.1667 12.7498C15.1667 13.7309 14.3627 14.5153 13.3848 14.5155H3.12767C2.14978 14.5154 1.34576 13.7309 1.34576 12.7498V5.15804C1.34592 4.1771 2.14987 3.39317 3.12767 3.39307H13.3848C14.3626 3.39319 15.1666 4.17711 15.1667 5.15804V12.7498Z" fill="#676767"/>
<path d="M4.17914 9.72567H5.10232V8.82788H4.17914V9.72567ZM6.10232 9.90926C6.10232 10.3662 5.72881 10.7255 5.282 10.7257H3.99945C3.55263 10.7256 3.17914 10.3662 3.17914 9.90926V8.64429C3.17914 8.18731 3.55263 7.82799 3.99945 7.82788H5.282C5.72881 7.82801 6.10232 8.18732 6.10232 8.64429V9.90926Z" fill="#676767"/>
<path d="M7.86517 9.72567H8.78835V8.82788H7.86517V9.72567ZM9.78835 9.90926C9.78835 10.3662 9.41484 10.7255 8.96804 10.7257H7.68549C7.23867 10.7256 6.86517 10.3662 6.86517 9.90926V8.64429C6.86517 8.18731 7.23867 7.82799 7.68549 7.82788H8.96804C9.41484 7.82801 9.78835 8.18732 9.78835 8.64429V9.90926Z" fill="#676767"/>
</svg>
