<svg width="16" height="16" viewBox="0 0 16 16" fill="none" xmlns="http://www.w3.org/2000/svg">
<path d="M13.5 8C13.5 4.96243 11.0376 2.5 8 2.5C4.96243 2.5 2.5 4.96243 2.5 8C2.5 11.0376 4.96243 13.5 8 13.5C11.0376 13.5 13.5 11.0376 13.5 8ZM11.5469 9.05729C11.6257 8.79271 11.904 8.64201 12.1686 8.7207C12.4332 8.79946 12.5839 9.07782 12.5052 9.34245C11.9275 11.2835 10.1299 12.6999 8 12.6999C5.87015 12.6999 4.07248 11.2835 3.49479 9.34245C3.41612 9.07782 3.56676 8.79946 3.83138 8.7207C4.096 8.642 4.37433 8.7927 4.45312 9.05729C4.90809 10.586 6.32463 11.6999 8 11.6999C9.67537 11.6999 11.0919 10.586 11.5469 9.05729ZM9.5 9.33333V7.44141C9.49994 7.2897 9.37697 7.16673 9.22526 7.16667C9.10696 7.16667 9.0016 7.24258 8.96419 7.35482L8.47461 8.82487C8.40655 9.02904 8.21522 9.16667 8 9.16667C7.78478 9.16667 7.59345 9.02904 7.52539 8.82487L7.03581 7.35482C6.9984 7.24258 6.89304 7.16667 6.77474 7.16667C6.62303 7.16673 6.50006 7.2897 6.5 7.44141V9.33333C6.5 9.60948 6.27614 9.83333 6 9.83333C5.72386 9.83333 5.5 9.60948 5.5 9.33333V7.44141C5.50006 6.73741 6.07075 6.16673 6.77474 6.16667C7.32347 6.16667 7.81085 6.51784 7.98438 7.03841L8 7.08464L8.01562 7.03841C8.18915 6.51784 8.67653 6.16667 9.22526 6.16667C9.92925 6.16673 10.4999 6.73741 10.5 7.44141V9.33333C10.5 9.60948 10.2761 9.83333 10 9.83333C9.72386 9.83333 9.5 9.60948 9.5 9.33333ZM8 3.30013C10.1299 3.30013 11.9275 4.71648 12.5052 6.65755C12.5839 6.92218 12.4332 7.20054 12.1686 7.2793C11.904 7.35799 11.6257 7.20729 11.5469 6.94271C11.0919 5.414 9.67537 4.30013 8 4.30013C6.32463 4.30013 4.90809 5.414 4.45312 6.94271C4.37433 7.2073 4.096 7.358 3.83138 7.2793C3.56676 7.20054 3.41612 6.92218 3.49479 6.65755C4.07248 4.71648 5.87015 3.30013 8 3.30013ZM14.5 8C14.5 11.5899 11.5899 14.5 8 14.5C4.41015 14.5 1.5 11.5899 1.5 8C1.5 4.41015 4.41015 1.5 8 1.5C11.5899 1.5 14.5 4.41015 14.5 8Z" fill="#676767"/>
</svg>
