<svg width="24" height="24" viewBox="0 0 24 24" fill="none" xmlns="http://www.w3.org/2000/svg">
<path d="M19.3018 17.3848C19.2105 17.3571 19.1223 17.3161 19.0449 17.2529L18.9883 17.2021L15.2393 13.4531L8.08789 20.1846H16.8545C18.2059 20.1845 19.3017 19.0887 19.3018 17.7373V17.3848ZM8.64453 8.67871C8.64453 8.21012 8.26446 7.83018 7.7959 7.83008C7.32725 7.83008 6.94727 8.21006 6.94727 8.67871C6.94734 9.1473 7.32729 9.52734 7.7959 9.52734C8.26442 9.52724 8.64446 9.14724 8.64453 8.67871ZM18.2354 9.02832V6.76465H15.9717C15.5576 6.76465 15.2219 6.4287 15.2217 6.01465C15.2217 5.60043 15.5575 5.26465 15.9717 5.26465H18.2354V3C18.2354 2.5859 18.5713 2.25019 18.9854 2.25C19.3996 2.25 19.7354 2.58579 19.7354 3V5.26465H22L22.0771 5.26855C22.4551 5.30719 22.75 5.62649 22.75 6.01465C22.7498 6.40267 22.455 6.72215 22.0771 6.76074L22 6.76465H19.7354V9.02832C19.7354 9.44253 19.3996 9.77832 18.9854 9.77832C18.5713 9.77813 18.2354 9.44242 18.2354 9.02832ZM20.8018 17.7373C20.8017 19.9171 19.0343 21.6845 16.8545 21.6846H6.19727C4.01737 21.6846 2.25009 19.9172 2.25 17.7373V7.08008C2.25 4.90013 4.01732 3.13281 6.19727 3.13281H13.124C13.5382 3.13281 13.874 3.46862 13.874 3.88281C13.874 4.29703 13.5382 4.63281 13.124 4.63281H6.19727C4.84575 4.63281 3.75 5.72856 3.75 7.08008V17.7373C3.75008 18.994 4.69754 20.0279 5.91699 20.167L14.7412 11.8623L14.8594 11.7715C15.1495 11.5906 15.5353 11.6272 15.7861 11.8779L19.3018 15.3936V12.4082C19.302 11.9942 19.6377 11.6582 20.0518 11.6582C20.4657 11.6584 20.8016 11.9943 20.8018 12.4082V17.7373ZM10.1445 8.67871C10.1445 9.97567 9.09285 11.0272 7.7959 11.0273C6.49886 11.0273 5.44734 9.97573 5.44727 8.67871C5.44727 7.38163 6.49882 6.33008 7.7959 6.33008C9.09289 6.33018 10.1445 7.38169 10.1445 8.67871Z" fill="#555555"/>
</svg>
