<svg width="24" height="24" viewBox="0 0 24 24" fill="none" xmlns="http://www.w3.org/2000/svg">
<path d="M7.11328 15.9844C7.61668 16.0356 8.01172 16.4601 8.01172 16.9795C8.01146 17.5315 7.56377 17.9795 7.01172 17.9795C6.49428 17.9795 6.06817 17.5859 6.0166 17.082L6.01172 16.9795C6.01064 16.4245 6.46138 15.9795 7.01074 15.9795L7.11328 15.9844Z" fill="#555555"/>
<path d="M12.1152 15.9844C12.6186 16.0356 13.0137 16.4601 13.0137 16.9795C13.0134 17.5315 12.5657 17.9795 12.0137 17.9795C11.4962 17.9795 11.0701 17.5859 11.0186 17.082L11.0137 16.9795C11.0126 16.4245 11.4633 15.9795 12.0127 15.9795L12.1152 15.9844Z" fill="#555555"/>
<path d="M12.1152 11.9844C12.6186 12.0356 13.0137 12.4601 13.0137 12.9795C13.0134 13.5315 12.5657 13.9795 12.0137 13.9795C11.4962 13.9795 11.0701 13.5859 11.0186 13.082L11.0137 12.9795C11.0126 12.4245 11.4633 11.9785 12.0127 11.9785L12.1152 11.9844Z" fill="#555555"/>
<path d="M17.1172 11.9844C17.6206 12.0356 18.0156 12.4601 18.0156 12.9795C18.0154 13.5315 17.5677 13.9795 17.0156 13.9795C16.4982 13.9795 16.0721 13.5859 16.0205 13.082L16.0156 12.9795C16.0145 12.4245 16.4653 11.9785 17.0146 11.9785L17.1172 11.9844Z" fill="#555555"/>
<path fill-rule="evenodd" clip-rule="evenodd" d="M16 1.25C16.4142 1.25 16.75 1.58579 16.75 2V3.25H19C20.5192 3.25 21.75 4.48079 21.75 6V19C21.75 20.5192 20.5192 21.75 19 21.75H5C3.48079 21.75 2.25 20.5192 2.25 19V6C2.25 4.48079 3.48079 3.25 5 3.25H7.25V2C7.25 1.58579 7.58579 1.25 8 1.25C8.41421 1.25 8.75 1.58579 8.75 2V3.25H15.25V2C15.25 1.58579 15.5858 1.25 16 1.25ZM3.75 19C3.75 19.6908 4.30921 20.25 5 20.25H19C19.6908 20.25 20.25 19.6908 20.25 19V9.75H3.75V19ZM5 4.75C4.30921 4.75 3.75 5.30921 3.75 6V8.25H20.25V6C20.25 5.30921 19.6908 4.75 19 4.75H16.75V6C16.75 6.41421 16.4142 6.75 16 6.75C15.5858 6.75 15.25 6.41421 15.25 6V4.75H8.75V6C8.75 6.41421 8.41421 6.75 8 6.75C7.58579 6.75 7.25 6.41421 7.25 6V4.75H5Z" fill="#555555"/>
</svg>
