<svg width="24" height="24" viewBox="0 0 24 24" fill="none" xmlns="http://www.w3.org/2000/svg">
<path d="M10.9999 21V5.41407L5.20696 11.207C4.81643 11.5976 4.18342 11.5976 3.79289 11.207C3.40237 10.8165 3.40237 10.1835 3.79289 9.79298L11.2929 2.29298L11.3691 2.22462C11.7618 1.90427 12.3408 1.92686 12.707 2.29298L20.207 9.79298L20.2753 9.86915C20.5957 10.2619 20.5731 10.8409 20.207 11.207C19.8408 11.5732 19.2618 11.5958 18.8691 11.2754L18.7929 11.207L12.9999 5.41407V21C12.9999 21.5523 12.5522 22 11.9999 22C11.4476 22 10.9999 21.5523 10.9999 21Z" fill="#555555"/>
</svg>
