<svg width="24" height="24" viewBox="0 0 24 24" fill="none" xmlns="http://www.w3.org/2000/svg">
<path d="M10.9998 3C10.9998 2.44772 11.4475 2 11.9998 2C12.5521 2 12.9998 2.44772 12.9998 3V18.5859L18.7927 12.793C19.1833 12.4024 19.8163 12.4024 20.2068 12.793C20.5973 13.1835 20.5973 13.8165 20.2068 14.207L12.7068 21.707C12.3163 22.0976 11.6833 22.0976 11.2927 21.707L3.79273 14.207L3.72437 14.1309C3.40402 13.7381 3.42662 13.1591 3.79273 12.793C4.15885 12.4269 4.73785 12.4043 5.13063 12.7246L5.2068 12.793L10.9998 18.5859V3Z" fill="#555555"/>
</svg>
