<svg width="24" height="24" viewBox="0 0 24 24" fill="none" xmlns="http://www.w3.org/2000/svg">
<path d="M9.86907 3.72462C10.2618 3.40427 10.8408 3.42686 11.207 3.79298C11.5731 4.15909 11.5957 4.7381 11.2753 5.13087L11.207 5.20704L5.41399 11H20.9999C21.5522 11 21.9999 11.4477 21.9999 12C21.9999 12.5523 21.5522 13 20.9999 13H5.41399L11.207 18.793L11.2753 18.8692C11.5957 19.2619 11.5731 19.8409 11.207 20.207C10.8408 20.5732 10.2618 20.5958 9.86907 20.2754L9.79289 20.207L2.29289 12.707C1.90237 12.3165 1.90237 11.6835 2.29289 11.293L9.79289 3.79298L9.86907 3.72462Z" fill="#555555"/>
</svg>
