<svg width="24" height="24" viewBox="0 0 24 24" fill="none" xmlns="http://www.w3.org/2000/svg">
<path d="M14.5094 9.57366C14.84 9.3044 15.328 9.32373 15.636 9.63174C15.9439 9.93976 15.9634 10.4278 15.6941 10.7583L15.636 10.8219L12.1292 14.3288C11.821 14.6369 11.3331 14.6564 11.0026 14.3868L10.939 14.3288L8.83489 12.2246L8.7768 12.1611C8.50713 11.8305 8.52673 11.3427 8.83489 11.0345C9.14307 10.7267 9.63105 10.7069 9.96147 10.9764L10.025 11.0345L11.5341 12.5435L14.4459 9.63174L14.5094 9.57366Z" fill="#555555"/>
<path fill-rule="evenodd" clip-rule="evenodd" d="M9.72147 2.67826C11.1827 2.08024 12.8202 2.08022 14.2815 2.67826L14.2826 2.67717L18.9577 4.59061L18.9588 4.5917L19.2032 4.70239C20.3984 5.30074 21.1657 6.5264 21.1659 7.8794V11.2153C21.1658 16.2686 17.4093 20.9066 12.3714 22.0395C12.1285 22.0941 11.8755 22.094 11.6327 22.0395C6.59425 20.907 2.83605 16.2689 2.83594 11.2153V7.8794C2.83615 6.43774 3.70862 5.13681 5.04527 4.59061L9.72147 2.67826ZM13.6448 4.23553C12.5919 3.80448 11.4111 3.80458 10.3582 4.23553L5.68308 6.14897C4.98 6.436 4.52055 7.12025 4.52033 7.8794V11.2153C4.52044 15.4618 7.7125 19.4326 12.002 20.3968C16.2911 19.4323 19.4825 15.4615 19.4826 11.2153V7.8794C19.4824 7.12058 19.0236 6.43715 18.321 6.14897L13.6448 4.23553Z" fill="#555555"/>
</svg>
