<svg width="24" height="24" viewBox="0 0 24 24" fill="none" xmlns="http://www.w3.org/2000/svg">
<path fill-rule="evenodd" clip-rule="evenodd" d="M15.75 2.7002C16.346 2.7002 16.8124 3.18701 16.8125 3.7666V6.2998C16.8125 6.36807 16.8054 6.43493 16.793 6.5H19.5C20.7864 6.5 21.8123 7.55389 21.8125 8.83301V18.9668C21.8124 20.246 20.7864 21.2998 19.5 21.2998H4.5C3.21355 21.2998 2.18757 20.246 2.1875 18.9668V8.83301C2.18767 7.55389 3.21362 6.5 4.5 6.5H7.20703C7.19465 6.43493 7.1875 6.36807 7.1875 6.2998V3.7666C7.18764 3.18701 7.65395 2.7002 8.25 2.7002H15.75ZM20.3125 14.8154C20.0599 14.9112 19.787 14.9668 19.5 14.9668H4.5C4.21297 14.9668 3.9401 14.9112 3.6875 14.8154V18.9668C3.68757 19.4364 4.06064 19.7998 4.5 19.7998H19.5C19.9394 19.7998 20.3124 19.4364 20.3125 18.9668V14.8154ZM4.5 8C4.0607 8 3.68767 8.36353 3.6875 8.83301V12.6338C3.68774 13.1032 4.06075 13.4668 4.5 13.4668H19.5C19.9393 13.4668 20.3123 13.1032 20.3125 12.6338V8.83301C20.3123 8.36353 19.9393 8 19.5 8H4.5ZM8.6875 5.86719H15.3125V4.2002H8.6875V5.86719Z" fill="#555555"/>
</svg>
