<svg width="24" height="24" viewBox="0 0 24 24" fill="none" xmlns="http://www.w3.org/2000/svg">
<path d="M14.25 15.5996C14.25 15.3074 14.2498 15.133 14.2393 15.0039C14.2344 14.9443 14.2275 14.9111 14.2236 14.8945L14.2227 14.8867C14.2107 14.8632 14.1952 14.8417 14.1768 14.8232L14.1133 14.7773C14.1297 14.7857 14.1162 14.7706 13.9961 14.7607C13.867 14.7502 13.6926 14.75 13.4004 14.75H10.5996C10.3074 14.75 10.133 14.7502 10.0039 14.7607C9.94433 14.7656 9.91107 14.7725 9.89454 14.7764L9.88672 14.7773C9.8632 14.7893 9.84168 14.8048 9.82325 14.8232L9.77735 14.8867C9.78569 14.8703 9.77058 14.8838 9.76075 15.0039C9.7502 15.133 9.75 15.3074 9.75 15.5996V20.25H14.25V15.5996ZM20.25 6.2002C20.25 5.62777 20.2498 5.24315 20.2256 4.94727C20.208 4.73202 20.1798 4.601 20.1475 4.51075L20.1133 4.43262C20.0084 4.22682 19.8492 4.05466 19.6533 3.93457L19.5674 3.88672C19.4768 3.84059 19.3397 3.79788 19.0527 3.77442C18.7569 3.75024 18.3722 3.75 17.7998 3.75H6.2002C5.62777 3.75 5.24315 3.75024 4.94727 3.77442C4.73202 3.79201 4.601 3.8202 4.51075 3.85254L4.43262 3.88672C4.22682 3.99161 4.05466 4.15085 3.93457 4.34668L3.88672 4.43262C3.84059 4.52316 3.79788 4.66027 3.77442 4.94727C3.75024 5.24315 3.75 5.62777 3.75 6.2002V7C3.75 8.24265 4.75736 9.25 6 9.25C7.24264 9.25 8.25 8.24265 8.25 7C8.25 6.58579 8.58579 6.25 9 6.25C9.41422 6.25 9.75 6.58579 9.75 7C9.75 8.24265 10.7574 9.25 12 9.25C13.2426 9.25 14.25 8.24265 14.25 7C14.25 6.58579 14.5858 6.25 15 6.25C15.4142 6.25 15.75 6.58579 15.75 7C15.75 8.24265 16.7574 9.25 18 9.25C19.2426 9.25 20.25 8.24265 20.25 7V6.2002ZM15.75 20.25H17.7998C18.3722 20.25 18.7569 20.2498 19.0527 20.2256C19.3397 20.2021 19.4768 20.1594 19.5674 20.1133L19.6533 20.0654C19.8492 19.9453 20.0084 19.7732 20.1133 19.5674L20.1475 19.4893C20.1798 19.399 20.208 19.268 20.2256 19.0527C20.2498 18.7569 20.25 18.3722 20.25 17.7998V10C19.6232 10.4708 18.8443 10.75 18 10.75C16.7732 10.75 15.6842 10.1608 15 9.25C14.3158 10.1608 13.2268 10.75 12 10.75C10.7732 10.75 9.68417 10.1608 9 9.25C8.31584 10.1608 7.22681 10.75 6 10.75C5.15574 10.75 4.37677 10.4708 3.75 10V17.7998L3.75293 18.5303C3.7561 18.7347 3.76234 18.9049 3.77442 19.0527C3.79788 19.3397 3.84059 19.4768 3.88672 19.5674L3.93457 19.6533C4.05466 19.8492 4.22682 20.0084 4.43262 20.1133L4.51075 20.1475C4.601 20.1798 4.73202 20.208 4.94727 20.2256C5.24315 20.2498 5.62777 20.25 6.2002 20.25H8.25V15.5996C8.25 15.3321 8.24992 15.0861 8.26661 14.8818C8.28403 14.6688 8.32315 14.4353 8.44043 14.2051L8.50782 14.085C8.67592 13.8108 8.917 13.5873 9.20508 13.4404L9.37891 13.3662C9.55136 13.3048 9.72223 13.2797 9.88184 13.2666C10.0861 13.2499 10.3321 13.25 10.5996 13.25H13.4004C13.6679 13.25 13.9139 13.2499 14.1182 13.2666C14.3312 13.284 14.5647 13.3231 14.7949 13.4404L14.915 13.5078C15.1892 13.6759 15.4127 13.917 15.5596 14.2051L15.6338 14.3789C15.6952 14.5514 15.7203 14.7222 15.7334 14.8818C15.7501 15.0861 15.75 15.3321 15.75 15.5996V20.25ZM21.75 17.7998C21.75 18.3475 21.751 18.8037 21.7207 19.1748C21.6935 19.5072 21.6382 19.8217 21.5098 20.1211L21.4502 20.2481C21.2195 20.7008 20.8683 21.0795 20.4375 21.3438L20.2481 21.4502C19.9109 21.6219 19.5545 21.6897 19.1748 21.7207C18.8037 21.751 18.3475 21.75 17.7998 21.75H6.2002C5.65252 21.75 5.19633 21.751 4.8252 21.7207C4.49281 21.6935 4.1783 21.6382 3.87891 21.5098L3.75196 21.4502C3.29916 21.2195 2.92048 20.8683 2.65625 20.4375L2.54981 20.2481C2.3781 19.9109 2.31033 19.5545 2.2793 19.1748C2.26414 18.9893 2.25756 18.7825 2.25391 18.5537L2.25 17.7998V6.2002C2.25 5.65252 2.24898 5.19633 2.2793 4.8252C2.31033 4.44547 2.3781 4.0891 2.54981 3.75196L2.65625 3.5625C2.92048 3.13169 3.29916 2.78052 3.75196 2.54981L3.87891 2.49024C4.1783 2.36184 4.49281 2.30646 4.8252 2.2793C5.19633 2.24898 5.65252 2.25 6.2002 2.25H17.7998C18.3475 2.25 18.8037 2.24898 19.1748 2.2793C19.5545 2.31033 19.9109 2.3781 20.2481 2.54981L20.4375 2.65625C20.8683 2.92048 21.2195 3.29916 21.4502 3.75196L21.5098 3.87891C21.6382 4.1783 21.6935 4.49281 21.7207 4.8252C21.751 5.19633 21.75 5.65252 21.75 6.2002V17.7998Z" fill="#555555"/>
</svg>
