<svg width="24" height="24" viewBox="0 0 24 24" fill="none" xmlns="http://www.w3.org/2000/svg">
<path d="M7.00056 7H14.1434L17.7148 7.71429L21.2863 19.8571L20.572 21.2857H3.42913L2.71484 20.5714L7.00056 7Z" fill="#555555"/>
<path fill-rule="evenodd" clip-rule="evenodd" d="M11.3949 2.06184C9.98922 2.36297 8.99168 3.66661 9.08379 5.08212C9.11902 5.62322 9.25602 6.06033 9.51949 6.47221L9.65527 6.68447L8.37648 6.68494C6.99723 6.68545 6.88844 6.69775 6.4943 6.89799C6.23066 7.0319 5.87813 7.38385 5.7548 7.63623C5.67898 7.79135 2.51684 18.1962 2.11551 19.6112C2.05195 19.8351 2 20.1024 2 20.205C2 21.0456 2.58688 21.7791 3.3984 21.9527C3.69078 22.0153 20.3046 22.016 20.6016 21.9534C21.408 21.7836 22 21.0435 22 20.205C22 20.1024 21.948 19.8351 21.8845 19.6112C21.488 18.2128 18.3203 7.78987 18.2448 7.63522C18.1202 7.37987 17.7327 6.99975 17.4688 6.874C17.1105 6.70338 16.9236 6.68447 15.5932 6.68447H14.3466L14.4992 6.44033C14.7263 6.07721 14.8891 5.55131 14.9172 5.0908C15.0192 3.41708 13.6523 1.98258 11.9723 2.00016C11.8049 2.00188 11.5451 2.02965 11.3949 2.06184ZM12.3594 3.21239C12.6978 3.28356 12.9779 3.4379 13.2322 3.69337C14.2396 4.7054 13.6904 6.41049 12.2791 6.65252C11.7248 6.74756 11.1779 6.56889 10.7678 6.15885C10.074 5.46509 10.0736 4.38482 10.7667 3.69427C11.2005 3.26208 11.7727 3.08895 12.3594 3.21239ZM16.9637 7.93588C17.0721 7.99116 17.1432 8.06557 17.1971 8.18002C17.3042 8.40721 20.8281 20.1268 20.8281 20.2557C20.8281 20.4344 20.6843 20.661 20.5166 20.7465C20.3636 20.8246 20.304 20.8251 11.9971 20.8251H3.63172L3.4759 20.7376C3.30742 20.6429 3.17188 20.4277 3.17188 20.255C3.17188 20.121 6.75813 8.21409 6.82949 8.1112C6.85895 8.06874 6.94891 7.99413 7.02941 7.94538L7.17578 7.85674L11.9918 7.85655C16.7592 7.85635 16.8094 7.85717 16.9637 7.93588ZM8.2266 11.4841C8.13856 11.5249 8.0243 11.6174 7.9727 11.6897L7.87891 11.8212L7.86781 14.2822C7.85789 16.4783 7.86352 16.7611 7.92027 16.9102C8.08883 17.3532 8.70242 17.3992 8.95332 16.9876C9.02527 16.8696 9.03098 16.7893 9.03109 15.8935L9.03125 14.9267H9.14832C9.2625 14.9267 9.27863 14.9532 9.81023 16.016C10.2757 16.9465 10.3746 17.1172 10.4888 17.1878C10.7583 17.3544 11.1295 17.2624 11.2971 16.9876C11.4535 16.731 11.4225 16.6284 10.8283 15.4363L10.2816 14.3395L10.8283 13.2466C11.3837 12.1363 11.4254 12.0173 11.3384 11.7885C11.2437 11.5395 10.898 11.369 10.6522 11.4502C10.3934 11.5355 10.3275 11.6315 9.7907 12.7046C9.28148 13.7226 9.2618 13.7548 9.1502 13.7548H9.035L9.02336 12.7685C9.01254 11.8531 9.00609 11.7746 8.93359 11.678C8.75973 11.4463 8.47645 11.3686 8.2266 11.4841ZM14.3516 11.5291C13.9241 11.6411 13.6213 11.8184 13.2877 12.1519C12.9494 12.4903 12.776 12.79 12.6631 13.2312C12.5979 13.4861 12.5859 13.6643 12.5859 14.3798C12.5859 15.3351 12.6346 15.6285 12.8669 16.0718C13.0329 16.3886 13.5068 16.8626 13.8237 17.0286C14.342 17.3001 14.9412 17.3733 15.4923 17.2324C15.9336 17.1195 16.2333 16.9461 16.5716 16.6077C17.085 16.0944 17.2734 15.5936 17.2734 14.7431C17.2734 14.1662 17.2145 14.0013 16.962 13.8725C16.8243 13.8023 16.7323 13.7939 16.1016 13.7939C15.4708 13.7939 15.3788 13.8023 15.2412 13.8725C15.0679 13.9609 14.9297 14.186 14.9297 14.3798C14.9297 14.5736 15.0679 14.7987 15.2412 14.8871C15.3625 14.949 15.4716 14.9658 15.7534 14.9658H16.1116L16.0853 15.1301C16.0223 15.5241 15.7937 15.8377 15.4446 16.0091C15.2616 16.099 15.1713 16.1181 14.9297 16.1181C14.4414 16.1181 14.0636 15.8775 13.8596 15.4365C13.7837 15.2724 13.7773 15.1911 13.7773 14.3798V13.5009L13.8863 13.2789C14.2104 12.6189 15.0766 12.4201 15.64 12.8764C15.8837 13.0738 16.0511 13.1413 16.2433 13.1196C16.4661 13.0945 16.6289 12.9686 16.7087 12.7599C16.8123 12.4884 16.7645 12.333 16.4965 12.0711C15.9644 11.5512 15.1006 11.3329 14.3516 11.5291Z" fill="#555555"/>
<path fill-rule="evenodd" clip-rule="evenodd" d="M8.22604 11.4838C8.13799 11.5246 8.02374 11.6171 7.97213 11.6894L7.87835 11.8209L7.86725 14.2819C7.85733 16.478 7.86296 16.7608 7.91971 16.9099C8.08827 17.3529 8.70186 17.3989 8.95276 16.9873C9.02471 16.8693 9.03042 16.789 9.03053 15.8932L9.03069 14.9264H9.14776C9.26194 14.9264 9.27807 14.9529 9.80967 16.0157C10.2752 16.9462 10.3741 17.1169 10.4883 17.1875C10.7578 17.3541 11.129 17.2621 11.2965 16.9873C11.453 16.7307 11.4219 16.6281 10.8278 15.436L10.2811 14.3392L10.8278 13.2463C11.3832 12.136 11.4248 12.017 11.3378 11.7882C11.2431 11.5392 10.8975 11.3687 10.6517 11.4499C10.3929 11.5352 10.327 11.6312 9.79014 12.7043C9.28092 13.7223 9.26124 13.7545 9.14963 13.7545H9.03444L9.0228 12.7682C9.01198 11.8528 9.00553 11.7744 8.93303 11.6777C8.75917 11.446 8.47588 11.3683 8.22604 11.4838ZM14.3511 11.5288C13.9235 11.6408 13.6208 11.8181 13.2872 12.1516C12.9488 12.49 12.7754 12.7897 12.6625 13.2309C12.5973 13.4858 12.5854 13.664 12.5854 14.3795C12.5854 15.3348 12.6341 15.6282 12.8663 16.0715C13.0323 16.3884 13.5062 16.8623 13.8231 17.0283C14.3414 17.2998 14.9406 17.373 15.4918 17.2321C15.933 17.1192 16.2327 16.9458 16.5711 16.6074C17.0844 16.0941 17.2729 15.5933 17.2729 14.7428C17.2729 14.1659 17.2139 14.001 16.9614 13.8722C16.8237 13.802 16.7317 13.7936 16.101 13.7936C15.4703 13.7936 15.3783 13.802 15.2406 13.8722C15.0673 13.9606 14.9291 14.1857 14.9291 14.3795C14.9291 14.5733 15.0673 14.7984 15.2406 14.8868C15.3619 14.9487 15.471 14.9655 15.7529 14.9655H16.111L16.0847 15.1298C16.0217 15.5238 15.7932 15.8374 15.444 16.0088C15.261 16.0987 15.1707 16.1178 14.9291 16.1178C14.4408 16.1178 14.0631 15.8772 13.859 15.4362C13.7831 15.2721 13.7768 15.1908 13.7768 14.3795V13.5006L13.8858 13.2787C14.2099 12.6187 15.076 12.4198 15.6394 12.8761C15.8831 13.0735 16.0505 13.141 16.2427 13.1193C16.4655 13.0942 16.6284 12.9683 16.7081 12.7596C16.8118 12.4881 16.7639 12.3327 16.496 12.0708C15.9639 11.5509 15.1001 11.3326 14.3511 11.5288Z" fill="white"/>
</svg>
