<svg width="24" height="24" viewBox="0 0 24 24" fill="none" xmlns="http://www.w3.org/2000/svg">
<path d="M11.9996 2.24268C12.8537 2.24272 13.6339 2.72626 14.0143 3.49072L15.9732 7.3999L20.3141 8.021H20.315C21.1699 8.14081 21.8808 8.73933 22.1451 9.56104L22.1891 9.71631C22.3791 10.4937 22.1407 11.3181 21.5563 11.8765L21.5572 11.8774L18.4381 14.8657L19.1793 19.1128H19.1783C19.3179 19.9037 19.0259 20.7046 18.4195 21.2192L18.2936 21.3188C17.6026 21.8255 16.6844 21.8949 15.9244 21.4995V21.5005L11.9986 19.4722L8.07481 21.4995L8.07384 21.4985C7.3615 21.8688 6.51036 21.8314 5.83751 21.4077L5.70567 21.3179C5.0572 20.8423 4.71524 20.0599 4.79844 19.2681L4.81993 19.1089L5.56016 14.8657L2.442 11.8774L2.44298 11.8765C1.81928 11.2808 1.58999 10.3822 1.85411 9.56104L1.9088 9.40967C2.18783 8.71612 2.794 8.20572 3.52501 8.04932L3.68419 8.021L8.02305 7.3999L9.98399 3.49072C10.3644 2.72606 11.1454 2.24268 11.9996 2.24268ZM11.9996 3.74268C11.7144 3.74268 11.4535 3.90417 11.3268 4.15967L11.3258 4.1626L9.18907 8.42334C9.07896 8.64299 8.86879 8.79569 8.62559 8.83057L3.89415 9.50635H3.89219C3.64269 9.54132 3.43021 9.699 3.32188 9.92139L3.28184 10.02C3.20468 10.2599 3.25373 10.52 3.40684 10.7144L3.47813 10.7935L3.48009 10.7944L6.88731 14.0601L6.94981 14.1284C7.08582 14.2956 7.1445 14.5147 7.10704 14.73L6.29747 19.3696V19.3716C6.24748 19.6532 6.36175 19.9387 6.59239 20.1079L6.68223 20.1646C6.89891 20.2805 7.16151 20.2841 7.38341 20.1685L7.38634 20.1665L11.6549 17.9614L11.7379 17.9253C11.9345 17.8521 12.1545 17.864 12.3434 17.9614L16.6129 20.1675L16.6158 20.1694L16.7125 20.2114C16.9444 20.2934 17.2049 20.257 17.4068 20.1089L17.4879 20.0405C17.6636 19.8687 17.7455 19.619 17.7018 19.3726V19.3706L16.8922 14.73C16.8494 14.484 16.9316 14.2329 17.1119 14.0601L20.5191 10.7944L20.5211 10.7935L20.5924 10.7144C20.7237 10.5477 20.7786 10.3327 20.7428 10.1235L20.7174 10.02C20.6292 9.74609 20.392 9.54635 20.107 9.50635H20.1051L15.3736 8.83057C15.1608 8.80011 14.9726 8.68003 14.8551 8.50342L14.8092 8.42334L12.6734 4.1626L12.6725 4.15967C12.5458 3.90415 12.2848 3.74272 11.9996 3.74268Z" fill="#555555"/>
</svg>
