<svg width="24" height="24" viewBox="0 0 24 24" fill="none" xmlns="http://www.w3.org/2000/svg">
<rect width="24" height="24" rx="12" fill="#176CF7"/>
<path d="M15.8814 13.99C15.8814 16.57 13.8714 17.785 11.7864 17.785C9.85137 17.785 8.24637 16.765 7.75137 15.085L10.0464 14.38C10.2714 15.115 10.9314 15.655 11.7564 15.655C12.6114 15.655 13.3464 15.13 13.3464 14.11C13.3464 12.85 12.2064 12.49 11.1714 12.49C10.4214 12.49 9.32637 12.685 8.57637 12.955L8.83137 6.88H15.3414V9.04H11.0664L10.9764 10.72C11.2914 10.645 11.7264 10.615 12.0414 10.615C14.1714 10.615 15.8814 11.755 15.8814 13.99Z" fill="white"/>
</svg>
