<svg width="24" height="24" viewBox="0 0 24 24" fill="none" xmlns="http://www.w3.org/2000/svg">
<rect width="24" height="24" rx="12" fill="#176CF7"/>
<path d="M15.8964 14.41C15.8964 16.735 13.8414 17.785 11.8914 17.785C9.95637 17.785 8.20137 16.945 7.63137 14.965L9.97137 14.35C10.1664 15.055 10.8114 15.67 11.7714 15.67C12.4914 15.67 13.3164 15.31 13.3164 14.32C13.3164 13.24 12.2064 12.925 11.1564 12.925H10.4814V11.08H11.2164C12.1614 11.08 13.0764 10.84 13.0764 9.82C13.0764 9.055 12.4314 8.65 11.7414 8.65C11.0214 8.65 10.4514 9.115 10.2864 9.835L7.94637 9.295C8.45637 7.51 10.1364 6.595 11.9064 6.595C13.7814 6.595 15.6414 7.555 15.6414 9.595C15.6414 10.765 14.8914 11.635 13.8564 11.905V11.95C15.0564 12.235 15.8964 13.225 15.8964 14.41Z" fill="white"/>
</svg>
