<svg width="24" height="24" viewBox="0 0 24 24" fill="none" xmlns="http://www.w3.org/2000/svg">
<path d="M17.25 5.77734C17.2499 5.6389 17.2234 5.50251 17.1729 5.37598C17.1222 5.24928 17.0489 5.13529 16.958 5.04102C16.8672 4.94688 16.7605 4.87362 16.6455 4.82422C16.5595 4.78728 16.4693 4.76426 16.3779 4.75488L16.2861 4.75H7.71387C7.46731 4.75011 7.22499 4.85132 7.04199 5.04102C6.95109 5.13529 6.87775 5.24928 6.82715 5.37598C6.77664 5.50251 6.75005 5.6389 6.75 5.77734V18.5107L11.5537 14.9521L11.6572 14.8877C11.9079 14.7587 12.2142 14.7802 12.4463 14.9521L17.25 18.5107V5.77734ZM18.75 20C18.75 20.2833 18.5899 20.5425 18.3369 20.6699C18.1157 20.7812 17.8564 20.7752 17.6426 20.6592L17.5537 20.6025L12 16.4873L6.44629 20.6025C6.2188 20.771 5.91598 20.7971 5.66309 20.6699C5.41007 20.5425 5.25 20.2833 5.25 20V5.77734C5.25005 5.44932 5.31202 5.12379 5.43359 4.81934C5.55527 4.51469 5.73449 4.23587 5.96191 4C6.42168 3.5232 7.05147 3.25011 7.71387 3.25H16.2861L16.5303 3.2627C16.7734 3.28757 17.0117 3.34941 17.2373 3.44629C17.5382 3.57554 17.8106 3.76405 18.0381 4C18.2655 4.23587 18.4447 4.51469 18.5664 4.81934C18.688 5.12379 18.7499 5.44932 18.75 5.77734V20Z" fill="#555555"/>
</svg>
