<svg width="24" height="24" viewBox="0 0 24 24" fill="none" xmlns="http://www.w3.org/2000/svg">
<path fill-rule="evenodd" clip-rule="evenodd" d="M14.6661 2.47932C15.3828 2.16368 16.2013 2.16859 16.9141 2.49299L17.0655 2.56721L17.0664 2.56819L16.8301 3.00862L16.7129 3.22932L17.0664 2.56819L21.5684 4.96858L21.6729 5.0301C22.151 5.32928 22.456 5.84128 22.4913 6.40413L22.4952 6.52522C22.4907 7.17567 22.1249 7.76969 21.5469 8.06819L21.5479 8.06917L20.8604 8.42366L21.5469 8.77815L21.6534 8.83674C22.1697 9.15025 22.4908 9.71143 22.4952 10.3211L22.4913 10.4432C22.4559 11.0059 22.1509 11.5181 21.6729 11.8172L21.5684 11.8778L19.8575 12.7899V16.2781C19.8575 17.2941 19.297 18.2268 18.4004 18.7049L18.4014 18.7059L13.2989 21.4295C12.8987 21.6429 12.4589 21.7504 12.0186 21.7528C12.0121 21.7529 12.0056 21.7537 11.9991 21.7537C11.9925 21.7537 11.986 21.7529 11.9795 21.7528C11.5984 21.7494 11.2179 21.6674 10.8633 21.5057L10.71 21.4295L5.60746 18.7059C4.71136 18.2276 4.15141 17.2938 4.15141 16.2781V12.7948L2.4307 11.8778C1.85655 11.5715 1.49958 10.9718 1.50395 10.3211L1.50883 10.2C1.55483 9.59786 1.90952 9.05792 2.45121 8.77815L3.13774 8.42366L2.45121 8.06917C1.90916 7.78934 1.55463 7.24886 1.50883 6.64631L1.50395 6.52522C1.49972 5.87471 1.85666 5.27474 2.4307 4.96858L6.93266 2.56819L6.93363 2.56721L7.085 2.49299C7.84888 2.14562 8.73416 2.16499 9.48539 2.55256L11.9991 3.84944L14.5137 2.55256L14.6661 2.47932ZM12.7491 20.0223L17.6944 17.3826C18.1019 17.1652 18.3575 16.7402 18.3575 16.2781V13.5897L17.0664 14.2791C16.3191 14.6777 15.4326 14.7078 14.6631 14.369L14.5108 14.2967L12.7491 13.3865V20.0223ZM9.48832 14.2967L9.33598 14.369C8.61776 14.6854 7.79782 14.6796 7.08402 14.3533L6.93266 14.2791L5.65141 13.5955V16.2781C5.65141 16.7402 5.90598 17.1652 6.31352 17.3826L11.2491 20.0164V13.3865L9.48832 14.2967ZM13.6338 12.1551L15.1983 12.9637L15.3379 13.0252C15.6706 13.1481 16.0432 13.1241 16.3604 12.9549L20.8623 10.5545L20.918 10.5145C20.9506 10.4831 20.9745 10.4428 20.9864 10.3992L20.9952 10.3319C20.9946 10.2621 20.9646 10.1964 20.9151 10.1502L20.8594 10.1112L19.2256 9.26741L13.6338 12.1551ZM3.13969 10.1112C3.07791 10.1431 3.03267 10.1986 3.01371 10.2635L3.00395 10.3319C3.00346 10.4248 3.05473 10.5108 3.13676 10.5545L5.18852 11.6483C5.20703 11.6559 5.22352 11.6675 5.24125 11.6766L7.63871 12.9549L7.77738 13.0184C8.10813 13.1459 8.48047 13.1281 8.79984 12.9637L10.3643 12.1551L4.7725 9.26741L3.13969 10.1112ZM6.40727 8.42366L11.9991 11.3114L17.5899 8.42366L11.9991 5.53792L6.40727 8.42366ZM16.3614 3.89241C16.0445 3.72416 15.6729 3.70126 15.3409 3.82405L15.2012 3.88557L13.6338 4.69417L19.2246 7.57991L20.8594 6.73616L20.9151 6.69612C20.9643 6.64995 20.9946 6.58491 20.9952 6.51545L20.9864 6.44709C20.9744 6.40367 20.9505 6.36405 20.918 6.33284L20.8623 6.2928L16.3614 3.89241ZM8.79691 3.88557C8.43266 3.69773 7.9988 3.70037 7.63676 3.89241L3.13676 6.2928C3.05473 6.33654 3.00346 6.42248 3.00395 6.51545L3.01371 6.58284C3.03255 6.64804 3.07765 6.70414 3.13969 6.73616L4.7725 7.57893L10.3633 4.69417L8.79691 3.88557Z" fill="#555555"/>
</svg>
