<svg width="24" height="24" viewBox="0 0 24 24" fill="none" xmlns="http://www.w3.org/2000/svg">
<g clip-path="url(#clip0_4_1138)">
<path d="M19.2113 2.99036L19.2484 2.99133C19.38 2.99791 19.5083 3.03165 19.6254 3.08997L19.7387 3.15637L19.8422 3.2384C19.9067 3.2972 19.963 3.36451 20.0092 3.4386L20.0707 3.55481L20.0883 3.5968L22.6996 10.5616L22.7338 10.671C22.7606 10.7814 22.7668 10.8966 22.7523 11.0099C22.733 11.161 22.6771 11.3053 22.5893 11.4298C22.5015 11.5542 22.3843 11.6549 22.2484 11.7238C22.1168 11.7904 21.971 11.8239 21.8236 11.8234V11.8243H20.0893L20.1117 19.4747L21.1684 19.4728L21.2455 19.4757C21.6237 19.5134 21.9195 19.8326 21.9203 20.2208C21.9211 20.635 21.5855 20.9719 21.1713 20.9728L15.7582 20.9835C15.7294 20.9869 15.7 20.9894 15.6703 20.9894C15.6412 20.9894 15.6126 20.9867 15.5844 20.9835L4.70937 21.006C4.6977 21.0066 4.68602 21.0079 4.67421 21.0079C4.65925 21.008 4.64404 21.0068 4.62929 21.006L2.83925 21.0099L2.7621 21.006C2.38386 20.9683 2.08808 20.6492 2.0873 20.2609C2.0866 19.8469 2.42144 19.511 2.83534 19.5099L3.91835 19.507L3.89589 11.8234H2.18691V11.8214C2.03881 11.8232 1.89213 11.792 1.75917 11.7257C1.61191 11.6523 1.48635 11.5409 1.39589 11.4034C1.30551 11.266 1.25273 11.1067 1.24355 10.9425C1.23555 10.7985 1.26307 10.6556 1.31972 10.5236L3.97011 3.47668L4.01894 3.37122C4.15039 3.13861 4.39826 2.9905 4.67128 2.99036H19.2113ZM9.0873 19.4972L11.2543 19.4923V14.5734H9.0873V19.4972ZM12.7543 19.4894L14.9203 19.4845V14.5734H12.7543V19.4894ZM21.2963 11.0919V11.09L21.2894 11.0714L21.2963 11.0919ZM2.99745 10.3234H4.48476C4.5355 10.3124 4.58797 10.3059 4.64199 10.3058C4.69736 10.3056 4.75112 10.3121 4.80312 10.3234H6.27773L8.83827 8.61633L8.93593 8.56165C9.17099 8.45122 9.44976 8.46939 9.67031 8.61633L12.0043 10.172L14.3383 8.61633L14.4359 8.56165C14.671 8.45122 14.9498 8.46939 15.1703 8.61633L17.7328 10.3243H19.1742C19.2262 10.3128 19.28 10.306 19.3353 10.3058C19.3918 10.3056 19.4465 10.3127 19.4994 10.3243H21.0092L18.8207 4.49036H5.19081L2.99745 10.3234ZM16.4203 19.4816L18.6117 19.4777L18.5893 11.8243H17.5062C17.3582 11.8243 17.2134 11.7805 17.0902 11.6984L14.7543 10.1407L12.4203 11.6974C12.1684 11.8652 11.8401 11.8652 11.5883 11.6974L9.25429 10.1407L6.92031 11.6974C6.79716 11.7794 6.65226 11.8234 6.50429 11.8234H5.39589L5.41835 19.504L7.5873 19.5001V14.006C7.58734 13.7587 7.68591 13.5217 7.86074 13.3468L7.92909 13.2843C8.09497 13.1484 8.30362 13.0735 8.51992 13.0734H11.8441C11.8958 13.0621 11.9493 13.0558 12.0043 13.0558C12.0595 13.0558 12.1136 13.062 12.1654 13.0734H15.4877C15.704 13.0734 15.9126 13.1484 16.0785 13.2843L16.1469 13.3468L16.2094 13.4152C16.3452 13.5811 16.4203 13.7897 16.4203 14.006V19.4816Z" fill="#555555"/>
</g>
<defs>
<clipPath id="clip0_4_1138">
<rect width="24" height="24" fill="white"/>
</clipPath>
</defs>
</svg>
