<svg width="24" height="24" viewBox="0 0 24 24" fill="none" xmlns="http://www.w3.org/2000/svg">
<path d="M21.25 9.79688H2.75V19.0049C2.75024 19.691 3.30822 20.25 4 20.25H20C20.6918 20.25 21.2498 19.691 21.25 19.0049V9.79688ZM11.3604 14.2734H12.8604V12.7803H11.3604V14.2734ZM5.61035 14.2734H7.11035V12.7803H5.61035V14.2734ZM21.25 7.03125C21.25 6.34491 20.6919 5.78516 20 5.78516H4C3.30807 5.78516 2.75 6.34491 2.75 7.03125V8.29688H21.25V7.03125ZM8.61035 14.5244C8.61034 15.2156 8.04896 15.7732 7.36035 15.7734H5.36035C4.67157 15.7734 4.11036 15.2157 4.11035 14.5244V12.5293C4.11035 11.838 4.67157 11.2803 5.36035 11.2803H7.36035C8.04897 11.2805 8.61035 11.8381 8.61035 12.5293V14.5244ZM14.3604 14.5244C14.3603 15.2156 13.799 15.7733 13.1104 15.7734H11.1104C10.4216 15.7734 9.86036 15.2157 9.86035 14.5244V12.5293C9.86035 11.838 10.4216 11.2803 11.1104 11.2803H13.1104C13.799 11.2804 14.3604 11.8381 14.3604 12.5293V14.5244ZM22.75 19.0049C22.7498 20.5226 21.5171 21.75 20 21.75H4C2.48294 21.75 1.25024 20.5226 1.25 19.0049V7.03125C1.25 5.51335 2.48279 4.28516 4 4.28516H5.30957V3C5.30957 2.58593 5.64555 2.25023 6.05957 2.25C6.47378 2.25 6.80957 2.58579 6.80957 3V4.28516H17.4404V3C17.4404 2.58579 17.7762 2.25 18.1904 2.25C18.6044 2.25024 18.9404 2.58594 18.9404 3V4.28516H20C21.5172 4.28516 22.75 5.51335 22.75 7.03125V19.0049Z" fill="#555555"/>
</svg>
