<svg width="24" height="24" viewBox="0 0 24 24" fill="none" xmlns="http://www.w3.org/2000/svg">
<path d="M9.99383 6.34668C9.98098 6.21656 9.94833 6.08898 9.89812 5.96777C9.83116 5.80613 9.7337 5.65878 9.61004 5.53516L9.60711 5.5332L8.22527 4.13965C8.10174 4.01592 7.95502 3.91851 7.79363 3.85156C7.6323 3.78469 7.45945 3.75 7.28484 3.75C7.11022 3.75001 6.9374 3.78467 6.77605 3.85156C6.61464 3.91852 6.46796 4.01687 6.34441 4.14062L6.34148 4.14258L3.83465 6.62891L3.83562 6.62988C3.7881 6.67715 3.75854 6.73977 3.75164 6.80664C3.74493 6.87258 3.76064 6.93862 3.79656 6.99414L4.45965 7.96777C7.60958 12.4686 11.5223 16.3832 16.0202 19.5352L16.9929 20.1992L16.9958 20.2012L17.0387 20.2246C17.0841 20.2449 17.1343 20.2538 17.1843 20.249C17.2339 20.2443 17.2813 20.2265 17.322 20.1982L17.36 20.166L19.8493 17.6758L19.9391 17.5781C20.0241 17.4766 20.0936 17.3628 20.1452 17.2402C20.2139 17.0768 20.2497 16.901 20.2497 16.7236C20.2497 16.5462 20.214 16.3705 20.1452 16.207C20.0764 16.0435 19.976 15.8954 19.8493 15.7715L18.4284 14.3496C18.3049 14.2259 18.1581 14.1275 17.9968 14.0605C17.8756 14.0103 17.7479 13.9786 17.6179 13.9658L17.488 13.959C17.3132 13.959 17.1396 13.9936 16.9782 14.0605C16.8168 14.1275 16.6701 14.2259 16.5466 14.3496L16.5436 14.3525L15.6071 15.2793C15.3636 15.5201 14.9877 15.5658 14.694 15.3896C12.1787 13.8813 10.0729 11.7769 8.56121 9.2627C8.38307 8.96632 8.43069 8.58701 8.67644 8.34375L9.61199 7.41699C9.73446 7.2939 9.83162 7.14784 9.89812 6.9873C9.96505 6.82569 9.99969 6.65251 9.99969 6.47754L9.99383 6.34668ZM11.486 6.75586C11.4587 7.03242 11.3906 7.30385 11.2839 7.56152C11.1415 7.90522 10.9327 8.21748 10.6696 8.48047L10.6677 8.4834L10.1589 8.98535C11.4104 10.908 13.0503 12.5466 14.9743 13.7949L15.485 13.29L15.6911 13.1025C15.9058 12.9261 16.1463 12.7827 16.404 12.6758C16.7476 12.5333 17.116 12.459 17.488 12.459L17.7653 12.4727C18.0421 12.4999 18.3141 12.5688 18.572 12.6758C18.9153 12.8183 19.2272 13.0269 19.4899 13.29L20.8981 14.6992L21.0895 14.9062C21.2703 15.1223 21.4184 15.3644 21.528 15.625C21.6742 15.9726 21.7497 16.3465 21.7497 16.7236C21.7497 17.1006 21.6741 17.4738 21.528 17.8213C21.3828 18.1665 21.1699 18.4786 20.903 18.7412L20.904 18.7422L18.4157 21.2324L18.4147 21.2314C18.1213 21.5219 17.7369 21.703 17.3259 21.7422C16.9149 21.7812 16.5028 21.6771 16.1598 21.4473C10.7595 17.8602 6.13083 13.2273 2.54656 7.82324L2.54559 7.82227C2.3181 7.47714 2.21706 7.06349 2.25945 6.65234C2.30185 6.24121 2.48485 5.85686 2.77801 5.56543L5.28484 3.07812C5.54713 2.81602 5.85834 2.60791 6.20086 2.46582C6.54445 2.3233 6.91288 2.25001 7.28484 2.25C7.65682 2.25 8.02522 2.32329 8.36883 2.46582C8.62664 2.57276 8.86688 2.71695 9.08172 2.89355L9.28777 3.08105L9.28875 3.08203L10.6725 4.47656C10.9348 4.73916 11.1418 5.05067 11.2839 5.39355C11.4262 5.73722 11.4997 6.10554 11.4997 6.47754L11.486 6.75586Z" fill="#555555"/>
</svg>
