<svg width="24" height="24" viewBox="0 0 24 24" fill="none" xmlns="http://www.w3.org/2000/svg">
<g clip-path="url(#clip0_869_6246)">
<path fill-rule="evenodd" clip-rule="evenodd" d="M3.27148 2.26367C3.90113 2.32612 4.49301 2.60433 4.94434 3.05566C5.46006 3.57139 5.75 4.27065 5.75 5V15L5.75586 15.124C5.78436 15.41 5.9112 15.6788 6.11621 15.8838C6.35063 16.1182 6.66848 16.25 7 16.25H22C22.4142 16.25 22.75 16.5858 22.75 17C22.75 17.4142 22.4142 17.75 22 17.75H20.4473C20.6394 18.1253 20.75 18.5494 20.75 19C20.75 20.5188 19.5188 21.75 18 21.75C16.4812 21.75 15.25 20.5188 15.25 19C15.25 18.5494 15.3606 18.1253 15.5527 17.75H11.4473C11.6394 18.1253 11.75 18.5494 11.75 19C11.75 20.5188 10.5188 21.75 9 21.75C7.48122 21.75 6.25 20.5188 6.25 19C6.25 18.5345 6.36615 18.0962 6.57031 17.7119C6.00046 17.6216 5.46883 17.3575 5.05566 16.9443C4.60433 16.493 4.32612 15.9011 4.26367 15.2715L4.25 15V5C4.25 4.66848 4.11821 4.35063 3.88379 4.11621C3.67878 3.9112 3.41001 3.78436 3.12402 3.75586L3 3.75H2C1.58579 3.75 1.25 3.41421 1.25 3C1.25 2.58579 1.58579 2.25 2 2.25H3L3.27148 2.26367ZM9 17.75C8.30964 17.75 7.75 18.3096 7.75 19C7.75 19.6904 8.30964 20.25 9 20.25C9.69036 20.25 10.25 19.6904 10.25 19C10.25 18.3096 9.69036 17.75 9 17.75ZM18 17.75C17.3096 17.75 16.75 18.3096 16.75 19C16.75 19.6904 17.3096 20.25 18 20.25C18.6904 20.25 19.25 19.6904 19.25 19C19.25 18.3096 18.6904 17.75 18 17.75Z" fill="#555555"/>
<path fill-rule="evenodd" clip-rule="evenodd" d="M16 5.25C18.0711 5.25 19.75 6.92893 19.75 9V11C19.75 13.0711 18.0711 14.75 16 14.75H12C9.92893 14.75 8.25 13.0711 8.25 11V9C8.25 6.92893 9.92893 5.25 12 5.25H16ZM12 6.75C10.7574 6.75 9.75 7.75736 9.75 9V11C9.75 12.2426 10.7574 13.25 12 13.25H16C17.2426 13.25 18.25 12.2426 18.25 11V9C18.25 7.75736 17.2426 6.75 16 6.75H12Z" fill="#555555"/>
</g>
<defs>
<clipPath id="clip0_869_6246">
<rect width="24" height="24" fill="white"/>
</clipPath>
</defs>
</svg>
