<svg width="24" height="24" viewBox="0 0 24 24" fill="none" xmlns="http://www.w3.org/2000/svg">
<path d="M20.25 4C20.25 3.35394 19.6769 2.75 18.8682 2.75H6.0791C5.27034 2.75 4.69727 3.35394 4.69727 4V6.46875H6.78906L6.86621 6.47266C7.24428 6.51106 7.53889 6.83059 7.53906 7.21875C7.53906 7.60704 7.24436 7.92639 6.86621 7.96484L6.78906 7.96875H4.69727V15.7959H6.78906L6.86621 15.7998C7.24425 15.8382 7.53883 16.1578 7.53906 16.5459C7.53906 16.9342 7.2444 17.2546 6.86621 17.293L6.78906 17.2959H4.69727V20C4.69727 20.6461 5.27034 21.25 6.0791 21.25H18.8682C19.6769 21.25 20.25 20.6461 20.25 20V4ZM16.8242 11.25L16.9004 11.2539C17.2787 11.2922 17.5742 11.6116 17.5742 12C17.5742 12.3884 17.2787 12.7078 16.9004 12.7461L16.8242 12.75H9C8.58579 12.75 8.25 12.4142 8.25 12C8.25 11.5858 8.58579 11.25 9 11.25H16.8242ZM21.75 20C21.75 21.5631 20.4139 22.75 18.8682 22.75H6.0791C4.53338 22.75 3.19727 21.5631 3.19727 20V17.2959H3C2.58579 17.2959 2.25 16.9601 2.25 16.5459C2.25025 16.1319 2.58594 15.7959 3 15.7959H3.19727V7.96875H3C2.58579 7.96875 2.25 7.63296 2.25 7.21875C2.25018 6.80469 2.5859 6.46875 3 6.46875H3.19727V4C3.19727 2.43692 4.53338 1.25 6.0791 1.25H18.8682C20.4139 1.25 21.75 2.43692 21.75 4V20Z" fill="#555555"/>
</svg>
