<svg width="24" height="24" viewBox="0 0 24 24" fill="none" xmlns="http://www.w3.org/2000/svg">
<g clip-path="url(#clip0_4_847)">
<path d="M1.25 14.3789V5.05566C1.25 4.31557 1.5391 3.60314 2.05762 3.07617L2.26172 2.88867C2.7548 2.47844 3.37667 2.25 4.02344 2.25H20.0068L20.1191 2.25879C20.1208 2.25904 20.1223 2.26048 20.124 2.26074C20.8163 2.29801 21.4697 2.59202 21.9551 3.0918L22.1357 3.29785C22.5322 3.7954 22.7501 4.41659 22.75 5.05859V14.3838C22.7499 15.0314 22.5288 15.6578 22.126 16.1572L21.9424 16.3633C21.4232 16.8907 20.7159 17.1895 19.9766 17.1895H12.3076L10.1777 20.9189L10.1787 20.9199C10.0745 21.1073 9.93416 21.2719 9.7666 21.4043L9.58984 21.5254C9.34288 21.6718 9.06108 21.75 8.77344 21.75C8.55781 21.75 8.34528 21.7066 8.14844 21.623L7.95703 21.5254C7.71018 21.379 7.50713 21.1699 7.36816 20.9199V20.9189L5.24805 17.1846H4.02344C3.37651 17.1846 2.75486 16.9553 2.26172 16.5449L2.05762 16.3584C1.60397 15.8974 1.32622 15.2945 1.26367 14.6553L1.25 14.3789ZM17 11.25C17.4142 11.25 17.75 11.5858 17.75 12C17.75 12.4142 17.4142 12.75 17 12.75H6C5.58579 12.75 5.25 12.4142 5.25 12C5.25 11.5858 5.58579 11.25 6 11.25H17ZM12 7.25C12.4142 7.25 12.75 7.58579 12.75 8C12.75 8.41421 12.4142 8.75 12 8.75H6C5.58579 8.75 5.25 8.41421 5.25 8C5.25 7.58579 5.58579 7.25 6 7.25H12ZM2.75 14.3789L2.75684 14.5088C2.78627 14.8106 2.91676 15.0931 3.12695 15.3066L3.2207 15.3926C3.4476 15.5815 3.73137 15.6846 4.02344 15.6846H5.68457L5.78418 15.6914C6.01449 15.7224 6.21935 15.8591 6.33594 16.0645L8.67578 20.1855L8.67969 20.1914L8.69824 20.2168C8.70545 20.2243 8.71342 20.2304 8.72168 20.2354L8.77344 20.25C8.79071 20.25 8.80883 20.2451 8.8252 20.2354L8.84766 20.2168C8.85483 20.2094 8.86171 20.2012 8.86719 20.1914L8.87109 20.1836L11.2217 16.0674L11.2764 15.9834C11.4171 15.7992 11.6375 15.6895 11.873 15.6895H19.9766C20.3104 15.6895 20.6333 15.5541 20.873 15.3105L20.958 15.2148C21.1449 14.9829 21.2499 14.6898 21.25 14.3838V5.05859C21.25 4.75506 21.147 4.46358 20.9629 4.23242L20.8789 4.13672C20.6724 3.92416 20.4029 3.79327 20.1172 3.76074L19.9941 3.75293C19.9831 3.75278 19.9719 3.75064 19.9609 3.75H4.02344C3.73132 3.75 3.44762 3.85306 3.2207 4.04199L3.12695 4.12793C2.88683 4.37187 2.75 4.70565 2.75 5.05566V14.3789Z" fill="#555555"/>
</g>
<defs>
<clipPath id="clip0_4_847">
<rect width="24" height="24" fill="white"/>
</clipPath>
</defs>
</svg>
