<svg width="24" height="24" viewBox="0 0 24 24" fill="none" xmlns="http://www.w3.org/2000/svg">
<path d="M10.374 1.37495C15.2437 0.628092 20.0287 3.29816 21.9297 7.88765L22.1035 8.33394C23.732 12.8152 22.2063 17.8431 18.3623 20.664L17.9707 20.9384C13.8401 23.6981 8.37797 23.2592 4.74414 19.9326L4.39746 19.6015C2.50771 17.7115 1.3943 15.19 1.2627 12.5332L1.25 12C1.25047 6.87207 4.87296 2.45815 9.90234 1.45796L10.374 1.37495ZM16.4688 8.13765C16.7617 7.84487 17.2365 7.84475 17.5293 8.13765C17.8218 8.43052 17.8219 8.9054 17.5293 9.19819L10.8623 15.8632C10.5694 16.156 10.0946 16.1561 9.80176 15.8632L6.46875 12.5302C6.17633 12.2373 6.1761 11.7624 6.46875 11.4697C6.76164 11.1768 7.23738 11.1768 7.53027 11.4697L10.332 14.2724L16.4688 8.13765ZM2.76172 12.4589C2.87498 14.745 3.83291 16.9147 5.45898 18.541L5.75586 18.8251C8.88254 21.6881 13.5823 22.0659 17.1367 19.6914L17.4746 19.455C20.782 17.0277 22.0946 12.7015 20.6934 8.84565L20.5439 8.46186C18.9083 4.51262 14.7909 2.21555 10.6006 2.85835L10.1953 2.92964C5.86769 3.79015 2.75047 7.58764 2.75 12L2.76172 12.4589Z" fill="#555555"/>
</svg>
