<svg width="24" height="24" viewBox="0 0 24 24" fill="none" xmlns="http://www.w3.org/2000/svg">
<path d="M8.25 12.0691C8.25 11.5183 8.48646 11.003 8.88574 10.6316L8.8877 10.6297L14.4912 5.44899C14.7954 5.16802 15.2697 5.18691 15.5508 5.49098C15.8318 5.79513 15.8129 6.26943 15.5088 6.55055L9.90527 11.7312C9.79807 11.8318 9.75 11.9546 9.75 12.0691C9.75 12.1836 9.79806 12.3064 9.90527 12.407L15.3594 17.449C15.6634 17.7302 15.6815 18.2044 15.4004 18.5086C15.1192 18.8127 14.645 18.8317 14.3408 18.5505L8.8877 13.5086L8.88574 13.5066C8.48646 13.1352 8.25 12.6199 8.25 12.0691Z" fill="#555555"/>
</svg>
