<svg width="24" height="24" viewBox="0 0 24 24" fill="none" xmlns="http://www.w3.org/2000/svg">
<path d="M11.9305 8.25C12.4127 8.25 12.8675 8.43125 13.2225 8.74414L13.368 8.88574L13.37 8.8877L18.5507 14.4912L18.5995 14.5498C18.8281 14.8536 18.7938 15.2871 18.5087 15.5508C18.2234 15.8143 17.7886 15.8143 17.5038 15.5625L17.4491 15.5088L12.2704 9.90723L12.1903 9.83691C12.1077 9.77753 12.0168 9.75 11.9305 9.75C11.8154 9.75 11.6916 9.79874 11.5907 9.90723L6.55066 15.3594L5.4491 14.3408L10.4911 8.8877L10.493 8.88574L10.6386 8.74414C10.9936 8.43125 11.4484 8.25 11.9305 8.25ZM6.55066 15.3594C6.26947 15.6634 5.79521 15.6815 5.49109 15.4004C5.18695 15.1192 5.16791 14.645 5.4491 14.3408L6.55066 15.3594Z" fill="#555555"/>
</svg>
