<svg width="24" height="24" viewBox="0 0 24 24" fill="none" xmlns="http://www.w3.org/2000/svg">
<path d="M5.49095 8.44914C5.7762 8.18563 6.21097 8.18558 6.49583 8.43742L6.55052 8.49113L11.7292 14.0927L11.8093 14.163C11.8919 14.2224 11.9828 14.2499 12.0691 14.2499C12.1842 14.2499 12.308 14.2012 12.4089 14.0927L17.449 8.64054L17.5036 8.58683C17.7886 8.33518 18.2234 8.33592 18.5085 8.59953C18.8127 8.88072 18.8317 9.35495 18.5505 9.6591L13.5085 15.1122L13.5066 15.1142C13.1351 15.5135 12.6199 15.7499 12.0691 15.7499C11.5183 15.7499 11.003 15.5135 10.6316 15.1142L10.6296 15.1122L5.44896 9.50871L5.40013 9.45011C5.17148 9.14634 5.20577 8.7128 5.49095 8.44914Z" fill="#555555"/>
</svg>
