<svg width="24" height="24" viewBox="0 0 24 24" fill="none" xmlns="http://www.w3.org/2000/svg">
<path d="M14.2498 11.9305C14.2498 11.8161 14.2017 11.6932 14.0945 11.5927L8.64039 6.55066C8.33632 6.26947 8.31823 5.79521 8.59938 5.49109C8.88057 5.18695 9.3548 5.16791 9.65895 5.4491L15.1121 10.4911L15.114 10.493L15.2556 10.6386C15.5685 10.9936 15.7498 11.4484 15.7498 11.9305C15.7498 12.4814 15.5133 12.9966 15.114 13.368L15.1121 13.37L9.50856 18.5507C9.2044 18.8316 8.73011 18.8127 8.44899 18.5087C8.16802 18.2045 8.18691 17.7302 8.49098 17.4491L14.0945 12.2684C14.2017 12.1678 14.2498 12.045 14.2498 11.9305Z" fill="#555555"/>
</svg>
