<svg width="24" height="24" viewBox="0 0 24 24" fill="none" xmlns="http://www.w3.org/2000/svg">
<path d="M10.375 1.37389C15.2449 0.627267 20.0298 3.29777 21.9307 7.88756L22.1045 8.33385C23.7327 12.8151 22.2072 17.843 18.3633 20.6639L17.9707 20.9383C13.8398 23.698 8.37806 23.2586 4.74414 19.9315L4.39844 19.6005C2.50846 17.7103 1.39421 15.1892 1.2627 12.5321L1.25 11.9999C1.25037 6.87161 4.87351 2.45703 9.90332 1.4569L10.375 1.37389ZM15.2178 7.71861C15.5106 7.4258 15.9854 7.4259 16.2783 7.71861C16.5711 8.01141 16.571 8.48623 16.2783 8.77916L13.0596 11.9989L16.2793 15.2176C16.5722 15.5104 16.5728 15.9852 16.2803 16.2782C15.9874 16.5711 15.5127 16.571 15.2197 16.2782L12 13.0594L8.78027 16.2782C8.48732 16.571 8.01256 16.5711 7.71973 16.2782C7.42703 15.9852 7.42687 15.5104 7.71973 15.2176L10.9385 11.9989L7.71973 8.77916L7.66797 8.72252C7.42774 8.42796 7.44525 7.99319 7.71973 7.71861C7.99432 7.44413 8.4291 7.42667 8.72363 7.66686L8.78027 7.71861L11.999 10.9383L15.2178 7.71861ZM2.76172 12.4579C2.87488 14.7442 3.83278 16.9135 5.45898 18.5399L5.75684 18.8251C8.8837 21.6877 13.5833 22.0658 17.1377 19.6913L17.4756 19.4549C20.7829 17.0276 22.0952 12.7014 20.6943 8.84557L20.5449 8.4608C18.9092 4.51167 14.7918 2.21477 10.6016 2.85729L10.1953 2.92857C5.86753 3.78927 2.75032 7.58733 2.75 11.9999L2.76172 12.4579Z" fill="#555555"/>
</svg>
