<svg width="24" height="24" viewBox="0 0 24 24" fill="none" xmlns="http://www.w3.org/2000/svg">
<path d="M21.25 9.75H2.75V17C2.75 18.2426 3.75736 19.25 5 19.25H19C20.2426 19.25 21.25 18.2426 21.25 17V9.75ZM11 15.25C11.4142 15.25 11.75 15.5858 11.75 16C11.75 16.4142 11.4142 16.75 11 16.75H5C4.58579 16.75 4.25 16.4142 4.25 16C4.25 15.5858 4.58579 15.25 5 15.25H11ZM19 15.25C19.4142 15.25 19.75 15.5858 19.75 16C19.75 16.4142 19.4142 16.75 19 16.75H17.5C17.0858 16.75 16.75 16.4142 16.75 16C16.75 15.5858 17.0858 15.25 17.5 15.25H19ZM8 12.75C8.41421 12.75 8.75 13.0858 8.75 13.5C8.75 13.9142 8.41421 14.25 8 14.25H5C4.58579 14.25 4.25 13.9142 4.25 13.5C4.25 13.0858 4.58579 12.75 5 12.75H8ZM21.25 7C21.25 5.75736 20.2426 4.75 19 4.75H5C3.75736 4.75 2.75 5.75736 2.75 7V8.25H21.25V7ZM22.75 17C22.75 19.0711 21.0711 20.75 19 20.75H5C2.92893 20.75 1.25 19.0711 1.25 17V7C1.25 4.92893 2.92893 3.25 5 3.25H19C21.0711 3.25 22.75 4.92893 22.75 7V17Z" fill="#555555"/>
</svg>
