<svg width="24" height="24" viewBox="0 0 24 24" fill="none" xmlns="http://www.w3.org/2000/svg">
<path d="M10.25 17.25C10.6642 17.25 11 17.5858 11 18C11 18.4142 10.6642 18.75 10.25 18.75H8C7.58579 18.75 7.25 18.4142 7.25 18C7.25 17.5858 7.58579 17.25 8 17.25H10.25Z" fill="#555555"/>
<path d="M14.25 13.25C14.6642 13.25 15 13.5858 15 14C15 14.4142 14.6642 14.75 14.25 14.75H8C7.58579 14.75 7.25 14.4142 7.25 14C7.25 13.5858 7.58579 13.25 8 13.25H14.25Z" fill="#555555"/>
<path d="M16 9.25C16.4142 9.25 16.75 9.58579 16.75 10C16.75 10.4142 16.4142 10.75 16 10.75H8C7.58579 10.75 7.25 10.4142 7.25 10C7.25 9.58579 7.58579 9.25 8 9.25H16Z" fill="#555555"/>
<path fill-rule="evenodd" clip-rule="evenodd" d="M15 1.25C15.9663 1.25026 16.75 2.03366 16.75 3V3.25H18.001C18.7301 3.25013 19.4297 3.54005 19.9453 4.05566C20.4609 4.57137 20.751 5.27077 20.751 6V9.25C20.751 9.66421 20.4152 10 20.001 10C19.5868 10 19.251 9.66421 19.251 9.25V6C19.251 5.66859 19.119 5.35061 18.8848 5.11621C18.6505 4.88191 18.3323 4.75013 18.001 4.75H16.75V5C16.75 5.96634 15.9663 6.74974 15 6.75H9C8.0335 6.75 7.25 5.9665 7.25 5V4.75H6.00098C5.66957 4.75 5.35158 4.88194 5.11719 5.11621C4.88277 5.35063 4.75098 5.66848 4.75098 6V20C4.75098 20.3315 4.88277 20.6494 5.11719 20.8838C5.35158 21.1181 5.66957 21.25 6.00098 21.25H10.2864C10.7006 21.25 11.0364 21.5858 11.0364 22C11.0364 22.4142 10.7006 22.75 10.2864 22.75H6.00098C5.27175 22.75 4.57234 22.4599 4.05664 21.9443C3.54092 21.4286 3.25 20.7293 3.25 20V6C3.25 5.27065 3.54092 4.57139 4.05664 4.05566C4.57234 3.54009 5.27175 3.25 6.00098 3.25H7.25V3C7.25 2.0335 8.0335 1.25 9 1.25H15ZM9 2.75C8.86193 2.75 8.75 2.86193 8.75 3V3.98047C8.7498 3.97759 8.75007 3.98334 8.75 3.98047C8.75025 3.9841 8.75098 3.99636 8.75098 4C8.75098 4.00342 8.75073 4.00683 8.75048 4.01023C8.75027 4.01301 8.75054 4.00746 8.75048 4.01023L8.75 5C8.75 5.13807 8.86193 5.25 9 5.25H15C15.1378 5.24974 15.25 5.13791 15.25 5V3C15.25 2.86209 15.1378 2.75026 15 2.75H9Z" fill="#555555"/>
<path fill-rule="evenodd" clip-rule="evenodd" d="M19.1486 12.6848C19.0088 12.7149 18.7631 12.8042 18.6027 12.8832C18.3286 13.0181 18.1716 13.1642 16.0087 15.2964C14.7425 16.5446 13.6638 17.6376 13.6118 17.7253C13.505 17.9053 12.5391 21.0482 12.5391 21.2159C12.5391 21.3588 12.6118 21.564 12.7098 21.6975C12.8079 21.8313 13.1389 22 13.3031 22C13.4613 22 16.6602 21.1156 16.8411 21.0219C16.9164 20.9829 18.0186 19.908 19.2904 18.6333C21.4963 16.4224 21.6094 16.3022 21.745 16.0227C22.2024 15.0804 22.0344 14.0539 21.3032 13.3235C20.7208 12.7418 19.9479 12.5126 19.1486 12.6848ZM20.0689 14.3165C20.4826 14.5973 20.5523 15.081 20.2367 15.4798L20.078 15.6804L19.5171 15.1211C19.0661 14.6714 18.965 14.5512 19.0013 14.5076C19.0669 14.4286 19.3513 14.2386 19.4421 14.2131C19.6079 14.1665 19.9248 14.2188 20.0689 14.3165ZM17.5218 18.2142L16.0903 19.6446L15.3022 19.8614C14.8687 19.9807 14.5088 20.0732 14.5024 20.067C14.4959 20.0608 14.591 19.7241 14.7138 19.3187L14.9369 18.5816L16.3873 17.1265L17.8377 15.6714L18.3955 16.2276L18.9533 16.7838L17.5218 18.2142Z" fill="#555555"/>
</svg>
