<svg width="24" height="24" viewBox="0 0 24 24" fill="none" xmlns="http://www.w3.org/2000/svg">
<path fill-rule="evenodd" clip-rule="evenodd" d="M21.7447 11.8329L20.9427 19.0539C20.7877 20.4459 19.6107 21.4999 18.2097 21.4999H5.78974C4.38874 21.4999 3.21174 20.4459 3.05674 19.0539L2.25474 11.8329C2.23074 11.6209 2.29874 11.4089 2.44074 11.2499C2.58274 11.0909 2.78674 10.9999 2.99974 10.9999H20.9997C21.2127 10.9999 21.4167 11.0909 21.5587 11.2499C21.7007 11.4089 21.7687 11.6209 21.7447 11.8329ZM20.1617 12.4999H3.83774L4.54774 18.8879C4.61774 19.5209 5.15274 19.9999 5.78974 19.9999H18.2097C18.8467 19.9999 19.3817 19.5209 19.4517 18.8879L20.1617 12.4999Z" fill="#555555"/>
<path fill-rule="evenodd" clip-rule="evenodd" d="M22.75 9.25V10.25C22.75 10.847 22.513 11.419 22.091 11.841C21.669 12.263 21.097 12.5 20.5 12.5H3.5C2.903 12.5 2.331 12.263 1.909 11.841C1.487 11.419 1.25 10.847 1.25 10.25V9.25C1.25 8.653 1.487 8.081 1.909 7.659C2.331 7.237 2.903 7 3.5 7H20.5C21.097 7 21.669 7.237 22.091 7.659C22.513 8.081 22.75 8.653 22.75 9.25ZM21.25 9.25C21.25 9.051 21.171 8.86 21.03 8.72C20.89 8.579 20.699 8.5 20.5 8.5H3.5C3.301 8.5 3.11 8.579 2.97 8.72C2.829 8.86 2.75 9.051 2.75 9.25V10.25C2.75 10.449 2.829 10.64 2.97 10.78C3.11 10.921 3.301 11 3.5 11H20.5C20.699 11 20.89 10.921 21.03 10.78C21.171 10.64 21.25 10.449 21.25 10.25V9.25Z" fill="#555555"/>
<path fill-rule="evenodd" clip-rule="evenodd" d="M7.25 14.7499C7.25 14.3359 7.586 13.9999 8 13.9999C8.414 13.9999 8.75 14.3359 8.75 14.7499V17.7499C8.75 18.1639 8.414 18.4999 8 18.4999C7.586 18.4999 7.25 18.1639 7.25 17.7499V14.7499Z" fill="#555555"/>
<path fill-rule="evenodd" clip-rule="evenodd" d="M11.25 14.7499C11.25 14.3359 11.586 13.9999 12 13.9999C12.414 13.9999 12.75 14.3359 12.75 14.7499V17.7499C12.75 18.1639 12.414 18.4999 12 18.4999C11.586 18.4999 11.25 18.1639 11.25 17.7499V14.7499Z" fill="#555555"/>
<path fill-rule="evenodd" clip-rule="evenodd" d="M15.25 14.7499C15.25 14.3359 15.586 13.9999 16 13.9999C16.414 13.9999 16.75 14.3359 16.75 14.7499V17.7499C16.75 18.1639 16.414 18.4999 16 18.4999C15.586 18.4999 15.25 18.1639 15.25 17.7499V14.7499Z" fill="#555555"/>
<path fill-rule="evenodd" clip-rule="evenodd" d="M7.17121 9.58497C6.98621 9.95597 6.53521 10.106 6.16521 9.92097C5.79421 9.73597 5.64421 9.28497 5.82921 8.91497L8.82921 2.91497C9.01421 2.54397 9.46521 2.39397 9.83521 2.57897C10.2062 2.76397 10.3562 3.21497 10.1712 3.58497L7.17121 9.58497Z" fill="#555555"/>
<path fill-rule="evenodd" clip-rule="evenodd" d="M18.1712 8.91497C18.3562 9.28497 18.2062 9.73597 17.8352 9.92097C17.4652 10.106 17.0142 9.95597 16.8292 9.58497L13.8292 3.58497C13.6442 3.21497 13.7942 2.76397 14.1652 2.57897C14.5352 2.39397 14.9862 2.54397 15.1712 2.91497L18.1712 8.91497Z" fill="#555555"/>
</svg>
