<svg width="24" height="24" viewBox="0 0 24 24" fill="none" xmlns="http://www.w3.org/2000/svg">
<path fill-rule="evenodd" clip-rule="evenodd" d="M5.78621 0.599976C4.08219 0.599976 2.67188 2.00827 2.67188 3.71229V20.2877C2.67187 21.9917 4.08216 23.4 5.78621 23.4H18.2132C19.9172 23.4 21.3275 21.9917 21.3275 20.2877V3.71229C21.3275 2.00827 19.9172 0.599976 18.2132 0.599976H17.1812V1.63809C17.1812 3.34214 15.7769 4.74635 14.0729 4.74635H9.92854C8.22448 4.74635 6.82027 3.34214 6.82027 1.63809V0.599976H5.78621ZM8.89245 0.601999V1.63809C8.89245 2.23002 9.3366 2.67417 9.92854 2.67417H14.0729C14.6648 2.67417 15.109 2.23002 15.109 1.63809V0.601999H8.89245ZM7.85636 8.8907C8.42858 8.8907 8.89245 9.35457 8.89245 9.92679C8.89245 10.499 8.42858 10.9629 7.85636 10.9629C7.28414 10.9629 6.82027 10.499 6.82027 9.92679C6.82027 9.35457 7.28414 8.8907 7.85636 8.8907ZM11.8975 8.8907C11.9332 8.88885 11.969 8.88885 12.0048 8.8907H16.141C17.5538 8.85898 17.5538 10.9946 16.141 10.9629H12.0048C10.6521 11.0028 10.548 8.99066 11.8975 8.8907ZM7.85636 13.0351C8.42858 13.0351 8.89245 13.4989 8.89245 14.0711C8.89245 14.6434 8.42858 15.1072 7.85636 15.1072C7.28414 15.1072 6.82027 14.6434 6.82027 14.0711C6.82027 13.4989 7.28414 13.0351 7.85636 13.0351ZM11.8995 13.0351C11.9346 13.0339 11.9697 13.0346 12.0048 13.0371H16.141C17.5538 13.0054 17.5538 15.141 16.141 15.1093H12.0048C10.6521 15.1492 10.548 13.1371 11.8975 13.0371C11.8982 13.0364 11.8988 13.0358 11.8995 13.0351ZM7.85636 17.1794C8.42858 17.1794 8.89245 17.6433 8.89245 18.2155C8.89245 18.7877 8.42858 19.2516 7.85636 19.2516C7.28414 19.2516 6.82027 18.7877 6.82027 18.2155C6.82027 17.6433 7.28414 17.1794 7.85636 17.1794ZM11.8975 17.1815C11.9332 17.1796 11.969 17.1796 12.0048 17.1815H16.141C17.493 17.2107 17.493 19.2245 16.141 19.2537H12.0048C10.651 19.2948 10.5467 17.2803 11.8975 17.1815Z" fill="#555555"/>
</svg>
