<svg width="24" height="24" viewBox="0 0 24 24" fill="none" xmlns="http://www.w3.org/2000/svg">
<path d="M5.29537 1.12806C5.34552 1.1278 5.39566 1.12754 5.44733 1.12727C5.58579 1.12669 5.72424 1.12668 5.8627 1.12691C6.01231 1.12702 6.16193 1.12641 6.31155 1.12589C6.60441 1.125 6.89726 1.1248 7.19012 1.12488C7.42829 1.12493 7.66645 1.12477 7.90461 1.12446C7.9733 1.12437 8.04199 1.12428 8.11068 1.12419C8.14487 1.12415 8.17906 1.1241 8.21429 1.12406C8.86056 1.12325 9.50683 1.1233 10.1531 1.12359C10.7436 1.12382 11.3342 1.12294 11.9247 1.12154C12.5317 1.12011 13.1388 1.11946 13.7458 1.11966C14.0863 1.11975 14.4268 1.11954 14.7674 1.11848C15.0573 1.11758 15.3473 1.11744 15.6373 1.11824C15.785 1.11862 15.9328 1.11868 16.0806 1.1178C16.2412 1.11702 16.4018 1.11757 16.5624 1.11843C16.6085 1.1179 16.6547 1.11737 16.7022 1.11682C17.1913 1.12243 17.5793 1.29844 17.9281 1.63723C18.3852 2.13504 18.4229 2.61799 18.4027 3.26495C18.4524 3.26299 18.502 3.26102 18.5532 3.25899C19.1074 3.24352 19.5479 3.29907 19.9716 3.68899C20.2743 3.98335 20.5099 4.31672 20.5283 4.75061C20.5284 4.80156 20.5285 4.85251 20.5285 4.905C20.5286 4.93355 20.5287 4.9621 20.5288 4.99152C20.5291 5.08762 20.5291 5.18372 20.5291 5.27982C20.5292 5.34925 20.5294 5.41868 20.5296 5.4881C20.53 5.67924 20.5301 5.87037 20.5302 6.06151C20.5304 6.26752 20.5308 6.47354 20.5312 6.67955C20.532 7.17726 20.5325 7.67497 20.5328 8.17268C20.533 8.40704 20.5332 8.6414 20.5335 8.87576C20.5342 9.65482 20.5348 10.4339 20.5351 11.2129C20.5352 11.4151 20.5353 11.6173 20.5354 11.8195C20.5354 11.8697 20.5354 11.92 20.5354 11.9718C20.5358 12.7858 20.5368 13.5999 20.5382 14.4139C20.5396 15.2497 20.5404 16.0854 20.5405 16.9211C20.5406 17.3903 20.541 17.8596 20.5421 18.3288C20.543 18.7285 20.5433 19.1281 20.5429 19.5277C20.5427 19.7316 20.5428 19.9354 20.5436 20.1393C20.5444 20.3261 20.5443 20.5129 20.5437 20.6997C20.5436 20.7671 20.5438 20.8345 20.5443 20.9019C20.5477 21.3977 20.492 21.8146 20.1836 22.2193C20.16 22.2543 20.1364 22.2893 20.1121 22.3253C19.8202 22.6408 19.3961 22.8572 18.9655 22.8768C18.875 22.8778 18.7845 22.8779 18.6939 22.8772C18.6437 22.8775 18.5935 22.8778 18.5417 22.8781C18.4035 22.8787 18.2652 22.8786 18.1269 22.8781C17.9774 22.8778 17.8278 22.8785 17.6783 22.8791C17.3857 22.88 17.0932 22.88 16.8006 22.8796C16.5627 22.8794 16.3248 22.8794 16.0868 22.8797C16.0529 22.8797 16.019 22.8798 15.984 22.8798C15.9151 22.8799 15.8462 22.88 15.7772 22.88C15.1315 22.8808 14.4858 22.8804 13.8401 22.8797C13.2501 22.879 12.6602 22.8797 12.0702 22.8809C11.4635 22.8821 10.8569 22.8826 10.2503 22.8822C10.1816 22.8822 10.1129 22.8821 10.0442 22.8821C10.0104 22.882 9.97659 22.882 9.94177 22.882C9.70436 22.8819 9.46694 22.8823 9.22952 22.8829C8.93987 22.8837 8.65023 22.8837 8.36058 22.8827C8.21297 22.8823 8.06538 22.8821 7.91777 22.8829C7.75733 22.8836 7.59695 22.8829 7.43651 22.882C7.3674 22.8827 7.3674 22.8827 7.29689 22.8835C6.80803 22.8776 6.42007 22.7015 6.07138 22.3629C5.6143 21.8651 5.57656 21.3821 5.59682 20.7352C5.54714 20.7371 5.49745 20.7391 5.44626 20.7411C4.89209 20.7566 4.4516 20.7011 4.0279 20.3111C3.72521 20.0168 3.4896 19.6834 3.47119 19.2495C3.47111 19.1986 3.47104 19.1476 3.47096 19.0951C3.47086 19.0666 3.47076 19.038 3.47066 19.0086C3.47037 18.9125 3.47039 18.8164 3.47041 18.7203C3.47027 18.6509 3.47011 18.5815 3.46994 18.512C3.46951 18.3209 3.46936 18.1298 3.46924 17.9386C3.46908 17.7326 3.46867 17.5266 3.4683 17.3206C3.46746 16.8229 3.46704 16.3252 3.46666 15.8275C3.46647 15.5931 3.46624 15.3587 3.46602 15.1244C3.4653 14.3453 3.46469 13.5663 3.46438 12.7872C3.4643 12.585 3.46422 12.3828 3.46413 12.1806C3.46411 12.1304 3.46409 12.0801 3.46407 12.0284C3.46372 11.2143 3.46265 10.4002 3.46127 9.58619C3.45987 8.75047 3.4591 7.91475 3.45897 7.07903C3.45888 6.60979 3.4585 6.14054 3.45742 5.6713C3.4565 5.27166 3.45616 4.87203 3.45657 4.47239C3.45676 4.26854 3.45668 4.06469 3.45586 3.86084C3.45511 3.67405 3.45516 3.48727 3.45581 3.30048C3.45591 3.23307 3.45573 3.16567 3.45523 3.09827C3.45176 2.60367 3.50662 2.1838 3.81588 1.78083C3.84561 1.73885 3.87535 1.69687 3.90599 1.65362C4.25931 1.23942 4.77989 1.12555 5.29537 1.12806ZM6.4873 1.99285C6.4873 3.74199 6.4873 5.49114 6.4873 7.29328C6.7248 7.09131 6.7248 7.09131 6.94578 6.8772C7.06456 6.75407 7.1239 6.70549 7.29826 6.68108C7.61844 6.71723 7.82762 6.96982 8.04148 7.19489C8.09034 7.25582 8.09034 7.25582 8.14103 7.25088C8.14103 5.51573 8.14103 3.78058 8.14103 1.99285C7.5953 1.99285 7.04957 1.99285 6.4873 1.99285ZM4.57914 2.24727C4.40926 2.47225 4.36186 2.62454 4.36131 2.9032C4.3612 2.93131 4.36109 2.95942 4.36097 2.98838C4.36065 3.08324 4.36062 3.1781 4.3606 3.27296C4.36043 3.34139 4.36024 3.40982 4.36003 3.47825C4.35953 3.66683 4.35929 3.8554 4.35909 4.04398C4.35884 4.24716 4.35835 4.45034 4.35789 4.65352C4.35685 5.14445 4.35623 5.63538 4.35569 6.12632C4.35553 6.26494 4.35536 6.40355 4.35519 6.54217C4.35412 7.40263 4.35318 8.26309 4.35266 9.12355C4.35253 9.32291 4.35241 9.52226 4.35228 9.72161C4.35225 9.77116 4.35221 9.82071 4.35218 9.87177C4.35165 10.6747 4.35024 11.4776 4.34847 12.2805C4.34667 13.1045 4.34567 13.9284 4.34545 14.7524C4.34531 15.2152 4.34481 15.6779 4.34341 16.1407C4.34222 16.5348 4.34176 16.9289 4.34223 17.3229C4.34245 17.524 4.34233 17.7251 4.34128 17.9262C4.34033 18.1103 4.34035 18.2944 4.34116 18.4785C4.34128 18.5451 4.34104 18.6117 4.3404 18.6783C4.33411 19.1739 4.33411 19.1739 4.57914 19.5903C4.75955 19.7696 4.90643 19.8498 5.16223 19.8505C5.20392 19.8507 5.24562 19.8509 5.28858 19.8512C5.33451 19.8512 5.38043 19.8512 5.42775 19.8512C5.47645 19.8514 5.52515 19.8516 5.57532 19.8518C5.71072 19.8523 5.84611 19.8525 5.98151 19.8527C6.12746 19.853 6.2734 19.8535 6.41935 19.8539C6.77192 19.855 7.1245 19.8556 7.47707 19.8561C7.57665 19.8563 7.67624 19.8565 7.77582 19.8566C8.39419 19.8577 9.01257 19.8586 9.63094 19.8592C9.77418 19.8593 9.91741 19.8594 10.0606 19.8596C10.114 19.8596 10.114 19.8596 10.1685 19.8596C10.7452 19.8602 11.3219 19.8616 11.8986 19.8634C12.4906 19.8652 13.0827 19.8662 13.6748 19.8664C14.0072 19.8665 14.3396 19.867 14.672 19.8684C14.9551 19.8696 15.2383 19.8701 15.5214 19.8696C15.6658 19.8694 15.8102 19.8695 15.9546 19.8705C16.1113 19.8715 16.2679 19.8712 16.4246 19.8705C16.4701 19.8711 16.5155 19.8717 16.5624 19.8723C16.8482 19.8692 17.0366 19.8178 17.2578 19.6327C17.4647 19.4148 17.5227 19.2225 17.5231 18.9252C17.5233 18.8831 17.5233 18.8831 17.5236 18.8402C17.5239 18.746 17.5237 18.6518 17.5235 18.5576C17.5237 18.4895 17.5239 18.4213 17.5241 18.3532C17.5246 18.1657 17.5246 17.9783 17.5245 17.7909C17.5245 17.5888 17.525 17.3867 17.5254 17.1847C17.5261 16.7887 17.5263 16.3927 17.5264 15.9968C17.5264 15.675 17.5266 15.3531 17.5268 15.0313C17.5276 14.1192 17.528 13.207 17.5279 12.2948C17.5279 12.2456 17.5279 12.1965 17.5279 12.1458C17.5279 12.0719 17.5279 12.0719 17.5279 11.9965C17.5279 11.1983 17.5287 10.4001 17.5299 9.60183C17.5311 8.78245 17.5317 7.96307 17.5316 7.14369C17.5316 6.68357 17.5318 6.22346 17.5327 5.76334C17.5335 5.3716 17.5337 4.97986 17.5331 4.58812C17.5328 4.38824 17.5328 4.18836 17.5336 3.98847C17.5342 3.80545 17.5341 3.62245 17.5334 3.43943C17.5332 3.37326 17.5334 3.30709 17.5339 3.24091C17.5364 2.85307 17.5267 2.55916 17.273 2.24628C17.2505 2.22737 17.228 2.20845 17.2048 2.18897C17.1827 2.1694 17.1606 2.14983 17.1379 2.12967C16.9031 1.99711 16.6385 1.98039 16.3744 1.98265C16.3269 1.98254 16.3269 1.98254 16.2785 1.98243C16.1735 1.98229 16.0685 1.98276 15.9635 1.98322C15.8878 1.98325 15.8121 1.98323 15.7365 1.98319C15.5318 1.98316 15.327 1.98366 15.1223 1.98425C14.9081 1.98478 14.6939 1.98483 14.4797 1.98493C14.0744 1.9852 13.6691 1.98589 13.2638 1.98674C12.8022 1.98769 12.3406 1.98816 11.8791 1.98858C10.9299 1.98947 9.98069 1.99096 9.0315 1.99285C9.0314 2.02657 9.0313 2.06028 9.0312 2.09502C9.02869 2.91499 9.02549 3.73496 9.02151 4.55492C9.0196 4.95145 9.01793 5.34797 9.01681 5.7445C9.01584 6.09007 9.01442 6.43563 9.01248 6.7812C9.01146 6.96422 9.01067 7.14723 9.0104 7.33025C9.01015 7.50246 9.0093 7.67466 9.008 7.84687C9.00763 7.91012 9.00747 7.97337 9.00754 8.03661C9.00761 8.1229 9.00683 8.20919 9.00601 8.29547C9.00581 8.34378 9.00562 8.39209 9.00541 8.44187C8.98724 8.57947 8.95927 8.6375 8.86189 8.735C8.70842 8.78616 8.59931 8.79109 8.43785 8.7774C8.26024 8.67269 8.11752 8.55204 7.97307 8.40571C7.93563 8.36799 7.89819 8.33028 7.85961 8.29142C7.82129 8.25239 7.78298 8.21336 7.7435 8.17315C7.68455 8.11363 7.68455 8.11363 7.6244 8.0529C7.52786 7.95536 7.43152 7.85763 7.33537 7.75972C7.07413 7.9769 6.83809 8.21277 6.60167 8.4564C6.55858 8.50018 6.55858 8.50018 6.51463 8.54485C6.48898 8.57121 6.46333 8.59757 6.43691 8.62473C6.30633 8.74008 6.21667 8.77553 6.04206 8.788C5.83264 8.77305 5.83264 8.77305 5.72403 8.6926C5.63026 8.54758 5.62825 8.42505 5.62742 8.25468C5.62695 8.1995 5.62647 8.14432 5.62598 8.08747C5.62588 8.02641 5.62579 7.96534 5.62571 7.90428C5.62531 7.83992 5.62488 7.77556 5.62442 7.7112C5.62326 7.53652 5.62262 7.36184 5.62207 7.18716C5.6214 7.00459 5.62027 6.82203 5.61918 6.63946C5.6172 6.29376 5.61564 5.94806 5.61423 5.60236C5.61261 5.20878 5.61052 4.81521 5.60838 4.42164C5.604 3.61204 5.60022 2.80245 5.59682 1.99285C5.52991 1.99199 5.46299 1.99137 5.39607 1.99086C5.3588 1.99049 5.32154 1.99013 5.28315 1.98975C5.01208 1.99737 4.79111 2.07384 4.57914 2.24727ZM18.4027 4.15543C18.4026 4.18725 18.4026 4.21907 18.4026 4.25186C18.4011 6.13883 18.3987 8.0258 18.3951 9.91277C18.3947 10.1394 18.3943 10.3661 18.3939 10.5928C18.3937 10.6605 18.3937 10.6605 18.3936 10.7296C18.3923 11.4598 18.3916 12.19 18.3911 12.9203C18.3906 13.6698 18.3894 14.4194 18.3876 15.169C18.3866 15.6313 18.386 16.0936 18.3861 16.556C18.3861 16.8732 18.3854 17.1905 18.3843 17.5077C18.3837 17.6906 18.3834 17.8735 18.3838 18.0564C18.3841 18.2242 18.3837 18.392 18.3826 18.5597C18.3824 18.6201 18.3824 18.6805 18.3828 18.7409C18.3859 19.3121 18.2969 19.8027 17.8938 20.2263C17.8721 20.2502 17.8504 20.2741 17.8281 20.2987C17.3351 20.7819 16.6502 20.7233 16.0139 20.7207C15.9098 20.7211 15.8057 20.7215 15.7016 20.7221C15.4784 20.723 15.2553 20.7233 15.0321 20.723C14.7094 20.7226 14.3867 20.7234 14.0641 20.7244C13.5404 20.7261 13.0168 20.7268 12.4931 20.7269C11.9848 20.727 11.4764 20.7276 10.9681 20.7287C10.9367 20.7288 10.9053 20.7288 10.8729 20.7289C10.7154 20.7293 10.5579 20.7296 10.4004 20.73C9.09605 20.7331 7.79167 20.7346 6.4873 20.7352C6.4855 20.8301 6.48422 20.9251 6.48316 21.0201C6.48239 21.073 6.48162 21.1258 6.48083 21.1803C6.49281 21.4555 6.59932 21.6243 6.79472 21.8112C7.0569 22.0435 7.4405 22.0195 7.76877 22.0183C7.81586 22.0185 7.86295 22.0187 7.91146 22.0188C8.06881 22.0193 8.22615 22.0191 8.3835 22.0189C8.4965 22.0191 8.60949 22.0193 8.72249 22.0196C8.99729 22.0201 9.27209 22.0202 9.54689 22.0201C9.77034 22.02 9.99379 22.0201 10.2172 22.0203C10.2491 22.0203 10.2809 22.0203 10.3137 22.0204C10.3784 22.0204 10.4431 22.0205 10.5078 22.0205C11.1141 22.021 11.7203 22.0209 12.3266 22.0206C12.8807 22.0204 13.4349 22.0209 13.989 22.0217C14.5586 22.0225 15.1281 22.0229 15.6976 22.0227C16.0172 22.0226 16.3367 22.0227 16.6562 22.0233C16.9283 22.0238 17.2003 22.0239 17.4723 22.0234C17.611 22.0231 17.7496 22.0231 17.8883 22.0236C18.0389 22.024 18.1895 22.0237 18.3401 22.0231C18.4052 22.0236 18.4052 22.0236 18.4717 22.0241C18.7982 22.0217 19.1172 21.9909 19.3753 21.7767C19.4042 21.7409 19.433 21.705 19.4628 21.6681C19.4872 21.6383 19.5117 21.6086 19.537 21.5779C19.6422 21.4202 19.6378 21.2814 19.6382 21.0969C19.6383 21.0688 19.6384 21.0407 19.6385 21.0117C19.6388 20.9169 19.6389 20.822 19.6389 20.7272C19.6391 20.6587 19.6392 20.5903 19.6395 20.5219C19.64 20.3333 19.6402 20.1447 19.6404 19.9562C19.6406 19.753 19.6411 19.5498 19.6416 19.3466C19.6426 18.8557 19.6433 18.3647 19.6438 17.8738C19.644 17.7352 19.6441 17.5966 19.6443 17.458C19.6454 16.5975 19.6463 15.737 19.6468 14.8766C19.647 14.6772 19.6471 14.4779 19.6472 14.2785C19.6473 14.2042 19.6473 14.2042 19.6473 14.1284C19.6478 13.3255 19.6493 12.5226 19.651 11.7197C19.6528 10.8957 19.6538 10.0717 19.654 9.24773C19.6542 8.78495 19.6547 8.32218 19.6561 7.85941C19.6573 7.46534 19.6577 7.07127 19.6573 6.6772C19.657 6.47611 19.6572 6.27503 19.6582 6.07395C19.6592 5.88982 19.6591 5.70572 19.6583 5.5216C19.6582 5.45502 19.6584 5.38845 19.6591 5.32187C19.6654 4.82623 19.6654 4.82623 19.4203 4.40985C19.2555 4.24597 19.1258 4.15781 18.8872 4.15129C18.829 4.15157 18.7709 4.15207 18.7127 4.15278C18.683 4.15297 18.6532 4.15316 18.6226 4.15336C18.5493 4.15386 18.476 4.15462 18.4027 4.15543Z" fill="#555555"/>
<path d="M6.24568 14.3263C6.28699 14.3261 6.3283 14.326 6.37086 14.3259C6.51015 14.3255 6.64945 14.3255 6.78874 14.3254C6.88826 14.3252 6.98777 14.325 7.08728 14.3248C7.38654 14.3241 7.6858 14.3239 7.98507 14.3237C8.12594 14.3236 8.26681 14.3234 8.40768 14.3233C8.87587 14.3227 9.34406 14.3223 9.81224 14.3222C9.84222 14.3221 9.8722 14.3221 9.90308 14.3221C9.94816 14.3221 9.94816 14.3221 9.99414 14.3221C10.055 14.3221 10.1159 14.3221 10.1768 14.322C10.207 14.322 10.2372 14.322 10.2683 14.322C10.7578 14.3218 11.2472 14.3211 11.7367 14.3201C12.239 14.3191 12.7413 14.3186 13.2436 14.3185C13.5257 14.3185 13.8078 14.3182 14.0899 14.3175C14.3552 14.3168 14.6205 14.3167 14.8858 14.3171C14.9833 14.3171 15.0808 14.3169 15.1783 14.3165C15.3112 14.316 15.444 14.3162 15.5769 14.3166C15.6351 14.3161 15.6351 14.3161 15.6944 14.3156C15.8973 14.3172 16.0341 14.3267 16.1986 14.4594C16.3057 14.6141 16.289 14.7411 16.2642 14.9206C16.2317 15.0471 16.177 15.1057 16.0714 15.1803C15.9566 15.2186 15.8907 15.2281 15.7728 15.2283C15.7379 15.2284 15.7029 15.2286 15.6668 15.2288C15.6284 15.2287 15.59 15.2287 15.5504 15.2287C15.4892 15.2288 15.4892 15.2288 15.4267 15.229C15.2893 15.2294 15.1519 15.2295 15.0145 15.2295C14.9162 15.2297 14.818 15.2299 14.7197 15.2302C14.4523 15.2307 14.1849 15.231 13.9175 15.2312C13.7506 15.2313 13.5837 15.2315 13.4167 15.2317C12.9546 15.2322 12.4925 15.2326 12.0304 15.2328C12.0008 15.2328 11.9712 15.2328 11.9408 15.2328C11.9111 15.2328 11.8815 15.2328 11.8509 15.2328C11.7909 15.2329 11.7308 15.2329 11.6707 15.2329C11.6409 15.2329 11.6111 15.2329 11.5804 15.2329C11.0974 15.2331 10.6144 15.2338 10.1314 15.2348C9.63561 15.2358 9.13982 15.2363 8.64402 15.2364C8.36561 15.2364 8.08721 15.2367 7.8088 15.2374C7.547 15.2381 7.28521 15.2382 7.02341 15.2379C6.92722 15.2378 6.83104 15.238 6.73485 15.2384C6.60374 15.239 6.47264 15.2387 6.34153 15.2383C6.3033 15.2386 6.26506 15.239 6.22567 15.2393C5.97749 15.2374 5.83146 15.1983 5.6481 15.0213C5.57432 14.8815 5.57892 14.7851 5.59775 14.6291C5.77294 14.3137 5.90683 14.326 6.24568 14.3263Z" fill="#555555"/>
<path d="M6.15273 10.0437C6.18748 10.0435 6.22222 10.0434 6.25802 10.0432C6.29596 10.0432 6.3339 10.0433 6.37299 10.0433C6.43371 10.0431 6.43371 10.0431 6.49567 10.0429C6.63167 10.0426 6.76767 10.0425 6.90367 10.0424C7.00104 10.0422 7.09841 10.042 7.19578 10.0418C7.46054 10.0412 7.7253 10.041 7.99005 10.0408C8.15539 10.0407 8.32072 10.0405 8.48605 10.0403C8.94387 10.0398 9.4017 10.0393 9.85952 10.0392C9.88881 10.0392 9.91811 10.0392 9.94828 10.0392C9.97765 10.0392 10.007 10.0392 10.0373 10.0391C10.0968 10.0391 10.1562 10.0391 10.2157 10.0391C10.26 10.0391 10.26 10.0391 10.3052 10.0391C10.7835 10.0389 11.2618 10.0381 11.7401 10.0372C12.2312 10.0362 12.7224 10.0356 13.2135 10.0356C13.4893 10.0355 13.765 10.0353 14.0407 10.0345C14.3 10.0338 14.5593 10.0337 14.8186 10.0341C14.9138 10.0341 15.009 10.034 15.1042 10.0335C15.2341 10.033 15.364 10.0332 15.4939 10.0337C15.5505 10.0332 15.5505 10.0332 15.6083 10.0327C15.8219 10.0344 15.9695 10.0574 16.1544 10.1765C16.2476 10.2914 16.2784 10.3669 16.3002 10.5131C16.2767 10.6774 16.2142 10.7682 16.112 10.8973C15.9649 10.9709 15.7941 10.946 15.6321 10.946C15.5699 10.9462 15.5699 10.9462 15.5064 10.9465C15.3665 10.9469 15.2266 10.9471 15.0868 10.9473C14.9868 10.9475 14.8869 10.9478 14.787 10.9481C14.4865 10.9489 14.1859 10.9494 13.8854 10.9497C13.744 10.9499 13.6025 10.9502 13.461 10.9504C12.9909 10.9511 12.5207 10.9517 12.0506 10.952C11.9285 10.9521 11.8065 10.9522 11.6845 10.9523C11.639 10.9523 11.639 10.9523 11.5926 10.9523C11.1011 10.9527 10.6096 10.9537 10.1181 10.9551C9.61364 10.9565 9.10922 10.9573 8.6048 10.9574C8.32151 10.9575 8.03822 10.9579 7.75493 10.959C7.4885 10.96 7.22209 10.9601 6.95566 10.9597C6.85776 10.9597 6.75986 10.96 6.66197 10.9605C6.52852 10.9613 6.39512 10.961 6.26168 10.9604C6.22276 10.9609 6.18383 10.9614 6.14373 10.9618C5.96851 10.9601 5.87411 10.9541 5.72134 10.8616C5.61381 10.743 5.59798 10.6606 5.58008 10.5025C5.60137 10.2931 5.65719 10.2356 5.808 10.0917C5.92405 10.0519 6.03065 10.0439 6.15273 10.0437Z" fill="#555555"/>
<path d="M12.2536 16.3252C12.5281 16.5094 12.6254 16.8736 12.7201 17.1732C12.7201 17.2012 12.7201 17.2292 12.7201 17.2581C12.7569 17.2345 12.7937 17.211 12.8317 17.1868C12.8811 17.1558 12.9304 17.1248 12.9798 17.0937C13.0039 17.0783 13.0281 17.0628 13.053 17.0469C13.3569 16.8569 13.6365 16.7846 13.9922 16.834C14.2133 16.9231 14.3663 17.0616 14.501 17.2581C14.5299 17.2458 14.5587 17.2336 14.5885 17.2209C15.0809 17.0324 15.5678 17.0156 16.0641 17.2002C16.1809 17.2748 16.2248 17.3446 16.282 17.4701C16.2986 17.6495 16.2687 17.8051 16.1733 17.9577C16.0126 18.0566 15.8329 18.0879 15.6476 18.044C15.619 18.0365 15.5905 18.029 15.5611 18.0213C15.2322 17.9809 14.9863 18.0464 14.713 18.2333C14.6169 18.3188 14.5283 18.4069 14.4414 18.5017C14.341 18.607 14.2968 18.6144 14.1485 18.6256C13.9826 18.6143 13.9103 18.5881 13.7802 18.4878C13.6745 18.3293 13.6866 18.2442 13.69 18.0558C13.6908 18.0018 13.6916 17.9479 13.6924 17.8923C13.6933 17.8509 13.6943 17.8095 13.6953 17.7669C13.372 17.9106 13.138 18.1299 12.8862 18.3715C12.6346 18.6103 12.6346 18.6103 12.4259 18.6335C12.2967 18.628 12.2488 18.6123 12.1317 18.5461C11.9558 18.3494 11.9373 18.0932 11.8985 17.8411C11.8434 17.5064 11.7655 17.2043 11.5752 16.9188C11.544 16.7254 11.55 16.5788 11.652 16.41C11.8317 16.2457 12.0306 16.2594 12.2536 16.3252Z" fill="#555555"/>
<path d="M10.8282 7.91307C10.8956 7.91254 10.8956 7.91254 10.9644 7.91199C11.0376 7.91237 11.0376 7.91237 11.1124 7.91277C11.1642 7.91255 11.216 7.91232 11.2694 7.91209C11.4112 7.91163 11.5529 7.91174 11.6947 7.91214C11.8432 7.91246 11.9917 7.91216 12.1402 7.91196C12.3896 7.91173 12.6389 7.91204 12.8883 7.91264C13.1764 7.91334 13.4645 7.91311 13.7526 7.91241C14.0002 7.91183 14.2478 7.91175 14.4954 7.91209C14.6431 7.91228 14.7909 7.91231 14.9387 7.91189C15.1034 7.91145 15.2682 7.91206 15.4329 7.91277C15.4818 7.91251 15.5307 7.91225 15.581 7.91199C15.626 7.91235 15.6709 7.91271 15.7172 7.91307C15.7756 7.91315 15.7756 7.91315 15.8352 7.91322C16.0123 7.93925 16.1237 8.01504 16.233 8.1545C16.2933 8.29096 16.3018 8.37498 16.2833 8.52288C16.2102 8.68378 16.1497 8.75533 15.9865 8.8197C15.8816 8.83073 15.8816 8.83073 15.7618 8.83133C15.6935 8.83196 15.6935 8.83196 15.6238 8.83261C15.574 8.83264 15.5243 8.83266 15.473 8.83269C15.4205 8.83305 15.3679 8.8334 15.3138 8.83376C15.1697 8.83461 15.0257 8.83507 14.8817 8.83528C14.7916 8.83544 14.7016 8.8357 14.6116 8.836C14.2973 8.83704 13.983 8.8376 13.6687 8.83775C13.376 8.8379 13.0833 8.83917 12.7906 8.84094C12.5391 8.84241 12.2876 8.84307 12.0361 8.8431C11.886 8.84313 11.7359 8.8435 11.5858 8.84471C11.4183 8.84603 11.2508 8.84565 11.0833 8.84512C11.0337 8.84575 10.9841 8.84637 10.9331 8.84702C10.5582 8.84363 10.5582 8.84363 10.4017 8.72121C10.2794 8.57841 10.2587 8.49815 10.262 8.31086C10.3607 8.02581 10.53 7.91344 10.8282 7.91307Z" fill="#555555"/>
<path d="M10.7746 5.80267C10.82 5.80231 10.8654 5.80194 10.9122 5.80157C10.9873 5.8013 10.9873 5.8013 11.0638 5.80102C11.1164 5.80067 11.1689 5.80033 11.2231 5.79997C11.3976 5.79891 11.5721 5.79821 11.7466 5.7976C11.8067 5.79738 11.8668 5.79715 11.9269 5.79692C12.1769 5.796 12.4269 5.79521 12.6768 5.79473C13.035 5.79404 13.3932 5.79264 13.7513 5.79022C14.0032 5.78858 14.2551 5.78775 14.5069 5.78753C14.6574 5.78737 14.8078 5.78686 14.9582 5.78549C15.1261 5.78397 15.294 5.78414 15.4619 5.78446C15.5116 5.78376 15.5613 5.78307 15.6125 5.78235C15.9883 5.78524 15.9883 5.78524 16.1453 5.91129C16.2623 6.04422 16.2828 6.10847 16.2918 6.27878C16.2772 6.44162 16.1992 6.53458 16.0816 6.64085C15.9668 6.71273 15.899 6.71566 15.7642 6.71583C15.6964 6.71636 15.6964 6.71636 15.6272 6.71691C15.5777 6.71665 15.5283 6.7164 15.4774 6.71613C15.3991 6.71647 15.3991 6.71647 15.3192 6.71681C15.1761 6.71727 15.0331 6.71716 14.89 6.71676C14.7402 6.71644 14.5904 6.71674 14.4406 6.71694C14.1889 6.71717 13.9373 6.71686 13.6857 6.71626C13.395 6.71556 13.1042 6.71579 12.8135 6.71649C12.5638 6.71707 12.314 6.71715 12.0643 6.71681C11.9152 6.71662 11.7661 6.71659 11.617 6.71701C11.4507 6.71745 11.2844 6.71684 11.1181 6.71613C11.0688 6.71639 11.0195 6.71665 10.9687 6.71691C10.9233 6.71655 10.8779 6.71619 10.8312 6.71583C10.7723 6.71575 10.7723 6.71575 10.7121 6.71568C10.5784 6.69616 10.4994 6.65141 10.3904 6.57246C10.299 6.4354 10.2625 6.35346 10.2658 6.18818C10.3116 6.04483 10.3724 5.96061 10.4752 5.8516C10.5818 5.79831 10.6552 5.80338 10.7746 5.80267Z" fill="#555555"/>
<path d="M6.06848 12.2054C6.11467 12.205 6.16086 12.2047 6.20846 12.2043C6.28482 12.204 6.28482 12.204 6.36272 12.2037C6.41616 12.2034 6.4696 12.203 6.52466 12.2027C6.70214 12.2016 6.87962 12.2009 7.05711 12.2003C7.11819 12.2001 7.17928 12.1999 7.24036 12.1996C7.49445 12.1987 7.74853 12.1979 8.00262 12.1974C8.36683 12.1968 8.73102 12.1953 9.09522 12.1929C9.35126 12.1913 9.6073 12.1905 9.86335 12.1902C10.0163 12.1901 10.1692 12.1896 10.3222 12.1882C10.4928 12.1867 10.6635 12.1869 10.8341 12.1872C10.8848 12.1865 10.9354 12.1858 10.9876 12.1851C11.3688 12.1879 11.3688 12.1879 11.5002 12.3128C11.6041 12.4673 11.605 12.5658 11.5958 12.7471C11.5635 12.9031 11.4906 12.97 11.3629 13.06C11.2335 13.1027 11.1141 13.1079 10.9785 13.1083C10.9351 13.1086 10.8918 13.1088 10.8472 13.1091C10.7999 13.1091 10.7526 13.1092 10.7038 13.1092C10.6288 13.1095 10.6288 13.1095 10.5523 13.1099C10.4153 13.1104 10.2783 13.1107 10.1412 13.1109C10.0555 13.111 9.96983 13.1112 9.88414 13.1114C9.61578 13.1119 9.34742 13.1123 9.07906 13.1125C8.76973 13.1127 8.4604 13.1134 8.15107 13.1147C7.91166 13.1156 7.67226 13.116 7.43284 13.1161C7.28999 13.1161 7.14715 13.1164 7.00431 13.1171C6.84484 13.1179 6.6854 13.1178 6.52594 13.1175C6.45538 13.1181 6.45538 13.1181 6.38339 13.1187C6.09588 13.1171 5.86637 13.0998 5.64107 12.9036C5.57436 12.7584 5.56742 12.6213 5.59601 12.4663C5.73323 12.2514 5.82119 12.2068 6.06848 12.2054Z" fill="#555555"/>
<path d="M13.3816 12.2038C13.4098 12.2035 13.438 12.2031 13.4671 12.2028C13.5606 12.2017 13.6541 12.201 13.7476 12.2004C13.7795 12.2002 13.8115 12.2 13.8444 12.1997C14.0134 12.1986 14.1825 12.1978 14.3515 12.1972C14.5261 12.1964 14.7006 12.1945 14.8751 12.1924C15.0094 12.191 15.1436 12.1905 15.2779 12.1902C15.3422 12.1899 15.4066 12.1893 15.4709 12.1883C15.561 12.1869 15.6511 12.1869 15.7413 12.1873C15.8181 12.1867 15.8181 12.1867 15.8966 12.1862C16.0712 12.2193 16.1332 12.2889 16.2446 12.424C16.3054 12.5455 16.3 12.6281 16.287 12.7632C16.2096 12.9181 16.1619 12.999 16.0005 13.0666C15.8602 13.1032 15.7422 13.1135 15.5975 13.1141C15.52 13.1147 15.52 13.1147 15.4409 13.1153C15.3857 13.1153 15.3304 13.1153 15.2735 13.1152C15.2156 13.1154 15.1577 13.1156 15.0998 13.1158C14.9788 13.1161 14.8578 13.1161 14.7368 13.1159C14.5824 13.1156 14.4279 13.1163 14.2735 13.1173C14.1541 13.1179 14.0346 13.118 13.9152 13.1178C13.8308 13.1179 13.7463 13.1185 13.6619 13.1191C13.1703 13.1166 13.1703 13.1166 12.9371 12.9753C12.8235 12.8049 12.8228 12.6667 12.8523 12.4664C13.0031 12.2251 13.1077 12.2067 13.3816 12.2038Z" fill="#555555"/>
</svg>
