<svg width="24" height="24" viewBox="0 0 24 24" fill="none" xmlns="http://www.w3.org/2000/svg">
<path fill-rule="evenodd" clip-rule="evenodd" d="M7.24023 13.4297C9.41995 13.4298 10.5694 14.5799 10.5596 16.7695V18.6699L10.5469 19.0664C10.4125 20.9888 9.27391 21.9998 7.23047 22H5.33008L4.93359 21.9863C3.13886 21.861 2.13891 20.8601 2.01367 19.0576L2 18.6602V16.7598C2.00009 14.58 3.15003 13.4297 5.33984 13.4297H7.24023ZM5.33984 14.9297C4.49508 14.9297 4.0988 15.1488 3.9082 15.3389C3.71823 15.5284 3.50004 15.9215 3.5 16.7598V18.6602C3.50008 19.5048 3.71913 19.9012 3.90918 20.0918C4.09878 20.2818 4.49182 20.5 5.33008 20.5H7.23047C8.068 20.4999 8.46138 20.2816 8.65137 20.0918C8.8412 19.9019 9.05953 19.508 9.05957 18.6699V16.7627C9.06335 15.9192 8.84582 15.5254 8.6582 15.3369C8.47046 15.1484 8.07882 14.9297 7.24023 14.9297H5.33984Z" fill="#555555"/>
<path fill-rule="evenodd" clip-rule="evenodd" d="M18.6699 13.4297C20.8495 13.4299 21.9989 14.5801 21.999 16.7598V18.6602L21.9863 19.0566C21.8519 20.9789 20.7133 21.9891 18.6699 21.9893H16.7695L16.373 21.9766C14.5786 21.8513 13.5786 20.851 13.4531 19.0566L13.4395 18.6602V16.7598C13.4395 14.7161 14.4504 13.5776 16.373 13.4434L16.7695 13.4297H18.6699ZM16.7695 14.9297C15.9313 14.9297 15.5376 15.148 15.3477 15.3379C15.1578 15.5278 14.9395 15.9215 14.9395 16.7598V18.6602C14.9395 19.4977 15.1579 19.8911 15.3477 20.0811C15.5375 20.2709 15.9311 20.4893 16.7695 20.4893H18.6699C19.508 20.4892 19.901 20.2709 20.0908 20.0811C20.2806 19.8912 20.4989 19.4981 20.499 18.6602V16.7598C20.499 15.9215 20.2807 15.5278 20.0908 15.3379C19.9008 15.1481 19.5075 14.9298 18.6699 14.9297H16.7695Z" fill="#555555"/>
<path fill-rule="evenodd" clip-rule="evenodd" d="M7.24023 2C9.42004 2.00008 10.5695 3.15024 10.5596 5.33008V7.23047L10.5469 7.62695C10.4125 9.54923 9.27383 10.5594 7.23047 10.5596H5.33008L4.93359 10.5469C3.1391 10.4216 2.13914 9.42127 2.01367 7.62695L2 7.23047V5.33008C2.00004 3.15021 3.14999 2.00005 5.33984 2H7.24023ZM5.33984 3.5C4.49499 3.50003 4.09878 3.71911 3.9082 3.90918C3.71822 4.09874 3.50002 4.49178 3.5 5.33008V7.23047C3.50008 8.06814 3.71842 8.46142 3.9082 8.65137C4.09808 8.84125 4.49168 9.05957 5.33008 9.05957H7.23047C8.06855 9.05949 8.46152 8.84121 8.65137 8.65137C8.8412 8.4615 9.05949 8.06846 9.05957 7.23047V5.32324C9.06339 4.48622 8.84659 4.09507 8.65918 3.90723C8.47115 3.71881 8.07892 3.50004 7.24023 3.5H5.33984Z" fill="#555555"/>
<path fill-rule="evenodd" clip-rule="evenodd" d="M18.6699 2C20.8496 2.00016 21.999 3.15031 21.999 5.33008V7.23047L21.9863 7.62695C21.8519 9.54923 20.7133 10.5594 18.6699 10.5596H16.7695L16.373 10.5469C14.5786 10.4216 13.5786 9.42127 13.4531 7.62695L13.4395 7.23047V5.33008C13.4395 3.28632 14.4503 2.14792 16.373 2.01367L16.7695 2H18.6699ZM16.7695 3.5C15.9312 3.5 15.5376 3.71834 15.3477 3.9082C15.1578 4.09807 14.9395 4.49176 14.9395 5.33008V7.23047C14.9395 8.06814 15.1579 8.46142 15.3477 8.65137C15.5375 8.84125 15.9311 9.05957 16.7695 9.05957H18.6699C19.508 9.05949 19.901 8.84121 20.0908 8.65137C20.2807 8.4615 20.4989 8.06846 20.499 7.23047V5.33008C20.499 4.49176 20.2807 4.09807 20.0908 3.9082C19.9009 3.71842 19.5076 3.50008 18.6699 3.5H16.7695Z" fill="#555555"/>
</svg>
