<svg width="24" height="24" viewBox="0 0 24 24" fill="none" xmlns="http://www.w3.org/2000/svg">
<path d="M15.9766 9.23145C15.9971 9.23212 16.0178 9.23412 16.0381 9.2373L16.0615 9.24023C16.0677 9.24152 16.074 9.24362 16.0801 9.24512C16.0909 9.24778 16.1016 9.25149 16.1123 9.25488C16.1265 9.25939 16.1407 9.26382 16.1543 9.26953C16.1694 9.27587 16.1837 9.28412 16.1982 9.29199C16.2108 9.29883 16.2235 9.30561 16.2354 9.31348C16.2427 9.31833 16.2497 9.32382 16.2568 9.3291C16.2736 9.34152 16.2896 9.35476 16.3047 9.36914C16.3077 9.37199 16.3115 9.37401 16.3145 9.37695C16.3187 9.38118 16.3221 9.38629 16.3262 9.39062C16.3375 9.40282 16.3483 9.41543 16.3584 9.42871C16.3678 9.44109 16.3766 9.45378 16.3848 9.4668C16.3904 9.47593 16.3953 9.48561 16.4004 9.49512C16.4091 9.51139 16.417 9.52797 16.4238 9.54492C16.4274 9.55385 16.4305 9.56309 16.4336 9.57227C16.4396 9.59023 16.4443 9.60854 16.4482 9.62695C16.4503 9.6366 16.4526 9.64641 16.4541 9.65625C16.4569 9.67467 16.4583 9.69334 16.459 9.71191C16.4592 9.71798 16.4609 9.72435 16.4609 9.73047V12.3262C16.4609 12.6021 16.2368 12.8259 15.9609 12.8262C15.6848 12.8262 15.461 12.6023 15.4609 12.3262V10.9375L12.6797 13.7188C12.5861 13.8123 12.4585 13.8651 12.3262 13.8652C12.1936 13.8652 12.0664 13.8125 11.9727 13.7188L10.249 11.9951L8.00684 14.2383L7.92871 14.3018C7.73471 14.4299 7.47071 14.409 7.2998 14.2383C7.10466 14.043 7.10467 13.7255 7.2998 13.5303L9.89551 10.9355L9.97168 10.873C10.0531 10.8188 10.1497 10.7891 10.249 10.7891C10.3815 10.7892 10.5089 10.8419 10.6025 10.9355L12.3252 12.6582L14.7539 10.2305H13.3652C13.0891 10.2305 12.8652 10.0066 12.8652 9.73047C12.8654 9.45446 13.0892 9.23047 13.3652 9.23047H15.9609L15.9766 9.23145Z" fill="#555555"/>
<path fill-rule="evenodd" clip-rule="evenodd" d="M17.3457 3C19.1514 3.00004 20.6152 4.46388 20.6152 6.26953V17.3457C20.6152 19.1513 19.1513 20.6152 17.3457 20.6152H6.26953C4.46388 20.6152 3.00004 19.1514 3 17.3457V6.26953C3 4.46385 4.46385 3 6.26953 3H17.3457ZM6.26953 4.5C5.01614 4.5 4.5 5.01614 4.5 6.26953V17C4.50004 18.2534 5.01616 19 6.26953 19H17.3457C18.599 19 19 18.599 19 17.3457V6.26953C19 5.01616 18.5991 4.50004 17.3457 4.5H6.26953Z" fill="#555555"/>
</svg>
