<svg width="24" height="24" viewBox="0 0 24 24" fill="none" xmlns="http://www.w3.org/2000/svg">
<path d="M10.5091 5.23877C10.9233 5.23877 11.259 5.57467 11.2591 5.98877C11.2591 6.40298 10.9234 6.73877 10.5091 6.73877H3.66051L3.53063 6.74756C3.2321 6.78283 2.95191 6.92087 2.73961 7.14209C2.52699 7.36385 2.39756 7.65381 2.37242 7.96045L2.36754 8.09326V17.936C2.36191 18.2908 2.49673 18.633 2.73961 18.8862C2.98237 19.1391 3.31422 19.2835 3.66051 19.2896H19.8773C20.2239 19.2835 20.5554 19.1385 20.7982 18.8853C21.0412 18.6318 21.1752 18.29 21.1693 17.9351L21.9496 17.9224H21.9193L21.1693 17.9351V13.2993C21.1697 12.8856 21.5056 12.5496 21.9193 12.5493C22.3333 12.5493 22.6689 12.8854 22.6693 13.2993V17.9106L22.6605 18.1899C22.6075 18.8373 22.3342 19.4507 21.8812 19.9233C21.363 20.4638 20.6509 20.7766 19.9027 20.7896H3.63414L3.35582 20.77C2.71184 20.6942 2.11087 20.3967 1.65758 19.9243C1.13984 19.3846 0.855729 18.6608 0.867542 17.9126V8.10498C0.858587 7.3608 1.14159 6.64115 1.6566 6.104C2.17472 5.56377 2.88615 5.25184 3.63414 5.23877H10.5091Z" fill="#555555"/>
<path fill-rule="evenodd" clip-rule="evenodd" d="M18.682 3.64209C18.9197 3.64209 19.1554 3.69109 19.3734 3.78564C19.5368 3.85659 19.6878 3.95258 19.8216 4.06885L19.9496 4.19189L19.9525 4.19385L19.4535 4.65576L19.4066 4.70068L19.9525 4.19385L21.6781 6.04932L21.6839 6.05615L21.7923 6.18701C22.0281 6.5009 22.1576 6.88371 22.1605 7.27881C22.1638 7.73062 22.0005 8.1689 21.7015 8.5083L21.68 8.53174L15.5902 14.8794C15.4551 15.0201 15.2705 15.103 15.0755 15.1099L12.0297 15.2163L12.0287 15.2153C11.9039 15.2213 11.7784 15.2047 11.6605 15.1626C11.5266 15.1147 11.4051 15.0372 11.305 14.937L11.9476 14.2954L11.7757 14.4653L11.305 14.937L11.3031 14.9351L11.2347 14.8589C11.1709 14.7793 11.1197 14.6898 11.0834 14.5942C11.035 14.4667 11.0135 14.3299 11.0209 14.1938L11.1214 11.0366L11.8705 11.0601L11.8695 11.0591L11.1214 11.0366C11.1273 10.8518 11.2016 10.6751 11.3295 10.5415L17.4193 4.18604C17.5807 4.01539 17.7749 3.87936 17.9906 3.78564C18.2085 3.69105 18.4443 3.64214 18.682 3.64209ZM11.7904 14.2349L11.9955 14.2417L11.7699 14.2339L11.7904 14.2349ZM18.5023 5.22412L12.6117 11.3706L12.5375 13.6968L14.7181 13.6206L20.5795 7.51221C20.6315 7.45115 20.6611 7.37221 20.6605 7.28955C20.6598 7.20587 20.6287 7.1264 20.5746 7.06592L18.8558 5.21729C18.8329 5.19291 18.8055 5.17453 18.7757 5.16162C18.746 5.14878 18.7139 5.14209 18.682 5.14209C18.6501 5.14214 18.6179 5.14873 18.5882 5.16162C18.5585 5.17457 18.5311 5.19387 18.5082 5.21826L18.5023 5.22412L17.9828 4.7251L17.9379 4.68311L18.5023 5.22412Z" fill="#555555"/>
</svg>
