<svg width="24" height="24" viewBox="0 0 24 24" fill="none" xmlns="http://www.w3.org/2000/svg">
<path d="M6 9.25C6.41421 9.25 6.75 9.58579 6.75 10C6.75 10.4142 6.41421 10.75 6 10.75H4C3.9337 10.75 3.87013 10.7764 3.82324 10.8232C3.77636 10.8701 3.75 10.9337 3.75 11V19.1895L5.46973 17.4697L5.58398 17.376C5.70628 17.2944 5.85085 17.25 6 17.25H13C13.0663 17.25 13.1299 17.2236 13.1768 17.1768C13.2236 17.1299 13.25 17.0663 13.25 17V15C13.25 14.5858 13.5858 14.25 14 14.25C14.4142 14.25 14.75 14.5858 14.75 15V17C14.75 17.4641 14.5655 17.9091 14.2373 18.2373C13.9091 18.5655 13.4641 18.75 13 18.75H6.31055L3.53027 21.5303C3.31579 21.7448 2.99313 21.8094 2.71289 21.6934C2.43263 21.5773 2.25 21.3033 2.25 21V11C2.25 10.5359 2.43451 10.0909 2.7627 9.7627C3.09088 9.43451 3.53587 9.25 4 9.25H6Z" fill="#555555"/>
<path fill-rule="evenodd" clip-rule="evenodd" d="M20 2.25C20.4641 2.25 20.9091 2.43451 21.2373 2.7627C21.5655 3.09089 21.75 3.53587 21.75 4V14C21.75 14.3033 21.5674 14.5773 21.2871 14.6934C21.0069 14.8094 20.6842 14.7448 20.4697 14.5303L17.6895 11.75H11C10.5359 11.75 10.0909 11.5655 9.7627 11.2373C9.43451 10.9091 9.25 10.4641 9.25 10V4C9.25 3.53587 9.43451 3.09088 9.7627 2.7627C10.0909 2.43451 10.5359 2.25 11 2.25H20ZM11 3.75C10.9337 3.75 10.8701 3.77636 10.8232 3.82324C10.7764 3.87013 10.75 3.9337 10.75 4V10C10.75 10.0663 10.7764 10.1299 10.8232 10.1768C10.8701 10.2236 10.9337 10.25 11 10.25H18C18.1989 10.25 18.3896 10.3291 18.5303 10.4697L20.25 12.1895V4C20.25 3.93369 20.2236 3.87013 20.1768 3.82324C20.1299 3.77636 20.0663 3.75 20 3.75H11Z" fill="#555555"/>
</svg>
