<svg width="24" height="24" viewBox="0 0 24 24" fill="none" xmlns="http://www.w3.org/2000/svg">
<path d="M20.2511 17C20.251 15.2051 18.796 13.75 17.0011 13.75C15.2062 13.75 13.7511 15.2051 13.7511 17C13.7511 18.7949 15.2062 20.25 17.0011 20.25C18.796 20.25 20.2511 18.7949 20.2511 17ZM14.8878 7.40625C14.8878 5.34465 13.1957 3.65926 11.0919 3.65918C8.98799 3.65918 7.29598 5.3446 7.29598 7.40625C7.29616 9.46775 8.9881 11.1523 11.0919 11.1523C13.1956 11.1523 14.8876 9.4677 14.8878 7.40625ZM21.7511 17C21.7511 19.6234 19.6244 21.75 17.0011 21.75C14.3777 21.75 12.2511 19.6233 12.2511 17C12.2511 14.3767 14.3778 12.25 17.0011 12.25C19.6244 12.25 21.751 14.3767 21.7511 17ZM18.9522 16.9922C18.9522 17.1171 18.9264 17.241 18.8761 17.3555C18.8301 17.46 18.7629 17.5529 18.6817 17.6328L18.6837 17.6348L17.1954 19.1221C16.9025 19.415 16.4277 19.415 16.1348 19.1221C15.8421 18.8292 15.842 18.3544 16.1348 18.0615L17.2042 16.9922L16.1348 15.9229L16.0831 15.8652C15.843 15.5707 15.8603 15.1358 16.1348 14.8613C16.4095 14.5869 16.8442 14.5701 17.1388 14.8105L17.1954 14.8613L18.6837 16.3496H18.6827C18.742 16.4079 18.793 16.4738 18.8341 16.5459L18.8761 16.6289L18.9093 16.7168C18.9377 16.8056 18.9522 16.8986 18.9522 16.9922ZM16.3878 7.40625C16.3876 10.2531 14.1031 12.556 11.2667 12.6475C11.2104 12.661 11.1523 12.6709 11.0919 12.6709C8.32854 12.6709 5.46006 14.5597 4.35067 18.5264L4.34969 18.5254L3.63289 21.1143C3.52225 21.5134 3.10917 21.7473 2.71004 21.6367C2.3109 21.5261 2.07697 21.113 2.18758 20.7139L2.90535 18.124L2.90633 18.1221L3.03133 17.7021C3.9862 14.6996 5.90289 12.6901 8.13875 11.7617C6.7273 10.8209 5.79609 9.22387 5.79598 7.40625C5.79598 4.50094 8.17488 2.15918 11.0919 2.15918C14.0088 2.15926 16.3878 4.50099 16.3878 7.40625Z" fill="#555555"/>
</svg>
