<svg width="24" height="24" viewBox="0 0 24 24" fill="none" xmlns="http://www.w3.org/2000/svg">
<path d="M21.1309 10.0557H18.0264C15.4805 10.0557 13.4072 7.98242 13.4072 5.43652V2.33203C13.4072 1.74121 12.9238 1.25781 12.333 1.25781H7.77832C4.46973 1.25781 1.79492 3.40625 1.79492 7.24121V16.7588C1.79492 20.5937 4.46973 22.7422 7.77832 22.7422H16.2217C19.5303 22.7422 22.2051 20.5937 22.2051 16.7588V11.1299C22.2051 10.5391 21.7217 10.0557 21.1309 10.0557ZM12.3008 16.0605L10.1523 18.209C10.0771 18.2842 9.98046 18.3486 9.88379 18.3809C9.78711 18.4238 9.69043 18.4453 9.583 18.4453C9.47558 18.4453 9.3789 18.4238 9.28222 18.3809C9.19629 18.3486 9.11035 18.2842 9.0459 18.2197C9.03515 18.209 9.02441 18.209 9.02441 18.1982L6.87597 16.0498C6.56445 15.7383 6.56445 15.2226 6.87597 14.9111C7.1875 14.5996 7.70312 14.5996 8.01465 14.9111L8.77734 15.6953V11.1943C8.77734 10.7539 9.14257 10.3887 9.583 10.3887C10.0234 10.3887 10.3887 10.7539 10.3887 11.1943V15.6953L11.1621 14.9219C11.4736 14.6103 11.9893 14.6103 12.3008 14.9219C12.6123 15.2334 12.6123 15.749 12.3008 16.0605Z" fill="#555555"/>
<path d="M17.833 8.57321C18.8535 8.58395 20.2715 8.58395 21.4853 8.58395C22.0977 8.58395 22.4199 7.86422 21.9902 7.43454C20.4434 5.87692 17.6719 3.07321 16.082 1.48337C15.6416 1.04294 14.8789 1.34372 14.8789 1.95602V5.70504C14.8789 7.2734 16.2109 8.57321 17.833 8.57321Z" fill="#555555"/>
</svg>
