<svg width="24" height="24" viewBox="0 0 24 24" fill="none" xmlns="http://www.w3.org/2000/svg">
<path d="M20 18C20 16.2051 18.5457 14.75 16.75 14.75C14.9552 14.75 13.5 16.2052 13.5 18C13.5 19.7948 14.9552 21.25 16.75 21.25C18.5457 21.25 20 19.7949 20 18ZM17.998 16.5811C18.2909 16.2882 18.7657 16.2882 19.0586 16.5811C19.3512 16.874 19.3514 17.3488 19.0586 17.6416L16.8359 19.8633C16.5431 20.1559 16.0683 20.1559 15.7754 19.8633L14.4414 18.5303L14.3906 18.4736C14.1501 18.1791 14.1669 17.7445 14.4414 17.4697C14.7159 17.195 15.1507 17.1778 15.4453 17.418L15.502 17.4697L16.3047 18.2725L17.998 16.5811ZM8.75 16.25L8.82715 16.2539C9.20512 16.2925 9.5 16.6118 9.5 17C9.5 17.3882 9.20512 17.7075 8.82715 17.7461L8.75 17.75H6.75C6.33579 17.75 6 17.4142 6 17C6 16.5858 6.33579 16.25 6.75 16.25H8.75ZM10.75 12.25C11.1642 12.25 11.5 12.5858 11.5 13C11.5 13.4142 11.1642 13.75 10.75 13.75H6.75C6.33579 13.75 6 13.4142 6 13C6 12.5858 6.33579 12.25 6.75 12.25H10.75ZM14.75 8.25L14.8271 8.25391C15.2051 8.29253 15.5 8.61183 15.5 9C15.5 9.38817 15.2051 9.70747 14.8271 9.74609L14.75 9.75H6.75C6.33579 9.75 6 9.41421 6 9C6 8.58579 6.33579 8.25 6.75 8.25H14.75ZM14 4.2627L12.8652 2.84375V2.84277C12.8174 2.78377 12.7456 2.75 12.6699 2.75H8.83105C8.7552 2.75 8.68262 2.78347 8.63477 2.84277L8.63574 2.84375L7.5 4.2627V5C7.5 5.13779 7.61221 5.25 7.75 5.25H13.75C13.8878 5.25 14 5.13779 14 5V4.2627ZM19.5 14.127C20.7104 14.9879 21.5 16.4016 21.5 18C21.5 20.6231 19.3743 22.75 16.75 22.75C15.6515 22.75 14.6406 22.3762 13.8359 21.75H4.75C3.23079 21.75 2 20.5192 2 19V6C2 4.48079 3.23079 3.25 4.75 3.25H6.38867L7.46387 1.90625H7.46484L7.59668 1.75879C7.9226 1.43486 8.36555 1.25 8.83105 1.25H12.6699C13.2018 1.25 13.704 1.49194 14.0361 1.90625H14.0371L15.1113 3.25H16.75L17.0312 3.26465C18.4182 3.40545 19.5 4.57576 19.5 6V14.127ZM15.5 5C15.5 5.96621 14.7162 6.75 13.75 6.75H7.75C6.78379 6.75 6 5.96621 6 5V4.75H4.75C4.05921 4.75 3.5 5.30921 3.5 6V19C3.5 19.6908 4.05921 20.25 4.75 20.25H12.5664C12.2054 19.5802 12 18.8142 12 18C12 15.3768 14.1268 13.25 16.75 13.25C17.1827 13.25 17.6017 13.3086 18 13.417V6C18 5.35242 17.5085 4.82085 16.8779 4.75684L16.75 4.75H15.5V5Z" fill="#555555"/>
</svg>
