<svg width="24" height="24" viewBox="0 0 24 24" fill="none" xmlns="http://www.w3.org/2000/svg">
<path d="M16.0771 17.2538C16.455 17.2925 16.7499 17.6118 16.7499 17.9999C16.7499 18.3881 16.455 18.7074 16.0771 18.746L16 18.7499H13C12.5858 18.7499 12.25 18.4141 12.25 17.9999C12.25 17.5857 12.5858 17.2499 13 17.2499H16L16.0771 17.2538ZM9.13679 12.8027C9.42967 12.5098 9.90443 12.5098 10.1973 12.8027C10.4901 13.0956 10.4902 13.5703 10.1973 13.8632L8.53035 15.5302C8.38971 15.6709 8.19897 15.7499 8.00009 15.7499C7.8012 15.7499 7.61047 15.6708 7.46982 15.5302L6.46984 14.5302L6.41808 14.4736C6.17778 14.179 6.19524 13.7443 6.46984 13.4697C6.74444 13.1951 7.17915 13.1776 7.47373 13.4179L7.53037 13.4697L8.00009 13.9394L9.13679 12.8027ZM16.0771 13.2538C16.455 13.2925 16.7499 13.6118 16.7499 13.9999C16.7499 14.3881 16.455 14.7074 16.0771 14.746L16 14.7499H13C12.5858 14.7499 12.25 14.4141 12.25 13.9999C12.25 13.5857 12.5858 13.2499 13 13.2499H16L16.0771 13.2538ZM9.13679 8.80268C9.42967 8.50978 9.90443 8.50979 10.1973 8.80268C10.4901 9.09557 10.4902 9.57035 10.1973 9.86322L8.53035 11.5302C8.38971 11.6709 8.19897 11.7499 8.00009 11.7499C7.8012 11.7499 7.61047 11.6708 7.46982 11.5302L6.46984 10.5302L6.41808 10.4736C6.17778 10.179 6.19524 9.74427 6.46984 9.46967C6.74444 9.19507 7.17915 9.17761 7.47373 9.41791L7.53037 9.46967L8.00009 9.93939L9.13679 8.80268ZM16.0771 9.25385C16.455 9.2925 16.7499 9.6118 16.7499 9.99994C16.7499 10.3881 16.455 10.7074 16.0771 10.746L16 10.7499H13C12.5858 10.7499 12.25 10.4141 12.25 9.99994C12.25 9.58573 12.5858 9.24994 13 9.24994H16L16.0771 9.25385Z" fill="#555555"/>
<path fill-rule="evenodd" clip-rule="evenodd" d="M13.9199 1.25C14.4518 1.25 14.954 1.49194 15.2861 1.90625L16.3613 3.25H18C19.5192 3.25 20.75 4.48079 20.75 6V20C20.75 21.5192 19.5192 22.75 18 22.75H6C4.48079 22.75 3.25 21.5192 3.25 20V6C3.25 4.48079 4.48079 3.25 6 3.25H7.63867L8.71387 1.90625L8.84668 1.75879C9.1726 1.43486 9.61555 1.25 10.0811 1.25H13.9199ZM6 4.75C5.30921 4.75 4.75 5.30921 4.75 6V20C4.75 20.6908 5.30921 21.25 6 21.25H18C18.6908 21.25 19.25 20.6908 19.25 20V6C19.25 5.30921 18.6908 4.75 18 4.75H16.75V5C16.75 5.96621 15.9662 6.75 15 6.75H9C8.03379 6.75 7.25 5.96621 7.25 5V4.75H6ZM10.0811 2.75C10.0052 2.75 9.93262 2.78347 9.88477 2.84277L9.88574 2.84375L8.75 4.2627V5C8.75 5.13779 8.86221 5.25 9 5.25H15C15.1378 5.25 15.25 5.13779 15.25 5V4.2627L14.1152 2.84375C14.0674 2.78474 13.9956 2.75 13.9199 2.75H10.0811Z" fill="#555555"/>
</svg>
