<svg width="24" height="24" viewBox="0 0 24 24" fill="none" xmlns="http://www.w3.org/2000/svg">
<path d="M2.62305 19.2383V12.1904C2.62315 11.7763 2.9589 11.4404 3.37305 11.4404C3.78719 11.4404 4.12294 11.7763 4.12305 12.1904V19.2383C4.12309 19.5115 4.22952 19.7704 4.41406 19.959C4.59824 20.1471 4.84509 20.25 5.09863 20.25H18.9014C19.1548 20.2499 19.4009 20.147 19.585 19.959C19.7696 19.7704 19.8759 19.5116 19.876 19.2383V12.1904C19.8761 11.7764 20.212 11.4406 20.626 11.4404C21.0401 11.4404 21.3759 11.7763 21.376 12.1904V19.2383C21.3759 19.8993 21.1195 20.5366 20.6572 21.0088C20.1944 21.4815 19.5629 21.7499 18.9014 21.75H5.09863C4.43708 21.75 3.8057 21.4814 3.34277 21.0088C2.88039 20.5366 2.62309 19.8994 2.62305 19.2383ZM11.25 3C11.25 2.58579 11.5858 2.25 12 2.25C12.4141 2.25017 12.75 2.58589 12.75 3V16.4375L15.5547 13.5742C15.8445 13.2783 16.3203 13.2727 16.6162 13.5625C16.912 13.8522 16.9165 14.3271 16.627 14.623L13.1758 18.1475L13.1748 18.1484C12.8739 18.4539 12.4634 18.6289 12.0322 18.6289C11.6011 18.6289 11.1906 18.4539 10.8896 18.1484L10.8887 18.1475L7.34277 14.5361L8.41406 13.4854L11.25 16.374V3ZM7.35352 13.4756C7.64912 13.1856 8.12394 13.1898 8.41406 13.4854L7.34277 14.5361C7.05277 14.2405 7.05798 13.7657 7.35352 13.4756Z" fill="#555555"/>
</svg>
