<svg width="24" height="24" viewBox="0 0 24 24" fill="none" xmlns="http://www.w3.org/2000/svg">
<path d="M20.5 12C20.5 7.30621 16.6938 3.5 12 3.5C7.30527 3.5 3.5 7.30616 3.5 12C3.5 16.6938 7.30527 20.5 12 20.5C16.6938 20.5 20.5 16.6938 20.5 12ZM14.9395 10.0283C15.2317 9.73496 15.7065 9.73416 16 10.0264C16.2934 10.3186 16.2942 10.7934 16.002 11.0869L12.5312 14.5732C12.3906 14.7144 12.1993 14.7939 12 14.7939C11.8007 14.7939 11.6095 14.7143 11.4688 14.5732L7.99707 11.0869L7.94629 11.0303C7.70629 10.7352 7.72468 10.3005 8 10.0264C8.27504 9.75264 8.70892 9.73609 9.00293 9.97656L9.06055 10.0283L12 12.9805L14.9395 10.0283ZM22 12C22 17.5222 17.5222 22 12 22C6.47673 22 2 17.5222 2 12C2 6.47784 6.47673 2 12 2C17.5222 2 22 6.47779 22 12Z" fill="#555555"/>
</svg>
