<svg width="24" height="24" viewBox="0 0 24 24" fill="none" xmlns="http://www.w3.org/2000/svg">
<path fill-rule="evenodd" clip-rule="evenodd" d="M10.8133 2.44519C15.8143 1.95372 20.2758 5.57132 20.9949 10.6151C20.9959 10.6213 20.998 10.6274 20.9988 10.6337C21.0619 11.0862 21.0937 11.5429 21.0936 11.9999L21.0818 12.4921C20.84 17.3825 17.0113 21.3378 12.1951 21.5878L11.7107 21.6005C6.68219 21.5999 2.57608 17.555 2.33868 12.4579C2.31077 11.8583 2.3388 11.268 2.41583 10.6923C2.41809 10.6619 2.42145 10.6319 2.42657 10.6024C3.03904 6.32676 6.42925 2.87626 10.8133 2.44519ZM4.19317 11.6913C4.1847 11.9157 4.18352 12.1424 4.19415 12.371C4.37157 16.1823 7.19666 19.2111 10.7537 19.6776C10.664 17.9922 10.3286 16.2708 9.54083 14.8641C8.63364 13.2443 7.09663 11.9776 4.40704 11.6913H4.19317ZM19.0145 11.6903C16.3245 11.9764 14.787 13.2433 13.8797 14.8632C13.0919 16.2698 12.7556 17.9913 12.6658 19.6766C16.3541 19.1944 19.2361 15.9615 19.2361 11.9999L19.2313 11.7216C19.2309 11.7112 19.2297 11.7007 19.2293 11.6903H19.0145ZM9.2918 11.6913C10.0686 12.3326 10.6844 13.1034 11.1619 13.9559C11.3717 14.3305 11.5523 14.7192 11.7098 15.1161C11.8673 14.7188 12.0487 14.3298 12.2586 13.955C12.736 13.1026 13.352 12.3324 14.1287 11.6913H9.2918ZM18.9344 9.83289C17.938 6.30125 14.62 3.93789 10.9959 4.29383C7.86273 4.60174 5.32827 6.86109 4.48614 9.83289H18.9344Z" fill="#555555"/>
</svg>
