<svg width="24" height="24" viewBox="0 0 24 24" fill="none" xmlns="http://www.w3.org/2000/svg">
<path d="M20.0011 19.65L20.0783 19.6539C20.4562 19.6925 20.7511 20.0118 20.7511 20.4C20.751 20.7881 20.4562 21.1075 20.0783 21.1461L20.0011 21.15H11.0011C10.587 21.15 10.2512 20.8141 10.2511 20.4C10.2511 19.9858 10.5869 19.65 11.0011 19.65H20.0011ZM14.257 2.45663C14.4542 2.43065 14.6538 2.48399 14.8117 2.60507L18.2785 5.26425C18.4361 5.38532 18.5396 5.56421 18.5656 5.76132C18.5915 5.95852 18.5372 6.15819 18.4161 6.316L8.67689 19.0103C8.60046 19.1099 8.50063 19.1891 8.38587 19.2398L4.21791 21.0836C3.96719 21.1945 3.67574 21.1595 3.45814 20.9928C3.2405 20.8258 3.13076 20.5529 3.17298 20.2818L3.87513 15.7789L3.89466 15.6871C3.92049 15.5972 3.96339 15.5128 4.02064 15.4381L13.7599 2.74374L13.8605 2.63534C13.9711 2.53843 14.109 2.47614 14.257 2.45663ZM5.3263 16.1998L4.86634 19.1549L7.60365 17.9439L14.3351 9.17147L12.0577 7.4244L5.3263 16.1998ZM12.9708 6.23397L15.2482 7.98104L16.7697 5.99764L14.4933 4.25057L12.9708 6.23397Z" fill="#555555"/>
</svg>
