<svg width="24" height="24" viewBox="0 0 24 24" fill="none" xmlns="http://www.w3.org/2000/svg">
<path d="M15.2705 9.58008C15.5633 9.28761 16.0382 9.28746 16.3311 9.58008C16.6234 9.87283 16.6234 10.3478 16.3311 10.6406L11.1582 15.8174C11.0178 15.9579 10.8266 16.0368 10.6279 16.0371C10.4787 16.0371 10.3333 15.9927 10.2109 15.9111L10.0967 15.8174L8.07031 13.791L8.01855 13.7334C7.7786 13.4389 7.79601 13.005 8.07031 12.7305C8.34499 12.456 8.77972 12.4383 9.07422 12.6787L9.13086 12.7305L10.627 14.2256L15.2705 9.58008Z" fill="#555555"/>
<path fill-rule="evenodd" clip-rule="evenodd" d="M14.9678 2.26172C15.1643 2.28537 15.3557 2.34471 15.5322 2.43652C15.7673 2.55887 15.97 2.73612 16.1221 2.95312L19.8516 8.28027L19.9199 8.38672C20.0701 8.64057 20.1505 8.93103 20.1504 9.22754V19.2002C20.1503 19.8763 19.8814 20.5248 19.4033 21.0029C18.9251 21.4811 18.2759 21.75 17.5996 21.75H6.7998C6.12357 21.7499 5.47524 21.4811 4.99707 21.0029C4.5189 20.5248 4.25005 19.8764 4.25 19.2002V4.7998C4.25005 4.12357 4.5189 3.47524 4.99707 2.99707C5.47524 2.5189 6.12357 2.25005 6.7998 2.25H14.7705L14.9678 2.26172ZM6.7998 3.75C6.5214 3.75005 6.25448 3.86075 6.05762 4.05762C5.86075 4.25448 5.75005 4.5214 5.75 4.7998V19.2002C5.75005 19.4786 5.86075 19.7455 6.05762 19.9424C6.25448 20.1392 6.5214 20.2499 6.7998 20.25H17.5996C17.8781 20.25 18.1459 20.1393 18.3428 19.9424C18.5395 19.7455 18.6503 19.4785 18.6504 19.2002V9.22656L18.6426 9.18164L18.623 9.14062L14.8936 3.81348C14.8797 3.79383 14.8612 3.77769 14.8398 3.7666C14.829 3.76097 14.8175 3.75674 14.8057 3.75391L14.7705 3.75H6.7998Z" fill="#555555"/>
</svg>
