<svg width="24" height="24" viewBox="0 0 24 24" fill="none" xmlns="http://www.w3.org/2000/svg">
<path d="M5.53516 8.38086C5.77883 8.07866 6.20886 8.01539 6.52734 8.22266L6.58984 8.26758L11.0654 11.877C11.6319 12.3258 12.4279 12.3262 12.9941 11.877L17.4297 8.26953C17.751 8.00832 18.224 8.05677 18.4854 8.37793C18.7461 8.69921 18.6979 9.17237 18.377 9.43359L13.9336 13.0469L13.9258 13.0518C12.8135 13.9342 11.2463 13.9339 10.1338 13.0518L10.1289 13.0488L5.64844 9.43555L5.59082 9.38379C5.32092 9.11652 5.29167 8.68301 5.53516 8.38086Z" fill="#555555"/>
<path fill-rule="evenodd" clip-rule="evenodd" d="M16.9092 2.25C20.4481 2.25017 22.75 5.17375 22.75 8.57031V15.4385C22.7499 18.8337 20.4489 21.7575 16.9092 21.749L7.09082 21.75C3.55108 21.7585 1.25005 18.8337 1.25 15.4385V8.57031C1.25 5.17375 3.55194 2.25017 7.09082 2.25H16.9092ZM7.09082 3.75C4.54734 3.75017 2.75 5.82471 2.75 8.57031V15.4385C2.75005 18.1847 4.54744 20.2569 7.08887 20.25H16.9111L17.1475 20.2441C19.5633 20.1261 21.25 18.0987 21.25 15.4385V8.57031C21.25 5.82471 19.4527 3.75017 16.9092 3.75H7.09082Z" fill="#555555"/>
</svg>
