<svg width="24" height="24" viewBox="0 0 24 24" fill="none" xmlns="http://www.w3.org/2000/svg">
<path fill-rule="evenodd" clip-rule="evenodd" d="M12.1997 10.4551C13.2005 10.5057 14.1501 10.9271 14.8618 11.6406C15.6209 12.4017 16.0474 13.4338 16.0484 14.5098V14.5215C15.8289 19.8912 8.17199 19.8935 7.94875 14.5225V14.5098L7.95363 14.3086C8.00398 13.3058 8.42362 12.3543 9.13527 11.6406C9.89447 10.8795 10.9246 10.4511 11.9986 10.4502L12.1997 10.4551ZM13.4224 12.0996C11.8027 11.1715 9.31314 11.9758 9.20559 14.5156C9.20802 15.2562 9.50278 15.9657 10.0249 16.4893C10.5485 17.0142 11.2584 17.3097 11.9986 17.3105L12.2739 17.2959C12.9129 17.2317 13.5139 16.9487 13.9722 16.4893C14.4943 15.9657 14.7881 15.2562 14.7905 14.5156C14.7665 13.9475 14.6221 13.4669 14.396 13.0723L12.8589 14.6006L12.8579 14.6016C12.7935 14.665 12.7171 14.715 12.6333 14.749C12.5496 14.783 12.46 14.8003 12.3696 14.7998H12.3589C12.2295 14.7945 12.1036 14.753 11.9966 14.6797C11.8897 14.6064 11.8058 14.504 11.7544 14.3848C11.703 14.2654 11.6868 14.1332 11.7075 14.0049C11.7283 13.8768 11.7847 13.7572 11.8706 13.6602L11.8765 13.6533L11.8833 13.6475L13.4224 12.0996Z" fill="#555555"/>
<path fill-rule="evenodd" clip-rule="evenodd" d="M21.1958 2.9502C21.3671 2.95023 21.5312 3.01842 21.6519 3.13965C21.7726 3.26099 21.8404 3.42576 21.8404 3.59668V3.59863C21.8344 4.40468 21.5132 5.17661 20.9458 5.74707C20.3785 6.31742 19.6101 6.64034 18.8071 6.64648H16.231V7.56445H18.0464C18.9092 7.56273 19.7421 7.88237 20.3833 8.46191C20.9443 8.969 21.324 9.64321 21.4702 10.3809L21.5181 10.7012V10.7041L22.2905 19.0391C22.316 19.293 22.2878 19.5494 22.2085 19.792C22.1289 20.0356 21.9992 20.2602 21.8277 20.4502C21.6562 20.64 21.4471 20.7922 21.2134 20.8955C20.98 20.9987 20.7272 21.0499 20.4722 21.0488L3.51516 21.0498C3.26039 21.0482 3.00814 20.9937 2.7759 20.8887C2.54377 20.7837 2.3364 20.6306 2.16652 20.4404C1.99665 20.2501 1.86828 20.0261 1.78957 19.7832C1.71088 19.5403 1.68272 19.2834 1.70852 19.0293L2.48098 10.708V10.7051L2.52883 10.3848C2.67433 9.64629 3.05357 8.97074 3.61477 8.46289C4.25606 7.88265 5.08932 7.56282 5.95266 7.56445H7.76809V6.64648H5.19191C4.38892 6.64034 3.62061 6.31742 3.05324 5.74707C2.48583 5.17662 2.1647 4.40467 2.15871 3.59863V3.59668L2.17141 3.46973C2.19609 3.34587 2.25675 3.23057 2.34719 3.13965C2.46789 3.01842 2.63193 2.95024 2.80324 2.9502H21.1958ZM5.7427 8.87598C5.27271 8.91848 4.82614 9.11275 4.47219 9.43262C4.06793 9.79809 3.81276 10.3023 3.75637 10.8467L2.99563 19.1562L2.99465 19.1621C2.98621 19.2374 2.99416 19.3136 3.01711 19.3857C3.0401 19.4579 3.07726 19.5249 3.12746 19.5811C3.17766 19.6371 3.23973 19.6815 3.30813 19.7119C3.37645 19.7422 3.45035 19.7573 3.52492 19.7568H20.4761L20.5845 19.7471C20.6199 19.7397 20.6547 19.7278 20.688 19.7129C20.7547 19.6829 20.8146 19.6385 20.8628 19.583L21.0884 19.7803L20.8687 19.5762C20.9189 19.522 20.9576 19.4572 20.981 19.3867C21.0043 19.3164 21.0122 19.2417 21.0044 19.168L21.0034 19.1641L20.228 10.8398C20.17 10.2976 19.9145 9.79554 19.5112 9.43164C19.107 9.06693 18.5831 8.86572 18.0405 8.86719H5.94484L5.7427 8.87598ZM9.05715 7.56445H14.9419V6.64648H9.05715V7.56445ZM3.57375 4.24316C3.67927 4.51122 3.84823 4.75122 4.06984 4.93945C4.38466 5.20672 4.78331 5.35314 5.19484 5.35352H18.8042C19.2153 5.34989 19.6125 5.20227 19.9273 4.93555C20.1484 4.74805 20.318 4.50967 20.4253 4.24316H3.57375Z" fill="#555555"/>
</svg>
