<svg width="24" height="24" viewBox="0 0 24 24" fill="none" xmlns="http://www.w3.org/2000/svg">
<g clip-path="url(#clip0_826_6158)">
<path d="M18.6475 2.09668C20.3082 2.09668 21.6551 3.44286 21.6553 5.10352V18.6465C21.6553 20.3073 20.3083 21.6543 18.6475 21.6543H5.10449C3.44383 21.6541 2.09766 20.3072 2.09766 18.6465V5.10352C2.09782 3.44296 3.44394 2.09685 5.10449 2.09668H18.6475ZM3.59766 18.6465C3.59766 19.4788 4.27226 20.1541 5.10449 20.1543H11.126V9.23926H3.59766V18.6465ZM12.626 20.1543H18.6475C19.4798 20.1543 20.1553 19.4789 20.1553 18.6465V16.0107H12.626V20.1543ZM12.626 14.5107H20.1553V5.10352C20.1551 4.27128 19.4797 3.59668 18.6475 3.59668H12.626V14.5107ZM5.10449 3.59668C4.27236 3.59685 3.59782 4.27139 3.59766 5.10352V7.73926H11.126V3.59668H5.10449Z" fill="#555555"/>
</g>
<defs>
<clipPath id="clip0_826_6158">
<rect width="24" height="24" fill="white"/>
</clipPath>
</defs>
</svg>
