<svg width="24" height="24" viewBox="0 0 24 24" fill="none" xmlns="http://www.w3.org/2000/svg">
<path d="M19.2589 4.2196C19.5518 3.92675 20.0266 3.92685 20.3195 4.2196C20.6124 4.51249 20.6124 4.98725 20.3195 5.28015L17.4962 8.10241C18.1927 8.59439 18.8259 9.17422 19.3752 9.83288L21.4806 12.3563C21.69 12.6072 21.7099 12.9595 21.5441 13.2294L21.4621 13.3397L19.1017 15.954L19.0998 15.9559C18.1787 16.9692 17.0561 17.7788 15.8039 18.3329C14.708 18.8177 13.5339 19.0977 12.34 19.16L11.8273 19.1737C10.458 19.1737 9.10394 18.8869 7.85171 18.3329C7.71749 18.2735 7.58541 18.2096 7.45425 18.1444L5.38003 20.2196C5.08712 20.5122 4.6123 20.5124 4.31949 20.2196C4.02682 19.9268 4.02689 19.4519 4.31949 19.1591L6.1271 17.3505C5.55646 16.9441 5.0286 16.4772 4.55484 15.9559L4.55386 15.954L2.19351 13.3397C1.94323 13.0625 1.93467 12.6431 2.17398 12.3563L4.28043 9.83288L4.63687 9.42859C5.4933 8.50925 6.51941 7.76163 7.66031 7.22741C8.96446 6.61686 10.3873 6.29972 11.8273 6.29968C13.2674 6.29968 14.6901 6.61682 15.9943 7.22741C16.0519 7.2544 16.1081 7.2843 16.1652 7.31237L19.2589 4.2196ZM13.5197 12.5106C13.5197 12.3811 13.4994 12.2545 13.466 12.1327L11.5978 14.0009C11.6981 14.0192 11.8021 14.0301 11.9093 14.0301C12.8264 14.0301 13.5195 13.3221 13.5197 12.5106ZM11.8273 7.79968C10.6071 7.79972 9.40208 8.06848 8.29703 8.58581C7.3301 9.03849 6.46034 9.67193 5.73453 10.451L5.43179 10.7938L3.74234 12.8173L5.66519 14.9471L5.96597 15.2606C6.34624 15.6375 6.76215 15.975 7.20621 16.2714L9.3107 14.1669C8.98969 13.6941 8.79904 13.1277 8.79898 12.5106C8.79898 10.8156 10.2196 9.49109 11.9093 9.49109C12.5019 9.49109 13.0596 9.65667 13.5363 9.94128L15.0334 8.44421C14.0185 8.02076 12.9293 7.79968 11.8273 7.79968ZM10.299 12.5106C10.299 12.7043 10.3397 12.8917 10.4123 13.0653L12.4123 11.0653C12.2553 11.0169 12.0864 10.9911 11.9093 10.9911C10.9921 10.9911 10.299 11.6989 10.299 12.5106ZM15.0197 12.5106C15.0195 14.2055 13.5989 15.5301 11.9093 15.5301C11.3785 15.5301 10.8748 15.3978 10.4328 15.1659L8.58511 17.0135C9.61085 17.4473 10.7127 17.6737 11.8273 17.6737L12.2619 17.662C13.2733 17.6092 14.268 17.3725 15.1964 16.9618C16.2576 16.4923 17.2099 15.8059 17.9904 14.9471L19.9123 12.8173L18.2228 10.7938C17.7018 10.1691 17.0923 9.62761 16.4171 9.18151L14.6007 10.9979C14.8653 11.4402 15.0197 11.9552 15.0197 12.5106Z" fill="#555555"/>
</svg>
