<svg width="24" height="24" viewBox="0 0 24 24" fill="none" xmlns="http://www.w3.org/2000/svg">
<path d="M11.9777 5.55005C13.4177 5.55005 14.8405 5.86628 16.1446 6.47681C17.4488 7.08738 18.6032 7.97731 19.5255 9.08325L21.631 11.6067C21.8703 11.8934 21.8626 12.3129 21.6124 12.5901L19.2521 15.2043L19.2501 15.2063C18.3291 16.2196 17.2065 17.0292 15.9542 17.5833C14.8583 18.0681 13.6842 18.3481 12.4903 18.4104L11.9777 18.4231C10.6084 18.4231 9.25428 18.1372 8.00207 17.5833C6.74971 17.0292 5.62629 16.2197 4.70519 15.2063L4.70422 15.2043L2.34386 12.5901C2.09361 12.3129 2.0851 11.8934 2.32433 11.6067L4.43078 9.08325L4.78722 8.67896C5.64375 7.7595 6.6696 7.01105 7.81066 6.47681C9.11481 5.86625 10.5377 5.55009 11.9777 5.55005ZM11.9777 7.05005C10.7576 7.05009 9.55235 7.31796 8.44738 7.83521C7.48042 8.2879 6.61071 8.92225 5.88488 9.70142L5.58215 10.0442L3.89269 12.0676L5.81554 14.1975L6.11633 14.511C6.83573 15.2239 7.68009 15.8004 8.60851 16.2112C9.66962 16.6806 10.8173 16.9231 11.9777 16.9231L12.4122 16.9124C13.4238 16.8595 14.4183 16.622 15.3468 16.2112C16.408 15.7417 17.3602 15.0562 18.1407 14.1975L20.0626 12.0676L18.3732 10.0442C17.5916 9.10707 16.614 8.35258 15.5089 7.83521C14.4038 7.31783 13.1979 7.05005 11.9777 7.05005ZM13.67 11.76C13.6698 10.9486 12.9767 10.2415 12.0597 10.2415C11.1426 10.2415 10.4496 10.9485 10.4493 11.76C10.4493 12.5717 11.1424 13.2795 12.0597 13.2795C12.9769 13.2795 13.67 12.5717 13.67 11.76ZM15.17 11.76C15.17 13.455 13.7494 14.7795 12.0597 14.7795C10.37 14.7795 8.94933 13.455 8.94933 11.76C8.9496 10.0652 10.3702 8.74146 12.0597 8.74146C13.7492 8.74148 15.1698 10.0653 15.17 11.76Z" fill="#555555"/>
</svg>
