<svg width="24" height="24" viewBox="0 0 24 24" fill="none" xmlns="http://www.w3.org/2000/svg">
<path d="M7.08791 1.33897C7.36008 1.21585 7.67606 1.22003 7.94729 1.35558L9.00002 1.88097L10.0528 1.35558L10.1602 1.30968C10.4163 1.21709 10.7017 1.23212 10.9483 1.35558L12 1.88292L13.0713 1.35362L13.1797 1.30772C13.4355 1.21681 13.7195 1.23378 13.9649 1.35753L15 1.87901L16.041 1.35655L16.1485 1.31065C16.4051 1.21728 16.6913 1.23271 16.9385 1.35655L17.9893 1.88292L19.0557 1.3546L19.1631 1.3087C19.4183 1.21736 19.7019 1.23296 19.9473 1.35558L21 1.88097L22.0528 1.35558L22.1719 1.30577C22.4538 1.20777 22.7676 1.24036 23.0254 1.39952L23.1309 1.47374C23.3627 1.66209 23.4999 1.9469 23.5 2.25011V18.0001C23.5 19.2598 22.9992 20.4677 22.1084 21.3585C21.2176 22.2493 20.0098 22.7501 18.75 22.7501H5.25002C4.40852 22.7501 3.66815 22.6297 3.03225 22.3663L2.76565 22.2452C2.14578 21.9333 1.68157 21.49 1.34475 20.9591L1.20803 20.7267C0.642801 19.6838 0.524661 18.3554 0.503931 17.0567L0.500024 16.503C0.498807 16.2736 0.543029 16.0455 0.629907 15.8331L0.703149 15.6769C0.784224 15.524 0.887955 15.3837 1.01077 15.2608C1.17438 15.0973 1.36891 14.9676 1.58303 14.88L1.74612 14.8224C1.91025 14.7735 2.08111 14.7492 2.25295 14.7501H6.50002V2.25011C6.50012 1.90363 6.67989 1.58168 6.97463 1.39952L7.08791 1.33897ZM2.50198 16.7501C2.51258 18.1488 2.61761 19.1292 2.96682 19.7735C3.13099 20.0763 3.34856 20.2989 3.66506 20.4581L3.7969 20.5187C4.12526 20.6547 4.5889 20.7501 5.25002 20.7501H14.8789C14.3119 19.9518 14 18.9923 14 18.0001V16.7501H2.50198ZM18.4307 3.89562C18.1495 4.03495 17.8196 4.03425 17.5391 3.89366L16.4912 3.36827L15.4492 3.89366C15.2014 4.01826 14.9146 4.0335 14.6573 3.93956L14.5498 3.89269L13.5098 3.3673L12.4405 3.89659C12.1597 4.03538 11.8299 4.03473 11.5498 3.89464L10.499 3.36827L9.44729 3.89464C9.20083 4.01786 8.91615 4.03307 8.66018 3.94054L8.55276 3.89464L8.50002 3.86827V14.7501H15C15.5522 14.7501 15.9999 15.1979 16 15.7501V18.0001C16 18.7294 16.2901 19.4287 16.8057 19.9444C17.3214 20.4602 18.0207 20.7501 18.75 20.7501C19.4794 20.7501 20.1786 20.4602 20.6944 19.9444C21.21 19.4287 21.5 18.7294 21.5 18.0001V3.86827L21.4483 3.89464C21.1668 4.03539 20.8352 4.03523 20.5537 3.89464L19.4971 3.36632L18.4307 3.89562ZM19.5 9.50011C20.0522 9.50011 20.4999 9.94795 20.5 10.5001C20.5 11.0524 20.0523 11.5001 19.5 11.5001H13.5C12.9478 11.5001 12.5 11.0524 12.5 10.5001C12.5002 9.94798 12.9479 9.50015 13.5 9.50011H19.5ZM19.5 5.75011C20.0522 5.75011 20.4999 6.19795 20.5 6.75011C20.5 7.30239 20.0523 7.75011 19.5 7.75011H10.5C9.94778 7.75006 9.50002 7.30237 9.50002 6.75011C9.50017 6.19798 9.94787 5.75015 10.5 5.75011H19.5Z" fill="#555555"/>
</svg>
