<svg width="24" height="24" viewBox="0 0 24 24" fill="none" xmlns="http://www.w3.org/2000/svg">
<path d="M15.333 16.8052C16.7149 16.8052 17.8733 17.7491 18.2061 19.0269H21.998C22.4121 19.027 22.748 19.3628 22.748 19.7769C22.748 20.191 22.4121 20.5267 21.998 20.5269H18.2061C17.8735 21.8048 16.7151 22.7495 15.333 22.7495C13.9511 22.7494 12.7935 21.8047 12.4609 20.5269H2C1.58579 20.5268 1.24999 20.1911 1.25 19.7769C1.25004 19.3627 1.58581 19.0269 2 19.0269H12.4609C12.7937 17.7493 13.9512 16.8053 15.333 16.8052ZM15.333 18.3052C14.5202 18.3053 13.8615 18.9641 13.8613 19.7769C13.8613 20.5898 14.5201 21.2494 15.333 21.2495C16.1399 21.2495 16.7939 20.6 16.8037 19.7954V19.7573C16.7931 18.9535 16.1394 18.3052 15.333 18.3052ZM7.55469 9.02783C8.93662 9.02783 10.095 9.97177 10.4277 11.2495H21.999L22.0762 11.2534C22.4543 11.2918 22.7489 11.6113 22.749 11.9995C22.749 12.3878 22.4543 12.7072 22.0762 12.7456L21.999 12.7495H10.4277C10.0951 14.0274 8.93674 14.9722 7.55469 14.9722C6.17285 14.9719 5.01522 14.0273 4.68262 12.7495H2C1.5858 12.7495 1.25001 12.4137 1.25 11.9995C1.25015 11.5854 1.58589 11.2495 2 11.2495H4.68262C5.01533 9.97192 6.17297 9.02805 7.55469 9.02783ZM7.55469 10.5278C6.74197 10.5281 6.0831 11.1868 6.08301 11.9995C6.08301 12.8124 6.74191 13.4719 7.55469 13.4722C8.36769 13.4722 9.02734 12.8125 9.02734 11.9995C9.02725 11.1866 8.36763 10.5278 7.55469 10.5278ZM14.2217 1.25049C15.6034 1.25063 16.7609 2.19465 17.0938 3.47217L21.999 3.47314C22.4132 3.47315 22.749 3.80893 22.749 4.22314C22.7488 4.63714 22.4131 4.97315 21.999 4.97314L17.0938 4.97217C16.7612 6.25006 15.6037 7.19468 14.2217 7.19482C12.8395 7.19482 11.6801 6.25032 11.3477 4.97217L2 4.97314L1.92285 4.96924C1.54502 4.93066 1.25024 4.61111 1.25 4.22314C1.25 3.80893 1.58579 3.47315 2 3.47314L11.3477 3.47217C11.6804 2.19438 12.8397 1.25049 14.2217 1.25049ZM14.2217 2.75049C13.4088 2.75049 12.7492 3.40935 12.749 4.22217C12.749 5.03517 13.4087 5.69482 14.2217 5.69482C15.0345 5.69466 15.6934 5.03507 15.6934 4.22217C15.6931 3.40945 15.0344 2.75065 14.2217 2.75049Z" fill="#555555"/>
</svg>
