<svg width="24" height="24" viewBox="0 0 24 24" fill="none" xmlns="http://www.w3.org/2000/svg">
<path d="M4.00068 19.2025V4.79749C3.99179 4.48349 4.07046 4.17297 4.22845 3.89852C4.38643 3.62407 4.61789 3.39582 4.89853 3.23773C5.17917 3.07964 5.49864 2.99754 5.8234 3.00006C6.14816 3.00257 6.46623 3.0896 6.74422 3.25201L19.1655 10.4837C19.4209 10.6384 19.6315 10.8534 19.7775 11.1084C19.9234 11.3635 20 11.6502 20 11.9417C20 12.2332 19.9234 12.5199 19.7775 12.7749C19.6315 13.03 19.4209 13.2449 19.1655 13.3997L6.74422 20.748C6.46623 20.9104 6.14816 20.9974 5.8234 20.9999C5.49864 21.0025 5.17917 20.9204 4.89853 20.7623C4.61789 20.6042 4.38643 20.3759 4.22845 20.1015C4.07046 19.827 3.99179 19.5165 4.00068 19.2025Z" stroke="#555555" stroke-width="1.5" stroke-linecap="round" stroke-linejoin="round"/>
</svg>
