<svg width="24" height="24" viewBox="0 0 24 24" fill="none" xmlns="http://www.w3.org/2000/svg">
<path fill-rule="evenodd" clip-rule="evenodd" d="M12 2C11.87 2 11.7407 2.03571 11.6264 2.10571C11.6264 2.10571 5.16143 6.08429 3.02 7.40214C2.38571 7.79143 2 8.48214 2 9.22643V19.8571C2 21.04 2.96 22 4.14286 22C5.32571 22 6.28571 21.04 6.28571 19.8571V11.2857C6.28571 11.0964 6.36071 10.9143 6.495 10.7807C6.62857 10.6464 6.81071 10.5714 7 10.5714H17C17.1893 10.5714 17.3714 10.6464 17.505 10.7807C17.6393 10.9143 17.7143 11.0964 17.7143 11.2857V19.8571C17.7143 21.04 18.6743 22 19.8571 22C21.04 22 22 21.04 22 19.8571V9.22643C22 8.48214 21.6143 7.79143 20.98 7.40214C18.8386 6.08429 12.3736 2.10571 12.3736 2.10571C12.2593 2.03571 12.13 2 12 2ZM12 3.55286L20.2307 8.61857C20.4421 8.74857 20.5714 8.97786 20.5714 9.22643V19.8571C20.5714 20.2514 20.2514 20.5714 19.8571 20.5714C19.4629 20.5714 19.1429 20.2514 19.1429 19.8571V11.2857C19.1429 10.7171 18.9171 10.1721 18.515 9.77071C18.1136 9.36857 17.5686 9.14286 17 9.14286H7C6.43143 9.14286 5.88643 9.36857 5.485 9.77071C5.08286 10.1721 4.85714 10.7171 4.85714 11.2857V19.8571C4.85714 20.2514 4.53714 20.5714 4.14286 20.5714C3.74857 20.5714 3.42857 20.2514 3.42857 19.8571V9.22643C3.42857 8.97786 3.55786 8.74857 3.76929 8.61857L12 3.55286ZM10.5714 6.28571C10.1771 6.28571 9.85714 6.60571 9.85714 7C9.85714 7.39429 10.1771 7.71429 10.5714 7.71429H13.4286C13.8229 7.71429 14.1429 7.39429 14.1429 7C14.1429 6.60571 13.8229 6.28571 13.4286 6.28571H10.5714ZM7.71429 14.8571C7.32 14.8571 7 15.1771 7 15.5714C7 15.9657 7.32 16.2857 7.71429 16.2857H16.2857C16.68 16.2857 17 15.9657 17 15.5714C17 15.1771 16.68 14.8571 16.2857 14.8571H7.71429ZM7.71429 17.7143C7.32 17.7143 7 18.0343 7 18.4286C7 18.8229 7.32 19.1429 7.71429 19.1429H16.2857C16.68 19.1429 17 18.8229 17 18.4286C17 18.0343 16.68 17.7143 16.2857 17.7143H7.71429Z" fill="#555555"/>
</svg>
