<svg width="24" height="24" viewBox="0 0 24 24" fill="none" xmlns="http://www.w3.org/2000/svg">
<path d="M18.6667 7.00674H18.2783C18.53 6.54677 18.6634 6.03153 18.6667 5.50728C18.667 4.80142 18.4371 4.1147 18.0117 3.55132C17.5623 2.95943 16.9501 2.51131 16.25 2.26178C15.5262 1.99904 14.7448 1.9363 13.9883 2.08018C13.2462 2.21508 12.557 2.55634 12 3.06483C11.444 2.5548 10.7555 2.2118 10.0133 2.07518C9.25682 1.9313 8.4755 1.99404 7.75167 2.25678C7.05153 2.50631 6.43934 2.95443 5.99 3.54632C5.56297 4.11086 5.33236 4.79952 5.33333 5.50728C5.33657 6.03153 5.47001 6.54677 5.72167 7.00674H5.33333C4.46658 7.00025 3.62775 7.31278 2.97667 7.88475C2.6735 8.14947 2.42976 8.47528 2.26144 8.8408C2.09312 9.20632 2.00403 9.60329 2 10.0057V12.0049C2.00239 12.1396 2.03334 12.2721 2.0908 12.3939C2.14826 12.5157 2.23093 12.6239 2.33333 12.7113C2.55013 12.9021 2.82954 13.0064 3.11833 13.0046H4.23V19.0024C4.23426 19.4045 4.32347 19.8011 4.49178 20.1664C4.66009 20.5316 4.90371 20.8571 5.20667 21.1216C5.85783 21.6935 6.69661 22.006 7.56333 21.9997H16.4517C17.3184 22.006 18.1572 21.6935 18.8083 21.1216C19.1113 20.8571 19.3549 20.5316 19.5232 20.1664C19.6915 19.8011 19.7807 19.4045 19.785 19.0024V13.0046H20.8967C21.1855 13.0064 21.4649 12.9021 21.6817 12.7113C21.7813 12.6225 21.8612 12.5137 21.916 12.392C21.9709 12.2703 21.9995 12.1384 22 12.0049V10.0057C21.9957 9.60357 21.9065 9.20692 21.7382 8.8417C21.5699 8.47649 21.3263 8.15095 21.0233 7.88642C20.3725 7.31384 19.5336 7.00071 18.6667 7.00674ZM10.8883 20.0021H7.555C7.2662 20.0039 6.9868 19.8996 6.77 19.7088C6.66759 19.6214 6.58493 19.5132 6.52747 19.3914C6.47 19.2696 6.43906 19.137 6.43667 19.0024V13.0046H10.8883V20.0021ZM10.8883 11.0053H4.22167V10.0057C4.22406 9.87103 4.255 9.73845 4.31247 9.61668C4.36993 9.4949 4.45259 9.3867 4.555 9.29924C4.77008 9.11004 5.04683 9.00577 5.33333 9.00602H10.8883V11.0053ZM10.8883 7.00674H9.22167C8.89554 7.00772 8.57527 6.92019 8.295 6.75349C8.0286 6.59752 7.81499 6.36542 7.68167 6.08707C7.55575 5.81653 7.52237 5.5121 7.58667 5.22071C7.65482 4.92327 7.81453 4.65466 8.04333 4.45266C8.28417 4.23946 8.57966 4.09754 8.89667 4.04281C9.2196 3.98443 9.55228 4.01377 9.86 4.12777C10.1574 4.23568 10.4173 4.42718 10.6083 4.67924C10.7896 4.91929 10.8884 5.2115 10.89 5.51228L10.8883 7.00674ZM13.11 5.50728C13.1116 5.2065 13.2104 4.91429 13.3917 4.67424C13.5827 4.42218 13.8426 4.23068 14.14 4.12278C14.4477 4.00878 14.7804 3.97943 15.1033 4.03781C15.4203 4.09254 15.7158 4.23446 15.9567 4.44766C16.1855 4.64966 16.3452 4.91827 16.4133 5.21572C16.4776 5.5071 16.4442 5.81153 16.3183 6.08207C16.185 6.36042 15.9714 6.59252 15.705 6.7485C15.4252 6.91694 15.1049 7.00621 14.7783 7.00674H13.1117L13.11 5.50728ZM17.555 19.0024C17.5526 19.137 17.5217 19.2696 17.4642 19.3914C17.4067 19.5132 17.3241 19.6214 17.2217 19.7088C17.0049 19.8996 16.7255 20.0039 16.4367 20.0021H13.1033V13.0046H17.5483L17.555 19.0024ZM19.7767 11.0053H13.11V9.00602H18.6667C18.9555 9.00414 19.2349 9.10851 19.4517 9.29924C19.5541 9.3867 19.6367 9.4949 19.6942 9.61668C19.7517 9.73845 19.7826 9.87103 19.785 10.0057L19.7767 11.0053Z" fill="#555555"/>
</svg>
