<svg width="24" height="24" viewBox="0 0 24 24" fill="none" xmlns="http://www.w3.org/2000/svg">
<rect width="24" height="24" rx="12" fill="#555555"/>
<path d="M16.1664 13.93C16.1664 16.345 14.2764 17.785 11.9814 17.785C9.67137 17.785 7.79637 16.315 7.79637 13.99C7.79637 12.73 8.27637 11.755 8.98137 10.705L11.5464 6.88H14.5914L11.9814 10.51L11.9364 10.585C12.1314 10.51 12.4464 10.465 12.6864 10.465C14.5464 10.465 16.1664 11.86 16.1664 13.93ZM13.6464 13.99C13.6464 13.03 12.9864 12.325 11.9964 12.325C11.0064 12.325 10.3164 13.015 10.3164 14.005C10.3164 14.92 10.9764 15.685 11.9814 15.685C12.9714 15.685 13.6464 14.995 13.6464 13.99Z" fill="white"/>
</svg>
