<svg width="24" height="24" viewBox="0 0 24 24" fill="none" xmlns="http://www.w3.org/2000/svg">
<path d="M14.126 12.3262C15.0502 12.696 15.79 13.7131 15.79 14.8223H17.6387C19.2098 14.8225 20.411 16.0236 20.4111 17.5947V18.5195L13.0166 20.8301L6.5459 19.0742V20.3682H1V10.2002H8.39453L14.126 12.3262ZM6.5459 17.1328L13.0166 18.8887L18.4697 17.2256C18.2849 16.856 18.0082 16.671 17.6387 16.6709H12.6465C12.1844 16.6709 11.63 16.5778 11.168 16.4854L9.04199 15.7461L9.59668 13.9902L11.8145 14.7295C12.0893 14.7295 13.9087 14.8207 13.9404 14.8223C13.9404 14.4526 13.7562 14.1745 13.3867 14.082L8.02539 12.0488H6.5459V17.1328ZM2.84863 18.5195H4.69727V12.0488H2.84863V18.5195ZM21.252 7.32617C22.2216 7.32638 22.874 8.08406 22.874 9.02051C22.8739 9.94765 22.242 10.7266 21.2393 10.7266C20.948 10.7265 20.658 10.6396 20.4199 10.4795V12.0879H19.4551V7.4043H20.4072V7.57812C20.6355 7.42114 20.9266 7.32617 21.252 7.32617ZM17.3623 6C17.7933 6.00004 18.2166 6.08155 18.5381 6.29883C18.8716 6.5242 19.0742 6.88174 19.0742 7.37598C19.0742 7.73666 18.9495 8.0424 18.7295 8.27148C18.574 8.4334 18.376 8.55016 18.1533 8.625L19.2012 10.3438L19.3857 10.6484H18.1943L18.1367 10.5479L17.1143 8.75781H16.7939V10.6484H15.7998V6H17.3623ZM21.1436 8.19434C20.7002 8.19434 20.3838 8.56724 20.3838 9.02637C20.3839 9.48384 20.6989 9.85254 21.1436 9.85254C21.3934 9.85254 21.5746 9.75403 21.6963 9.6084C21.8213 9.45869 21.8915 9.24815 21.8916 9.02051C21.8916 8.79277 21.821 8.58365 21.6963 8.43555C21.575 8.29158 21.3942 8.19434 21.1436 8.19434ZM20.2012 9.22656C20.2049 9.24734 20.21 9.26771 20.2148 9.28809C20.2025 9.23589 20.1933 9.18245 20.1885 9.12793L20.2012 9.22656ZM22.0918 9.02051L22.0879 8.9209C22.0859 8.89591 22.0815 8.87131 22.0781 8.84668C22.0861 8.9038 22.0918 8.96178 22.0918 9.02051ZM21.3945 8.02539C21.3835 8.02263 21.3726 8.019 21.3613 8.0166L21.3555 8.01562C21.3687 8.01836 21.3816 8.02215 21.3945 8.02539ZM16.7939 7.86035H17.2783C17.5425 7.86032 17.749 7.81833 17.8828 7.73828C18.0014 7.66733 18.0742 7.56099 18.0742 7.37598C18.0742 7.1911 18.0011 7.08844 17.8877 7.02051C17.7591 6.94347 17.5634 6.90433 17.3203 6.9043H16.7939V7.86035ZM18.2451 7.57617C18.2475 7.56795 18.2518 7.56023 18.2539 7.55176L18.2549 7.54688C18.2525 7.557 18.2479 7.56639 18.2451 7.57617Z" fill="#555555"/>
</svg>
