<svg width="24" height="24" viewBox="0 0 24 24" fill="none" xmlns="http://www.w3.org/2000/svg">
<path d="M12.5479 4.47644C14.7674 2.174 18.3546 2.17404 20.5742 4.47644C22.8086 6.79439 22.8085 10.5637 20.5742 12.8817C20.5658 12.8904 20.5641 12.8927 20.5596 12.8973L20.5576 12.8993L12.877 20.8671C12.3849 21.3775 11.5985 21.3775 11.1064 20.8671L3.43555 12.9091L3.43457 12.9081L3.4248 12.8983C1.19122 10.5803 1.19182 6.81179 3.42578 4.49402C5.64537 2.19146 9.23255 2.19145 11.4521 4.49402L11.9941 5.05554L12.5342 4.49207C12.5389 4.48713 12.543 4.48143 12.5479 4.47644Z" stroke="#555555" stroke-width="1.5"/>
</svg>
