<svg width="24" height="24" viewBox="0 0 24 24" fill="none" xmlns="http://www.w3.org/2000/svg">
<path fill-rule="evenodd" clip-rule="evenodd" d="M12.1211 2.08765C12.3031 2.10451 12.475 2.17666 12.6162 2.29272L12.6172 2.29175L21.5586 9.4939L21.6357 9.56226C21.6851 9.61083 21.7291 9.66437 21.7666 9.72241L21.8174 9.81226L21.8584 9.90698C21.8941 10.0036 21.9142 10.1055 21.917 10.2087V19.3289C21.9169 20.0136 21.6466 20.6712 21.1641 21.157C20.6813 21.6429 20.0257 21.9167 19.3408 21.9167H19.334L4.65332 21.7878C3.97097 21.786 3.31803 21.5124 2.83691 21.0281C2.35432 20.5422 2.08398 19.8839 2.08398 19.199V19.1931L2.15723 10.2234C2.1581 10.0954 2.18537 9.96896 2.23633 9.85132L2.2793 9.7644C2.32648 9.68018 2.3863 9.60348 2.45703 9.53687L2.50098 9.4978L11.457 2.29175C11.6199 2.15778 11.8244 2.08374 12.0371 2.08374L12.1211 2.08765ZM3.6543 10.4939L3.58398 19.2058C3.58565 19.4938 3.70044 19.7692 3.90137 19.9714C4.10353 20.1747 4.37657 20.2878 4.66016 20.2878H4.66699L6.97852 20.3074C6.94517 20.1714 6.92578 20.0298 6.92578 19.8835V13.2839C6.92578 12.3036 7.72087 11.5085 8.70117 11.5085H15.3008C16.2811 11.5085 17.0762 12.3036 17.0762 13.2839V19.8835C17.0762 20.0616 17.0488 20.2331 17 20.3953L19.3418 20.4158C19.6253 20.4156 19.8985 20.3037 20.1006 20.1003C20.3029 19.8967 20.4169 19.6191 20.417 19.3289V10.5007L12.0361 3.74976L3.6543 10.4939ZM8.70117 13.0085C8.54929 13.0085 8.42578 13.1321 8.42578 13.2839V19.8835C8.42578 20.0165 8.52011 20.1275 8.64551 20.1531L8.70117 20.1589H15.3008C15.4336 20.1589 15.5446 20.0644 15.5703 19.9392L15.5762 19.8835V13.2839C15.5762 13.1321 15.4527 13.0085 15.3008 13.0085H8.70117Z" fill="#555555"/>
</svg>
