<svg width="24" height="24" viewBox="0 0 24 24" fill="none" xmlns="http://www.w3.org/2000/svg">
<path fill-rule="evenodd" clip-rule="evenodd" d="M11.0818 2.02536C9.83278 2.15038 8.6541 2.48515 7.57771 3.02056C4.68478 4.4596 2.67591 7.15764 2.13053 10.3364C1.9833 11.1946 1.958 12.3643 2.068 13.2274C2.14187 13.807 2.43011 14.0892 2.91832 14.0599C3.18806 14.0437 3.29564 13.9838 3.49327 13.7397C3.60511 13.6017 3.61277 13.5714 3.6118 13.273C3.61121 13.0975 3.59565 12.6812 3.57723 12.3478C3.48041 10.5956 3.97664 8.81597 4.98381 7.30338C5.91156 5.9101 7.36377 4.73646 8.88861 4.14771C11.153 3.27337 13.5671 3.37184 15.7283 4.42668C16.1346 4.62501 17.0887 5.22131 17.1447 5.31196C17.1579 5.33319 17.0085 5.34852 16.7835 5.34903C16.4963 5.34965 16.3603 5.36792 16.2419 5.42168C15.6508 5.69017 15.6473 6.54296 16.2363 6.81716C16.4388 6.91148 16.4407 6.91156 17.8508 6.91195C18.8031 6.91222 19.3057 6.89787 19.3954 6.86784C19.5964 6.80054 19.7733 6.65253 19.8708 6.47015C19.9571 6.30861 19.9584 6.2846 19.9584 4.82026C19.9584 3.36281 19.9568 3.33121 19.8722 3.17303C19.5597 2.58893 18.7835 2.58698 18.4864 3.16947C18.4238 3.2921 18.4011 3.43018 18.3845 3.79022C18.3728 4.0449 18.355 4.25325 18.3451 4.25325C18.3351 4.25325 18.2427 4.18278 18.1399 4.09664C17.554 3.60607 16.3043 2.9124 15.4279 2.59128C14.9002 2.39791 14.0771 2.19085 13.4671 2.09802C12.881 2.00882 11.6282 1.97065 11.0818 2.02536ZM20.8187 9.97764C20.6459 10.0531 20.417 10.3254 20.3855 10.493C20.3706 10.5723 20.381 10.9338 20.4084 11.2963C20.5568 13.2518 20.0791 15.1012 19.0197 16.6726C17.7302 18.5853 15.8455 19.8385 13.5904 20.2826C11.3535 20.7232 8.92955 20.193 7.09341 18.8615L6.81995 18.6632L7.24982 18.6426C7.72025 18.6202 7.85449 18.5733 8.02362 18.3723C8.34994 17.9845 8.22856 17.4093 7.77241 17.182L7.56657 17.0794L6.15674 17.0797C5.29359 17.0798 4.68959 17.0958 4.59918 17.1209C4.41406 17.1723 4.21064 17.3483 4.11577 17.5392C4.04984 17.6718 4.04183 17.8131 4.03053 19.0447C4.01582 20.6439 4.02974 20.7574 4.27121 21.0082C4.56465 21.3128 5.00266 21.3435 5.3144 21.0812C5.53882 20.8924 5.58762 20.7359 5.58762 20.2052C5.58762 19.8412 5.59904 19.7346 5.6365 19.7491C5.6634 19.7595 5.84375 19.8862 6.03732 20.0306C8.82553 22.1113 12.5122 22.5778 15.7933 21.2651C16.1492 21.1227 16.9248 20.7207 17.3075 20.4803C18.4734 19.7478 19.5877 18.6576 20.3564 17.4972C21.6422 15.5565 22.2169 13.1058 21.9314 10.7808C21.881 10.3704 21.757 10.1466 21.5067 10.0144C21.3106 9.91082 21.0087 9.8947 20.8187 9.97764Z" fill="#555555"/>
<path fill-rule="evenodd" clip-rule="evenodd" d="M15.6882 8.62102C15.1678 8.97244 14.7087 9.29339 14.668 9.3342C14.5904 9.41183 14.7421 9.7327 14.8564 9.7327C14.8894 9.7327 15.3831 9.42025 15.9534 9.03836C16.9484 8.37212 16.986 8.33744 16.8823 8.18125C16.8228 8.09175 16.7427 8.01029 16.7042 8.00026C16.6657 7.99023 16.2086 8.26961 15.6882 8.62102ZM13.3437 8.70157C12.3174 9.27563 12.2218 9.29339 9.90005 9.34354L7.83387 9.38817L7.81091 9.8284L7.78796 10.2686H7.44237C6.8066 10.2686 6.80078 10.2797 6.80078 11.4936C6.80078 12.7075 6.8066 12.7186 7.44237 12.7186H7.78796L7.81091 13.1588C7.83257 13.5745 7.8455 13.6004 8.04233 13.6231L8.25086 13.6471L8.2719 14.8098L8.29302 15.9725L8.93691 15.9949C9.40042 16.0111 9.59847 15.9896 9.64362 15.9183C9.67813 15.8639 9.7069 15.3284 9.70759 14.7283L9.70874 13.6373L10.6079 13.6386C11.8092 13.6405 12.3936 13.7748 13.2799 14.2528C13.8611 14.5663 14.0256 14.6253 14.1138 14.552C14.2059 14.4756 14.2237 13.9798 14.2237 11.4996C14.2237 8.63105 14.2032 8.34578 13.998 8.35689C13.9749 8.35811 13.6804 8.51322 13.3437 8.70157ZM13.7646 11.4946V13.9455L13.2292 13.6758C12.4276 13.2719 11.9235 13.1804 10.4931 13.1791L9.24959 13.178V11.5019V9.8258L10.6844 9.79012C12.2196 9.75199 12.6275 9.66777 13.3437 9.24064C13.512 9.14019 13.6757 9.05482 13.7072 9.05084C13.7387 9.04686 13.7646 10.1466 13.7646 11.4946ZM8.71391 11.4936V13.178H8.48434H8.25476V11.4936V9.80926H8.48434H8.71391V11.4936ZM7.79561 11.4936V12.1827H7.56603H7.33646V11.4936V10.8046H7.56603H7.79561V11.4936ZM14.733 13.3946C14.6634 13.4716 14.6064 13.5553 14.6064 13.5806C14.6064 13.606 15.0764 13.9916 15.6508 14.4376C16.6432 15.2081 16.7022 15.242 16.8369 15.12C16.9149 15.0494 16.9786 14.9647 16.9786 14.9317C16.9786 14.8783 14.9534 13.2545 14.8867 13.2545C14.8718 13.2545 14.8026 13.3175 14.733 13.3946ZM9.17306 14.5944V15.5514H8.94349H8.71391V14.5944V13.6373H8.94349H9.17306V14.5944Z" fill="#555555" stroke="#555555" stroke-width="0.3"/>
<path d="M15.1922 11.2352C15.2493 11.2265 15.8098 11.2398 16.4377 11.2649C17.0656 11.29 17.5998 11.3356 17.6248 11.3665C17.6498 11.3973 17.6659 11.5103 17.6605 11.6175C17.6511 11.8046 17.6002 11.8103 16.4029 11.7578C15.7167 11.7277 15.1334 11.6871 15.1068 11.6675C15.0148 11.5999 15.0836 11.2518 15.1922 11.2352Z" fill="#555555" stroke="#555555" stroke-width="0.3"/>
</svg>
