<svg width="24" height="24" viewBox="0 0 24 24" fill="none" xmlns="http://www.w3.org/2000/svg">
<path d="M21.53 12.47L20.53 11.47C20.3895 11.3293 20.1988 11.2502 20 11.25H17.75V4C17.7474 3.53668 17.5622 3.09309 17.2345 2.76546C16.9069 2.43784 16.4633 2.25263 16 2.25H4C3.53668 2.25263 3.09309 2.43784 2.76546 2.76546C2.43784 3.09309 2.25263 3.53668 2.25 4V20C2.25263 20.4633 2.43784 20.9069 2.76546 21.2345C3.09309 21.5622 3.53668 21.7474 4 21.75H16C16.2292 21.7468 16.4548 21.6921 16.66 21.59C16.7731 21.5997 16.8869 21.5997 17 21.59C17.2704 21.5911 17.5374 21.5295 17.78 21.41L18.57 21.01C19.5271 20.5356 20.3323 19.8028 20.8943 18.8943C21.4564 17.9859 21.7528 16.9382 21.75 15.87V13C21.7498 12.8012 21.6707 12.6105 21.53 12.47ZM4 20.25C3.9337 20.25 3.87011 20.2237 3.82322 20.1768C3.77634 20.1299 3.75 20.0663 3.75 20V4C3.75 3.9337 3.77634 3.87011 3.82322 3.82322C3.87011 3.77634 3.9337 3.75 4 3.75H16C16.0663 3.75 16.1299 3.77634 16.1768 3.82322C16.2237 3.87011 16.25 3.9337 16.25 4V11.25H14C13.8012 11.2502 13.6105 11.3293 13.47 11.47L12.47 12.47C12.3293 12.6105 12.2502 12.8012 12.25 13V15.91C12.2517 16.1574 12.2684 16.4046 12.3 16.65C12.2961 16.7233 12.2961 16.7967 12.3 16.87C12.3 17.04 12.36 17.2 12.4 17.37C12.4187 17.448 12.4421 17.5248 12.47 17.6C12.5184 17.7784 12.5819 17.9524 12.66 18.12C12.6757 18.1716 12.6957 18.2218 12.72 18.27C12.8105 18.4878 12.9175 18.6984 13.04 18.9L13.15 19.05C13.2443 19.1996 13.3478 19.3433 13.46 19.48L13.61 19.67C13.72 19.8 13.84 19.92 13.96 20.04L14.12 20.19L14.18 20.25H4ZM20.25 15.91C20.2532 16.6999 20.0346 17.4747 19.6192 18.1465C19.2037 18.8183 18.6081 19.36 17.9 19.71L17.11 20.11C17.0752 20.1249 17.0378 20.1325 17 20.1325C16.9622 20.1325 16.9248 20.1249 16.89 20.11H16.84L16.12 19.75C15.5028 19.446 14.9695 18.9953 14.5668 18.4375C14.1641 17.8796 13.9042 17.2315 13.81 16.55C13.795 16.3503 13.795 16.1497 13.81 15.95V13.35L14.37 12.79H19.75L20.31 13.35L20.25 15.91Z" fill="#555555"/>
<path d="M6 6.75H14C14.1989 6.75 14.3897 6.67098 14.5303 6.53033C14.671 6.38968 14.75 6.19891 14.75 6C14.75 5.80109 14.671 5.61032 14.5303 5.46967C14.3897 5.32902 14.1989 5.25 14 5.25H6C5.80109 5.25 5.61032 5.32902 5.46967 5.46967C5.32902 5.61032 5.25 5.80109 5.25 6C5.25 6.19891 5.32902 6.38968 5.46967 6.53033C5.61032 6.67098 5.80109 6.75 6 6.75Z" fill="#555555"/>
<path d="M14 8.25H6C5.80109 8.25 5.61032 8.32902 5.46967 8.46967C5.32902 8.61032 5.25 8.80109 5.25 9C5.25 9.19891 5.32902 9.38968 5.46967 9.53033C5.61032 9.67098 5.80109 9.75 6 9.75H14C14.1989 9.75 14.3897 9.67098 14.5303 9.53033C14.671 9.38968 14.75 9.19891 14.75 9C14.75 8.80109 14.671 8.61032 14.5303 8.46967C14.3897 8.32902 14.1989 8.25 14 8.25Z" fill="#555555"/>
<path d="M10 11.25H6C5.80109 11.25 5.61032 11.329 5.46967 11.4697C5.32902 11.6103 5.25 11.8011 5.25 12C5.25 12.1989 5.32902 12.3897 5.46967 12.5303C5.61032 12.671 5.80109 12.75 6 12.75H10C10.1989 12.75 10.3897 12.671 10.5303 12.5303C10.671 12.3897 10.75 12.1989 10.75 12C10.75 11.8011 10.671 11.6103 10.5303 11.4697C10.3897 11.329 10.1989 11.25 10 11.25Z" fill="#555555"/>
<path d="M19.0004 14.47C18.8598 14.3296 18.6691 14.2507 18.4704 14.2507C18.2716 14.2507 18.081 14.3296 17.9404 14.47L16.5004 15.94L16.0004 15.47C15.9386 15.3747 15.8559 15.2946 15.7587 15.2359C15.6614 15.1772 15.552 15.1414 15.4389 15.1311C15.3257 15.1208 15.2117 15.1364 15.1055 15.1766C14.9992 15.2169 14.9035 15.2807 14.8255 15.3634C14.7476 15.446 14.6894 15.5453 14.6554 15.6537C14.6214 15.7621 14.6125 15.8768 14.6294 15.9892C14.6462 16.1016 14.6884 16.2086 14.7526 16.3023C14.8169 16.396 14.9016 16.4739 15.0004 16.53L16.0004 17.53C16.141 17.6705 16.3316 17.7494 16.5304 17.7494C16.7291 17.7494 16.9198 17.6705 17.0604 17.53L19.0604 15.53C19.1261 15.4565 19.1768 15.3708 19.2093 15.2777C19.2419 15.1846 19.2558 15.086 19.2502 14.9876C19.2447 14.8891 19.2197 14.7927 19.1769 14.7039C19.134 14.6151 19.074 14.5356 19.0004 14.47Z" fill="#555555"/>
</svg>
