<svg width="24" height="24" viewBox="0 0 24 24" fill="none" xmlns="http://www.w3.org/2000/svg">
<path d="M12 10.125C12.6904 10.125 13.25 10.6846 13.25 11.375V17C13.25 17.6904 12.6904 18.25 12 18.25C11.3096 18.25 10.75 17.6904 10.75 17V11.375C10.75 10.6846 11.3096 10.125 12 10.125Z" fill="#555555"/>
<path d="M12 6.375C12.6904 6.375 13.25 6.93464 13.25 7.625C13.25 8.31536 12.6904 8.875 12 8.875C11.3096 8.875 10.75 8.31536 10.75 7.625C10.75 6.93464 11.3096 6.375 12 6.375Z" fill="#555555"/>
<path fill-rule="evenodd" clip-rule="evenodd" d="M12 2C17.5228 2 22 6.47715 22 12C22 17.5228 17.5228 22 12 22C6.47715 22 2 17.5228 2 12C2 6.47715 6.47715 2 12 2ZM12 3.5C7.30558 3.5 3.5 7.30558 3.5 12C3.5 16.6944 7.30558 20.5 12 20.5C16.6944 20.5 20.5 16.6944 20.5 12C20.5 7.30558 16.6944 3.5 12 3.5Z" fill="#555555"/>
</svg>
