<svg width="24" height="24" viewBox="0 0 24 24" fill="none" xmlns="http://www.w3.org/2000/svg">
<path d="M18.292 4.76514C18.292 4.62596 18.2631 4.48759 18.208 4.35791C18.1529 4.22815 18.0717 4.10859 17.9678 4.00732C17.8639 3.90615 17.7397 3.82484 17.6016 3.76904C17.4632 3.7132 17.3139 3.68408 17.1631 3.68408H6.83496C6.52974 3.68418 6.2404 3.80252 6.03027 4.00732C5.82083 4.21155 5.70703 4.48488 5.70703 4.76514V19.5425L7.79199 17.8696C7.9626 17.7301 8.17516 17.6549 8.39258 17.6548L8.47852 17.6587C8.65541 17.6747 8.82548 17.7408 8.96875 17.8501L12.0625 20.1294L14.7568 17.8804L14.7725 17.8677C14.9448 17.7313 15.1574 17.6587 15.374 17.6587L15.5352 17.6724C15.6876 17.698 15.8324 17.7609 15.958 17.856L15.959 17.855L18.292 19.5981V4.76514ZM19.124 20.2212C19.1302 20.2255 19.1375 20.2284 19.1436 20.2329C19.1354 20.2268 19.1266 20.2219 19.1182 20.2163L19.124 20.2212ZM15.8379 13.2661L15.915 13.27C16.2932 13.3084 16.5879 13.6278 16.5879 14.0161C16.5877 14.4043 16.2931 14.7238 15.915 14.7622L15.8379 14.7661H7.38867C6.97459 14.7661 6.63889 14.4301 6.63867 14.0161C6.63867 13.6019 6.97446 13.2661 7.38867 13.2661H15.8379ZM12.083 9.60498L12.1602 9.60889C12.538 9.64745 12.8328 9.967 12.833 10.355C12.833 10.7432 12.5382 11.0635 12.1602 11.1021L12.083 11.105H7.38867C6.97446 11.105 6.63867 10.7692 6.63867 10.355C6.63893 9.94099 6.97462 9.60498 7.38867 9.60498H12.083ZM14.8994 5.94482L14.9756 5.94873C15.3538 5.98697 15.6492 6.30656 15.6494 6.69482C15.6494 7.08324 15.3539 7.40263 14.9756 7.44092L14.8994 7.44482H7.38867C6.97446 7.44482 6.63867 7.10904 6.63867 6.69482C6.63888 6.28079 6.97459 5.94482 7.38867 5.94482H14.8994ZM19.792 20.6772C19.7898 20.8596 19.7351 21.0368 19.6367 21.188C19.5385 21.3389 19.4009 21.4581 19.2412 21.5337C19.0815 21.6092 18.9042 21.639 18.7295 21.6216C18.5765 21.6063 18.4298 21.5534 18.2998 21.4692C18.2814 21.4578 18.2618 21.4482 18.2441 21.4351L15.3916 19.3032L12.7041 21.5483C12.5285 21.6949 12.3081 21.7729 12.083 21.7729C11.8727 21.7729 11.6684 21.7023 11.499 21.5737L11.498 21.5767L8.40625 19.2983L5.7832 21.4058L5.74609 21.4331C5.60489 21.5328 5.44063 21.5924 5.27051 21.6079C5.10015 21.6234 4.92776 21.594 4.77148 21.522C4.61508 21.4498 4.47881 21.337 4.37891 21.1929C4.304 21.0848 4.25159 20.9626 4.22559 20.8335L4.20801 20.7017C4.20709 20.6865 4.20703 20.6709 4.20703 20.6558V4.76514C4.20703 4.07443 4.48851 3.41551 4.9834 2.93311C5.4776 2.45141 6.14414 2.18418 6.83496 2.18408H17.1631C17.5056 2.18408 17.8456 2.25026 18.1631 2.37842C18.4804 2.50655 18.7699 2.69459 19.0146 2.93311C19.2596 3.17184 19.4552 3.45652 19.5889 3.771C19.7225 4.0855 19.792 4.42354 19.792 4.76514V20.6772Z" fill="#555555"/>
</svg>
