<svg width="24" height="24" viewBox="0 0 24 24" fill="none" xmlns="http://www.w3.org/2000/svg">
<path fill-rule="evenodd" clip-rule="evenodd" d="M17.7115 5.01172C18.218 5.06583 18.6886 5.30187 19.0426 5.67383C19.446 6.09802 19.6676 6.66547 19.6676 7.25V8H20.7017C20.9487 7.99976 21.1915 8.05862 21.4107 8.16992C21.5754 8.25358 21.7229 8.36526 21.8482 8.49805L21.9664 8.6377L23.5894 10.9062L23.5904 10.9072L23.6812 11.0449C23.8793 11.3745 23.985 11.7539 23.9879 12.1396V15.8955C23.9879 16.123 23.9011 16.3483 23.7379 16.5195C23.5939 16.6704 23.3991 16.7688 23.1861 16.791L23.0943 16.7959H21.7105C21.3186 17.6121 20.4869 18.1776 19.5211 18.1777C18.478 18.1776 17.5911 17.5187 17.2467 16.5957H15.0103C14.6658 17.5189 13.7772 18.1776 12.734 18.1777C11.7047 18.1774 10.8271 17.5358 10.4732 16.6318C9.89168 16.6255 9.34155 16.3819 8.94099 15.9619C8.81123 15.8258 8.70268 15.6733 8.61189 15.5117L2.39509 18.1201L2.32283 18.1455C1.95956 18.2562 1.56413 18.0762 1.41365 17.7188C1.25344 17.3368 1.43315 16.8966 1.81501 16.7363L8.31501 14.0098V7.25C8.31501 6.66465 8.53654 6.09623 8.94099 5.67188C9.34671 5.24647 9.90584 5.00013 10.4957 5H17.4927L17.7115 5.01172ZM12.734 14.8184C12.2207 14.8188 11.8044 15.2349 11.8043 15.748C11.8045 16.2611 12.2208 16.6773 12.734 16.6777C13.2473 16.6776 13.6644 16.2612 13.6646 15.748C13.6645 15.2347 13.2474 14.8185 12.734 14.8184ZM19.5211 14.8184C19.0076 14.8185 18.5915 15.2347 18.5914 15.748C18.5914 15.7598 18.5919 15.7715 18.5924 15.7832C18.5941 15.8039 18.5992 15.8245 18.5992 15.8457C18.5992 15.849 18.5973 15.8522 18.5972 15.8555C18.6507 16.318 19.044 16.6776 19.5211 16.6777C20.0344 16.6776 20.4515 16.2612 20.4517 15.748C20.4516 15.2347 20.0345 14.8185 19.5211 14.8184ZM10.4957 6.5C10.3273 6.50013 10.1574 6.57028 10.0269 6.70703C9.89527 6.84523 9.81501 7.04001 9.81501 7.25V14.3838C9.81505 14.5937 9.8953 14.7886 10.0269 14.9268C10.1295 15.0342 10.257 15.0986 10.3883 15.1221C10.6644 14.0838 11.6088 13.3187 12.734 13.3184C13.8497 13.3185 14.7885 14.0708 15.0738 15.0957H17.1832C17.4684 14.0709 18.4054 13.3185 19.5211 13.3184C20.7084 13.3185 21.6958 14.1701 21.9078 15.2959H22.4879V12.1504L22.4791 12.0488C22.463 11.9489 22.4244 11.8555 22.3687 11.7773L20.7662 9.53809L20.732 9.50684C20.7218 9.50165 20.7118 9.50006 20.7037 9.5H19.6676V12.4336C19.6675 12.8475 19.3314 13.1832 18.9176 13.1836C18.5036 13.1833 18.1676 12.8476 18.1676 12.4336V7.25C18.1676 7.04032 18.087 6.84618 17.9556 6.70801C17.858 6.60541 17.7384 6.53998 17.6138 6.51367L17.4888 6.5H10.4957Z" fill="#555555"/>
<path fill-rule="evenodd" clip-rule="evenodd" d="M5.06404 9.01758C5.54803 8.87253 6.06225 9.12091 6.2447 9.60547L7.58357 13.165L7.61482 13.2627C7.73646 13.7216 7.52231 14.2148 7.10408 14.4395L7.01228 14.4834L3.68025 15.8613L3.58454 15.8965C3.13289 16.0315 2.65473 15.8245 2.4449 15.4023L2.40486 15.3076L1.06501 11.749C0.882728 11.2645 1.09677 10.7154 1.54451 10.4746L1.63728 10.4307L4.96833 9.05176L5.06404 9.01758ZM2.62751 11.6436L3.61482 14.2666L6.02204 13.2705L5.03474 10.6475L2.62751 11.6436Z" fill="#555555"/>
</svg>
