<svg width="24" height="24" viewBox="0 0 24 24" fill="none" xmlns="http://www.w3.org/2000/svg">
<path d="M16.6494 17.4004V15.4502H15.5996C15.1855 15.45 14.8496 15.1143 14.8496 14.7002C14.8496 14.2861 15.1855 13.9503 15.5996 13.9502H20.25V4.7998C20.2499 4.22012 19.7799 3.75019 19.2002 3.75H12.75V9.2998C12.75 9.71391 12.4141 10.0496 12 10.0498H6.59961C6.18545 10.0497 5.84961 9.71398 5.84961 9.2998C5.8498 8.88579 6.18557 8.54987 6.59961 8.5498H11.25V3.75H4.7998C4.22006 3.7501 3.7501 4.22006 3.75 4.7998V13.9502H8.40039L8.47656 13.9541C8.85478 13.9925 9.15038 14.3119 9.15039 14.7002C9.15039 15.0885 8.85478 15.4079 8.47656 15.4463L8.40039 15.4502H3.75V19.2002C3.75019 19.7799 4.22012 20.2499 4.7998 20.25H11.25V14.7002C11.25 14.286 11.5858 13.9502 12 13.9502C12.4141 13.9504 12.75 14.2861 12.75 14.7002V20.25H19.2002C19.7798 20.2498 20.2498 19.7798 20.25 19.2002V15.4502H18.1494V17.4004C18.1493 17.8145 17.8136 18.1504 17.3994 18.1504C16.9854 18.1503 16.6495 17.8144 16.6494 17.4004ZM21.75 19.2002C21.7498 20.6082 20.6082 21.7498 19.2002 21.75H4.7998C3.39169 21.7499 2.25019 20.6083 2.25 19.2002V4.7998C2.2501 3.39163 3.39163 2.2501 4.7998 2.25H19.2002C20.6083 2.25019 21.7499 3.39169 21.75 4.7998V19.2002Z" fill="#555555"/>
</svg>
