<svg width="24" height="24" viewBox="0 0 24 24" fill="none" xmlns="http://www.w3.org/2000/svg">
<path d="M16 9.25C16.414 9.25026 16.75 9.58595 16.75 10C16.75 11.2597 16.249 12.4676 15.3584 13.3584C14.5233 14.1934 13.4093 14.6858 12.2354 14.7441L12 14.75C10.7403 14.75 9.53238 14.249 8.6416 13.3584C7.7508 12.4676 7.25 11.2598 7.25 10C7.25 9.58579 7.58579 9.25 8 9.25C8.41399 9.25026 8.75 9.58595 8.75 10C8.75 10.862 9.09266 11.6884 9.70215 12.2979C10.3116 12.9072 11.1382 13.25 12 13.25L12.1611 13.2461C12.9642 13.2061 13.7266 12.8691 14.2979 12.2979C14.9072 11.6884 15.25 10.8618 15.25 10C15.25 9.58579 15.5858 9.25 16 9.25Z" fill="#555555"/>
<path fill-rule="evenodd" clip-rule="evenodd" d="M18 1.25C18.2359 1.25 18.458 1.36114 18.5996 1.5498L21.5996 5.5498C21.6035 5.55493 21.6057 5.5612 21.6094 5.56641C21.6206 5.58217 21.6306 5.59859 21.6406 5.61523C21.6527 5.63533 21.6637 5.65571 21.6738 5.67676C21.6835 5.69688 21.6923 5.71721 21.7002 5.73828C21.7094 5.76296 21.717 5.78795 21.7236 5.81348C21.7284 5.83193 21.734 5.85017 21.7373 5.86914C21.7386 5.87663 21.7401 5.88407 21.7412 5.8916C21.7463 5.92704 21.75 5.96314 21.75 6V20C21.75 20.7293 21.4601 21.4286 20.9443 21.9443C20.4286 22.4601 19.7293 22.75 19 22.75H5C4.27065 22.75 3.57139 22.4601 3.05566 21.9443C2.53994 21.4286 2.25 20.7293 2.25 20V6C2.25 5.96319 2.25269 5.927 2.25781 5.8916L2.25977 5.87988C2.26056 5.87497 2.2618 5.87013 2.2627 5.86523C2.26455 5.85501 2.26727 5.84503 2.26953 5.83496C2.27842 5.7957 2.28962 5.75705 2.30469 5.71973C2.30797 5.71158 2.31089 5.70331 2.31445 5.69531C2.32925 5.66208 2.34763 5.63052 2.36719 5.59961C2.37388 5.58906 2.3805 5.57854 2.3877 5.56836C2.39201 5.56224 2.39589 5.55581 2.40039 5.5498L5.40039 1.5498L5.45703 1.48242C5.59767 1.33486 5.79362 1.25 6 1.25H18ZM3.75 20C3.75 20.3315 3.88179 20.6494 4.11621 20.8838C4.35063 21.1182 4.66848 21.25 5 21.25H19C19.3315 21.25 19.6494 21.1182 19.8838 20.8838C20.1182 20.6494 20.25 20.3315 20.25 20V6.75H3.75V20ZM4.49902 5.25H19.501L17.625 2.75H6.375L4.49902 5.25Z" fill="#555555"/>
</svg>
