<svg width="24" height="24" viewBox="0 0 24 24" fill="none" xmlns="http://www.w3.org/2000/svg">
<path d="M12 17.25C12.4142 17.25 12.75 17.5858 12.75 18C12.75 18.4142 12.4142 18.75 12 18.75H8C7.58579 18.75 7.25 18.4142 7.25 18C7.25 17.5858 7.58579 17.25 8 17.25H12Z" fill="#555555"/>
<path d="M16 13.25C16.4142 13.25 16.75 13.5858 16.75 14C16.75 14.4142 16.4142 14.75 16 14.75H8C7.58579 14.75 7.25 14.4142 7.25 14C7.25 13.5858 7.58579 13.25 8 13.25H16Z" fill="#555555"/>
<path d="M16 9.25C16.4142 9.25 16.75 9.58579 16.75 10C16.75 10.4142 16.4142 10.75 16 10.75H8C7.58579 10.75 7.25 10.4142 7.25 10C7.25 9.58579 7.58579 9.25 8 9.25H16Z" fill="#555555"/>
<path fill-rule="evenodd" clip-rule="evenodd" d="M15 1.25C15.9663 1.25026 16.75 2.03366 16.75 3V3.25H18.001C18.7301 3.25013 19.4297 3.54005 19.9453 4.05566C20.4609 4.57137 20.751 5.27077 20.751 6V20C20.751 20.7292 20.4609 21.4286 19.9453 21.9443C19.4297 22.4599 18.7301 22.7499 18.001 22.75H6.00098C5.27175 22.75 4.57234 22.4599 4.05664 21.9443C3.54092 21.4286 3.25 20.7293 3.25 20V6C3.25 5.27065 3.54092 4.57139 4.05664 4.05566C4.57234 3.54009 5.27175 3.25 6.00098 3.25H7.25V3C7.25 2.0335 8.0335 1.25 9 1.25H15ZM6.00098 4.75C5.66957 4.75 5.35158 4.88194 5.11719 5.11621C4.88277 5.35063 4.75098 5.66848 4.75098 6V20C4.75098 20.3315 4.88277 20.6494 5.11719 20.8838C5.35158 21.1181 5.66957 21.25 6.00098 21.25H18.001C18.3323 21.2499 18.6505 21.1181 18.8848 20.8838C19.119 20.6494 19.251 20.3314 19.251 20V6C19.251 5.66859 19.119 5.35061 18.8848 5.11621C18.6505 4.88191 18.3323 4.75013 18.001 4.75H16.75V5C16.75 5.96634 15.9663 6.74974 15 6.75H9C8.0335 6.75 7.25 5.9665 7.25 5V4.75H6.00098ZM9 2.75C8.86193 2.75 8.75 2.86193 8.75 3V3.98047C8.75017 3.98696 8.75098 3.99347 8.75098 4C8.75098 4.0062 8.75015 4.01239 8.75 4.01855V5C8.75 5.13807 8.86193 5.25 9 5.25H15C15.1378 5.24974 15.25 5.13791 15.25 5V3C15.25 2.86209 15.1378 2.75026 15 2.75H9Z" fill="#555555"/>
</svg>
