<svg width="24" height="24" viewBox="0 0 24 24" fill="none" xmlns="http://www.w3.org/2000/svg">
<g clip-path="url(#clip0_13882_80396)">
<path d="M4.74374 -0.00732204C4.78279 -0.00773335 4.82184 -0.00814467 4.86208 -0.00856845C4.90474 -0.00878363 4.9474 -0.00899881 4.99135 -0.0092205C5.03686 -0.00962436 5.08238 -0.0100282 5.12927 -0.0104443C5.28219 -0.0117317 5.43512 -0.0126792 5.58805 -0.0136179C5.69754 -0.0144486 5.80703 -0.0152924 5.91651 -0.0161485C6.91621 -0.0236028 7.91593 -0.0275655 8.91565 -0.0306794C9.04944 -0.0311036 9.18323 -0.0315353 9.31701 -0.0319742C9.35026 -0.032083 9.38351 -0.0321917 9.41777 -0.0323038C9.95589 -0.0341196 10.494 -0.0378937 11.0321 -0.0424334C11.5851 -0.04706 12.1381 -0.0497202 12.6911 -0.0505347C13.0014 -0.0510447 13.3116 -0.0524919 13.6219 -0.0560637C13.914 -0.0593905 14.206 -0.0602657 14.4982 -0.0592925C14.6051 -0.0593593 14.7121 -0.0603033 14.819 -0.06221C15.7099 -0.0772731 15.7099 -0.0772731 16.0008 0.164463C16.1139 0.274929 16.2125 0.393208 16.3129 0.515511C16.3918 0.594154 16.4716 0.671972 16.5522 0.748873C16.6322 0.828618 16.7121 0.908486 16.7919 0.988461C16.8366 1.03304 16.8812 1.07761 16.9259 1.12217C17.0452 1.24126 17.1643 1.36049 17.2834 1.47976C17.4089 1.6053 17.5344 1.73073 17.6599 1.85617C17.8701 2.06628 18.0802 2.27648 18.2902 2.48674C18.5328 2.72954 18.7755 2.97217 19.0183 3.21471C19.2277 3.42388 19.437 3.63313 19.6462 3.84246C19.7707 3.96711 19.8953 4.09172 20.02 4.21626C20.1586 4.35467 20.297 4.49327 20.4353 4.63189C20.4765 4.67293 20.5176 4.71396 20.56 4.75623C20.5976 4.794 20.6353 4.83178 20.674 4.87069C20.723 4.91972 20.723 4.91972 20.773 4.96974C20.9553 5.1644 21.018 5.26641 21.0182 5.54018C21.0186 5.60017 21.019 5.66015 21.0194 5.72194C21.0192 5.78865 21.0189 5.85536 21.0186 5.92206C21.0188 5.99282 21.019 6.06357 21.0193 6.13432C21.02 6.32905 21.0198 6.52377 21.0195 6.71849C21.0192 6.9284 21.0198 7.13831 21.0203 7.34822C21.0211 7.75964 21.0212 8.17105 21.0209 8.58247C21.0207 8.91695 21.0208 9.25144 21.021 9.58592C21.0211 9.63349 21.0211 9.68106 21.0212 9.73007C21.0212 9.82671 21.0213 9.92334 21.0214 10.02C21.022 10.9269 21.0218 11.8339 21.0212 12.7408C21.0208 13.5703 21.0214 14.3997 21.0225 15.2291C21.0236 16.0807 21.0241 16.9323 21.0238 17.7839C21.0236 18.262 21.0237 18.7402 21.0245 19.2183C21.0252 19.6255 21.0252 20.0327 21.0244 20.4399C21.024 20.6476 21.0239 20.8553 21.0246 21.063C21.0253 21.2533 21.0251 21.4437 21.0242 21.634C21.024 21.7027 21.0241 21.7713 21.0246 21.84C21.0285 22.4328 20.928 22.8926 20.5317 23.3436C20.5081 23.372 20.4846 23.4004 20.4604 23.4297C20.2027 23.7169 19.833 23.9236 19.4535 23.9999C19.3688 24.0042 19.2839 24.006 19.1991 24.0062C19.1471 24.0064 19.0951 24.0066 19.0416 24.0068C18.9845 24.0068 18.9274 24.0068 18.8685 24.0068C18.8079 24.007 18.7472 24.0071 18.6847 24.0073C18.5162 24.0078 18.3476 24.008 18.1791 24.0081C17.9974 24.0083 17.8157 24.0087 17.6339 24.0091C17.195 24.01 16.756 24.0105 16.3171 24.0109C16.1103 24.0111 15.9035 24.0114 15.6967 24.0116C15.0092 24.0124 14.3217 24.0131 13.6342 24.0135C13.4558 24.0135 13.2775 24.0136 13.0991 24.0137C13.0326 24.0138 13.0326 24.0138 12.9647 24.0138C12.2467 24.0142 11.5287 24.0154 10.8106 24.0169C10.0732 24.0184 9.33583 24.0193 8.59844 24.0194C8.1845 24.0195 7.77057 24.0199 7.35664 24.0211C7.00407 24.0222 6.6515 24.0225 6.29892 24.0221C6.11914 24.0219 5.93937 24.022 5.75959 24.0229C5.56436 24.0238 5.36916 24.0234 5.17392 24.0228C5.08937 24.0235 5.08937 24.0235 5.0031 24.0243C4.47367 24.0203 4.05555 23.8817 3.65665 23.5311C3.62825 23.5076 3.59985 23.4841 3.57059 23.4599C3.28526 23.2039 3.07238 22.8316 3.0004 22.453C2.99591 22.3365 2.99386 22.2214 2.99411 22.1049C2.994 22.0695 2.99389 22.0342 2.99378 21.9977C2.99346 21.8786 2.99348 21.7594 2.9935 21.6403C2.99335 21.5542 2.99317 21.4682 2.99298 21.3822C2.99251 21.1452 2.99234 20.9083 2.99221 20.6713C2.99203 20.416 2.99158 20.1606 2.99117 19.9053C2.99024 19.2884 2.98977 18.6714 2.98936 18.0545C2.98915 17.764 2.9889 17.4736 2.98865 17.1831C2.98785 16.2177 2.98718 15.2523 2.98684 14.2868C2.98675 14.0362 2.98666 13.7857 2.98656 13.5351C2.98655 13.5039 2.98654 13.4728 2.98653 13.4407C2.98616 12.4316 2.98506 11.4225 2.98354 10.4133C2.98193 9.34627 2.98101 8.27919 2.98085 7.21212C2.98075 6.63051 2.98034 6.04891 2.97914 5.4673C2.97813 4.97199 2.97775 4.4767 2.9782 3.98139C2.97842 3.7287 2.97833 3.47602 2.97742 3.22333C2.97659 2.99186 2.97664 2.7604 2.97737 2.52893C2.97748 2.44534 2.97728 2.36174 2.97672 2.27814C2.97279 1.64837 3.04028 1.1442 3.46915 0.656136C3.49266 0.627736 3.51616 0.599337 3.54038 0.570077C3.83922 0.23706 4.2913 -0.00380389 4.74374 -0.00732204ZM4.24845 1.37977C4.22682 1.40581 4.20518 1.43186 4.1829 1.45869C4.03922 1.67878 4.01987 1.86757 4.01959 2.12811C4.01943 2.16277 4.01926 2.19744 4.01909 2.23315C4.01866 2.34967 4.01889 2.46617 4.01912 2.58268C4.01894 2.66692 4.01872 2.75116 4.01847 2.83539C4.0179 3.06716 4.01791 3.29892 4.01802 3.53069C4.01804 3.78054 4.01752 4.03038 4.01708 4.28023C4.0163 4.76983 4.01604 5.25943 4.01599 5.74904C4.01595 6.14694 4.01575 6.54484 4.01546 6.94274C4.01463 8.07042 4.0142 9.19809 4.01427 10.3258C4.01427 10.3866 4.01427 10.4474 4.01428 10.5101C4.01428 10.5709 4.01429 10.6318 4.01429 10.6946C4.01433 11.6816 4.01343 12.6686 4.01211 13.6555C4.01076 14.6685 4.01012 15.6815 4.0102 16.6945C4.01023 17.2634 4.00997 17.8323 4.00896 18.4012C4.00811 18.8856 4.0079 19.3699 4.00854 19.8542C4.00885 20.1014 4.00885 20.3486 4.00804 20.5957C4.0073 20.822 4.00743 21.0482 4.00825 21.2745C4.0084 21.3563 4.00822 21.4382 4.0077 21.5201C3.99928 22.149 3.99928 22.149 4.301 22.6885C4.32716 22.7094 4.35333 22.7303 4.38028 22.7518C4.40633 22.7735 4.43237 22.7951 4.4592 22.8174C4.64646 22.9396 4.81283 22.9804 5.03492 22.9807C5.11071 22.9811 5.11071 22.9811 5.18803 22.9816C5.24327 22.9815 5.2985 22.9813 5.35542 22.9812C5.41431 22.9814 5.4732 22.9816 5.53388 22.9818C5.69723 22.9824 5.86059 22.9824 6.02395 22.9823C6.20017 22.9822 6.3764 22.9828 6.55262 22.9832C6.89785 22.984 7.24307 22.9842 7.58829 22.9843C7.86891 22.9843 8.14954 22.9845 8.43016 22.9848C9.22582 22.9857 10.0215 22.9861 10.8171 22.986C10.8815 22.986 10.8815 22.986 10.9471 22.986C11.0115 22.986 11.0115 22.986 11.0772 22.986C11.7732 22.986 12.4692 22.9869 13.1652 22.9882C13.8799 22.9895 14.5946 22.9902 15.3092 22.9901C15.7105 22.9901 16.1117 22.9903 16.5129 22.9913C16.8545 22.9922 17.1961 22.9924 17.5377 22.9917C17.712 22.9914 17.8862 22.9914 18.0605 22.9922C18.2495 22.9931 18.4385 22.9925 18.6275 22.9918C18.7099 22.9925 18.7099 22.9925 18.794 22.9933C19.1541 22.9902 19.4085 22.9413 19.689 22.6993C19.7099 22.6731 19.7308 22.647 19.7524 22.62C19.774 22.594 19.7956 22.5679 19.8179 22.5411C19.9472 22.3431 19.9809 22.1711 19.9807 21.9365C19.9809 21.8795 19.9811 21.8226 19.9813 21.7639C19.981 21.7008 19.9807 21.6378 19.9804 21.5747C19.9805 21.5076 19.9805 21.4405 19.9807 21.3734C19.9809 21.189 19.9805 21.0046 19.98 20.8203C19.9796 20.6214 19.9798 20.4226 19.9798 20.2237C19.9799 19.8792 19.9796 19.5347 19.9791 19.1902C19.9783 18.6921 19.9781 18.194 19.9779 17.6959C19.9777 16.8878 19.9771 16.0797 19.9762 15.2716C19.9754 14.4865 19.9747 13.7015 19.9743 12.9164C19.9743 12.868 19.9743 12.8196 19.9742 12.7698C19.9741 12.5271 19.974 12.2843 19.9739 12.0416C19.9729 10.0277 19.9712 8.0138 19.9692 5.99989C19.9274 5.99972 19.8857 5.99954 19.8427 5.99937C19.4476 5.99759 19.0525 5.99491 18.6574 5.99127C18.4543 5.98942 18.2512 5.98791 18.0482 5.98718C17.8518 5.98647 17.6555 5.98485 17.4591 5.98262C17.3846 5.98193 17.3101 5.98156 17.2355 5.98152C16.5715 5.98081 16.0582 5.87319 15.5689 5.3993C15.2178 5.02471 15.0438 4.62746 15.0377 4.11761C15.0372 4.0842 15.0367 4.0508 15.0362 4.01639C15.0348 3.90631 15.0336 3.79624 15.0324 3.68617C15.0315 3.60971 15.0305 3.53326 15.0295 3.45681C15.0269 3.25584 15.0246 3.05486 15.0223 2.85389C15.02 2.64871 15.0174 2.44353 15.0148 2.23835C15.0097 1.83595 15.005 1.43354 15.0004 1.03114C13.6745 1.02676 12.3486 1.02345 11.0228 1.02142C10.4071 1.02045 9.79149 1.01914 9.17586 1.01699C8.63928 1.01512 8.1027 1.01391 7.56611 1.01349C7.282 1.01325 6.99789 1.01268 6.71377 1.01131C6.4463 1.01004 6.17883 1.00965 5.91136 1.00993C5.81325 1.00988 5.71514 1.0095 5.61703 1.00879C5.4829 1.00785 5.34882 1.00808 5.21469 1.00859C5.15669 1.00777 5.15669 1.00777 5.09751 1.00693C4.76633 1.01034 4.46143 1.11324 4.24845 1.37977ZM16.0317 1.82801C16.0269 2.1616 16.0236 2.49518 16.0214 2.8288C16.0204 2.94219 16.0191 3.05558 16.0175 3.16896C16.0152 3.33234 16.0142 3.49568 16.0133 3.65907C16.0124 3.70942 16.0114 3.75978 16.0104 3.81166C16.0103 4.16477 16.0638 4.41359 16.301 4.68848C16.3402 4.71985 16.3402 4.71985 16.3803 4.75184C16.4063 4.77347 16.4324 4.7951 16.4592 4.81739C16.6441 4.93806 16.8083 4.98037 17.0277 4.97928C17.0995 4.97927 17.0995 4.97927 17.1727 4.97926C17.2238 4.97877 17.2749 4.97829 17.3275 4.97779C17.3802 4.97766 17.433 4.97753 17.4873 4.97739C17.6554 4.97687 17.8235 4.97569 17.9916 4.9745C18.1057 4.97403 18.2198 4.9736 18.3339 4.97321C18.6134 4.97218 18.8928 4.97057 19.1723 4.96864C18.9906 4.75142 18.8022 4.54491 18.6017 4.34508C18.5743 4.3176 18.5469 4.29012 18.5186 4.26181C18.4292 4.17217 18.3396 4.08269 18.25 3.99323C18.1874 3.93065 18.1249 3.86806 18.0623 3.80547C17.9319 3.67495 17.8014 3.54451 17.6708 3.41413C17.503 3.24662 17.3354 3.0789 17.1679 2.91112C17.0391 2.78216 16.9102 2.65331 16.7813 2.5245C16.7194 2.46265 16.6576 2.40076 16.5957 2.33885C16.5098 2.25278 16.4237 2.16686 16.3376 2.08098C16.3119 2.0552 16.2862 2.02942 16.2597 2.00285C16.1621 1.88225 16.1621 1.88225 16.0317 1.82801Z" fill="#555555"/>
<path d="M8.29632 16.1719C8.65293 16.3694 8.87114 16.6776 8.99945 17.0626C9.07105 18.0415 8.72563 18.8415 8.10882 19.5938C8.17194 19.7456 8.22681 19.8112 8.37249 19.8868C8.4247 19.9138 8.47691 19.9409 8.5307 19.9688C8.54364 19.9352 8.55659 19.9015 8.56993 19.8669C8.66342 19.6398 8.78058 19.4247 8.89398 19.2071C8.93005 19.1368 8.93005 19.1368 8.96685 19.0652C9.42107 18.1921 9.42107 18.1921 9.74945 18.0001C10.0015 17.9545 10.1964 17.9632 10.4233 18.085C10.8282 18.5073 10.9428 19.2375 11.1088 19.7813C11.3132 19.7813 11.4115 19.656 11.5571 19.5264C11.6011 19.4879 11.6011 19.4879 11.6461 19.4485C11.733 19.3723 11.8194 19.2957 11.9057 19.2188C11.9689 19.1628 11.9689 19.1628 12.0333 19.1056C12.2206 18.9382 12.4057 18.7684 12.5905 18.5982C12.6394 18.5534 12.6884 18.5086 12.7375 18.4641C12.8373 18.3736 12.9354 18.2829 13.029 18.1861C13.1813 18.0342 13.2877 17.9806 13.5053 17.9678C13.685 17.9785 13.7288 17.9962 13.8774 18.1114C13.9999 18.2774 14.0405 18.3895 14.0367 18.5999C13.9932 18.8077 13.8342 18.9346 13.6869 19.0782C13.631 19.1357 13.631 19.1357 13.574 19.1945C13.3736 19.3992 13.1692 19.5972 12.951 19.783C12.866 19.8556 12.7822 19.9293 12.6987 20.0038C12.4142 20.2557 12.1253 20.4902 11.809 20.7012C11.78 20.7206 11.751 20.74 11.7211 20.76C11.3884 20.9763 11.1288 21.0449 10.7338 21.0001C10.4011 20.8557 10.2322 20.5443 10.1032 20.2189C10.061 20.1024 10.0218 19.9855 9.98291 19.8677C9.94996 19.7406 9.94996 19.7406 9.89007 19.6876C9.87019 19.7266 9.85031 19.7657 9.82983 19.806C9.3134 20.7969 9.3134 20.7969 8.81195 21.0001C8.36421 21.0845 8.01595 20.9598 7.64007 20.7188C7.56098 20.6575 7.48256 20.5954 7.4057 20.5313C7.25352 20.6004 7.13166 20.6877 7.0014 20.792C6.78308 20.9665 6.6655 21.016 6.38671 21.0138C6.23128 20.9937 6.1518 20.9246 6.04632 20.8126C5.96291 20.6457 5.96389 20.4782 5.99945 20.2969C6.1413 20.0688 6.34592 19.8915 6.56195 19.7344C6.52444 19.5088 6.39445 19.3179 6.28344 19.1217C6.07853 18.7495 5.9734 18.4089 5.97894 17.9825C5.97933 17.9435 5.97972 17.9045 5.98012 17.8644C5.99548 17.3037 6.22453 16.8139 6.60644 16.4014C7.12727 15.9215 7.65473 15.8599 8.29632 16.1719ZM7.49945 17.0157C7.21743 17.3062 7.03339 17.5581 7.01019 17.9708C7.02018 18.2736 7.14597 18.548 7.31195 18.7969C7.34288 18.7969 7.37382 18.7969 7.4057 18.7969C7.48006 18.6898 7.54772 18.5839 7.6137 18.4717C7.63273 18.4395 7.65176 18.4073 7.67137 18.3741C7.87177 18.0276 8.02252 17.7044 7.9682 17.2969C7.82733 17.1078 7.72697 17.052 7.49945 17.0157Z" fill="#555555"/>
<path d="M6.56684 7.96265C6.60617 7.96247 6.64549 7.96229 6.68601 7.9621C6.75081 7.96216 6.75081 7.96216 6.81693 7.96223C6.86282 7.96209 6.90872 7.96195 6.956 7.9618C7.11049 7.9614 7.26497 7.96133 7.41946 7.96126C7.52994 7.96104 7.64041 7.9608 7.75089 7.96055C8.08287 7.95987 8.41485 7.95959 8.74683 7.95936C8.90314 7.95924 9.05945 7.95906 9.21576 7.95889C9.7353 7.95832 10.2548 7.95783 10.7744 7.95767C10.8076 7.95766 10.8409 7.95765 10.8751 7.95764C10.9085 7.95763 10.9418 7.95762 10.9761 7.95761C11.0437 7.95759 11.1112 7.95757 11.1788 7.95755C11.2123 7.95754 11.2458 7.95753 11.2803 7.95752C11.8233 7.95733 12.3663 7.95651 12.9093 7.95542C13.4667 7.95431 14.0241 7.95373 14.5815 7.95367C14.8946 7.95363 15.2076 7.95334 15.5206 7.95251C15.8149 7.95174 16.1092 7.95163 16.4035 7.95205C16.5117 7.95208 16.6198 7.95188 16.728 7.95142C16.8754 7.95082 17.0228 7.95109 17.1702 7.95158C17.2132 7.95121 17.2562 7.95083 17.3005 7.95044C17.5268 7.95221 17.6736 7.96501 17.8589 8.10944C17.8865 8.13083 17.9141 8.15222 17.9426 8.17425C18.0423 8.30709 18.021 8.44384 18.0165 8.604C17.9929 8.76355 17.9298 8.84577 17.812 8.95319C17.7054 9.00648 17.6471 9.00606 17.5287 9.00635C17.4689 9.00667 17.4689 9.00667 17.4079 9.00698C17.3638 9.00698 17.3197 9.00697 17.2743 9.00696C17.2277 9.00713 17.1811 9.0073 17.1331 9.00748C16.9758 9.008 16.8186 9.00818 16.6614 9.00836C16.5491 9.00865 16.4368 9.00896 16.3244 9.00929C15.9867 9.01019 15.6489 9.01069 15.3111 9.01111C15.1521 9.01131 14.9931 9.01156 14.8342 9.01181C14.3057 9.01261 13.7773 9.01329 13.2489 9.01362C13.1117 9.01371 12.9746 9.0138 12.8374 9.0139C12.8033 9.01392 12.7692 9.01394 12.7341 9.01396C12.1817 9.01435 11.6293 9.01554 11.0769 9.01706C10.5099 9.01861 9.94299 9.01946 9.37605 9.01961C9.05765 9.01971 8.73925 9.02012 8.42084 9.02132C8.1214 9.02244 7.82196 9.02261 7.52251 9.02213C7.41248 9.0221 7.30244 9.0224 7.19241 9.02304C7.04243 9.02387 6.8925 9.02354 6.74252 9.02292C6.69876 9.02344 6.655 9.02395 6.60992 9.02448C6.4126 9.02251 6.30841 9.01732 6.13763 8.91074C5.97702 8.73794 5.98118 8.59526 5.98284 8.36652C5.9995 8.25006 5.9995 8.25006 6.1079 8.10651C6.26522 7.99309 6.37775 7.96297 6.56684 7.96265Z" fill="#555555"/>
<path d="M6.56684 10.9626C6.60617 10.9625 6.64549 10.9623 6.68601 10.9621C6.75081 10.9622 6.75081 10.9622 6.81693 10.9622C6.86282 10.9621 6.90872 10.9619 6.956 10.9618C7.11049 10.9614 7.26497 10.9613 7.41946 10.9613C7.52994 10.961 7.64041 10.9608 7.75089 10.9606C8.08287 10.9599 8.41485 10.9596 8.74683 10.9594C8.90314 10.9592 9.05945 10.9591 9.21576 10.9589C9.7353 10.9583 10.2548 10.9578 10.7744 10.9577C10.8076 10.9577 10.8409 10.9577 10.8751 10.9576C10.9085 10.9576 10.9418 10.9576 10.9761 10.9576C11.0437 10.9576 11.1112 10.9576 11.1788 10.9575C11.2123 10.9575 11.2458 10.9575 11.2803 10.9575C11.8233 10.9573 12.3663 10.9565 12.9093 10.9554C13.4667 10.9543 14.0241 10.9537 14.5815 10.9537C14.8946 10.9536 15.2076 10.9533 15.5206 10.9525C15.8149 10.9517 16.1092 10.9516 16.4035 10.952C16.5117 10.9521 16.6198 10.9519 16.728 10.9514C16.8754 10.9508 17.0228 10.9511 17.1702 10.9516C17.2132 10.9512 17.2562 10.9508 17.3005 10.9504C17.5268 10.9522 17.6736 10.965 17.8589 11.1094C17.8865 11.1308 17.9141 11.1522 17.9426 11.1743C18.0423 11.3071 18.021 11.4438 18.0165 11.604C17.9929 11.7636 17.9298 11.8458 17.812 11.9532C17.7054 12.0065 17.6471 12.0061 17.5287 12.0064C17.4689 12.0067 17.4689 12.0067 17.4079 12.007C17.3638 12.007 17.3197 12.007 17.2743 12.007C17.2277 12.0071 17.1811 12.0073 17.1331 12.0075C16.9758 12.008 16.8186 12.0082 16.6614 12.0084C16.5491 12.0087 16.4368 12.009 16.3244 12.0093C15.9867 12.0102 15.6489 12.0107 15.3111 12.0111C15.1521 12.0113 14.9931 12.0116 14.8342 12.0118C14.3057 12.0126 13.7773 12.0133 13.2489 12.0136C13.1117 12.0137 12.9746 12.0138 12.8374 12.0139C12.8033 12.0139 12.7692 12.0139 12.7341 12.014C12.1817 12.0144 11.6293 12.0155 11.0769 12.0171C10.5099 12.0186 9.94299 12.0195 9.37605 12.0196C9.05765 12.0197 8.73925 12.0201 8.42084 12.0213C8.1214 12.0224 7.82196 12.0226 7.52251 12.0221C7.41248 12.0221 7.30244 12.0224 7.19241 12.023C7.04243 12.0239 6.8925 12.0235 6.74252 12.0229C6.69876 12.0234 6.655 12.024 6.60992 12.0245C6.4126 12.0225 6.30841 12.0173 6.13763 11.9107C5.97702 11.7379 5.98118 11.5953 5.98284 11.3665C5.9995 11.2501 5.9995 11.2501 6.1079 11.1065C6.26522 10.9931 6.37775 10.963 6.56684 10.9626Z" fill="#555555"/>
<path d="M10.6556 13.9565C10.7166 13.9561 10.7777 13.9558 10.8406 13.9554C10.9082 13.9556 10.9757 13.9557 11.0433 13.9558C11.1145 13.9556 11.1858 13.9554 11.257 13.9551C11.4504 13.9544 11.6438 13.9544 11.8372 13.9545C11.9987 13.9546 12.1601 13.9544 12.3216 13.9541C12.7025 13.9536 13.0834 13.9536 13.4643 13.9539C13.8572 13.9542 14.2502 13.9536 14.6431 13.9526C14.9805 13.9518 15.3179 13.9515 15.6553 13.9516C15.8568 13.9517 16.0583 13.9516 16.2598 13.9509C16.4493 13.9503 16.6388 13.9504 16.8283 13.9511C16.8978 13.9512 16.9673 13.951 17.0368 13.9506C17.1318 13.9502 17.2267 13.9506 17.3217 13.9511C17.3748 13.9511 17.4279 13.9511 17.4826 13.9511C17.6752 13.975 17.792 14.0576 17.9425 14.1741C18.0423 14.307 18.0209 14.4437 18.0164 14.6039C17.9928 14.7634 17.9297 14.8456 17.8119 14.953C17.6807 15.0186 17.5723 15.0064 17.4255 15.0071C17.3952 15.0073 17.3648 15.0075 17.3335 15.0078C17.2314 15.0084 17.1292 15.0087 17.0271 15.009C16.954 15.0093 16.8809 15.0097 16.8079 15.0101C16.5675 15.0114 16.3272 15.0121 16.0869 15.0127C16.0042 15.013 15.9215 15.0132 15.8388 15.0135C15.495 15.0145 15.1512 15.0154 14.8073 15.0159C14.3142 15.0167 13.8211 15.0182 13.328 15.0209C12.9815 15.0227 12.635 15.0236 12.2884 15.0239C12.0813 15.0241 11.8743 15.0246 11.6672 15.0261C11.4724 15.0275 11.2777 15.0278 11.0829 15.0273C11.0114 15.0273 10.9399 15.0277 10.8684 15.0285C10.7707 15.0296 10.6732 15.0292 10.5755 15.0284C10.4936 15.0287 10.4936 15.0287 10.41 15.0289C10.2213 14.9912 10.1518 14.9114 10.0307 14.7655C9.95552 14.6153 9.96094 14.4599 9.98379 14.2968C10.1572 14.0119 10.3332 13.957 10.6556 13.9565Z" fill="#555555"/>
<path d="M6.62933 4.9619C6.68197 4.96156 6.73461 4.96123 6.78884 4.96088C6.84663 4.96075 6.90442 4.96063 6.96395 4.9605C7.02479 4.96019 7.08562 4.95988 7.1483 4.95957C7.35011 4.95858 7.55191 4.95809 7.75372 4.95763C7.82324 4.95744 7.89275 4.95724 7.96226 4.95705C8.28883 4.95615 8.6154 4.95549 8.94197 4.9551C9.31878 4.95464 9.69559 4.9534 10.0724 4.95151C10.3638 4.9501 10.6551 4.9494 10.9465 4.94925C11.1205 4.94914 11.2944 4.94872 11.4684 4.94754C11.6625 4.94624 11.8567 4.94644 12.0508 4.94677C12.1371 4.94587 12.1371 4.94587 12.2251 4.94495C12.5223 4.94677 12.7149 4.95089 12.9384 5.1563C13.0324 5.29078 13.0446 5.39006 13.0292 5.5518C13.0267 5.58655 13.0242 5.62129 13.0217 5.65709C12.9677 5.81803 12.8974 5.91689 12.7509 6.00005C12.5457 6.03596 12.342 6.03155 12.1342 6.02963C12.0708 6.02987 12.0074 6.03021 11.944 6.03065C11.7722 6.03151 11.6004 6.03091 11.4286 6.02998C11.2486 6.02922 11.0687 6.02963 10.8888 6.02987C10.5866 6.03008 10.2845 6.02934 9.9823 6.02803C9.63314 6.02652 9.284 6.02653 8.93483 6.02733C8.59872 6.02808 8.26262 6.02776 7.92652 6.02696C7.78358 6.02664 7.64065 6.02669 7.49771 6.02703C7.32933 6.02739 7.16098 6.02682 6.99261 6.02554C6.90147 6.02507 6.81032 6.02551 6.71918 6.02598C6.66476 6.02538 6.61035 6.02479 6.55429 6.02417C6.50711 6.02404 6.45993 6.02391 6.41131 6.02377C6.2469 5.99358 6.16762 5.92662 6.04773 5.81255C5.96061 5.63831 5.97371 5.43976 6.00085 5.25005C6.18318 5.00858 6.33745 4.96317 6.62933 4.9619Z" fill="#555555"/>
</g>
<defs>
<clipPath id="clip0_13882_80396">
<rect width="24" height="24" fill="white"/>
</clipPath>
</defs>
</svg>
