<svg width="24" height="24" viewBox="0 0 24 24" fill="none" xmlns="http://www.w3.org/2000/svg">
<path d="M16 4.00012H18C18.5304 4.00012 19.0391 4.21084 19.4142 4.58591C19.7893 4.96098 20 5.46969 20 6.00012V20.0001C20 20.5306 19.7893 21.0393 19.4142 21.4143C19.0391 21.7894 18.5304 22.0001 18 22.0001H6C5.46957 22.0001 4.96086 21.7894 4.58579 21.4143C4.21071 21.0393 4 20.5306 4 20.0001V6.00012C4 5.46969 4.21071 4.96098 4.58579 4.58591C4.96086 4.21084 5.46957 4.00012 6 4.00012H8" fill="#555555"/>
<path d="M8 10H16M8 14L16 14M8 18L12 18" stroke="white" stroke-width="1.5" stroke-linecap="round" stroke-linejoin="round"/>
<path d="M15 1.99988H9C8.44772 1.99988 8 2.44759 8 2.99988V4.99988C8 5.55216 8.44772 5.99988 9 5.99988H15C15.5523 5.99988 16 5.55216 16 4.99988V2.99988C16 2.44759 15.5523 1.99988 15 1.99988Z" stroke="#555555" stroke-width="1.5" stroke-linecap="round" stroke-linejoin="round"/>
</svg>
