<svg width="24" height="24" viewBox="0 0 24 24" fill="none" xmlns="http://www.w3.org/2000/svg">
<path d="M15.0205 8.77148C14.8799 8.91199 14.689 8.9912 14.4902 8.99121C14.2914 8.99121 14.1006 8.91197 13.96 8.77148L14.4902 8.24023L15.0205 8.77148Z" fill="#555555"/>
<path fill-rule="evenodd" clip-rule="evenodd" d="M15.8271 6.84277C16.467 6.8428 17.0807 7.09738 17.5332 7.5498L17.6934 7.72656C18.0452 8.15589 18.2401 8.69593 18.2402 9.25586C18.2402 9.81581 18.0451 10.3558 17.6934 10.7852L17.5332 10.9619L15.9395 12.5557C15.555 12.9401 15.0339 13.1562 14.4902 13.1562C14.0147 13.1562 13.5561 12.9911 13.1914 12.6924L13.041 12.5557L11.4473 10.9619C10.9949 10.5094 10.7402 9.89575 10.7402 9.25586C10.7404 8.61601 10.9948 8.00225 11.4473 7.5498L11.6299 7.38379C12.4542 6.71145 13.6195 6.66636 14.4902 7.24707C14.8834 6.98552 15.348 6.84277 15.8271 6.84277ZM13.96 8.77148L13.7988 8.61035C13.4645 8.27631 12.9357 8.2555 12.5771 8.54785L12.5078 8.61035C12.3367 8.7815 12.2404 9.01384 12.2402 9.25586C12.2402 9.49792 12.3367 9.73014 12.5078 9.90137L14.1016 11.4951L14.1855 11.5635C14.2752 11.6232 14.3809 11.6562 14.4902 11.6562C14.6361 11.6562 14.7758 11.5982 14.8789 11.4951L16.4727 9.90137L16.5332 9.83496C16.6664 9.67246 16.7402 9.4678 16.7402 9.25586C16.7401 9.04419 16.6662 8.84008 16.5332 8.67773L16.4727 8.61035C16.3014 8.43923 16.0692 8.3428 15.8271 8.34277C15.6152 8.34277 15.4106 8.41661 15.248 8.5498L15.1816 8.61035L15.0205 8.77148L14.4902 8.24023L13.96 8.77148Z" fill="#555555"/>
<path fill-rule="evenodd" clip-rule="evenodd" d="M18 2.25C20.0711 2.25 21.75 3.92893 21.75 6V15C21.75 17.0711 20.0711 18.75 18 18.75H12.7705L9.37891 21.4629C8.98686 21.7765 8.44955 21.8376 7.99707 21.6201C7.60129 21.4298 7.33183 21.0557 7.27051 20.6289L7.25684 20.4434V18.75H6C3.92893 18.75 2.25 17.0711 2.25 15V6C2.25 3.92893 3.92893 2.25 6 2.25H18ZM6 3.75C4.75736 3.75 3.75 4.75736 3.75 6V15C3.75 16.2426 4.75736 17.25 6 17.25H8.00684C8.42105 17.25 8.75684 17.5858 8.75684 18V20.0391L12.0381 17.4141L12.1436 17.3438C12.2541 17.2825 12.3791 17.25 12.5068 17.25H18C19.2426 17.25 20.25 16.2426 20.25 15V6C20.25 4.75736 19.2426 3.75 18 3.75H6Z" fill="#555555"/>
</svg>
