<svg width="24" height="24" viewBox="0 0 24 24" fill="none" xmlns="http://www.w3.org/2000/svg">
<g clip-path="url(#clip0_7885_63745)">
<path d="M18 19.5C18.8284 19.5 19.5 18.8284 19.5 18C19.5 17.1716 18.8284 16.5 18 16.5C17.1716 16.5 16.5 17.1716 16.5 18C16.5 18.8284 17.1716 19.5 18 19.5Z" stroke="#555555" stroke-width="1.5" stroke-miterlimit="10" stroke-linecap="round" stroke-linejoin="round"/>
<path d="M6 19.5C6.82843 19.5 7.5 18.8284 7.5 18C7.5 17.1716 6.82843 16.5 6 16.5C5.17157 16.5 4.5 17.1716 4.5 18C4.5 18.8284 5.17157 19.5 6 19.5Z" stroke="#555555" stroke-width="1.5" stroke-miterlimit="10" stroke-linecap="round" stroke-linejoin="round"/>
<path d="M14.25 18V9.75H18.75L21.75 13.5V18H19.5" stroke="#555555" stroke-width="1.5" stroke-miterlimit="10" stroke-linecap="round" stroke-linejoin="round"/>
<path d="M6.75 11.25C9.23528 11.25 11.25 9.23528 11.25 6.75C11.25 4.26472 9.23528 2.25 6.75 2.25C4.26472 2.25 2.25 4.26472 2.25 6.75C2.25 9.23528 4.26472 11.25 6.75 11.25Z" stroke="#555555" stroke-width="1.5" stroke-miterlimit="10" stroke-linecap="round" stroke-linejoin="round"/>
<path d="M6.75 4.5V6.75L8.25 6" stroke="#555555" stroke-width="1.5" stroke-miterlimit="10" stroke-linecap="round" stroke-linejoin="round"/>
<path d="M2.25 6.75V18H4.5" stroke="#555555" stroke-width="1.5" stroke-miterlimit="10" stroke-linecap="round" stroke-linejoin="round"/>
<path d="M7.5 18H14.25V6.75H11.25" stroke="#555555" stroke-width="1.5" stroke-miterlimit="10" stroke-linecap="round" stroke-linejoin="round"/>
</g>
<defs>
<clipPath id="clip0_7885_63745">
<rect width="24" height="24" fill="white"/>
</clipPath>
</defs>
</svg>
