<svg width="24" height="24" viewBox="0 0 24 24" fill="none" xmlns="http://www.w3.org/2000/svg">
<path d="M4.25 3.5C4.25 3.2546 4.2436 2.97966 4.25391 2.76367C4.26419 2.54825 4.29289 2.25948 4.43164 1.99121C4.59319 1.67896 4.85656 1.47932 5.16797 1.37109C5.44409 1.27519 5.75907 1.25 6.0791 1.25H18.8682C20.4139 1.25 21.75 2.43692 21.75 4V20C21.75 21.5631 20.4139 22.75 18.8682 22.75H6.0791C5.75907 22.75 5.44409 22.7248 5.16797 22.6289C4.85656 22.5207 4.59319 22.321 4.43164 22.0088C4.29289 21.7405 4.26419 21.4517 4.25391 21.2363C4.2436 21.0203 4.25 20.7454 4.25 20.5V17.2959H3C2.58579 17.2959 2.25 16.9601 2.25 16.5459C2.25025 16.1319 2.58594 15.7959 3 15.7959H4.25V7.96875H3C2.58579 7.96875 2.25 7.63296 2.25 7.21875C2.25018 6.80469 2.5859 6.46875 3 6.46875H4.25V3.5ZM9.9873 16.2529C9.87327 16.6511 9.4577 16.8815 9.05957 16.7676C8.66137 16.6535 8.43086 16.238 8.54492 15.8398L9.9873 16.2529ZM14.4092 9.97266C14.4091 9.30021 13.8324 8.70326 13.0547 8.70312C12.2769 8.70312 11.6993 9.30014 11.6992 9.97266C11.6992 10.6452 12.2769 11.2432 13.0547 11.2432C13.8324 11.243 14.4092 10.6451 14.4092 9.97266ZM15.9092 9.97266C15.9092 10.7026 15.6201 11.3539 15.1562 11.8428C16.0432 12.3756 16.776 13.262 17.1719 14.4736L17.2354 14.6787L17.5674 15.8398C17.6814 16.2379 17.4517 16.6534 17.0537 16.7676C16.6555 16.8816 16.2401 16.6511 16.126 16.2529L15.793 15.0928L15.6982 14.7988C15.182 13.3853 14.0842 12.7559 13.0557 12.7559C12.0271 12.7559 10.9305 13.3854 10.415 14.7988L10.3193 15.0918L9.9873 16.2529L8.54492 15.8398L8.87695 14.6787L8.94043 14.4736C9.33544 13.2628 10.0672 12.3767 10.9531 11.8438C10.4888 11.3548 10.1992 10.703 10.1992 9.97266C10.1993 8.41401 11.5074 7.20312 13.0547 7.20312C14.6019 7.20326 15.9091 8.4141 15.9092 9.97266ZM5.75 6.46875H6.78906C7.20316 6.46875 7.53888 6.80469 7.53906 7.21875C7.53906 7.63296 7.20328 7.96875 6.78906 7.96875H5.75V15.7959H6.78906L6.86621 15.7998C7.24425 15.8382 7.53883 16.1578 7.53906 16.5459C7.53906 16.9342 7.2444 17.2546 6.86621 17.293L6.78906 17.2959H5.75V20.5C5.75 20.8069 5.7439 20.9962 5.75195 21.165C5.75318 21.1906 5.75718 21.2125 5.75879 21.2314C5.82576 21.2406 5.92792 21.25 6.0791 21.25H18.8682C19.6769 21.25 20.25 20.6461 20.25 20V4C20.25 3.35394 19.6769 2.75 18.8682 2.75H6.0791C5.92802 2.75 5.82577 2.75845 5.75879 2.76758C5.75715 2.78676 5.7532 2.80896 5.75195 2.83496C5.7439 3.00378 5.75 3.19312 5.75 3.5V6.46875Z" fill="#555555"/>
</svg>
