<svg width="24" height="24" viewBox="0 0 24 24" fill="none" xmlns="http://www.w3.org/2000/svg">
<path d="M16.4326 11.4023C19.2101 11.4023 21.4626 13.6542 21.4629 16.4316C21.4629 19.2093 19.2102 21.4619 16.4326 21.4619C13.6552 21.4617 11.4033 19.2091 11.4033 16.4316C11.4036 13.6544 13.6554 11.4026 16.4326 11.4023ZM4.30664 14.9199C4.5825 14.9202 4.80655 15.144 4.80664 15.4199C4.8067 17.1668 6.22297 18.584 7.9707 18.584H8.22852L7.9834 18.3389L7.91895 18.2607C7.79084 18.0667 7.81273 17.8027 7.9834 17.6318C8.15426 17.461 8.41823 17.4392 8.6123 17.5674L8.69043 17.6318L9.78906 18.7305L9.79492 18.7383C9.8139 18.758 9.83112 18.7791 9.84668 18.8018L9.85352 18.8096C9.85468 18.8114 9.85529 18.8136 9.85645 18.8154C9.86624 18.8308 9.8747 18.8469 9.88281 18.8633C9.88508 18.8678 9.88754 18.8724 9.88965 18.877C9.89304 18.8844 9.89641 18.8919 9.89941 18.8994C9.90408 18.9111 9.90734 18.9234 9.91113 18.9355C9.91549 18.9495 9.92073 18.9633 9.92383 18.9775C9.92715 18.9929 9.92878 19.0086 9.93066 19.0244C9.93136 19.03 9.9331 19.0355 9.93359 19.041C9.9341 19.0471 9.9333 19.0534 9.93359 19.0596C9.934 19.0677 9.93652 19.0758 9.93652 19.084C9.93649 19.0901 9.93382 19.0964 9.93359 19.1025C9.93333 19.1106 9.93426 19.1189 9.93359 19.127C9.93287 19.1351 9.9308 19.1432 9.92969 19.1514C9.9284 19.1609 9.92662 19.1703 9.9248 19.1797C9.92055 19.2019 9.91451 19.2236 9.90723 19.2451C9.90547 19.2503 9.90427 19.2557 9.90234 19.2607C9.89469 19.2811 9.88542 19.3009 9.875 19.3203C9.87126 19.3273 9.86733 19.3341 9.86328 19.3408C9.85959 19.347 9.85751 19.3543 9.85352 19.3604L9.83398 19.3828C9.82478 19.3951 9.81495 19.4066 9.80469 19.418L9.78906 19.4385L8.69043 20.5371C8.49518 20.7323 8.17865 20.7323 7.9834 20.5371C7.78842 20.3418 7.78828 20.0253 7.9834 19.8301L8.22949 19.584H7.9707C5.67051 19.584 3.80572 17.7189 3.80566 15.4199C3.80575 15.1439 4.03055 14.9199 4.30664 14.9199ZM16.4326 12.3262C14.1652 12.3264 12.3274 14.1642 12.3271 16.4316C12.3271 18.6993 14.165 20.5378 16.4326 20.5381C18.7004 20.5381 20.5391 18.6995 20.5391 16.4316C20.5388 14.164 18.7003 12.3262 16.4326 12.3262ZM14.9248 18.207C14.811 18.4347 14.5335 18.5263 14.3057 18.4131C14.0777 18.2991 13.9846 18.0219 14.0986 17.7939L14.9248 18.207ZM18.7686 17.7939C18.8821 18.0215 18.7896 18.2988 18.5625 18.4131C18.3347 18.527 18.0575 18.4346 17.9434 18.207L18.7686 17.7939ZM16.4336 13.6943C16.608 13.6947 16.7687 13.7941 16.8467 13.9502L18.7686 17.7939L18.3555 18L17.9434 18.207L17.7324 17.7842H15.1357L14.9248 18.207L14.5117 18L14.0986 17.7939L16.0215 13.9502L16.0537 13.8936C16.1391 13.7703 16.281 13.6944 16.4336 13.6943ZM15.5977 16.8613H17.2705L16.4336 15.1875L15.5977 16.8613ZM9.24219 2.53809C10.9959 2.53809 12.417 3.96017 12.417 5.71387V9.24121C12.417 10.9949 10.9959 12.416 9.24219 12.416H5.71484C3.96115 12.416 2.53907 10.9949 2.53906 9.24121V5.71387C2.53906 3.96017 3.96115 2.53809 5.71484 2.53809H9.24219ZM5.71484 3.46191C4.47095 3.46191 3.46289 4.46997 3.46289 5.71387V9.24121C3.46289 10.4851 4.47095 11.4932 5.71484 11.4932H9.24219C10.4861 11.4932 11.4941 10.4851 11.4941 9.24121V5.71387C11.4941 4.46998 10.4861 3.46192 9.24219 3.46191H5.71484ZM7.47852 5.3877C7.73313 5.38796 7.94033 5.59496 7.94043 5.84961V6.00391H8.33789C8.35624 6.00169 8.37461 5.99805 8.39355 5.99805C8.4125 5.99805 8.43087 6.00168 8.44922 6.00391H9.30566L9.39844 6.0127C9.60878 6.05567 9.76752 6.24181 9.76758 6.46484C9.76735 6.68773 9.60869 6.87406 9.39844 6.91699L9.30566 6.92676H8.82324C8.74907 7.46681 8.5456 7.96519 8.24902 8.39062C8.51088 8.6398 8.81376 8.79287 9.13086 8.83496L9.31055 8.84766L9.40332 8.85645C9.61356 8.89947 9.77235 9.08566 9.77246 9.30859C9.77246 9.5316 9.61358 9.71767 9.40332 9.76074L9.31055 9.77051L9.15625 9.76562C8.56448 9.72617 8.03858 9.46078 7.62012 9.06543C7.07741 9.50432 6.39542 9.77051 5.64648 9.77051C5.3917 9.77051 5.18477 9.5643 5.18457 9.30957C5.18457 9.05467 5.39158 8.84766 5.64648 8.84766C6.27391 8.84766 6.84762 8.57988 7.26367 8.14453C7.28546 8.11257 7.31244 8.08401 7.34277 8.05762C7.61257 7.74557 7.8061 7.35872 7.8877 6.92676H5.65137C5.39663 6.92676 5.18972 6.71952 5.18945 6.46484C5.18951 6.21 5.3965 6.00391 5.65137 6.00391H7.01758V5.84961C7.01768 5.59483 7.22373 5.38776 7.47852 5.3877ZM15.3896 3.39746C15.5835 3.26976 15.8468 3.29175 16.0176 3.46191C16.1884 3.63277 16.2102 3.89676 16.082 4.09082L16.0176 4.16895L15.7715 4.41504H16.0312C18.3312 4.41504 20.1948 6.28049 20.1953 8.5791C20.1952 8.85517 19.9714 9.0791 19.6953 9.0791C19.4195 9.07882 19.1954 8.85499 19.1953 8.5791C19.1948 6.8326 17.7787 5.41504 16.0312 5.41504H15.7725L16.0176 5.66016L16.082 5.73926C16.2099 5.9332 16.1881 6.19641 16.0176 6.36719C15.8468 6.53791 15.5837 6.55957 15.3896 6.43164L15.3105 6.36719L14.2168 5.27344C14.1923 5.24952 14.1696 5.22284 14.1504 5.19434L14.1475 5.19043C14.1126 5.1374 14.0887 5.07864 14.0762 5.01855C14.0748 5.0117 14.0744 5.00402 14.0732 4.99707C14.0695 4.97425 14.0669 4.9508 14.0664 4.92773C14.0663 4.92383 14.0654 4.91895 14.0654 4.91504C14.0655 4.90967 14.0662 4.90377 14.0664 4.89844C14.0671 4.87866 14.0692 4.85847 14.0723 4.83887C14.0745 4.82454 14.0767 4.8098 14.0801 4.7959C14.0831 4.78378 14.0879 4.77168 14.0918 4.75977C14.096 4.74684 14.0992 4.73314 14.1045 4.7207L14.1123 4.70508C14.1163 4.6965 14.1215 4.68808 14.126 4.67969C14.1341 4.66444 14.1415 4.6483 14.1514 4.63379L14.1553 4.62988C14.162 4.62035 14.1703 4.6117 14.1777 4.60254C14.1889 4.58866 14.199 4.57343 14.2119 4.56055L15.3105 3.46191L15.3896 3.39746Z" fill="#555555"/>
</svg>
