<svg width="24" height="24" viewBox="0 0 24 24" fill="none" xmlns="http://www.w3.org/2000/svg">
<path fill-rule="evenodd" clip-rule="evenodd" d="M3.6152 2.03901C3.16118 2.13055 2.75045 2.37696 2.45493 2.73511C2.30894 2.91204 2.12831 3.26177 2.05565 3.50824C2.01307 3.65262 2.01042 4.018 2.00304 10.7199C1.99599 17.1087 1.99907 17.8013 2.03537 18.0097C2.17989 18.8391 2.82576 19.4817 3.6638 19.6299C3.84858 19.6625 4.38336 19.6679 7.42642 19.6679C9.3774 19.6679 10.9735 19.6651 10.9733 19.6616C10.9732 19.6581 10.8519 19.5293 10.7037 19.3753C10.5555 19.2213 10.3578 18.996 10.2643 18.8747L10.0944 18.654H7.00973C4.82107 18.654 3.88661 18.6457 3.7926 18.6255C3.4288 18.5472 3.13798 18.275 3.03687 17.9181C3.00093 17.7913 2.99776 17.1104 3.00359 10.7825L3.01001 3.78707L3.07024 3.63498C3.15346 3.42482 3.40279 3.17204 3.6101 3.08768L3.76012 3.02662L8.10449 3.02L12.4489 3.01338L12.4497 5.11125C12.4504 6.76515 12.4578 7.24935 12.4846 7.39924C12.6224 8.171 13.1823 8.78662 13.9428 9.00261C14.1311 9.05607 14.1833 9.05787 15.7806 9.06629L17.4246 9.07493L17.4249 9.34608L17.4252 9.61724L17.6877 9.75409C17.832 9.82938 18.0519 9.95769 18.1764 10.0393C18.3007 10.1208 18.4075 10.1876 18.4136 10.1876C18.4197 10.1876 18.4247 9.70768 18.4247 9.12114V8.05473L15.9344 5.02735L13.4441 2L8.61459 2.00238C4.6653 2.00433 3.75414 2.011 3.6152 2.03901ZM15.472 5.67554C16.532 6.96515 17.3993 8.02882 17.3994 8.03929C17.3997 8.07131 14.395 8.06228 14.2441 8.02981C13.8816 7.95181 13.5914 7.68109 13.4887 7.32492C13.4539 7.20433 13.449 6.94162 13.449 5.20902C13.449 3.26015 13.4497 3.23156 13.4968 3.28081C13.5232 3.30829 14.412 4.38593 15.472 5.67554ZM4.98957 6.0472C4.98034 6.05655 4.97279 6.28482 4.97279 6.5544V7.04461L7.4669 7.03815L9.961 7.03169V6.53739V6.04309L7.48368 6.03663C6.12116 6.03308 4.99882 6.03785 4.98957 6.0472ZM4.97852 9.57275L4.98529 10.0735L7.4664 10.08L9.94748 10.0864L9.96138 10.0293C9.96901 9.99785 9.97206 9.7725 9.96813 9.52852L9.961 9.08492L7.46637 9.07845L4.97174 9.07199L4.97852 9.57275ZM14.2259 10.1264C13.0379 10.3017 11.9012 10.9402 11.1478 11.8552C10.3042 12.8798 9.89452 14.1342 9.97668 15.4412C10.0759 17.0194 10.8859 18.4414 12.1835 19.3156C14.1272 20.625 16.6875 20.3992 18.3692 18.7699C19.1827 17.9819 19.6847 17.0035 19.866 15.853C19.9588 15.2644 19.9162 14.4671 19.7597 13.8631C19.2459 11.88 17.6426 10.4233 15.6461 10.1258C15.3174 10.0768 14.5599 10.0771 14.2259 10.1264ZM15.6374 11.1513C16.8645 11.3624 17.9728 12.2086 18.5147 13.3484C19.2209 14.8335 18.9904 16.5513 17.9183 17.7934C17.108 18.7322 15.8365 19.2525 14.6278 19.1397C14.2401 19.1035 14.0144 19.0569 13.6769 18.9433C12.6723 18.6051 11.8199 17.8431 11.3605 16.8727C10.9693 16.0462 10.8643 15.1725 11.0484 14.2767C11.1474 13.7953 11.353 13.3052 11.6417 12.8626C11.8678 12.516 12.3703 12.0066 12.7121 11.7774C13.5973 11.184 14.591 10.9713 15.6374 11.1513ZM4.98947 11.5987C4.98029 11.6079 4.97279 11.8361 4.97279 12.1056V12.5957L7.24187 12.5954L9.51094 12.5951L9.63486 12.3521C9.70299 12.2185 9.82539 12.0047 9.9068 11.8771C9.98821 11.7495 10.0602 11.6309 10.0668 11.6134C10.0764 11.5882 9.56135 11.5817 7.54251 11.5817C6.14748 11.5817 4.99862 11.5894 4.98947 11.5987ZM4.97279 15.1174C4.97279 15.6085 4.97309 15.6113 5.02905 15.625C5.06 15.6326 5.96086 15.6357 7.03099 15.6318L8.97664 15.6248L8.98127 15.1242L8.98587 14.6236H6.97933H4.97279V15.1174ZM19.1807 19.1676C18.9987 19.3525 18.8498 19.5152 18.8498 19.5289C18.8498 19.5621 21.2554 22 21.288 22C21.3019 22 21.4678 21.8431 21.6566 21.6513L22 21.3025L20.7811 20.067C20.1107 19.3874 19.5508 18.8314 19.5369 18.8314C19.523 18.8314 19.3627 18.9827 19.1807 19.1676Z" fill="#555555" stroke="#555555" stroke-width="0.3" stroke-linejoin="round"/>
</svg>
