<svg width="24" height="24" viewBox="0 0 24 24" fill="none" xmlns="http://www.w3.org/2000/svg">
<path d="M3.16162 4.46826C5.58557 2.04431 9.44765 1.93501 12.0013 4.14036C14.5533 1.93501 18.4154 2.04431 20.8393 4.46826C23.2589 6.88787 23.3721 10.7405 21.179 13.2942L13.4147 21.0853C12.6691 21.8308 11.4814 21.8647 10.6957 21.1869L10.5863 21.0853L2.8219 13.2942C0.62877 10.7405 0.74201 6.88787 3.16162 4.46826ZM4.57583 5.88247C2.86868 7.58962 2.81991 10.3271 4.42951 12.0932L4.57583 12.2464L12.0005 19.671L17.3031 14.367L13.7682 10.8322L12.7076 11.8929C11.536 13.0644 9.63649 13.0644 8.46492 11.8929C7.29335 10.7213 7.29335 8.82181 8.46492 7.65024L10.5661 5.54774C8.85341 4.17664 6.37125 4.23944 4.72909 5.73614L4.57583 5.88247ZM13.0611 8.7109C13.4516 8.32037 14.0848 8.32037 14.4753 8.7109L18.7173 12.9528L19.4251 12.2464C21.1824 10.4891 21.1824 7.63983 19.4251 5.88247C17.7179 4.17532 14.9804 4.12655 13.2144 5.73614L13.0611 5.88247L9.87913 9.06445C9.5165 9.42708 9.4906 9.99893 9.80143 10.3914L9.87913 10.4787C10.2418 10.8413 10.8136 10.8672 11.2061 10.5564L11.2934 10.4787L13.0611 8.7109Z" fill="#555555"/>
</svg>
