<svg width="24" height="24" viewBox="0 0 24 24" fill="none" xmlns="http://www.w3.org/2000/svg">
<g clip-path="url(#clip0_4_942)">
<path d="M5.1957 17.9896C4.21961 16.5542 4.5231 14.5938 5.75347 13.3635L8.15678 10.9601C8.58331 10.5336 8.58331 9.82821 8.15678 9.40168C7.73025 8.97515 7.02485 8.97515 6.59832 9.40168L4.27703 11.723C2.13619 13.8638 1.79169 17.3416 3.71926 19.6793C5.92572 22.3615 9.9039 22.501 12.299 20.1059L14.8008 17.6041C15.2273 17.1776 15.2273 16.4722 14.8008 16.0457C14.3742 15.6191 13.6688 15.6191 13.2423 16.0457L10.7406 18.5474C9.17389 20.1141 6.50809 19.9254 5.1957 17.9896ZM10.6585 15.1844L15.58 10.2629C16.0311 9.8118 16.0311 9.07359 15.58 8.62245C15.1289 8.17132 14.3906 8.17132 13.9395 8.62245L9.01804 13.5439C8.5669 13.995 8.5669 14.7333 9.01804 15.1844C9.46917 15.6355 10.2074 15.6355 10.6585 15.1844ZM12.1186 3.88144L9.79727 6.20273C9.37074 6.62926 9.37074 7.33467 9.79727 7.76119C10.2238 8.18772 10.9292 8.18772 11.3557 7.76119L13.759 5.35788C14.9894 4.12751 16.9498 3.82402 18.3852 4.80011C20.321 6.1125 20.5097 8.7783 18.943 10.345L16.4412 12.8467C16.0147 13.2732 16.0147 13.9786 16.4412 14.4052C16.8678 14.8317 17.5732 14.8317 17.9997 14.4052L20.5015 11.9034C22.8966 9.50831 22.7571 5.53013 20.0831 3.31547C17.7454 1.3879 14.2594 1.7406 12.1186 3.88144Z" fill="#555555"/>
</g>
<defs>
<clipPath id="clip0_4_942">
<rect width="24" height="24" fill="white"/>
</clipPath>
</defs>
</svg>
