<svg width="24" height="24" viewBox="0 0 24 24" fill="none" xmlns="http://www.w3.org/2000/svg">
<path d="M18.3529 9.07812H16.7631V5.5448C16.7631 3.03878 14.6256 1 11.9984 1C9.37112 1 7.23366 3.03878 7.23366 5.5448V9.07812H5.64706C4.18747 9.07812 3 10.2347 3 11.6562V20.4219C3 21.8435 4.18747 23 5.64706 23H18.3529C19.8125 23 21 21.8435 21 20.4219V11.6562C21 10.2347 19.8125 9.07812 18.3529 9.07812ZM8.99837 5.5448C8.99837 3.9865 10.3442 2.71875 11.9984 2.71875C13.6526 2.71875 14.9984 3.9865 14.9984 5.5448V9.07812H8.99837V5.5448ZM19.2353 20.4219C19.2353 20.8957 18.8395 21.2812 18.3529 21.2812H5.64706C5.16053 21.2812 4.76471 20.8957 4.76471 20.4219V11.6562C4.76471 11.1824 5.16053 10.7969 5.64706 10.7969H18.3529C18.8395 10.7969 19.2353 11.1824 19.2353 11.6562V20.4219Z" fill="#555555"/>
<path d="M11.9995 13.2896C11.098 13.2896 10.3672 14.0013 10.3672 14.8794C10.3672 15.4401 10.6654 15.9326 11.1156 16.2156V18.1021C11.1156 18.5766 11.5106 18.9614 11.9979 18.9614C12.4852 18.9614 12.8803 18.5766 12.8803 18.1021V16.2177C13.3322 15.9349 13.6319 15.4414 13.6319 14.8794C13.6319 14.0013 12.9011 13.2896 11.9995 13.2896Z" fill="#555555"/>
</svg>
