<svg width="24" height="24" viewBox="0 0 24 24" fill="none" xmlns="http://www.w3.org/2000/svg">
<path d="M12.2568 8.05518C12.5329 7.78213 12.9675 7.76732 13.2607 8.00928L13.3174 8.06104L16.5557 11.3306H16.5547C16.6997 11.4752 16.8136 11.6469 16.8906 11.8345C16.9684 12.024 17.0078 12.227 17.0078 12.4312L17.0068 12.4429C17.0088 12.4653 17.0108 12.4883 17.0107 12.5112C17.0105 12.5745 16.9994 12.6352 16.9844 12.6938C16.9651 12.8081 16.9349 12.9209 16.8906 13.0288C16.8137 13.216 16.6993 13.3863 16.5547 13.5308L16.5557 13.5317L13.2627 16.856C12.9712 17.1502 12.4965 17.1533 12.2022 16.8618C11.9079 16.5704 11.9061 16.0956 12.1973 15.8013L14.7217 13.2515L3.74708 13.2075L3.66993 13.2036C3.2921 13.1635 2.99846 12.8428 3.00001 12.4546C3.00183 12.0405 3.33886 11.7059 3.75294 11.7075L14.8623 11.7524L12.251 9.11572L12.2002 9.05908C11.9612 8.76333 11.9809 8.32848 12.2568 8.05518ZM7.5879 8.94482V4.85205L7.60938 4.57178C7.6447 4.29331 7.7218 4.02081 7.83887 3.76416C7.99499 3.42204 8.21845 3.11473 8.49512 2.85889C8.77185 2.603 9.09649 2.40348 9.4502 2.271C9.79822 2.14065 10.1683 2.07882 10.54 2.08545V2.08447H17.1309V2.08545C17.5026 2.07882 17.8727 2.14065 18.2207 2.271C18.5744 2.40348 18.8991 2.603 19.1758 2.85889C19.4525 3.11473 19.6759 3.42205 19.832 3.76416C19.9881 4.10637 20.0736 4.47636 20.083 4.85205V19.1479C20.0737 19.5237 19.9882 19.8935 19.832 20.2358C19.6759 20.578 19.4524 20.8852 19.1758 21.1411C18.8991 21.397 18.5744 21.5965 18.2207 21.729C17.8727 21.8593 17.5026 21.9212 17.1309 21.9146V21.9165H10.5361V21.9146C10.1643 21.9212 9.79436 21.8594 9.4463 21.729C9.09258 21.5965 8.76794 21.397 8.49122 21.1411C8.21451 20.8852 7.99109 20.578 7.83497 20.2358C7.71784 19.9791 7.6398 19.7068 7.6045 19.4282L7.58399 19.1479C7.58384 19.1418 7.58301 19.1356 7.58301 19.1294V15.0552C7.58319 14.6412 7.91906 14.3054 8.33301 14.3052C8.74712 14.3052 9.08284 14.6411 9.08301 15.0552V19.1108L9.09278 19.2397C9.10902 19.3679 9.14486 19.4935 9.19922 19.6128C9.27187 19.7721 9.37649 19.9182 9.5088 20.0405C9.64109 20.1629 9.79844 20.2598 9.97169 20.3247C10.1451 20.3897 10.3316 20.421 10.5186 20.4165H17.1484C17.3353 20.421 17.521 20.3896 17.6943 20.3247C17.8676 20.2598 18.0249 20.1628 18.1572 20.0405C18.2896 19.9181 18.3951 19.7721 18.4678 19.6128C18.5376 19.4594 18.5765 19.2954 18.583 19.1294V4.87061C18.5764 4.70459 18.5377 4.54053 18.4678 4.38721C18.3951 4.22793 18.2895 4.08282 18.1572 3.96045C18.0248 3.83802 17.8677 3.74024 17.6943 3.67529C17.5643 3.62661 17.4272 3.59735 17.2881 3.5874L17.1484 3.5835C17.1426 3.58364 17.1367 3.58447 17.1309 3.58447H10.54L10.5225 3.5835C10.3357 3.57902 10.1499 3.61042 9.97657 3.67529C9.80317 3.74024 9.64607 3.83802 9.51368 3.96045C9.38135 4.08282 9.27579 4.22793 9.20313 4.38721C9.13323 4.54053 9.09449 4.70459 9.0879 4.87061V8.94482C9.08789 9.35892 8.75194 9.69463 8.3379 9.69482C7.92369 9.69482 7.5879 9.35904 7.5879 8.94482Z" fill="#555555"/>
</svg>
