<svg width="24" height="24" viewBox="0 0 24 24" fill="none" xmlns="http://www.w3.org/2000/svg">
<path d="M18.0988 8.1464L18.0871 8.01652C17.9609 6.59364 17.2771 5.26218 16.1623 4.29191V4.29093C14.9974 3.27545 13.4645 2.72145 11.8781 2.75089C10.2919 2.78041 8.78243 3.39004 7.66036 4.44718L7.66134 4.44816C6.92569 5.14291 6.39401 6.00551 6.11447 6.95011C5.86991 7.77647 5.82492 8.643 5.98068 9.48527L6.05978 9.84464L6.06954 9.88761C6.38532 11.5178 7.00864 13.0797 7.90939 14.497L8.09298 14.7792L8.1047 14.7958L8.11544 14.8134C9.1962 16.629 10.456 18.341 11.8762 19.9277C12.3192 19.4893 12.7412 19.0315 13.1399 18.5556L13.1447 18.5497L13.636 17.9579C14.7574 16.5598 15.7167 15.0484 16.4963 13.4511V13.4501L16.8274 12.7499C17.1474 12.0457 17.4353 11.3286 17.6906 10.6005L17.7043 10.5634C17.9293 10.0147 18.0632 9.43653 18.1008 8.84952L18.1018 8.83488L18.1037 8.82023C18.1118 8.74136 18.1125 8.65915 18.1125 8.53019V8.49699C18.1125 8.38109 18.1062 8.26637 18.0988 8.1464ZM11.9983 4.90519L12.1604 4.90812C12.9688 4.94279 13.7427 5.26302 14.3293 5.81827C14.956 6.41163 15.3182 7.22619 15.3244 8.08488V8.08976L15.3156 8.32804C15.2732 8.87965 15.0824 9.41063 14.7639 9.86906C14.4 10.3927 13.8861 10.7975 13.2902 11.036C12.6946 11.2744 12.04 11.3381 11.4084 11.2206C10.7767 11.103 10.1908 10.8082 9.72677 10.3691C9.26236 9.92935 8.93986 9.36308 8.80587 8.74113C8.67196 8.11919 8.73312 7.47341 8.98068 6.88663C9.22825 6.30013 9.64959 5.80167 10.1858 5.45109C10.7218 5.1007 11.3514 4.91209 11.9943 4.90519H11.9983ZM12.007 6.40519C11.6473 6.40962 11.2993 6.51499 11.007 6.70597C10.7142 6.89742 10.4922 7.16482 10.3635 7.46964C10.235 7.77407 10.2038 8.10621 10.2727 8.4257C10.3416 8.74538 10.5085 9.04299 10.758 9.27921C11.0079 9.51578 11.3292 9.6802 11.6828 9.74601C12.0364 9.81174 12.4022 9.77567 12.7326 9.64347C13.0629 9.51129 13.3401 9.29029 13.5324 9.01359C13.7235 8.7387 13.8235 8.41931 13.8244 8.09562L13.8147 7.93156C13.7725 7.55035 13.5936 7.18797 13.2981 6.90812C12.9596 6.58766 12.496 6.4035 12.007 6.40519ZM19.6125 8.53019C19.6125 8.64083 19.6112 8.78752 19.5969 8.94425L19.5979 8.94523C19.5498 9.69584 19.3795 10.4341 19.093 11.1327C18.7358 12.1468 18.3181 13.14 17.843 14.1083L17.844 14.1093C16.8978 16.0476 15.7031 17.8641 14.2893 19.5185L14.2902 19.5194C13.6895 20.2366 13.0404 20.9165 12.3469 21.5527L11.799 22.0546L11.2922 21.5126C9.59339 19.6992 8.10017 17.7174 6.8381 15.6005C5.73562 13.9532 4.97622 12.1153 4.60079 10.1884C4.29745 8.9811 4.32244 7.71901 4.67599 6.52433C5.03213 5.32095 5.70692 4.23013 6.63107 3.35734L6.63204 3.35636L6.89962 3.11613C8.26521 1.94678 10.0212 1.28494 11.8498 1.25089C13.8002 1.2146 15.6964 1.89504 17.1477 3.16007L17.4035 3.39347C18.6267 4.56361 19.3944 6.11087 19.5686 7.77531C19.5834 7.83138 19.5927 7.88896 19.5949 7.94718V8.01456C19.6053 8.17223 19.6125 8.33102 19.6125 8.49699V8.53019Z" fill="#555555"/>
</svg>
