<svg width="24" height="24" viewBox="0 0 24 24" fill="none" xmlns="http://www.w3.org/2000/svg">
<path d="M4.37402 14.6583C4.75207 14.6969 5.04688 15.0162 5.04688 15.4044C5.04663 15.7924 4.75194 16.112 4.37402 16.1505L4.29688 16.1544H3.49609C2.52931 16.1544 1.74609 16.9376 1.74609 17.9044V19.0001C1.74583 19.4141 1.41015 19.7501 0.996094 19.7501C0.58204 19.7501 0.246353 19.4141 0.246094 19.0001V17.9044C0.246094 16.1092 1.70088 14.6544 3.49609 14.6544H4.29688L4.37402 14.6583Z" fill="#555555"/>
<path d="M20.4961 14.6544C22.2913 14.6544 23.7461 16.1092 23.7461 17.9044V19.0001C23.7458 19.4141 23.4101 19.7501 22.9961 19.7501C22.5821 19.75 22.2464 19.414 22.2461 19.0001V17.9044C22.2461 16.9376 21.4629 16.1544 20.4961 16.1544H19.6953C19.2813 16.1544 18.9456 15.8184 18.9453 15.4044C18.9453 14.9902 19.2811 14.6544 19.6953 14.6544H20.4961Z" fill="#555555"/>
<path d="M13.835 13.1486C16.182 13.1486 18.0848 15.0515 18.085 17.3986V18.9992C18.085 19.4134 17.7492 19.7492 17.335 19.7492C16.9209 19.749 16.585 19.4133 16.585 18.9992V17.3986C16.5848 15.88 15.3536 14.6486 13.835 14.6486H10.1562C8.63759 14.6486 7.40645 15.88 7.40625 17.3986V18.9992C7.40625 19.4134 7.07046 19.7492 6.65625 19.7492C6.24204 19.7492 5.90625 19.4134 5.90625 18.9992V17.3986C5.90645 15.0515 7.80916 13.1486 10.1562 13.1486H13.835Z" fill="#555555"/>
<path fill-rule="evenodd" clip-rule="evenodd" d="M2.88184 8.80286C3.95061 7.93094 5.51554 7.97824 6.5332 8.93958L6.53613 8.94154L6.59277 8.99329L6.7832 9.20325C7.61268 10.2199 7.6126 11.6876 6.7832 12.7042L6.59277 12.9142C5.57742 13.9295 3.971 13.9933 2.88184 13.1046L2.67188 12.9142C1.58907 11.8313 1.58899 10.0762 2.67188 8.99329L2.88184 8.80286ZM5.43555 9.96595C4.96901 9.58574 4.29563 9.5857 3.8291 9.96595L3.73242 10.0538C3.23532 10.5509 3.2354 11.3565 3.73242 11.8536L3.8291 11.9415C4.3291 12.3492 5.06623 12.3196 5.53223 11.8536L5.62012 11.757C6.00039 11.2904 6.00046 10.6171 5.62012 10.1505L5.53223 10.0538L5.43555 9.96595Z" fill="#555555"/>
<path fill-rule="evenodd" clip-rule="evenodd" d="M17.6064 8.80286C18.6752 7.93094 20.2402 7.97824 21.2578 8.93958L21.2607 8.94154L21.3174 8.99329L21.5078 9.20325C22.3373 10.2199 22.3372 11.6876 21.5078 12.7042L21.3174 12.9142C20.302 13.9295 18.6956 13.9933 17.6064 13.1046L17.3965 12.9142C16.3137 11.8313 16.3136 10.0762 17.3965 8.99329L17.6064 8.80286ZM20.1602 9.96595C19.6936 9.58574 19.0202 9.5857 18.5537 9.96595L18.457 10.0538C17.9599 10.5509 17.96 11.3565 18.457 11.8536L18.5537 11.9415C19.0537 12.3492 19.7908 12.3196 20.2568 11.8536L20.3447 11.757C20.725 11.2904 20.7251 10.6171 20.3447 10.1505L20.2568 10.0538L20.1602 9.96595Z" fill="#555555"/>
<path fill-rule="evenodd" clip-rule="evenodd" d="M9.40527 5.24525C10.9224 3.8745 13.2643 3.92001 14.7266 5.38197L14.8643 5.5265C16.1906 6.99478 16.1908 9.23605 14.8643 10.7042L14.7266 10.8478C13.2644 12.3098 10.9225 12.356 9.40527 10.9855L9.26074 10.8478C7.75164 9.33841 7.75151 6.89127 9.26074 5.38197L9.40527 5.24525ZM13.4863 6.2804C12.6193 5.57341 11.3679 5.57325 10.501 6.2804L10.3213 6.44251C9.39784 7.36603 9.39798 8.86365 10.3213 9.78724L10.501 9.94935C11.4299 10.7072 12.8001 10.6531 13.666 9.78724L13.8281 9.60755C14.5354 8.74046 14.5355 7.48921 13.8281 6.6222L13.666 6.44251L13.4863 6.2804Z" fill="#555555"/>
</svg>
