<svg width="24" height="24" viewBox="0 0 24 24" fill="none" xmlns="http://www.w3.org/2000/svg">
<path fill-rule="evenodd" clip-rule="evenodd" d="M13.999 3.24707C14.9656 3.24707 15.7498 4.03053 15.75 4.99707V5.24805H18.6465C19.7711 5.24805 20.7833 5.93248 21.2012 6.97656L21.8955 8.71191C21.8985 8.71906 21.9016 8.72615 21.9043 8.7334L22.5566 10.3643L22.6416 10.6113C22.7152 10.8622 22.7529 11.1234 22.7529 11.3857V12.9863C22.753 12.9911 22.7539 12.9962 22.7539 13.001C22.7539 13.0042 22.753 13.0075 22.7529 13.0107V17.5029C22.7526 18.4692 21.9693 19.2527 21.0029 19.2529H19.6191C19.6056 19.2915 19.5919 19.3301 19.5762 19.3682C19.2495 20.1565 18.5075 20.6878 17.666 20.751L17.4971 20.7568C16.6438 20.7569 15.8689 20.2755 15.4883 19.5225L15.418 19.3682C15.4022 19.3301 15.3886 19.2915 15.375 19.2529H8.61523C8.60169 19.2915 8.58802 19.3301 8.57227 19.3682C8.24561 20.1566 7.50365 20.6878 6.66211 20.751L6.49316 20.7568C5.58298 20.7569 4.76253 20.209 4.41406 19.3682C4.3983 19.3301 4.38465 19.2915 4.37109 19.2529H2.99414C2.0278 19.2527 1.24447 18.4692 1.24414 17.5029V4.99707C1.24437 4.03067 2.02774 3.2473 2.99414 3.24707H13.999ZM6.49316 17.7559C6.34384 17.7558 6.19858 17.8002 6.07617 17.8818L5.96191 17.9756C5.82484 18.1127 5.74957 18.2943 5.74316 18.4805C5.74338 18.4878 5.74512 18.4955 5.74512 18.5029C5.74512 18.5052 5.74416 18.5075 5.74414 18.5098C5.74458 18.6055 5.76175 18.702 5.7998 18.7939C5.91604 19.0743 6.18963 19.2569 6.49316 19.2568L6.60547 19.249C6.86266 19.2101 7.08492 19.0392 7.18652 18.7939C7.28804 18.5486 7.25109 18.2709 7.09668 18.0615L7.02344 17.9756L6.90918 17.8818C6.78693 17.8003 6.64225 17.7559 6.49316 17.7559ZM17.4971 17.7559C17.3478 17.7559 17.2025 17.8002 17.0801 17.8818L16.9658 17.9756C16.8323 18.1091 16.7568 18.2848 16.7471 18.4658C16.7477 18.4781 16.751 18.4905 16.751 18.5029C16.751 18.5108 16.7483 18.5186 16.748 18.5264C16.7505 18.6167 16.7679 18.7073 16.8037 18.7939L16.8535 18.8945C16.9879 19.1174 17.2314 19.2568 17.4971 19.2568L17.6094 19.249C17.8666 19.2101 18.0888 19.0392 18.1904 18.7939C18.292 18.5484 18.2554 18.27 18.1006 18.0605L18.0273 17.9756L17.9131 17.8818C17.7908 17.8004 17.6462 17.7559 17.4971 17.7559ZM15.75 14.001C15.75 14.0461 15.744 14.0899 15.7363 14.1328C15.7355 14.1374 15.7353 14.142 15.7344 14.1465C15.7321 14.1582 15.7275 14.1692 15.7246 14.1807C15.7158 14.2161 15.707 14.251 15.6934 14.2842C15.6865 14.3008 15.6769 14.316 15.6689 14.332C15.656 14.358 15.6437 14.384 15.6279 14.4082C15.6158 14.4268 15.6015 14.4435 15.5879 14.4609C15.5734 14.4794 15.5591 14.4977 15.543 14.5146C15.5274 14.5311 15.5102 14.5456 15.4932 14.5605C15.4738 14.5776 15.4546 14.5944 15.4336 14.6094C15.4188 14.6199 15.4033 14.6292 15.3877 14.6387C15.363 14.6537 15.3379 14.6675 15.3115 14.6797C15.294 14.6878 15.2761 14.6945 15.2578 14.7012C15.2319 14.7107 15.2058 14.7189 15.1787 14.7256C15.1451 14.7339 15.1114 14.7435 15.0762 14.7471L15 14.751H2.74414V17.5029C2.74446 17.6408 2.85623 17.7527 2.99414 17.7529H4.37305C4.48156 17.4481 4.65668 17.1643 4.89355 16.9248L4.89258 16.9238L4.90137 16.915L5.06641 16.7656C5.46691 16.4374 5.97082 16.2558 6.49316 16.2559C7.06326 16.2559 7.60873 16.475 8.02441 16.8623L8.02734 16.8633L8.08398 16.915L8.19922 17.0391C8.38282 17.2524 8.52075 17.4954 8.6123 17.7529H15.3779C15.4693 17.4958 15.6068 17.2532 15.79 17.04L15.9053 16.915L16.0703 16.7656C16.4708 16.4375 16.9748 16.2559 17.4971 16.2559C18.0672 16.2559 18.6126 16.4751 19.0283 16.8623L19.0312 16.8633L19.0879 16.915L19.2031 17.0391C19.3867 17.2524 19.5247 17.4954 19.6162 17.7529H21.0029C21.1408 17.7527 21.2526 17.6408 21.2529 17.5029V13.751H18.502C17.8117 13.7509 17.2521 13.1903 17.252 12.5V8.99902L17.2559 8.92188C17.2945 8.54391 17.6138 8.24902 18.002 8.24902H20.0947L19.8086 7.53418C19.6186 7.05934 19.1579 6.74805 18.6465 6.74805H15.75V14.001ZM2.99414 4.74707C2.85617 4.7473 2.74437 4.8591 2.74414 4.99707V13.251H14.25V4.99707C14.2498 4.85896 14.1372 4.74707 13.999 4.74707H2.99414ZM18.752 9.74902V12.251H21.2529V11.3857C21.2529 11.2667 21.2355 11.148 21.2021 11.0342L21.1631 10.9219L20.6943 9.74902H18.752Z" fill="#555555"/>
</svg>
