<svg width="24" height="24" viewBox="0 0 24 24" fill="none" xmlns="http://www.w3.org/2000/svg">
<path fill-rule="evenodd" clip-rule="evenodd" d="M11.9673 4.77734C13.1474 4.77734 14.1135 5.72574 14.1137 6.90625C14.1135 8.08675 13.1474 9.03418 11.9673 9.03418C10.7872 9.03406 9.82101 8.08667 9.82077 6.90625C9.82099 5.72582 10.7872 4.77746 11.9673 4.77734ZM11.9673 5.77734C11.3291 5.77746 10.821 6.28846 10.8208 6.90625C10.821 7.52403 11.3291 8.03406 11.9673 8.03418C12.6055 8.03418 13.1135 7.5241 13.1137 6.90625C13.1135 6.28839 12.6055 5.77734 11.9673 5.77734Z" fill="#555555"/>
<path fill-rule="evenodd" clip-rule="evenodd" d="M12.5688 1.66895C13.4489 1.78609 14.288 2.11335 15.0122 2.62402C15.7364 3.13483 16.3248 3.81376 16.7251 4.60156C17.1253 5.38948 17.3251 6.26309 17.3071 7.14551C17.289 8.02801 17.0536 8.89285 16.6215 9.66406L16.1255 10.5723L17.6733 11.4932L17.7387 11.5361C17.8853 11.6456 17.9878 11.8063 18.0249 11.9873L19.7876 20.6377C19.8468 20.9284 19.7295 21.2275 19.4878 21.3994C19.2458 21.5713 18.9245 21.5843 18.6694 21.4326L15.5258 19.5625L12.3823 21.4326C12.1461 21.5728 11.8518 21.573 11.6157 21.4326L8.47213 19.5625L5.32956 21.4326C5.07446 21.5843 4.75315 21.5713 4.5112 21.3994C4.26931 21.2275 4.15116 20.9285 4.21041 20.6377L5.97409 11.9873L5.99362 11.9111C6.04884 11.7368 6.16697 11.5876 6.32565 11.4932L7.83444 10.5957L7.31295 9.63574L7.31393 9.63477C6.88411 8.86773 6.64799 8.00874 6.62936 7.13086C6.61071 6.249 6.81076 5.37595 7.21139 4.58887C7.61216 3.80176 8.202 3.12395 8.92721 2.61523C9.65223 2.10677 10.4915 1.78137 11.3715 1.66797L11.4673 1.66211H12.4702L12.5688 1.66895ZM15.2944 12.0977L13.1362 16.0605L13.1352 16.0596C13.0223 16.2693 12.8554 16.4445 12.6518 16.5664C12.4972 16.6589 12.3259 16.7191 12.1489 16.7432L11.9702 16.7549C11.7307 16.7548 11.4946 16.6896 11.2885 16.5664C11.0826 16.4431 10.9132 16.2658 10.8003 16.0527L8.62643 12.0527L8.47213 11.9609L7.37741 12.6123L6.01901 19.2754L8.08932 18.0459L8.18014 18C8.3979 17.9079 8.64924 17.923 8.85592 18.0459L11.9985 19.9141L15.143 18.0459L15.2339 18C15.4516 17.9079 15.703 17.9231 15.9096 18.0459L17.979 19.2764L16.6196 12.6123L15.5258 11.9609L15.2944 12.0977ZM11.5268 3.16211C10.9002 3.24877 10.3039 3.48225 9.78854 3.84375C9.26318 4.21229 8.83718 4.70135 8.54831 5.26855C8.25947 5.83587 8.11597 6.46445 8.12936 7.09863C8.1411 7.65348 8.27296 8.19881 8.5151 8.69824L8.62545 8.91016L8.63131 8.91992L11.9702 15.0635L15.309 8.93848L15.313 8.93066L15.4233 8.71875C15.6648 8.21783 15.7957 7.67117 15.8071 7.11523C15.8201 6.47971 15.6761 5.85002 15.3872 5.28125C15.0983 4.71267 14.6732 4.22122 14.1479 3.85059C13.6337 3.48796 13.0383 3.25209 12.4126 3.16211H11.5268Z" fill="#555555"/>
</svg>
