<svg width="24" height="24" viewBox="0 0 24 24" fill="none" xmlns="http://www.w3.org/2000/svg">
<path d="M12.2432 2.25488C13.4573 2.3074 14.6242 2.75229 15.5674 3.52539C16.5734 4.35008 17.2633 5.49792 17.5186 6.77344L19.6152 17.25H21L21.0771 17.2539C21.4551 17.2925 21.75 17.6118 21.75 18C21.75 18.3882 21.4551 18.7075 21.0771 18.7461L21 18.75H15.6748C15.5288 19.4651 15.1752 20.1276 14.6514 20.6514C13.992 21.3108 13.1125 21.6992 12.1855 21.7451L12 21.75C11.0054 21.75 10.0519 21.3546 9.34863 20.6514C8.82482 20.1276 8.47116 19.4651 8.3252 18.75H3C2.58579 18.75 2.25 18.4142 2.25 18C2.25 17.5858 2.58579 17.25 3 17.25H4.38477L6.48145 6.77344L6.53418 6.53613C6.82389 5.35589 7.48941 4.29861 8.43262 3.52539C9.43865 2.7008 10.6992 2.25005 12 2.25L12.2432 2.25488ZM9.88184 18.75C9.99268 19.063 10.1699 19.3515 10.4092 19.5908C10.8311 20.0128 11.4033 20.25 12 20.25L12.2227 20.2393C12.7376 20.1881 13.2217 19.96 13.5908 19.5908C13.8301 19.3515 14.0073 19.063 14.1182 18.75H9.88184ZM11.8213 3.75391C10.9308 3.79252 10.0746 4.11845 9.38281 4.68555C8.69115 5.25262 8.20372 6.02805 7.99121 6.89355L7.95215 7.06836L5.91504 17.25H18.085L16.0479 7.06836C15.8607 6.13276 15.355 5.29049 14.6172 4.68555C13.8793 4.0806 12.9542 3.75005 12 3.75L11.8213 3.75391Z" fill="#555555"/>
</svg>
