<svg width="24" height="24" viewBox="0 0 24 24" fill="none" xmlns="http://www.w3.org/2000/svg">
<path d="M15.5266 18.6045C15.5264 18.5203 15.4615 18.4707 15.4045 18.4707H13.4602C13.4033 18.4707 13.3384 18.5203 13.3381 18.6045V20.4053C13.3381 20.4897 13.4032 20.54 13.4602 20.54H15.4045C15.4616 20.54 15.5266 20.4897 15.5266 20.4053V18.6045ZM20.5588 19.6475C20.973 19.6459 21.3101 19.9804 21.3118 20.3945C21.3133 20.8087 20.9789 21.1459 20.5647 21.1475L18.425 21.1553L18.3479 21.1523C17.9697 21.1153 17.6736 20.7965 17.6721 20.4082C17.6706 19.9941 18.005 19.6568 18.4192 19.6553L20.5588 19.6475ZM21.2502 17.8545C21.6643 17.8545 22 18.1905 22.0002 18.6045C22.0002 19.0187 21.6645 19.3545 21.2502 19.3545H18.4221C18.0079 19.3545 17.6721 19.0187 17.6721 18.6045C17.6724 18.1905 18.0081 17.8545 18.4221 17.8545H21.2502ZM13.3909 6.68652C13.3909 4.94993 11.9285 3.50011 10.0725 3.5C8.21645 3.5 6.75415 4.94986 6.75415 6.68652C6.75426 8.4231 8.21652 9.87305 10.0725 9.87305C11.9284 9.87294 13.3908 8.42303 13.3909 6.68652ZM15.5266 13.251C15.5266 13.1665 15.4616 13.1162 15.4045 13.1162H13.4602C13.4032 13.1162 13.3381 13.1665 13.3381 13.251V15.0518C13.3382 15.1361 13.4032 15.1855 13.4602 15.1855H15.4045C15.4615 15.1855 15.5265 15.1361 15.5266 15.0518V13.251ZM20.885 14.2939C21.299 14.2927 21.6355 14.627 21.637 15.041C21.6383 15.4551 21.304 15.7924 20.8899 15.7939L18.4241 15.8018C18.01 15.8029 17.6735 15.4678 17.6721 15.0537C17.6709 14.6398 18.0053 14.3033 18.4192 14.3018L20.885 14.2939ZM21.2502 12.5C21.6645 12.5 22.0002 12.8358 22.0002 13.25C22.0002 13.6642 21.6645 14 21.2502 14H18.2502C17.836 14 17.5002 13.6642 17.5002 13.25C17.5002 12.8358 17.836 12.5 18.2502 12.5H21.2502ZM17.0266 20.4053C17.0266 21.2977 16.3103 22.04 15.4045 22.04H13.4602C12.5544 22.04 11.8381 21.2977 11.8381 20.4053V18.6045C11.8384 17.7123 12.5546 16.9707 13.4602 16.9707H15.4045C16.3102 16.9707 17.0264 17.7123 17.0266 18.6045V20.4053ZM17.0266 15.0518C17.0265 15.9441 16.3103 16.6855 15.4045 16.6855H13.4602C12.5545 16.6855 11.8382 15.9441 11.8381 15.0518V13.251C11.8381 12.3586 12.5544 11.6162 13.4602 11.6162H15.4045C16.3103 11.6162 17.0266 12.3586 17.0266 13.251V15.0518ZM14.8909 6.68652C14.8908 9.24166 12.8023 11.2817 10.2415 11.3682C10.187 11.3807 10.1308 11.3896 10.0725 11.3896C7.6283 11.3896 5.09575 13.0215 4.11352 16.4463L4.1145 16.4473L3.47192 18.7148L3.44751 18.7871C3.30763 19.1407 2.91985 19.3372 2.54614 19.2314C2.14761 19.1185 1.91565 18.7042 2.02856 18.3057L2.67114 16.0381L2.67212 16.0361L2.7854 15.665C3.62734 13.0799 5.29328 11.3277 7.24536 10.4795C6.04334 9.63167 5.25421 8.25657 5.25415 6.68652C5.25415 4.07524 7.43499 2 10.0725 2C12.7099 2.00011 14.8909 4.07531 14.8909 6.68652Z" fill="#555555"/>
</svg>
