<svg width="24" height="24" viewBox="0 0 24 24" fill="none" xmlns="http://www.w3.org/2000/svg">
<path d="M19.1354 16.7676C19.3338 16.5758 19.6504 16.581 19.8424 16.7793C20.034 16.9777 20.0288 17.2944 19.8307 17.4863L17.8727 19.3809C17.7735 19.4767 17.6384 19.5281 17.5006 19.5215C17.3629 19.5147 17.2336 19.4506 17.1442 19.3457L16.2604 18.3037L16.2028 18.2207C16.0908 18.0169 16.134 17.7561 16.318 17.5996C16.5023 17.4433 16.7669 17.4431 16.9498 17.5869L17.0221 17.6572L17.5602 18.291L19.1354 16.7676Z" fill="#555555"/>
<path fill-rule="evenodd" clip-rule="evenodd" d="M18.1569 14.7314C20.0024 14.7316 21.4995 16.2287 21.4996 18.0742C21.4994 19.9197 20.0023 21.4168 18.1569 21.417C16.3114 21.4168 14.8153 19.9197 14.8151 18.0742C14.8152 16.2287 16.3113 14.7316 18.1569 14.7314ZM18.1569 15.7324C16.8636 15.7326 15.8152 16.781 15.8151 18.0742C15.8153 19.3674 16.8637 20.4168 18.1569 20.417C19.4501 20.4168 20.4994 19.3674 20.4996 18.0742C20.4995 16.781 19.4501 15.7326 18.1569 15.7324Z" fill="#555555"/>
<path fill-rule="evenodd" clip-rule="evenodd" d="M14.3668 7.84961C16.3506 7.84965 17.9594 9.45868 17.9596 11.4424C17.9593 13.4257 16.351 15.0336 14.3678 15.0342L14.194 15.0459C13.1732 15.1292 12.2138 15.4989 11.4528 16.0928C10.6928 16.686 10.1752 17.4668 9.95472 18.3154L9.91469 18.4854L9.89808 18.5498L9.40004 20.1865L9.37367 20.2588C9.22677 20.6094 8.83502 20.7987 8.46351 20.6855C8.0679 20.5646 7.84413 20.1459 7.96449 19.75L8.45668 18.1348C8.73441 16.8685 9.47096 15.7367 10.5299 14.9102C10.9583 14.5759 11.431 14.2993 11.9323 14.083C11.2209 13.4266 10.7752 12.4865 10.775 11.4424C10.7752 9.45881 12.3833 7.84985 14.3668 7.84961ZM14.3668 9.35059C13.2117 9.35083 12.2752 10.2872 12.275 11.4424C12.2753 12.5974 13.2118 13.5349 14.3668 13.5352C15.5221 13.5351 16.4593 12.5976 16.4596 11.4424C16.4594 10.2871 15.5221 9.35062 14.3668 9.35059Z" fill="#555555"/>
<path fill-rule="evenodd" clip-rule="evenodd" d="M7.73597 2.73438C9.71941 2.73477 11.3286 4.34269 11.3287 6.32617C11.3287 8.29381 9.7453 9.89097 7.78383 9.91699L7.78187 9.91797L7.62855 9.93066C6.86037 10.0181 6.1046 10.4103 5.47719 11.0957C4.88944 11.7379 4.4523 12.599 4.23597 13.5762L4.15687 14.002L4.14808 14.0498L3.73207 15.96L3.71254 16.0342C3.59457 16.395 3.21944 16.6151 2.84047 16.5332C2.43585 16.4452 2.17943 16.0452 2.26722 15.6406L2.67933 13.7461C2.89605 12.3473 3.48164 11.0545 4.37074 10.083C4.71151 9.71073 5.09071 9.39231 5.49867 9.13672C4.67308 8.47838 4.14418 7.46407 4.14418 6.32617C4.14434 4.34255 5.75235 2.73454 7.73597 2.73438ZM7.73597 4.23438C6.58078 4.23454 5.64434 5.17098 5.64418 6.32617C5.64418 7.48151 6.58068 8.41878 7.73597 8.41895C8.89108 8.41855 9.82875 7.48137 9.82875 6.32617C9.82858 5.17112 8.89098 4.23477 7.73597 4.23438Z" fill="#555555"/>
</svg>
