<svg width="24" height="24" viewBox="0 0 24 24" fill="none" xmlns="http://www.w3.org/2000/svg">
<path d="M8.22582 19.1367C8.1145 19.5355 7.70087 19.7683 7.30199 19.6572C6.90297 19.5461 6.66935 19.1324 6.7805 18.7334L8.22582 19.1367ZM13.7991 11.4961C13.7989 10.5543 13.0194 9.77051 12.0325 9.77051C11.0457 9.77073 10.2661 10.5544 10.2659 11.4961C10.2659 12.4379 11.0455 13.2224 12.0325 13.2227C13.0196 13.2227 13.7991 12.4381 13.7991 11.4961ZM8.04613 8.22656C8.04613 7.28458 7.26664 6.5 6.27953 6.5C5.29261 6.50022 4.51292 7.28472 4.51292 8.22656C4.51312 9.16825 5.29273 9.95192 6.27953 9.95215C7.26652 9.95215 8.04594 9.16839 8.04613 8.22656ZM19.6223 8.22656C19.6223 7.28465 18.8427 6.50012 17.8557 6.5C16.8686 6.5 16.0891 7.28458 16.0891 8.22656C16.0893 9.16839 16.8687 9.95215 17.8557 9.95215C18.8426 9.95203 19.6221 9.16832 19.6223 8.22656ZM15.2991 11.4961C15.2991 12.4132 14.9117 13.2342 14.2952 13.8193C15.4648 14.4712 16.4241 15.6519 16.886 17.3066V17.3076L17.2834 18.7334C17.3946 19.1323 17.1617 19.5459 16.7629 19.6572C16.3641 19.7683 15.9505 19.5354 15.8391 19.1367L15.4416 17.71C14.8662 15.6485 13.4005 14.7286 12.0325 14.7285C10.7499 14.7285 9.38162 15.5372 8.74144 17.3369L8.62328 17.71L8.22582 19.1367L7.50316 18.9346L6.7805 18.7334L7.17796 17.3076V17.3066L7.25121 17.0625C7.73662 15.5353 8.65828 14.4387 9.76976 13.8193C9.15348 13.2342 8.76585 12.413 8.76585 11.4961C8.76606 9.70324 10.2402 8.27073 12.0325 8.27051C13.8249 8.27051 15.2989 9.7031 15.2991 11.4961ZM9.54613 8.22656C9.54594 9.97324 8.14757 11.3768 6.4182 11.4482C6.38076 11.4552 6.34221 11.4607 6.30296 11.4619L6.00511 11.4844C5.31481 11.5654 4.6573 11.8513 4.11449 12.3145C3.57123 12.778 3.16958 13.3962 2.95921 14.0928L2.88109 14.3965C2.87798 14.4109 2.8743 14.4252 2.87035 14.4395L2.47289 15.8662C2.36168 16.2651 1.94796 16.4987 1.54906 16.3877C1.15018 16.2766 0.916696 15.8628 1.02757 15.4639L1.42113 14.0508C1.67002 12.9267 2.2727 11.9146 3.14085 11.1738C3.41771 10.9376 3.71614 10.7326 4.03148 10.5625C3.40685 9.97661 3.01302 9.15045 3.01292 8.22656C3.01292 6.43353 4.48712 5.00023 6.27953 5C8.07212 5 9.54613 6.43339 9.54613 8.22656ZM21.1223 8.22656C21.1222 9.15051 20.7284 9.9766 20.1037 10.5625C20.4191 10.7326 20.7175 10.9376 20.9944 11.1738C21.8625 11.9146 22.4652 12.9267 22.7141 14.0508L23.1077 15.4639C23.2186 15.8628 22.9851 16.2766 22.5862 16.3877C22.1874 16.4985 21.7746 16.2649 21.6633 15.8662L21.2659 14.4395L21.2551 14.3965C21.0784 13.5764 20.6426 12.8443 20.0217 12.3145C19.4788 11.8512 18.8206 11.5654 18.1301 11.4844L17.8323 11.4619L17.7561 11.4561C17.7429 11.4543 17.73 11.4507 17.717 11.4482C15.9878 11.3767 14.5893 9.97317 14.5891 8.22656C14.5891 6.43339 16.0631 5 17.8557 5C19.6482 5.00012 21.1223 6.43347 21.1223 8.22656Z" fill="#555555"/>
</svg>
