<svg width="24" height="24" viewBox="0 0 24 24" fill="none" xmlns="http://www.w3.org/2000/svg">
<path fill-rule="evenodd" clip-rule="evenodd" d="M9.03027 3.25098C9.31407 3.2543 9.59752 3.30073 9.87012 3.3916L11.2373 3.84668L11.3086 3.875C11.6553 4.03102 11.8347 4.42748 11.7119 4.7959C11.5891 5.16419 11.2078 5.37405 10.8369 5.29102L10.7627 5.27051L9.75 4.93262V18.5127L14.25 20.0127V14C14.25 13.5858 14.5858 13.25 15 13.25C15.4142 13.25 15.75 13.5858 15.75 14V20.0127L20.0811 18.5684L20.1504 18.5322C20.2119 18.4864 20.2501 18.4136 20.25 18.334V13C20.25 12.5858 20.5858 12.25 21 12.25C21.4142 12.25 21.75 12.5858 21.75 13V18.3301L21.7451 18.4707C21.6946 19.1192 21.286 19.6868 20.6875 19.9414L20.5557 19.9912L15.5488 21.6611C15.1909 21.7804 14.8038 21.7795 14.4463 21.6592L9.0791 19.8701C9.05344 19.8616 9.0267 19.8574 9 19.8574L8.9209 19.8701L4.55371 21.3262C4.02007 21.5041 3.43291 21.4148 2.97656 21.0859C2.57729 20.7982 2.32074 20.3574 2.2627 19.875L2.25 19.666V6.6123C2.25019 5.85929 2.73192 5.19035 3.44629 4.95215L8.12988 3.3916L8.34375 3.3291C8.55093 3.2782 8.76268 3.25278 8.97461 3.25098C8.98304 3.2507 8.9915 3.25 9 3.25C9.01014 3.25 9.02023 3.25058 9.03027 3.25098ZM3.9209 6.37598C3.81904 6.41 3.75019 6.50494 3.75 6.6123V19.666L3.75684 19.7246C3.77068 19.7819 3.80478 19.8329 3.85352 19.8682C3.91869 19.9151 4.00288 19.9287 4.0791 19.9033L8.25 18.5127V4.93262L3.9209 6.37598Z" fill="#555555"/>
<path d="M17.5439 5.50293C18.0771 5.52606 18.5014 5.96458 18.5 6.50293C18.4984 7.05445 18.0505 7.50054 17.499 7.5C16.9819 7.49931 16.5562 7.10618 16.5049 6.60254L16.5 6.5C16.4996 6.23404 16.6054 5.97878 16.7939 5.79102L16.8682 5.72461C17.0437 5.58163 17.2632 5.50268 17.4912 5.50098C17.4954 5.50092 17.4997 5.49998 17.5039 5.5L17.5049 5.50098L17.5078 5.5L17.5439 5.50293Z" fill="#555555"/>
<path fill-rule="evenodd" clip-rule="evenodd" d="M17.5 2.25C19.8472 2.25 21.75 4.15279 21.75 6.5C21.75 7.57095 21.1787 8.58345 20.5742 9.37305C19.9537 10.1836 19.2062 10.8765 18.6758 11.3262C18.6719 11.3295 18.668 11.3327 18.6641 11.3359C17.9856 11.8876 17.0134 11.8876 16.335 11.3359C16.3309 11.3327 16.3262 11.3295 16.3223 11.3262C15.7925 10.8766 15.046 10.1834 14.4258 9.37305C13.8214 8.58348 13.25 7.57098 13.25 6.5C13.25 4.15279 15.1528 2.25 17.5 2.25ZM17.5 3.75C15.9812 3.75 14.75 4.98122 14.75 6.5C14.75 7.06751 15.0726 7.74938 15.6172 8.46094C16.1422 9.14687 16.7941 9.75797 17.2832 10.1738C17.4095 10.275 17.5884 10.2747 17.7148 10.1738C18.2044 9.75806 18.8574 9.14723 19.3828 8.46094C19.9275 7.74942 20.25 7.06749 20.25 6.5C20.25 4.98122 19.0188 3.75 17.5 3.75Z" fill="#555555"/>
</svg>
