<svg width="24" height="24" viewBox="0 0 24 24" fill="none" xmlns="http://www.w3.org/2000/svg">
<path d="M8.17034 1.7603C8.2219 1.75996 8.2219 1.75996 8.2745 1.75961C8.31208 1.75956 8.34965 1.75951 8.38837 1.75946C8.42843 1.75926 8.4685 1.75906 8.50978 1.75885C8.64442 1.75822 8.77907 1.75788 8.91372 1.75754C9.0101 1.75716 9.10648 1.75677 9.20287 1.75636C9.49234 1.75521 9.78183 1.75442 10.0713 1.75374C10.1531 1.75355 10.2349 1.75335 10.3167 1.75315C10.8247 1.75191 11.3328 1.75085 11.8408 1.75018C11.9584 1.75002 12.076 1.74986 12.1937 1.7497C12.2229 1.74966 12.2521 1.74962 12.2823 1.74957C12.7558 1.74889 13.2294 1.74725 13.703 1.74522C14.1894 1.74315 14.6757 1.74198 15.1621 1.74169C15.4351 1.74151 15.7082 1.74092 15.9812 1.73931C16.238 1.73779 16.4948 1.7375 16.7516 1.73803C16.8459 1.73803 16.9401 1.73761 17.0343 1.73676C17.1631 1.73565 17.2917 1.73603 17.4205 1.73678C17.4577 1.7361 17.4949 1.73543 17.5333 1.73474C17.8062 1.73868 17.9526 1.82209 18.1509 2.00572C18.2005 2.05033 18.2005 2.05033 18.2511 2.09585C18.2796 2.12426 18.308 2.15266 18.3373 2.18193C18.3705 2.21493 18.4038 2.24793 18.438 2.28193C18.4909 2.33511 18.4909 2.33511 18.5449 2.38937C18.5834 2.42769 18.6218 2.46599 18.6603 2.50428C18.7638 2.60749 18.8672 2.71095 18.9704 2.81447C19.0789 2.92311 19.1875 3.03156 19.2961 3.14003C19.4782 3.32204 19.6602 3.50421 19.8421 3.68648C20.0522 3.89697 20.2625 4.10718 20.473 4.31724C20.6542 4.49804 20.8352 4.67899 21.0161 4.86007C21.1239 4.96804 21.2318 5.07596 21.3398 5.18373C21.4413 5.28497 21.5426 5.3864 21.6437 5.48798C21.6984 5.54285 21.7533 5.59753 21.8083 5.6522C21.8409 5.68509 21.8736 5.71798 21.9072 5.75186C21.9498 5.79445 21.9498 5.79445 21.9932 5.8379C22.1479 6.01342 22.2031 6.14053 22.2034 6.37573C22.204 6.4527 22.204 6.4527 22.2045 6.53124C22.2043 6.5881 22.2041 6.64497 22.2039 6.70184C22.2041 6.76231 22.2043 6.82279 22.2046 6.88327C22.2053 7.04953 22.2052 7.21579 22.205 7.38205C22.2049 7.56135 22.2055 7.74064 22.2059 7.91994C22.2068 8.2713 22.207 8.62267 22.2069 8.97403C22.2068 9.25973 22.207 9.54543 22.2073 9.83113C22.2074 9.9134 22.2075 9.99568 22.2075 10.0779C22.2076 10.1394 22.2076 10.1394 22.2077 10.202C22.2084 10.9769 22.2084 11.7518 22.2081 12.5266C22.2079 13.235 22.2087 13.9434 22.21 14.6518C22.2114 15.3794 22.212 16.1069 22.2118 16.8345C22.2117 17.2429 22.2119 17.6512 22.2129 18.0596C22.2138 18.4075 22.2139 18.7553 22.2132 19.1031C22.2128 19.2805 22.2127 19.4579 22.2136 19.6352C22.2143 19.7979 22.2141 19.9605 22.2132 20.1231C22.2131 20.1817 22.2132 20.2403 22.2138 20.2988C22.219 20.8978 22.0562 21.3445 21.6452 21.7789C21.3468 22.0605 20.9577 22.2365 20.5491 22.2369C20.4996 22.2371 20.4502 22.2372 20.3992 22.2374C20.3442 22.2374 20.2892 22.2373 20.2342 22.2373C20.1759 22.2374 20.1175 22.2375 20.0592 22.2376C19.8986 22.238 19.738 22.238 19.5775 22.2381C19.4043 22.2381 19.2312 22.2384 19.0581 22.2387C18.6793 22.2393 18.3006 22.2395 17.9218 22.2397C17.6851 22.2398 17.4485 22.24 17.2118 22.2401C16.5562 22.2406 15.9006 22.241 15.245 22.2412C15.2031 22.2412 15.1611 22.2412 15.1179 22.2412C15.0758 22.2412 15.0337 22.2412 14.9904 22.2412C14.9051 22.2412 14.8199 22.2413 14.7346 22.2413C14.6923 22.2413 14.65 22.2413 14.6065 22.2413C13.9222 22.2415 13.238 22.2422 12.5537 22.2431C11.8507 22.244 11.1478 22.2445 10.4448 22.2446C10.0503 22.2446 9.6558 22.2448 9.26131 22.2456C8.92514 22.2462 8.58898 22.2464 8.25281 22.2461C8.08151 22.2459 7.9102 22.2459 7.7389 22.2465C7.58159 22.247 7.42429 22.247 7.26699 22.2465C7.21054 22.2464 7.1541 22.2465 7.09766 22.2469C6.54035 22.2501 5.99301 22.1712 5.46475 21.9893C5.43 21.9775 5.39524 21.9657 5.35944 21.9535C4.60408 21.6851 3.9818 21.2607 3.40118 20.7127C3.37171 20.6858 3.34223 20.6589 3.31187 20.6312C2.60699 19.9638 2.17801 19.0793 1.92221 18.1545C1.91453 18.1275 1.90685 18.1005 1.89894 18.0726C1.54117 16.746 1.84948 15.247 2.50899 14.0723C2.73224 13.6907 3.01859 13.3588 3.32124 13.0381C3.34813 13.0086 3.37503 12.9791 3.40274 12.9487C3.96459 12.3553 4.6964 11.9437 5.46475 11.6815C5.51183 11.6653 5.51183 11.6653 5.55986 11.6487C5.7814 11.5779 6.00439 11.5346 6.23318 11.4954C6.26458 11.49 6.29598 11.4845 6.32834 11.4789C6.40521 11.4656 6.48209 11.4524 6.55899 11.4392C6.55901 11.397 6.55903 11.3548 6.55905 11.3114C6.55963 10.2841 6.56135 9.25687 6.56427 8.2296C6.56565 7.73282 6.56667 7.23604 6.5668 6.73926C6.56693 6.30612 6.56775 5.87299 6.5694 5.43985C6.57025 5.21064 6.57076 4.98143 6.57043 4.75221C6.57012 4.53616 6.57076 4.32013 6.5721 4.10408C6.57243 4.02508 6.57242 3.94608 6.57204 3.86708C6.56916 3.20147 6.66878 2.71865 7.14186 2.2187C7.41188 1.96379 7.79457 1.76175 8.17034 1.7603ZM7.91804 3.24486C7.78252 3.44815 7.79234 3.64915 7.79305 3.88735C7.79299 3.91965 7.79293 3.95195 7.79286 3.98522C7.7927 4.09333 7.79283 4.20144 7.79295 4.30955C7.7929 4.38709 7.79283 4.46464 7.79274 4.54218C7.79256 4.75268 7.79263 4.96318 7.79276 5.17368C7.79286 5.39372 7.79276 5.61376 7.7927 5.83381C7.79263 6.20316 7.79273 6.57252 7.79292 6.94188C7.79313 7.3695 7.79306 7.79712 7.79284 8.22474C7.79266 8.5915 7.79263 8.95826 7.79274 9.32503C7.7928 9.54426 7.79281 9.76349 7.79268 9.98272C7.79256 10.1886 7.79264 10.3945 7.79287 10.6004C7.79293 10.6762 7.79291 10.752 7.79282 10.8278C7.79272 10.9308 7.79285 11.0338 7.79305 11.1368C7.79296 11.1671 7.79287 11.1975 7.79278 11.2288C7.78104 11.3655 7.78104 11.3655 7.8381 11.4791C7.90549 11.4903 7.97293 11.5012 8.04052 11.511C8.64503 11.6017 9.21685 11.7923 9.75926 12.0737C9.80269 12.0961 9.80269 12.0961 9.847 12.119C9.98104 12.192 10.0985 12.2616 10.2103 12.3668C10.5825 12.7044 10.9377 12.6881 11.4217 12.6809C11.5045 12.681 11.5874 12.6813 11.6702 12.6817C11.8939 12.6824 12.1176 12.6808 12.3413 12.6789C12.5758 12.6774 12.8103 12.6779 13.0448 12.6783C13.4885 12.6787 13.9321 12.6773 14.3758 12.6753C15.1712 12.6716 15.9666 12.671 16.762 12.6709C17.041 12.6708 17.3201 12.67 17.5992 12.6685C17.7725 12.6677 17.9458 12.6673 18.1191 12.6671C18.1995 12.6668 18.2799 12.6664 18.3604 12.6658C18.47 12.6649 18.5797 12.6648 18.6893 12.6648C18.7372 12.6641 18.7372 12.6641 18.786 12.6635C18.9683 12.6644 19.0854 12.6851 19.2302 12.7982C19.3435 12.9447 19.3665 13.0545 19.3651 13.2379C19.3654 13.2783 19.3657 13.3187 19.366 13.3603C19.3475 13.4971 19.3145 13.5686 19.2302 13.6776C19.0672 13.8009 18.9266 13.8148 18.7286 13.8135C18.6985 13.8137 18.6685 13.814 18.6376 13.8143C18.5371 13.815 18.4366 13.8149 18.3361 13.8148C18.2641 13.8152 18.192 13.8156 18.1199 13.816C17.9242 13.8171 17.7286 13.8175 17.533 13.8178C17.3285 13.8181 17.124 13.8192 16.9195 13.8202C16.5323 13.8219 16.1452 13.823 15.758 13.824C15.3172 13.825 14.8764 13.8268 14.4356 13.8286C13.5289 13.8323 12.6221 13.8352 11.7154 13.8375C11.737 13.8775 11.7586 13.9175 11.7808 13.9586C11.8096 14.0123 11.8384 14.0659 11.8672 14.1195C11.8813 14.1457 11.8955 14.1719 11.9101 14.1989C12.2129 14.7637 12.4163 15.3444 12.5168 15.9772C12.5285 16.1184 12.5285 16.1184 12.5948 16.2358C12.6773 16.2399 12.76 16.2412 12.8426 16.2414C12.8687 16.2415 12.8949 16.2416 12.9219 16.2417C13.0102 16.242 13.0986 16.2421 13.1869 16.2421C13.25 16.2423 13.3131 16.2425 13.3762 16.2428C13.5124 16.2432 13.6486 16.2435 13.7847 16.2438C14.0001 16.2442 14.2154 16.245 14.4307 16.2459C15.0431 16.2484 15.6555 16.2506 16.2679 16.2519C16.6059 16.2526 16.9438 16.2538 17.2818 16.2554C17.4607 16.2562 17.6396 16.2569 17.8186 16.2569C17.987 16.257 18.1553 16.2577 18.3237 16.2587C18.3855 16.259 18.4473 16.2591 18.5091 16.259C18.5935 16.2588 18.6778 16.2594 18.7622 16.2601C18.8331 16.2603 18.8331 16.2603 18.9053 16.2605C19.0441 16.2775 19.1185 16.3132 19.2302 16.3957C19.3435 16.5422 19.3665 16.652 19.3651 16.8354C19.3654 16.8758 19.3657 16.9162 19.366 16.9578C19.3475 17.0946 19.3145 17.1661 19.2302 17.2751C19.0717 17.3922 18.9572 17.4102 18.762 17.411C18.7223 17.4114 18.7223 17.4114 18.6818 17.4118C18.5935 17.4125 18.5052 17.4124 18.4169 17.4123C18.3534 17.4127 18.29 17.4131 18.2266 17.4135C18.0546 17.4146 17.8826 17.415 17.7105 17.4153C17.5307 17.4156 17.3509 17.4167 17.171 17.4177C16.8306 17.4194 16.4901 17.4205 16.1497 17.4215C15.762 17.4226 15.3744 17.4243 14.9868 17.4261C14.1894 17.4298 13.3921 17.4327 12.5948 17.435C12.5823 17.4845 12.5698 17.534 12.557 17.5851C12.5464 17.6268 12.5464 17.6268 12.5357 17.6695C12.516 17.7501 12.4979 17.831 12.4805 17.9122C12.2145 19.1404 11.6112 20.0768 10.7161 20.9526C10.6897 20.9789 10.6633 21.0053 10.6362 21.0325C11.8739 21.0343 13.1116 21.0357 14.3494 21.0366C14.4955 21.0367 14.6417 21.0368 14.7878 21.0369C14.8315 21.0369 14.8315 21.0369 14.876 21.037C15.347 21.0373 15.818 21.0379 16.289 21.0387C16.7724 21.0394 17.2558 21.0399 17.7391 21.04C18.0373 21.0401 18.3356 21.0405 18.6338 21.0411C18.8625 21.0416 19.0912 21.0417 19.32 21.0415C19.4138 21.0416 19.5076 21.0417 19.6014 21.042C19.7294 21.0424 19.8574 21.0423 19.9855 21.0421C20.0226 21.0424 20.0597 21.0426 20.098 21.0428C20.3584 21.0416 20.5771 21.0323 20.7816 20.8551C20.9665 20.6385 20.994 20.4765 20.9939 20.198C20.994 20.127 20.994 20.127 20.9941 20.0546C20.9939 19.9768 20.9939 19.9768 20.9938 19.8975C20.9938 19.8418 20.9938 19.786 20.9939 19.7303C20.994 19.5771 20.9938 19.424 20.9936 19.2709C20.9934 19.1057 20.9935 18.9406 20.9935 18.7754C20.9935 18.4893 20.9934 18.2032 20.9932 17.9171C20.9929 17.5034 20.9928 17.0897 20.9927 16.676C20.9926 16.0049 20.9924 15.3337 20.992 14.6626C20.9916 14.0106 20.9913 13.3586 20.9912 12.7066C20.9912 12.6664 20.9911 12.6262 20.9911 12.5848C20.9911 12.3832 20.991 12.1816 20.991 11.98C20.9906 10.3074 20.9899 8.63486 20.989 6.96228C20.9438 6.96204 20.8987 6.96181 20.8522 6.96157C20.427 6.95928 20.0017 6.95637 19.5765 6.95285C19.3579 6.95107 19.1393 6.9495 18.9207 6.94843C18.7097 6.94739 18.4987 6.94578 18.2878 6.94376C18.2073 6.94309 18.1268 6.94264 18.0463 6.94239C17.9335 6.942 17.8208 6.94088 17.7081 6.93959C17.6748 6.93964 17.6415 6.9397 17.6072 6.93976C17.4237 6.93678 17.2979 6.92499 17.1516 6.80239C17.0066 6.62938 17.0141 6.46121 17.0144 6.24593C17.0138 6.19267 17.0138 6.19267 17.0132 6.13833C17.012 6.02132 17.0116 5.90433 17.0113 5.78731C17.0106 5.70604 17.0099 5.62478 17.0091 5.54351C17.0072 5.32988 17.006 5.11625 17.0049 4.90261C17.0038 4.6845 17.0019 4.4664 17.0001 4.2483C16.9967 3.82056 16.994 3.39281 16.9917 2.96505C15.8761 2.96319 14.7604 2.96178 13.6447 2.96091C13.1266 2.9605 12.6086 2.95994 12.0906 2.95902C11.6391 2.95823 11.1876 2.95771 10.7361 2.95753C10.497 2.95743 10.258 2.95718 10.0189 2.9566C9.79384 2.95606 9.56881 2.95589 9.34378 2.95601C9.26119 2.95599 9.17861 2.95583 9.09603 2.95552C8.98322 2.95512 8.87043 2.95522 8.75762 2.95544C8.725 2.95521 8.69237 2.95497 8.65876 2.95473C8.34917 2.95635 8.12703 3.00004 7.91804 3.24486ZM18.1909 3.88441C18.1909 4.50438 18.1909 5.12435 18.1909 5.76311C18.8109 5.76311 19.4308 5.76311 20.0696 5.76311C19.8682 5.52776 19.8682 5.52776 19.6564 5.30477C19.6245 5.27278 19.5927 5.24079 19.5598 5.20783C19.5262 5.1743 19.4926 5.14077 19.458 5.10622C19.4229 5.07113 19.3879 5.03604 19.3518 4.99988C19.2781 4.92623 19.2045 4.85263 19.1308 4.77908C19.055 4.70351 18.9794 4.62789 18.9038 4.55216C18.7947 4.44278 18.6854 4.33353 18.5761 4.22433C18.5421 4.19024 18.5081 4.15614 18.473 4.12101C18.4418 4.08991 18.4106 4.0588 18.3784 4.02675C18.3508 3.99919 18.3232 3.97163 18.2948 3.94323C18.2405 3.8799 18.2405 3.8799 18.1909 3.88441ZM4.12068 13.9974C3.30491 14.8724 2.99645 15.9526 3.02628 17.1258C3.05258 17.7157 3.21599 18.2297 3.48112 18.7541C3.50251 18.7964 3.52389 18.8387 3.54592 18.8823C4.07763 19.8552 5.02779 20.5717 6.08432 20.8851C7.225 21.1602 8.3341 21.0072 9.35704 20.4329C9.5282 20.3268 9.68351 20.2036 9.83671 20.0732C9.87098 20.0449 9.90524 20.0166 9.94055 19.9874C10.6983 19.3374 11.2412 18.394 11.3557 17.395C11.4454 16.2159 11.2157 15.1127 10.4363 14.1973C10.408 14.163 10.3797 14.1287 10.3506 14.0934C9.61316 13.2338 8.58159 12.7484 7.46086 12.6433C6.16805 12.5866 5.02247 13.0836 4.12068 13.9974Z" fill="#555555"/>
<path d="M10.1338 9.02511C10.1717 9.0249 10.2095 9.02468 10.2485 9.02446C10.3755 9.02389 10.5025 9.02417 10.6295 9.02446C10.7205 9.02423 10.8115 9.02395 10.9025 9.02362C11.1498 9.02291 11.397 9.02295 11.6443 9.02318C11.8506 9.02331 12.0569 9.02306 12.2633 9.02282C12.7778 9.02223 13.2923 9.02237 13.8068 9.02286C14.2536 9.02325 14.7003 9.02274 15.147 9.02178C15.6059 9.0208 16.0647 9.02044 16.5235 9.02069C16.7811 9.02082 17.0386 9.02072 17.2962 9.02004C17.5384 9.01942 17.7805 9.01958 18.0227 9.02033C18.1116 9.02048 18.2005 9.02035 18.2894 9.01993C18.4107 9.01941 18.532 9.01987 18.6533 9.02057C18.7062 9.02 18.7062 9.02 18.7601 9.01941C18.9769 9.02201 19.1008 9.05616 19.2727 9.2005C19.4348 9.40925 19.4236 9.62634 19.3926 9.88002C19.3058 10.0633 19.2152 10.1547 19.0329 10.2398C18.908 10.2572 18.7843 10.2561 18.6584 10.2553C18.6205 10.2555 18.5826 10.2557 18.5436 10.2559C18.4166 10.2565 18.2897 10.2562 18.1627 10.2559C18.0717 10.2562 17.9807 10.2564 17.8897 10.2568C17.6424 10.2575 17.3952 10.2574 17.1479 10.2572C16.9416 10.2571 16.7352 10.2573 16.5289 10.2576C16.0144 10.2582 15.4999 10.258 14.9854 10.2575C14.5386 10.2571 14.0919 10.2576 13.6451 10.2586C13.1863 10.2596 12.7275 10.2599 12.2686 10.2597C12.0111 10.2596 11.7535 10.2597 11.496 10.2603C11.2538 10.261 11.0117 10.2608 10.7695 10.2601C10.6806 10.2599 10.5917 10.26 10.5028 10.2604C10.3814 10.261 10.2602 10.2605 10.1389 10.2598C10.1036 10.2602 10.0684 10.2606 10.0321 10.261C9.81531 10.2584 9.69139 10.2242 9.51947 10.0799C9.35733 9.87113 9.36862 9.65404 9.39956 9.40036C9.56063 9.06031 9.78995 9.02277 10.1338 9.02511Z" fill="#555555"/>
<path d="M7.4423 13.8373C7.62529 13.924 7.72054 14.013 7.80205 14.197C7.81866 14.3523 7.81598 14.5065 7.81376 14.6625C7.81359 14.7075 7.81342 14.7524 7.81325 14.7988C7.81258 14.9421 7.81107 15.0855 7.80955 15.2288C7.80895 15.3261 7.8084 15.4234 7.80791 15.5207C7.80659 15.759 7.80458 15.9973 7.80205 16.2356C7.85647 16.2344 7.85647 16.2344 7.912 16.2331C8.04743 16.2303 8.18284 16.2283 8.3183 16.2268C8.37676 16.226 8.43523 16.2249 8.49368 16.2236C8.57803 16.2216 8.66234 16.2207 8.74671 16.22C8.79737 16.2192 8.84802 16.2183 8.90022 16.2175C9.10392 16.2437 9.22986 16.3296 9.35488 16.4906C9.43834 16.6804 9.42569 16.8721 9.40094 17.075C9.31418 17.2582 9.22508 17.3528 9.04119 17.4348C8.88599 17.4532 8.73156 17.4525 8.57542 17.4521C8.53014 17.4523 8.48485 17.4525 8.4382 17.4528C8.34254 17.453 8.24689 17.453 8.15123 17.4526C8.00507 17.4523 7.85897 17.4534 7.71282 17.4547C7.61978 17.4548 7.52675 17.4547 7.43371 17.4546C7.39011 17.4551 7.34651 17.4555 7.30159 17.456C7.06353 17.4538 6.90523 17.4447 6.7228 17.2749C6.60229 17.112 6.5876 16.9927 6.58673 16.792C6.58646 16.7642 6.58619 16.7365 6.5859 16.708C6.58517 16.6168 6.58533 16.5256 6.58555 16.4344C6.58537 16.3707 6.58516 16.3071 6.58492 16.2434C6.58456 16.1101 6.58466 15.9768 6.58506 15.8435C6.58552 15.673 6.58471 15.5026 6.58354 15.3321C6.58281 15.2007 6.58282 15.0692 6.58305 14.9378C6.58305 14.875 6.58281 14.8121 6.58232 14.7493C6.58172 14.6613 6.58215 14.5733 6.58283 14.4853C6.58284 14.4353 6.58284 14.3853 6.58285 14.3338C6.61218 14.1336 6.6992 14.0066 6.85786 13.8833C7.04771 13.7999 7.23934 13.8125 7.4423 13.8373Z" fill="#555555"/>
</svg>
