<svg width="24" height="24" viewBox="0 0 24 24" fill="none" xmlns="http://www.w3.org/2000/svg">
<path fill-rule="evenodd" clip-rule="evenodd" d="M17.4648 3.00098C18.2697 3.00092 19.042 3.31962 19.6113 3.88867C20.1806 4.45787 20.5009 5.2301 20.501 6.03516V13.9082L20.4863 14.209C20.4175 14.9038 20.1102 15.5575 19.6123 16.0557C19.0432 16.625 18.2708 16.9451 17.4658 16.9453H14.3779L14.6348 19.001H15.1807L15.2568 19.0049C15.6352 19.0431 15.9306 19.3626 15.9307 19.751C15.9305 20.1393 15.6351 20.4588 15.2568 20.4971L15.1807 20.501H8.32324C7.90925 20.5008 7.5734 20.165 7.57324 19.751C7.57331 19.3369 7.90919 19.0011 8.32324 19.001H8.86719L9.125 16.9453H6.03516C4.35903 16.9451 3.00028 15.5863 3 13.9102V6.03516C3.00016 4.35896 4.35896 3.00016 6.03516 3L17.4648 3.00098ZM10.3799 19.001H13.123L12.8652 16.9453H10.6367L10.3799 19.001ZM4.5 13.9102C4.50028 14.7578 5.18746 15.4451 6.03516 15.4453H17.4658C17.8729 15.4451 18.264 15.283 18.5518 14.9951C18.8394 14.7071 19.0011 14.3163 19.001 13.9092V13.3896H4.5V13.9102ZM6.03516 4.5C5.18739 4.50016 4.50016 5.18739 4.5 6.03516V11.8896H19.001V6.03516C19.0009 5.62803 18.8387 5.2371 18.5508 4.94922C18.2987 4.69737 17.9677 4.54258 17.6162 4.50781L17.4648 4.5H6.03516Z" fill="#555555"/>
</svg>
