<svg width="24" height="24" viewBox="0 0 24 24" fill="none" xmlns="http://www.w3.org/2000/svg">
<path d="M12.0254 1.25098C12.0319 1.2512 12.0384 1.25156 12.0449 1.25195C12.0839 1.25426 12.122 1.25954 12.1592 1.26758C12.1925 1.2748 12.2246 1.28607 12.2568 1.29785C12.2693 1.30242 12.2828 1.30437 12.2949 1.30957C12.314 1.31772 12.3311 1.33004 12.3496 1.33984C12.3734 1.35248 12.3977 1.36387 12.4199 1.37891C12.4588 1.40524 12.4959 1.43532 12.5303 1.46973L15.5303 4.46973L15.582 4.52637C15.8223 4.82095 15.8049 5.25567 15.5303 5.53027C15.2557 5.80488 14.8209 5.82234 14.5264 5.58203L14.4697 5.53027L12.75 3.81055V11.25H20.1895L18.4697 9.53027L18.418 9.47363C18.1777 9.17905 18.1951 8.74433 18.4697 8.46973C18.7443 8.19512 19.1791 8.17766 19.4736 8.41797L19.5303 8.46973L22.5303 11.4697L22.582 11.5264C22.5902 11.5364 22.5959 11.5482 22.6035 11.5586C22.6149 11.5741 22.6256 11.59 22.6357 11.6064C22.6506 11.6304 22.6639 11.6546 22.6758 11.6797C22.6844 11.6979 22.692 11.7164 22.6992 11.7354C22.7096 11.763 22.7176 11.7909 22.7246 11.8193C22.7296 11.8394 22.7359 11.8592 22.7393 11.8799C22.741 11.891 22.7429 11.902 22.7441 11.9131C22.7474 11.9416 22.75 11.9706 22.75 12C22.75 12.0085 22.7483 12.0169 22.748 12.0254C22.7478 12.0319 22.7475 12.0384 22.7471 12.0449C22.7448 12.084 22.7395 12.122 22.7314 12.1592C22.7242 12.1925 22.713 12.2246 22.7012 12.2568C22.6966 12.2693 22.6947 12.2827 22.6895 12.2949C22.6529 12.3804 22.6 12.4605 22.5303 12.5303L19.5303 15.5303C19.2374 15.8232 18.7626 15.8232 18.4697 15.5303C18.1768 15.2374 18.1768 14.7626 18.4697 14.4697L20.1895 12.75H12.75V20.1895L14.4697 18.4697C14.7626 18.1768 15.2374 18.1768 15.5303 18.4697C15.8232 18.7626 15.8232 19.2374 15.5303 19.5303L12.5303 22.5303C12.4817 22.5789 12.4261 22.616 12.3691 22.6484C12.342 22.6639 12.3153 22.6803 12.2861 22.6924C12.2541 22.7056 12.2208 22.7141 12.1875 22.7227C12.1744 22.7261 12.1618 22.7317 12.1484 22.7344C12.1429 22.7355 12.1374 22.7363 12.1318 22.7373C12.089 22.7449 12.045 22.75 12 22.75C11.9546 22.75 11.9103 22.745 11.8672 22.7373C11.8617 22.7363 11.8561 22.7355 11.8506 22.7344C11.8372 22.7317 11.8246 22.7261 11.8115 22.7227C11.7783 22.714 11.7449 22.7057 11.7129 22.6924C11.6838 22.6803 11.657 22.664 11.6299 22.6484C11.5732 22.616 11.5181 22.5787 11.4697 22.5303L8.46973 19.5303L8.41797 19.4736C8.17766 19.1791 8.19512 18.7443 8.46973 18.4697C8.74433 18.1951 9.17905 18.1777 9.47363 18.418L9.53027 18.4697L11.25 20.1895V12.75H3.81055L5.53027 14.4697L5.58203 14.5264C5.82234 14.8209 5.80488 15.2557 5.53027 15.5303C5.25567 15.8049 4.82095 15.8223 4.52637 15.582L4.46973 15.5303L1.46973 12.5303C1.421 12.4816 1.3831 12.4263 1.35059 12.3691C1.33512 12.342 1.31868 12.3153 1.30664 12.2861C1.28603 12.2361 1.27106 12.1844 1.26172 12.1318C1.25413 12.089 1.25 12.045 1.25 12C1.25 11.9547 1.25402 11.9103 1.26172 11.8672C1.27082 11.8164 1.28505 11.7662 1.30469 11.7178L1.30859 11.708C1.32018 11.6806 1.33596 11.6555 1.35059 11.6299C1.38303 11.573 1.42121 11.5182 1.46973 11.4697L4.46973 8.46973C4.76262 8.17683 5.23738 8.17683 5.53027 8.46973C5.82317 8.76262 5.82317 9.23738 5.53027 9.53027L3.81055 11.25H11.25V3.81055L9.53027 5.53027C9.23738 5.82317 8.76262 5.82317 8.46973 5.53027C8.17683 5.23738 8.17683 4.76262 8.46973 4.46973L11.4697 1.46973L11.5264 1.41797C11.5366 1.40965 11.5481 1.40321 11.5586 1.39551C11.5741 1.38414 11.59 1.37345 11.6064 1.36328C11.6303 1.34849 11.6546 1.3351 11.6797 1.32324C11.6979 1.31462 11.7164 1.30697 11.7354 1.2998C11.7629 1.28942 11.7909 1.28144 11.8193 1.27441C11.8394 1.26944 11.8592 1.26309 11.8799 1.25977C11.8909 1.25799 11.902 1.25616 11.9131 1.25488C11.9416 1.25159 11.9706 1.25 12 1.25C12.0085 1.25 12.017 1.2507 12.0254 1.25098Z" fill="#555555"/>
</svg>
