<svg width="24" height="24" viewBox="0 0 24 24" fill="none" xmlns="http://www.w3.org/2000/svg">
<path d="M11 11L13 13" stroke="#555555" stroke-width="1.5" stroke-linecap="round"/>
<path d="M13 11L11 13" stroke="#555555" stroke-width="1.5" stroke-linecap="round"/>
<path d="M15 11L17 13" stroke="#555555" stroke-width="1.5" stroke-linecap="round"/>
<path d="M17 11L15 13" stroke="#555555" stroke-width="1.5" stroke-linecap="round"/>
<path d="M7 11L9 13" stroke="#555555" stroke-width="1.5" stroke-linecap="round"/>
<path d="M9 11L7 13" stroke="#555555" stroke-width="1.5" stroke-linecap="round"/>
<path d="M7 7H5C4.44772 7 4 7.44772 4 8V16C4 16.5523 4.44772 17 5 17H7" stroke="#555555" stroke-width="1.5" stroke-linecap="round"/>
<path d="M17 7H19C19.5523 7 20 7.44772 20 8V16C20 16.5523 19.5523 17 19 17H17" stroke="#555555" stroke-width="1.5" stroke-linecap="round"/>
</svg>
