<svg width="24" height="24" viewBox="0 0 24 24" fill="none" xmlns="http://www.w3.org/2000/svg">
<path d="M4.00195 19.4087V4.46729C4.00207 3.77913 4.27511 3.11893 4.76172 2.63232C5.24832 2.14572 5.90853 1.87268 6.59668 1.87256H14.8672L15.0664 1.88428C15.264 1.90815 15.4562 1.9677 15.6338 2.06006C15.8707 2.18326 16.0743 2.36194 16.2275 2.58057L20.0977 8.10791L20.167 8.21533C20.318 8.47075 20.3984 8.76275 20.3984 9.06104V19.4087C20.3984 20.097 20.1244 20.7569 19.6377 21.2437C19.151 21.7303 18.491 22.0044 17.8027 22.0044H6.59668C5.90853 22.0043 5.24832 21.7303 4.76172 21.2437C4.27519 20.757 4.00195 20.0969 4.00195 19.4087ZM11.9092 8.58154C12.1172 8.37348 12.4303 8.3118 12.7021 8.42432C12.974 8.53694 13.1514 8.80189 13.1514 9.09619V14.8647H14.0479L14.1943 14.8794C14.5261 14.9471 14.7754 15.2405 14.7754 15.5923C14.7754 15.9441 14.5261 16.2375 14.1943 16.3052L14.0479 16.3198H10.7998C10.398 16.3197 10.0723 15.9941 10.0723 15.5923C10.0723 15.1905 10.3981 14.8649 10.7998 14.8647H11.6963V10.853L11.3145 11.2349C11.0303 11.5189 10.5693 11.519 10.2852 11.2349C10.0011 10.9507 10.0011 10.4897 10.2852 10.2056L11.9092 8.58154ZM5.45703 19.4087C5.45703 19.711 5.57723 20.0015 5.79102 20.2153C6.00468 20.4289 6.2946 20.5482 6.59668 20.5483H17.8027C18.1051 20.5483 18.3956 20.4291 18.6094 20.2153C18.8232 20.0015 18.9434 19.711 18.9434 19.4087V9.06104C18.9434 9.03974 18.94 9.0186 18.9336 8.99854L18.9053 8.94287L15.0361 3.41553C15.0171 3.3884 14.9913 3.36636 14.9619 3.35107C14.9473 3.34348 14.9319 3.33738 14.916 3.3335L14.8672 3.32764H6.59668C6.2945 3.32776 6.0047 3.44794 5.79102 3.66162C5.57733 3.8753 5.45715 4.1651 5.45703 4.46729V19.4087Z" fill="#555555"/>
</svg>
