<svg width="24" height="24" viewBox="0 0 24 24" fill="none" xmlns="http://www.w3.org/2000/svg">
<path d="M13.042 15.8906C13.041 16.1847 12.9313 16.4668 12.7363 16.6748C12.5413 16.8828 12.2767 17.0008 12.001 17.002C11.8644 17.002 11.7278 16.9726 11.6016 16.917C11.4755 16.8613 11.3602 16.7796 11.2637 16.6768C11.1671 16.5737 11.0904 16.4501 11.0381 16.3154C10.9859 16.1809 10.959 16.0363 10.959 15.8906H13.042Z" fill="#555555"/>
<path fill-rule="evenodd" clip-rule="evenodd" d="M12.001 6.16699C12.2078 6.16722 12.4064 6.25516 12.5527 6.41113C12.6989 6.56728 12.7821 6.77936 12.7822 7V7.37695C13.4941 7.58074 14.1174 8.04308 14.5449 8.68359C14.9722 9.32412 15.1785 10.1036 15.126 10.8877V13.668L16.167 14.7783V15.334H7.83398V14.7783L8.87598 13.666V10.8877C8.8287 10.2012 8.9796 9.51805 9.30469 8.92871L9.4541 8.68262C9.882 8.04174 10.5068 7.57991 11.2197 7.37793V7C11.2198 6.77913 11.3018 6.56733 11.4482 6.41113C11.5948 6.25485 11.7938 6.16699 12.001 6.16699ZM11.5596 8.58105C11.1453 8.69857 10.764 8.97197 10.4941 9.37598C10.2233 9.78173 10.0876 10.2869 10.123 10.8018L10.126 10.8447V14.084H13.876V10.8457L13.8779 10.8047C13.9125 10.2892 13.7769 9.78329 13.5059 9.37695C13.2357 8.97218 12.8534 8.69796 12.4385 8.5791L12.0049 8.4541L11.5596 8.58105Z" fill="#555555"/>
<path fill-rule="evenodd" clip-rule="evenodd" d="M12 2C17.5228 2 22 6.47715 22 12C22 17.5228 17.5228 22 12 22C6.47715 22 2 17.5228 2 12C2 6.47715 6.47715 2 12 2ZM12 3.25C7.16751 3.25 3.25 7.16751 3.25 12C3.25 16.8325 7.16751 20.75 12 20.75C16.8325 20.75 20.75 16.8325 20.75 12C20.75 7.16751 16.8325 3.25 12 3.25Z" fill="#555555"/>
</svg>
