<svg width="24" height="24" viewBox="0 0 24 24" fill="none" xmlns="http://www.w3.org/2000/svg">
<g clip-path="url(#clip0_4_686)">
<path d="M7.8584 10.2539C8.23679 10.2921 8.53223 10.6115 8.53223 11C8.53223 11.3885 8.23679 11.7079 7.8584 11.7461L7.78223 11.75H4.09473C4.08914 11.75 4.07418 11.7516 4.04785 11.7666C4.01933 11.7829 3.9754 11.8171 3.92773 11.8828C3.82846 12.0197 3.75005 12.2433 3.75 12.5088V19.4912C3.75005 19.7567 3.82846 19.9803 3.92773 20.1172C3.9754 20.1829 4.01933 20.2171 4.04785 20.2334C4.07418 20.2484 4.08914 20.25 4.09473 20.25H12.8232C12.8285 20.25 12.8441 20.2488 12.8711 20.2334C12.8996 20.217 12.9437 20.1827 12.9912 20.1172C13.0656 20.0145 13.1286 19.863 13.1553 19.6816L13.1689 19.4912V16.2041C13.1689 15.7899 13.5047 15.4541 13.9189 15.4541C14.333 15.4543 14.6689 15.79 14.6689 16.2041V19.4912L14.6611 19.6914C14.6278 20.1595 14.4774 20.6226 14.2051 20.998C13.9304 21.3765 13.5236 21.6683 13.0371 21.7354L12.8232 21.75H4.09473C3.51379 21.7498 3.02776 21.4306 2.71387 20.998C2.40266 20.5691 2.25005 20.0257 2.25 19.4912V12.5088C2.25005 11.9743 2.40266 11.4309 2.71387 11.002C3.02776 10.5694 3.51379 10.2502 4.09473 10.25H7.78223L7.8584 10.2539Z" fill="#555555"/>
<path d="M10.8408 17.1621C11.2189 17.2007 11.5137 17.52 11.5137 17.9082C11.5134 18.2962 11.2187 18.6158 10.8408 18.6543L10.7637 18.6582H5.72949C5.31544 18.6582 4.97976 18.3222 4.97949 17.9082C4.97949 17.494 5.31528 17.1582 5.72949 17.1582H10.7637L10.8408 17.1621Z" fill="#555555"/>
<path d="M9.49219 13.9014C9.87022 13.9399 10.166 14.2592 10.166 14.6475C10.166 15.0357 9.87022 15.355 9.49219 15.3936L9.41602 15.3975H5.63965C5.22543 15.3975 4.88965 15.0617 4.88965 14.6475C4.88965 14.2332 5.22543 13.8975 5.63965 13.8975H9.41602L9.49219 13.9014Z" fill="#555555"/>
<path d="M14.7393 3.25391C15.1176 3.29216 15.4131 3.61156 15.4131 4C15.4131 4.38844 15.1176 4.70784 14.7393 4.74609L14.6631 4.75H11.2832C11.2873 4.74999 11.2822 4.74851 11.2656 4.75781C11.2476 4.76792 11.2148 4.79229 11.1768 4.84375C11.0967 4.95206 11.0293 5.13569 11.0293 5.3584V11.6416L11.041 11.8008C11.0636 11.9515 11.1167 12.075 11.1768 12.1562C11.2148 12.2077 11.2476 12.2321 11.2656 12.2422C11.2822 12.2515 11.2873 12.25 11.2832 12.25H19.2842C19.28 12.25 19.2851 12.2515 19.3018 12.2422C19.3198 12.2321 19.3526 12.2077 19.3906 12.1562C19.4507 12.075 19.5038 11.9515 19.5264 11.8008L19.5381 11.6416V8.68359C19.5381 8.26938 19.8739 7.93359 20.2881 7.93359C20.7023 7.93364 21.0381 8.26941 21.0381 8.68359V11.6416L21.0312 11.8291C20.9995 12.265 20.856 12.697 20.5967 13.0479C20.3347 13.4022 19.948 13.674 19.4863 13.7363L19.2842 13.75H11.2832C10.7323 13.75 10.2691 13.4529 9.96973 13.0479C9.71054 12.6971 9.56788 12.2649 9.53613 11.8291L9.5293 11.6416V5.3584C9.5293 4.86083 9.67342 4.35319 9.96973 3.95215C10.2691 3.54713 10.7323 3.25 11.2832 3.25H14.6631L14.7393 3.25391Z" fill="#555555"/>
<path fill-rule="evenodd" clip-rule="evenodd" d="M18.8848 2.51953C18.9739 2.52922 19.0619 2.54893 19.1465 2.57715L19.2705 2.62598L19.3887 2.6875C19.4642 2.732 19.5353 2.78381 19.5996 2.8418L19.6914 2.93457L19.6992 2.94238L20.624 3.99219L20.6289 3.99707L20.7051 4.09473C20.8482 4.29534 20.9327 4.53031 20.9551 4.77051L20.9609 4.8916L20.957 5.01172C20.9379 5.25258 20.8564 5.48869 20.7158 5.69141L20.6416 5.79004C20.6352 5.79769 20.6278 5.80511 20.6211 5.8125L17.3574 9.39941C17.2557 9.51117 17.1232 9.5891 16.9785 9.62402L16.8301 9.64453L15.1973 9.7041L15.1963 9.70215C15.0793 9.70733 14.9627 9.69048 14.8545 9.64941C14.7305 9.60223 14.6223 9.52788 14.5361 9.4375C14.4502 9.34715 14.3867 9.24065 14.3467 9.12988C14.3068 9.01927 14.2895 8.90241 14.2949 8.78711L14.3486 7.00488L14.3652 6.87305C14.3926 6.7433 14.4536 6.62171 14.5439 6.52246L17.8096 2.93359C17.9262 2.80522 18.0684 2.69984 18.2305 2.62598L18.3545 2.57715C18.4813 2.53488 18.6154 2.5127 18.751 2.5127L18.8848 2.51953ZM15.8398 7.32617L15.8135 8.17969L16.459 8.15625L19.4238 4.89844L18.7471 4.13086L15.8398 7.32617Z" fill="#555555"/>
</g>
<defs>
<clipPath id="clip0_4_686">
<rect width="24" height="24" fill="white"/>
</clipPath>
</defs>
</svg>
