<svg width="24" height="24" viewBox="0 0 24 24" fill="none" xmlns="http://www.w3.org/2000/svg">
<path d="M20.0097 5.43946L13.6733 1.78055C12.6385 1.18318 11.3584 1.18318 10.313 1.78055L3.98728 5.43946C2.95254 6.03684 2.3125 7.14624 2.3125 8.35166V15.6481C2.3125 16.8429 2.95254 17.9523 3.98728 18.5603L10.3237 22.2193C11.3584 22.8166 12.6385 22.8166 13.6839 22.2193L20.0204 18.5603C21.0551 17.963 21.6951 16.8536 21.6951 15.6481V8.35166C21.6845 7.14624 21.0444 6.0475 20.0097 5.43946ZM11.9985 7.0289C13.3746 7.0289 14.484 8.13831 14.484 9.5144C14.484 10.8905 13.3746 11.9999 11.9985 11.9999C10.6224 11.9999 9.51298 10.8905 9.51298 9.5144C9.51298 8.14898 10.6224 7.0289 11.9985 7.0289ZM14.8573 16.9709H9.13963C8.27557 16.9709 7.7742 16.0108 8.25423 15.2961C8.97961 14.2187 10.3877 13.4933 11.9985 13.4933C13.6093 13.4933 15.0174 14.2187 15.7427 15.2961C16.2228 16.0002 15.7107 16.9709 14.8573 16.9709Z" fill="#555555"/>
</svg>
