<svg width="24" height="24" viewBox="0 0 24 24" fill="none" xmlns="http://www.w3.org/2000/svg">
<path d="M11.2954 1.57063C11.351 1.57037 11.4067 1.5701 11.464 1.56983C11.581 1.56951 11.698 1.56958 11.8151 1.57C11.9926 1.57043 12.17 1.56899 12.3475 1.5674C12.4619 1.56732 12.5762 1.56735 12.6906 1.5675C12.7429 1.56694 12.7951 1.56638 12.849 1.5658C13.5471 1.57229 14.0841 1.83943 14.5899 2.3087C15.0438 2.78831 15.2293 3.35228 15.2177 4.00305C15.2175 4.049 15.2172 4.09496 15.217 4.1423C15.2162 4.28712 15.2143 4.43189 15.2124 4.5767C15.2116 4.67569 15.211 4.77469 15.2103 4.87369C15.2087 5.11464 15.2061 5.35557 15.203 5.59651C15.2574 5.59494 15.2574 5.59494 15.3129 5.59334C15.4807 5.58912 15.6484 5.58655 15.8161 5.584C15.8732 5.58232 15.9302 5.58065 15.989 5.57892C16.7201 5.57061 17.2619 5.81993 17.7932 6.31289C18.3503 6.90149 18.4292 7.55092 18.421 8.32476C18.4207 8.40372 18.4205 8.48268 18.4204 8.56164C18.4198 8.76784 18.4183 8.97403 18.4167 9.18024C18.4151 9.3913 18.4144 9.60236 18.4137 9.81342C18.4121 10.2264 18.4095 10.6393 18.4064 11.0522C18.4395 11.062 18.4726 11.0718 18.5067 11.0819C19.4566 11.3646 20.4079 11.6529 20.9469 12.5501C21.1013 12.8436 21.2235 13.1239 21.2593 13.4547C21.2652 13.5008 21.2711 13.5469 21.2771 13.5943C21.3018 13.9763 21.2304 14.3045 21.125 14.6687C21.11 14.7216 21.0949 14.7744 21.0794 14.8289C20.8109 15.7592 20.516 16.6819 20.227 17.6059C20.1207 17.9461 20.0145 18.2862 19.9085 18.6264C19.8668 18.7601 19.8249 18.8938 19.783 19.0274C19.6136 19.5696 19.4559 20.114 19.3073 20.6623C19.9628 20.6404 20.424 20.5721 20.9809 20.1993C21.2946 19.9991 21.543 19.9376 21.91 20.0116C22.1545 20.1251 22.297 20.2676 22.4105 20.5121C22.4468 20.7815 22.4473 21.0218 22.3448 21.2754C21.6734 21.9625 20.7778 22.3087 19.8296 22.3377C18.796 22.3469 17.9426 22.0255 17.1245 21.4009C16.606 21.0196 16.0286 20.9539 15.4032 21.0126C15.0463 21.0854 14.775 21.253 14.4849 21.4666C13.52 22.1686 12.5165 22.4398 11.3334 22.3003C10.5967 22.1801 9.9597 21.8185 9.38149 21.3622C8.88643 20.9972 8.34028 20.9649 7.74521 21.0126C7.34083 21.0856 7.04839 21.2637 6.72657 21.5122C5.79835 22.22 4.77019 22.4292 3.62448 22.3009C2.95436 22.1978 2.1328 21.8418 1.68889 21.3129C1.53369 21.0695 1.55897 20.7901 1.58878 20.5121C1.70229 20.2676 1.84482 20.1251 2.0893 20.0116C2.46079 19.9367 2.71184 20.0028 3.03091 20.2024C3.08182 20.2378 3.13273 20.2732 3.18518 20.3097C3.55566 20.5535 3.89942 20.6151 4.33227 20.6404C4.45219 20.6476 4.57211 20.6549 4.69202 20.6623C4.51282 20.0254 4.32702 19.3911 4.12966 18.7596C4.08842 18.6276 4.04734 18.4956 4.0063 18.3635C3.88986 17.9888 3.77311 17.6143 3.65629 17.2397C3.08645 15.4122 3.08645 15.4122 2.87626 14.6734C2.86232 14.6251 2.84837 14.5768 2.834 14.527C2.64132 13.8349 2.70107 13.1764 3.04968 12.5413C3.48376 11.8457 4.08864 11.5528 4.84218 11.2837C4.90354 11.2612 4.9649 11.2387 5.02812 11.2155C5.4772 11.0522 5.4772 11.0522 5.59297 11.0522C5.59252 11.009 5.59208 10.9658 5.59162 10.9213C5.58759 10.512 5.58455 10.1027 5.58259 9.69329C5.58155 9.4829 5.58015 9.27251 5.57786 9.06212C5.57567 8.85864 5.57449 8.65517 5.57397 8.45167C5.5736 8.37449 5.57289 8.29731 5.5718 8.22014C5.56081 7.40969 5.75034 6.81216 6.30934 6.20966C6.85364 5.69451 7.44883 5.5713 8.17692 5.58713C8.23673 5.58781 8.29654 5.58848 8.35816 5.58918C8.50424 5.59094 8.65026 5.59339 8.79631 5.59651C8.79526 5.53598 8.79422 5.47544 8.79314 5.41307C8.78948 5.18584 8.7872 4.95861 8.78532 4.73135C8.78432 4.63349 8.78296 4.53563 8.78121 4.43778C8.76551 3.53485 8.87849 2.88903 9.51269 2.20547C10.0242 1.72132 10.6074 1.5687 11.2954 1.57063ZM10.6013 3.4818C10.2028 4.10971 10.398 4.88396 10.398 5.59651C11.4551 5.59651 12.5122 5.59651 13.6013 5.59651C13.7188 4.46404 13.7188 4.46404 13.3135 3.39734C12.9394 3.1599 12.5419 3.1769 12.1145 3.1782C12.0065 3.17836 11.8986 3.17719 11.7907 3.17592C11.1401 3.16312 11.1401 3.16312 10.6013 3.4818ZM7.39798 7.48599C7.17581 7.83607 7.18084 8.16625 7.18486 8.56974C7.18501 8.62368 7.18515 8.67762 7.18529 8.7332C7.18585 8.90454 7.18711 9.07587 7.18838 9.2472C7.18889 9.36376 7.18934 9.48033 7.18975 9.59689C7.19085 9.88179 7.19252 10.1667 7.19464 10.4516C7.57812 10.3435 7.95203 10.2122 8.32603 10.0754C8.42959 10.0376 8.53323 9.99996 8.63689 9.96239C8.93125 9.8557 9.22552 9.74876 9.51963 9.64138C9.70054 9.57534 9.88157 9.50966 10.0627 9.44419C10.1311 9.4194 10.1994 9.39448 10.2676 9.36942C10.8409 9.15906 11.3597 9.03186 11.9715 9.02823C12.0186 9.02658 12.0656 9.02493 12.1141 9.02324C13.0845 9.01619 14.0245 9.46282 14.9158 9.79898C15.1407 9.88377 15.3659 9.96807 15.5912 10.0521C15.7103 10.0966 15.8294 10.1413 15.9483 10.1863C16.2317 10.2924 16.5091 10.3861 16.8047 10.4516C16.8085 10.1106 16.8111 9.76953 16.8129 9.42848C16.8137 9.31261 16.8147 9.19673 16.816 9.08086C16.8178 8.91374 16.8187 8.74664 16.8193 8.57951C16.8201 8.52819 16.8209 8.47687 16.8217 8.42399C16.8218 8.09344 16.8067 7.73794 16.5907 7.46911C16.3259 7.22668 16.0066 7.18575 15.6607 7.18514C15.6117 7.18485 15.6117 7.18485 15.5617 7.18456C15.4531 7.18405 15.3446 7.18424 15.2361 7.18444C15.1579 7.18422 15.0796 7.18396 15.0014 7.18367C14.7896 7.183 14.5778 7.18297 14.366 7.18309C14.1889 7.18315 14.0118 7.1829 13.8347 7.18266C13.4167 7.18211 12.9986 7.18209 12.5806 7.18239C12.1501 7.18269 11.7195 7.18207 11.289 7.18101C10.9187 7.18012 10.5484 7.17983 10.1781 7.17999C9.95725 7.18008 9.73639 7.17995 9.51551 7.17925C9.30771 7.17862 9.09992 7.17872 8.89212 7.17937C8.81612 7.17949 8.74011 7.17936 8.66411 7.17894C7.97332 7.1576 7.97332 7.1576 7.39798 7.48599ZM10.829 10.8756C10.7839 10.8919 10.7389 10.9083 10.6925 10.9252C10.643 10.9434 10.5936 10.9617 10.5427 10.9805C10.4903 10.9996 10.4379 11.0187 10.384 11.0384C10.2092 11.1022 10.0346 11.1663 9.85992 11.2305C9.73785 11.2752 9.61577 11.3199 9.49369 11.3646C9.30004 11.4354 9.1064 11.5063 8.91281 11.5773C8.45486 11.7451 7.99645 11.9117 7.5378 12.0776C7.32284 12.1555 7.10794 12.2334 6.89305 12.3114C6.7191 12.3745 6.54511 12.4376 6.37104 12.5003C6.17537 12.5709 5.97987 12.642 5.78438 12.7131C5.72672 12.7338 5.66906 12.7546 5.60965 12.7759C4.92414 13.0027 4.92414 13.0027 4.42886 13.4919C4.30326 13.874 4.46674 14.2441 4.58254 14.6096C4.60286 14.675 4.62313 14.7404 4.64337 14.8058C4.69781 14.9814 4.75284 15.1568 4.80798 15.3322C4.86516 15.5144 4.92176 15.6968 4.97841 15.8791C5.05934 16.1395 5.14043 16.3999 5.22174 16.6602C5.4175 17.2869 5.6105 17.9145 5.80317 18.5421C5.88652 18.8136 5.97007 19.085 6.0536 19.3564C6.08106 19.4456 6.10851 19.5349 6.13596 19.6241C6.15498 19.6859 6.174 19.7477 6.19359 19.8114C6.25052 19.7885 6.25052 19.7885 6.30861 19.7651C6.46538 19.7027 6.62316 19.6439 6.78171 19.5861C6.83926 19.565 6.89681 19.5438 6.95611 19.522C7.99279 19.1865 9.04955 19.3111 10.0117 19.8006C10.2658 19.9361 10.4967 20.0938 10.722 20.2738C10.877 20.3881 10.877 20.3881 11.1988 20.5121C11.1988 17.3078 11.1988 14.1034 11.1988 10.802C11.049 10.802 10.9678 10.8247 10.829 10.8756ZM12.8005 10.802C12.8005 14.0063 12.8005 17.2107 12.8005 20.5121C13.0905 20.3924 13.0905 20.3924 13.3409 20.2356C13.3731 20.2125 13.4052 20.1895 13.4384 20.1657C13.4881 20.1296 13.4881 20.1296 13.5388 20.0929C13.8475 19.8762 14.1446 19.6882 14.5023 19.5611C14.5551 19.5416 14.608 19.5221 14.6624 19.5021C15.5757 19.2107 16.6395 19.2695 17.4992 19.6988C17.5372 19.7202 17.5753 19.7416 17.6145 19.7637C17.7033 19.8191 17.7033 19.8191 17.8057 19.8114C17.9668 19.2917 18.1279 18.7721 18.2888 18.2524C18.3636 18.0109 18.4385 17.7694 18.5133 17.5279C18.5424 17.4342 18.5714 17.3404 18.6005 17.2467C18.6149 17.2004 18.6292 17.1541 18.644 17.1064C18.7159 16.8743 18.7877 16.6422 18.8592 16.41C18.8873 16.3185 18.9154 16.2271 18.9436 16.1357C18.9573 16.0911 18.971 16.0466 18.9851 16.0007C19.0639 15.7451 19.144 15.4899 19.2253 15.2351C19.2739 15.0828 19.3217 14.9303 19.3695 14.7778C19.3915 14.708 19.4139 14.6384 19.4365 14.5688C19.5803 14.1274 19.6809 13.7837 19.4856 13.3421C19.1741 13.0078 18.6714 12.8776 18.2503 12.728C18.1925 12.7072 18.1347 12.6863 18.0752 12.6649C17.9196 12.6089 17.7639 12.5532 17.6082 12.4976C17.4457 12.4395 17.2832 12.381 17.1208 12.3225C16.8902 12.2395 16.6597 12.1566 16.4291 12.0739C15.9054 11.8859 15.3824 11.6963 14.8595 11.5061C14.7256 11.4573 14.5917 11.4087 14.4577 11.3601C14.3749 11.33 14.2922 11.2999 14.2094 11.2698C14.1511 11.2487 14.1511 11.2487 14.0916 11.227C13.9001 11.1573 13.7092 11.0865 13.5189 11.0137C13.4635 10.9925 13.4635 10.9925 13.4069 10.971C13.3376 10.9445 13.2683 10.9177 13.1992 10.8907C13.0579 10.8367 12.9533 10.802 12.8005 10.802Z" fill="#555555"/>
</svg>
