<svg width="24" height="24" viewBox="0 0 24 24" fill="none" xmlns="http://www.w3.org/2000/svg">
<path d="M11.7734 9.85486C11.9793 9.68616 12.2626 9.63753 12.5166 9.73474C12.8068 9.84587 12.998 10.1242 12.998 10.4349V17.391C12.998 17.8052 12.6623 18.141 12.248 18.141C11.834 18.1408 11.498 17.8051 11.498 17.391V12.3949L10.7715 13.2054C10.4949 13.5138 10.0203 13.5396 9.71191 13.2631C9.40356 12.9865 9.37773 12.5118 9.6543 12.2035L11.6904 9.93396L11.7734 9.85486Z" fill="#555555"/>
<path fill-rule="evenodd" clip-rule="evenodd" d="M16.5967 2.13513C16.8162 2.16473 17.0295 2.23677 17.2227 2.34998C17.4804 2.50107 17.6948 2.72146 17.835 2.99158C17.9754 3.26228 18.0333 3.5683 17.9971 3.87341C17.9653 4.14048 17.8635 4.39109 17.707 4.60388L17.6367 4.69177L17.6279 4.70349L15.3955 7.22205C18.032 8.46186 19.8611 11.101 19.8613 14.1732C19.8613 18.4448 16.3258 21.8801 12 21.8802C7.67405 21.8802 4.13867 18.4449 4.13867 14.1732C4.13891 11.1039 5.9642 8.46624 8.59668 7.22498L6.3623 4.70349C6.35908 4.69985 6.35569 4.69548 6.35254 4.69177C6.15572 4.46045 6.02781 4.1758 5.99219 3.86951C5.95657 3.56282 6.0157 3.25498 6.1582 2.98376C6.3003 2.71339 6.5176 2.49395 6.77734 2.34412C7.0358 2.19511 7.3299 2.11967 7.62598 2.12048L16.376 2.11951L16.5967 2.13513ZM12 7.96716C8.47143 7.96716 5.639 10.7612 5.63867 14.1732C5.63867 17.5855 8.47123 20.3802 12 20.3802C15.5287 20.3801 18.3613 17.5855 18.3613 14.1732C18.361 10.7612 15.5285 7.96728 12 7.96716ZM7.62207 3.61951C7.58487 3.61937 7.55206 3.62971 7.52734 3.64392C7.50289 3.65802 7.49092 3.67327 7.48633 3.68201C7.48425 3.68601 7.48282 3.68886 7.48242 3.6908C7.48206 3.69272 7.48223 3.69504 7.48242 3.69666C7.48276 3.69926 7.48491 3.70684 7.49414 3.71814L10.125 6.68982C10.7264 6.54537 11.3542 6.46716 12 6.46716C12.6423 6.46718 13.2668 6.5449 13.8652 6.68787L16.4951 3.71814C16.5047 3.70657 16.5075 3.69922 16.5078 3.69666C16.508 3.69513 16.5071 3.69352 16.5068 3.69177C16.5065 3.68987 16.5061 3.6863 16.5039 3.68201C16.4995 3.67342 16.4879 3.65801 16.4639 3.64392C16.4518 3.63685 16.4376 3.63063 16.4219 3.62634L16.3691 3.61951H7.62207Z" fill="#555555"/>
</svg>
