<svg width="24" height="24" viewBox="0 0 24 24" fill="none" xmlns="http://www.w3.org/2000/svg">
<path fill-rule="evenodd" clip-rule="evenodd" d="M5.51136 2.03266C5.35282 2.09597 5.20037 2.26734 5.15602 2.43209C5.1301 2.52832 5.1249 2.74463 5.1421 3.01028L5.16962 3.43471H3.80568C2.26622 3.43471 2.25407 3.43678 2.07899 3.7318C1.99163 3.87903 1.98943 3.90454 2.01227 4.50917C2.08908 6.5399 2.51299 8.3023 3.30691 9.89135C4.49745 12.2742 6.26456 13.733 8.25789 13.9783L8.56137 14.0156L8.8995 14.3355C9.08543 14.5115 9.37543 14.752 9.54386 14.8699L9.85016 15.0844V17.6958L9.19542 17.6963C8.7485 17.6966 8.47303 17.7146 8.32748 17.7534C7.58374 17.9512 6.97593 18.5518 6.78103 19.2813C6.74342 19.4221 6.71008 19.7673 6.69577 20.1638L6.67233 20.815L6.53439 20.8409C6.36036 20.8735 6.15734 21.0729 6.10488 21.2629C6.0319 21.527 6.1816 21.8338 6.43525 21.9397C6.62753 22.0201 17.3725 22.0201 17.5648 21.9397C17.8185 21.8338 17.9682 21.527 17.8951 21.2629C17.8426 21.0729 17.6397 20.8735 17.4657 20.8409L17.3277 20.815L17.3042 20.1638C17.2898 19.7673 17.2566 19.4221 17.2189 19.2813C17.0242 18.5518 16.4163 17.9512 15.6725 17.7534C15.5269 17.7146 15.2515 17.6966 14.8046 17.6963L14.1498 17.6958V15.0844L14.4561 14.8699C14.6246 14.752 14.9146 14.5115 15.1005 14.3355L15.4386 14.0156L15.7422 13.9783C17.7354 13.733 19.5026 12.2742 20.6931 9.89135C21.4871 8.3023 21.9109 6.5399 21.9877 4.50917C22.0106 3.90454 22.0083 3.87903 21.9211 3.7318C21.746 3.43694 21.7332 3.43471 20.1994 3.43471H18.8403L18.8502 2.91057C18.8609 2.33645 18.842 2.27659 18.5909 2.08917C18.4829 2.00865 18.4805 2.0086 12.046 2.00114C7.83426 1.99625 5.57531 2.00716 5.51136 2.03266ZM17.6538 3.79612C17.5052 7.40771 16.4322 10.894 14.8629 12.8641C13.2593 14.8773 11.2916 15.0778 9.61485 13.3991C7.79736 11.5794 6.51093 7.80011 6.3461 3.79612L6.31994 3.1612H17.68L17.6538 3.79612ZM5.2471 4.93895C5.4355 6.97755 5.88048 8.93071 6.52891 10.5652C6.73611 11.0875 7.14959 11.9596 7.36719 12.3332C7.4454 12.4675 7.49517 12.5774 7.47782 12.5774C7.46046 12.5774 7.28577 12.4967 7.08966 12.3981C5.05145 11.3735 3.46033 8.40634 3.22588 5.19292C3.21256 5.01026 3.1928 4.80338 3.18199 4.73317L3.16228 4.60555L5.2182 4.62638L5.2471 4.93895ZM20.8178 4.73383C20.8072 4.80364 20.7874 5.01026 20.7742 5.19292C20.5674 8.02696 19.3108 10.6852 17.5552 12.0025C17.3029 12.1919 16.6102 12.5774 16.5222 12.5774C16.5048 12.5774 16.5546 12.4675 16.6328 12.3332C16.8505 11.9596 17.2638 11.0875 17.4711 10.5652C18.1112 8.95174 18.5952 6.83641 18.7451 4.99757C18.76 4.8149 18.7798 4.65224 18.7891 4.63615C18.7983 4.62006 19.2631 4.60684 19.8217 4.60684H20.8375L20.8178 4.73383ZM11.3746 15.6627C11.4713 15.6838 11.7528 15.7012 12 15.7012C12.2472 15.7012 12.5287 15.6838 12.6254 15.6627C12.7222 15.6417 12.8409 15.6154 12.8893 15.6044L12.9772 15.5844V17.6958H11.0228V15.5844L11.1107 15.6044C11.1591 15.6154 11.2778 15.6417 11.3746 15.6627ZM15.5766 18.9524C15.7543 19.051 15.9514 19.26 16.0311 19.4344C16.0905 19.5644 16.1028 19.6944 16.1034 20.2061L16.1043 20.8215H7.89574L7.8966 20.2061C7.89762 19.47 7.93397 19.3547 8.25473 19.0697C8.48433 18.8657 8.40068 18.8698 12.0586 18.8789C15.1474 18.8866 15.47 18.8934 15.5766 18.9524Z" fill="#555555"/>
</svg>
