<svg width="24" height="24" viewBox="0 0 24 24" fill="none" xmlns="http://www.w3.org/2000/svg">
<path d="M5.13141 0.00808878C5.19271 0.00771107 5.25402 0.00733336 5.31718 0.00694421C5.5211 0.00595503 5.72499 0.00650766 5.92892 0.0070673C6.07573 0.00668323 6.22255 0.00621497 6.36936 0.00564752C6.72586 0.00447441 7.08235 0.00447665 7.43885 0.0049202C7.72881 0.0052637 8.01876 0.00520015 8.30872 0.00485102C8.37078 0.00477747 8.37078 0.00477747 8.43409 0.00470243C8.51815 0.00460176 8.60221 0.00450047 8.68628 0.00439857C9.47346 0.00349829 10.2606 0.00397009 11.0478 0.00488722C11.7668 0.00568619 12.4858 0.00489113 13.2047 0.00332266C13.9443 0.00172133 14.6839 0.00112832 15.4235 0.00164674C15.5073 0.00170235 15.5911 0.00175643 15.6749 0.00180899C15.7161 0.0018349 15.7573 0.0018608 15.7997 0.0018875C16.089 0.00200482 16.3783 0.00147397 16.6676 0.000679431C17.0206 -0.000276705 17.3736 -0.000262597 17.7266 0.000970461C17.9065 0.00157356 18.0863 0.00160601 18.2661 0.000736583C19.1748 -0.00330718 19.9137 -0.00234355 20.6338 0.621952C21.1646 1.1546 21.3757 1.74348 21.382 2.48845C21.3816 2.56571 21.3811 2.64297 21.3807 2.72023C21.381 2.80369 21.3813 2.88714 21.3818 2.9706C21.3828 3.19854 21.3825 3.42647 21.3819 3.65441C21.3815 3.90078 21.3824 4.14715 21.3831 4.39352C21.3843 4.87565 21.3843 5.35777 21.3838 5.83989C21.3835 6.23189 21.3836 6.62389 21.3839 7.01589C21.384 7.07175 21.384 7.12761 21.3841 7.18517C21.3842 7.29866 21.3843 7.41215 21.3844 7.52564C21.3853 8.58917 21.3848 9.6527 21.3839 10.7162C21.3831 11.6884 21.3839 12.6606 21.3854 13.6328C21.387 14.6319 21.3876 15.6311 21.3871 16.6303C21.3871 16.7434 21.387 16.8565 21.3869 16.9696C21.3869 17.0252 21.3869 17.0808 21.3869 17.1382C21.3868 17.5294 21.3873 17.9207 21.3881 18.312C21.389 18.7892 21.389 19.2664 21.3878 19.7436C21.3872 19.9869 21.387 20.2302 21.388 20.4734C21.3889 20.6965 21.3886 20.9196 21.3872 21.1427C21.387 21.223 21.3872 21.3033 21.3879 21.3836C21.3937 22.0991 21.2429 22.6959 20.7668 23.2451C20.2874 23.7228 19.7157 23.9856 19.0369 23.9933C18.9808 23.9928 18.9246 23.9924 18.8667 23.9919C18.8054 23.9923 18.7441 23.9927 18.681 23.9931C18.477 23.994 18.2731 23.9935 18.0692 23.9929C17.9224 23.9933 17.7756 23.9938 17.6288 23.9944C17.2723 23.9955 16.9158 23.9955 16.5593 23.9951C16.2693 23.9947 15.9794 23.9948 15.6894 23.9951C15.648 23.9952 15.6067 23.9952 15.564 23.9953C15.48 23.9954 15.3959 23.9955 15.3119 23.9956C14.5247 23.9965 13.7375 23.996 12.9503 23.9951C12.2313 23.9943 11.5124 23.9951 10.7934 23.9967C10.0538 23.9983 9.3142 23.9989 8.5746 23.9984C8.49083 23.9983 8.40705 23.9982 8.32328 23.9982C8.28206 23.9982 8.24085 23.9981 8.19839 23.9981C7.90911 23.998 7.61983 23.9985 7.33054 23.9993C6.97752 24.0003 6.62452 24.0003 6.2715 23.999C6.09165 23.9984 5.91184 23.9984 5.73199 23.9993C4.82336 24.0033 4.08447 24.0023 3.36431 23.378C2.83353 22.8454 2.62239 22.2565 2.61611 21.5116C2.61654 21.4343 2.61699 21.357 2.61746 21.2798C2.61717 21.1963 2.61679 21.1129 2.61632 21.0294C2.61531 20.8015 2.61565 20.5735 2.61622 20.3456C2.6166 20.0992 2.61573 19.8528 2.61502 19.6065C2.61385 19.1243 2.61385 18.6422 2.6143 18.1601C2.61464 17.7681 2.61458 17.3761 2.61423 16.9841C2.61418 16.9282 2.61413 16.8724 2.61408 16.8148C2.61398 16.7013 2.61388 16.5879 2.61377 16.4744C2.61287 15.4108 2.61335 14.3473 2.61426 13.2838C2.61506 12.3116 2.61427 11.3394 2.6127 10.3672C2.6111 9.36808 2.6105 8.36891 2.61102 7.36975C2.61108 7.25665 2.61113 7.14355 2.61118 7.03045C2.61121 6.9748 2.61124 6.91916 2.61126 6.86184C2.61138 6.47056 2.61085 6.07928 2.61005 5.68801C2.6091 5.2108 2.60911 4.7336 2.61035 4.25639C2.61095 4.01311 2.61113 3.76985 2.61011 3.52657C2.60919 3.30348 2.60955 3.08043 2.61089 2.85735C2.61115 2.77702 2.61096 2.6967 2.61026 2.61638C2.60445 1.90086 2.75527 1.3041 3.23133 0.754932C3.76921 0.218942 4.38103 0.00210257 5.13141 0.00808878ZM4.2769 1.66752C4.00235 2.01478 3.9439 2.3271 3.94361 2.76675C3.94344 2.83381 3.94326 2.90087 3.94308 2.96996C3.94316 3.04394 3.94325 3.11791 3.94334 3.19189C3.94323 3.27082 3.94311 3.34975 3.94296 3.42868C3.94263 3.64535 3.94264 3.86203 3.9427 4.0787C3.94271 4.31247 3.94241 4.54623 3.94215 4.78C3.9417 5.2379 3.94155 5.69579 3.94152 6.15369C3.9415 6.52586 3.94139 6.89804 3.94121 7.27022C3.94073 8.32537 3.94048 9.38053 3.94052 10.4357C3.94053 10.4926 3.94053 10.5494 3.94053 10.608C3.94053 10.665 3.94054 10.7219 3.94054 10.7806C3.94056 11.7038 3.94004 12.6269 3.93927 13.55C3.93849 14.4979 3.93812 15.4457 3.93816 16.3936C3.93818 16.9257 3.93803 17.4579 3.93745 17.99C3.93695 18.4431 3.93683 18.8961 3.9372 19.3492C3.93738 19.5803 3.93738 19.8114 3.93691 20.0425C3.93648 20.2542 3.93656 20.4659 3.93703 20.6775C3.93712 20.754 3.93702 20.8305 3.93672 20.907C3.92876 21.6714 3.92876 21.6714 4.2769 22.3325C4.69215 22.6608 5.0912 22.6669 5.60307 22.666C5.65989 22.6662 5.71671 22.6663 5.77525 22.6664C5.96562 22.6668 6.15598 22.6667 6.34634 22.6667C6.48284 22.6668 6.61934 22.667 6.75584 22.6672C7.08811 22.6677 7.42038 22.6678 7.75265 22.6679C8.02278 22.6679 8.29291 22.668 8.56305 22.6682C9.3293 22.6686 10.0956 22.6689 10.8618 22.6688C10.9031 22.6688 10.9444 22.6688 10.9869 22.6688C11.0283 22.6688 11.0696 22.6688 11.1122 22.6688C11.7821 22.6688 12.4521 22.6693 13.122 22.6701C13.8103 22.6709 14.4986 22.6713 15.1868 22.6712C15.5731 22.6712 15.9594 22.6713 16.3456 22.6719C16.7089 22.6725 17.0721 22.6725 17.4354 22.6721C17.5687 22.672 17.7019 22.6721 17.8352 22.6725C18.0172 22.6729 18.1992 22.6726 18.3813 22.6722C18.4603 22.6726 18.4603 22.6726 18.5409 22.6731C18.9808 22.6708 19.3726 22.6269 19.7212 22.3325C19.9958 21.9852 20.0542 21.6729 20.0545 21.2333C20.0547 21.1662 20.0549 21.0991 20.0551 21.03C20.055 20.9561 20.0549 20.8821 20.0548 20.8081C20.0549 20.7292 20.055 20.6503 20.0552 20.5713C20.0555 20.3546 20.0555 20.138 20.0554 19.9213C20.0554 19.6875 20.0557 19.4538 20.056 19.22C20.0564 18.7621 20.0566 18.3042 20.0566 17.8463C20.0566 17.4741 20.0567 17.102 20.0569 16.7298C20.0574 15.6746 20.0576 14.6195 20.0576 13.5643C20.0576 13.5074 20.0576 13.4506 20.0576 13.392C20.0576 13.335 20.0576 13.2781 20.0576 13.2194C20.0576 12.2962 20.0581 11.3731 20.0589 10.45C20.0596 9.50212 20.06 8.55427 20.06 7.60643C20.06 7.07427 20.0601 6.54211 20.0607 6.00996C20.0612 5.55692 20.0613 5.10388 20.0609 4.65084C20.0608 4.41972 20.0608 4.1886 20.0612 3.95747C20.0616 3.7458 20.0616 3.53414 20.0611 3.32248C20.061 3.24599 20.0611 3.16951 20.0614 3.09303C20.0694 2.32858 20.0694 2.32858 19.7212 1.66752C19.2814 1.31977 18.8507 1.3334 18.3094 1.33592C18.216 1.33604 18.216 1.33604 18.1206 1.33615C17.9223 1.33646 17.7239 1.33714 17.5256 1.33783C17.3908 1.33811 17.2561 1.33835 17.1213 1.33858C16.7916 1.33918 16.4618 1.34008 16.1321 1.34123C16.1318 1.38695 16.1316 1.43267 16.1314 1.47977C16.1299 1.65302 16.1272 1.82621 16.1238 1.99943C16.1225 2.07372 16.1217 2.14802 16.1214 2.22232C16.1179 2.96122 15.9629 3.63335 15.4251 4.16907C14.7587 4.74209 14.0913 4.80101 13.2503 4.79807C13.1504 4.79835 13.0505 4.79869 12.9507 4.79909C12.7421 4.79965 12.5336 4.79941 12.3251 4.79861C12.0597 4.79768 11.7943 4.79895 11.5289 4.80087C11.3229 4.80207 11.1168 4.80198 10.9108 4.80153C10.813 4.80149 10.7153 4.80185 10.6175 4.80266C9.86702 4.80791 9.22476 4.73131 8.6272 4.22366C8.02289 3.61699 7.88823 2.9514 7.87967 2.11957C7.87813 2.04369 7.87651 1.96782 7.87478 1.89195C7.87097 1.70837 7.86809 1.52484 7.86607 1.34123C7.47131 1.33847 7.07656 1.33657 6.68179 1.33526C6.54761 1.33471 6.41342 1.33397 6.27924 1.33303C6.08593 1.3317 5.89263 1.33109 5.69931 1.33061C5.6397 1.33005 5.58009 1.32949 5.51868 1.32891C5.05499 1.32884 4.64602 1.35581 4.2769 1.66752ZM9.17123 1.34123C9.11024 2.33358 9.11024 2.33358 9.49752 3.1902C9.84871 3.46785 10.1642 3.52285 10.6085 3.52439C10.6767 3.52474 10.745 3.52508 10.8153 3.52544C10.8891 3.52553 10.9629 3.52559 11.0368 3.52563C11.1133 3.5258 11.1898 3.52598 11.2663 3.52617C11.4264 3.5265 11.5865 3.5266 11.7466 3.52657C11.9507 3.52656 12.1549 3.5273 12.3591 3.52824C12.5171 3.52885 12.675 3.52896 12.833 3.52893C12.9082 3.52899 12.9835 3.52923 13.0587 3.52965C13.8318 3.54027 13.8318 3.54027 14.5006 3.1902C14.9476 2.62479 14.8269 2.08905 14.8269 1.34123C12.9605 1.34123 11.0942 1.34123 9.17123 1.34123Z" fill="#555555"/>
<path d="M12.0556 17.4232C12.1096 17.4229 12.1637 17.4226 12.2193 17.4224C12.3969 17.4216 12.5746 17.4217 12.7522 17.4218C12.8763 17.4216 13.0003 17.4213 13.1244 17.4211C13.3841 17.4207 13.6437 17.4207 13.9034 17.421C14.2355 17.4213 14.5676 17.4204 14.8997 17.4191C15.1558 17.4183 15.4119 17.4182 15.668 17.4184C15.7904 17.4184 15.9128 17.4181 16.0352 17.4176C16.2067 17.4169 16.378 17.4173 16.5495 17.4179C16.5996 17.4175 16.6497 17.4171 16.7013 17.4166C17.1217 17.42 17.4346 17.4959 17.7582 17.7134C17.9149 17.9477 17.9272 18.1574 17.8651 18.417C17.749 18.5865 17.6065 18.7101 17.3861 18.7977C17.1941 18.8042 17.0038 18.8074 16.8118 18.8082C16.7524 18.8086 16.6929 18.809 16.6317 18.8095C16.4345 18.8109 16.2373 18.8118 16.0401 18.8125C15.9728 18.8128 15.9055 18.8131 15.8361 18.8134C15.4798 18.8149 15.1235 18.8159 14.7673 18.8167C14.3992 18.8176 14.0313 18.82 13.6633 18.8228C13.3804 18.8246 13.0974 18.8253 12.8145 18.8256C12.6788 18.826 12.5432 18.8268 12.4076 18.8281C12.2176 18.8298 12.0276 18.8298 11.8376 18.8294C11.7817 18.8303 11.7258 18.8312 11.6682 18.8321C11.3863 18.8297 11.2118 18.8097 10.9888 18.6665C10.7256 18.4504 10.7211 18.304 10.7254 18.0117C10.7646 17.7807 10.8705 17.6993 11.091 17.5469C11.4125 17.4381 11.7111 17.4223 12.0556 17.4232Z" fill="#555555"/>
<path d="M12.0556 13.0727C12.1096 13.0724 12.1637 13.0721 12.2193 13.0718C12.3969 13.0711 12.5746 13.0711 12.7522 13.0713C12.8763 13.071 13.0003 13.0708 13.1244 13.0705C13.3841 13.0701 13.6437 13.0702 13.9034 13.0704C14.2355 13.0708 14.5676 13.0698 14.8997 13.0686C15.1558 13.0678 15.4119 13.0677 15.668 13.0679C15.7904 13.0679 15.9128 13.0676 16.0352 13.067C16.2067 13.0664 16.378 13.0667 16.5495 13.0674C16.5996 13.0669 16.6497 13.0665 16.7013 13.0661C17.1217 13.0695 17.4346 13.1453 17.7582 13.3629C17.9149 13.5971 17.9272 13.8069 17.8651 14.0665C17.749 14.236 17.6065 14.3596 17.3861 14.4471C17.1941 14.4536 17.0038 14.4568 16.8118 14.4576C16.7524 14.4581 16.6929 14.4585 16.6317 14.459C16.4345 14.4603 16.2373 14.4612 16.0401 14.462C15.9728 14.4623 15.9055 14.4626 15.8361 14.4629C15.4798 14.4643 15.1235 14.4654 14.7673 14.4662C14.3992 14.4671 14.0313 14.4695 13.6633 14.4723C13.3804 14.4741 13.0974 14.4748 12.8145 14.4751C12.6788 14.4754 12.5432 14.4763 12.4076 14.4776C12.2176 14.4793 12.0276 14.4793 11.8376 14.4789C11.7817 14.4798 11.7258 14.4807 11.6682 14.4816C11.3863 14.4791 11.2118 14.4592 10.9888 14.316C10.7256 14.0999 10.7211 13.9534 10.7254 13.6612C10.7646 13.4302 10.8705 13.3488 11.091 13.1964C11.4125 13.0875 11.7111 13.0717 12.0556 13.0727Z" fill="#555555"/>
<path d="M12.0556 8.72215C12.1096 8.72187 12.1637 8.72159 12.2193 8.7213C12.3969 8.72055 12.5746 8.7206 12.7522 8.72073C12.8763 8.72051 13.0003 8.72028 13.1244 8.72002C13.3841 8.71961 13.6437 8.71963 13.9034 8.71992C14.2355 8.72023 14.5676 8.71931 14.8997 8.71805C15.1558 8.71725 15.4119 8.7172 15.668 8.71737C15.7904 8.71734 15.9128 8.71706 16.0352 8.71651C16.2067 8.71584 16.378 8.71621 16.5495 8.71684C16.5996 8.71642 16.6497 8.716 16.7013 8.71558C17.1217 8.71897 17.4346 8.79482 17.7582 9.01239C17.9149 9.24662 17.9272 9.45636 17.8651 9.71595C17.749 9.88546 17.6065 10.009 17.3861 10.0966C17.1941 10.1031 17.0038 10.1063 16.8118 10.1071C16.7524 10.1076 16.6929 10.108 16.6317 10.1085C16.4345 10.1098 16.2373 10.1107 16.0401 10.1115C15.9728 10.1118 15.9055 10.1121 15.8361 10.1124C15.4798 10.1138 15.1235 10.1149 14.7673 10.1157C14.3992 10.1166 14.0313 10.119 13.6633 10.1218C13.3804 10.1236 13.0974 10.1242 12.8145 10.1245C12.6788 10.1249 12.5432 10.1257 12.4076 10.127C12.2176 10.1288 12.0276 10.1288 11.8376 10.1284C11.7817 10.1292 11.7258 10.1301 11.6682 10.1311C11.3863 10.1286 11.2118 10.1087 10.9888 9.96548C10.7256 9.7494 10.7211 9.6029 10.7254 9.31064C10.7646 9.07966 10.8705 8.99824 11.091 8.84585C11.4125 8.73701 11.7111 8.72122 12.0556 8.72215Z" fill="#555555"/>
<path d="M8.20865 8.4035C8.49832 8.57538 8.66631 8.81916 8.77093 9.1342C8.84971 9.4475 8.79081 9.71891 8.64401 9.99877C8.43234 10.3116 8.2143 10.4688 7.84002 10.5485C7.47286 10.5792 7.2081 10.5084 6.92163 10.2721C6.65696 10.0157 6.55864 9.78193 6.53711 9.41723C6.54946 9.11864 6.64538 8.85779 6.84655 8.63469C7.22385 8.29528 7.73289 8.18642 8.20865 8.4035Z" fill="#555555"/>
<path d="M8.20865 12.5756C8.49832 12.7475 8.66631 12.9913 8.77093 13.3063C8.84971 13.6196 8.79081 13.891 8.64401 14.1709C8.43234 14.4837 8.2143 14.6409 7.84002 14.7207C7.47286 14.7514 7.2081 14.6805 6.92163 14.4442C6.65696 14.1878 6.55864 13.9541 6.53711 13.5893C6.54946 13.2908 6.64538 13.0299 6.84655 12.8068C7.22385 12.4674 7.73289 12.3585 8.20865 12.5756Z" fill="#555555"/>
<path d="M8.20865 17.1046C8.49832 17.2765 8.66631 17.5203 8.77093 17.8353C8.84971 18.1486 8.79081 18.42 8.64401 18.6999C8.43234 19.0127 8.2143 19.1699 7.84002 19.2496C7.47286 19.2804 7.2081 19.2095 6.92163 18.9732C6.65696 18.7168 6.55864 18.483 6.53711 18.1183C6.54946 17.8197 6.64538 17.5589 6.84655 17.3358C7.22385 16.9964 7.73289 16.8875 8.20865 17.1046Z" fill="#555555"/>
</svg>
