<svg width="24" height="24" viewBox="0 0 24 24" fill="none" xmlns="http://www.w3.org/2000/svg">
<path d="M16.7755 11.3267L16.9444 11.3403C17.2803 11.3803 17.6009 11.4961 17.8839 11.6753L18.0226 11.77L18.1524 11.8745C18.3029 12.0043 18.4333 12.1532 18.544 12.3149C18.7362 12.2932 18.9312 12.2944 19.1241 12.3228L19.2921 12.354L19.4571 12.3979C19.8357 12.5139 20.1754 12.7266 20.4444 13.0112H20.4435C20.7238 13.3068 20.9144 13.6706 21.0011 14.0601L21.0323 14.229L21.0499 14.4009C21.0623 14.5904 21.0481 14.7802 21.0128 14.9663C21.1606 15.085 21.2934 15.2209 21.4063 15.3726L21.503 15.5132L21.589 15.6606C21.775 16.0106 21.8651 16.4033 21.8526 16.7974L21.8517 16.8354C21.826 17.2829 21.6687 17.7174 21.3937 18.0796C21.2424 18.2787 21.057 18.4499 20.8487 18.5884C20.8734 18.832 20.8602 19.0792 20.8048 19.3198C20.7021 19.7658 20.4646 20.1762 20.1153 20.4868L20.1144 20.4858C19.7818 20.7824 19.3676 20.9793 18.919 21.0425C18.6648 21.0782 18.4082 21.0678 18.1603 21.0181C18.0029 21.2106 17.8147 21.3802 17.5987 21.5142C17.2168 21.7509 16.7703 21.8695 16.3165 21.8501C15.8628 21.8306 15.4291 21.6748 15.0694 21.4077C14.8602 21.2524 14.682 21.0634 14.5392 20.8521C14.2927 20.8792 14.0413 20.8673 13.796 20.812C13.3538 20.7121 12.9572 20.4821 12.6505 20.1597L12.6495 20.1606C12.3262 19.8218 12.1219 19.3919 12.0567 18.937C12.0216 18.6915 12.0294 18.4427 12.0753 18.2007C11.8837 18.0465 11.7175 17.8625 11.586 17.6548C11.3425 17.2697 11.2223 16.8218 11.2364 16.3716L11.2384 16.3335L11.254 16.1655C11.305 15.7777 11.4557 15.4053 11.6964 15.0884L11.8048 14.9565C11.9335 14.8115 12.0812 14.684 12.2433 14.5767C12.2198 14.3305 12.2349 14.0809 12.2931 13.8384L12.339 13.6753C12.4598 13.2991 12.68 12.957 12.9825 12.689V12.688C13.3144 12.3938 13.7277 12.2001 14.1739 12.1372L14.3419 12.1196C14.5397 12.1067 14.7372 12.1223 14.9298 12.1606C15.0875 11.9673 15.2767 11.798 15.4933 11.6636L15.6388 11.5806C15.9368 11.425 16.267 11.3369 16.6056 11.3257L16.7755 11.3267ZM11.0919 2.15967C14.0086 2.15998 16.3868 4.50162 16.3868 7.40674C16.3864 10.2539 14.1017 12.5573 11.2647 12.6479C11.2091 12.6612 11.1516 12.6704 11.0919 12.6704C8.32864 12.6704 5.46014 14.5594 4.35068 18.5259L4.34971 18.5249L3.63291 21.1138C3.52229 21.5128 3.1091 21.7466 2.71006 21.6362C2.3109 21.5256 2.07695 21.1125 2.1876 20.7134L2.90537 18.1235L2.90635 18.1216L3.03135 17.7026C3.98631 14.6995 5.90344 12.6904 8.13974 11.7622C6.72768 10.8216 5.79627 9.22465 5.79599 7.40674C5.79599 4.50143 8.17489 2.15967 11.0919 2.15967ZM16.711 12.8257C16.5612 12.8194 16.412 12.8581 16.2833 12.938C16.1547 13.0179 16.0509 13.136 15.9854 13.2759L15.9522 13.3579H15.9483C15.9064 13.4544 15.8462 13.5416 15.7706 13.6128C15.695 13.6839 15.6056 13.7381 15.5089 13.772C15.4104 13.8073 15.3053 13.8225 15.2013 13.8159C15.0975 13.8092 14.9958 13.7804 14.9024 13.7329L14.8224 13.6919C14.6855 13.6255 14.5326 13.6015 14.3829 13.6226C14.2334 13.6437 14.0924 13.7084 13.9776 13.8101C13.8663 13.9083 13.7874 14.0409 13.752 14.188C13.7168 14.3351 13.7264 14.4905 13.7804 14.6313L13.8145 14.7095C13.855 14.8056 13.8746 14.9103 13.8722 15.0151C13.8697 15.1199 13.8457 15.2229 13.8009 15.3169C13.7544 15.4126 13.6891 15.4975 13.6095 15.5659C13.5299 15.6342 13.4373 15.6849 13.338 15.7144L13.2511 15.7407C13.1089 15.7857 12.9827 15.8745 12.8907 15.9956C12.7987 16.1168 12.7443 16.2645 12.7354 16.4185C12.7306 16.5723 12.7722 16.7243 12.8536 16.853C12.935 16.9817 13.0535 17.0815 13.1915 17.1382L13.2774 17.1714C13.372 17.2101 13.4586 17.2686 13.5304 17.3433C13.6021 17.418 13.6575 17.5078 13.6944 17.606C13.7299 17.7028 13.7451 17.8063 13.7384 17.9097C13.7316 18.0129 13.704 18.1136 13.6563 18.2046L13.6144 18.2827C13.5456 18.418 13.5205 18.5728 13.5421 18.7241C13.5637 18.8753 13.6309 19.0158 13.7345 19.1245C13.8409 19.2372 13.9775 19.3155 14.1261 19.3491C14.2747 19.3826 14.4303 19.3705 14.5724 19.314L14.6524 19.2798C14.7502 19.2397 14.8549 19.2199 14.9601 19.2222C15.0652 19.2245 15.1696 19.2481 15.2657 19.2925C15.3597 19.3354 15.4437 19.3992 15.5128 19.478C15.5819 19.557 15.6349 19.6501 15.6671 19.7515L15.6935 19.8413C15.7476 19.9864 15.842 20.112 15.964 20.2026C16.086 20.2932 16.2311 20.3456 16.381 20.3521C16.5309 20.3584 16.6799 20.3186 16.8087 20.2388C16.9373 20.1589 17.0411 20.0418 17.1065 19.9019L17.1397 19.8188C17.1816 19.7224 17.2429 19.6361 17.3185 19.5649C17.394 19.4938 17.4835 19.4397 17.5802 19.4058C17.6786 19.3705 17.7829 19.3553 17.8868 19.3618C17.9908 19.3684 18.093 19.3963 18.1866 19.4438L18.2677 19.4858C18.4052 19.5534 18.5593 19.5783 18.7101 19.5571C18.8609 19.5359 19.003 19.469 19.1183 19.3657C19.2302 19.2661 19.3086 19.1317 19.3429 18.9829C19.377 18.8341 19.3653 18.6779 19.3087 18.5366L19.2745 18.4585C19.2341 18.3624 19.2145 18.2576 19.2169 18.1528C19.2193 18.0482 19.2444 17.9449 19.2892 17.8511C19.3356 17.7554 19.401 17.6704 19.4806 17.6021C19.5601 17.5338 19.6528 17.4831 19.752 17.4536L19.839 17.4272C19.981 17.3823 20.1064 17.2933 20.1983 17.1724C20.2904 17.0511 20.3448 16.9036 20.3536 16.7495C20.3585 16.5956 20.3169 16.4437 20.2354 16.3149C20.154 16.1864 20.0365 16.0864 19.8985 16.0298L19.8116 15.9966C19.717 15.9579 19.6305 15.8995 19.5587 15.8247C19.4869 15.7499 19.4306 15.6603 19.3937 15.562C19.3582 15.4652 19.343 15.3607 19.3497 15.2573C19.3565 15.1541 19.3851 15.0533 19.4327 14.9624L19.4747 14.8833C19.5435 14.748 19.5686 14.5932 19.547 14.4419C19.5253 14.2906 19.4574 14.1502 19.3536 14.0415C19.247 13.9289 19.1107 13.8504 18.962 13.8169C18.8134 13.7835 18.6577 13.7964 18.5157 13.853L18.4366 13.8862C18.3398 13.9259 18.236 13.9457 18.1319 13.9438C18.0279 13.9419 17.9246 13.9186 17.8292 13.8755C17.7357 13.8338 17.6515 13.772 17.5821 13.6948C17.5126 13.6174 17.4584 13.5252 17.4249 13.4253L17.3985 13.3354C17.3443 13.1903 17.25 13.0647 17.128 12.9741C17.006 12.8837 16.8609 12.8321 16.711 12.8257ZM16.547 14.3696C17.7711 14.37 18.7773 15.3538 18.7774 16.5845C18.7772 17.815 17.771 18.7989 16.547 18.7993C15.3228 18.7992 14.3158 17.8152 14.3155 16.5845C14.3156 15.3536 15.3227 14.3697 16.547 14.3696ZM16.547 15.8696C16.1357 15.8697 15.8156 16.1974 15.8155 16.5845C15.8158 16.9714 16.1358 17.2992 16.547 17.2993C16.9579 17.2989 17.2772 16.9713 17.2774 16.5845C17.2773 16.1976 16.958 15.87 16.547 15.8696ZM14.5724 12.7612L14.5763 12.7583L14.5841 12.7397C14.5807 12.7469 14.5755 12.754 14.5724 12.7612ZM11.0919 3.65967C8.988 3.65967 7.29599 5.34509 7.29599 7.40674C7.29644 9.46802 8.98828 11.1528 11.0919 11.1528C13.1952 11.1525 14.8864 9.46783 14.8868 7.40674C14.8868 5.34528 13.1955 3.65998 11.0919 3.65967Z" fill="#555555"/>
</svg>
