<svg width="24" height="24" viewBox="0 0 24 24" fill="none" xmlns="http://www.w3.org/2000/svg">
<path fill-rule="evenodd" clip-rule="evenodd" d="M9.82306 9.58673C11.0989 8.43409 13.0681 8.47244 14.2977 9.70196L14.4129 9.82305C15.5285 11.0577 15.5284 12.9419 14.4129 14.1766L14.2977 14.2977C13.0681 15.5272 11.0989 15.5656 9.82306 14.4129L9.70197 14.2977C8.43276 13.0285 8.43276 10.9712 9.70197 9.70196L9.82306 9.58673ZM13.1043 10.6424C12.4628 10.1191 11.5369 10.1192 10.8953 10.6424L10.7625 10.7625C10.0791 11.4459 10.0791 12.5537 10.7625 13.2371L10.8953 13.3572C11.5827 13.9178 12.5964 13.8778 13.2371 13.2371L13.3572 13.1043C13.8804 12.4628 13.8805 11.5368 13.3572 10.8953L13.2371 10.7625L13.1043 10.6424Z" fill="#555555"/>
<path fill-rule="evenodd" clip-rule="evenodd" d="M8.80744 3.39923C9.56791 3.09232 10.4452 3.26571 11.032 3.85235L11.6238 4.44512L11.7108 4.51544C11.924 4.65683 12.2133 4.63654 12.4051 4.45294L13.0115 3.87286L13.118 3.77813C13.6624 3.32574 14.4059 3.1825 15.0848 3.40899L15.0858 3.40802L15.6688 3.60235L15.8231 3.66095C16.5774 3.98121 17.077 4.7245 17.077 5.55548V6.39239C17.0772 6.65884 17.2628 6.88172 17.5125 6.93731L17.6229 6.95001L18.4608 6.96856L18.6024 6.97637C19.3094 7.04003 19.9377 7.46567 20.2576 8.10528L20.533 8.65606L20.6004 8.80645C20.9074 9.56701 20.734 10.4441 20.1473 11.0311L19.5555 11.6229C19.3409 11.8375 19.3369 12.1847 19.5467 12.4041L20.1268 13.0106L20.2215 13.117C20.6755 13.662 20.8197 14.4058 20.5926 15.0857L20.3983 15.6678C20.1184 16.5074 19.3323 17.0758 18.4461 17.076H17.6092C17.3426 17.076 17.12 17.2618 17.0643 17.5115L17.0506 17.6219L17.033 18.4598C17.0181 19.1762 16.6309 19.8294 16.0203 20.1893L15.8953 20.2566L15.3455 20.532C14.5527 20.9285 13.5957 20.7724 12.9695 20.1463L12.3777 19.5545C12.1899 19.3667 11.9007 19.3404 11.6844 19.4774L11.5965 19.5457L10.991 20.1258C10.4392 20.654 9.64016 20.8338 8.91486 20.5916L8.33283 20.3973C7.49315 20.1174 6.92468 19.3314 6.92462 18.4451V17.6082C6.92462 17.3419 6.73946 17.1192 6.49005 17.0633L6.37873 17.0496L5.54083 17.032C4.82461 17.017 4.17215 16.6297 3.81232 16.0193L3.74396 15.8943L3.46955 15.3445C3.07312 14.5517 3.22825 13.5947 3.85431 12.9686L4.44708 12.3768L4.5174 12.2908C4.63883 12.1081 4.64149 11.8688 4.52423 11.6834L4.4549 11.5955L3.87482 10.99C3.34608 10.4378 3.16664 9.63877 3.409 8.91387L3.60236 8.33087L3.66095 8.17657C3.9812 7.42247 4.72379 6.92285 5.55451 6.92266H6.3924C6.69667 6.92234 6.94362 6.67998 6.95001 6.37677L6.96857 5.53887V5.53692L6.97638 5.39434C7.04239 4.69045 7.46565 4.06237 8.10626 3.742L8.65705 3.46759L8.80744 3.39923ZM14.6111 4.83087C14.4157 4.76545 14.1981 4.81434 14.0477 4.95782L13.4422 5.53692C12.6841 6.26233 11.513 6.295 10.7176 5.64434L10.5633 5.50567L9.9715 4.9129C9.82298 4.76459 9.60582 4.71376 9.40998 4.7752L9.32697 4.80841L8.77716 5.0838C8.59278 5.17607 8.47277 5.36485 8.46759 5.57403L8.45001 6.40899C8.42631 7.52928 7.5115 8.42234 6.3924 8.42266H5.55451C5.31507 8.42286 5.10126 8.57739 5.02521 8.80548L4.83185 9.38751L4.83087 9.38946C4.76585 9.58418 4.81396 9.80055 4.9588 9.95196L5.53888 10.5584L5.67462 10.7156C6.26545 11.4713 6.25342 12.5406 5.6463 13.283L5.50763 13.4373L4.91486 14.0291C4.74513 14.1989 4.70292 14.4586 4.81037 14.6736L5.08576 15.2234L5.12482 15.2899C5.22575 15.4369 5.39221 15.5282 5.57208 15.532L6.41095 15.5506L6.61798 15.5652C7.63941 15.6894 8.42462 16.5588 8.42462 17.6082V18.4451C8.42468 18.6847 8.57922 18.8984 8.80744 18.9744L9.38947 19.1688L9.46466 19.1883C9.63984 19.2211 9.82151 19.1676 9.95294 19.0418L10.5594 18.4617L10.7166 18.326C11.5263 17.6931 12.6966 17.7522 13.4383 18.494L14.0301 19.0857C14.1999 19.2555 14.4596 19.2978 14.6746 19.1902L15.2244 18.9149L15.2908 18.8758C15.4379 18.7748 15.5293 18.6084 15.533 18.4285L15.5516 17.5897C15.5755 16.4693 16.4899 15.576 17.6092 15.576H18.4461C18.6855 15.5758 18.8993 15.4221 18.9754 15.1941L19.1697 14.6111L19.1893 14.5359C19.2173 14.386 19.1821 14.2311 19.0926 14.1072L19.0428 14.0477L18.4627 13.4412C17.6891 12.6325 17.7037 11.3535 18.4949 10.5623L19.0867 9.97052C19.2352 9.82194 19.286 9.60493 19.2244 9.40899L19.1912 9.32598L18.9158 8.77618C18.823 8.59078 18.635 8.47189 18.4295 8.46759L17.5906 8.45001C16.4705 8.42611 15.5772 7.51147 15.577 6.39239V5.55548C15.577 5.34598 15.4593 5.15561 15.2772 5.06036L15.1951 5.0252L14.6121 4.83184L14.8494 4.11993L14.6111 4.83087Z" fill="#555555"/>
</svg>
