<svg width="24" height="24" viewBox="0 0 24 24" fill="none" xmlns="http://www.w3.org/2000/svg">
<path d="M6 3C6 2.44772 6.44772 2 7 2H17C17.5523 2 18 2.44772 18 3V7.58579C18 7.851 17.8946 8.10536 17.7071 8.29289L14.7071 11.2929C14.3166 11.6834 14.3166 12.3166 14.7071 12.7071L17.7071 15.7071C17.8946 15.8946 18 16.149 18 16.4142V21C18 21.5523 17.5523 22 17 22H7C6.44772 22 6 21.5523 6 21V16.4142C6 16.149 6.10536 15.8946 6.29289 15.7071L9.29289 12.7071C9.68342 12.3166 9.68342 11.6834 9.29289 11.2929L6.29289 8.29289C6.10536 8.10536 6 7.851 6 7.58579V3ZM16 16.9142C16 16.649 15.8946 16.3946 15.7071 16.2071L12.7071 13.2071C12.3166 12.8166 11.6834 12.8166 11.2929 13.2071L8.29289 16.2071C8.10536 16.3946 8 16.649 8 16.9142V19C8 19.5523 8.44772 20 9 20H15C15.5523 20 16 19.5523 16 19V16.9142ZM11.2929 10.7929C11.6834 11.1834 12.3166 11.1834 12.7071 10.7929L15.7071 7.79289C15.8946 7.60536 16 7.351 16 7.08579V5C16 4.44772 15.5523 4 15 4H9C8.44772 4 8 4.44772 8 5V7.08579C8 7.351 8.10536 7.60536 8.29289 7.79289L11.2929 10.7929ZM10 6.53033C10 6.23744 10.2374 6 10.5303 6H13.4697C13.7626 6 14 6.23744 14 6.53033C14 6.67098 13.9441 6.80587 13.8447 6.90533L12.7071 8.04289C12.3166 8.43342 11.6834 8.43342 11.2929 8.04289L10.1553 6.90533C10.0559 6.80587 10 6.67098 10 6.53033Z" fill="#555555"/>
</svg>
