<svg width="24" height="24" viewBox="0 0 24 24" fill="none" xmlns="http://www.w3.org/2000/svg">
<path fill-rule="evenodd" clip-rule="evenodd" d="M7.79724 3.04719C6.03566 3.04719 4.57281 4.47388 4.53135 6.23334V17.6289C4.49308 19.4372 5.91765 20.9256 7.709 20.9649H16.3021C18.0765 20.9011 19.4809 19.4372 19.4692 17.6342V8.1799L14.5427 3.04719H7.79724ZM7.67604 22.5596C5.0055 22.5022 2.87927 20.2824 2.93668 17.6118V6.2142C2.99941 3.57662 5.17666 1.45251 7.79405 1.45251H14.8818C15.0987 1.45251 15.306 1.54075 15.457 1.69703L20.8427 7.30708C20.9841 7.45486 21.0638 7.65366 21.0638 7.85884V17.6289C21.0808 20.2962 19.0014 22.4639 16.3298 22.5596H7.67604Z" fill="#555555"/>
<path fill-rule="evenodd" clip-rule="evenodd" d="M20.2638 8.86522H17.336C15.3894 8.8599 13.8086 7.27374 13.8086 5.33036V2.23777C13.8086 1.79764 14.1658 1.44043 14.6059 1.44043C15.0461 1.44043 15.4033 1.79764 15.4033 2.23777V5.33036C15.4033 6.39773 16.2708 7.26736 17.3381 7.27055H20.2638C20.704 7.27055 21.0612 7.62775 21.0612 8.06788C21.0612 8.50801 20.704 8.86522 20.2638 8.86522Z" fill="#555555"/>
<path fill-rule="evenodd" clip-rule="evenodd" d="M11.5903 17.0681C11.1502 17.0681 10.793 16.7109 10.793 16.2708V9.84848C10.793 9.40835 11.1502 9.05115 11.5903 9.05115C12.0304 9.05115 12.3876 9.40835 12.3876 9.84848V16.2708C12.3876 16.7109 12.0304 17.0681 11.5903 17.0681Z" fill="#555555"/>
<path fill-rule="evenodd" clip-rule="evenodd" d="M9.09981 13.1499C8.89675 13.1499 8.69263 13.0723 8.53742 12.9171C8.22593 12.6066 8.2238 12.1027 8.53529 11.7902L11.0272 9.28546C11.327 8.9846 11.8586 8.9846 12.1573 9.28546L14.6514 11.7902C14.9618 12.1027 14.9607 12.6066 14.6493 12.9171C14.3367 13.2275 13.8317 13.2275 13.5213 12.9149L11.5928 10.9779L9.66431 12.9149C9.50909 13.0723 9.30392 13.1499 9.09981 13.1499Z" fill="#555555"/>
</svg>
