<svg width="24" height="24" viewBox="0 0 24 24" fill="none" xmlns="http://www.w3.org/2000/svg">
<g clip-path="url(#clip0_14644_60060)">
<path d="M4.7702 0.0600748C4.8091 0.0596651 4.848 0.0592553 4.88809 0.0588332C4.93058 0.0586188 4.97308 0.0584045 5.01687 0.0581836C5.06221 0.0577813 5.10754 0.057379 5.15426 0.0569645C5.3066 0.055682 5.45894 0.0547381 5.61129 0.053803C5.72036 0.0529755 5.82943 0.0521348 5.9385 0.0512821C6.93438 0.0438562 7.93029 0.0399086 8.92619 0.0368066C9.05947 0.0363841 9.19275 0.035954 9.32602 0.0355167C9.35915 0.0354084 9.39227 0.0353 9.4264 0.0351884C9.96246 0.0333796 10.4985 0.0296198 11.0345 0.0250975C11.5854 0.0204884 12.1363 0.0178385 12.6872 0.0170271C12.9963 0.016519 13.3054 0.0150773 13.6145 0.0115192C13.9055 0.00820501 14.1964 0.00733318 14.4874 0.00830263C14.594 0.0082361 14.7005 0.0072957 14.807 0.00539624C15.6945 -0.00960937 15.6945 -0.00960935 15.9843 0.231204C16.097 0.341249 16.1952 0.459077 16.2952 0.580913C16.3738 0.659256 16.4533 0.736777 16.5336 0.813384C16.6133 0.892826 16.6929 0.972388 16.7724 1.05206C16.8169 1.09647 16.8614 1.14086 16.9058 1.18525C17.0247 1.30389 17.1434 1.42267 17.2621 1.54149C17.387 1.66655 17.5121 1.79149 17.6371 1.91646C17.8465 2.12576 18.0558 2.33517 18.265 2.54463C18.5066 2.7865 18.7484 3.0282 18.9903 3.26982C19.1989 3.47818 19.4074 3.68664 19.6158 3.89516C19.7399 4.01934 19.864 4.14348 19.9882 4.26754C20.1263 4.40542 20.2641 4.5435 20.4019 4.68159C20.4429 4.72247 20.4839 4.76334 20.5261 4.80546C20.5636 4.84308 20.6011 4.88071 20.6397 4.91948C20.6885 4.96832 20.6885 4.96832 20.7383 5.01815C20.9199 5.21207 20.9823 5.31369 20.9826 5.58642C20.983 5.64617 20.9834 5.70592 20.9838 5.76748C20.9835 5.83393 20.9832 5.90038 20.9829 5.96684C20.9831 6.03732 20.9834 6.1078 20.9837 6.17829C20.9844 6.37227 20.9842 6.56625 20.9838 6.76023C20.9836 6.96934 20.9842 7.17844 20.9847 7.38755C20.9855 7.7974 20.9855 8.20725 20.9853 8.6171C20.9851 8.9503 20.9852 9.28351 20.9854 9.61671C20.9854 9.6641 20.9855 9.71149 20.9855 9.76032C20.9856 9.85658 20.9856 9.95285 20.9857 10.0491C20.9864 10.9526 20.9861 11.8561 20.9856 12.7596C20.9851 13.5859 20.9857 14.4121 20.9868 15.2384C20.988 16.0867 20.9884 16.9351 20.9881 17.7834C20.9879 18.2597 20.988 18.736 20.9889 19.2123C20.9896 19.618 20.9896 20.0236 20.9888 20.4293C20.9884 20.6362 20.9883 20.8431 20.989 21.05C20.9896 21.2396 20.9894 21.4292 20.9885 21.6189C20.9883 21.6872 20.9885 21.7556 20.989 21.824C20.9929 22.4146 20.8927 22.8726 20.4979 23.3219C20.4745 23.3502 20.451 23.3785 20.4269 23.4077C20.1702 23.6938 19.8019 23.8997 19.4239 23.9757C19.3395 23.98 19.2549 23.9818 19.1704 23.982C19.1186 23.9822 19.0668 23.9824 19.0135 23.9826C18.9566 23.9826 18.8997 23.9826 18.8411 23.9826C18.7807 23.9827 18.7202 23.9829 18.658 23.9831C18.4901 23.9835 18.3222 23.9837 18.1543 23.9838C17.9733 23.984 17.7922 23.9845 17.6112 23.9849C17.1739 23.9858 16.7366 23.9863 16.2994 23.9867C16.0934 23.9869 15.8874 23.9871 15.6814 23.9874C14.9965 23.9882 14.3117 23.9889 13.6268 23.9892C13.4491 23.9893 13.2714 23.9894 13.0936 23.9895C13.0274 23.9895 13.0274 23.9895 12.9598 23.9895C12.2445 23.9899 11.5292 23.9911 10.8139 23.9926C10.0794 23.9942 9.34477 23.995 8.61019 23.9952C8.19783 23.9953 7.78548 23.9957 7.37313 23.9969C7.0219 23.9979 6.67068 23.9983 6.31945 23.9978C6.14035 23.9976 5.96127 23.9977 5.78218 23.9986C5.58769 23.9996 5.39323 23.9991 5.19874 23.9985C5.11451 23.9992 5.11451 23.9992 5.02857 24C4.50116 23.996 4.08463 23.8579 3.68726 23.5087C3.65897 23.4853 3.63068 23.4619 3.60153 23.4378C3.31729 23.1827 3.10522 22.8118 3.03351 22.4347C3.02904 22.3187 3.027 22.2039 3.02725 22.0879C3.02714 22.0527 3.02703 22.0175 3.02691 21.9812C3.0266 21.8625 3.02662 21.7438 3.02664 21.6251C3.02649 21.5394 3.02631 21.4537 3.02612 21.368C3.02565 21.1319 3.02548 20.8959 3.02536 20.6598C3.02517 20.4055 3.02473 20.1511 3.02432 19.8967C3.02339 19.2821 3.02292 18.6676 3.02251 18.053C3.0223 17.7636 3.02205 17.4743 3.02181 17.1849C3.02101 16.2232 3.02034 15.2614 3.02 14.2997C3.01991 14.0501 3.01982 13.8004 3.01973 13.5508C3.01972 13.5198 3.01971 13.4888 3.0197 13.4568C3.01933 12.4515 3.01823 11.4463 3.01672 10.441C3.01511 9.37798 3.01419 8.31498 3.01404 7.25197C3.01394 6.67258 3.01353 6.0932 3.01234 5.51381C3.01132 5.02039 3.01095 4.52698 3.0114 4.03357C3.01161 3.78184 3.01152 3.53013 3.01062 3.2784C3.0098 3.04781 3.00984 2.81724 3.01057 2.58665C3.01068 2.50338 3.01048 2.4201 3.00992 2.33682C3.00601 1.70945 3.07324 1.2072 3.50047 0.721002C3.52389 0.69271 3.54731 0.664419 3.57143 0.63527C3.86913 0.303524 4.31948 0.0635796 4.7702 0.0600748ZM4.2768 1.44187C4.25525 1.46782 4.2337 1.49376 4.2115 1.52049C4.06837 1.73974 4.04909 1.92782 4.04881 2.18736C4.04865 2.22189 4.04849 2.25642 4.04832 2.292C4.04788 2.40807 4.04811 2.52413 4.04834 2.6402C4.04817 2.72411 4.04795 2.80803 4.0477 2.89194C4.04713 3.12282 4.04714 3.3537 4.04725 3.58459C4.04727 3.83348 4.04675 4.08237 4.04631 4.33126C4.04553 4.819 4.04528 5.30674 4.04523 5.79447C4.04518 6.19086 4.04499 6.58724 4.04469 6.98362C4.04387 8.10699 4.04344 9.23037 4.04351 10.3537C4.04351 10.4143 4.04352 10.4749 4.04352 10.5373C4.04353 10.598 4.04353 10.6586 4.04353 10.7211C4.04357 11.7044 4.04268 12.6876 4.04136 13.6708C4.04002 14.6799 4.03938 15.6891 4.03946 16.6982C4.03949 17.2649 4.03923 17.8316 4.03823 18.3984C4.03738 18.8809 4.03717 19.3634 4.03781 19.8459C4.03811 20.0921 4.03811 20.3383 4.03731 20.5845C4.03657 20.8099 4.0367 21.0353 4.03752 21.2607C4.03766 21.3422 4.03749 21.4238 4.03697 21.5053C4.02858 22.1319 4.02858 22.1319 4.32915 22.6693C4.35521 22.6901 4.38128 22.7109 4.40813 22.7324C4.43407 22.754 4.46002 22.7755 4.48675 22.7977C4.6733 22.9195 4.83903 22.9601 5.06027 22.9604C5.13577 22.9608 5.13577 22.9608 5.2128 22.9613C5.26782 22.9612 5.32285 22.961 5.37954 22.9609C5.43821 22.9611 5.49688 22.9613 5.55732 22.9615C5.72006 22.9621 5.88279 22.9621 6.04552 22.962C6.22108 22.9619 6.39663 22.9624 6.57218 22.9629C6.91609 22.9637 7.25999 22.9639 7.6039 22.964C7.88345 22.964 8.16301 22.9642 8.44256 22.9645C9.23517 22.9653 10.0278 22.9658 10.8204 22.9657C10.8845 22.9657 10.8845 22.9657 10.9499 22.9657C11.0141 22.9657 11.0141 22.9657 11.0795 22.9657C11.7729 22.9656 12.4662 22.9665 13.1596 22.9678C13.8715 22.9692 14.5834 22.9698 15.2954 22.9697C15.6951 22.9697 16.0948 22.97 16.4945 22.971C16.8348 22.9718 17.1751 22.972 17.5154 22.9714C17.689 22.9711 17.8626 22.9711 18.0361 22.9719C18.2244 22.9728 18.4127 22.9722 18.601 22.9715C18.6831 22.9722 18.6831 22.9722 18.7668 22.9729C19.1255 22.9699 19.379 22.9212 19.6584 22.6801C19.6793 22.654 19.7001 22.6279 19.7215 22.6011C19.7431 22.5751 19.7647 22.5492 19.7869 22.5225C19.9156 22.3252 19.9492 22.1538 19.949 21.9202C19.9492 21.8634 19.9494 21.8067 19.9496 21.7482C19.9493 21.6854 19.949 21.6226 19.9488 21.5598C19.9488 21.4929 19.9489 21.4261 19.949 21.3592C19.9492 21.1756 19.9488 20.9919 19.9484 20.8082C19.948 20.6101 19.9481 20.412 19.9482 20.2139C19.9482 19.8707 19.9479 19.5276 19.9474 19.1844C19.9466 18.6882 19.9464 18.192 19.9463 17.6958C19.9461 16.8907 19.9454 16.0857 19.9446 15.2807C19.9437 14.4986 19.943 13.7166 19.9426 12.9345C19.9426 12.8863 19.9426 12.8381 19.9426 12.7884C19.9425 12.5466 19.9423 12.3048 19.9422 12.063C19.9413 10.0568 19.9396 8.05059 19.9375 6.04436C19.896 6.04419 19.8544 6.04402 19.8116 6.04385C19.418 6.04207 19.0244 6.03941 18.6308 6.03578C18.4285 6.03394 18.2262 6.03243 18.0239 6.03171C17.8283 6.031 17.6327 6.02938 17.4371 6.02716C17.3628 6.02648 17.2886 6.0261 17.2143 6.02606C16.5529 6.02536 16.0414 5.91815 15.5541 5.44607C15.2043 5.07291 15.031 4.67717 15.0248 4.16927C15.0244 4.13599 15.0239 4.10272 15.0234 4.06843C15.022 3.95878 15.0208 3.84913 15.0196 3.73947C15.0187 3.66331 15.0177 3.58715 15.0167 3.51099C15.0141 3.31079 15.0118 3.11058 15.0096 2.91037C15.0072 2.70597 15.0046 2.50157 15.002 2.29718C14.997 1.89631 14.9923 1.49544 14.9877 1.09457C13.6669 1.09021 12.3461 1.08691 11.0253 1.08489C10.412 1.08393 9.79869 1.08262 9.18541 1.08048C8.65088 1.07862 8.11635 1.07741 7.58181 1.077C7.29877 1.07675 7.01575 1.07618 6.73271 1.07482C6.46626 1.07355 6.19982 1.07316 5.93336 1.07344C5.83563 1.07339 5.73789 1.07302 5.64016 1.07231C5.50654 1.07137 5.37297 1.0716 5.23935 1.07211C5.18157 1.07129 5.18157 1.07129 5.12262 1.07046C4.79271 1.07385 4.48896 1.17636 4.2768 1.44187ZM16.015 1.88841C16.0103 2.22072 16.007 2.55303 16.0048 2.88537C16.0038 2.99833 16.0026 3.11129 16.001 3.22424C15.9987 3.38699 15.9976 3.54971 15.9968 3.71247C15.9958 3.76264 15.9949 3.8128 15.9939 3.86449C15.9938 4.21625 16.0471 4.46412 16.2834 4.73797C16.3225 4.76921 16.3225 4.76921 16.3623 4.80108C16.3883 4.82263 16.4142 4.84418 16.441 4.86638C16.6251 4.98659 16.7887 5.02874 17.0073 5.02765C17.0788 5.02764 17.0788 5.02764 17.1517 5.02763C17.2026 5.02715 17.2535 5.02667 17.3059 5.02617C17.3585 5.02604 17.411 5.0259 17.4651 5.02577C17.6326 5.02525 17.8001 5.02407 17.9675 5.02289C18.0812 5.02242 18.1949 5.02199 18.3085 5.02161C18.5869 5.02058 18.8653 5.01898 19.1437 5.01705C18.9627 4.80066 18.7751 4.59494 18.5752 4.39587C18.548 4.3685 18.5207 4.34112 18.4925 4.31292C18.4034 4.22362 18.3142 4.13449 18.2249 4.04537C18.1626 3.98302 18.1003 3.92068 18.038 3.85832C17.908 3.72829 17.778 3.59835 17.6479 3.46847C17.4808 3.3016 17.3138 3.13453 17.147 2.96739C17.0187 2.83892 16.8903 2.71056 16.7618 2.58223C16.7002 2.52062 16.6386 2.45897 16.577 2.39729C16.4914 2.31155 16.4056 2.22596 16.3198 2.14041C16.2942 2.11473 16.2686 2.08904 16.2422 2.06258C16.145 1.94243 16.145 1.94243 16.015 1.88841Z" fill="#555555"/>
<path d="M6.58847 7.99915C6.62764 7.99897 6.66681 7.99879 6.70717 7.99861C6.77173 7.99867 6.77173 7.99867 6.83759 7.99873C6.88331 7.99859 6.92903 7.99845 6.97614 7.99831C7.13004 7.9979 7.28393 7.99784 7.43783 7.99777C7.54788 7.99755 7.65794 7.99731 7.76799 7.99706C8.09871 7.99639 8.42942 7.99611 8.76014 7.99588C8.91585 7.99576 9.07156 7.99558 9.22728 7.9954C9.74483 7.99484 10.2624 7.99435 10.7799 7.9942C10.8131 7.99419 10.8462 7.99418 10.8803 7.99416C10.9135 7.99415 10.9467 7.99414 10.9809 7.99413C11.0482 7.99411 11.1155 7.99409 11.1828 7.99407C11.2162 7.99406 11.2495 7.99405 11.2839 7.99404C11.8249 7.99386 12.3658 7.99304 12.9068 7.99195C13.462 7.99085 14.0173 7.99026 14.5726 7.99021C14.8844 7.99017 15.1962 7.98988 15.508 7.98905C15.8012 7.98828 16.0944 7.98818 16.3876 7.98859C16.4954 7.98863 16.6031 7.98842 16.7108 7.98796C16.8577 7.98737 17.0045 7.98764 17.1513 7.98813C17.1942 7.98775 17.237 7.98738 17.2811 7.98699C17.5066 7.98875 17.6528 8.0015 17.8374 8.14538C17.8649 8.16669 17.8924 8.188 17.9208 8.20995C18.0202 8.34228 17.9989 8.4785 17.9945 8.63806C17.9709 8.797 17.9081 8.87891 17.7907 8.98591C17.6845 9.039 17.6265 9.03859 17.5085 9.03887C17.4489 9.03919 17.4489 9.03918 17.3881 9.0395C17.3442 9.03949 17.3003 9.03949 17.2551 9.03948C17.2087 9.03965 17.1622 9.03982 17.1144 9.04C16.9578 9.04051 16.8011 9.04069 16.6445 9.04087C16.5326 9.04116 16.4207 9.04147 16.3088 9.0418C15.9724 9.0427 15.6359 9.04319 15.2994 9.04361C15.141 9.04381 14.9826 9.04406 14.8242 9.04431C14.2978 9.0451 13.7714 9.04578 13.245 9.04612C13.1084 9.04621 12.9718 9.0463 12.8351 9.04639C12.8012 9.04641 12.7672 9.04643 12.7322 9.04646C12.1819 9.04684 11.6316 9.04803 11.0813 9.04954C10.5165 9.05109 9.95173 9.05193 9.38696 9.05208C9.06977 9.05218 8.75258 9.05259 8.43539 9.05378C8.13709 9.0549 7.83879 9.05507 7.54049 9.05459C7.43087 9.05456 7.32126 9.05486 7.21164 9.0555C7.06224 9.05632 6.91287 9.056 6.76347 9.05538C6.71988 9.05589 6.67629 9.05641 6.63138 9.05693C6.43481 9.05497 6.33102 9.0498 6.16089 8.94363C6.00089 8.77148 6.00504 8.62935 6.00669 8.40148C6.02329 8.28547 6.02329 8.28547 6.13127 8.14246C6.28799 8.02948 6.4001 7.99948 6.58847 7.99915Z" fill="#555555"/>
<path d="M6.68824 10.7768C6.74907 10.7765 6.80989 10.7761 6.87255 10.7758C6.93986 10.7759 7.00718 10.776 7.07449 10.7761C7.14545 10.7759 7.21641 10.7757 7.28736 10.7754C7.48003 10.7748 7.6727 10.7748 7.86537 10.7749C8.02621 10.7749 8.18705 10.7747 8.34789 10.7745C8.72733 10.774 9.10677 10.7739 9.48621 10.7742C9.87767 10.7745 10.2691 10.7739 10.6606 10.7729C10.9967 10.7721 11.3328 10.7718 11.6689 10.772C11.8696 10.7721 12.0703 10.7719 12.2711 10.7713C12.4598 10.7707 12.6486 10.7708 12.8374 10.7714C12.9066 10.7715 12.9759 10.7714 13.0451 10.771C13.1397 10.7705 13.2343 10.771 13.3289 10.7715C13.3818 10.7715 13.4347 10.7715 13.4892 10.7715C13.6811 10.7952 13.7974 10.8775 13.9473 10.9936C14.0467 11.126 14.0254 11.2622 14.021 11.4217C13.9974 11.5807 13.9346 11.6626 13.8173 11.7696C13.6866 11.8349 13.5786 11.8228 13.4323 11.8235C13.4021 11.8237 13.3719 11.8239 13.3407 11.8241C13.239 11.8247 13.1372 11.825 13.0354 11.8253C12.9626 11.8257 12.8898 11.826 12.8171 11.8264C12.5776 11.8277 12.3382 11.8284 12.0988 11.8291C12.0164 11.8293 11.9341 11.8296 11.8517 11.8298C11.5092 11.8308 11.1667 11.8317 10.8241 11.8322C10.3329 11.833 9.8417 11.8345 9.35049 11.8372C9.00527 11.839 8.66006 11.8399 8.31484 11.8401C8.10856 11.8403 7.90231 11.8409 7.69604 11.8424C7.50198 11.8438 7.30795 11.8441 7.11388 11.8435C7.04267 11.8435 6.97145 11.8439 6.90025 11.8447C6.80296 11.8458 6.70579 11.8454 6.6085 11.8447C6.52688 11.8449 6.52688 11.8449 6.44361 11.8451C6.25559 11.8076 6.18637 11.7281 6.0657 11.5828C5.99085 11.4331 5.99625 11.2783 6.01901 11.1158C6.19176 10.832 6.36709 10.7774 6.68824 10.7768Z" fill="#555555"/>
<path d="M15.4166 21.1355H8.57679C8.15177 21.1355 7.80582 20.7895 7.80582 20.3678V14.3253C7.80582 13.9003 8.15177 13.5576 8.57679 13.5576H15.4166C15.8417 13.5576 16.1876 13.9035 16.1876 14.3253V20.3678C16.1843 20.7895 15.8417 21.1355 15.4166 21.1355ZM8.57679 14.1968C8.50431 14.1968 8.445 14.2561 8.445 14.3253V20.3678C8.445 20.4403 8.50431 20.4963 8.57679 20.4963H15.4166C15.4891 20.4963 15.5484 20.437 15.5484 20.3678V14.3253C15.5484 14.2528 15.4891 14.1968 15.4166 14.1968H8.57679Z" fill="#555555"/>
<path d="M13.2976 16.7997C13.2284 16.7997 13.1592 16.7766 13.1032 16.7338L11.9962 15.8771L10.8892 16.7338C10.7936 16.8095 10.6618 16.8227 10.5531 16.7667C10.4444 16.714 10.3752 16.602 10.3752 16.4801V13.8772C10.3752 13.6993 10.5169 13.5577 10.6948 13.5577C10.8727 13.5577 11.0144 13.6993 11.0144 13.8772V15.831L11.8018 15.2215C11.9171 15.1325 12.0786 15.1325 12.1939 15.2215L12.9813 15.831V13.8772C12.9813 13.6993 13.123 13.5577 13.3009 13.5577C13.4788 13.5577 13.6205 13.6993 13.6205 13.8772V16.4801C13.6205 16.602 13.5513 16.714 13.4426 16.7667C13.3932 16.7898 13.347 16.7997 13.2976 16.7997Z" fill="#555555"/>
<path d="M10.6347 18.9447H9.42881C9.25089 18.9447 9.10922 18.803 9.10922 18.6251C9.10922 18.4472 9.25089 18.3055 9.42881 18.3055H10.6347C10.8126 18.3055 10.9543 18.4472 10.9543 18.6251C10.9543 18.803 10.8126 18.9447 10.6347 18.9447Z" fill="#555555"/>
<path d="M10.6347 19.9616H9.42881C9.25089 19.9616 9.10922 19.82 9.10922 19.642C9.10922 19.4641 9.25089 19.3225 9.42881 19.3225H10.6347C10.8126 19.3225 10.9543 19.4641 10.9543 19.642C10.9543 19.82 10.8126 19.9616 10.6347 19.9616Z" fill="#555555"/>
<path d="M6.65042 5.01046C6.70285 5.01012 6.75529 5.00979 6.80932 5.00944C6.86688 5.00932 6.92445 5.00919 6.98376 5.00906C7.04436 5.00876 7.10496 5.00845 7.1674 5.00813C7.36844 5.00715 7.56948 5.00667 7.77051 5.0062C7.83976 5.00601 7.90901 5.00582 7.97826 5.00563C8.30358 5.00474 8.6289 5.00407 8.95423 5.00368C9.32961 5.00323 9.70497 5.002 10.0803 5.00011C10.3706 4.9987 10.6609 4.99801 10.9511 4.99786C11.1244 4.99775 11.2977 4.99733 11.471 4.99615C11.6644 4.99486 11.8578 4.99506 12.0512 4.99538C12.1371 4.99449 12.1371 4.99449 12.2248 4.99357C12.5209 4.99539 12.7128 4.99949 12.9354 5.20411C13.029 5.33808 13.0412 5.43699 13.0258 5.59811C13.0234 5.63272 13.0209 5.66734 13.0184 5.703C12.9646 5.86333 12.8945 5.96181 12.7486 6.04464C12.5442 6.08042 12.3413 6.07603 12.1342 6.07411C12.0711 6.07435 12.0079 6.07469 11.9448 6.07513C11.7736 6.07599 11.6025 6.07539 11.4314 6.07447C11.2521 6.0737 11.0728 6.07412 10.8936 6.07435C10.5926 6.07456 10.2916 6.07382 9.99059 6.07252C9.64276 6.07102 9.29495 6.07102 8.94712 6.07183C8.61229 6.07257 8.27747 6.07225 7.94265 6.07146C7.80026 6.07114 7.65787 6.07118 7.51548 6.07153C7.34774 6.07189 7.18004 6.07132 7.01231 6.07004C6.92151 6.06957 6.83071 6.07001 6.73992 6.07048C6.68571 6.06988 6.63151 6.06929 6.57566 6.06868C6.52866 6.06855 6.48165 6.06842 6.43323 6.06828C6.26944 6.03821 6.19046 5.9715 6.07103 5.85786C5.98424 5.68429 5.99729 5.4865 6.02433 5.29751C6.20597 5.05697 6.35964 5.01173 6.65042 5.01046Z" fill="#555555"/>
</g>
<defs>
<clipPath id="clip0_14644_60060">
<rect width="24" height="24" fill="white"/>
</clipPath>
</defs>
</svg>
