<svg width="24" height="24" viewBox="0 0 24 24" fill="none" xmlns="http://www.w3.org/2000/svg">
<path d="M21 10H15C14.4478 10 13.9999 9.55244 13.9999 8.99998V3.00005C13.9999 2.44783 14.4475 2 15 2C18.8598 2 22 5.14008 22 8.99992C21.9998 9.55213 21.5525 10 21 10ZM16 8.00017H19.8993C19.5012 6.04406 17.9561 4.49949 16 4.10045V8.00017ZM11 22C6.03744 22 2 17.9627 2 13.0001C2 8.03761 6.03738 4.00021 11 4.00021C11.5522 4.00021 12.0001 4.4478 12.0001 5.00026V12.0002H19.0001C19.5523 12.0002 20.0001 12.4478 20.0001 13.0002C20.0001 17.9625 15.9626 22 11 22ZM10.0002 6.07162C6.61244 6.55827 4.00018 9.47979 4.00018 13.0001C4.00018 16.8601 7.14054 20 11.0002 20C14.5205 20 17.4424 17.388 17.9288 14.0001L10.9996 13.9999C10.4474 13.9999 9.99952 13.5523 9.99952 12.9998L10.0002 6.07162Z" fill="#555555"/>
</svg>
