<svg width="24" height="24" viewBox="0 0 24 24" fill="none" xmlns="http://www.w3.org/2000/svg">
<path fill-rule="evenodd" clip-rule="evenodd" d="M9.36816 4.5459C10.5447 4.54598 11.4971 5.50106 11.4971 6.67676C11.4966 7.85208 10.5444 8.80656 9.36816 8.80664C8.19206 8.80638 7.23969 7.85197 7.23926 6.67676C7.23926 5.50117 8.19179 4.54616 9.36816 4.5459ZM9.36816 6.0459C9.02205 6.04616 8.73926 6.32776 8.73926 6.67676C8.73969 7.02538 9.02232 7.30638 9.36816 7.30664C9.71416 7.30656 9.99663 7.02549 9.99707 6.67676C9.99707 6.32765 9.71442 6.04598 9.36816 6.0459Z" fill="#555555"/>
<path fill-rule="evenodd" clip-rule="evenodd" d="M9.88867 2.12207C10.646 2.22518 11.3674 2.51147 11.9893 2.95605C12.6112 3.40079 13.1149 3.99123 13.458 4.6748C13.6853 5.12773 13.8348 5.61313 13.9072 6.11133C14.4231 6.20297 14.9029 6.44943 15.2783 6.8252C15.7611 7.30856 16.0321 7.96431 16.0322 8.64746V9.44531H17.7744C18.0503 9.44489 18.323 9.50766 18.5713 9.62793C18.7579 9.71839 18.9282 9.8396 19.0732 9.98633L19.21 10.1416L19.2197 10.1543L21.2744 12.8848L21.2764 12.8877L21.3848 13.0449C21.6207 13.4207 21.7485 13.8565 21.752 14.3027V18.8594L21.748 18.9512C21.739 19.0418 21.7166 19.1313 21.6816 19.2158C21.6349 19.3288 21.566 19.432 21.4795 19.5186C21.393 19.6052 21.2899 19.6738 21.1768 19.7207C21.092 19.7559 21.0022 19.7781 20.9111 19.7871L20.8193 19.792H18.6006C18.2468 20.9254 17.1894 21.749 15.9395 21.749C14.711 21.7488 13.6717 20.9521 13.3008 19.8486H9.95215C9.581 20.9522 8.54117 21.749 7.3125 21.749C6.09349 21.7488 5.06095 20.9642 4.68262 19.874H4.5752C3.89198 19.874 3.23675 19.6025 2.75391 19.1191C2.27115 18.6358 2.00008 17.9801 2 17.2969V8.64746C2.0001 7.96431 2.27117 7.30856 2.75391 6.8252C3.23675 6.34184 3.892 6.07031 4.5752 6.07031H4.82715C4.90091 5.58115 5.05054 5.10481 5.27441 4.66016C5.6185 3.97687 6.12529 3.38788 6.74902 2.94531C7.37278 2.50287 8.09629 2.21966 8.85449 2.12109L8.9502 2.11523H9.78711L9.88867 2.12207ZM7.3125 17.6709C6.60312 17.6711 6.02645 18.2472 6.02637 18.96C6.02663 19.6725 6.60323 20.2488 7.3125 20.249C8.02197 20.249 8.59935 19.6727 8.59961 18.96C8.59953 18.2471 8.02208 17.6709 7.3125 17.6709ZM15.9395 17.6709C15.2301 17.6711 14.6534 18.2472 14.6533 18.96C14.6536 19.6725 15.2302 20.2488 15.9395 20.249C16.6489 20.249 17.2263 19.6727 17.2266 18.96C17.2265 18.2471 16.649 17.6709 15.9395 17.6709ZM4.5752 7.57031C4.29036 7.57031 4.01713 7.68378 3.81543 7.88574C3.61378 8.08765 3.5001 8.36151 3.5 8.64746V17.2969C3.50008 17.5828 3.61378 17.8567 3.81543 18.0586C4.01714 18.2606 4.29036 18.374 4.5752 18.374H4.58887C4.85764 17.1155 5.97376 16.1711 7.3125 16.1709C8.64232 16.1709 9.75174 17.1029 10.0303 18.3486H13.2227C13.501 17.103 14.6098 16.1711 15.9395 16.1709C17.2489 16.1709 18.3433 17.0749 18.6426 18.292H20.252V14.3145L20.2402 14.1729C20.2168 14.0328 20.1597 13.8991 20.0742 13.7842L18.0303 11.0674C18.0002 11.0291 17.9615 10.9988 17.918 10.9775C17.8741 10.9563 17.825 10.9452 17.7764 10.9453H16.0322V14.9375C16.0322 15.3517 15.6964 15.6875 15.2822 15.6875C14.8682 15.6872 14.5322 15.3516 14.5322 14.9375V8.64746C14.5321 8.36162 14.4193 8.08763 14.2178 7.88574C14.1188 7.78662 14.0025 7.70881 13.876 7.65527C13.7841 8.14428 13.617 8.61766 13.376 9.05664L13.377 9.05762L10.46 14.4902L10.459 14.4893C10.3551 14.6846 10.2012 14.8491 10.0117 14.9639C9.81987 15.08 9.59933 15.1416 9.375 15.1416C9.1507 15.1415 8.93007 15.08 8.73828 14.9639C8.5488 14.8489 8.39391 14.6848 8.29004 14.4893L5.35938 9.04102L5.36035 9.04004C5.10663 8.58097 4.93306 8.08394 4.84375 7.57031H4.5752ZM9.00977 3.61523C8.50854 3.68652 8.03073 3.87564 7.61719 4.16895C7.19325 4.46977 6.84829 4.87019 6.61426 5.33496C6.38023 5.79981 6.2638 6.31537 6.27441 6.83594C6.2837 7.29141 6.39011 7.73898 6.58594 8.14844L6.67578 8.32129L6.68066 8.33105L9.375 13.3398L12.0557 8.34766L12.0596 8.34082L12.1484 8.16699C12.3435 7.75619 12.4501 7.3079 12.459 6.85156C12.4691 6.33013 12.3519 5.81361 12.1182 5.34766C11.8843 4.8817 11.5399 4.47969 11.1162 4.17676C10.704 3.88212 10.2279 3.69003 9.72754 3.61523H9.00977Z" fill="#555555"/>
</svg>
