<svg width="24" height="24" viewBox="0 0 24 24" fill="none" xmlns="http://www.w3.org/2000/svg">
<path d="M21.25 12C21.25 11.7099 21.149 11.4304 20.9668 11.208L20.8838 11.1162C20.6494 10.8818 20.3315 10.75 20 10.75H14.75V21.25H20C20.3315 21.25 20.6494 21.1182 20.8838 20.8838C21.1182 20.6494 21.25 20.3315 21.25 20V12ZM6.2002 16.9502C6.61432 16.9503 6.9502 17.286 6.9502 17.7002C6.9501 18.1143 6.61426 18.4501 6.2002 18.4502H5.2998C4.88574 18.4501 4.5499 18.1143 4.5498 17.7002C4.5498 17.286 4.88568 16.9503 5.2998 16.9502H6.2002ZM10.7002 16.9502L10.7764 16.9541C11.1547 16.9924 11.4502 17.3118 11.4502 17.7002C11.4501 18.0885 11.1547 18.408 10.7764 18.4463L10.7002 18.4502H8.90039C8.48624 18.4502 8.15049 18.1143 8.15039 17.7002C8.15039 17.286 8.48618 16.9502 8.90039 16.9502H10.7002ZM18.2998 16.9502C18.714 16.9502 19.0498 17.286 19.0498 17.7002C19.0497 18.1143 18.714 18.4502 18.2998 18.4502H16.5C16.0858 18.4502 15.7501 18.1143 15.75 17.7002C15.75 17.286 16.0858 16.9502 16.5 16.9502H18.2998ZM6.2002 13.25C6.61432 13.2501 6.95019 13.5859 6.9502 14C6.9502 14.4141 6.61432 14.7499 6.2002 14.75H5.2998C4.88568 14.7499 4.5498 14.4141 4.5498 14C4.54981 13.5859 4.88569 13.2501 5.2998 13.25H6.2002ZM10.7002 13.25L10.7764 13.2539C11.1547 13.2922 11.4502 13.6116 11.4502 14C11.4502 14.3884 11.1547 14.7078 10.7764 14.7461L10.7002 14.75H8.90039C8.48618 14.75 8.15039 14.4142 8.15039 14C8.1504 13.5858 8.48618 13.25 8.90039 13.25H10.7002ZM18.2998 13.25L18.377 13.2539C18.755 13.2924 19.0498 13.6118 19.0498 14C19.0498 14.3882 18.755 14.7076 18.377 14.7461L18.2998 14.75H16.5C16.0858 14.75 15.75 14.4142 15.75 14C15.75 13.5858 16.0858 13.25 16.5 13.25H18.2998ZM6.2002 9.5498L6.27637 9.55371C6.65465 9.59196 6.95009 9.91146 6.9502 10.2998C6.9502 10.6882 6.6547 11.0076 6.27637 11.0459L6.2002 11.0498H5.2998C4.88568 11.0497 4.5498 10.714 4.5498 10.2998C4.54992 9.88575 4.88575 9.54991 5.2998 9.5498H6.2002ZM10.7002 9.5498L10.7764 9.55371C11.1546 9.59196 11.4501 9.91146 11.4502 10.2998C11.4502 10.6882 11.1547 11.0076 10.7764 11.0459L10.7002 11.0498H8.90039C8.48618 11.0498 8.15039 10.714 8.15039 10.2998C8.1505 9.88569 8.48625 9.5498 8.90039 9.5498H10.7002ZM6.2002 5.84961C6.61419 5.84971 6.94998 6.18565 6.9502 6.59961C6.9502 7.01376 6.61432 7.34951 6.2002 7.34961H5.2998C4.88568 7.3495 4.5498 7.01376 4.5498 6.59961C4.55002 6.18565 4.88582 5.84972 5.2998 5.84961H6.2002ZM10.7002 5.84961L10.7764 5.85352C11.1546 5.89175 11.45 6.21135 11.4502 6.59961C11.4502 6.98802 11.1547 7.30742 10.7764 7.3457L10.7002 7.34961H8.90039C8.48618 7.34961 8.15039 7.01382 8.15039 6.59961C8.15061 6.18558 8.48631 5.84961 8.90039 5.84961H10.7002ZM13.25 4C13.25 3.70995 13.149 3.43043 12.9668 3.20801L12.8838 3.11621C12.6494 2.88179 12.3315 2.75 12 2.75H4C3.70995 2.75 3.43043 2.85098 3.20801 3.0332L3.11621 3.11621C2.88179 3.35063 2.75 3.66848 2.75 4V20C2.75 20.3315 2.88179 20.6494 3.11621 20.8838L3.20801 20.9668C3.43043 21.149 3.70995 21.25 4 21.25H13.25V4ZM14.75 9.25H20C20.7293 9.25 21.4286 9.53994 21.9443 10.0557L22.127 10.2568C22.5281 10.7462 22.75 11.3617 22.75 12V20C22.75 20.7293 22.4601 21.4286 21.9443 21.9443C21.4286 22.4601 20.7293 22.75 20 22.75H4C3.36168 22.75 2.74624 22.5281 2.25684 22.127L2.05566 21.9443C1.53994 21.4286 1.25 20.7293 1.25 20V4C1.25 3.27065 1.53994 2.57139 2.05566 2.05566L2.25684 1.87305C2.74624 1.47192 3.36168 1.25 4 1.25H12C12.7293 1.25 13.4286 1.53994 13.9443 2.05566L14.127 2.25684C14.5281 2.74624 14.75 3.36168 14.75 4V9.25Z" fill="#555555"/>
</svg>
