<svg width="24" height="24" viewBox="0 0 24 24" fill="none" xmlns="http://www.w3.org/2000/svg">
<g clip-path="url(#clip0_4_733)">
<path d="M15.8691 6.5918C15.8691 4.46225 14.1641 2.75 12.0791 2.75C9.99421 2.75019 8.29002 4.46236 8.29002 6.5918C8.29025 8.72103 9.99435 10.4324 12.0791 10.4326C14.164 10.4326 15.8689 8.72115 15.8691 6.5918ZM17.3691 6.5918C17.3689 8.74751 16.1005 10.6097 14.2705 11.4521C17.1137 12.2667 19.6254 14.6282 20.7978 18.4209L20.9336 18.8906L21.7236 21.8037L21.7402 21.8789C21.802 22.2539 21.571 22.622 21.1963 22.7236C20.8215 22.8253 20.4359 22.6244 20.2998 22.2695L20.2763 22.1963L19.4863 19.2842L19.3652 18.8672C18.0583 14.6305 14.9734 12.6309 12 12.6309C8.93065 12.6309 5.74235 14.7617 4.51365 19.2842L3.72361 22.1963C3.61518 22.596 3.20345 22.832 2.80369 22.7236C2.40394 22.6152 2.16793 22.2035 2.27634 21.8037L3.06638 18.8906L3.20213 18.4209C4.38775 14.5856 6.94251 12.2123 9.82517 11.4238C8.02897 10.568 6.79018 8.72279 6.79002 6.5918C6.79002 3.64998 9.14983 1.25019 12.0791 1.25C15.0085 1.25 17.3691 3.64986 17.3691 6.5918Z" fill="#555555"/>
</g>
<defs>
<clipPath id="clip0_4_733">
<rect width="24" height="24" fill="white"/>
</clipPath>
</defs>
</svg>
