<svg width="24" height="24" viewBox="0 0 24 24" fill="none" xmlns="http://www.w3.org/2000/svg">
<path d="M21.25 4C21.25 3.30964 20.6904 2.75 20 2.75H4C3.30964 2.75 2.75 3.30964 2.75 4V20C2.75 20.6904 3.30964 21.25 4 21.25H20C20.6904 21.25 21.25 20.6904 21.25 20V4ZM15.917 15.333C15.9168 15.011 15.6551 14.75 15.333 14.75C15.0111 14.7502 14.7502 15.0111 14.75 15.333C14.75 15.6551 15.011 15.9168 15.333 15.917C15.6552 15.917 15.917 15.6552 15.917 15.333ZM15.4697 7.46973C15.7626 7.17683 16.2374 7.17683 16.5303 7.46973C16.8232 7.76262 16.8232 8.23738 16.5303 8.53027L8.53027 16.5303C8.23738 16.8232 7.76262 16.8232 7.46973 16.5303C7.17683 16.2374 7.17683 15.7626 7.46973 15.4697L15.4697 7.46973ZM8.91699 8.33301C8.91682 8.01099 8.65507 7.75 8.33301 7.75C8.0111 7.75018 7.75018 8.0111 7.75 8.33301C7.75 8.65507 8.01099 8.91682 8.33301 8.91699C8.65517 8.91699 8.91699 8.65517 8.91699 8.33301ZM17.417 15.333C17.417 16.4836 16.4836 17.417 15.333 17.417C14.1826 17.4168 13.25 16.4835 13.25 15.333C13.2502 14.1827 14.1827 13.2502 15.333 13.25C16.4835 13.25 17.4168 14.1826 17.417 15.333ZM10.417 8.33301C10.417 9.4836 9.4836 10.417 8.33301 10.417C7.18256 10.4168 6.25 9.48349 6.25 8.33301C6.25018 7.18267 7.18267 6.25018 8.33301 6.25C9.48349 6.25 10.4168 7.18256 10.417 8.33301ZM22.75 20C22.75 21.5188 21.5188 22.75 20 22.75H4C2.48122 22.75 1.25 21.5188 1.25 20V4C1.25 2.48122 2.48122 1.25 4 1.25H20C21.5188 1.25 22.75 2.48122 22.75 4V20Z" fill="#555555"/>
</svg>
