<svg width="24" height="24" viewBox="0 0 24 24" fill="none" xmlns="http://www.w3.org/2000/svg">
<mask id="path-1-outside-1_4_636" maskUnits="userSpaceOnUse" x="1.5" y="3" width="21" height="18" fill="black">
<rect fill="white" x="1.5" y="3" width="21" height="18"/>
<path fill-rule="evenodd" clip-rule="evenodd" d="M15.8806 4.13651C15.2919 4.42699 15.2884 4.43363 15.2537 5.31635C15.2251 6.04532 15.1596 6.56354 15.0494 6.93295C14.934 7.32002 14.9468 7.3128 14.6534 7.15586C14.28 6.95611 13.5624 6.41339 13.5624 6.33071C13.5624 6.31187 13.6376 6.11396 13.7295 5.89089C13.9664 5.31553 13.955 5.09109 13.673 4.78C13.5087 4.59873 13.3687 4.56721 12.951 4.61741L12.5739 4.6627L12.1702 4.43994L11.7666 4.21715L11.2818 4.24466C10.6577 4.28006 10.4608 4.32021 10.3083 4.44316C10.139 4.57965 10.0731 4.73141 10.0731 4.98446C10.0731 5.13599 10.0341 5.30525 9.93928 5.56528C9.86571 5.76708 9.797 5.94701 9.78661 5.96506C9.77621 5.98312 9.71533 5.94446 9.65126 5.87916C9.51099 5.73611 9.43923 5.7057 9.03803 5.6192C8.56344 5.51685 8.53831 5.52812 7.99709 6.08539C7.66594 6.42634 7.4055 6.65188 7.10085 6.86168C6.59608 7.20923 6.5466 7.28545 6.5466 7.71584C6.5466 7.96767 6.53372 8.01759 6.42061 8.20451C6.29652 8.40961 6.28861 8.41494 5.89164 8.5618C5.66999 8.64382 5.35502 8.76752 5.19169 8.83674C4.84109 8.98532 4.77512 9.00349 4.4093 9.05255C4.16642 9.08508 4.05528 9.13182 3.52854 9.4227C2.60464 9.93296 2.64807 9.85439 2.62851 11.0501C2.61733 11.7333 2.60067 11.9748 2.5572 12.0849C2.44561 12.3671 2.48659 12.5259 2.77558 12.9313C2.90431 13.1118 2.94125 13.2028 2.97384 13.4193C2.9999 13.5927 3.05265 13.75 3.12507 13.8706C3.23168 14.0482 3.23476 14.0656 3.19957 14.2913C3.14259 14.6567 3.17429 14.8092 3.38603 15.1882C3.553 15.487 3.57694 15.5568 3.57694 15.744C3.57694 15.914 3.55359 15.9981 3.46354 16.1528C3.32615 16.3889 3.29371 16.5698 3.35407 16.7633C3.41008 16.9426 3.8288 17.4192 4.05175 17.5573C4.21029 17.6556 4.23516 17.6589 4.75537 17.6512C5.13816 17.6455 5.32451 17.6268 5.39749 17.5869C5.45406 17.556 5.64627 17.3962 5.82467 17.2317L6.14904 16.9328L6.83967 16.9599C7.31418 16.9786 7.56333 16.9735 7.63583 16.9436C7.69389 16.9197 7.88599 16.754 8.06272 16.5753C8.57963 16.0526 8.57038 16.0573 9.07081 16.0573H9.4977L9.85045 15.8326C10.1548 15.6387 10.2426 15.6021 10.4903 15.5657L10.7775 15.5235L11.0464 15.6922C11.3032 15.8535 11.328 15.8608 11.5948 15.8558L11.8742 15.8505L12.1264 16.1994C12.2745 16.4041 12.4006 16.6251 12.4318 16.7345C12.5054 16.9928 12.58 17.0996 12.8491 17.3324C13.1399 17.5838 13.2797 17.6465 13.5519 17.6476C13.9119 17.649 14.3001 17.8826 14.3814 18.1466C14.4723 18.442 14.758 19.0043 14.8917 19.1511C15.065 19.3415 15.2297 19.4313 15.5498 19.5098C15.6895 19.544 15.9321 19.6333 16.0891 19.7082C16.4371 19.8743 16.5397 19.8772 16.8071 19.7285L17.0155 19.6127L17.3181 19.807C17.7795 20.1033 17.9415 20.0733 18.3685 19.6132L18.6274 19.3342H18.8405C19.1084 19.3342 19.4325 19.2093 19.551 19.0604C19.6017 18.9967 19.707 18.727 19.7939 18.4383C19.951 17.9164 20.494 16.4476 20.9246 15.3803C21.0574 15.0511 21.1844 14.6891 21.2068 14.5758C21.2293 14.4625 21.3079 14.15 21.3815 13.8813C21.4895 13.4867 21.5114 13.351 21.4952 13.1749C21.4731 12.9347 21.0914 11.6412 20.9966 11.4853C20.9637 11.4314 20.7919 11.2106 20.6146 10.9948C20.339 10.6591 20.2886 10.5758 20.2665 10.4192C20.2212 10.0997 20.0793 9.94748 19.6145 9.71963C19.5847 9.70503 19.5012 9.52175 19.4289 9.31239C19.3567 9.10298 19.254 8.88372 19.2006 8.82513C19.1473 8.76653 18.9025 8.58691 18.6565 8.42601L18.2092 8.1334L18.164 7.81772C18.1071 7.4208 18.0615 7.30248 17.8924 7.11289C17.7702 6.97592 17.757 6.9399 17.7562 6.74105C17.7548 6.34252 17.6104 6.1293 17.2231 5.95376C17.1289 5.91106 17.0509 5.87111 17.0498 5.86495C17.0487 5.85875 17.0087 5.53412 16.9609 5.14344C16.868 4.38532 16.8241 4.24333 16.6392 4.10421C16.4424 3.95598 16.228 3.96513 15.8806 4.13651ZM16.339 4.98054C16.3614 5.15859 16.3995 5.47726 16.4236 5.68863C16.4792 6.1762 16.5394 6.27659 16.8946 6.47375L17.1631 6.62284V6.8786C17.1631 7.17093 17.1913 7.24459 17.3865 7.46275C17.5087 7.59936 17.5326 7.65788 17.5704 7.91406C17.6559 8.49327 17.6721 8.51533 18.3337 8.95569L18.7723 9.24771L18.9126 9.65028C19.0626 10.081 19.2101 10.2804 19.4164 10.3311C19.6011 10.3764 19.6873 10.4572 19.6873 10.5848C19.6873 10.7819 19.7759 10.9363 20.1473 11.3872L20.503 11.8189L20.6927 12.4454C20.7971 12.79 20.8908 13.1262 20.901 13.1926C20.9118 13.2631 20.8799 13.4513 20.8243 13.6453C20.772 13.8279 20.6974 14.1186 20.6586 14.2913C20.6198 14.464 20.3927 15.0997 20.1538 15.7041C19.6913 16.8739 19.2877 17.9862 19.1855 18.3727C19.1512 18.5022 19.0966 18.6303 19.0641 18.6573C19.0297 18.6857 18.8974 18.7063 18.7486 18.7063C18.4137 18.7063 18.2907 18.7718 18.0059 19.1018L17.7751 19.369L17.479 19.175C17.1159 18.9371 16.9489 18.9201 16.666 19.0921L16.4843 19.2025L16.1434 19.0541C15.9558 18.9724 15.7286 18.8935 15.6383 18.8788C15.548 18.864 15.4294 18.8189 15.3746 18.7784C15.2764 18.7058 15.0765 18.307 14.9272 17.8858C14.7723 17.4489 14.2336 17.0719 13.6957 17.0241C13.4409 17.0015 13.3977 16.9847 13.2274 16.8422C13.0754 16.715 13.0293 16.6468 12.984 16.4831C12.9243 16.2666 12.443 15.5499 12.2304 15.3608C12.1024 15.2469 11.8552 15.1905 11.6433 15.2268C11.5331 15.2457 11.4681 15.2234 11.2649 15.0966C10.9408 14.8944 10.8819 14.8831 10.4373 14.9378C10.0429 14.9862 9.95176 15.0222 9.52713 15.297L9.28511 15.4536L8.99475 15.4268C8.83505 15.4121 8.64604 15.4117 8.57465 15.4258C8.39543 15.4614 7.99052 15.7584 7.6724 16.0876L7.4062 16.3632L6.76294 16.3242C6.37369 16.3006 6.07145 16.2992 5.99747 16.3208C5.93021 16.3403 5.71305 16.5048 5.5149 16.6864L5.15457 17.0164L4.75159 17.0176C4.35707 17.0188 4.3456 17.0163 4.20476 16.8984C4.12566 16.8321 4.02833 16.7295 3.98846 16.6703L3.91604 16.5628L4.03416 16.3708C4.14886 16.1845 4.15231 16.1662 4.15231 15.7453V15.3117L3.95553 14.9637L3.75876 14.6157L3.80048 14.3248C3.84989 13.9801 3.83185 13.8698 3.68641 13.6273C3.61543 13.509 3.56202 13.3475 3.53355 13.1653C3.49572 12.9231 3.46346 12.8482 3.29538 12.6119L3.10098 12.3388L3.15859 12.1769C3.19861 12.0646 3.21438 11.8951 3.21022 11.6227C3.20696 11.4068 3.21442 11.0183 3.22682 10.7593L3.24939 10.2884L3.77416 9.99716C4.24953 9.7334 4.33209 9.70079 4.65095 9.6511C4.87839 9.61563 5.148 9.53631 5.41286 9.42694C5.63829 9.33385 5.97921 9.19944 6.17049 9.12829C6.36174 9.0571 6.56946 8.96229 6.63209 8.91759C6.69471 8.87289 6.83057 8.69527 6.93395 8.52287C7.1141 8.22257 7.12249 8.19612 7.13478 7.89248L7.14758 7.57558L7.56363 7.29212C7.85674 7.09244 8.09249 6.889 8.36154 6.60361L8.7434 6.19849L8.96884 6.24825C9.13959 6.28593 9.22126 6.32851 9.30556 6.42387C9.51377 6.65942 9.78056 6.7175 10.0318 6.58203C10.2103 6.48572 10.2532 6.41485 10.464 5.86782C10.5771 5.5745 10.6429 5.33872 10.6564 5.17837L10.6769 4.9347L10.8297 4.91476C10.9138 4.90378 11.1273 4.88392 11.3042 4.87065L11.6259 4.84648L12.0385 5.07127L12.4512 5.29606L12.7708 5.27008C12.9466 5.2558 13.1297 5.2337 13.1776 5.22099C13.3283 5.181 13.3221 5.3025 13.1529 5.70825C12.9561 6.18005 12.9291 6.30206 12.9772 6.50236C13.0233 6.69419 13.3298 7.00591 13.825 7.36448C14.5274 7.87309 14.9831 8.0128 15.2596 7.80426C15.4763 7.64092 15.6934 7.0209 15.7861 6.30068C15.8073 6.13641 15.8358 5.73906 15.8495 5.41764L15.8745 4.83333L16.0455 4.74852C16.1396 4.7019 16.2349 4.66219 16.2573 4.66026C16.281 4.65822 16.3153 4.79299 16.339 4.98054ZM10.1287 8.94922C10.0267 9.00012 9.90658 9.08383 9.86192 9.13527C9.63835 9.3926 9.56362 9.86134 9.69689 10.1706C9.76935 10.3389 10.0148 10.5971 10.1432 10.6402C10.2164 10.6647 10.2215 10.6938 10.2215 11.0777C10.2215 11.4619 10.2275 11.4952 10.3127 11.5852C10.4122 11.6904 10.5034 11.705 10.6426 11.638C10.7779 11.5728 10.8155 11.4417 10.8155 11.0348C10.8155 10.6971 10.8218 10.6643 10.8922 10.6407C10.9343 10.6266 11.0272 10.5608 11.0985 10.4946C11.57 10.057 11.4767 9.25105 10.9206 8.95809C10.6654 8.82364 10.3869 8.82054 10.1287 8.94922ZM10.7244 9.58019C10.7748 9.63348 10.8155 9.72249 10.8155 9.7794C10.8155 9.89474 10.6343 10.1118 10.5381 10.1118C10.4464 10.1118 10.2706 10.0049 10.2446 9.93339C10.1234 9.59962 10.4885 9.33083 10.7244 9.58019ZM16.189 12.6769C15.8923 12.794 15.7102 12.9982 15.6175 13.3182C15.4983 13.7299 15.6665 14.1453 16.0588 14.4085C16.1566 14.4741 16.1609 14.4903 16.1609 14.8001C16.1609 15.1589 16.2085 15.3527 16.3108 15.4106C16.4278 15.4768 16.5983 15.4548 16.6791 15.3631C16.7451 15.2882 16.7548 15.2256 16.7548 14.8734V14.4695L16.8986 14.3919C17.1917 14.2338 17.3487 13.9419 17.3487 13.555C17.3487 13.0674 17.0041 12.6748 16.5448 12.639C16.4118 12.6286 16.2742 12.6433 16.189 12.6769ZM16.6637 13.3477C16.9009 13.5984 16.6471 13.9837 16.3296 13.8549C16.2391 13.8181 16.1557 13.6201 16.1828 13.5061C16.2124 13.3815 16.3658 13.2513 16.4831 13.2513C16.5323 13.2513 16.6136 13.2947 16.6637 13.3477Z"/>
</mask>
<path fill-rule="evenodd" clip-rule="evenodd" d="M15.8806 4.13651C15.2919 4.42699 15.2884 4.43363 15.2537 5.31635C15.2251 6.04532 15.1596 6.56354 15.0494 6.93295C14.934 7.32002 14.9468 7.3128 14.6534 7.15586C14.28 6.95611 13.5624 6.41339 13.5624 6.33071C13.5624 6.31187 13.6376 6.11396 13.7295 5.89089C13.9664 5.31553 13.955 5.09109 13.673 4.78C13.5087 4.59873 13.3687 4.56721 12.951 4.61741L12.5739 4.6627L12.1702 4.43994L11.7666 4.21715L11.2818 4.24466C10.6577 4.28006 10.4608 4.32021 10.3083 4.44316C10.139 4.57965 10.0731 4.73141 10.0731 4.98446C10.0731 5.13599 10.0341 5.30525 9.93928 5.56528C9.86571 5.76708 9.797 5.94701 9.78661 5.96506C9.77621 5.98312 9.71533 5.94446 9.65126 5.87916C9.51099 5.73611 9.43923 5.7057 9.03803 5.6192C8.56344 5.51685 8.53831 5.52812 7.99709 6.08539C7.66594 6.42634 7.4055 6.65188 7.10085 6.86168C6.59608 7.20923 6.5466 7.28545 6.5466 7.71584C6.5466 7.96767 6.53372 8.01759 6.42061 8.20451C6.29652 8.40961 6.28861 8.41494 5.89164 8.5618C5.66999 8.64382 5.35502 8.76752 5.19169 8.83674C4.84109 8.98532 4.77512 9.00349 4.4093 9.05255C4.16642 9.08508 4.05528 9.13182 3.52854 9.4227C2.60464 9.93296 2.64807 9.85439 2.62851 11.0501C2.61733 11.7333 2.60067 11.9748 2.5572 12.0849C2.44561 12.3671 2.48659 12.5259 2.77558 12.9313C2.90431 13.1118 2.94125 13.2028 2.97384 13.4193C2.9999 13.5927 3.05265 13.75 3.12507 13.8706C3.23168 14.0482 3.23476 14.0656 3.19957 14.2913C3.14259 14.6567 3.17429 14.8092 3.38603 15.1882C3.553 15.487 3.57694 15.5568 3.57694 15.744C3.57694 15.914 3.55359 15.9981 3.46354 16.1528C3.32615 16.3889 3.29371 16.5698 3.35407 16.7633C3.41008 16.9426 3.8288 17.4192 4.05175 17.5573C4.21029 17.6556 4.23516 17.6589 4.75537 17.6512C5.13816 17.6455 5.32451 17.6268 5.39749 17.5869C5.45406 17.556 5.64627 17.3962 5.82467 17.2317L6.14904 16.9328L6.83967 16.9599C7.31418 16.9786 7.56333 16.9735 7.63583 16.9436C7.69389 16.9197 7.88599 16.754 8.06272 16.5753C8.57963 16.0526 8.57038 16.0573 9.07081 16.0573H9.4977L9.85045 15.8326C10.1548 15.6387 10.2426 15.6021 10.4903 15.5657L10.7775 15.5235L11.0464 15.6922C11.3032 15.8535 11.328 15.8608 11.5948 15.8558L11.8742 15.8505L12.1264 16.1994C12.2745 16.4041 12.4006 16.6251 12.4318 16.7345C12.5054 16.9928 12.58 17.0996 12.8491 17.3324C13.1399 17.5838 13.2797 17.6465 13.5519 17.6476C13.9119 17.649 14.3001 17.8826 14.3814 18.1466C14.4723 18.442 14.758 19.0043 14.8917 19.1511C15.065 19.3415 15.2297 19.4313 15.5498 19.5098C15.6895 19.544 15.9321 19.6333 16.0891 19.7082C16.4371 19.8743 16.5397 19.8772 16.8071 19.7285L17.0155 19.6127L17.3181 19.807C17.7795 20.1033 17.9415 20.0733 18.3685 19.6132L18.6274 19.3342H18.8405C19.1084 19.3342 19.4325 19.2093 19.551 19.0604C19.6017 18.9967 19.707 18.727 19.7939 18.4383C19.951 17.9164 20.494 16.4476 20.9246 15.3803C21.0574 15.0511 21.1844 14.6891 21.2068 14.5758C21.2293 14.4625 21.3079 14.15 21.3815 13.8813C21.4895 13.4867 21.5114 13.351 21.4952 13.1749C21.4731 12.9347 21.0914 11.6412 20.9966 11.4853C20.9637 11.4314 20.7919 11.2106 20.6146 10.9948C20.339 10.6591 20.2886 10.5758 20.2665 10.4192C20.2212 10.0997 20.0793 9.94748 19.6145 9.71963C19.5847 9.70503 19.5012 9.52175 19.4289 9.31239C19.3567 9.10298 19.254 8.88372 19.2006 8.82513C19.1473 8.76653 18.9025 8.58691 18.6565 8.42601L18.2092 8.1334L18.164 7.81772C18.1071 7.4208 18.0615 7.30248 17.8924 7.11289C17.7702 6.97592 17.757 6.9399 17.7562 6.74105C17.7548 6.34252 17.6104 6.1293 17.2231 5.95376C17.1289 5.91106 17.0509 5.87111 17.0498 5.86495C17.0487 5.85875 17.0087 5.53412 16.9609 5.14344C16.868 4.38532 16.8241 4.24333 16.6392 4.10421C16.4424 3.95598 16.228 3.96513 15.8806 4.13651ZM16.339 4.98054C16.3614 5.15859 16.3995 5.47726 16.4236 5.68863C16.4792 6.1762 16.5394 6.27659 16.8946 6.47375L17.1631 6.62284V6.8786C17.1631 7.17093 17.1913 7.24459 17.3865 7.46275C17.5087 7.59936 17.5326 7.65788 17.5704 7.91406C17.6559 8.49327 17.6721 8.51533 18.3337 8.95569L18.7723 9.24771L18.9126 9.65028C19.0626 10.081 19.2101 10.2804 19.4164 10.3311C19.6011 10.3764 19.6873 10.4572 19.6873 10.5848C19.6873 10.7819 19.7759 10.9363 20.1473 11.3872L20.503 11.8189L20.6927 12.4454C20.7971 12.79 20.8908 13.1262 20.901 13.1926C20.9118 13.2631 20.8799 13.4513 20.8243 13.6453C20.772 13.8279 20.6974 14.1186 20.6586 14.2913C20.6198 14.464 20.3927 15.0997 20.1538 15.7041C19.6913 16.8739 19.2877 17.9862 19.1855 18.3727C19.1512 18.5022 19.0966 18.6303 19.0641 18.6573C19.0297 18.6857 18.8974 18.7063 18.7486 18.7063C18.4137 18.7063 18.2907 18.7718 18.0059 19.1018L17.7751 19.369L17.479 19.175C17.1159 18.9371 16.9489 18.9201 16.666 19.0921L16.4843 19.2025L16.1434 19.0541C15.9558 18.9724 15.7286 18.8935 15.6383 18.8788C15.548 18.864 15.4294 18.8189 15.3746 18.7784C15.2764 18.7058 15.0765 18.307 14.9272 17.8858C14.7723 17.4489 14.2336 17.0719 13.6957 17.0241C13.4409 17.0015 13.3977 16.9847 13.2274 16.8422C13.0754 16.715 13.0293 16.6468 12.984 16.4831C12.9243 16.2666 12.443 15.5499 12.2304 15.3608C12.1024 15.2469 11.8552 15.1905 11.6433 15.2268C11.5331 15.2457 11.4681 15.2234 11.2649 15.0966C10.9408 14.8944 10.8819 14.8831 10.4373 14.9378C10.0429 14.9862 9.95176 15.0222 9.52713 15.297L9.28511 15.4536L8.99475 15.4268C8.83505 15.4121 8.64604 15.4117 8.57465 15.4258C8.39543 15.4614 7.99052 15.7584 7.6724 16.0876L7.4062 16.3632L6.76294 16.3242C6.37369 16.3006 6.07145 16.2992 5.99747 16.3208C5.93021 16.3403 5.71305 16.5048 5.5149 16.6864L5.15457 17.0164L4.75159 17.0176C4.35707 17.0188 4.3456 17.0163 4.20476 16.8984C4.12566 16.8321 4.02833 16.7295 3.98846 16.6703L3.91604 16.5628L4.03416 16.3708C4.14886 16.1845 4.15231 16.1662 4.15231 15.7453V15.3117L3.95553 14.9637L3.75876 14.6157L3.80048 14.3248C3.84989 13.9801 3.83185 13.8698 3.68641 13.6273C3.61543 13.509 3.56202 13.3475 3.53355 13.1653C3.49572 12.9231 3.46346 12.8482 3.29538 12.6119L3.10098 12.3388L3.15859 12.1769C3.19861 12.0646 3.21438 11.8951 3.21022 11.6227C3.20696 11.4068 3.21442 11.0183 3.22682 10.7593L3.24939 10.2884L3.77416 9.99716C4.24953 9.7334 4.33209 9.70079 4.65095 9.6511C4.87839 9.61563 5.148 9.53631 5.41286 9.42694C5.63829 9.33385 5.97921 9.19944 6.17049 9.12829C6.36174 9.0571 6.56946 8.96229 6.63209 8.91759C6.69471 8.87289 6.83057 8.69527 6.93395 8.52287C7.1141 8.22257 7.12249 8.19612 7.13478 7.89248L7.14758 7.57558L7.56363 7.29212C7.85674 7.09244 8.09249 6.889 8.36154 6.60361L8.7434 6.19849L8.96884 6.24825C9.13959 6.28593 9.22126 6.32851 9.30556 6.42387C9.51377 6.65942 9.78056 6.7175 10.0318 6.58203C10.2103 6.48572 10.2532 6.41485 10.464 5.86782C10.5771 5.5745 10.6429 5.33872 10.6564 5.17837L10.6769 4.9347L10.8297 4.91476C10.9138 4.90378 11.1273 4.88392 11.3042 4.87065L11.6259 4.84648L12.0385 5.07127L12.4512 5.29606L12.7708 5.27008C12.9466 5.2558 13.1297 5.2337 13.1776 5.22099C13.3283 5.181 13.3221 5.3025 13.1529 5.70825C12.9561 6.18005 12.9291 6.30206 12.9772 6.50236C13.0233 6.69419 13.3298 7.00591 13.825 7.36448C14.5274 7.87309 14.9831 8.0128 15.2596 7.80426C15.4763 7.64092 15.6934 7.0209 15.7861 6.30068C15.8073 6.13641 15.8358 5.73906 15.8495 5.41764L15.8745 4.83333L16.0455 4.74852C16.1396 4.7019 16.2349 4.66219 16.2573 4.66026C16.281 4.65822 16.3153 4.79299 16.339 4.98054ZM10.1287 8.94922C10.0267 9.00012 9.90658 9.08383 9.86192 9.13527C9.63835 9.3926 9.56362 9.86134 9.69689 10.1706C9.76935 10.3389 10.0148 10.5971 10.1432 10.6402C10.2164 10.6647 10.2215 10.6938 10.2215 11.0777C10.2215 11.4619 10.2275 11.4952 10.3127 11.5852C10.4122 11.6904 10.5034 11.705 10.6426 11.638C10.7779 11.5728 10.8155 11.4417 10.8155 11.0348C10.8155 10.6971 10.8218 10.6643 10.8922 10.6407C10.9343 10.6266 11.0272 10.5608 11.0985 10.4946C11.57 10.057 11.4767 9.25105 10.9206 8.95809C10.6654 8.82364 10.3869 8.82054 10.1287 8.94922ZM10.7244 9.58019C10.7748 9.63348 10.8155 9.72249 10.8155 9.7794C10.8155 9.89474 10.6343 10.1118 10.5381 10.1118C10.4464 10.1118 10.2706 10.0049 10.2446 9.93339C10.1234 9.59962 10.4885 9.33083 10.7244 9.58019ZM16.189 12.6769C15.8923 12.794 15.7102 12.9982 15.6175 13.3182C15.4983 13.7299 15.6665 14.1453 16.0588 14.4085C16.1566 14.4741 16.1609 14.4903 16.1609 14.8001C16.1609 15.1589 16.2085 15.3527 16.3108 15.4106C16.4278 15.4768 16.5983 15.4548 16.6791 15.3631C16.7451 15.2882 16.7548 15.2256 16.7548 14.8734V14.4695L16.8986 14.3919C17.1917 14.2338 17.3487 13.9419 17.3487 13.555C17.3487 13.0674 17.0041 12.6748 16.5448 12.639C16.4118 12.6286 16.2742 12.6433 16.189 12.6769ZM16.6637 13.3477C16.9009 13.5984 16.6471 13.9837 16.3296 13.8549C16.2391 13.8181 16.1557 13.6201 16.1828 13.5061C16.2124 13.3815 16.3658 13.2513 16.4831 13.2513C16.5323 13.2513 16.6136 13.2947 16.6637 13.3477Z" fill="#555555"/>
<path fill-rule="evenodd" clip-rule="evenodd" d="M15.8806 4.13651C15.2919 4.42699 15.2884 4.43363 15.2537 5.31635C15.2251 6.04532 15.1596 6.56354 15.0494 6.93295C14.934 7.32002 14.9468 7.3128 14.6534 7.15586C14.28 6.95611 13.5624 6.41339 13.5624 6.33071C13.5624 6.31187 13.6376 6.11396 13.7295 5.89089C13.9664 5.31553 13.955 5.09109 13.673 4.78C13.5087 4.59873 13.3687 4.56721 12.951 4.61741L12.5739 4.6627L12.1702 4.43994L11.7666 4.21715L11.2818 4.24466C10.6577 4.28006 10.4608 4.32021 10.3083 4.44316C10.139 4.57965 10.0731 4.73141 10.0731 4.98446C10.0731 5.13599 10.0341 5.30525 9.93928 5.56528C9.86571 5.76708 9.797 5.94701 9.78661 5.96506C9.77621 5.98312 9.71533 5.94446 9.65126 5.87916C9.51099 5.73611 9.43923 5.7057 9.03803 5.6192C8.56344 5.51685 8.53831 5.52812 7.99709 6.08539C7.66594 6.42634 7.4055 6.65188 7.10085 6.86168C6.59608 7.20923 6.5466 7.28545 6.5466 7.71584C6.5466 7.96767 6.53372 8.01759 6.42061 8.20451C6.29652 8.40961 6.28861 8.41494 5.89164 8.5618C5.66999 8.64382 5.35502 8.76752 5.19169 8.83674C4.84109 8.98532 4.77512 9.00349 4.4093 9.05255C4.16642 9.08508 4.05528 9.13182 3.52854 9.4227C2.60464 9.93296 2.64807 9.85439 2.62851 11.0501C2.61733 11.7333 2.60067 11.9748 2.5572 12.0849C2.44561 12.3671 2.48659 12.5259 2.77558 12.9313C2.90431 13.1118 2.94125 13.2028 2.97384 13.4193C2.9999 13.5927 3.05265 13.75 3.12507 13.8706C3.23168 14.0482 3.23476 14.0656 3.19957 14.2913C3.14259 14.6567 3.17429 14.8092 3.38603 15.1882C3.553 15.487 3.57694 15.5568 3.57694 15.744C3.57694 15.914 3.55359 15.9981 3.46354 16.1528C3.32615 16.3889 3.29371 16.5698 3.35407 16.7633C3.41008 16.9426 3.8288 17.4192 4.05175 17.5573C4.21029 17.6556 4.23516 17.6589 4.75537 17.6512C5.13816 17.6455 5.32451 17.6268 5.39749 17.5869C5.45406 17.556 5.64627 17.3962 5.82467 17.2317L6.14904 16.9328L6.83967 16.9599C7.31418 16.9786 7.56333 16.9735 7.63583 16.9436C7.69389 16.9197 7.88599 16.754 8.06272 16.5753C8.57963 16.0526 8.57038 16.0573 9.07081 16.0573H9.4977L9.85045 15.8326C10.1548 15.6387 10.2426 15.6021 10.4903 15.5657L10.7775 15.5235L11.0464 15.6922C11.3032 15.8535 11.328 15.8608 11.5948 15.8558L11.8742 15.8505L12.1264 16.1994C12.2745 16.4041 12.4006 16.6251 12.4318 16.7345C12.5054 16.9928 12.58 17.0996 12.8491 17.3324C13.1399 17.5838 13.2797 17.6465 13.5519 17.6476C13.9119 17.649 14.3001 17.8826 14.3814 18.1466C14.4723 18.442 14.758 19.0043 14.8917 19.1511C15.065 19.3415 15.2297 19.4313 15.5498 19.5098C15.6895 19.544 15.9321 19.6333 16.0891 19.7082C16.4371 19.8743 16.5397 19.8772 16.8071 19.7285L17.0155 19.6127L17.3181 19.807C17.7795 20.1033 17.9415 20.0733 18.3685 19.6132L18.6274 19.3342H18.8405C19.1084 19.3342 19.4325 19.2093 19.551 19.0604C19.6017 18.9967 19.707 18.727 19.7939 18.4383C19.951 17.9164 20.494 16.4476 20.9246 15.3803C21.0574 15.0511 21.1844 14.6891 21.2068 14.5758C21.2293 14.4625 21.3079 14.15 21.3815 13.8813C21.4895 13.4867 21.5114 13.351 21.4952 13.1749C21.4731 12.9347 21.0914 11.6412 20.9966 11.4853C20.9637 11.4314 20.7919 11.2106 20.6146 10.9948C20.339 10.6591 20.2886 10.5758 20.2665 10.4192C20.2212 10.0997 20.0793 9.94748 19.6145 9.71963C19.5847 9.70503 19.5012 9.52175 19.4289 9.31239C19.3567 9.10298 19.254 8.88372 19.2006 8.82513C19.1473 8.76653 18.9025 8.58691 18.6565 8.42601L18.2092 8.1334L18.164 7.81772C18.1071 7.4208 18.0615 7.30248 17.8924 7.11289C17.7702 6.97592 17.757 6.9399 17.7562 6.74105C17.7548 6.34252 17.6104 6.1293 17.2231 5.95376C17.1289 5.91106 17.0509 5.87111 17.0498 5.86495C17.0487 5.85875 17.0087 5.53412 16.9609 5.14344C16.868 4.38532 16.8241 4.24333 16.6392 4.10421C16.4424 3.95598 16.228 3.96513 15.8806 4.13651ZM16.339 4.98054C16.3614 5.15859 16.3995 5.47726 16.4236 5.68863C16.4792 6.1762 16.5394 6.27659 16.8946 6.47375L17.1631 6.62284V6.8786C17.1631 7.17093 17.1913 7.24459 17.3865 7.46275C17.5087 7.59936 17.5326 7.65788 17.5704 7.91406C17.6559 8.49327 17.6721 8.51533 18.3337 8.95569L18.7723 9.24771L18.9126 9.65028C19.0626 10.081 19.2101 10.2804 19.4164 10.3311C19.6011 10.3764 19.6873 10.4572 19.6873 10.5848C19.6873 10.7819 19.7759 10.9363 20.1473 11.3872L20.503 11.8189L20.6927 12.4454C20.7971 12.79 20.8908 13.1262 20.901 13.1926C20.9118 13.2631 20.8799 13.4513 20.8243 13.6453C20.772 13.8279 20.6974 14.1186 20.6586 14.2913C20.6198 14.464 20.3927 15.0997 20.1538 15.7041C19.6913 16.8739 19.2877 17.9862 19.1855 18.3727C19.1512 18.5022 19.0966 18.6303 19.0641 18.6573C19.0297 18.6857 18.8974 18.7063 18.7486 18.7063C18.4137 18.7063 18.2907 18.7718 18.0059 19.1018L17.7751 19.369L17.479 19.175C17.1159 18.9371 16.9489 18.9201 16.666 19.0921L16.4843 19.2025L16.1434 19.0541C15.9558 18.9724 15.7286 18.8935 15.6383 18.8788C15.548 18.864 15.4294 18.8189 15.3746 18.7784C15.2764 18.7058 15.0765 18.307 14.9272 17.8858C14.7723 17.4489 14.2336 17.0719 13.6957 17.0241C13.4409 17.0015 13.3977 16.9847 13.2274 16.8422C13.0754 16.715 13.0293 16.6468 12.984 16.4831C12.9243 16.2666 12.443 15.5499 12.2304 15.3608C12.1024 15.2469 11.8552 15.1905 11.6433 15.2268C11.5331 15.2457 11.4681 15.2234 11.2649 15.0966C10.9408 14.8944 10.8819 14.8831 10.4373 14.9378C10.0429 14.9862 9.95176 15.0222 9.52713 15.297L9.28511 15.4536L8.99475 15.4268C8.83505 15.4121 8.64604 15.4117 8.57465 15.4258C8.39543 15.4614 7.99052 15.7584 7.6724 16.0876L7.4062 16.3632L6.76294 16.3242C6.37369 16.3006 6.07145 16.2992 5.99747 16.3208C5.93021 16.3403 5.71305 16.5048 5.5149 16.6864L5.15457 17.0164L4.75159 17.0176C4.35707 17.0188 4.3456 17.0163 4.20476 16.8984C4.12566 16.8321 4.02833 16.7295 3.98846 16.6703L3.91604 16.5628L4.03416 16.3708C4.14886 16.1845 4.15231 16.1662 4.15231 15.7453V15.3117L3.95553 14.9637L3.75876 14.6157L3.80048 14.3248C3.84989 13.9801 3.83185 13.8698 3.68641 13.6273C3.61543 13.509 3.56202 13.3475 3.53355 13.1653C3.49572 12.9231 3.46346 12.8482 3.29538 12.6119L3.10098 12.3388L3.15859 12.1769C3.19861 12.0646 3.21438 11.8951 3.21022 11.6227C3.20696 11.4068 3.21442 11.0183 3.22682 10.7593L3.24939 10.2884L3.77416 9.99716C4.24953 9.7334 4.33209 9.70079 4.65095 9.6511C4.87839 9.61563 5.148 9.53631 5.41286 9.42694C5.63829 9.33385 5.97921 9.19944 6.17049 9.12829C6.36174 9.0571 6.56946 8.96229 6.63209 8.91759C6.69471 8.87289 6.83057 8.69527 6.93395 8.52287C7.1141 8.22257 7.12249 8.19612 7.13478 7.89248L7.14758 7.57558L7.56363 7.29212C7.85674 7.09244 8.09249 6.889 8.36154 6.60361L8.7434 6.19849L8.96884 6.24825C9.13959 6.28593 9.22126 6.32851 9.30556 6.42387C9.51377 6.65942 9.78056 6.7175 10.0318 6.58203C10.2103 6.48572 10.2532 6.41485 10.464 5.86782C10.5771 5.5745 10.6429 5.33872 10.6564 5.17837L10.6769 4.9347L10.8297 4.91476C10.9138 4.90378 11.1273 4.88392 11.3042 4.87065L11.6259 4.84648L12.0385 5.07127L12.4512 5.29606L12.7708 5.27008C12.9466 5.2558 13.1297 5.2337 13.1776 5.22099C13.3283 5.181 13.3221 5.3025 13.1529 5.70825C12.9561 6.18005 12.9291 6.30206 12.9772 6.50236C13.0233 6.69419 13.3298 7.00591 13.825 7.36448C14.5274 7.87309 14.9831 8.0128 15.2596 7.80426C15.4763 7.64092 15.6934 7.0209 15.7861 6.30068C15.8073 6.13641 15.8358 5.73906 15.8495 5.41764L15.8745 4.83333L16.0455 4.74852C16.1396 4.7019 16.2349 4.66219 16.2573 4.66026C16.281 4.65822 16.3153 4.79299 16.339 4.98054ZM10.1287 8.94922C10.0267 9.00012 9.90658 9.08383 9.86192 9.13527C9.63835 9.3926 9.56362 9.86134 9.69689 10.1706C9.76935 10.3389 10.0148 10.5971 10.1432 10.6402C10.2164 10.6647 10.2215 10.6938 10.2215 11.0777C10.2215 11.4619 10.2275 11.4952 10.3127 11.5852C10.4122 11.6904 10.5034 11.705 10.6426 11.638C10.7779 11.5728 10.8155 11.4417 10.8155 11.0348C10.8155 10.6971 10.8218 10.6643 10.8922 10.6407C10.9343 10.6266 11.0272 10.5608 11.0985 10.4946C11.57 10.057 11.4767 9.25105 10.9206 8.95809C10.6654 8.82364 10.3869 8.82054 10.1287 8.94922ZM10.7244 9.58019C10.7748 9.63348 10.8155 9.72249 10.8155 9.7794C10.8155 9.89474 10.6343 10.1118 10.5381 10.1118C10.4464 10.1118 10.2706 10.0049 10.2446 9.93339C10.1234 9.59962 10.4885 9.33083 10.7244 9.58019ZM16.189 12.6769C15.8923 12.794 15.7102 12.9982 15.6175 13.3182C15.4983 13.7299 15.6665 14.1453 16.0588 14.4085C16.1566 14.4741 16.1609 14.4903 16.1609 14.8001C16.1609 15.1589 16.2085 15.3527 16.3108 15.4106C16.4278 15.4768 16.5983 15.4548 16.6791 15.3631C16.7451 15.2882 16.7548 15.2256 16.7548 14.8734V14.4695L16.8986 14.3919C17.1917 14.2338 17.3487 13.9419 17.3487 13.555C17.3487 13.0674 17.0041 12.6748 16.5448 12.639C16.4118 12.6286 16.2742 12.6433 16.189 12.6769ZM16.6637 13.3477C16.9009 13.5984 16.6471 13.9837 16.3296 13.8549C16.2391 13.8181 16.1557 13.6201 16.1828 13.5061C16.2124 13.3815 16.3658 13.2513 16.4831 13.2513C16.5323 13.2513 16.6136 13.2947 16.6637 13.3477Z" stroke="#555555" stroke-width="0.8" mask="url(#path-1-outside-1_4_636)"/>
</svg>
