<svg width="24" height="24" viewBox="0 0 24 24" fill="none" xmlns="http://www.w3.org/2000/svg">
<path fill-rule="evenodd" clip-rule="evenodd" d="M10.668 16.5067C12.3824 16.598 13.7446 18.0148 13.75 19.7508V20.3807C13.7476 21.1379 13.1342 21.7515 12.377 21.7537H3.61914C2.86188 21.7515 2.24853 21.1379 2.24609 20.3807L2.99609 20.3778H2.24609V19.7508L2.25098 19.5838C2.34278 17.8696 3.75915 16.5069 5.49512 16.5018H10.501L10.668 16.5067ZM5.32031 18.0115C4.43766 18.1034 3.74919 18.8484 3.74609 19.7547V20.2537H12.25V19.7547L12.2412 19.576C12.1552 18.7521 11.4998 18.0972 10.6758 18.0115L10.4971 18.0018H5.49902L5.32031 18.0115Z" fill="#555555"/>
<path d="M7.8457 5.31232C9.8246 2.71171 13.2385 1.62423 16.3721 2.62873C19.5056 3.63347 21.6501 6.50296 21.748 9.76935L21.752 10.0867C21.7155 13.4832 19.4697 16.4598 16.2139 17.4276C15.8171 17.5452 15.3994 17.3192 15.2812 16.9227C15.1634 16.5258 15.3895 16.1083 15.7861 15.9901C18.4116 15.2098 20.2226 12.8089 20.252 10.0701L20.249 9.81428C20.1698 7.18075 18.4405 4.86756 15.9141 4.05744C13.3875 3.24756 10.6347 4.12382 9.03906 6.22053L8.88867 6.42756C8.6514 6.76681 8.18319 6.85016 7.84375 6.6131C7.50452 6.37593 7.42141 5.90763 7.6582 5.56818L7.8457 5.31232Z" fill="#555555"/>
<path fill-rule="evenodd" clip-rule="evenodd" d="M8.18066 9.02326C9.83938 9.1157 11.164 10.4509 11.2441 12.1102L11.248 12.2772C11.2434 14.0693 9.78927 15.5203 7.99707 15.5203H7.99512C7.1299 15.5182 6.30093 15.1715 5.69141 14.5574C5.0821 13.9434 4.74181 13.1119 4.74609 12.2469L5.49609 12.2508L4.74609 12.2449C4.75985 10.4528 6.22149 9.00936 8.01367 9.01838L8.18066 9.02326ZM7.82715 10.5262C6.94547 10.6111 6.25332 11.351 6.24609 12.2557C6.24415 12.7218 6.42763 13.1699 6.75586 13.5008C7.08449 13.8318 7.53161 14.018 7.99805 14.0194C8.96272 14.0189 9.74523 13.239 9.74805 12.2742L9.73926 12.0955C9.6522 11.2137 8.91094 10.523 8.00586 10.5184L7.82715 10.5262Z" fill="#555555"/>
<path fill-rule="evenodd" clip-rule="evenodd" d="M14.0225 9.0008C14.2468 9.00581 14.4626 9.08477 14.6348 9.22639L14.708 9.29279L14.7744 9.36701C14.919 9.54469 14.9984 9.76787 14.998 9.99885L14.9873 10.1483C14.9356 10.4917 14.7076 10.7884 14.3799 10.9237C14.0056 11.078 13.5746 10.991 13.2891 10.7039C13.0039 10.4168 12.9198 9.98539 13.0762 9.61213L13.1436 9.47931C13.3057 9.21257 13.5853 9.03839 13.8975 9.00666C13.9302 9.0022 13.9641 8.99895 13.998 8.99885L14.001 8.99982L14.0039 8.99885L14.0225 9.0008ZM13.999 9.74885L14 9.59748L13.999 9.49982V9.74885Z" fill="#555555"/>
<path fill-rule="evenodd" clip-rule="evenodd" d="M17.1357 9.0008C17.36 9.00581 17.5759 9.08477 17.748 9.22639L17.8213 9.29279L17.8877 9.36701C18.0323 9.54469 18.1117 9.76787 18.1113 9.99885L18.1006 10.1483C18.0488 10.4917 17.8208 10.7884 17.4932 10.9237C17.1189 11.078 16.6879 10.991 16.4023 10.7039C16.1172 10.4168 16.0331 9.98539 16.1895 9.61213L16.2568 9.47931C16.419 9.21257 16.6986 9.03839 17.0107 9.00666C17.0435 9.0022 17.0774 8.99895 17.1113 8.99885L17.1143 8.99982L17.1172 8.99885L17.1357 9.0008ZM17.1123 9.74885L17.1133 9.59748L17.1123 9.49982V9.74885Z" fill="#555555"/>
</svg>
