<svg width="24" height="24" viewBox="0 0 24 24" fill="none" xmlns="http://www.w3.org/2000/svg">
<path d="M7 12H9M12 5V3M16 12H13C12.448 12 12 11.552 12 11V9M4 12H3M15 18H13C12.448 18 12 18.448 12 19V21M12 15H18M21 15V20C21 20.552 20.552 21 20 21H15M8 9H4C3.448 9 3 8.552 3 8V4C3 3.448 3.448 3 4 3H8C8.552 3 9 3.448 9 4V8C9 8.552 8.552 9 8 9ZM8 21H4C3.448 21 3 20.552 3 20V16C3 15.448 3.448 15 4 15H8C8.552 15 9 15.448 9 16V20C9 20.552 8.552 21 8 21ZM20 9H16C15.448 9 15 8.552 15 8V4C15 3.448 15.448 3 16 3H20C20.552 3 21 3.448 21 4V8C21 8.552 20.552 9 20 9ZM6 5.99C5.997 5.99 5.995 5.992 5.995 5.995C5.995 5.998 5.997 6 6 6C6.003 6 6.005 5.998 6.005 5.995C6.005 5.992 6.003 5.99 6 5.99ZM17.9941 5.995C17.9911 5.995 17.9891 5.997 17.9891 6C17.9891 6.003 17.9911 6.005 17.9941 6.005C17.9971 6.005 17.9991 6.003 17.9991 6C17.9991 5.997 17.9971 5.995 17.9941 5.995ZM18.9941 11.995C18.9911 11.995 18.9891 11.997 18.9891 12C18.9891 12.003 18.9911 12.005 18.9941 12.005C18.9971 12.005 18.9991 12.003 18.9991 12C18.9991 11.997 18.9971 11.995 18.9941 11.995ZM17.9941 17.995C17.9911 17.995 17.9891 17.997 17.9891 18C17.9891 18.003 17.9911 18.005 17.9941 18.005C17.9971 18.005 17.9991 18.003 17.9991 18C17.9991 17.997 17.9971 17.995 17.9941 17.995ZM6.00586 17.995C6.00286 17.995 6.00086 17.997 6.00086 18C6.00086 18.003 6.00286 18.005 6.00586 18.005C6.00886 18.005 6.01086 18.003 6.01086 18C6.01086 17.997 6.00886 17.995 6.00586 17.995Z" stroke="#555555" stroke-width="1.5" stroke-linecap="round" stroke-linejoin="round"/>
</svg>
