<svg width="24" height="24" viewBox="0 0 24 24" fill="none" xmlns="http://www.w3.org/2000/svg">
<path d="M3.25 12C3.25 7.18943 7.03762 3.25 11.7578 3.25C14.8202 3.25009 17.4945 4.91307 18.9902 7.39062L19.1318 7.63281L19.166 7.70215C19.2436 7.88104 19.2425 8.07593 19.1807 8.25H19.25V5C19.25 4.58579 19.5858 4.25 20 4.25C20.4142 4.25 20.75 4.58579 20.75 5V9C20.75 9.41421 20.4142 9.75 20 9.75H16.1211C15.7069 9.74994 15.3711 9.41417 15.3711 9C15.3711 8.58583 15.7069 8.25006 16.1211 8.25H17.7529C16.5198 6.14463 14.2919 4.75009 11.7578 4.75C7.90922 4.75 4.75 7.97401 4.75 12C4.75 16.026 7.90922 19.25 11.7578 19.25C14.8469 19.2499 17.4883 17.1766 18.4141 14.2725C18.5398 13.8779 18.9619 13.6595 19.3564 13.7852C19.751 13.9109 19.9693 14.333 19.8438 14.7275C18.7335 18.2109 15.544 20.7499 11.7578 20.75C7.03762 20.75 3.25 16.8106 3.25 12Z" fill="#555555"/>
</svg>
