<svg width="24" height="24" viewBox="0 0 24 24" fill="none" xmlns="http://www.w3.org/2000/svg">
<path d="M6.55838 10.9583C5.96671 10.9583 5.36671 10.7416 4.90838 10.3C3.37505 8.84163 2.75838 7.24996 3.11671 5.69163C3.54171 3.85829 5.15005 3.04163 6.55838 3.04163C7.96671 3.04163 9.58338 3.86663 10 5.69163C10.3584 7.24996 9.73338 8.84163 8.20838 10.3C7.75005 10.7416 7.15838 10.9583 6.55838 10.9583ZM4.33338 5.97496C4.01671 7.36663 4.94171 8.59996 5.77505 9.39163C6.21671 9.81663 6.90838 9.80829 7.35005 9.39163C8.18338 8.59996 9.10838 7.36663 8.78338 5.96663C8.50005 4.73329 7.40838 4.29163 6.56671 4.29163C5.71671 4.29163 4.62505 4.73329 4.33338 5.97496Z" fill="#555555"/>
<path d="M6.59115 7.16667C6.13281 7.16667 5.75781 6.79167 5.75781 6.33333C5.75781 5.875 6.12448 5.5 6.59115 5.5H6.59948C7.05781 5.5 7.43281 5.875 7.43281 6.33333C7.43281 6.79167 7.05781 7.16667 6.59115 7.16667Z" fill="#555555"/>
<path d="M17.4081 20.9583C16.8165 20.9583 16.2165 20.7417 15.7498 20.3C14.2081 18.8417 13.5831 17.25 13.9498 15.6833C14.3748 13.8583 15.9915 13.0333 17.4081 13.0333C18.8248 13.0333 20.4415 13.8583 20.8665 15.6833C21.2248 17.2417 20.5998 18.8417 19.0581 20.2917C18.5998 20.7417 18.0081 20.9583 17.4081 20.9583ZM17.4081 14.2917C16.5581 14.2917 15.4581 14.7333 15.1665 15.975C14.8415 17.3667 15.7748 18.6083 16.6081 19.4C17.0498 19.825 17.7498 19.825 18.1998 19.4C19.0331 18.6083 19.9665 17.375 19.6415 15.9833C19.3665 14.7333 18.2665 14.2917 17.4081 14.2917Z" fill="#555555"/>
<path d="M17.4408 17.1667C16.9824 17.1667 16.6074 16.7917 16.6074 16.3333C16.6074 15.875 16.9741 15.5 17.4408 15.5H17.4491C17.9074 15.5 18.2824 15.875 18.2824 16.3333C18.2824 16.7917 17.8991 17.1667 17.4408 17.1667Z" fill="#555555"/>
<path d="M12.0005 18.4583H9.76719C8.80052 18.4583 7.95885 17.875 7.62552 16.975C7.28385 16.075 7.53385 15.0833 8.25885 14.4416L14.9172 8.61663C15.3172 8.26663 15.3255 7.79163 15.2089 7.46663C15.0839 7.14163 14.7672 6.79163 14.2339 6.79163H12.0005C11.6589 6.79163 11.3755 6.50829 11.3755 6.16663C11.3755 5.82496 11.6589 5.54163 12.0005 5.54163H14.2339C15.2005 5.54163 16.0422 6.12496 16.3755 7.02496C16.7172 7.92496 16.4672 8.91663 15.7422 9.55829L9.08385 15.3833C8.68385 15.7333 8.67552 16.2083 8.79219 16.5333C8.91719 16.8583 9.23385 17.2083 9.76719 17.2083H12.0005C12.3422 17.2083 12.6255 17.4916 12.6255 17.8333C12.6255 18.175 12.3422 18.4583 12.0005 18.4583Z" fill="#555555"/>
<path d="M12.0005 18.4583H9.76719C8.80052 18.4583 7.95885 17.875 7.62552 16.975C7.28385 16.075 7.53385 15.0833 8.25885 14.4416L14.9172 8.61663C15.3172 8.26663 15.3255 7.79163 15.2089 7.46663C15.0839 7.14163 14.7672 6.79163 14.2339 6.79163H12.0005C11.6589 6.79163 11.3755 6.50829 11.3755 6.16663C11.3755 5.82496 11.6589 5.54163 12.0005 5.54163H14.2339C15.2005 5.54163 16.0422 6.12496 16.3755 7.02496C16.7172 7.92496 16.4672 8.91663 15.7422 9.55829L9.08385 15.3833C8.68385 15.7333 8.67552 16.2083 8.79219 16.5333C8.91719 16.8583 9.23385 17.2083 9.76719 17.2083H12.0005C12.3422 17.2083 12.6255 17.4916 12.6255 17.8333C12.6255 18.175 12.3422 18.4583 12.0005 18.4583Z" fill="#555555"/>
</svg>
