<svg width="24" height="24" viewBox="0 0 24 24" fill="none" xmlns="http://www.w3.org/2000/svg">
<path d="M11.9062 1.25689L11.9072 1.25494L20.4316 2.02642L20.5723 2.05181C20.5776 2.05335 20.5826 2.05602 20.5879 2.05767C20.9537 2.13579 21.2889 2.32215 21.5469 2.59576C21.7957 2.85971 21.9604 3.19047 22.0215 3.54595L22.041 3.70025V3.7022L22.7471 12.252V12.2549L22.749 12.3643C22.7452 12.4731 22.7234 12.5809 22.6836 12.6827C22.6337 12.8104 22.5565 12.925 22.459 13.0206L22.46 13.0215L13.541 21.8936C12.9891 22.4424 12.2415 22.7501 11.4629 22.7501C10.7816 22.75 10.124 22.5145 9.60059 22.0879L9.38477 21.8936L2.11328 14.6592C1.56153 14.1103 1.25031 13.3649 1.25 12.587C1.24974 11.8091 1.56012 11.064 2.11133 10.5147V10.5137L11.1406 1.53228V1.53326C11.2391 1.43338 11.3576 1.35577 11.4893 1.30767L11.5977 1.27544C11.6986 1.25169 11.8027 1.24685 11.9062 1.25689ZM17.2871 8.65728C17.2871 8.27392 17.1725 7.89853 16.958 7.57915C16.7435 7.25982 16.438 7.00984 16.0801 6.86236C15.7223 6.71501 15.3283 6.67687 14.9482 6.75201C14.6157 6.81782 14.3068 6.96799 14.0518 7.18658L13.9453 7.28521C13.5789 7.64981 13.374 8.14342 13.374 8.65728C13.3741 9.17116 13.5789 9.66477 13.9453 10.0294L14.0518 10.127C14.3069 10.3457 14.6155 10.4967 14.9482 10.5626C15.3284 10.6377 15.7222 10.5986 16.0801 10.4512C16.4381 10.3037 16.7435 10.0538 16.958 9.73443C17.1724 9.41516 17.2871 9.04048 17.2871 8.65728ZM2.75 12.587C2.75026 12.9646 2.90126 13.3275 3.1709 13.5958L10.4424 20.8301L10.5479 20.9249C10.8042 21.1339 11.1273 21.25 11.4629 21.2501C11.8463 21.2501 12.2134 21.0986 12.4834 20.8301L21.2314 12.127L20.5469 3.82818L20.5371 3.77251C20.523 3.71787 20.4948 3.66719 20.4551 3.62505C20.4021 3.56887 20.3309 3.53122 20.2529 3.51958C20.2439 3.51824 20.2354 3.5144 20.2266 3.51275L12.0215 2.77056L3.16992 11.5772C2.90049 11.8457 2.74985 12.2092 2.75 12.587ZM18.7871 8.65728C18.7871 9.33898 18.5834 10.0052 18.2031 10.5713C17.8228 11.1374 17.2825 11.5779 16.6514 11.8379C16.0203 12.0979 15.3259 12.1667 14.6562 12.0342C14.0703 11.9182 13.5261 11.6524 13.0752 11.2657L12.8877 11.0928C12.2391 10.4475 11.8741 9.57152 11.874 8.65728C11.874 7.74299 12.2391 6.86705 12.8877 6.22173L13.0752 6.0479C13.5261 5.66136 14.0705 5.39631 14.6562 5.28033C15.3258 5.14783 16.0204 5.21574 16.6514 5.47564C17.2825 5.73573 17.8228 6.17702 18.2031 6.74322C18.5834 7.30945 18.7871 7.97554 18.7871 8.65728Z" fill="#555555"/>
</svg>
