<svg width="24" height="24" viewBox="0 0 24 24" fill="none" xmlns="http://www.w3.org/2000/svg">
<path fill-rule="evenodd" clip-rule="evenodd" d="M11.9082 2C12.1557 2.0031 12.3965 2.06972 12.6104 2.19043C12.8232 2.31064 13.0019 2.48007 13.1338 2.68164L13.1348 2.68359L14.4932 4.74414H12.6973L11.8799 3.50586L11.876 3.5H5.25098C5.06733 3.5 4.88116 3.57746 4.73633 3.73145C4.59006 3.887 4.50006 4.10705 4.5 4.3457V17.1133C4.5 17.352 4.59001 17.5729 4.73633 17.7285C4.88114 17.8824 5.06741 17.96 5.25098 17.96H5.99219V6.48047C5.99219 6.02309 6.1902 5.58416 6.54199 5.26074C6.89375 4.93751 7.37081 4.75586 7.86816 4.75586H16.1777C16.3272 4.75747 16.4744 4.79206 16.6064 4.85645C16.7386 4.92095 16.8522 5.01392 16.9375 5.12695L20.8291 10.2295L20.2051 10.707L20.7812 10.2676L20.8291 10.2295L20.8301 10.2314C20.943 10.374 21.0024 10.5464 20.999 10.7227V20.2764C20.999 20.7337 20.801 21.1727 20.4492 21.4961C20.0974 21.8194 19.6205 22.001 19.123 22.001H7.86816C7.37073 22.001 6.89377 21.8194 6.54199 21.4961C6.1902 21.1727 5.99219 20.7337 5.99219 20.2764V19.46H5.25098C4.63872 19.46 4.06156 19.2003 3.64355 18.7559C3.22701 18.3129 3 17.7211 3 17.1133V4.3457C3.00006 3.738 3.22708 3.14703 3.64355 2.7041C4.06157 2.25954 4.63864 2 5.25098 2H11.9082ZM7.86816 6.25586C7.72967 6.25586 7.61932 6.30761 7.55664 6.36523C7.49827 6.41893 7.49219 6.46358 7.49219 6.48047V20.2764C7.49219 20.2932 7.49842 20.338 7.55664 20.3916C7.61932 20.4492 7.72967 20.501 7.86816 20.501H19.123C19.2615 20.501 19.3719 20.4492 19.4346 20.3916C19.4928 20.338 19.499 20.2932 19.499 20.2764V10.958L15.9131 6.25586H7.86816ZM20.7812 10.2676L20.2275 10.708L20.8301 10.2314L20.7812 10.2676Z" fill="#555555"/>
</svg>
