<svg width="24" height="24" viewBox="0 0 24 24" fill="none" xmlns="http://www.w3.org/2000/svg">
<path d="M11.4883 8.1077C12.0673 8.10777 12.6412 8.22357 13.175 8.44782C13.6418 8.64407 14.0712 8.92024 14.4424 9.26309L14.5985 9.41414L14.6505 9.47316C14.8931 9.77732 14.8713 10.2222 14.5875 10.5005C14.3037 10.7786 13.8583 10.7918 13.5591 10.5435L13.5011 10.4895L13.295 10.2994C13.0803 10.12 12.8386 9.97315 12.5797 9.86429C12.2344 9.71923 11.8628 9.64428 11.4883 9.64421C11.1137 9.64427 10.7422 9.71923 10.3969 9.86429C10.0516 10.0094 9.73867 10.222 9.47652 10.4895L5.37292 14.5929C4.838 15.1279 4.5376 15.8539 4.5376 16.6105C4.5378 17.367 4.83801 18.0933 5.37292 18.6282C5.90792 19.1629 6.63429 19.4634 7.39071 19.4635C8.14716 19.4634 8.87351 19.163 9.40849 18.6282L9.92069 18.116C10.2207 17.816 10.7071 17.8161 11.0071 18.116C11.3067 18.4161 11.307 18.9025 11.0071 19.2024L10.4949 19.7146C9.67176 20.5375 8.5547 20.9999 7.39071 21C6.22676 20.9999 5.10966 20.5374 4.2865 19.7146C3.46342 18.8915 3.00021 17.7745 3 16.6105C3 15.4464 3.46341 14.3297 4.2865 13.5065L8.38409 9.40914C8.78829 8.99802 9.2701 8.67123 9.80164 8.44782C10.3354 8.22356 10.9093 8.10775 11.4883 8.1077Z" fill="#555555"/>
<path d="M16.6103 3C17.7745 3 18.8912 3.46329 19.7145 4.28643C20.5376 5.10957 20.9999 6.22646 21 7.39046C20.9999 8.55445 20.5376 9.67138 19.7145 10.4945L15.6219 14.5859L15.6229 14.5869C15.2176 15.0004 14.7332 15.3289 14.1994 15.5532C13.6654 15.7775 13.0918 15.8933 12.5127 15.8933C11.9335 15.8933 11.36 15.7775 10.826 15.5532C10.359 15.3569 9.92992 15.0809 9.55855 14.7379L9.40249 14.5869L9.35047 14.5278C9.10764 14.2237 9.13064 13.7789 9.41449 13.5005C9.69875 13.2222 10.1437 13.2091 10.4429 13.4585L10.5009 13.5115L10.706 13.7016C10.9209 13.8811 11.1622 14.0278 11.4213 14.1367C11.7667 14.2818 12.138 14.3568 12.5127 14.3568C12.8874 14.3568 13.2587 14.2818 13.6041 14.1367C13.9494 13.9916 14.2623 13.7789 14.5245 13.5115L18.6281 9.40814C19.163 8.87317 19.4633 8.14694 19.4634 7.39046C19.4633 6.63397 19.163 5.90778 18.6281 5.37279C18.093 4.83781 17.367 4.53751 16.6103 4.53751C15.948 4.53751 15.3094 4.76761 14.8016 5.18373L14.5925 5.37279L14.0803 5.88496C13.7803 6.18465 13.2939 6.18465 12.9939 5.88496C12.6941 5.58501 12.6942 5.09858 12.9939 4.7986L13.5061 4.28643L13.6641 4.13638C14.4694 3.40742 15.5189 3 16.6103 3Z" fill="#555555"/>
</svg>
