<svg width="24" height="24" viewBox="0 0 24 24" fill="none" xmlns="http://www.w3.org/2000/svg">
<g clip-path="url(#clip0_4_705)">
<path d="M10.9414 2C15.327 2.00013 18.8827 5.53456 18.8828 9.89453C18.8828 11.9794 18.0673 13.873 16.7393 15.2842L20.7676 20.29C21.1329 20.744 21.0592 21.4064 20.6025 21.7695C20.1459 22.1326 19.4795 22.0584 19.1143 21.6045L15.1016 16.6191C13.8916 17.3605 12.467 17.789 10.9414 17.7891C6.55562 17.7891 3 14.2547 3 9.89453C3.00011 5.53448 6.55569 2 10.9414 2ZM10.9414 4.10547C7.72523 4.10547 5.11729 6.69719 5.11719 9.89453C5.11719 13.092 7.72516 15.6846 10.9414 15.6846C14.1575 15.6844 16.7646 13.0919 16.7646 9.89453C16.7645 6.69727 14.1575 4.1056 10.9414 4.10547Z" fill="#555555"/>
</g>
<defs>
<clipPath id="clip0_4_705">
<rect width="24" height="24" fill="white"/>
</clipPath>
</defs>
</svg>
