<svg width="24" height="24" viewBox="0 0 24 24" fill="none" xmlns="http://www.w3.org/2000/svg">
<path d="M18.999 5.4502C18.999 4.36453 18.1327 3.50018 17.083 3.5C16.0332 3.5 15.166 4.36442 15.166 5.4502C15.1661 6.53589 16.0333 7.40039 17.083 7.40039C18.1326 7.40021 18.9989 6.53577 18.999 5.4502ZM20.499 5.4502C20.4989 7.34658 18.9785 8.90021 17.083 8.90039C15.1873 8.90039 13.6661 7.34669 13.666 5.4502C13.666 3.55362 15.1873 2 17.083 2C18.9786 2.00018 20.499 3.55373 20.499 5.4502Z" fill="#555555"/>
<path d="M8.33301 11.7502C8.33301 10.6646 7.46663 9.80023 6.41699 9.80005C5.3672 9.80005 4.5 10.6645 4.5 11.7502C4.5001 12.8359 5.36726 13.7004 6.41699 13.7004C7.46658 13.7003 8.33291 12.8358 8.33301 11.7502ZM9.83301 11.7502C9.83291 13.6466 8.31251 15.2003 6.41699 15.2004C4.52132 15.2004 3.0001 13.6467 3 11.7502C3 9.85367 4.52126 8.30005 6.41699 8.30005C8.31258 8.30023 9.83301 9.85378 9.83301 11.7502Z" fill="#555555"/>
<path d="M18.999 18.0502C18.999 16.9645 18.1327 16.1002 17.083 16.1C16.0332 16.1 15.166 16.9644 15.166 18.0502C15.1661 19.1359 16.0333 20.0004 17.083 20.0004C18.1326 20.0002 18.9989 19.1357 18.999 18.0502ZM20.499 18.0502C20.4989 19.9466 18.9785 21.5002 17.083 21.5004C15.1873 21.5004 13.6661 19.9467 13.666 18.0502C13.666 16.1536 15.1873 14.6 17.083 14.6C18.9786 14.6002 20.499 16.1537 20.499 18.0502Z" fill="#555555"/>
<path d="M8.07492 12.7281C8.28541 12.3714 8.74454 12.253 9.10129 12.4635L15.1726 16.0455C15.5292 16.256 15.6476 16.7152 15.4372 17.0719C15.2268 17.4286 14.7676 17.5469 14.4109 17.3365L8.33957 13.7545C7.98282 13.544 7.86444 13.0849 8.07492 12.7281Z" fill="#555555"/>
<path d="M14.4013 6.16394C14.7579 5.95327 15.2179 6.07115 15.4287 6.42762C15.6394 6.78423 15.5206 7.24425 15.164 7.45496L9.10251 11.037C8.746 11.2476 8.28597 11.1297 8.07516 10.7733C7.86451 10.4168 7.98247 9.95677 8.33884 9.74597L14.4013 6.16394Z" fill="#555555"/>
</svg>
