<svg width="24" height="24" viewBox="0 0 24 24" fill="none" xmlns="http://www.w3.org/2000/svg">
<path d="M11.7939 0.780065C11.9312 0.739997 12.0776 0.73996 12.2148 0.780065L21.21 3.40799C21.5297 3.50145 21.75 3.79456 21.75 4.12772V9.51737L21 9.51639H20.25V4.68924L12.0039 2.28006L3.75 4.68924V9.51444C3.75012 12.1194 4.57035 14.6582 6.09375 16.7713C7.56802 18.8161 9.6297 20.3592 12.001 21.2029C14.3716 20.359 16.4334 18.8168 17.9072 16.7723C19.4301 14.6596 20.2496 12.1207 20.25 9.51639L21.75 9.51737C21.7495 12.4363 20.8309 15.2814 19.124 17.6492C17.417 20.0172 15.0076 21.7886 12.2383 22.7117L12.1211 22.74C12.0023 22.7592 11.8799 22.75 11.7646 22.7117C8.99444 21.7891 6.5846 20.0176 4.87695 17.6492C3.27615 15.4288 2.36812 12.7884 2.26074 10.0613L2.25 9.51444V4.12772C2.25003 3.79448 2.47015 3.50138 2.79004 3.40799L11.7939 0.780065Z" fill="#555555"/>
<path d="M11.9756 6.7244C12.3895 6.72466 12.7254 7.06048 12.7256 7.4744V10.7244H15.9756C16.3895 10.7247 16.7254 11.0605 16.7256 11.4744C16.7256 11.8885 16.3896 12.2241 15.9756 12.2244H12.7256V15.4744C12.7256 15.8885 12.3896 16.2241 11.9756 16.2244C11.5614 16.2244 11.2256 15.8886 11.2256 15.4744V12.2244H7.97559C7.56137 12.2244 7.22559 11.8886 7.22559 11.4744C7.22574 11.0603 7.56147 10.7244 7.97559 10.7244H11.2256V7.4744C11.2257 7.06032 11.5615 6.7244 11.9756 6.7244Z" fill="#555555"/>
</svg>
