<svg width="24" height="24" viewBox="0 0 24 24" fill="none" xmlns="http://www.w3.org/2000/svg">
<path d="M14.8878 7.40625C14.8878 5.34465 13.1957 3.65926 11.0919 3.65918C8.98799 3.65918 7.29598 5.3446 7.29598 7.40625C7.29616 9.46775 8.9881 11.1523 11.0919 11.1523C13.1956 11.1523 14.8876 9.4677 14.8878 7.40625ZM13.8194 19.791C13.6379 19.791 13.4904 19.9376 13.4903 20.1191C13.4903 20.3007 13.6379 20.4482 13.8194 20.4482C14.0008 20.448 14.1475 20.3006 14.1475 20.1191C14.1475 19.9378 14.0008 19.7912 13.8194 19.791ZM18.3888 19.791C18.2128 19.791 18.0693 19.9288 18.0606 20.1025C18.0628 20.1228 18.064 20.1433 18.0645 20.1641C18.0865 20.3243 18.2225 20.4482 18.3888 20.4482C18.5703 20.4482 18.7179 20.3007 18.7179 20.1191C18.7178 19.9377 18.5703 19.791 18.3888 19.791ZM17.2872 14.6631C17.2871 14.6066 17.2646 14.5526 17.2247 14.5127C17.1847 14.4728 17.1308 14.4502 17.0743 14.4502H12.3643C12.3079 14.4502 12.2539 14.4728 12.2139 14.5127C12.174 14.5526 12.1515 14.6066 12.1514 14.6631V19.2432C12.1515 19.2738 12.1576 19.3037 12.17 19.3311C12.4645 18.716 13.0919 18.291 13.8194 18.291C14.5863 18.2912 15.2422 18.7631 15.5138 19.4326H16.6944C16.8524 19.0433 17.1396 18.7204 17.504 18.5186C17.37 18.3831 17.2873 18.1968 17.2872 17.9912V14.6631ZM18.7872 17.9912C18.7872 18.1098 18.7571 18.2206 18.7081 18.3203C19.3277 18.4296 19.8398 18.8489 20.0763 19.4141H20.3214V17.666L20.3145 17.6279C20.3105 17.6158 20.3047 17.6041 20.297 17.5938V17.5928L19.2725 16.2344L18.7872 16.2432V17.9912ZM18.7872 14.7422L19.3487 14.7334H19.3595L19.5089 14.7412C19.6077 14.7522 19.705 14.7747 19.7989 14.8076L19.9366 14.8652L20.0675 14.9375C20.1517 14.9908 20.2298 15.0532 20.2999 15.124L20.3985 15.2363L20.4083 15.249L21.4962 16.6934L21.4981 16.6963L21.5714 16.8027C21.7316 17.0572 21.8191 17.3519 21.8214 17.6543V20.0684C21.8213 20.2925 21.7318 20.5074 21.5733 20.666C21.4146 20.8247 21.1991 20.9141 20.9747 20.9141H20.0343C19.7384 21.5255 19.1136 21.9482 18.3888 21.9482C17.6712 21.9482 17.0515 21.5341 16.752 20.9326H15.4552C15.1557 21.5339 14.5367 21.9481 13.8194 21.9482C13.1077 21.9482 12.4917 21.5408 12.1895 20.9473C11.7994 20.9073 11.4332 20.7339 11.1534 20.4541C10.8321 20.1328 10.6515 19.6975 10.6514 19.2432V14.6631C10.6515 14.2088 10.8322 13.7734 11.1534 13.4521C11.4747 13.1309 11.91 12.9502 12.3643 12.9502H17.0743C17.5286 12.9502 17.964 13.1309 18.2852 13.4521C18.6065 13.7734 18.7871 14.2088 18.7872 14.6631V14.7422ZM16.3878 7.40625C16.3876 10.2531 14.1031 12.556 11.2667 12.6475C11.2104 12.661 11.1523 12.6709 11.0919 12.6709C8.32854 12.6709 5.46006 14.5597 4.35067 18.5264L4.34969 18.5254L3.63289 21.1143C3.52225 21.5134 3.10917 21.7473 2.71004 21.6367C2.3109 21.5261 2.07697 21.113 2.18758 20.7139L2.90535 18.124L2.90633 18.1221L3.03133 17.7021C3.9862 14.6996 5.90289 12.6901 8.13875 11.7617C6.7273 10.8209 5.79609 9.22387 5.79598 7.40625C5.79598 4.50094 8.17488 2.15918 11.0919 2.15918C14.0088 2.15926 16.3878 4.50099 16.3878 7.40625Z" fill="#555555"/>
</svg>
