<svg width="24" height="24" viewBox="0 0 24 24" fill="none" xmlns="http://www.w3.org/2000/svg">
<g clip-path="url(#clip0_1022_6123)">
<path d="M13.4697 9.46973C13.7626 9.17683 14.2374 9.17683 14.5303 9.46973L16.5303 11.4697C16.8232 11.7626 16.8232 12.2374 16.5303 12.5303L14.5303 14.5303C14.2374 14.8232 13.7626 14.8232 13.4697 14.5303C13.1768 14.2374 13.1768 13.7626 13.4697 13.4697L14.9395 12L13.4697 10.5303C13.1768 10.2374 13.1768 9.76262 13.4697 9.46973Z" fill="#555555"/>
<path fill-rule="evenodd" clip-rule="evenodd" d="M18 3.25C19.5188 3.25 20.75 4.48122 20.75 6V18C20.75 19.5188 19.5188 20.75 18 20.75H6C4.48122 20.75 3.25 19.5188 3.25 18V6C3.25 4.48122 4.48122 3.25 6 3.25H18ZM6 4.75C5.30964 4.75 4.75 5.30964 4.75 6V18C4.75 18.6904 5.30964 19.25 6 19.25H8.25V4.75H6ZM9.75 19.25H18C18.6904 19.25 19.25 18.6904 19.25 18V6C19.25 5.30964 18.6904 4.75 18 4.75H9.75V19.25Z" fill="#555555"/>
</g>
<defs>
<clipPath id="clip0_1022_6123">
<rect width="24" height="24" fill="white"/>
</clipPath>
</defs>
</svg>
