<svg width="24" height="24" viewBox="0 0 24 24" fill="none" xmlns="http://www.w3.org/2000/svg">
<path d="M14.5264 9.41797C14.8209 9.17766 15.2557 9.19512 15.5303 9.46973C15.8049 9.74433 15.8223 10.1791 15.582 10.4736L15.5303 10.5303L14.0605 12L15.5303 13.4697L15.582 13.5264C15.8223 13.8209 15.8049 14.2557 15.5303 14.5303C15.2557 14.8049 14.8209 14.8223 14.5264 14.582L14.4697 14.5303L12.4697 12.5303C12.1768 12.2374 12.1768 11.7626 12.4697 11.4697L14.4697 9.46973L14.5264 9.41797Z" fill="#555555"/>
<path fill-rule="evenodd" clip-rule="evenodd" d="M18 3.25C19.5188 3.25 20.75 4.48122 20.75 6V18C20.75 19.5188 19.5188 20.75 18 20.75H6C4.48122 20.75 3.25 19.5188 3.25 18V6C3.25 4.48122 4.48122 3.25 6 3.25H18ZM6 4.75C5.30964 4.75 4.75 5.30964 4.75 6V18C4.75 18.6904 5.30964 19.25 6 19.25H8.25V4.75H6ZM9.75 19.25H18C18.6904 19.25 19.25 18.6904 19.25 18V6C19.25 5.30964 18.6904 4.75 18 4.75H9.75V19.25Z" fill="#555555"/>
</svg>
