<svg width="24" height="24" viewBox="0 0 24 24" fill="none" xmlns="http://www.w3.org/2000/svg">
<path d="M7.22872 21V4.35254L3.53536 8.1084L3.47872 8.16016C3.18614 8.40313 2.75079 8.38959 2.47384 8.11719C2.17886 7.82679 2.17492 7.35189 2.46505 7.05664L6.6672 2.78418L6.66915 2.7832L6.80001 2.66211C7.1195 2.39741 7.52287 2.25 7.94259 2.25C7.95172 2.25 7.96082 2.25181 7.96993 2.25195C7.97286 2.25192 7.97578 2.25098 7.97872 2.25098C8.00701 2.25098 8.03523 2.25379 8.06271 2.25684C8.43844 2.28225 8.79547 2.42304 9.08419 2.66211L9.21603 2.7832L9.21798 2.78418L13.5354 7.17383L13.5861 7.23145C13.8238 7.52786 13.803 7.96208 13.5266 8.23438C13.2497 8.50667 12.8143 8.521 12.5217 8.27832L12.465 8.22559L8.72872 4.42578V21C8.72867 21.4142 8.3929 21.75 7.97872 21.75C7.56475 21.7497 7.22877 21.414 7.22872 21ZM15.2287 3C15.2288 2.58599 15.5648 2.25025 15.9787 2.25C16.3929 2.25 16.7287 2.58583 16.7287 3V19.5732L20.465 15.7744L20.5217 15.7217C20.8143 15.479 21.2497 15.4933 21.5266 15.7656C21.8215 16.0561 21.8256 16.531 21.5354 16.8262L17.218 21.2158L17.216 21.2168C16.9079 21.5282 16.498 21.7137 16.0627 21.7432C16.0352 21.7462 16.007 21.749 15.9787 21.749C15.9758 21.749 15.9729 21.7481 15.9699 21.748C15.9608 21.7482 15.9517 21.75 15.9426 21.75C15.463 21.75 15.0055 21.5567 14.6692 21.2168L14.6672 21.2158L10.465 16.9434L11.5354 15.8916L15.2287 19.6465V3ZM10.4738 15.8828C10.7692 15.5924 11.2449 15.5963 11.5354 15.8916L10.465 16.9434C10.1749 16.6481 10.1789 16.1732 10.4738 15.8828Z" fill="#555555"/>
</svg>
