<svg width="24" height="24" viewBox="0 0 24 24" fill="none" xmlns="http://www.w3.org/2000/svg">
<path d="M11.2286 3C11.2286 2.58594 11.5646 2.25025 11.9786 2.25C12.3928 2.25 12.7286 2.58579 12.7286 3V19.5732L16.4649 15.7744L16.5216 15.7217C16.8142 15.479 17.2496 15.4933 17.5265 15.7656C17.8213 16.0561 17.8255 16.531 17.5353 16.8262L13.2179 21.2148L13.2159 21.2168C12.9076 21.5284 12.4973 21.7139 12.0616 21.7432C12.0345 21.7461 12.0066 21.749 11.9786 21.749C11.9757 21.749 11.9728 21.7481 11.9698 21.748C11.9607 21.7482 11.9516 21.75 11.9425 21.75C11.4629 21.75 11.0054 21.5566 10.669 21.2168L10.6671 21.2148L6.46494 16.9434L6.41416 16.8857C6.17661 16.5893 6.19722 16.1551 6.47373 15.8828C6.7507 15.6104 7.18603 15.5968 7.47861 15.8398L7.53525 15.8916L11.2286 19.6465V3Z" fill="#555555"/>
</svg>
