<svg width="24" height="24" viewBox="0 0 24 24" fill="none" xmlns="http://www.w3.org/2000/svg">
<path d="M11.2287 21V4.35254L7.53536 8.1084L7.47872 8.16016C7.18614 8.40313 6.75079 8.38959 6.47384 8.11719C6.17886 7.82679 6.17492 7.35189 6.46505 7.05664L10.6672 2.78418L10.6692 2.7832L10.8 2.66211C11.1195 2.39741 11.5229 2.25 11.9426 2.25C11.9517 2.25 11.9608 2.25181 11.9699 2.25195C11.9729 2.25192 11.9758 2.25098 11.9787 2.25098C12.007 2.25098 12.0352 2.25379 12.0627 2.25684C12.4384 2.28225 12.7955 2.42304 13.0842 2.66211L13.216 2.7832L13.218 2.78418L17.5354 7.17383L17.5861 7.23145C17.8238 7.52786 17.803 7.96208 17.5266 8.23438C17.2497 8.50667 16.8143 8.521 16.5217 8.27832L16.465 8.22559L12.7287 4.42578V21C12.7287 21.4142 12.3929 21.75 11.9787 21.75C11.5648 21.7497 11.2288 21.414 11.2287 21Z" fill="#555555"/>
</svg>
