<svg width="24" height="24" viewBox="0 0 24 24" fill="none" xmlns="http://www.w3.org/2000/svg">
<path d="M18.75 13.4209C18.7499 9.64202 15.7205 6.5918 12 6.5918C8.27951 6.5918 5.25008 9.64202 5.25 13.4209C5.25 17.1998 8.27946 20.25 12 20.25C15.7205 20.25 18.75 17.1998 18.75 13.4209ZM11.248 9.1582C11.248 8.744 11.5838 8.40822 11.998 8.4082C12.4123 8.4082 12.748 8.74399 12.748 9.1582V13.4951L15.2295 15.167L15.291 15.2139C15.5831 15.457 15.6496 15.887 15.4326 16.209C15.2155 16.5308 14.7921 16.6308 14.457 16.4512L14.3916 16.4111L11.5791 14.5166C11.3722 14.3772 11.248 14.144 11.248 13.8945V9.1582ZM13.8721 2.25L13.9482 2.25391C14.3267 2.2921 14.6221 2.61151 14.6221 3C14.6221 3.38849 14.3267 3.7079 13.9482 3.74609L13.8721 3.75H10.1221C9.70808 3.74974 9.37207 3.41406 9.37207 3C9.37207 2.58594 9.70808 2.25026 10.1221 2.25H13.8721ZM20.25 13.4209C20.25 18.0134 16.5637 21.75 12 21.75C7.43627 21.75 3.75 18.0134 3.75 13.4209C3.75008 8.82844 7.43632 5.0918 12 5.0918C16.5637 5.0918 20.2499 8.82844 20.25 13.4209Z" fill="#555555"/>
</svg>
