<svg width="24" height="24" viewBox="0 0 24 24" fill="none" xmlns="http://www.w3.org/2000/svg">
<path d="M20.25 15.25H8.75V18.75H17.7998C18.3722 18.75 18.7569 18.7498 19.0527 18.7256C19.3398 18.7021 19.4769 18.6594 19.5674 18.6133L19.6533 18.5654C19.8492 18.4454 20.0084 18.2732 20.1133 18.0674L20.1475 17.9893C20.1798 17.899 20.208 17.768 20.2256 17.5527C20.2498 17.2569 20.25 16.8722 20.25 16.2998V15.25ZM8.75 13.75H20.25V10.25H8.75V13.75ZM3.75 13.75H7.25V10.25H3.75V13.75ZM3.75 16.2998C3.75 16.8722 3.75024 17.2569 3.77442 17.5527C3.79788 17.8398 3.8406 17.9769 3.88672 18.0674L3.93457 18.1533C4.05468 18.3492 4.22685 18.5085 4.43262 18.6133L4.51075 18.6475C4.60099 18.6798 4.73202 18.708 4.94727 18.7256C5.24315 18.7498 5.62777 18.75 6.2002 18.75H7.25V15.25H3.75V16.2998ZM20.25 7.7002C20.25 7.12777 20.2498 6.74315 20.2256 6.44727C20.208 6.23202 20.1798 6.10099 20.1475 6.01075L20.1133 5.93262C20.0085 5.72685 19.8492 5.55468 19.6533 5.43457L19.5674 5.38672C19.4769 5.3406 19.3398 5.29788 19.0527 5.27442C18.7568 5.25024 18.3722 5.25 17.7998 5.25H8.75V8.75H20.25V7.7002ZM3.75 8.75H7.25V5.25H6.2002C5.62777 5.25 5.24315 5.25024 4.94727 5.27442C4.73202 5.29201 4.60099 5.3202 4.51075 5.35254L4.43262 5.38672C4.22681 5.4916 4.05465 5.65084 3.93457 5.84668L3.88672 5.93262C3.84059 6.02316 3.79788 6.16027 3.77442 6.44727C3.75024 6.74315 3.75 7.12777 3.75 7.7002V8.75ZM21.75 16.2998C21.75 16.8475 21.751 17.3037 21.7207 17.6748C21.6935 18.0072 21.6382 18.3217 21.5098 18.6211L21.4502 18.7481C21.2195 19.2008 20.8683 19.5795 20.4375 19.8438L20.2481 19.9502C19.9109 20.1219 19.5545 20.1897 19.1748 20.2207C18.8037 20.251 18.3475 20.25 17.7998 20.25H6.2002C5.65252 20.25 5.19633 20.251 4.8252 20.2207C4.49281 20.1935 4.1783 20.1382 3.87891 20.0098L3.75196 19.9502C3.29908 19.7195 2.92047 19.3683 2.65625 18.9375L2.54981 18.7481C2.37809 18.4109 2.31033 18.0545 2.2793 17.6748C2.24898 17.3037 2.25 16.8475 2.25 16.2998V7.7002C2.25 7.15252 2.24898 6.69633 2.2793 6.3252C2.31033 5.94547 2.37809 5.5891 2.54981 5.25196L2.65625 5.0625C2.92048 4.63168 3.29915 4.28051 3.75196 4.04981L3.87891 3.99024C4.1783 3.86184 4.49281 3.80646 4.8252 3.7793C5.19633 3.74898 5.65253 3.75 6.2002 3.75H17.7998C18.3475 3.75 18.8037 3.74898 19.1748 3.7793C19.5545 3.81033 19.9109 3.87809 20.2481 4.04981L20.4375 4.15625C20.8683 4.42047 21.2195 4.79908 21.4502 5.25196L21.5098 5.37891C21.6382 5.6783 21.6935 5.99281 21.7207 6.3252C21.751 6.69633 21.75 7.15253 21.75 7.7002V16.2998Z" fill="#555555"/>
</svg>
