<svg width="24" height="24" viewBox="0 0 24 24" fill="none" xmlns="http://www.w3.org/2000/svg">
<path fill-rule="evenodd" clip-rule="evenodd" d="M18.0349 6.08679C17.1077 6.70177 16.2897 7.26343 16.2171 7.33484C16.0788 7.4707 16.3492 8.03222 16.5528 8.03222C16.6117 8.03222 17.4913 7.48544 18.5075 6.81713C20.2804 5.65121 20.3474 5.59052 20.1626 5.31719C20.0567 5.16057 19.9139 5.01801 19.8453 5.00046C19.7767 4.98291 18.9621 5.47181 18.0349 6.08679ZM13.8575 6.22774C12.0288 7.23235 11.8585 7.26343 7.72155 7.35119L4.03999 7.4293L3.99909 8.1997L3.95818 8.9701H3.34241C2.20958 8.9701 2.19922 8.98953 2.19922 11.1138C2.19922 13.2381 2.20958 13.2576 3.34241 13.2576H3.95818L3.99909 14.028C4.03768 14.7554 4.06072 14.8008 4.41142 14.8404L4.78299 14.8825L4.82048 16.9172L4.85812 18.9518L6.0054 18.9911C6.83129 19.0194 7.18418 18.9818 7.26462 18.8571C7.32612 18.7618 7.37739 17.8248 7.37862 16.7746L7.38066 14.8654L8.98282 14.8676C11.1233 14.8708 12.1646 15.1059 13.7439 15.9424C14.7794 16.491 15.0725 16.5943 15.2297 16.466C15.3938 16.3323 15.4255 15.4647 15.4255 11.1243C15.4255 6.10434 15.389 5.60512 15.0233 5.62455C14.9821 5.62669 14.4574 5.89814 13.8575 6.22774ZM14.6074 11.1156V15.4046L13.6535 14.9326C12.2252 14.2259 11.327 14.0657 8.77829 14.0635L6.56254 14.0615V11.1283V8.19515L9.11917 8.13271C11.8546 8.06599 12.5813 7.91861 13.8575 7.17112C14.1574 6.99533 14.449 6.84594 14.5051 6.83897C14.5613 6.83201 14.6074 8.75654 14.6074 11.1156ZM5.60806 11.1138V14.0615H5.199H4.78994V11.1138V8.16621H5.199H5.60806V11.1138ZM3.97182 11.1138V12.3197H3.56276H3.1537V11.1138V9.90798H3.56276H3.97182V11.1138ZM16.333 14.4405C16.2089 14.5753 16.1073 14.7217 16.1073 14.7661C16.1073 14.8104 16.9448 15.4853 17.9683 16.2657C19.7366 17.6141 19.8418 17.6735 20.0817 17.4601C20.2207 17.3365 20.3343 17.1882 20.3343 17.1305C20.3343 17.037 16.7257 14.1954 16.6068 14.1954C16.5803 14.1954 16.457 14.3057 16.333 14.4405ZM6.42619 16.5401V18.2149H6.01712H5.60806V16.5401V14.8654H6.01712H6.42619V16.5401Z" fill="#555555" stroke="#555555" stroke-width="0.3"/>
<path d="M17.1534 10.6617C17.2552 10.6465 18.2538 10.6698 19.3727 10.7136C20.4915 10.7575 21.4433 10.8374 21.4879 10.8914C21.5325 10.9454 21.5611 11.1431 21.5515 11.3307C21.5347 11.6581 21.444 11.6681 19.3108 11.5762C18.0879 11.5235 17.0487 11.4524 17.0013 11.4182C16.8374 11.2999 16.9598 10.6907 17.1534 10.6617Z" fill="#555555" stroke="#555555" stroke-width="0.3"/>
</svg>
