<svg width="24" height="24" viewBox="0 0 24 24" fill="none" xmlns="http://www.w3.org/2000/svg">
<path d="M20.25 10.2998C20.2499 10.0214 20.1392 9.75448 19.9424 9.55762C19.7455 9.36075 19.4786 9.25005 19.2002 9.25H16.3496V11.2002C16.3496 11.8763 16.0815 12.5248 15.6035 13.0029C15.1253 13.4811 14.4761 13.75 13.7998 13.75H11.4102L9.18652 15.9736C9.23399 16.1494 9.32703 16.3114 9.45801 16.4424C9.6549 16.6392 9.92181 16.75 10.2002 16.75H12.9004L13.0469 16.7646C13.1911 16.7935 13.3252 16.8642 13.4307 16.9697L15.4824 19.0225L16.7764 17.084L16.832 17.0098C16.9735 16.8459 17.1809 16.75 17.4004 16.75H19.2002C19.4786 16.7499 19.7455 16.6393 19.9424 16.4424C20.1392 16.2455 20.2499 15.9786 20.25 15.7002V10.2998ZM14.8496 5.7998C14.8496 5.5214 14.7389 5.25448 14.542 5.05762C14.3451 4.86083 14.0782 4.75 13.7998 4.75H4.7998C4.5214 4.75005 4.25448 4.86075 4.05762 5.05762C3.86075 5.25448 3.75005 5.5214 3.75 5.7998V11.2002L3.75488 11.3037C3.77873 11.5441 3.8853 11.7701 4.05762 11.9424C4.25448 12.1392 4.5214 12.2499 4.7998 12.25H5.7002L5.84668 12.2646C5.99095 12.2934 6.12491 12.3642 6.23047 12.4697L8.39941 14.6387L10.5693 12.4697L10.6836 12.376C10.8058 12.2944 10.9505 12.2501 11.0996 12.25H13.7998C14.0782 12.25 14.3451 12.1392 14.542 11.9424C14.7389 11.7455 14.8496 11.4786 14.8496 11.2002V5.7998ZM16.3496 7.75H19.2002C19.8764 7.75005 20.5248 8.0189 21.0029 8.49707C21.4811 8.97524 21.7499 9.62357 21.75 10.2998V15.7002C21.7499 16.3764 21.4811 17.0248 21.0029 17.5029C20.5248 17.9811 19.8764 18.2499 19.2002 18.25H17.8018L16.2236 20.6162C16.099 20.803 15.8973 20.9242 15.6738 20.9463C15.4503 20.9684 15.2282 20.8893 15.0693 20.7305L12.5898 18.25H10.2002C9.52389 18.25 8.8747 17.9811 8.39648 17.5029C7.99796 17.1043 7.74694 16.5869 7.67383 16.0342L5.38965 13.75H4.7998C4.12357 13.7499 3.47524 13.4811 2.99707 13.0029C2.57866 12.5845 2.32068 12.0359 2.2627 11.4521L2.25 11.2002V5.7998C2.25005 5.12357 2.5189 4.47524 2.99707 3.99707C3.47524 3.5189 4.12357 3.25005 4.7998 3.25H13.7998C14.4761 3.25 15.1253 3.51885 15.6035 3.99707C16.0815 4.47521 16.3496 5.12371 16.3496 5.7998V7.75Z" fill="#555555"/>
</svg>
