<svg width="24" height="24" viewBox="0 0 24 24" fill="none" xmlns="http://www.w3.org/2000/svg">
<path d="M12 2.25C17.3848 2.25 21.75 6.61522 21.75 12C21.75 17.3848 17.3848 21.75 12 21.75C6.61522 21.75 2.25 17.3848 2.25 12C2.25 6.61522 6.61522 2.25 12 2.25ZM12 3.75C7.44365 3.75 3.75 7.44365 3.75 12C3.75 16.5563 7.44365 20.25 12 20.25C16.5563 20.25 20.25 16.5563 20.25 12C20.25 7.44365 16.5563 3.75 12 3.75ZM11.9375 5.33887C12.3516 5.33887 12.6873 5.67482 12.6875 6.08887V11.4639H16.2549L16.332 11.4678C16.7102 11.5062 17.0049 11.8256 17.0049 12.2139C17.0049 12.6021 16.7102 12.9215 16.332 12.96L16.2549 12.9639H11.9375C11.5234 12.9638 11.1875 12.628 11.1875 12.2139V6.08887C11.1877 5.67489 11.5235 5.33898 11.9375 5.33887Z" fill="#555555"/>
</svg>
