<svg width="24" height="24" viewBox="0 0 24 24" fill="none" xmlns="http://www.w3.org/2000/svg">
<path d="M4.25 19.0801V4.78711C4.25 4.11404 4.5179 3.46783 4.99414 2.99219C5.47031 2.51677 6.11616 2.25 6.78906 2.25H14.71L14.9072 2.26172C15.1027 2.2853 15.293 2.34426 15.4688 2.43555C15.6444 2.52683 15.8019 2.64848 15.9336 2.79492L16.0566 2.94922V2.9502L19.7637 8.2373L19.832 8.34375C19.9817 8.59642 20.0615 8.88543 20.0615 9.18066V19.0801C20.0615 19.7531 19.7935 20.3984 19.3174 20.874C18.8412 21.3496 18.1954 21.6171 17.5225 21.6172H6.78906C6.11604 21.6172 5.47034 21.3496 4.99414 20.874C4.51791 20.3984 4.25001 19.7531 4.25 19.0801ZM15.8896 15.1865C16.3037 15.1868 16.6396 15.5225 16.6396 15.9365C16.6395 16.3505 16.3036 16.6863 15.8896 16.6865H8.11133C7.69726 16.6865 7.36148 16.3506 7.36133 15.9365C7.36133 15.5224 7.69717 15.1866 8.11133 15.1865H15.8896ZM15.8896 12.377L15.9658 12.3809C16.3441 12.4192 16.6396 12.7386 16.6396 13.127C16.6396 13.5153 16.344 13.8347 15.9658 13.873L15.8896 13.877H8.11133C7.69719 13.8769 7.36136 13.5411 7.36133 13.127C7.36133 12.7128 7.69717 12.377 8.11133 12.377H15.8896ZM15.8896 9.26562L15.9658 9.26953C16.3439 9.30786 16.6394 9.62747 16.6396 10.0156C16.6396 10.404 16.3441 10.7244 15.9658 10.7627L15.8896 10.7656H8.11133C7.69717 10.7656 7.36133 10.4298 7.36133 10.0156C7.36158 9.60167 7.69733 9.26569 8.11133 9.26562H15.8896ZM13.5557 6.16211L13.6328 6.16602C14.0108 6.20451 14.3055 6.52399 14.3057 6.91211C14.3057 7.30034 14.0109 7.61967 13.6328 7.6582L13.5557 7.66211H8.11133C7.69717 7.66204 7.36133 7.32628 7.36133 6.91211C7.36149 6.49807 7.69727 6.16218 8.11133 6.16211H13.5557ZM5.75 19.0801C5.75001 19.3546 5.85915 19.618 6.05371 19.8125C6.24847 20.007 6.51323 20.1172 6.78906 20.1172H17.5225C17.7982 20.1171 18.0621 20.0069 18.2568 19.8125C18.4516 19.618 18.5615 19.3547 18.5615 19.0801V9.18066C18.5615 9.16605 18.5591 9.15151 18.5547 9.1377L18.5352 9.09863L14.8281 3.81152V3.81055C14.815 3.79215 14.7976 3.77716 14.7773 3.7666C14.7671 3.76129 14.7563 3.75665 14.7451 3.75391L14.71 3.75H6.78906C6.51323 3.75 6.24847 3.8592 6.05371 4.05371C5.85898 4.2482 5.75 4.51247 5.75 4.78711V19.0801Z" fill="#555555"/>
</svg>
