<svg width="24" height="24" viewBox="0 0 24 24" fill="none" xmlns="http://www.w3.org/2000/svg">
<g clip-path="url(#clip0_14876_39320)">
<path d="M12 23.25C5.79638 23.25 0.75 18.2033 0.75 12C0.75 5.79675 5.79638 0.75 12 0.75C18.2036 0.75 23.25 5.79675 23.25 12C23.25 18.2033 18.2036 23.25 12 23.25ZM12 2.25C6.624 2.25 2.25 6.62362 2.25 12C2.25 17.3764 6.624 21.75 12 21.75C17.376 21.75 21.75 17.3764 21.75 12C21.75 6.62362 17.376 2.25 12 2.25Z" fill="#555555"/>
<path d="M13.7197 17.0303C13.4288 16.7393 13.4288 16.2606 13.7197 15.9697L15.4394 14.25H6.75C6.33855 14.25 6 13.9115 6 13.5C6 13.0886 6.33855 12.75 6.75 12.75H17.25C17.5532 12.75 17.8271 12.9328 17.9429 13.2129C18.0593 13.4934 17.9948 13.8157 17.7803 14.0303L14.7803 17.0303C14.4894 17.3212 14.0106 17.3212 13.7197 17.0303Z" fill="#555555"/>
<path d="M17.2501 11.25H6.75015C6.44692 11.25 6.17302 11.0672 6.0573 10.7871C5.94082 10.5066 6.00532 10.1843 6.2199 9.96971L9.2199 6.96971C9.51285 6.67676 9.98745 6.67676 10.2805 6.96971C10.5735 7.26266 10.5734 7.73726 10.2805 8.03029L8.56072 9.74996H17.2501C17.6647 9.74996 18.0001 10.0858 18.0001 10.5C18.0001 10.9141 17.6647 11.25 17.2501 11.25Z" fill="#555555"/>
</g>
<defs>
<clipPath id="clip0_14876_39320">
<rect width="24" height="24" fill="white"/>
</clipPath>
</defs>
</svg>
