<svg width="24" height="24" viewBox="0 0 24 24" fill="none" xmlns="http://www.w3.org/2000/svg">
<path d="M7.50586 15.708C6.80982 15.708 6.24522 16.2718 6.24512 16.9678C6.24512 16.9913 6.24677 17.0149 6.24805 17.0381C6.25088 17.0616 6.2533 17.0853 6.25391 17.1094C6.32423 17.7389 6.85758 18.2285 7.50586 18.2285C8.07633 18.2285 8.55756 17.8491 8.71289 17.3291C8.68593 17.2518 8.66895 17.1695 8.66895 17.083C8.66895 16.965 8.69754 16.8542 8.74609 16.7549C8.64471 16.1605 8.12916 15.7081 7.50586 15.708ZM16.0254 15.708C15.3294 15.708 14.7648 16.2718 14.7646 16.9678C14.7705 17.0054 14.7744 17.0438 14.7744 17.083C14.7744 17.0912 14.7727 17.0993 14.7725 17.1074C14.8418 17.7379 15.3764 18.2285 16.0254 18.2285C16.7215 18.2285 17.2861 17.6639 17.2861 16.9678C17.286 16.2718 16.7214 15.708 16.0254 15.708ZM14.6172 12.998V8.50098C14.6032 8.44367 14.5938 8.3839 14.5938 8.32227C14.5938 8.26049 14.6031 8.20098 14.6172 8.14355V6.7959C14.6172 6.65857 14.5906 6.52238 14.5381 6.39551C14.4856 6.26876 14.4085 6.15369 14.3115 6.05664C14.2144 5.95953 14.0986 5.88263 13.9717 5.83008C13.8767 5.79074 13.7768 5.76497 13.6748 5.75488L13.5723 5.75H4.7959C4.51855 5.75 4.25275 5.86053 4.05664 6.05664C3.86053 6.25275 3.75 6.51855 3.75 6.7959V15.333C3.75003 15.6103 3.86055 15.8762 4.05664 16.0723C4.25274 16.2683 4.51861 16.3789 4.7959 16.3789H4.81055C5.08058 15.1376 6.18366 14.208 7.50586 14.208C8.81156 14.2081 9.90236 15.115 10.1895 16.333H13.3418C13.6289 15.1149 14.7197 14.208 16.0254 14.208C17.3188 14.208 18.4008 15.0981 18.7002 16.2988H20.2734V12.3857L20.2617 12.248C20.239 12.1124 20.1844 11.9834 20.1016 11.8721L18.0859 9.19141L18.0371 9.1416C18.0188 9.12683 17.9988 9.11384 17.9775 9.10352C17.9353 9.08305 17.8887 9.07222 17.8418 9.07227H16.1172V12.998C16.1172 13.4123 15.7814 13.748 15.3672 13.748C14.9532 13.7478 14.6172 13.4121 14.6172 12.998ZM16.1172 7.57227H17.8408L18.0449 7.58398C18.2486 7.60693 18.4475 7.66494 18.6328 7.75488C18.8178 7.84474 18.986 7.96475 19.1299 8.11035L19.2656 8.26465L19.2754 8.27734L21.3008 10.9707L21.3018 10.9727L21.4092 11.1279C21.6441 11.5008 21.7706 11.9337 21.7734 12.377V16.8691C21.7734 17.1157 21.6753 17.352 21.501 17.5264C21.3267 17.7007 21.0903 17.7988 20.8438 17.7988H18.6582C18.3056 18.9173 17.2604 19.7285 16.0254 19.7285C14.8032 19.7285 13.7684 18.9335 13.4053 17.833H10.125C9.7618 18.9333 8.72788 19.7285 7.50586 19.7285C6.30089 19.7285 5.27896 18.9553 4.90234 17.8789H4.7959C4.12079 17.8789 3.4735 17.6101 2.99609 17.1328C2.5187 16.6554 2.25003 16.0081 2.25 15.333V6.7959C2.25 6.12073 2.51868 5.47351 2.99609 4.99609C3.47351 4.51868 4.12073 4.25 4.7959 4.25H13.5723L13.8213 4.2627C14.0699 4.28718 14.3142 4.34744 14.5459 4.44336C14.8548 4.57129 15.1357 4.7597 15.3721 4.99609C15.6083 5.23238 15.7959 5.51262 15.9238 5.82129C16.0518 6.13015 16.1172 6.46159 16.1172 6.7959V7.57227Z" fill="#555555"/>
</svg>
