<svg width="24" height="24" viewBox="0 0 24 24" fill="none" xmlns="http://www.w3.org/2000/svg">
<path d="M18.5 16.5C18.9142 16.5 19.25 16.8358 19.25 17.25C19.25 17.6642 18.9142 18 18.5 18H17.2051C17.2982 18.264 17.2406 18.5692 17.0293 18.7803C16.7363 19.073 16.2615 19.0732 15.9688 18.7803L14.9697 17.7803C14.9377 17.7483 14.9097 17.7136 14.8848 17.6777C14.8541 17.6336 14.8274 17.5864 14.8066 17.5361C14.7957 17.5095 14.789 17.4816 14.7812 17.4541C14.7758 17.435 14.7686 17.4162 14.7646 17.3965C14.7638 17.3923 14.7634 17.388 14.7627 17.3838C14.7549 17.3403 14.75 17.2957 14.75 17.25C14.75 17.0886 14.802 16.9397 14.8887 16.8174C14.9101 16.7872 14.9336 16.7579 14.96 16.7305C14.9663 16.7238 14.9729 16.7173 14.9795 16.7109C15.0067 16.6847 15.0355 16.661 15.0654 16.6396C15.112 16.6064 15.1621 16.5777 15.2158 16.5557C15.2373 16.5468 15.2601 16.5419 15.2822 16.5352C15.3055 16.5281 15.3284 16.5195 15.3525 16.5146C15.357 16.5137 15.3617 16.5135 15.3662 16.5127C15.4097 16.5049 15.4543 16.5 15.5 16.5H18.5Z" fill="#555555"/>
<path d="M16.9707 13.2197C17.2637 12.927 17.7385 12.9267 18.0312 13.2197L19.0303 14.2197C19.0786 14.2681 19.1161 14.3232 19.1484 14.3799C19.164 14.407 19.1803 14.4338 19.1924 14.4629C19.2129 14.5125 19.2269 14.564 19.2363 14.6162C19.2442 14.6597 19.25 14.7043 19.25 14.75C19.25 14.9113 19.197 15.0593 19.1104 15.1816C19.0889 15.2119 19.0655 15.2411 19.0391 15.2686C19.0327 15.2752 19.0262 15.2817 19.0195 15.2881C18.9923 15.3144 18.9635 15.338 18.9336 15.3594C18.8869 15.3927 18.837 15.4214 18.7832 15.4434C18.7616 15.4522 18.7389 15.4571 18.7168 15.4639C18.6935 15.4709 18.6707 15.4796 18.6465 15.4844C18.642 15.4853 18.6373 15.4855 18.6328 15.4863C18.5896 15.4941 18.5454 15.5 18.5 15.5H15.5C15.0858 15.5 14.75 15.1642 14.75 14.75C14.75 14.3358 15.0858 14 15.5 14H16.7949C16.7018 13.736 16.7594 13.4308 16.9707 13.2197Z" fill="#555555"/>
<path fill-rule="evenodd" clip-rule="evenodd" d="M19 10.25C21.0711 10.25 22.75 11.9289 22.75 14V18C22.75 20.0711 21.0711 21.75 19 21.75H15C12.9289 21.75 11.25 20.0711 11.25 18V14C11.25 11.9289 12.9289 10.25 15 10.25H19ZM15 11.75C13.7574 11.75 12.75 12.7574 12.75 14V18C12.75 19.2426 13.7574 20.25 15 20.25H19C20.2426 20.25 21.25 19.2426 21.25 18V14C21.25 12.7574 20.2426 11.75 19 11.75H15Z" fill="#555555"/>
<path d="M16.5 2.25C18.2949 2.25 19.75 3.70507 19.75 5.5V8C19.75 8.41421 19.4142 8.75 19 8.75C18.5858 8.75 18.25 8.41421 18.25 8V5.5C18.25 4.5335 17.4665 3.75 16.5 3.75H4.5C3.5335 3.75 2.75 4.5335 2.75 5.5V13.5C2.75 14.4665 3.5335 15.25 4.5 15.25H9C9.41421 15.25 9.75 15.5858 9.75 16C9.75 16.4142 9.41421 16.75 9 16.75H4.5C2.70507 16.75 1.25 15.2949 1.25 13.5V5.5C1.25 3.70507 2.70507 2.25 4.5 2.25H16.5Z" fill="#555555"/>
<path d="M6 12.25C6.41421 12.25 6.75 12.5858 6.75 13C6.75 13.4142 6.41421 13.75 6 13.75H5C4.58579 13.75 4.25 13.4142 4.25 13C4.25 12.5858 4.58579 12.25 5 12.25H6Z" fill="#555555"/>
<path d="M9.65918 6.36035C10.7806 6.06001 11.9769 6.38125 12.7979 7.20215C13.0907 7.49504 13.0907 7.9698 12.7979 8.2627C12.5049 8.5554 12.0301 8.55552 11.7373 8.2627C11.2952 7.82065 10.6508 7.64776 10.0469 7.80957C9.44313 7.97142 8.97142 8.44313 8.80957 9.04688C8.64776 9.65076 8.82065 10.2952 9.2627 10.7373C9.55552 11.0301 9.5554 11.5049 9.2627 11.7979C8.9698 12.0907 8.49504 12.0907 8.20215 11.7979C7.38125 10.9769 7.06001 9.78059 7.36035 8.65918C7.66087 7.53763 8.53763 6.66087 9.65918 6.36035Z" fill="#555555"/>
<path d="M16 5.25C16.4142 5.25 16.75 5.58579 16.75 6C16.75 6.41421 16.4142 6.75 16 6.75H15C14.5858 6.75 14.25 6.41421 14.25 6C14.25 5.58579 14.5858 5.25 15 5.25H16Z" fill="#555555"/>
</svg>
