<svg width="24" height="24" viewBox="0 0 24 24" fill="none" xmlns="http://www.w3.org/2000/svg">
<path d="M20 5.42676L20.0771 5.43066C20.4551 5.4693 20.75 5.7886 20.75 6.17676C20.7499 6.5648 20.455 6.88425 20.0771 6.92285L20 6.92676H18.6807C18.6918 6.99237 18.7001 7.05879 18.7041 7.12598L18.7061 7.30859L18.249 18.9121C18.2338 20.4421 17.0486 21.75 15.5 21.75H8.5C6.95144 21.75 5.76618 20.4421 5.75098 18.9121L5.29395 7.30859C5.28887 7.17919 5.29823 7.05137 5.31934 6.92676H4C3.58588 6.92676 3.25016 6.59084 3.25 6.17676C3.25 5.76254 3.58579 5.42676 4 5.42676H20ZM7.00293 6.93164C6.90538 6.9544 6.7854 7.05778 6.79297 7.25L7.24902 18.8525L7.25 18.8672V18.8828C7.25023 19.6789 7.84958 20.25 8.5 20.25H15.5C16.1504 20.25 16.7498 19.6789 16.75 18.8828V18.8672L16.751 18.8525L17.207 7.25L17.2031 7.17285C17.181 7.02968 17.0807 6.95114 16.9971 6.93164L16.957 6.92676H7.04297L7.00293 6.93164ZM9.25 16.7646V10.4121C9.25 9.9979 9.58579 9.66211 10 9.66211C10.4142 9.66211 10.75 9.9979 10.75 10.4121V16.7646C10.75 17.1789 10.4142 17.5146 10 17.5146C9.58579 17.5146 9.25 17.1789 9.25 16.7646ZM13.25 16.7646V10.4121C13.25 9.9979 13.5858 9.66211 14 9.66211C14.4142 9.66211 14.75 9.9979 14.75 10.4121V16.7646C14.75 17.1789 14.4142 17.5146 14 17.5146C13.5858 17.5146 13.25 17.1789 13.25 16.7646ZM15 2.25C15.4142 2.25 15.75 2.58579 15.75 3C15.75 3.41421 15.4142 3.75 15 3.75H9C8.58579 3.75 8.25 3.41421 8.25 3C8.25 2.58579 8.58579 2.25 9 2.25H15Z" fill="#555555"/>
</svg>
