<svg width="24" height="24" viewBox="0 0 24 24" fill="none" xmlns="http://www.w3.org/2000/svg">
<path d="M10 19.333C9.99991 18.9795 9.85935 18.6406 9.60938 18.3906C9.3594 18.1407 9.0205 18.0001 8.66699 18C8.31337 18 7.97368 18.1406 7.72363 18.3906C7.47376 18.6406 7.33309 18.9796 7.33301 19.333C7.33301 19.6866 7.47358 20.0263 7.72363 20.2764C7.97368 20.5264 8.31337 20.667 8.66699 20.667C9.02042 20.6669 9.35942 20.5262 9.60938 20.2764C9.82822 20.0575 9.9629 19.7702 9.99316 19.4648L10 19.333ZM19.333 19.333C19.3329 18.9795 19.1924 18.6406 18.9424 18.3906C18.6924 18.1407 18.3535 18 18 18C17.6465 18 17.3077 18.1407 17.0576 18.3906C16.8076 18.6406 16.6671 18.9795 16.667 19.333C16.667 19.6866 16.8076 20.0263 17.0576 20.2764C17.3076 20.5262 17.6465 20.667 18 20.667C18.3535 20.667 18.6924 20.5262 18.9424 20.2764C19.1612 20.0575 19.2969 19.7702 19.3271 19.4648L19.333 19.333ZM4.66699 2C4.81559 2.00011 4.96006 2.0501 5.07715 2.1416C5.1941 2.23307 5.27746 2.36085 5.31348 2.50488L5.85352 4.66699H21.333C21.4309 4.66708 21.5276 4.68882 21.6162 4.73047C21.7048 4.77213 21.7832 4.83286 21.8457 4.9082C21.9081 4.98351 21.954 5.07134 21.9785 5.16602C22.0031 5.26074 22.0063 5.35987 21.9883 5.45605L19.9883 16.123C19.9596 16.2757 19.8782 16.4134 19.7588 16.5127C19.6392 16.612 19.4884 16.6668 19.333 16.667H7.33301C7.17777 16.6668 7.02763 16.6119 6.9082 16.5127C6.78876 16.4134 6.70737 16.2757 6.67871 16.123L4.67969 5.47559L4.14648 3.33301H2.66699L2.53613 3.32031C2.45075 3.30326 2.36933 3.26996 2.29688 3.22168L2.19531 3.1377C2.07047 3.01276 2.00009 2.84361 2 2.66699C2 2.49018 2.07029 2.32034 2.19531 2.19531C2.28912 2.1015 2.40792 2.03829 2.53613 2.0127L2.66699 2H4.66699ZM8.02637 15.167H18.6406L20.3281 6.16699H6.33594L8.02637 15.167ZM11.3203 19.5967C11.2598 20.2071 10.9902 20.7812 10.5527 21.2188C10.0527 21.7188 9.37412 21.9999 8.66699 22C7.95975 22 7.28135 21.7188 6.78125 21.2188C6.28115 20.7187 6 20.0403 6 19.333C6.00009 18.6259 6.28123 17.9473 6.78125 17.4473C7.28132 16.9474 7.9599 16.667 8.66699 16.667C9.37412 16.6671 10.0527 16.9472 10.5527 17.4473C11.0528 17.9473 11.3329 18.6259 11.333 19.333L11.3203 19.5967ZM20.6533 19.5967C20.5928 20.2071 20.3233 20.7811 19.8857 21.2188C19.3856 21.7188 18.7072 22 18 22C17.2928 22 16.6144 21.7188 16.1143 21.2188C15.6143 20.7187 15.333 20.0402 15.333 19.333C15.3331 18.6259 15.6142 17.9473 16.1143 17.4473C16.6143 16.9473 17.2928 16.667 18 16.667C18.7072 16.667 19.3857 16.9473 19.8857 17.4473C20.3858 17.9473 20.6669 18.6259 20.667 19.333L20.6533 19.5967Z" fill="#555555"/>
</svg>
