<svg width="24" height="24" viewBox="0 0 24 24" fill="none" xmlns="http://www.w3.org/2000/svg">
<path d="M2 2.66667C2 2.48986 2.07024 2.32029 2.19526 2.19526C2.32029 2.07024 2.48986 2 2.66667 2H4.66667C4.81537 2.00004 4.9598 2.0498 5.07697 2.14137C5.19415 2.23293 5.27735 2.36105 5.31333 2.50533L5.85333 4.66667H21.3333C21.4312 4.66676 21.5279 4.6884 21.6165 4.73007C21.705 4.77173 21.7834 4.83239 21.8459 4.90774C21.9083 4.98308 21.9535 5.07127 21.978 5.16602C22.0026 5.26078 22.006 5.35978 21.988 5.456L19.988 16.1227C19.9594 16.2754 19.8783 16.4134 19.7588 16.5127C19.6392 16.6121 19.4888 16.6665 19.3333 16.6667H7.33333C7.17791 16.6665 7.02742 16.6121 6.90788 16.5127C6.78834 16.4134 6.70726 16.2754 6.67867 16.1227L4.68 5.476L4.14667 3.33333H2.66667C2.48986 3.33333 2.32029 3.2631 2.19526 3.13807C2.07024 3.01305 2 2.84348 2 2.66667ZM8.66667 16.6667C7.95942 16.6667 7.28115 16.9476 6.78105 17.4477C6.28095 17.9478 6 18.6261 6 19.3333C6 20.0406 6.28095 20.7189 6.78105 21.219C7.28115 21.719 7.95942 22 8.66667 22C9.37391 22 10.0522 21.719 10.5523 21.219C11.0524 20.7189 11.3333 20.0406 11.3333 19.3333C11.3333 18.6261 11.0524 17.9478 10.5523 17.4477C10.0522 16.9476 9.37391 16.6667 8.66667 16.6667ZM18 16.6667C17.2928 16.6667 16.6145 16.9476 16.1144 17.4477C15.6143 17.9478 15.3333 18.6261 15.3333 19.3333C15.3333 20.0406 15.6143 20.7189 16.1144 21.219C16.6145 21.719 17.2928 22 18 22C18.7072 22 19.3855 21.719 19.8856 21.219C20.3857 20.7189 20.6667 20.0406 20.6667 19.3333C20.6667 18.6261 20.3857 17.9478 19.8856 17.4477C19.3855 16.9476 18.7072 16.6667 18 16.6667ZM8.66667 18C9.02029 18 9.35943 18.1405 9.60948 18.3905C9.85952 18.6406 10 18.9797 10 19.3333C10 19.687 9.85952 20.0261 9.60948 20.2761C9.35943 20.5262 9.02029 20.6667 8.66667 20.6667C8.31304 20.6667 7.97391 20.5262 7.72386 20.2761C7.47381 20.0261 7.33333 19.687 7.33333 19.3333C7.33333 18.9797 7.47381 18.6406 7.72386 18.3905C7.97391 18.1405 8.31304 18 8.66667 18ZM18 18C18.3536 18 18.6928 18.1405 18.9428 18.3905C19.1929 18.6406 19.3333 18.9797 19.3333 19.3333C19.3333 19.687 19.1929 20.0261 18.9428 20.2761C18.6928 20.5262 18.3536 20.6667 18 20.6667C17.6464 20.6667 17.3072 20.5262 17.0572 20.2761C16.8071 20.0261 16.6667 19.687 16.6667 19.3333C16.6667 18.9797 16.8071 18.6406 17.0572 18.3905C17.3072 18.1405 17.6464 18 18 18Z" fill="#555555"/>
</svg>
