<svg width="24" height="24" viewBox="0 0 24 24" fill="none" xmlns="http://www.w3.org/2000/svg">
<path d="M6.06836 15.1816L6.54785 15.2197C7.027 15.2507 7.50586 15.2614 7.98242 15.25L8.05859 15.252C8.43768 15.2812 8.74068 15.5942 8.75 15.9824C8.75909 16.3704 8.47167 16.6966 8.09473 16.7441L8.01758 16.75C7.494 16.7625 6.97132 16.7504 6.45117 16.7168L5.93164 16.6758L5.85547 16.665C5.48267 16.5921 5.21755 16.2469 5.25293 15.8604C5.28842 15.4741 5.61158 15.1829 5.99121 15.1787L6.06836 15.1816Z" fill="#555555"/>
<path fill-rule="evenodd" clip-rule="evenodd" d="M12 9.16016C13.5188 9.16016 14.75 10.3914 14.75 11.9102C14.75 13.4289 13.5188 14.6602 12 14.6602C10.4814 14.6599 9.25 13.4288 9.25 11.9102C9.25 10.3915 10.4814 9.16042 12 9.16016ZM12 10.6602C11.3099 10.6604 10.75 11.22 10.75 11.9102C10.75 12.6004 11.3099 13.1599 12 13.1602C12.6904 13.1602 13.25 12.6005 13.25 11.9102C13.25 11.2198 12.6904 10.6602 12 10.6602Z" fill="#555555"/>
<path d="M16.5049 7.25001C16.8537 7.25229 17.2021 7.26554 17.5488 7.28809L18.0684 7.32911L18.1445 7.33985C18.5176 7.41262 18.7825 7.75785 18.7471 8.14454C18.7116 8.53105 18.3887 8.82219 18.0088 8.82618L17.9316 8.82325L17.4512 8.78516C17.1318 8.76439 16.8128 8.75209 16.4951 8.75001L16.0195 8.75489C15.6057 8.76518 15.2607 8.43824 15.25 8.02442C15.2395 7.61065 15.5668 7.26591 15.9805 7.25489L16.5049 7.25001Z" fill="#555555"/>
<path fill-rule="evenodd" clip-rule="evenodd" d="M12.54 4.67286C14.9764 4.13544 17.5004 4.10946 19.9502 4.59962L19.9492 4.60059L20.3418 4.67774L20.4932 4.71485C21.2324 4.93192 21.7498 5.6109 21.75 6.39356V17.2324C21.75 18.3368 20.7394 19.1652 19.6562 18.9482C17.261 18.4693 14.7897 18.5274 12.4199 19.1191L12.4209 19.1201L12.1836 19.1797L12.1816 19.1807C9.44016 19.8655 6.58064 19.9338 3.80957 19.3789H3.80762L3.6582 19.3477C2.83824 19.1847 2.25 18.4657 2.25 17.6328V6.79395C2.25 5.68946 3.25982 4.8624 4.3418 5.07715C6.73776 5.55635 9.21066 5.49737 11.5811 4.90528L12.0547 4.78712L12.54 4.67286ZM19.6562 6.07032C17.4109 5.62108 15.0969 5.64502 12.8633 6.1377L12.418 6.24219L11.9443 6.36036C9.35915 7.00608 6.66343 7.07046 4.0498 6.54786C3.89394 6.51689 3.75 6.63658 3.75 6.79395V17.6328C3.75 17.7371 3.81436 17.8286 3.9082 17.8652L3.9502 17.877L3.95312 17.8779L4.10352 17.9082C6.65574 18.4192 9.29054 18.3563 11.8164 17.7256L12.0527 17.666L12.0557 17.665L12.541 17.5508C14.8149 17.0492 17.1643 16.9935 19.46 17.3867L19.9512 17.4775L20.0088 17.4824C20.14 17.4784 20.25 17.3703 20.25 17.2324V6.39356C20.2498 6.27482 20.1668 6.17241 20.0479 6.14844L19.6562 6.07032Z" fill="#555555"/>
</svg>
