<svg width="24" height="24" viewBox="0 0 24 24" fill="none" xmlns="http://www.w3.org/2000/svg">
<path d="M7.05671 18.5803C6.29315 18.5803 5.67379 19.1988 5.67367 19.9623C5.67367 19.9881 5.67549 20.014 5.67688 20.0394C5.67999 20.0652 5.68265 20.0912 5.68331 20.1176C5.76045 20.8082 6.34555 21.3453 7.05671 21.3453C7.68252 21.3453 8.21043 20.9291 8.38082 20.3587C8.35124 20.2738 8.33262 20.1836 8.33262 20.0887C8.33262 19.9593 8.36399 19.8377 8.41725 19.7288C8.30603 19.0767 7.74047 18.5804 7.05671 18.5803ZM16.4027 18.5803C15.6391 18.5804 15.0197 19.1988 15.0196 19.9623C15.026 20.0035 15.0303 20.0457 15.0303 20.0887C15.0303 20.0977 15.0285 20.1066 15.0282 20.1155C15.1043 20.8071 15.6907 21.3453 16.4027 21.3453C17.1663 21.3453 17.7857 20.7259 17.7857 19.9623C17.7856 19.1988 17.1662 18.5803 16.4027 18.5803ZM14.8579 15.6075V10.6742C14.8425 10.6113 14.8321 10.5458 14.8321 10.4782C14.8322 10.4104 14.8424 10.3451 14.8579 10.2821V8.80372C14.8579 8.65307 14.8287 8.50367 14.7711 8.36449C14.7135 8.22545 14.6289 8.09921 14.5225 7.99275C14.416 7.88623 14.2889 7.80186 14.1497 7.74421C14.0455 7.70106 13.9359 7.67279 13.8241 7.66172L13.7116 7.65637H4.08387C3.77962 7.65637 3.48804 7.77762 3.27291 7.99275C3.05777 8.20789 2.93652 8.49947 2.93652 8.80372V18.169C2.93655 18.4732 3.0578 18.7648 3.27291 18.9799C3.48803 19.195 3.77969 19.3163 4.08387 19.3163H4.09994C4.39617 17.9546 5.60625 16.9348 7.05671 16.9348C8.48907 16.9349 9.68568 17.9297 10.0006 19.266H13.4587C13.7737 17.9297 14.9703 16.9348 16.4027 16.9348C17.8216 16.9348 19.0085 17.9113 19.3369 19.2285H21.0628V14.9358L21.0499 14.7847C21.025 14.636 20.9651 14.4944 20.8742 14.3723L18.6631 11.4316L18.6095 11.377C18.5895 11.3608 18.5675 11.3465 18.5442 11.3352C18.4979 11.3127 18.4467 11.3009 18.3953 11.3009H16.5034V15.6075C16.5034 16.0619 16.135 16.4302 15.6806 16.4302C15.2264 16.43 14.8579 16.0617 14.8579 15.6075ZM16.5034 9.6554H18.3942L18.6181 9.66825C18.8415 9.69343 19.0598 9.75707 19.263 9.85573C19.466 9.9543 19.6505 10.086 19.8083 10.2457L19.9572 10.4149L19.9679 10.4289L22.1898 13.3835L22.1908 13.3856L22.3087 13.556C22.5664 13.965 22.7052 14.4399 22.7083 14.9262V19.8541C22.7083 20.1246 22.6006 20.3838 22.4094 20.5751C22.2182 20.7663 21.9588 20.874 21.6884 20.874H19.2909C18.904 22.1009 17.7574 22.9908 16.4027 22.9908C15.062 22.9908 13.9267 22.1187 13.5284 20.9115H9.92991C9.53148 22.1185 8.39727 22.9908 7.05671 22.9908C5.73486 22.9908 4.6138 22.1427 4.20064 20.9618H4.08387C3.34328 20.9618 2.6332 20.667 2.10948 20.1433C1.58578 19.6196 1.29105 18.9096 1.29102 18.169V8.80372C1.29102 8.06306 1.58575 7.35306 2.10948 6.82933C2.63321 6.3056 3.34321 6.01086 4.08387 6.01086H13.7116L13.9848 6.02479C14.2575 6.05165 14.5255 6.11775 14.7797 6.22298C15.1185 6.36333 15.4266 6.57001 15.686 6.82933C15.9451 7.08853 16.151 7.39597 16.2912 7.73457C16.4316 8.0734 16.5034 8.43698 16.5034 8.80372V9.6554Z" fill="#555555"/>
<g clip-path="url(#clip0_11507_25226)">
<circle cx="7.93892" cy="6.4427" r="4.83306" fill="white" stroke="#555555" stroke-width="1.2"/>
<path d="M10.0803 6.71175C10.0913 6.62355 10.0969 6.5337 10.0969 6.44251C10.0969 5.25292 9.13259 4.28857 7.943 4.28857C7.26974 4.28857 6.66863 4.59747 6.27364 5.08127M6.27364 5.08127V4.28857M6.27364 5.08127V5.09628L7.08137 5.0963M5.80573 6.17327C5.79473 6.26147 5.78906 6.35132 5.78906 6.44251C5.78906 7.6321 6.75341 8.59645 7.943 8.59645C8.58633 8.59645 9.16377 8.31442 9.55845 7.86723M9.55845 7.86723V7.78872H8.75072M9.55845 7.86723V8.59645" stroke="#555555" stroke-width="0.9" stroke-linecap="round" stroke-linejoin="round"/>
</g>
<defs>
<clipPath id="clip0_11507_25226">
<rect width="10.8661" height="10.8661" fill="white" transform="translate(2.50586 1.00928)"/>
</clipPath>
</defs>
</svg>
