<svg width="24" height="24" viewBox="0 0 24 24" fill="none" xmlns="http://www.w3.org/2000/svg">
<g opacity="0.9">
<path d="M6.72235 11.0557C7.01692 10.8158 7.45179 10.833 7.72626 11.1075C8.00051 11.382 8.01793 11.8169 7.77802 12.1114L7.72626 12.168L5.50653 14.3877C4.16427 15.7301 4.16435 17.9066 5.50653 19.2491C6.84881 20.5913 9.02468 20.5914 10.3669 19.2491L12.5866 17.0293C12.8795 16.7367 13.3553 16.7366 13.6481 17.0293C13.9404 17.322 13.9403 17.7971 13.6481 18.0899L11.4274 20.3096C9.49943 22.2377 6.37404 22.2376 4.44598 20.3096C2.51803 18.3814 2.51798 15.2554 4.44598 13.3272L6.66571 11.1075L6.72235 11.0557Z" fill="#555555"/>
<path d="M4.7077 4.71C4.98221 4.43564 5.41709 4.41827 5.71161 4.65824L5.76825 4.71L20.0417 18.9844L20.0925 19.0411C20.3328 19.3356 20.3152 19.7704 20.0407 20.045C19.7478 20.3375 19.2729 20.3377 18.9802 20.045L4.7077 5.77055L4.65595 5.71391C4.41595 5.41933 4.43322 4.98449 4.7077 4.71Z" fill="#555555"/>
<path d="M10.0007 13.6993C10.2952 13.4591 10.73 13.4765 11.0046 13.751C11.2789 14.0256 11.2965 14.4604 11.0563 14.7549L11.0046 14.8116L9.10126 16.7149C8.80841 17.0077 8.3336 17.0076 8.04071 16.7149C7.74782 16.422 7.74786 15.9472 8.04071 15.6543L9.94403 13.751L10.0007 13.6993Z" fill="#555555"/>
<path d="M13.5134 4.27055C15.4514 2.51978 18.4435 2.57768 20.3112 4.44535C22.2388 6.37337 22.2386 9.49962 20.3112 11.4278L18.0915 13.6475C17.7986 13.9401 17.3238 13.9402 17.0309 13.6475C16.7383 13.3547 16.7383 12.8798 17.0309 12.587L19.2507 10.3672L19.3718 10.2393C20.5907 8.89 20.5507 6.80636 19.2507 5.5059C17.9504 4.20571 15.8665 4.16495 14.5173 5.38383L14.3893 5.5059L12.1696 7.72563C11.8767 8.01828 11.4019 8.01839 11.1091 7.72563C10.8165 7.4328 10.8165 6.95791 11.1091 6.66508L13.3288 4.44535L13.5134 4.27055Z" fill="#555555"/>
<path d="M15.7106 7.9893C16.0051 7.74931 16.44 7.76672 16.7145 8.04106C16.9889 8.31558 17.0063 8.75045 16.7663 9.04496L16.7145 9.1016L14.8112 11.0049C14.5183 11.2975 14.0435 11.2976 13.7507 11.0049C13.458 10.7121 13.4581 10.2372 13.7507 9.94438L15.654 8.04106L15.7106 7.9893Z" fill="#555555"/>
</g>
</svg>
