<svg width="24" height="24" viewBox="0 0 24 24" fill="none" xmlns="http://www.w3.org/2000/svg">
<path d="M1.57809 16.5776C1.49044 16.8972 1.15938 17.0852 0.839813 16.9976C0.520558 16.9097 0.332374 16.5796 0.419891 16.2603L1.57809 16.5776ZM9.52341 16.2603C9.61102 16.5798 9.423 16.9099 9.10348 16.9976C8.78392 17.0852 8.45384 16.8972 8.36618 16.5776L9.52341 16.2603ZM14.8213 16.5776C14.7336 16.8972 14.4025 17.0852 14.083 16.9976C13.7637 16.9097 13.5755 16.5796 13.6631 16.2603L14.8213 16.5776ZM22.7666 16.2603C22.8542 16.5798 22.6662 16.9099 22.3466 16.9976C22.0271 17.0852 21.697 16.8972 21.6093 16.5776L22.7666 16.2603ZM6.57907 9.78857C6.57901 8.90102 5.85921 8.18115 4.97165 8.18115C4.08418 8.18126 3.36429 8.90109 3.36423 9.78857C3.36423 10.6761 4.08414 11.3959 4.97165 11.396C5.85925 11.396 6.57907 10.6762 6.57907 9.78857ZM19.8222 9.78857C19.8222 8.90103 19.1024 8.18115 18.2148 8.18115C17.3273 8.18126 16.6075 8.90109 16.6074 9.78857C16.6074 10.6761 17.3273 11.3959 18.2148 11.396C19.1024 11.396 19.8222 10.6762 19.8222 9.78857ZM13.7168 10.9731L13.7187 10.9741L13.8105 11.105C13.8885 11.2418 13.9257 11.3951 13.9257 11.5444C13.9257 11.546 13.9248 11.5478 13.9248 11.5493C13.9248 11.5508 13.9257 11.5527 13.9257 11.5542C13.9257 11.5671 13.9217 11.5796 13.9209 11.5923C13.911 11.7765 13.8482 11.9638 13.7187 12.1157L13.7168 12.1167L12.8105 13.1753L12.7216 13.2593C12.5013 13.4301 12.1838 13.4283 11.9638 13.2397C11.7125 13.024 11.6838 12.6455 11.8994 12.394L12.1054 12.1538H9.86032C9.52914 12.1537 9.26092 11.8854 9.26071 11.5542C9.26071 11.2229 9.52901 10.9537 9.86032 10.9536H12.1201L11.9228 10.7241L12.3789 10.3335L12.834 9.94287L13.7168 10.9731ZM11.9882 9.87744C12.2398 9.6619 12.6183 9.69139 12.834 9.94287L11.9228 10.7241C11.7072 10.4725 11.7367 10.0931 11.9882 9.87744ZM7.77927 9.78857C7.77927 10.619 7.41589 11.3625 6.84274 11.8765C7.89514 12.4388 8.76352 13.4919 9.17477 14.9888L9.52341 16.2603L8.9443 16.4185L8.36618 16.5776L8.01755 15.3062C7.50421 13.4382 6.19372 12.6021 4.97165 12.6021C3.82593 12.6021 2.60251 13.3371 2.03122 14.9683L1.92673 15.3062L1.57809 16.5776L0.998992 16.4185L0.419891 16.2603L0.7695 14.9888L0.832 14.7739C1.26469 13.3906 2.09934 12.4115 3.10055 11.8765C2.52754 11.3625 2.16501 10.6189 2.16501 9.78857C2.16507 8.23835 3.42143 6.98204 4.97165 6.98193C6.52195 6.98193 7.77921 8.23828 7.77927 9.78857ZM21.0224 9.78857C21.0224 10.619 20.6591 11.3625 20.0859 11.8765C21.1383 12.4388 22.0067 13.4919 22.4179 14.9888L22.7666 16.2603L22.1875 16.4185L21.6093 16.5776L21.2607 15.3062C20.7474 13.4382 19.4369 12.6021 18.2148 12.6021C17.0691 12.6021 15.8457 13.3371 15.2744 14.9683L15.1699 15.3062L14.8213 16.5776L14.2422 16.4185L13.6631 16.2603L14.0127 14.9888L14.0752 14.7739C14.5079 13.3906 15.3425 12.4115 16.3437 11.8765C15.7707 11.3625 15.4082 10.6189 15.4082 9.78857C15.4082 8.23835 16.6646 6.98204 18.2148 6.98193C19.7651 6.98193 21.0224 8.23828 21.0224 9.78857Z" fill="#555555"/>
</svg>
