<svg width="24" height="24" viewBox="0 0 24 24" fill="none" xmlns="http://www.w3.org/2000/svg">
<path d="M14.958 10.3936C15.2542 10.1043 15.7291 10.1094 16.0186 10.4053C16.3079 10.7015 16.3028 11.1764 16.0068 11.4658L11.1377 16.2227C10.8464 16.507 10.3812 16.5069 10.0899 16.2227L8.18263 14.3604L8.12989 14.3037C7.88636 14.0121 7.89799 13.5776 8.16896 13.2998C8.44032 13.0218 8.87539 12.9993 9.17286 13.2363L9.2295 13.2871L10.6133 14.6377L14.958 10.3936Z" fill="#555555"/>
<path fill-rule="evenodd" clip-rule="evenodd" d="M11.6182 2.29981C11.888 1.81821 12.3379 1.99993 12.4551 2.26758C12.5055 2.38316 12.8051 2.96351 12.959 3.30665C12.9687 3.32412 12.9783 3.34241 12.9883 3.36036C13.7019 4.64434 14.858 5.65338 16.1436 6.11622C17.0727 6.45065 18.1096 6.54627 19.1699 6.39551C19.2865 6.37894 19.4274 6.3588 19.4834 6.35059L19.585 6.33594L19.625 6.46192C19.6765 6.62602 19.7748 7.11263 19.8311 7.4795C20.003 8.60169 20.0523 10.5967 19.9395 11.8887C19.7885 13.6169 19.4279 15.1192 18.8174 16.5674C17.5969 19.4619 15.5139 21.4238 13.1611 21.8936C12.7207 21.9815 12.5135 22 11.9961 22C11.7078 22 11.4145 21.9879 11.294 21.9717C10.4271 21.8547 9.6435 21.5818 8.88771 21.1328C6.35386 19.6273 4.57428 16.3911 4.10743 12.4385C4.01684 11.6715 3.99949 11.3174 4.00001 10.2539C4.00061 8.99878 4.03516 8.37656 4.15138 7.54688C4.20037 7.19721 4.31628 6.60388 4.37208 6.41602L4.39747 6.33106L4.48536 6.33692L5.07423 6.41602C7.23782 6.66269 9.07118 5.95287 10.4131 4.34962C10.7439 3.95428 10.988 3.58429 11.2578 3.07129C11.3403 2.86533 11.4659 2.57197 11.6182 2.29981ZM11.9229 5.11426C11.7394 5.38116 11.1787 6.03517 10.9346 6.26758C9.95952 7.19551 8.90883 7.78693 7.70509 8.08497C7.13323 8.22652 6.65088 8.28794 6.00392 8.30176L5.6172 8.31055L5.60548 8.42481C5.53664 9.07308 5.52037 10.9829 5.57814 11.6367C5.66692 12.6409 5.81123 13.4591 6.04884 14.3057C6.89709 17.3274 8.67668 19.4503 10.8447 20.0264C11.2432 20.1322 11.4616 20.1568 11.9961 20.1572C12.5228 20.1576 12.6313 20.1461 13.0762 20.04C14.8961 19.6062 16.5064 18.0005 17.4736 15.6563C17.9313 14.5467 18.2261 13.3657 18.3643 12.0869C18.4367 11.4167 18.4467 11.1803 18.4453 10.168C18.4441 9.28783 18.4349 8.98375 18.3906 8.4502L18.3789 8.31837L18.0176 8.30372C17.0663 8.26581 16.3103 8.11698 15.541 7.81641C14.2612 7.31632 13.1334 6.431 12.2617 5.24219C12.143 5.08024 12.0434 4.94825 12.041 4.94825C12.0359 4.95238 11.9838 5.02554 11.9229 5.11426Z" fill="#555555"/>
</svg>
