<svg width="24" height="24" viewBox="0 0 24 24" fill="none" xmlns="http://www.w3.org/2000/svg">
<path fill-rule="evenodd" clip-rule="evenodd" d="M8.84231 4.40709L6.13865 3.6956C4.65743 3.30581 3.30572 4.65752 3.69552 6.13874L4.40701 8.84241L1.99226 10.251C0.669246 11.0228 0.669248 12.9344 1.99226 13.7061L4.40701 15.1147L3.69553 17.8184C3.30573 19.2996 4.65744 20.6513 6.13866 20.2615L8.84229 19.55L10.251 21.9649C11.0227 23.2879 12.9343 23.2879 13.7061 21.9649L15.1147 19.5501L17.8183 20.2615C19.2995 20.6513 20.6512 19.2996 20.2614 17.8184L19.55 15.1148L21.9649 13.7061C23.2879 12.9344 23.2879 11.0228 21.9649 10.251L19.55 8.84231L20.2614 6.13871C20.6512 4.65749 19.2995 3.30578 17.8183 3.69558L15.1147 4.40705L13.7061 1.99226C12.9343 0.669246 11.0227 0.669247 10.251 1.99226L8.84231 4.40709Z" fill="#555555"/>
<path d="M10.8064 14.9965C10.6194 14.9935 10.4404 14.9275 10.3052 14.8116L7.22718 12.1774C7.15699 12.1177 7.10076 12.046 7.06178 11.9666C7.0228 11.8871 7.00183 11.8016 7.00012 11.7148C6.9984 11.6281 7.01595 11.5419 7.05176 11.4613C7.08757 11.3807 7.14092 11.3072 7.2087 11.2453C7.34639 11.1195 7.53376 11.0472 7.73037 11.0441C7.92699 11.041 8.11708 11.1073 8.25961 11.2287L10.8003 13.4021L15.6907 8.23365C15.8184 8.10056 15.9991 8.01758 16.1943 8.00249C16.3894 7.9874 16.5834 8.0414 16.7346 8.15293C16.8093 8.20816 16.8709 8.27614 16.916 8.3529C16.961 8.42967 16.9886 8.51369 16.9972 8.60009C17.0057 8.6865 16.995 8.77355 16.9656 8.85621C16.9363 8.93887 16.8889 9.01548 16.8263 9.0816L11.4508 14.7647C11.3807 14.8387 11.2933 14.8981 11.1949 14.9387C11.0966 14.9793 10.9895 15.0002 10.8811 15C10.8562 15 10.8313 14.9988 10.8064 14.9965Z" fill="white"/>
</svg>
