<svg width="24" height="24" viewBox="0 0 24 24" fill="none" xmlns="http://www.w3.org/2000/svg">
<path d="M14.3252 13.4785L14.3311 13.4795C14.8302 13.5211 15.2246 13.9377 15.2246 14.4502C15.2245 14.9885 14.7883 15.4247 14.25 15.4248C13.7453 15.4248 13.3303 15.0413 13.2803 14.5498L13.2744 14.4502C13.2734 13.9375 13.6682 13.523 14.165 13.4805C14.1926 13.4774 14.2206 13.4746 14.249 13.4746L14.3252 13.4785Z" fill="#555555"/>
<path d="M13.6572 9.4834C13.9501 9.19051 14.4249 9.19051 14.7178 9.4834C15.0102 9.77633 15.0105 10.2512 14.7178 10.5439L10.2178 15.0439C9.92504 15.3367 9.45016 15.3364 9.15723 15.0439C8.86434 14.7511 8.86434 14.2763 9.15723 13.9834L13.6572 9.4834Z" fill="#555555"/>
<path d="M9.8252 8.97852L9.83105 8.97949C10.3302 9.02115 10.7246 9.43768 10.7246 9.9502C10.7245 10.4885 10.2883 10.9247 9.75 10.9248C9.2453 10.9248 8.83029 10.5413 8.78027 10.0498L8.77441 9.9502C8.77339 9.43752 9.16823 9.02303 9.66504 8.98047C9.6926 8.9774 9.72064 8.97461 9.74902 8.97461L9.8252 8.97852Z" fill="#555555"/>
<path fill-rule="evenodd" clip-rule="evenodd" d="M20.0996 4.25C21.1015 4.25 21.7499 5.14362 21.75 6.02832V8.87109C21.75 9.25161 21.5631 9.64827 21.1934 9.86621L21.1943 9.86719L21.1553 9.89062L21.1533 9.89258C20.4444 10.3128 19.9502 11.1883 19.9502 12.2002C19.9503 13.225 20.4568 14.1083 21.1777 14.5225C21.18 14.5237 21.1823 14.5251 21.1846 14.5264C21.5608 14.743 21.75 15.1445 21.75 15.5283V18.3711C21.75 19.2559 21.1016 20.1504 20.0996 20.1504H3.90039C2.89844 20.1504 2.25 19.2559 2.25 18.3711V15.5283C2.25004 15.1445 2.43924 14.743 2.81543 14.5264L3.14551 15.0996L2.81836 14.5254C3.54209 14.1121 4.04974 13.2277 4.0498 12.2002C4.0498 11.1729 3.54088 10.2874 2.81738 9.87402L3.18945 9.22363L2.81543 9.87305C2.43935 9.65636 2.25 9.25486 2.25 8.87109V6.02832C2.25012 5.14362 2.89853 4.25 3.90039 4.25H20.0996ZM3.90039 5.75C3.89445 5.75 3.86672 5.7509 3.82812 5.79492C3.78822 5.84053 3.75006 5.9211 3.75 6.02832V8.68848C4.88476 9.43287 5.5498 10.7823 5.5498 12.2002C5.54974 13.6174 4.8853 14.9653 3.75 15.71V18.3711C3.75 18.4783 3.78824 18.5588 3.82812 18.6045C3.8668 18.6487 3.89444 18.6504 3.90039 18.6504H20.0996C20.1056 18.6504 20.1332 18.6487 20.1719 18.6045C20.2118 18.5588 20.25 18.4783 20.25 18.3711V15.7109C19.1148 14.9663 18.4503 13.6167 18.4502 12.2002C18.4502 10.7838 19.1139 9.43449 20.25 8.68945V6.02832C20.2499 5.9211 20.2118 5.84053 20.1719 5.79492C20.1333 5.7509 20.1056 5.75 20.0996 5.75H3.90039Z" fill="#555555"/>
</svg>
