<svg width="24" height="24" viewBox="0 0 24 24" fill="none" xmlns="http://www.w3.org/2000/svg">
<path d="M17.9524 2.50179C18.3702 2.83027 18.639 3.32875 18.7495 3.84377C18.7534 3.91676 18.755 3.98989 18.7548 4.06299C18.7548 4.10614 18.7548 4.1493 18.7548 4.19376C18.7545 4.23996 18.7543 4.28616 18.754 4.33376C18.7539 4.40515 18.7539 4.40515 18.7538 4.47798C18.7536 4.62986 18.753 4.78173 18.7524 4.93361C18.7522 5.03664 18.7519 5.13966 18.7518 5.24269C18.7512 5.49513 18.7505 5.74757 18.7495 6.00002C18.7976 5.9995 18.7976 5.9995 18.8467 5.99898C18.8888 5.99871 18.9309 5.99845 18.9743 5.99817C19.0161 5.99783 19.0578 5.99749 19.1008 5.99714C19.6186 6.00983 20.0598 6.33186 20.4253 6.67091C20.9121 7.18532 21.02 7.75556 21.0235 8.44228C21.0247 8.53492 21.0247 8.53492 21.026 8.62944C21.0282 8.79203 21.0296 8.95462 21.0309 9.11722C21.0323 9.28379 21.0344 9.45034 21.0365 9.6169C21.0406 9.94251 21.0437 10.2681 21.0463 10.5938C21.0786 10.6095 21.1108 10.6253 21.1441 10.6416C21.1863 10.6624 21.2286 10.6833 21.2722 10.7048C21.3141 10.7254 21.356 10.746 21.3992 10.7672C21.9202 11.0411 22.2856 11.5589 22.4612 12.1092C22.5394 12.461 22.5262 12.819 22.5244 13.1778C22.5245 13.2639 22.5247 13.35 22.5249 13.4361C22.5252 13.6158 22.5248 13.7954 22.5239 13.9751C22.5228 14.2039 22.5235 14.4327 22.5246 14.6616C22.5253 14.8391 22.525 15.0167 22.5246 15.1943C22.5244 15.2786 22.5246 15.363 22.525 15.4473C22.5283 16.2434 22.3851 16.8259 21.8286 17.4258C21.6074 17.6374 21.3369 17.8094 21.0463 17.9063C21.0462 17.9403 21.046 17.9742 21.0458 18.0093C21.044 18.3319 21.0414 18.6546 21.0377 18.9772C21.0359 19.1431 21.0344 19.3089 21.0336 19.4747C21.0328 19.666 21.0304 19.8573 21.028 20.0486C21.028 20.1072 21.0279 20.1658 21.0279 20.2262C21.0166 20.9139 20.7943 21.4238 20.3286 21.9258C19.8143 22.4125 19.2472 22.5214 18.5606 22.5182C18.4948 22.5184 18.4291 22.5186 18.3634 22.519C18.1838 22.5196 18.0042 22.5194 17.8247 22.5191C17.6306 22.5189 17.4365 22.5194 17.2424 22.5199C16.8626 22.5207 16.4828 22.5208 16.103 22.5205C15.7941 22.5203 15.4853 22.5204 15.1765 22.5207C15.1105 22.5207 15.1105 22.5207 15.0431 22.5208C14.9537 22.5208 14.8643 22.5209 14.7749 22.521C13.9371 22.5216 13.0992 22.5214 12.2613 22.5208C11.4955 22.5204 10.7296 22.521 9.96372 22.5221C9.17657 22.5232 8.38943 22.5237 7.60229 22.5234C7.16067 22.5232 6.71905 22.5233 6.27742 22.5241C5.90147 22.5248 5.52553 22.5249 5.14958 22.524C4.95793 22.5236 4.76629 22.5235 4.57463 22.5243C4.39888 22.5249 4.22315 22.5247 4.0474 22.5238C3.95436 22.5235 3.86132 22.5242 3.76827 22.5249C3.08243 22.5193 2.57357 22.2929 2.07369 21.8291C1.6249 21.3549 1.47759 20.8134 1.4813 20.175C1.48104 20.1222 1.48079 20.0694 1.48053 20.0149C1.47986 19.8389 1.48019 19.6629 1.48053 19.4869C1.48026 19.3602 1.47994 19.2336 1.47955 19.107C1.47875 18.7994 1.47871 18.4918 1.47895 18.1841C1.47914 17.934 1.47907 17.6838 1.47882 17.4336C1.47879 17.3979 1.47875 17.3622 1.47872 17.3255C1.47865 17.253 1.47857 17.1805 1.4785 17.108C1.47786 16.4289 1.47811 15.7499 1.47865 15.0708C1.47912 14.4504 1.47851 13.8301 1.47739 13.2097C1.47624 12.5717 1.4758 11.9337 1.47611 11.2957C1.47627 10.938 1.47617 10.5802 1.47534 10.2224C1.47465 9.9178 1.47463 9.61322 1.47544 9.30864C1.47584 9.15344 1.47584 8.99826 1.47522 8.84306C1.4746 8.67433 1.47515 8.50564 1.47597 8.33691C1.47552 8.28853 1.47507 8.24015 1.47461 8.1903C1.48124 7.52851 1.74911 7.02877 2.19087 6.5508C2.49649 6.26206 2.81816 6.10507 3.22908 6.02089C3.85785 5.88167 4.4687 5.67231 5.08181 5.47712C5.26302 5.41951 5.44434 5.36224 5.62566 5.30495C5.89027 5.22131 6.15484 5.13758 6.41939 5.05373C6.88401 4.90648 7.34885 4.75995 7.81386 4.61391C7.84743 4.60336 7.881 4.59282 7.91559 4.58196C8.08445 4.52893 8.25331 4.47591 8.42217 4.4229C8.72761 4.32702 9.03302 4.23102 9.33842 4.13502C9.44069 4.10288 9.54296 4.07074 9.64522 4.0386C10.1731 3.8727 10.7009 3.70673 11.2288 3.54073C11.6132 3.41983 11.9977 3.29897 12.3822 3.17822C12.4157 3.16772 12.4491 3.15721 12.4836 3.14638C12.6164 3.10467 12.7492 3.06296 12.8821 3.02126C13.2784 2.89683 13.6746 2.77211 14.0707 2.64698C14.2811 2.58055 14.4915 2.51431 14.702 2.4481C14.7971 2.41811 14.8923 2.38803 14.9874 2.35787C15.1161 2.31705 15.2449 2.27654 15.3737 2.2361C15.4101 2.22448 15.4465 2.21286 15.4839 2.20089C16.3819 1.92067 17.1586 1.95651 17.9524 2.50179ZM16.0905 3.638C16.012 3.66308 16.012 3.66308 15.9319 3.68866C15.8469 3.71649 15.8469 3.71649 15.7601 3.74489C15.6994 3.76443 15.6386 3.78393 15.5778 3.8034C15.4474 3.84527 15.3171 3.88737 15.1868 3.92967C14.9798 3.99684 14.7727 4.06345 14.5655 4.12993C14.5131 4.14676 14.5131 4.14676 14.4595 4.16394C14.3882 4.18683 14.3168 4.20972 14.2455 4.23261C14.1366 4.26754 14.0278 4.30252 13.919 4.33751C13.2003 4.56844 12.48 4.79411 11.7592 5.01865C11.6675 5.04724 11.5757 5.07585 11.484 5.10446C11.1961 5.19425 10.9082 5.28399 10.6203 5.37368C10.2226 5.49758 9.8251 5.6218 9.42757 5.74605C9.37726 5.76177 9.37726 5.76177 9.32593 5.77782C9.13898 5.83625 8.95204 5.89469 8.76509 5.95314C8.76509 5.96861 8.76509 5.98408 8.76509 6.00002C11.5649 6.00002 14.3648 6.00002 17.2495 6.00002C17.3616 4.97692 17.3616 4.97692 17.0503 3.80568C16.7276 3.54905 16.4797 3.51202 16.0905 3.638ZM3.1899 7.76955C2.99018 8.08425 2.98583 8.37951 2.98725 8.7422C2.98707 8.79119 2.98689 8.84017 2.9867 8.89064C2.98622 9.05448 2.98641 9.2183 2.98659 9.38213C2.98639 9.49972 2.98615 9.61731 2.98587 9.7349C2.98531 10.021 2.98519 10.307 2.9853 10.5931C2.98538 10.8257 2.9853 11.0583 2.9851 11.2909C2.98507 11.324 2.98504 11.3572 2.98501 11.3913C2.98496 11.4586 2.9849 11.526 2.98484 11.5933C2.98433 12.2243 2.98443 12.8554 2.98472 13.4864C2.98496 14.0632 2.98443 14.6401 2.98354 15.2169C2.98263 15.8097 2.98225 16.4025 2.98242 16.9953C2.98251 17.3279 2.9824 17.6605 2.98173 17.9931C2.98112 18.3059 2.98123 18.6187 2.98185 18.9315C2.98196 19.0462 2.98183 19.1609 2.98144 19.2756C2.98095 19.4324 2.98133 19.5892 2.98193 19.7459C2.98158 19.7912 2.98123 19.8364 2.98088 19.883C2.98325 20.1813 3.00603 20.5046 3.19985 20.7464C3.529 21.047 3.93875 21.0135 4.35555 21.0122C4.41678 21.0124 4.47802 21.0126 4.54111 21.0128C4.71058 21.0133 4.88004 21.0132 5.04951 21.013C5.23248 21.0128 5.41545 21.0133 5.59841 21.0136C5.95667 21.0142 6.31493 21.0143 6.67319 21.0142C6.96443 21.0141 7.25567 21.0142 7.5469 21.0144C7.58837 21.0144 7.62983 21.0144 7.67255 21.0145C7.75679 21.0145 7.84103 21.0146 7.92526 21.0146C8.7151 21.0152 9.50494 21.015 10.2948 21.0148C11.0171 21.0145 11.7394 21.015 12.4618 21.0159C13.2037 21.0168 13.9457 21.0172 14.6876 21.0171C15.1041 21.017 15.5205 21.0171 15.937 21.0177C16.2915 21.0183 16.646 21.0184 17.0005 21.0178C17.1813 21.0175 17.3622 21.0175 17.543 21.018C17.7391 21.0186 17.9353 21.0182 18.1315 21.0176C18.2169 21.0181 18.2169 21.0181 18.3039 21.0186C18.6286 21.0165 18.9806 21.0132 19.2455 20.7996C19.529 20.4912 19.5126 20.1181 19.5086 19.7258C19.5085 19.6763 19.5084 19.6268 19.5082 19.5759C19.5077 19.4187 19.5065 19.2616 19.5053 19.1045C19.5049 18.9976 19.5044 18.8907 19.504 18.7838C19.503 18.5225 19.5014 18.2613 19.4995 18C19.434 17.9998 19.434 17.9998 19.3672 17.9995C18.9528 17.9978 18.5384 17.995 18.1241 17.9914C17.9111 17.9896 17.6982 17.988 17.4852 17.9873C17.2791 17.9866 17.0731 17.985 16.867 17.9827C16.789 17.9821 16.7109 17.9817 16.6329 17.9816C15.9809 17.981 15.3795 17.8987 14.7944 17.5869C14.7633 17.5709 14.7321 17.5548 14.7 17.5383C14.4495 17.4055 14.2294 17.2481 14.0151 17.0625C13.9774 17.0341 13.9398 17.0056 13.901 16.9763C13.4621 16.6068 13.1867 16.0897 12.9838 15.5625C12.9533 15.4843 12.9533 15.4843 12.9221 15.4045C12.6166 14.4666 12.738 13.4191 13.1626 12.5449C13.3083 12.2596 13.4769 12.0083 13.687 11.7656C13.7297 11.7092 13.7297 11.7092 13.7732 11.6516C14.2994 11.0264 15.1883 10.6253 15.9908 10.5356C16.2431 10.5181 16.4955 10.5185 16.7483 10.5183C16.8282 10.5176 16.9081 10.5168 16.9881 10.516C17.1959 10.514 17.4037 10.513 17.6115 10.5123C17.8246 10.5114 18.0377 10.5094 18.2508 10.5075C18.667 10.504 19.0832 10.5016 19.4995 10.5C19.5031 10.1873 19.5055 9.87461 19.5072 9.56189C19.5079 9.45564 19.5089 9.34939 19.5101 9.24315C19.5118 9.08989 19.5126 8.93666 19.5132 8.7834C19.5139 8.73636 19.5147 8.68932 19.5154 8.64086C19.5155 8.33372 19.4995 8.00334 19.2991 7.7537C18.9703 7.45287 18.56 7.4865 18.1434 7.4878C18.0822 7.48762 18.0209 7.48744 17.9578 7.48725C17.7884 7.48677 17.6189 7.48687 17.4494 7.48707C17.2665 7.48719 17.0835 7.48677 16.9005 7.48642C16.5423 7.48582 16.184 7.48573 15.8257 7.48584C15.5345 7.48593 15.2433 7.48585 14.952 7.48565C14.9106 7.48562 14.8691 7.48559 14.8264 7.48556C14.7421 7.4855 14.6579 7.48545 14.5737 7.48539C13.7838 7.48488 12.994 7.48498 12.2042 7.48527C11.4818 7.48551 10.7595 7.48498 10.0372 7.48409C9.29522 7.48318 8.55327 7.4828 7.81131 7.48297C7.39487 7.48306 6.97843 7.48294 6.56198 7.48228C6.20745 7.48172 5.85293 7.48166 5.4984 7.48223C5.31759 7.4825 5.13678 7.48255 4.95597 7.48199C4.75979 7.48139 4.56363 7.48188 4.36745 7.48247C4.31054 7.48213 4.25363 7.48178 4.19499 7.48143C3.83774 7.48371 3.4479 7.48897 3.1899 7.76955ZM14.8003 12.8115C14.3547 13.3325 14.254 13.9056 14.2874 14.5698C14.3354 15.118 14.658 15.5862 15.0493 15.9566C15.7301 16.5166 16.5082 16.5077 17.3461 16.5095C17.3866 16.5097 17.4271 16.5098 17.4688 16.5099C17.6826 16.5106 17.8964 16.5111 18.1103 16.5113C18.3302 16.5115 18.55 16.5127 18.7699 16.514C18.94 16.5149 19.1101 16.5151 19.2802 16.5152C19.3612 16.5153 19.4422 16.5157 19.5233 16.5163C20.1694 16.5458 20.1694 16.5458 20.7446 16.2996C21.0619 15.9594 21.0141 15.5094 21.0136 15.0766C21.0138 15.0108 21.014 14.945 21.0142 14.8792C21.0145 14.7417 21.0145 14.6042 21.0143 14.4667C21.014 14.2915 21.0148 14.1163 21.0159 13.9411C21.0166 13.8053 21.0166 13.6696 21.0165 13.5338C21.0165 13.4693 21.0167 13.4047 21.0172 13.3402C21.0315 12.7648 21.0315 12.7648 20.7991 12.2543C20.5383 12.0134 20.2171 11.9859 19.8777 11.9879C19.842 11.9877 19.8064 11.9876 19.7696 11.9874C19.6526 11.987 19.5356 11.9872 19.4185 11.9876C19.3364 11.9875 19.2542 11.9874 19.1721 11.9873C19.0001 11.9872 18.828 11.9874 18.656 11.9878C18.4371 11.9883 18.2182 11.988 17.9993 11.9875C17.8296 11.9871 17.6599 11.9872 17.4902 11.9875C17.4096 11.9875 17.329 11.9875 17.2484 11.9872C16.2778 11.9852 15.4956 12.0745 14.8003 12.8115Z" fill="#555555"/>
<path d="M16.9627 10.4768C17.0653 10.4768 17.168 10.4767 17.2706 10.4766C17.4845 10.4765 17.6984 10.4771 17.9124 10.4782C18.1851 10.4795 18.4577 10.4794 18.7304 10.4788C18.942 10.4784 19.1535 10.4788 19.365 10.4794C19.4655 10.4796 19.566 10.4796 19.6665 10.4794C20.5391 10.4786 21.2349 10.5208 21.9047 11.1475C22.4704 11.7491 22.5215 12.3838 22.5198 13.1686C22.52 13.2549 22.5202 13.3411 22.5205 13.4274C22.5209 13.6076 22.5208 13.7878 22.5204 13.968C22.5198 14.1976 22.5208 14.4271 22.5221 14.6567C22.523 14.8347 22.523 15.0127 22.5227 15.1907C22.5227 15.2753 22.523 15.3598 22.5236 15.4444C22.5283 16.2422 22.3863 16.8246 21.8285 17.4258C21.1617 18.0514 20.3345 18.022 19.4762 18.0204C19.3748 18.0206 19.2733 18.0208 19.1719 18.0211C18.9603 18.0215 18.7487 18.0214 18.5371 18.0209C18.2677 18.0204 17.9984 18.0213 17.729 18.0227C17.5198 18.0236 17.3107 18.0236 17.1015 18.0233C17.0023 18.0233 16.903 18.0236 16.8038 18.0242C16.0858 18.0278 15.4409 17.9784 14.7944 17.6338C14.7476 17.6097 14.7476 17.6097 14.6999 17.5851C14.4495 17.4522 14.2288 17.2958 14.0151 17.1094C13.9697 17.0732 13.9243 17.037 13.8776 16.9997C13.4275 16.6241 13.1442 16.1011 12.9369 15.5625C12.9064 15.4843 12.9064 15.4843 12.8752 15.4045C12.5697 14.4666 12.6911 13.419 13.1157 12.545C13.2614 12.2597 13.4291 12.0075 13.6401 11.7657C13.6763 11.7203 13.7125 11.6749 13.7498 11.6281C14.5561 10.6621 15.7824 10.4699 16.9627 10.4768ZM14.8002 12.8116C14.3547 13.3325 14.254 13.9056 14.2874 14.5698C14.3354 15.118 14.658 15.5863 15.0493 15.9566C15.7301 16.5166 16.5081 16.5077 17.3461 16.5096C17.3866 16.5097 17.427 16.5098 17.4687 16.51C17.6826 16.5107 17.8964 16.5111 18.1103 16.5113C18.3301 16.5115 18.55 16.5127 18.7698 16.514C18.9399 16.5149 19.1101 16.5151 19.2802 16.5152C19.3612 16.5153 19.4422 16.5157 19.5233 16.5163C20.1694 16.5458 20.1694 16.5458 20.7445 16.2996C21.0619 15.9594 21.014 15.5094 21.0135 15.0766C21.0137 15.0108 21.0139 14.945 21.0142 14.8792C21.0145 14.7417 21.0145 14.6042 21.0142 14.4667C21.014 14.2915 21.0148 14.1163 21.0159 13.9411C21.0165 13.8054 21.0166 13.6696 21.0164 13.5338C21.0165 13.4693 21.0167 13.4047 21.0172 13.3402C21.0315 12.7648 21.0315 12.7648 20.7991 12.2543C20.5382 12.0135 20.217 11.9859 19.8776 11.9879C19.842 11.9877 19.8063 11.9876 19.7696 11.9874C19.6526 11.987 19.5356 11.9873 19.4185 11.9876C19.3364 11.9875 19.2542 11.9874 19.1721 11.9873C19 11.9872 18.828 11.9874 18.656 11.9878C18.4371 11.9883 18.2182 11.988 17.9993 11.9875C17.8296 11.9871 17.6599 11.9872 17.4902 11.9875C17.4096 11.9875 17.3289 11.9875 17.2483 11.9873C16.2777 11.9852 15.4956 12.0745 14.8002 12.8116Z" fill="#555555"/>
<path d="M16.7809 13.5C17.0098 13.6063 17.1433 13.7398 17.2496 13.9688C17.2849 14.2313 17.2858 14.4532 17.1734 14.6953C16.959 14.921 16.8133 15.0118 16.4996 15.0235C16.186 15.0118 16.0402 14.921 15.8258 14.6953C15.7134 14.4532 15.7143 14.2313 15.7496 13.9688C15.9595 13.5167 16.319 13.4378 16.7809 13.5Z" fill="#555555"/>
</svg>
