<svg width="24" height="24" viewBox="0 0 24 24" fill="none" xmlns="http://www.w3.org/2000/svg">
<path d="M9.7318 3.9215C10.8444 2.20867 13.4217 2.26563 14.4369 4.09239L21.0375 15.9742L21.1263 16.1471C21.9728 17.9457 20.6654 20.06 18.6341 20.0602H5.432C3.33516 20.0602 2.0094 17.8072 3.0277 15.9742L9.62926 4.09239L9.7318 3.9215ZM13.1254 4.82091C12.6788 4.01769 11.568 3.96766 11.0384 4.67052L10.9398 4.82091L4.33923 16.7027C3.87635 17.536 4.4789 18.5602 5.432 18.5602H18.6341C19.5276 18.56 20.113 17.6599 19.8011 16.8609L19.7269 16.7027L13.1254 4.82091ZM11.2836 15.3092V15.2975C11.2837 14.8835 11.6196 14.5477 12.0336 14.5475C12.4477 14.5475 12.7834 14.8834 12.7836 15.2975V15.3092C12.7834 15.7233 12.4477 16.0592 12.0336 16.0592C11.6196 16.059 11.2837 15.7232 11.2836 15.3092ZM11.2836 12.3111V9.31114C11.2836 8.89707 11.6195 8.56137 12.0336 8.56114C12.4478 8.56114 12.7836 8.89693 12.7836 9.31114V12.3111C12.7836 12.7254 12.4478 13.0611 12.0336 13.0611C11.6195 13.0609 11.2836 12.7252 11.2836 12.3111Z" fill="#555555"/>
</svg>
