<svg width="24" height="24" viewBox="0 0 24 24" fill="none" xmlns="http://www.w3.org/2000/svg">
<g clip-path="url(#clip0_1117_6846)">
<path d="M10.0541 4.24327C11.1666 2.53045 13.744 2.58741 14.7591 4.41417L21.3597 16.296L21.4486 16.4689C22.295 18.2675 20.9877 20.3818 18.9564 20.3819H5.75426C3.65743 20.3819 2.33167 18.129 3.34997 16.296L9.95153 4.41417L10.0541 4.24327ZM13.4476 5.14269C13.0011 4.33947 11.8903 4.28944 11.3607 4.9923L11.2621 5.14269L4.66149 17.0245C4.19861 17.8577 4.80116 18.8819 5.75426 18.8819H18.9564C19.8498 18.8818 20.4352 17.9817 20.1234 17.1827L20.0492 17.0245L13.4476 5.14269ZM11.6058 15.631V15.6193C11.606 15.2053 11.9419 14.8695 12.3558 14.8693C12.7699 14.8693 13.1057 15.2052 13.1058 15.6193V15.631C13.1057 16.0451 12.77 16.381 12.3558 16.381C11.9419 16.3807 11.606 16.0449 11.6058 15.631ZM11.6058 12.6329V9.63292C11.6058 9.21885 11.9418 8.88315 12.3558 8.88292C12.77 8.88292 13.1058 9.21871 13.1058 9.63292V12.6329C13.1058 13.0471 12.77 13.3829 12.3558 13.3829C11.9418 13.3827 11.6058 13.047 11.6058 12.6329Z" fill="#555555"/>
</g>
<defs>
<clipPath id="clip0_1117_6846">
<rect width="24" height="24" fill="white"/>
</clipPath>
</defs>
</svg>
