<svg width="24" height="24" viewBox="0 0 24 24" fill="none" xmlns="http://www.w3.org/2000/svg">
<path fill-rule="evenodd" clip-rule="evenodd" d="M19.0903 4.90261C17.3816 3.20284 15.1106 2.17888 12.6999 2.02132C10.2891 1.86377 7.90304 2.58335 5.98567 4.04614C4.06831 5.50892 2.75033 7.61524 2.27705 9.97302C1.80377 12.3308 2.20745 14.7794 3.41294 16.8631L2 22L7.28385 20.6211C8.74355 21.4109 10.3788 21.8244 12.0403 21.8237C14.0102 21.8227 15.9357 21.2406 17.5733 20.151C19.211 19.0614 20.4874 17.5131 21.2414 15.7018C21.9953 13.8905 22.1928 11.8975 21.8091 9.9745C21.4254 8.05151 20.4776 6.28486 19.0854 4.89774L19.0903 4.90261ZM12.0452 20.1546C10.5627 20.1547 9.10746 19.7581 7.8318 19.0065L7.52945 18.8283L4.39828 19.6463L5.23489 16.606L5.03919 16.2944C4.06384 14.7469 3.63288 12.9207 3.81403 11.1029C3.99519 9.28504 4.77821 7.57867 6.03998 6.25199C7.30176 4.92532 8.97075 4.05357 10.7846 3.77378C12.5984 3.494 14.4543 3.82204 16.0604 4.70634C17.6665 5.59065 18.9318 6.98107 19.6573 8.65903C20.3829 10.337 20.5276 12.2073 20.0687 13.9761C19.6098 15.7448 18.5733 17.3116 17.1222 18.4302C15.671 19.5488 13.8875 20.1557 12.052 20.1556L12.0452 20.1546ZM16.5863 13.9835C16.3378 13.8598 15.1186 13.2609 14.8857 13.1781C14.6529 13.0954 14.4943 13.0545 14.326 13.3018C14.1577 13.5492 13.6832 14.1081 13.5384 14.2756C13.3935 14.4431 13.2448 14.4616 12.9992 14.338C12.2655 14.0471 11.5884 13.6312 10.9982 13.109C10.4541 12.6082 9.98752 12.03 9.61363 11.3931C9.46881 11.1448 9.61363 11.0241 9.72322 10.8877C9.95065 10.6211 10.1577 10.3379 10.3426 10.0405C10.3758 9.97213 10.3913 9.89659 10.3877 9.82074C10.3841 9.74489 10.3616 9.67113 10.3221 9.60617C10.2604 9.48249 9.76236 8.26327 9.55492 7.76662C9.34748 7.26997 9.14787 7.34885 8.99522 7.34106C8.84258 7.33327 8.68407 7.3323 8.5187 7.3323C8.39264 7.33557 8.26862 7.36477 8.15444 7.41806C8.04027 7.47136 7.93841 7.54759 7.85528 7.64197C7.57392 7.90736 7.35117 8.22816 7.20124 8.58394C7.0513 8.93972 6.97747 9.32268 6.98443 9.70842C7.06538 10.6418 7.41799 11.5315 7.99912 12.2686C9.06652 13.8611 10.5316 15.1501 12.2507 16.009C12.714 16.2079 13.1876 16.3822 13.6695 16.531C14.1766 16.6841 14.7127 16.7174 15.2351 16.6284C15.5815 16.5581 15.9097 16.4172 16.1988 16.2146C16.4879 16.012 16.7318 15.752 16.9151 15.451C17.078 15.0808 17.1283 14.6711 17.0599 14.2727C17.0003 14.1695 16.8339 14.1072 16.5854 13.9835H16.5863Z" fill="#555555"/>
</svg>
