<svg width="24" height="24" viewBox="0 0 24 24" fill="none" xmlns="http://www.w3.org/2000/svg">
<path d="M14.9999 9.74999C14.9192 9.74997 14.8423 9.73454 14.7694 9.71093C14.751 9.70496 14.7318 9.70079 14.7138 9.69335C14.6903 9.68361 14.6687 9.67017 14.6464 9.65819C14.5835 9.62434 14.5228 9.58339 14.4696 9.53026C14.4385 9.4991 14.4112 9.46549 14.3866 9.43065C14.3553 9.38608 14.3287 9.33807 14.3075 9.2871C14.2868 9.23711 14.272 9.18538 14.2626 9.1328C14.2549 9.08969 14.2499 9.04532 14.2499 8.99999V4.99999C14.25 4.58588 14.5858 4.25007 14.9999 4.24999C15.4141 4.24999 15.7498 4.58583 15.7499 4.99999V7.18944L20.4696 2.46971C20.7625 2.17688 21.2373 2.17696 21.5302 2.46971C21.8231 2.7626 21.8231 3.23737 21.5302 3.53026L16.8105 8.24999H18.9999C19.4141 8.24999 19.7498 8.58583 19.7499 8.99999C19.7499 9.4142 19.4141 9.74999 18.9999 9.74999H14.9999Z" fill="#555555"/>
<path d="M3.53019 21.5303C3.2373 21.8232 2.76253 21.8232 2.46964 21.5303C2.17681 21.2374 2.17677 20.7626 2.46964 20.4697L7.18937 15.75H4.99992C4.5857 15.75 4.24992 15.4142 4.24992 15C4.24998 14.5858 4.58574 14.25 4.99992 14.25H8.99992L9.07706 14.2539L9.1796 14.2744C9.20323 14.2802 9.22626 14.2869 9.24894 14.2949C9.26945 14.3021 9.28954 14.3103 9.30949 14.3193C9.33511 14.331 9.35972 14.344 9.3837 14.3584C9.40482 14.371 9.42615 14.3835 9.4462 14.3984C9.45106 14.402 9.45609 14.4054 9.46085 14.4092C9.48475 14.4279 9.50819 14.4477 9.53019 14.4697C9.53639 14.4759 9.54183 14.4829 9.54777 14.4892C9.55263 14.4945 9.5577 14.4995 9.56242 14.5049C9.58707 14.5328 9.60904 14.5623 9.62882 14.5928C9.64767 14.6218 9.6629 14.6529 9.67765 14.6846C9.68368 14.6975 9.69193 14.7094 9.69718 14.7226C9.70644 14.7459 9.71174 14.7706 9.71867 14.7949C9.73777 14.8621 9.7499 14.9307 9.74992 15V19C9.74992 19.4142 9.41413 19.75 8.99992 19.75C8.5857 19.75 8.24992 19.4142 8.24992 19V16.8105L3.53019 21.5303Z" fill="#555555"/>
</svg>
