<svg width="24" height="24" viewBox="0 0 24 24" fill="none" xmlns="http://www.w3.org/2000/svg">
<g clip-path="url(#clip0_11286_45066)">
<path d="M8.74219 14.2806C9.01255 14.0103 9.45079 14.0103 9.72115 14.2806C9.99056 14.5511 9.9912 14.9896 9.72115 15.2596L5.36358 19.6154H7.38462C7.76697 19.6154 8.07692 19.9253 8.07692 20.3077C8.07687 20.69 7.76693 21 7.38462 21H3.69231C3.65048 21 3.6095 20.9963 3.56971 20.9892C3.5649 20.9883 3.56009 20.9865 3.55529 20.9856C3.54322 20.9831 3.53103 20.9779 3.51923 20.9748C3.48866 20.9668 3.45675 20.9599 3.42728 20.9477C3.40064 20.9367 3.37638 20.9205 3.35156 20.9062C3.29961 20.8766 3.24817 20.8423 3.20373 20.7981C3.17419 20.7685 3.14748 20.7356 3.1244 20.7025C3.0962 20.6621 3.07143 20.6189 3.05228 20.5727C3.03315 20.5263 3.01943 20.4773 3.01082 20.4285C3.00391 20.3893 3.00001 20.3489 3 20.3077V16.6154C3 16.233 3.30996 15.9231 3.69231 15.9231C4.07466 15.9231 4.38462 16.233 4.38462 16.6154V18.6364L8.74219 14.2806Z" fill="#555555"/>
<path d="M19.3846 12C19.8944 12 20.3077 12.4133 20.3077 12.9231V17.5385C20.3077 19.0683 19.0683 20.3077 17.5385 20.3077H12C11.4902 20.3077 11.0769 19.8944 11.0769 19.3846C11.0769 18.8748 11.4902 18.4615 12 18.4615H17.5385C18.0487 18.4615 18.4615 18.0487 18.4615 17.5385V12.9231C18.4615 12.4133 18.8748 12 19.3846 12Z" fill="#555555"/>
<path d="M11.0769 3.69231C11.5867 3.69231 12 4.10558 12 4.61538C12 5.12519 11.5867 5.53846 11.0769 5.53846H6.46154C5.95134 5.53846 5.53846 5.95134 5.53846 6.46154V11.0769C5.53846 11.5867 5.12519 12 4.61538 12C4.10558 12 3.69231 11.5867 3.69231 11.0769V6.46154C3.69231 4.93174 4.93174 3.69231 6.46154 3.69231H11.0769Z" fill="#555555"/>
<path d="M20.3798 3.00361C20.3898 3.00474 20.4005 3.00755 20.4105 3.00901C20.4314 3.01215 20.4529 3.01658 20.4736 3.02163C20.495 3.02693 20.516 3.03421 20.5367 3.04147C20.5552 3.04799 20.5745 3.05495 20.5925 3.0631C20.6176 3.07446 20.6413 3.08863 20.6647 3.10276C20.6818 3.11312 20.7006 3.12322 20.7169 3.13522C20.7223 3.13915 20.7279 3.14373 20.7332 3.14784C20.7551 3.16498 20.7779 3.18357 20.7981 3.20373C20.8031 3.20893 20.8076 3.2147 20.8125 3.21995C20.817 3.22476 20.8226 3.22944 20.8269 3.23438C20.8503 3.26085 20.8714 3.29019 20.89 3.31911C20.9081 3.34736 20.923 3.37841 20.9369 3.40925C20.9407 3.41756 20.9461 3.42604 20.9495 3.4345C20.9596 3.45975 20.9658 3.48722 20.973 3.51382C20.9774 3.5299 20.9843 3.54618 20.9874 3.5625C20.9954 3.60457 21 3.64792 21 3.69231V7.38462C21 7.76693 20.69 8.07687 20.3077 8.07692C19.9253 8.07692 19.6154 7.76697 19.6154 7.38462V5.36358L15.2596 9.72115C14.9896 9.9912 14.5511 9.99056 14.2806 9.72115C14.0103 9.45079 14.0103 9.01255 14.2806 8.74219L18.6364 4.38462H16.6154C16.233 4.38462 15.9231 4.07466 15.9231 3.69231C15.9231 3.30996 16.233 3 16.6154 3H20.3077L20.3798 3.00361Z" fill="#555555"/>
</g>
<defs>
<clipPath id="clip0_11286_45066">
<rect width="24" height="24" fill="white" transform="matrix(-1 0 0 1 24 0)"/>
</clipPath>
</defs>
</svg>
