<svg width="24" height="24" viewBox="0 0 24 24" fill="none" xmlns="http://www.w3.org/2000/svg">
<g clip-path="url(#clip0_3588_43878)">
<path d="M8.46973 14.4697C8.76262 14.1768 9.23738 14.1768 9.53027 14.4697C9.82311 14.7626 9.82315 15.2374 9.53027 15.5303L4.81055 20.25H7C7.41421 20.25 7.75 20.5858 7.75 21C7.74994 21.4142 7.41418 21.75 7 21.75H3C2.95463 21.75 2.91034 21.745 2.86719 21.7373C2.86166 21.7363 2.8561 21.7355 2.85059 21.7344C2.8372 21.7317 2.82464 21.7261 2.81152 21.7227C2.77829 21.714 2.74492 21.7056 2.71289 21.6924C2.68376 21.6803 2.65702 21.664 2.62988 21.6484C2.57322 21.616 2.51811 21.5786 2.46973 21.5303C2.43773 21.4983 2.40977 21.4636 2.38477 21.4277C2.35405 21.3836 2.32743 21.3364 2.30664 21.2861C2.28591 21.2359 2.27105 21.1837 2.26172 21.1309C2.25423 21.0884 2.25001 21.0446 2.25 21V17C2.25 16.5858 2.58579 16.25 3 16.25C3.41421 16.25 3.75 16.5858 3.75 17V19.1895L8.46973 14.4697Z" fill="#555555"/>
<path d="M21.0771 2.25391C21.0884 2.25506 21.0993 2.25813 21.1104 2.25977C21.1333 2.26318 21.1561 2.26789 21.1787 2.27344C21.2023 2.27923 21.2254 2.28598 21.248 2.29395C21.2683 2.30104 21.2879 2.30948 21.3076 2.31836C21.335 2.33075 21.3612 2.34488 21.3867 2.36035C21.4054 2.37167 21.4245 2.38241 21.4424 2.39551C21.4486 2.40005 21.4549 2.40446 21.4609 2.40918C21.4848 2.42786 21.5083 2.44774 21.5303 2.46973C21.5361 2.47561 21.5412 2.48226 21.5469 2.48828C21.5518 2.49349 21.5568 2.49856 21.5615 2.50391C21.587 2.53273 21.6096 2.56322 21.6299 2.59473C21.6498 2.62566 21.6664 2.65855 21.6816 2.69238C21.6858 2.70168 21.6915 2.7103 21.6953 2.71973C21.7064 2.74733 21.7129 2.77655 21.7207 2.80566C21.7255 2.82341 21.7329 2.84041 21.7363 2.8584C21.7451 2.90427 21.75 2.95158 21.75 3V7C21.75 7.41418 21.4142 7.74994 21 7.75C20.5858 7.75 20.25 7.41421 20.25 7V4.81055L15.5303 9.53027C15.2374 9.82315 14.7626 9.82311 14.4697 9.53027C14.1768 9.23738 14.1768 8.76262 14.4697 8.46973L19.1895 3.75H17C16.5858 3.75 16.25 3.41421 16.25 3C16.25 2.58579 16.5858 2.25 17 2.25H21L21.0771 2.25391Z" fill="#555555"/>
</g>
<defs>
<clipPath id="clip0_3588_43878">
<rect width="24" height="24" fill="white" transform="matrix(1 0 0 -1 0 24)"/>
</clipPath>
</defs>
</svg>
