<svg width="18" height="21" viewBox="0 0 18 21" fill="none" xmlns="http://www.w3.org/2000/svg">
<path fill-rule="evenodd" clip-rule="evenodd" d="M7.16369 12.3428C7.16369 9.09176 7.16954 8.26588 7.16954 5.01488C7.16954 4.32188 7.27848 3.54469 8.04408 3.50169C8.80967 3.45869 8.93081 4.24267 8.93081 4.92967L8.92471 12.3608C9.46543 12.3728 9.45342 12.3729 10.164 12.3909C10.6068 12.3759 11.0497 12.4186 11.4815 12.5178C11.5424 12.5548 11.6092 12.5967 11.6752 12.6457C11.765 12.6907 11.8438 12.7549 11.906 12.8337C12.0142 12.9739 12.0661 13.1497 12.0515 13.3262C12.0369 13.5027 11.9569 13.6673 11.8272 13.7878L8.74781 16.8437C8.41398 17.1717 8.06719 17.4639 7.49749 16.8989L4.22408 13.6418C4.14227 13.5452 4.09467 13.4243 4.08817 13.2978C4.08167 13.1714 4.11674 13.0464 4.18821 12.9419C4.23358 12.8282 4.30336 12.7255 4.39245 12.6416C4.48154 12.5576 4.58788 12.4943 4.70405 12.4558C5.16805 12.3266 5.6514 12.2815 6.13127 12.3227C6.8379 12.3307 6.67994 12.3308 7.16369 12.3428Z" fill="currentColor"/>
<path d="M0.000152341 6L2.15615 1.044H2.91915L5.05415 6H4.04615L3.58415 4.866H1.43515L0.987152 6H0.000152341ZM1.73615 4.11H3.27615L2.51315 2.094L1.73615 4.11Z" fill="currentColor"/>
<path d="M12.3012 19V18.202L14.9962 14.814H12.3432V14.044H16.0462V14.842L13.3372 18.216H16.0882V19H12.3012Z" fill="currentColor"/>
</svg>
