<svg width="16" height="16" viewBox="0 0 16 16" fill="none" xmlns="http://www.w3.org/2000/svg">
<path d="M14.6068 6.03125H1.3335" stroke="#555555" stroke-linecap="round" stroke-linejoin="bevel"/>
<path d="M4.04053 3.35698V2" stroke="#555555" stroke-linecap="round" stroke-linejoin="bevel"/>
<path d="M12.127 3.35698V2" stroke="#555555" stroke-linecap="round" stroke-linejoin="bevel"/>
<path d="M13.3335 3.35742H2.66683C1.93045 3.35742 1.3335 3.95305 1.3335 4.6878V12.6701C1.3335 13.4048 1.93045 14.0004 2.66683 14.0004H13.3335C14.0699 14.0004 14.6668 13.4048 14.6668 12.6701V4.6878C14.6668 3.95305 14.0699 3.35742 13.3335 3.35742Z" stroke="#555555" stroke-linecap="round" stroke-linejoin="bevel"/>
<path d="M4.9069 8.01953H3.57357C3.38947 8.01953 3.24023 8.16844 3.24023 8.35213V9.6825C3.24023 9.86619 3.38947 10.0151 3.57357 10.0151H4.9069C5.091 10.0151 5.24023 9.86619 5.24023 9.6825V8.35213C5.24023 8.16844 5.091 8.01953 4.9069 8.01953Z" stroke="#555555" stroke-linecap="round" stroke-linejoin="bevel"/>
<path d="M8.7404 8.01953H7.40706C7.22297 8.01953 7.07373 8.16844 7.07373 8.35213V9.6825C7.07373 9.86619 7.22297 10.0151 7.40706 10.0151H8.7404C8.92449 10.0151 9.07373 9.86619 9.07373 9.6825V8.35213C9.07373 8.16844 8.92449 8.01953 8.7404 8.01953Z" stroke="#555555" stroke-linecap="round" stroke-linejoin="round"/>
</svg>
