<svg width="16" height="16" viewBox="0 0 16 16" fill="none" xmlns="http://www.w3.org/2000/svg">
<path d="M14.6063 6.03101H1.33301" stroke="#555555" stroke-linecap="round" stroke-linejoin="bevel"/>
<path d="M4.04004 3.35698V2" stroke="#555555" stroke-linecap="round" stroke-linejoin="bevel"/>
<path d="M12.126 3.35698V2" stroke="#555555" stroke-linecap="round" stroke-linejoin="bevel"/>
<path d="M13.333 3.35693H2.66634C1.92996 3.35693 1.33301 3.95256 1.33301 4.68731V12.6696C1.33301 13.4043 1.92996 13.9999 2.66634 13.9999H13.333C14.0694 13.9999 14.6663 13.4043 14.6663 12.6696V4.68731C14.6663 3.95256 14.0694 3.35693 13.333 3.35693Z" stroke="#555555" stroke-linecap="round" stroke-linejoin="bevel"/>
<path d="M4.90592 8.02002H3.57259C3.3885 8.02002 3.23926 8.16893 3.23926 8.35261V9.68299C3.23926 9.86668 3.3885 10.0156 3.57259 10.0156H4.90592C5.09002 10.0156 5.23926 9.86668 5.23926 9.68299V8.35261C5.23926 8.16893 5.09002 8.02002 4.90592 8.02002Z" stroke="#555555" stroke-linecap="round" stroke-linejoin="bevel"/>
<path d="M8.73991 8.02002H7.40658C7.22248 8.02002 7.07324 8.16893 7.07324 8.35261V9.68299C7.07324 9.86668 7.22248 10.0156 7.40658 10.0156H8.73991C8.924 10.0156 9.07324 9.86668 9.07324 9.68299V8.35261C9.07324 8.16893 8.924 8.02002 8.73991 8.02002Z" stroke="#555555" stroke-linecap="round" stroke-linejoin="round"/>
</svg>
