<svg width="16" height="14" viewBox="0 0 16 14" fill="none" xmlns="http://www.w3.org/2000/svg">
<path d="M14.937 4.68652H1" stroke="#868686" stroke-linecap="round" stroke-linejoin="bevel"/>
<path d="M3.84216 1.90925V0.5" stroke="#868686" stroke-linecap="round" stroke-linejoin="bevel"/>
<path d="M12.333 1.90925V0.5" stroke="#868686" stroke-linecap="round" stroke-linejoin="bevel"/>
<path d="M13.6 1.90918H2.4C1.6268 1.90918 1 2.52775 1 3.2908V11.5805C1 12.3436 1.6268 12.9621 2.4 12.9621H13.6C14.3732 12.9621 15 12.3436 15 11.5805V3.2908C15 2.52775 14.3732 1.90918 13.6 1.90918Z" stroke="#868686" stroke-linecap="round" stroke-linejoin="bevel"/>
<path d="M4.75195 6.75195H3.35195C3.15865 6.75195 3.00195 6.9066 3.00195 7.09736V8.47898C3.00195 8.66974 3.15865 8.82438 3.35195 8.82438H4.75195C4.94525 8.82438 5.10195 8.66974 5.10195 8.47898V7.09736C5.10195 6.9066 4.94525 6.75195 4.75195 6.75195Z" stroke="#868686" stroke-linecap="round" stroke-linejoin="bevel"/>
<path d="M8.77686 6.75195H7.37686C7.18356 6.75195 7.02686 6.9066 7.02686 7.09736V8.47898C7.02686 8.66974 7.18356 8.82438 7.37686 8.82438H8.77686C8.97016 8.82438 9.12686 8.66974 9.12686 8.47898V7.09736C9.12686 6.9066 8.97016 6.75195 8.77686 6.75195Z" stroke="#868686" stroke-linecap="round" stroke-linejoin="round"/>
</svg>
