<svg width="20" height="20" viewBox="0 0 20 20" fill="none" xmlns="http://www.w3.org/2000/svg">
<path d="M10 20C15.5228 20 20 15.5228 20 10C20 4.47715 15.5228 0 10 0C4.47715 0 0 4.47715 0 10C0 15.5228 4.47715 20 10 20Z" fill="white"/>
<path d="M6.16587 13.8258C6.11334 13.7714 6.07162 13.7065 6.04314 13.6349C6.01467 13.5632 6 13.4864 6 13.4087C6 13.3311 6.01467 13.2542 6.04314 13.1826C6.07162 13.111 6.11334 13.0461 6.16587 12.9916L9.18942 9.88293L6.16587 6.94752C6.11403 6.8979 6.07261 6.83741 6.04426 6.76992C6.01591 6.70244 6.00127 6.62946 6.00127 6.55567C6.00127 6.48188 6.01591 6.4089 6.04426 6.34142C6.07261 6.27393 6.11403 6.21344 6.16587 6.16382C6.27638 6.05839 6.42015 6 6.56923 6C6.71832 6 6.86208 6.05839 6.97259 6.16382L9.99779 9.09923L13.0263 6.16469C13.1371 6.05913 13.2811 6.00069 13.4305 6.00069C13.5799 6.00069 13.7239 6.05913 13.8347 6.16469C13.8872 6.21416 13.9291 6.27485 13.9576 6.34272C13.9861 6.41059 14.0005 6.48407 14 6.55828C14 6.63241 13.9853 6.70572 13.9569 6.77351C13.9284 6.8413 13.8868 6.90205 13.8347 6.95188L10.8012 9.88468L13.8314 12.9899C13.8835 13.0444 13.925 13.1092 13.9532 13.1807C13.9815 13.2521 13.9961 13.3287 13.9961 13.4061C13.9961 13.4835 13.9815 13.5602 13.9532 13.6316C13.925 13.703 13.8835 13.7679 13.8314 13.8224C13.7233 13.9335 13.5782 13.9958 13.4272 13.9958C13.2761 13.9958 13.1311 13.9335 13.023 13.8224L9.99779 10.7154L6.97259 13.8258C6.86504 13.9369 6.72064 13.9993 6.57006 14C6.41891 13.9998 6.27384 13.9373 6.16587 13.8258Z" fill="#176CF7"/>
</svg>
