<svg width="16" height="16" viewBox="0 0 16 16" fill="none" xmlns="http://www.w3.org/2000/svg">
<path d="M8.23132 13.5287C7.1781 12.3549 6.25309 11.0721 5.47199 9.70201C4.80543 8.6647 4.34692 7.50767 4.12199 6.29534C3.94696 5.5803 3.96048 4.83207 4.16124 4.12381C4.362 3.41556 4.74311 2.77152 5.26732 2.25468C6.06366 1.47121 7.12984 1.02252 8.24676 1.00083C9.36368 0.979127 10.4465 1.38607 11.2727 2.13801C12.0668 2.8596 12.5586 3.85486 12.6493 4.92401C12.6517 4.92664 12.6534 4.9297 12.6546 4.93301C12.6557 4.93633 12.6562 4.93984 12.656 4.94334C12.656 4.95601 12.656 4.96868 12.656 4.98201C12.6627 5.08334 12.6667 5.18201 12.6667 5.28401V5.30601C12.6667 5.38734 12.6667 5.46668 12.6587 5.54801C12.6316 5.98915 12.5356 6.42332 12.374 6.83468C12.1527 7.49352 11.8936 8.13903 11.598 8.76801C11.0175 10.0097 10.2845 11.1742 9.41599 12.2347C9.04975 12.6912 8.65401 13.1239 8.23132 13.5287ZM8.33399 3.41001C8.01698 3.41356 7.70811 3.51082 7.44626 3.68954C7.18441 3.86825 6.98128 4.12044 6.86246 4.41436C6.74363 4.70827 6.7144 5.03077 6.77847 5.34126C6.84254 5.65174 6.99702 5.93633 7.22249 6.15921C7.44795 6.38208 7.73431 6.53327 8.04551 6.59374C8.35672 6.65422 8.67886 6.62127 8.97138 6.49905C9.2639 6.37683 9.51373 6.17081 9.68941 5.90691C9.86509 5.64301 9.95877 5.33304 9.95866 5.01601C9.95566 4.58776 9.78293 4.17818 9.47836 3.87711C9.17379 3.57604 8.76224 3.40806 8.33399 3.41001Z" stroke="#868686" stroke-width="1.5"/>
</svg>
