<svg width="87" height="70" viewBox="0 0 87 70" fill="none" xmlns="http://www.w3.org/2000/svg">
<rect width="10.7642" height="28.9175" rx="5.38208" transform="matrix(0.702001 -0.712175 0.702001 0.712175 1.78125 9.2915)" fill="url(#paint0_linear_2102_69055)"/>
<rect width="10.7641" height="28.9174" rx="5.38207" transform="matrix(-0.702001 0.712176 -0.702001 -0.712176 81.7344 75.5229)" fill="url(#paint1_linear_2102_69055)"/>
<rect width="10.7642" height="28.9175" rx="5.38208" transform="matrix(-0.702001 0.712175 -0.702001 -0.712175 72.8301 6.86133)" fill="url(#paint2_linear_2102_69055)"/>
<ellipse cx="61.4487" cy="62.6077" rx="5.3432" ry="5.42065" fill="#FFDB3C"/>
<ellipse cx="36.9584" cy="37.3108" rx="5.3432" ry="5.42067" fill="#FFDB3C"/>
<ellipse cx="22.2651" cy="22.4045" rx="5.3432" ry="5.42064" fill="#FFDB3C"/>
<rect width="10.7641" height="28.9174" rx="5.38207" transform="matrix(0.702001 -0.712176 0.702001 0.712176 0 57.6255)" fill="url(#paint3_linear_2102_69055)"/>
<defs>
<linearGradient id="paint0_linear_2102_69055" x1="5.38208" y1="0" x2="5.38208" y2="28.9175" gradientUnits="userSpaceOnUse">
<stop stop-color="white" stop-opacity="0"/>
<stop offset="1" stop-color="white"/>
</linearGradient>
<linearGradient id="paint1_linear_2102_69055" x1="5.38207" y1="0" x2="5.38207" y2="28.9174" gradientUnits="userSpaceOnUse">
<stop stop-color="white" stop-opacity="0"/>
<stop offset="0.0001" stop-color="#FFDB3C" stop-opacity="0"/>
<stop offset="1" stop-color="#FFDB3C"/>
</linearGradient>
<linearGradient id="paint2_linear_2102_69055" x1="5.38208" y1="0" x2="5.38208" y2="28.9175" gradientUnits="userSpaceOnUse">
<stop stop-color="white" stop-opacity="0"/>
<stop offset="0.0001" stop-color="#FFDB3C" stop-opacity="0"/>
<stop offset="1" stop-color="#FFDB3C"/>
</linearGradient>
<linearGradient id="paint3_linear_2102_69055" x1="5.38207" y1="0" x2="5.38207" y2="28.9174" gradientUnits="userSpaceOnUse">
<stop stop-color="white" stop-opacity="0"/>
<stop offset="1" stop-color="white"/>
</linearGradient>
</defs>
</svg>
