<svg width="48" height="48" viewBox="0 0 48 48" fill="none" xmlns="http://www.w3.org/2000/svg">
<path d="M48 24C48 28.7467 46.5924 33.3869 43.9553 37.3337C41.3181 41.2805 37.5698 44.3566 33.1844 46.1731C28.799 47.9896 23.9734 48.4649 19.3178 47.5388C14.6623 46.6128 10.3859 44.327 7.02945 40.9706C3.67299 37.6141 1.38721 33.3377 0.461164 28.6822C-0.464881 24.0266 0.0103988 19.201 1.8269 14.8156C3.6434 10.4302 6.71955 6.68188 10.6663 4.04473C14.6131 1.40758 19.2533 0 24 0C30.3652 0 36.4697 2.52856 40.9706 7.02944C45.4714 11.5303 48 17.6348 48 24Z" fill="#FFC217"/>
<path d="M11.8691 23.2219C11.8765 22.7854 11.9699 22.3545 12.1439 21.954C12.3178 21.5535 12.569 21.1913 12.8831 20.8879C13.1972 20.5846 13.5679 20.3461 13.9742 20.1861C14.3805 20.0262 14.8143 19.9478 15.2509 19.9556C15.6845 19.9485 16.1152 20.0277 16.5179 20.1886C16.9207 20.3495 17.2874 20.5889 17.5967 20.8929C17.906 21.1969 18.1518 21.5593 18.3197 21.9592C18.4877 22.359 18.5744 22.7883 18.5749 23.2219V26.5202C18.5946 27.9455 19.1746 29.3058 20.1895 30.3068C21.2043 31.3078 22.5725 31.869 23.998 31.869C25.4235 31.869 26.7916 31.3078 27.8065 30.3068C28.8214 29.3058 29.4014 27.9455 29.421 26.5202V23.2219C29.4284 22.7853 29.5218 22.3543 29.6959 21.9538C29.8699 21.5532 30.1212 21.1909 30.4354 20.8876C30.7495 20.5842 31.1204 20.3458 31.5268 20.1858C31.9332 20.0259 32.3672 19.9477 32.8038 19.9556C33.2374 19.9485 33.6682 20.0277 34.0709 20.1886C34.4736 20.3495 34.8403 20.5889 35.1496 20.8929C35.459 21.1969 35.7048 21.5593 35.8727 21.9592C36.0406 22.359 36.1274 22.7883 36.1279 23.2219V26.5202C36.0563 29.6897 34.7469 32.7052 32.48 34.9215C30.2131 37.1378 27.1688 38.3787 23.9985 38.3787C20.8282 38.3787 17.7838 37.1378 15.5169 34.9215C13.25 32.7052 11.9407 29.6897 11.8691 26.5202V23.2219Z" fill="#176CF7"/>
<path d="M18.6244 15.0637C18.6244 15.7317 18.4263 16.3847 18.0552 16.9402C17.684 17.4956 17.1565 17.9286 16.5393 18.1842C15.9222 18.4399 15.243 18.5067 14.5878 18.3764C13.9326 18.2461 13.3308 17.9244 12.8584 17.452C12.3861 16.9797 12.0644 16.3778 11.934 15.7226C11.8037 15.0674 11.8706 14.3883 12.1262 13.7711C12.3819 13.1539 12.8148 12.6264 13.3703 12.2553C13.9257 11.8841 14.5787 11.686 15.2468 11.686C16.1426 11.686 17.0017 12.0419 17.6351 12.6753C18.2685 13.3088 18.6244 14.1679 18.6244 15.0637Z" fill="#176CF7"/>
<path d="M36.1264 15.0637C36.1264 15.7317 35.9283 16.3847 35.5571 16.9402C35.186 17.4956 34.6585 17.9286 34.0413 18.1842C33.4241 18.4399 32.745 18.5067 32.0898 18.3764C31.4346 18.2461 30.8328 17.9244 30.3604 17.452C29.888 16.9797 29.5663 16.3778 29.436 15.7226C29.3057 15.0674 29.3726 14.3883 29.6282 13.7711C29.8839 13.1539 30.3168 12.6264 30.8722 12.2553C31.4277 11.8841 32.0807 11.686 32.7487 11.686C33.6445 11.686 34.5036 12.0419 35.1371 12.6753C35.7705 13.3088 36.1264 14.1679 36.1264 15.0637Z" fill="#176CF7"/>
</svg>
