<svg width="25" height="24" viewBox="0 0 25 24" fill="none" xmlns="http://www.w3.org/2000/svg">
<g clip-path="url(#clip0_1193_37596)">
<path d="M11.1121 2.21191C15.2053 2.21212 18.5233 5.53076 18.5233 9.62402C18.5232 11.5809 17.7631 13.359 16.5242 14.6836L20.283 19.3828C20.624 19.809 20.5549 20.4305 20.1287 20.7715C19.7025 21.1124 19.081 21.0434 18.7401 20.6172L14.9949 15.9355C13.8656 16.6318 12.5363 17.0351 11.1121 17.0352C7.01886 17.0352 3.70022 13.7172 3.70001 9.62402C3.70001 5.53064 7.01874 2.21191 11.1121 2.21191ZM11.1121 4.18848C8.1103 4.18848 5.67657 6.62221 5.67657 9.62402C5.67678 12.6257 8.11043 15.0586 11.1121 15.0586C14.1136 15.0584 16.5465 12.6255 16.5467 9.62402C16.5467 6.62233 14.1138 4.18868 11.1121 4.18848Z" fill="#868686"/>
</g>
<defs>
<clipPath id="clip0_1193_37596">
<rect width="24" height="24" fill="white" transform="translate(0.5)"/>
</clipPath>
</defs>
</svg>
