<svg width="16" height="16" viewBox="0 0 16 16" fill="none" xmlns="http://www.w3.org/2000/svg">
<path d="M1.75 12.8255V8.12695C1.75007 7.85087 1.9739 7.62695 2.25 7.62695C2.5261 7.62695 2.74993 7.85087 2.75 8.12695V12.8255C2.75003 13.0077 2.82098 13.1803 2.94401 13.306C3.0668 13.4314 3.23136 13.5 3.40039 13.5H12.6022C12.7712 13.4999 12.9352 13.4313 13.0579 13.306C13.181 13.1803 13.2519 13.0077 13.252 12.8255V8.12695C13.252 7.85095 13.476 7.62708 13.752 7.62695C14.0281 7.62695 14.2519 7.85087 14.252 8.12695V12.8255C14.2519 13.2662 14.081 13.6911 13.7728 14.0059C13.4642 14.321 13.0432 14.4999 12.6022 14.5H3.40039C2.95936 14.5 2.53844 14.321 2.22982 14.0059C1.92156 13.6911 1.75003 13.2663 1.75 12.8255ZM7.5013 2C7.5013 1.72386 7.72516 1.5 8.0013 1.5C8.27735 1.50012 8.5013 1.72393 8.5013 2V10.9583L10.3711 9.04948C10.5643 8.85218 10.8815 8.84846 11.0788 9.04167C11.276 9.23482 11.279 9.5514 11.0859 9.7487L8.78516 12.0983L8.78451 12.099C8.58391 12.3026 8.31021 12.4193 8.02279 12.4193C7.73535 12.4193 7.46168 12.3026 7.26107 12.099L7.26042 12.0983L4.89648 9.69076L5.61068 8.99023L7.5013 10.916V2ZM4.90365 8.98372C5.10071 8.79037 5.41726 8.7932 5.61068 8.99023L4.89648 9.69076C4.70315 9.49369 4.70662 9.17713 4.90365 8.98372Z" fill="white"/>
</svg>
