<svg width="18" height="21" viewBox="0 0 18 21" fill="none" xmlns="http://www.w3.org/2000/svg">
<path fill-rule="evenodd" clip-rule="evenodd" d="M7.1632 8.3755C7.1632 11.6265 7.16905 12.4524 7.16905 15.7034C7.16905 16.3964 7.278 17.1736 8.04359 17.2166C8.80918 17.2596 8.93033 16.4756 8.93033 15.7886L8.92423 8.35744C9.46494 8.34544 9.45294 8.34541 10.1636 8.32741C10.6063 8.34232 11.0492 8.29968 11.481 8.20045C11.5419 8.16346 11.6088 8.12152 11.6747 8.07253C11.7645 8.02759 11.8433 7.96341 11.9056 7.88454C12.0137 7.74432 12.0656 7.56861 12.051 7.39211C12.0364 7.2156 11.9565 7.05095 11.8267 6.93044L8.74732 3.87453C8.41349 3.54653 8.0667 3.25435 7.497 3.81935L4.22359 7.07643C4.14178 7.17305 4.09418 7.29396 4.08768 7.42043C4.08118 7.54689 4.11625 7.67187 4.18772 7.77638C4.23309 7.8901 4.30287 7.99272 4.39196 8.07668C4.48105 8.16063 4.58739 8.22396 4.70356 8.26247C5.16756 8.39167 5.65092 8.43677 6.13079 8.39552C6.83741 8.38752 6.67945 8.3875 7.1632 8.3755Z" fill="currentColor"/>
<path d="M-0.00033594 6L2.15566 1.044H2.91866L5.05366 6H4.04566L3.58366 4.866H1.43466L0.986664 6H-0.00033594ZM1.73566 4.11H3.27566L2.51266 2.094L1.73566 4.11Z" fill="currentColor"/>
<path d="M12.3007 19V18.202L14.9957 14.814H12.3427V14.044H16.0457V14.842L13.3367 18.216H16.0877V19H12.3007Z" fill="currentColor"/>
</svg>
