<svg width="288" height="221" viewBox="0 0 288 221" fill="none" xmlns="http://www.w3.org/2000/svg">
<g clip-path="url(#clip0_1057_59377)">
<rect width="288" height="221" rx="12" fill="#D1E2FD"/>
<path d="M248.415 68.8424C205.031 67.5205 167.451 100.004 161.773 142.627C155.565 189.23 189.732 231.16 231.772 237.876C284.064 246.23 334.784 197.904 330.229 145.478C326.798 105.98 292.516 70.1862 248.415 68.8424Z" fill="url(#paint0_linear_1057_59377)"/>
<path d="M279.901 65.0389C236.516 63.717 198.936 96.2009 193.259 138.824C187.051 185.426 221.217 227.357 263.258 234.073C315.549 242.426 366.269 194.101 361.715 141.675C358.284 102.177 324.002 66.3828 279.901 65.0389Z" fill="url(#paint1_linear_1057_59377)"/>
<path d="M281.275 221.006C281.275 222.784 270.201 224.226 256.542 224.226C242.882 224.226 231.809 222.784 231.809 221.006C231.809 219.227 242.882 217.785 256.542 217.785C270.201 217.785 281.275 219.227 281.275 221.006Z" fill="url(#paint2_linear_1057_59377)"/>
<path d="M256.542 224.448C244.444 224.448 231.794 223.289 231.794 221.053C231.794 220.93 231.838 220.714 231.961 220.714C232.083 220.714 232.03 220.883 232.03 221.006C232.03 222.424 242.097 224.004 256.542 224.004C270.986 224.004 281.053 222.424 281.053 221.006C281.053 220.883 281.074 220.768 281.196 220.768C281.319 220.768 281.289 220.931 281.289 221.054C281.289 223.291 268.639 224.448 256.542 224.448Z" fill="url(#paint3_linear_1057_59377)"/>
<path d="M254.204 221.185C254.447 221.016 254.705 220.85 254.982 220.686C255.256 220.522 255.612 220.374 256.044 220.241C256.479 220.109 257.022 220.001 257.675 219.918C258.327 219.834 259.143 219.79 260.117 219.786C261.073 219.781 261.969 219.811 262.809 219.877C263.646 219.942 264.384 220.041 265.022 220.171C265.658 220.302 266.177 220.463 266.576 220.655C266.974 220.847 267.211 221.067 267.287 221.316L270.072 221.344C270.274 221.345 270.453 221.362 270.606 221.393C270.761 221.425 270.837 221.466 270.837 221.514L270.838 221.744L267.258 221.71C267.132 221.992 266.812 222.249 266.298 222.483C265.786 222.717 265.132 222.92 264.335 223.091L263.031 222.909C262.914 222.891 262.818 222.868 262.743 222.841C262.668 222.813 262.631 222.783 262.631 222.751C262.631 222.706 262.732 222.656 262.933 222.599C263.135 222.542 263.363 222.472 263.616 222.388C263.87 222.305 264.118 222.206 264.363 222.092C264.606 221.978 264.769 221.842 264.854 221.683L256.403 221.599C256.181 221.763 255.931 221.924 255.657 222.082C255.38 222.241 255.016 222.383 254.561 222.51C254.105 222.636 253.538 222.739 252.86 222.818C252.179 222.897 251.327 222.939 250.296 222.944C249.522 222.948 248.768 222.918 248.029 222.856C247.291 222.793 246.635 222.699 246.062 222.574C245.489 222.449 245.019 222.294 244.65 222.111C244.284 221.926 244.078 221.715 244.036 221.475L241.743 221.452C241.541 221.451 241.362 221.435 241.201 221.404C241.043 221.373 240.963 221.333 240.963 221.281L240.961 221.051L244.096 221.081C244.235 220.839 244.519 220.628 244.953 220.448C245.387 220.268 245.918 220.108 246.544 219.968L247.594 220.112C247.912 220.157 248.071 220.21 248.071 220.27C248.071 220.303 248.007 220.343 247.875 220.391C247.74 220.44 247.585 220.498 247.404 220.565C247.226 220.632 247.05 220.71 246.882 220.801C246.711 220.891 246.585 220.993 246.5 221.108L254.204 221.185ZM246.471 221.498C246.534 221.649 246.674 221.779 246.887 221.888C247.1 221.998 247.365 222.088 247.684 222.158C248.003 222.229 248.361 222.28 248.757 222.313C249.156 222.346 249.573 222.362 250.009 222.36C250.516 222.357 250.959 222.335 251.337 222.294C251.712 222.252 252.044 222.196 252.331 222.125C252.616 222.054 252.866 221.971 253.078 221.877C253.29 221.783 253.479 221.681 253.649 221.571L246.471 221.498ZM264.867 221.293C264.804 221.14 264.651 221.006 264.412 220.891C264.173 220.776 263.867 220.679 263.496 220.601C263.125 220.522 262.692 220.464 262.197 220.426C261.705 220.387 261.161 220.37 260.565 220.373C260.037 220.375 259.578 220.399 259.198 220.444C258.817 220.489 258.486 220.549 258.204 220.625C257.925 220.701 257.684 220.789 257.49 220.89C257.294 220.991 257.111 221.098 256.943 221.213L264.867 221.293Z" fill="#FCB048"/>
<path d="M256.545 218.134C245.517 218.134 234.034 219.107 232.198 220.992C232.27 221.059 232.337 221.13 232.399 221.204C233.947 219.896 243.428 218.578 256.545 218.578C269.999 218.578 279.632 219.964 280.799 221.305C280.856 221.232 280.918 221.161 280.984 221.095C279.467 219.143 267.769 218.134 256.545 218.134Z" fill="url(#paint4_linear_1057_59377)"/>
<path d="M224.933 215.223V220.728C224.933 222.507 236.006 223.949 249.666 223.949C263.326 223.949 274.399 222.507 274.399 220.728V215.223H224.933Z" fill="url(#paint5_linear_1057_59377)"/>
<path d="M274.398 215.223C274.398 217.002 263.325 218.444 249.666 218.444C236.006 218.444 224.933 217.002 224.933 215.223C224.933 213.445 236.006 212.003 249.666 212.003C263.325 212.003 274.398 213.445 274.398 215.223Z" fill="url(#paint6_linear_1057_59377)"/>
<path d="M249.666 218.666C237.569 218.666 224.919 217.507 224.919 215.27C224.919 215.148 224.962 214.932 225.085 214.932C225.207 214.932 225.154 215.1 225.154 215.223C225.154 216.642 235.221 218.222 249.666 218.222C264.111 218.222 274.177 216.642 274.177 215.223C274.177 215.1 274.198 214.985 274.32 214.985C274.443 214.985 274.413 215.149 274.413 215.272C274.413 217.508 261.763 218.666 249.666 218.666Z" fill="url(#paint7_linear_1057_59377)"/>
<path d="M247.329 215.403C247.572 215.234 247.83 215.068 248.106 214.904C248.38 214.74 248.737 214.592 249.169 214.459C249.603 214.327 250.147 214.219 250.799 214.136C251.451 214.052 252.267 214.008 253.241 214.004C254.197 213.999 255.094 214.029 255.933 214.095C256.77 214.16 257.509 214.259 258.147 214.389C258.782 214.52 259.301 214.681 259.701 214.873C260.098 215.065 260.335 215.285 260.411 215.534L263.196 215.562C263.398 215.563 263.577 215.58 263.73 215.611C263.886 215.643 263.961 215.684 263.961 215.732L263.962 215.962L260.382 215.928C260.257 216.21 259.937 216.467 259.422 216.701C258.91 216.935 258.256 217.138 257.459 217.309L256.155 217.127C256.038 217.109 255.943 217.086 255.867 217.059C255.792 217.031 255.756 217.001 255.755 216.969C255.755 216.924 255.856 216.874 256.058 216.817C256.26 216.76 256.487 216.69 256.741 216.606C256.994 216.523 257.242 216.424 257.488 216.31C257.731 216.196 257.893 216.06 257.978 215.901L249.528 215.817C249.306 215.981 249.055 216.142 248.781 216.3C248.505 216.459 248.14 216.601 247.685 216.728C247.23 216.854 246.663 216.957 245.985 217.036C245.304 217.115 244.452 217.157 243.421 217.162C242.646 217.166 241.892 217.136 241.154 217.074C240.415 217.011 239.759 216.917 239.186 216.792C238.613 216.667 238.143 216.512 237.775 216.328C237.409 216.144 237.203 215.933 237.16 215.693L234.868 215.67C234.665 215.669 234.487 215.653 234.326 215.622C234.168 215.591 234.087 215.551 234.087 215.499L234.086 215.269L237.22 215.299C237.359 215.057 237.643 214.846 238.077 214.666C238.512 214.486 239.042 214.326 239.668 214.186L240.718 214.33C241.037 214.375 241.195 214.428 241.195 214.488C241.196 214.521 241.131 214.561 240.999 214.609C240.865 214.658 240.71 214.716 240.528 214.783C240.35 214.85 240.174 214.928 240.006 215.019C239.836 215.109 239.709 215.211 239.624 215.326L247.329 215.403ZM239.595 215.716C239.658 215.867 239.799 215.997 240.012 216.106C240.225 216.216 240.489 216.306 240.808 216.376C241.127 216.447 241.485 216.498 241.882 216.531C242.281 216.564 242.698 216.58 243.133 216.578C243.641 216.575 244.084 216.553 244.461 216.512C244.837 216.47 245.168 216.414 245.455 216.343C245.74 216.272 245.991 216.189 246.203 216.095C246.415 216.001 246.603 215.899 246.774 215.789L239.595 215.716ZM257.992 215.511C257.929 215.358 257.775 215.224 257.536 215.109C257.298 214.994 256.991 214.897 256.621 214.819C256.25 214.74 255.817 214.682 255.322 214.644C254.829 214.605 254.285 214.588 253.69 214.591C253.161 214.593 252.703 214.617 252.322 214.662C251.942 214.707 251.61 214.767 251.328 214.843C251.049 214.919 250.809 215.007 250.615 215.108C250.418 215.209 250.235 215.316 250.067 215.431L257.992 215.511Z" fill="#FCB048"/>
<path d="M249.669 212.351C238.641 212.351 227.159 213.325 225.322 215.21C225.394 215.276 225.461 215.347 225.523 215.422C227.071 214.113 236.552 212.796 249.669 212.796C263.123 212.796 272.756 214.182 273.923 215.523C273.98 215.449 274.042 215.379 274.108 215.313C272.591 213.361 260.893 212.351 249.669 212.351Z" fill="url(#paint8_linear_1057_59377)"/>
<path d="M230.866 209.458V214.963C230.866 216.742 241.939 218.184 255.599 218.184C269.258 218.184 280.331 216.742 280.331 214.963V209.458H230.866Z" fill="url(#paint9_linear_1057_59377)"/>
<path d="M280.331 209.458C280.331 211.237 269.258 212.679 255.599 212.679C241.939 212.679 230.866 211.237 230.866 209.458C230.866 207.68 241.939 206.238 255.599 206.238C269.258 206.238 280.331 207.68 280.331 209.458Z" fill="url(#paint10_linear_1057_59377)"/>
<path d="M255.598 212.901C243.501 212.901 230.851 211.742 230.851 209.505C230.851 209.383 230.895 209.167 231.017 209.167C231.14 209.167 231.087 209.336 231.087 209.458C231.087 210.877 241.154 212.457 255.598 212.457C270.043 212.457 280.11 210.877 280.11 209.458C280.11 209.336 280.131 209.22 280.253 209.22C280.375 209.22 280.346 209.384 280.346 209.507C280.346 211.743 267.696 212.901 255.598 212.901Z" fill="url(#paint11_linear_1057_59377)"/>
<path d="M253.261 209.638C253.504 209.469 253.762 209.303 254.039 209.139C254.312 208.975 254.669 208.827 255.101 208.694C255.536 208.562 256.079 208.454 256.732 208.371C257.384 208.287 258.2 208.243 259.174 208.239C260.13 208.234 261.026 208.264 261.866 208.33C262.703 208.395 263.441 208.494 264.079 208.624C264.715 208.755 265.233 208.916 265.633 209.108C266.031 209.3 266.267 209.52 266.344 209.768L269.129 209.797C269.331 209.798 269.51 209.814 269.663 209.846C269.818 209.878 269.893 209.918 269.894 209.967L269.895 210.197L266.315 210.163C266.189 210.445 265.869 210.702 265.355 210.936C264.843 211.17 264.189 211.372 263.392 211.544L262.088 211.362C261.971 211.344 261.875 211.321 261.8 211.293C261.724 211.266 261.688 211.236 261.688 211.203C261.688 211.159 261.789 211.109 261.99 211.052C262.192 210.995 262.42 210.925 262.673 210.841C262.927 210.758 263.175 210.659 263.42 210.545C263.663 210.431 263.826 210.295 263.91 210.136L255.46 210.052C255.238 210.216 254.988 210.377 254.714 210.535C254.437 210.694 254.073 210.836 253.618 210.963C253.162 211.089 252.595 211.192 251.917 211.271C251.236 211.35 250.384 211.392 249.353 211.397C248.579 211.4 247.825 211.371 247.086 211.309C246.348 211.246 245.692 211.152 245.119 211.027C244.545 210.902 244.076 210.747 243.707 210.563C243.341 210.379 243.135 210.168 243.093 209.928L240.8 209.905C240.598 209.903 240.419 209.888 240.258 209.857C240.1 209.826 240.02 209.785 240.019 209.734L240.018 209.504L243.153 209.534C243.292 209.292 243.576 209.08 244.01 208.901C244.444 208.721 244.974 208.561 245.601 208.42L246.651 208.565C246.969 208.61 247.128 208.663 247.128 208.723C247.128 208.756 247.063 208.796 246.932 208.844C246.797 208.893 246.642 208.95 246.461 209.017C246.283 209.085 246.107 209.163 245.939 209.254C245.768 209.344 245.642 209.446 245.557 209.561L253.261 209.638ZM245.528 209.951C245.591 210.102 245.731 210.232 245.944 210.341C246.157 210.451 246.422 210.541 246.741 210.611C247.06 210.682 247.418 210.733 247.814 210.766C248.213 210.799 248.63 210.815 249.065 210.813C249.573 210.81 250.016 210.788 250.394 210.747C250.769 210.705 251.101 210.649 251.388 210.578C251.672 210.507 251.923 210.424 252.135 210.33C252.347 210.236 252.536 210.134 252.706 210.024L245.528 209.951ZM263.924 209.746C263.861 209.593 263.708 209.459 263.469 209.343C263.23 209.229 262.924 209.132 262.553 209.053C262.182 208.975 261.749 208.917 261.254 208.879C260.762 208.84 260.218 208.823 259.622 208.826C259.094 208.828 258.635 208.852 258.255 208.897C257.874 208.942 257.543 209.002 257.261 209.078C256.982 209.153 256.741 209.242 256.547 209.343C256.351 209.443 256.167 209.551 256 209.666L263.924 209.746Z" fill="#FCB048"/>
<path d="M255.602 206.586C244.574 206.586 233.091 207.56 231.255 209.445C231.327 209.512 231.393 209.583 231.455 209.657C233.004 208.348 242.485 207.031 255.602 207.031C269.055 207.031 278.689 208.417 279.856 209.758C279.913 209.685 279.974 209.614 280.041 209.548C278.524 207.596 266.826 206.586 255.602 206.586Z" fill="url(#paint12_linear_1057_59377)"/>
<path d="M234.466 203.677V209.181C234.466 210.96 245.539 212.402 259.199 212.402C272.859 212.402 283.932 210.96 283.932 209.181V203.677H234.466Z" fill="url(#paint13_linear_1057_59377)"/>
<path d="M259.199 206.897C272.858 206.897 283.932 205.455 283.932 203.676C283.932 201.898 272.858 200.456 259.199 200.456C245.539 200.456 234.466 201.898 234.466 203.676C234.466 205.455 245.539 206.897 259.199 206.897Z" fill="url(#paint14_linear_1057_59377)"/>
<path d="M259.199 207.119C247.102 207.119 234.452 205.96 234.452 203.723C234.452 203.601 234.495 203.385 234.618 203.385C234.74 203.385 234.688 203.554 234.688 203.676C234.688 205.095 244.754 206.675 259.199 206.675C273.644 206.675 283.71 205.095 283.71 203.676C283.71 203.554 283.731 203.439 283.854 203.439C283.976 203.439 283.946 203.602 283.946 203.725C283.946 205.962 271.296 207.119 259.199 207.119Z" fill="url(#paint15_linear_1057_59377)"/>
<path d="M256.862 203.856C257.104 203.687 257.363 203.521 257.639 203.357C257.913 203.193 258.27 203.045 258.702 202.913C259.136 202.78 259.68 202.673 260.332 202.589C260.984 202.506 261.8 202.462 262.774 202.457C263.73 202.452 264.626 202.483 265.466 202.548C266.303 202.614 267.042 202.712 267.68 202.842C268.315 202.973 268.834 203.134 269.234 203.326C269.631 203.518 269.868 203.739 269.944 203.987L272.729 204.015C272.931 204.016 273.11 204.033 273.263 204.065C273.418 204.096 273.494 204.137 273.494 204.185L273.495 204.416L269.915 204.381C269.789 204.663 269.469 204.921 268.955 205.154C268.443 205.388 267.789 205.591 266.992 205.762L265.688 205.58C265.571 205.562 265.475 205.539 265.4 205.512C265.325 205.484 265.288 205.454 265.288 205.422C265.288 205.378 265.389 205.327 265.591 205.271C265.792 205.214 266.02 205.143 266.273 205.059C266.527 204.976 266.775 204.877 267.021 204.763C267.264 204.649 267.426 204.513 267.511 204.354L259.06 204.27C258.838 204.434 258.588 204.595 258.314 204.754C258.038 204.912 257.673 205.054 257.218 205.181C256.763 205.307 256.196 205.41 255.517 205.489C254.837 205.568 253.985 205.61 252.954 205.615C252.179 205.619 251.425 205.589 250.686 205.527C249.948 205.464 249.292 205.37 248.719 205.245C248.146 205.12 247.676 204.966 247.307 204.782C246.941 204.597 246.736 204.386 246.693 204.147L244.4 204.123C244.198 204.122 244.019 204.106 243.859 204.075C243.701 204.045 243.62 204.004 243.62 203.953L243.619 203.723L246.753 203.753C246.892 203.51 247.176 203.299 247.61 203.119C248.045 202.939 248.575 202.779 249.201 202.639L250.251 202.783C250.57 202.828 250.728 202.881 250.728 202.941C250.729 202.974 250.664 203.014 250.532 203.063C250.398 203.111 250.242 203.169 250.061 203.236C249.883 203.303 249.707 203.382 249.539 203.472C249.369 203.562 249.242 203.665 249.157 203.779L256.862 203.856ZM249.128 204.17C249.191 204.32 249.332 204.45 249.545 204.56C249.758 204.669 250.022 204.759 250.341 204.829C250.66 204.9 251.018 204.951 251.414 204.984C251.813 205.017 252.231 205.033 252.666 205.031C253.174 205.028 253.616 205.006 253.994 204.965C254.37 204.923 254.701 204.867 254.988 204.796C255.273 204.725 255.524 204.642 255.736 204.548C255.948 204.454 256.136 204.352 256.307 204.242L249.128 204.17ZM267.525 203.964C267.462 203.811 267.308 203.677 267.069 203.562C266.83 203.447 266.524 203.35 266.153 203.272C265.783 203.193 265.35 203.135 264.855 203.097C264.362 203.059 263.818 203.041 263.222 203.044C262.694 203.046 262.236 203.07 261.855 203.115C261.474 203.16 261.143 203.22 260.861 203.296C260.582 203.372 260.341 203.46 260.148 203.561C259.951 203.662 259.768 203.77 259.6 203.884L267.525 203.964Z" fill="#FCB048"/>
<path d="M259.202 200.804C248.174 200.804 236.692 201.778 234.855 203.663C234.927 203.73 234.994 203.801 235.056 203.875C236.604 202.566 246.085 201.249 259.202 201.249C272.656 201.249 282.289 202.635 283.456 203.976C283.514 203.903 283.575 203.832 283.641 203.766C282.124 201.814 270.426 200.804 259.202 200.804Z" fill="url(#paint16_linear_1057_59377)"/>
<path d="M231.809 197.438V202.943C231.809 204.722 242.882 206.163 256.542 206.163C270.201 206.163 281.275 204.722 281.275 202.943V197.438H231.809Z" fill="url(#paint17_linear_1057_59377)"/>
<path d="M281.275 197.438C281.275 199.217 270.201 200.659 256.542 200.659C242.882 200.659 231.809 199.217 231.809 197.438C231.809 195.659 242.882 194.218 256.542 194.218C270.201 194.218 281.275 195.659 281.275 197.438Z" fill="url(#paint18_linear_1057_59377)"/>
<path d="M256.542 200.881C244.444 200.881 231.794 199.721 231.794 197.485C231.794 197.362 231.838 197.146 231.961 197.146C232.083 197.146 232.03 197.315 232.03 197.438C232.03 198.856 242.097 200.437 256.542 200.437C270.986 200.437 281.053 198.856 281.053 197.438C281.053 197.315 281.074 197.2 281.196 197.2C281.319 197.2 281.289 197.364 281.289 197.487C281.289 199.723 268.639 200.881 256.542 200.881Z" fill="url(#paint19_linear_1057_59377)"/>
<path d="M254.204 197.618C254.447 197.449 254.705 197.283 254.982 197.119C255.256 196.955 255.612 196.807 256.044 196.674C256.479 196.542 257.022 196.434 257.675 196.351C258.327 196.267 259.143 196.223 260.117 196.218C261.073 196.214 261.969 196.244 262.809 196.31C263.646 196.375 264.384 196.474 265.022 196.604C265.658 196.735 266.177 196.896 266.576 197.088C266.974 197.28 267.211 197.5 267.287 197.748L270.072 197.777C270.274 197.778 270.453 197.794 270.606 197.826C270.761 197.858 270.837 197.898 270.837 197.947L270.838 198.177L267.258 198.143C267.132 198.425 266.812 198.682 266.298 198.916C265.786 199.15 265.132 199.353 264.335 199.524L263.031 199.342C262.914 199.324 262.818 199.301 262.743 199.273C262.668 199.246 262.631 199.216 262.631 199.183C262.631 199.139 262.732 199.089 262.933 199.032C263.135 198.975 263.363 198.905 263.616 198.821C263.87 198.738 264.118 198.639 264.363 198.525C264.606 198.411 264.769 198.275 264.854 198.116L256.403 198.032C256.181 198.196 255.931 198.357 255.657 198.515C255.38 198.674 255.016 198.816 254.561 198.943C254.105 199.069 253.538 199.172 252.86 199.251C252.179 199.33 251.327 199.372 250.296 199.377C249.522 199.381 248.768 199.351 248.029 199.289C247.291 199.226 246.635 199.132 246.062 199.007C245.489 198.882 245.019 198.727 244.65 198.543C244.284 198.359 244.078 198.148 244.036 197.908L241.743 197.885C241.541 197.883 241.362 197.868 241.201 197.837C241.043 197.806 240.963 197.765 240.963 197.714L240.961 197.484L244.096 197.514C244.235 197.272 244.519 197.061 244.953 196.881C245.387 196.701 245.918 196.541 246.544 196.401L247.594 196.545C247.912 196.59 248.071 196.643 248.071 196.703C248.071 196.736 248.007 196.776 247.875 196.824C247.74 196.873 247.585 196.93 247.404 196.997C247.226 197.065 247.05 197.143 246.882 197.234C246.711 197.324 246.585 197.426 246.5 197.541L254.204 197.618ZM246.471 197.931C246.534 198.082 246.674 198.212 246.887 198.321C247.1 198.431 247.365 198.521 247.684 198.591C248.003 198.662 248.361 198.713 248.757 198.746C249.156 198.779 249.573 198.795 250.009 198.793C250.516 198.79 250.959 198.768 251.337 198.727C251.712 198.685 252.044 198.629 252.331 198.558C252.616 198.487 252.866 198.404 253.078 198.31C253.29 198.216 253.479 198.114 253.649 198.004L246.471 197.931ZM264.867 197.726C264.804 197.573 264.651 197.439 264.412 197.323C264.173 197.209 263.867 197.112 263.496 197.033C263.125 196.955 262.692 196.897 262.197 196.859C261.705 196.82 261.161 196.803 260.565 196.806C260.037 196.808 259.578 196.832 259.198 196.877C258.817 196.922 258.486 196.982 258.204 197.058C257.925 197.134 257.684 197.222 257.49 197.323C257.294 197.423 257.111 197.531 256.943 197.646L264.867 197.726Z" fill="#FCB048"/>
<path d="M256.545 194.566C245.517 194.566 234.034 195.54 232.198 197.425C232.27 197.491 232.337 197.562 232.399 197.637C233.947 196.328 243.428 195.011 256.545 195.011C269.999 195.011 279.632 196.397 280.799 197.738C280.856 197.664 280.918 197.594 280.984 197.528C279.467 195.576 267.769 194.566 256.545 194.566Z" fill="url(#paint20_linear_1057_59377)"/>
<path d="M224.933 191.656V197.161C224.933 198.94 236.006 200.381 249.666 200.381C263.326 200.381 274.399 198.94 274.399 197.161V191.656H224.933Z" fill="url(#paint21_linear_1057_59377)"/>
<path d="M249.666 194.877C263.325 194.877 274.398 193.435 274.398 191.656C274.398 189.878 263.325 188.436 249.666 188.436C236.006 188.436 224.933 189.878 224.933 191.656C224.933 193.435 236.006 194.877 249.666 194.877Z" fill="url(#paint22_linear_1057_59377)"/>
<path d="M249.666 195.099C237.569 195.099 224.919 193.94 224.919 191.703C224.919 191.581 224.962 191.365 225.085 191.365C225.207 191.365 225.154 191.534 225.154 191.656C225.154 193.075 235.221 194.655 249.666 194.655C264.111 194.655 274.177 193.075 274.177 191.656C274.177 191.534 274.198 191.418 274.32 191.418C274.443 191.418 274.413 191.582 274.413 191.705C274.413 193.942 261.763 195.099 249.666 195.099Z" fill="url(#paint23_linear_1057_59377)"/>
<path d="M247.329 191.836C247.572 191.667 247.83 191.501 248.106 191.337C248.38 191.173 248.737 191.025 249.169 190.893C249.603 190.76 250.147 190.653 250.799 190.569C251.451 190.486 252.267 190.441 253.241 190.437C254.197 190.432 255.094 190.462 255.933 190.528C256.77 190.594 257.509 190.692 258.147 190.822C258.782 190.953 259.301 191.114 259.701 191.306C260.098 191.498 260.335 191.719 260.411 191.967L263.196 191.995C263.398 191.996 263.577 192.013 263.73 192.045C263.886 192.076 263.961 192.117 263.961 192.165L263.962 192.396L260.382 192.361C260.257 192.643 259.937 192.901 259.422 193.134C258.91 193.368 258.256 193.571 257.459 193.742L256.155 193.56C256.038 193.542 255.943 193.519 255.867 193.492C255.792 193.464 255.756 193.434 255.755 193.402C255.755 193.358 255.856 193.307 256.058 193.25C256.26 193.194 256.487 193.123 256.741 193.039C256.994 192.956 257.242 192.857 257.488 192.743C257.731 192.629 257.893 192.493 257.978 192.335L249.528 192.25C249.306 192.414 249.055 192.575 248.781 192.734C248.505 192.892 248.14 193.034 247.685 193.161C247.23 193.287 246.663 193.39 245.985 193.469C245.304 193.548 244.452 193.59 243.421 193.595C242.646 193.599 241.892 193.569 241.154 193.507C240.415 193.444 239.759 193.35 239.186 193.225C238.613 193.1 238.143 192.946 237.775 192.762C237.409 192.577 237.203 192.366 237.16 192.127L234.868 192.103C234.665 192.102 234.487 192.086 234.326 192.055C234.168 192.024 234.087 191.984 234.087 191.933L234.086 191.703L237.22 191.733C237.359 191.49 237.643 191.279 238.077 191.099C238.512 190.919 239.042 190.759 239.668 190.619L240.718 190.763C241.037 190.808 241.195 190.861 241.195 190.921C241.196 190.954 241.131 190.994 240.999 191.043C240.865 191.091 240.71 191.149 240.528 191.216C240.35 191.283 240.174 191.362 240.006 191.452C239.836 191.542 239.709 191.645 239.624 191.759L247.329 191.836ZM239.595 192.149C239.658 192.3 239.799 192.43 240.012 192.539C240.225 192.649 240.489 192.739 240.808 192.809C241.127 192.88 241.485 192.931 241.882 192.964C242.281 192.997 242.698 193.013 243.133 193.011C243.641 193.008 244.084 192.986 244.461 192.945C244.837 192.903 245.168 192.847 245.455 192.776C245.74 192.705 245.991 192.622 246.203 192.528C246.415 192.434 246.603 192.332 246.774 192.222L239.595 192.149ZM257.992 191.944C257.929 191.791 257.775 191.657 257.536 191.542C257.298 191.427 256.991 191.33 256.621 191.252C256.25 191.173 255.817 191.115 255.322 191.077C254.829 191.039 254.285 191.021 253.69 191.024C253.161 191.026 252.703 191.05 252.322 191.095C251.942 191.14 251.61 191.2 251.328 191.276C251.049 191.352 250.809 191.44 250.615 191.541C250.418 191.642 250.235 191.75 250.067 191.864L257.992 191.944Z" fill="#FCB048"/>
<path d="M249.669 188.784C238.641 188.784 227.159 189.758 225.322 191.643C225.394 191.709 225.461 191.78 225.523 191.855C227.071 190.546 236.552 189.229 249.669 189.229C263.123 189.229 272.756 190.615 273.923 191.956C273.98 191.882 274.042 191.812 274.108 191.746C272.591 189.794 260.893 188.784 249.669 188.784Z" fill="url(#paint24_linear_1057_59377)"/>
<path d="M230.866 185.891V191.396C230.866 193.174 241.939 194.616 255.599 194.616C269.258 194.616 280.331 193.174 280.331 191.396V185.891H230.866Z" fill="url(#paint25_linear_1057_59377)"/>
<path d="M255.599 189.112C269.258 189.112 280.331 187.67 280.331 185.891C280.331 184.113 269.258 182.671 255.599 182.671C241.939 182.671 230.866 184.113 230.866 185.891C230.866 187.67 241.939 189.112 255.599 189.112Z" fill="url(#paint26_linear_1057_59377)"/>
<path d="M255.598 189.334C243.501 189.334 230.851 188.174 230.851 185.938C230.851 185.815 230.895 185.599 231.017 185.599C231.14 185.599 231.087 185.768 231.087 185.891C231.087 187.309 241.154 188.889 255.598 188.889C270.043 188.889 280.11 187.309 280.11 185.891C280.11 185.768 280.131 185.653 280.253 185.653C280.375 185.653 280.346 185.817 280.346 185.94C280.346 188.176 267.696 189.334 255.598 189.334Z" fill="url(#paint27_linear_1057_59377)"/>
<path d="M253.261 186.071C253.504 185.902 253.762 185.736 254.039 185.572C254.312 185.408 254.669 185.26 255.101 185.127C255.536 184.995 256.079 184.887 256.732 184.804C257.384 184.72 258.2 184.676 259.174 184.671C260.13 184.667 261.026 184.697 261.866 184.763C262.703 184.828 263.441 184.926 264.079 185.057C264.715 185.187 265.233 185.349 265.633 185.541C266.031 185.733 266.267 185.953 266.344 186.201L269.129 186.23C269.331 186.231 269.51 186.247 269.663 186.279C269.818 186.311 269.893 186.351 269.894 186.4L269.895 186.63L266.315 186.596C266.189 186.877 265.869 187.135 265.355 187.369C264.843 187.603 264.189 187.805 263.392 187.977L262.088 187.795C261.971 187.777 261.875 187.754 261.8 187.726C261.724 187.699 261.688 187.669 261.688 187.636C261.688 187.592 261.789 187.542 261.99 187.485C262.192 187.428 262.42 187.358 262.673 187.274C262.927 187.19 263.175 187.092 263.42 186.977C263.663 186.864 263.826 186.727 263.91 186.569L255.46 186.485C255.238 186.649 254.988 186.81 254.714 186.968C254.437 187.126 254.073 187.269 253.618 187.395C253.162 187.522 252.595 187.625 251.917 187.704C251.236 187.783 250.384 187.824 249.353 187.83C248.579 187.833 247.825 187.804 247.086 187.741C246.348 187.679 245.692 187.585 245.119 187.46C244.545 187.335 244.076 187.18 243.707 186.996C243.341 186.812 243.135 186.6 243.093 186.361L240.8 186.338C240.598 186.336 240.419 186.32 240.258 186.29C240.1 186.259 240.02 186.218 240.019 186.167L240.018 185.937L243.153 185.967C243.292 185.725 243.576 185.513 244.01 185.333C244.444 185.154 244.974 184.993 245.601 184.853L246.651 184.998C246.969 185.043 247.128 185.095 247.128 185.156C247.128 185.188 247.063 185.229 246.932 185.277C246.797 185.325 246.642 185.383 246.461 185.45C246.283 185.518 246.107 185.596 245.939 185.687C245.768 185.777 245.642 185.879 245.557 185.993L253.261 186.071ZM245.528 186.384C245.591 186.535 245.731 186.665 245.944 186.774C246.157 186.884 246.422 186.974 246.741 187.044C247.06 187.114 247.418 187.166 247.814 187.199C248.213 187.232 248.63 187.248 249.065 187.245C249.573 187.243 250.016 187.221 250.394 187.18C250.769 187.138 251.101 187.082 251.388 187.011C251.672 186.939 251.923 186.857 252.135 186.763C252.347 186.669 252.536 186.567 252.706 186.457L245.528 186.384ZM263.924 186.178C263.861 186.025 263.708 185.891 263.469 185.776C263.23 185.661 262.924 185.564 262.553 185.486C262.182 185.408 261.749 185.349 261.254 185.311C260.762 185.273 260.218 185.255 259.622 185.258C259.094 185.261 258.635 185.285 258.255 185.33C257.874 185.375 257.543 185.435 257.261 185.511C256.982 185.586 256.741 185.675 256.547 185.775C256.351 185.876 256.167 185.984 256 186.099L263.924 186.178Z" fill="#FCB048"/>
<path d="M255.602 183.019C244.574 183.019 233.091 183.993 231.255 185.878C231.327 185.944 231.393 186.015 231.455 186.09C233.004 184.781 242.485 183.463 255.602 183.463C269.055 183.463 278.689 184.85 279.856 186.191C279.913 186.117 279.974 186.047 280.041 185.981C278.524 184.029 266.826 183.019 255.602 183.019Z" fill="url(#paint28_linear_1057_59377)"/>
<path d="M227.78 180.11V185.614C227.78 187.393 238.853 188.835 252.513 188.835C266.172 188.835 277.245 187.393 277.245 185.614V180.11H227.78Z" fill="url(#paint29_linear_1057_59377)"/>
<path d="M252.513 183.33C266.172 183.33 277.246 181.888 277.246 180.11C277.246 178.331 266.172 176.889 252.513 176.889C238.853 176.889 227.78 178.331 227.78 180.11C227.78 181.888 238.853 183.33 252.513 183.33Z" fill="url(#paint30_linear_1057_59377)"/>
<path d="M252.512 183.552C240.415 183.552 227.765 182.393 227.765 180.156C227.765 180.034 227.809 179.818 227.931 179.818C228.054 179.818 228.001 179.987 228.001 180.11C228.001 181.528 238.068 183.108 252.512 183.108C266.957 183.108 277.024 181.528 277.024 180.11C277.024 179.987 277.045 179.872 277.167 179.872C277.289 179.872 277.26 180.036 277.26 180.158C277.26 182.395 264.61 183.552 252.512 183.552Z" fill="url(#paint31_linear_1057_59377)"/>
<path d="M252.515 177.238C241.488 177.238 230.005 178.211 228.168 180.096C228.24 180.163 228.307 180.234 228.369 180.308C229.917 179 239.399 177.682 252.515 177.682C265.969 177.682 275.602 179.068 276.769 180.409C276.827 180.336 276.888 180.265 276.954 180.199C275.437 178.247 263.739 177.238 252.515 177.238Z" fill="url(#paint32_linear_1057_59377)"/>
<path d="M134.021 219.025V226.984C134.021 229.555 150.03 231.64 169.778 231.64C189.527 231.64 205.536 229.555 205.536 226.984V219.025H134.021Z" fill="url(#paint33_linear_1057_59377)"/>
<path d="M205.535 219.025C205.535 221.597 189.526 223.682 169.777 223.682C150.029 223.682 134.02 221.597 134.02 219.025C134.02 216.454 150.029 214.369 169.777 214.369C189.526 214.369 205.535 216.454 205.535 219.025Z" fill="url(#paint34_linear_1057_59377)"/>
<path d="M169.778 224.002C152.289 224.002 134 222.326 134 219.093C134 218.916 134.063 218.604 134.24 218.604C134.417 218.604 134.341 218.848 134.341 219.025C134.341 221.076 148.895 223.36 169.778 223.36C190.662 223.36 205.216 221.076 205.216 219.025C205.216 218.848 205.246 218.681 205.423 218.681C205.6 218.681 205.557 218.918 205.557 219.096C205.557 222.329 187.268 224.002 169.778 224.002Z" fill="url(#paint35_linear_1057_59377)"/>
<path d="M166.4 219.285C166.751 219.041 167.124 218.801 167.524 218.564C167.919 218.326 168.435 218.112 169.06 217.921C169.688 217.73 170.474 217.574 171.417 217.453C172.36 217.333 173.539 217.269 174.948 217.262C176.33 217.255 177.626 217.299 178.839 217.394C180.05 217.489 181.118 217.631 182.04 217.819C182.958 218.008 183.709 218.241 184.287 218.519C184.861 218.797 185.203 219.115 185.314 219.474L189.34 219.515C189.632 219.517 189.891 219.54 190.112 219.586C190.337 219.632 190.446 219.691 190.446 219.761L190.448 220.094L185.272 220.044C185.09 220.451 184.628 220.824 183.884 221.162C183.144 221.5 182.198 221.793 181.046 222.04L179.16 221.777C178.992 221.752 178.853 221.719 178.744 221.679C178.635 221.639 178.583 221.596 178.583 221.548C178.582 221.484 178.728 221.412 179.02 221.33C179.311 221.248 179.64 221.146 180.007 221.025C180.373 220.904 180.732 220.761 181.087 220.596C181.438 220.431 181.673 220.235 181.796 220.006L169.579 219.884C169.258 220.121 168.896 220.354 168.5 220.583C168.1 220.811 167.573 221.017 166.915 221.2C166.256 221.383 165.437 221.532 164.456 221.646C163.472 221.76 162.24 221.82 160.75 221.828C159.63 221.833 158.54 221.791 157.472 221.7C156.404 221.61 155.456 221.474 154.627 221.294C153.799 221.113 153.12 220.889 152.587 220.623C152.057 220.357 151.76 220.051 151.698 219.705L148.384 219.671C148.092 219.669 147.833 219.646 147.601 219.602C147.372 219.557 147.256 219.498 147.255 219.425L147.254 219.092L151.785 219.135C151.986 218.785 152.396 218.479 153.024 218.219C153.652 217.959 154.419 217.728 155.324 217.525L156.842 217.734C157.303 217.799 157.532 217.875 157.532 217.962C157.533 218.01 157.439 218.068 157.249 218.138C157.054 218.208 156.83 218.291 156.568 218.388C156.31 218.485 156.056 218.599 155.813 218.73C155.567 218.86 155.384 219.008 155.261 219.173L166.4 219.285ZM155.219 219.738C155.31 219.956 155.513 220.144 155.821 220.302C156.129 220.46 156.511 220.59 156.973 220.692C157.434 220.794 157.951 220.869 158.524 220.916C159.101 220.964 159.704 220.986 160.333 220.983C161.067 220.98 161.708 220.948 162.254 220.888C162.797 220.828 163.276 220.747 163.691 220.644C164.103 220.541 164.465 220.422 164.772 220.286C165.078 220.15 165.351 220.002 165.597 219.843L155.219 219.738ZM181.816 219.441C181.725 219.22 181.503 219.026 181.157 218.859C180.812 218.693 180.369 218.553 179.833 218.44C179.297 218.327 178.671 218.242 177.956 218.187C177.244 218.132 176.457 218.106 175.596 218.111C174.832 218.114 174.169 218.149 173.619 218.213C173.069 218.279 172.59 218.365 172.182 218.475C171.778 218.585 171.43 218.712 171.15 218.858C170.866 219.004 170.601 219.16 170.359 219.326L181.816 219.441Z" fill="#FCB048"/>
<path d="M169.783 214.873C153.839 214.873 137.238 216.281 134.583 219.006C134.687 219.102 134.783 219.205 134.873 219.313C137.111 217.42 150.819 215.515 169.783 215.515C189.233 215.515 203.161 217.52 204.848 219.459C204.931 219.352 205.019 219.25 205.115 219.155C202.922 216.333 186.009 214.873 169.783 214.873Z" fill="url(#paint36_linear_1057_59377)"/>
<path d="M142.597 210.691V218.649C142.597 221.221 158.606 223.305 178.355 223.305C198.103 223.305 214.112 221.221 214.112 218.649V210.691H142.597Z" fill="url(#paint37_linear_1057_59377)"/>
<path d="M214.112 210.691C214.112 213.262 198.103 215.347 178.355 215.347C158.607 215.347 142.597 213.262 142.597 210.691C142.597 208.119 158.606 206.034 178.355 206.034C198.103 206.034 214.112 208.119 214.112 210.691Z" fill="url(#paint38_linear_1057_59377)"/>
<path d="M178.355 215.668C160.865 215.668 142.576 213.992 142.576 210.759C142.576 210.581 142.64 210.269 142.816 210.269C142.993 210.269 142.917 210.513 142.917 210.691C142.917 212.741 157.471 215.025 178.355 215.025C199.239 215.025 213.792 212.741 213.792 210.691C213.792 210.513 213.822 210.347 213.999 210.347C214.176 210.347 214.134 210.584 214.134 210.761C214.134 213.994 195.844 215.668 178.355 215.668Z" fill="url(#paint39_linear_1057_59377)"/>
<path d="M174.976 210.95C175.327 210.706 175.7 210.466 176.1 210.229C176.496 209.992 177.011 209.778 177.636 209.586C178.264 209.395 179.05 209.239 179.993 209.118C180.936 208.998 182.116 208.934 183.524 208.927C184.906 208.92 186.202 208.965 187.416 209.059C188.626 209.154 189.694 209.296 190.616 209.485C191.535 209.673 192.285 209.907 192.863 210.184C193.437 210.462 193.78 210.78 193.89 211.139L197.916 211.18C198.208 211.182 198.467 211.206 198.688 211.252C198.913 211.298 199.022 211.356 199.022 211.426L199.024 211.759L193.848 211.709C193.666 212.117 193.204 212.489 192.46 212.827C191.72 213.165 190.774 213.458 189.622 213.706L187.737 213.443C187.568 213.417 187.429 213.384 187.321 213.344C187.212 213.304 187.159 213.261 187.159 213.214C187.158 213.15 187.304 213.077 187.596 212.995C187.888 212.913 188.217 212.811 188.583 212.69C188.95 212.569 189.308 212.426 189.663 212.261C190.015 212.097 190.25 211.9 190.372 211.671L178.155 211.549C177.834 211.786 177.472 212.019 177.076 212.248C176.676 212.477 176.149 212.683 175.491 212.866C174.833 213.048 174.013 213.197 173.033 213.311C172.048 213.425 170.816 213.486 169.326 213.493C168.206 213.499 167.116 213.456 166.048 213.366C164.98 213.275 164.032 213.139 163.204 212.959C162.375 212.778 161.696 212.554 161.163 212.288C160.634 212.022 160.336 211.716 160.275 211.37L156.96 211.336C156.668 211.334 156.409 211.311 156.177 211.267C155.948 211.223 155.832 211.164 155.831 211.09L155.83 210.757L160.362 210.8C160.562 210.45 160.973 210.144 161.601 209.885C162.229 209.624 162.995 209.393 163.901 209.19L165.418 209.399C165.879 209.464 166.108 209.54 166.109 209.628C166.109 209.675 166.015 209.733 165.825 209.803C165.63 209.873 165.406 209.956 165.144 210.053C164.886 210.151 164.632 210.264 164.39 210.395C164.143 210.525 163.96 210.673 163.837 210.839L174.976 210.95ZM163.795 211.403C163.886 211.622 164.089 211.809 164.397 211.967C164.705 212.126 165.088 212.256 165.549 212.357C166.01 212.459 166.527 212.534 167.1 212.582C167.677 212.629 168.281 212.652 168.91 212.649C169.644 212.645 170.284 212.613 170.83 212.553C171.373 212.493 171.852 212.412 172.267 212.309C172.679 212.206 173.042 212.087 173.348 211.951C173.654 211.815 173.927 211.668 174.173 211.509L163.795 211.403ZM190.392 211.106C190.301 210.885 190.079 210.691 189.734 210.525C189.388 210.359 188.946 210.218 188.41 210.105C187.873 209.992 187.248 209.908 186.532 209.853C185.82 209.797 185.033 209.772 184.172 209.776C183.408 209.78 182.745 209.814 182.195 209.879C181.645 209.944 181.166 210.031 180.758 210.141C180.354 210.25 180.007 210.378 179.727 210.523C179.443 210.669 179.178 210.825 178.935 210.991L190.392 211.106Z" fill="#FCB048"/>
<path d="M178.36 206.538C162.416 206.538 145.815 207.946 143.16 210.671C143.264 210.767 143.36 210.87 143.45 210.978C145.688 209.086 159.396 207.181 178.36 207.181C197.811 207.181 211.738 209.185 213.425 211.124C213.508 211.018 213.597 210.916 213.692 210.82C211.499 207.998 194.587 206.538 178.36 206.538Z" fill="url(#paint40_linear_1057_59377)"/>
<path d="M147.803 202.331V210.29C147.803 212.861 163.812 214.946 183.561 214.946C203.309 214.946 219.318 212.861 219.318 210.29V202.331H147.803Z" fill="url(#paint41_linear_1057_59377)"/>
<path d="M183.559 206.987C203.308 206.987 219.317 204.903 219.317 202.331C219.317 199.759 203.308 197.675 183.559 197.675C163.811 197.675 147.802 199.759 147.802 202.331C147.802 204.903 163.811 206.987 183.559 206.987Z" fill="url(#paint42_linear_1057_59377)"/>
<path d="M183.56 207.308C166.07 207.308 147.781 205.632 147.781 202.399C147.781 202.221 147.845 201.909 148.022 201.909C148.199 201.909 148.122 202.153 148.122 202.331C148.122 204.381 162.676 206.666 183.56 206.666C204.444 206.666 218.997 204.381 218.997 202.331C218.997 202.153 219.027 201.987 219.204 201.987C219.381 201.987 219.339 202.224 219.339 202.401C219.339 205.635 201.05 207.308 183.56 207.308Z" fill="url(#paint43_linear_1057_59377)"/>
<path d="M180.181 202.591C180.532 202.347 180.905 202.107 181.305 201.869C181.701 201.632 182.216 201.418 182.841 201.227C183.469 201.035 184.255 200.88 185.198 200.759C186.141 200.638 187.321 200.575 188.729 200.568C190.111 200.561 191.407 200.605 192.621 200.7C193.831 200.795 194.899 200.937 195.821 201.125C196.74 201.314 197.49 201.547 198.068 201.825C198.642 202.103 198.985 202.421 199.095 202.78L203.121 202.821C203.413 202.823 203.672 202.846 203.893 202.892C204.118 202.938 204.227 202.997 204.227 203.067L204.229 203.4L199.053 203.35C198.871 203.757 198.409 204.13 197.665 204.468C196.925 204.806 195.979 205.099 194.827 205.346L192.942 205.083C192.773 205.057 192.634 205.025 192.525 204.984C192.417 204.945 192.364 204.902 192.364 204.854C192.363 204.791 192.509 204.718 192.801 204.636C193.093 204.553 193.422 204.452 193.788 204.331C194.155 204.21 194.513 204.067 194.868 203.902C195.22 203.737 195.455 203.541 195.577 203.311L183.36 203.19C183.039 203.427 182.677 203.66 182.281 203.888C181.881 204.117 181.354 204.323 180.696 204.506C180.038 204.689 179.218 204.838 178.238 204.952C177.253 205.066 176.021 205.127 174.531 205.134C173.411 205.139 172.321 205.097 171.253 205.006C170.185 204.916 169.237 204.78 168.408 204.6C167.58 204.419 166.901 204.195 166.368 203.929C165.839 203.663 165.541 203.357 165.48 203.011L162.165 202.977C161.873 202.975 161.614 202.952 161.382 202.908C161.153 202.863 161.037 202.804 161.036 202.73L161.035 202.398L165.567 202.441C165.767 202.091 166.178 201.785 166.806 201.525C167.434 201.265 168.2 201.034 169.106 200.831L170.623 201.04C171.084 201.105 171.313 201.181 171.314 201.268C171.314 201.316 171.22 201.374 171.03 201.444C170.836 201.514 170.611 201.597 170.349 201.694C170.091 201.791 169.837 201.905 169.595 202.036C169.348 202.166 169.165 202.314 169.042 202.479L180.181 202.591ZM169 203.044C169.091 203.262 169.294 203.45 169.602 203.608C169.91 203.766 170.293 203.896 170.754 203.998C171.215 204.1 171.732 204.175 172.305 204.222C172.882 204.27 173.485 204.292 174.115 204.289C174.849 204.286 175.489 204.254 176.035 204.194C176.578 204.134 177.057 204.053 177.472 203.95C177.884 203.847 178.247 203.728 178.553 203.592C178.859 203.456 179.132 203.308 179.379 203.149L169 203.044ZM195.597 202.747C195.506 202.526 195.284 202.332 194.939 202.165C194.593 201.999 194.151 201.859 193.614 201.746C193.078 201.633 192.453 201.548 191.737 201.493C191.025 201.438 190.238 201.412 189.377 201.417C188.613 201.42 187.95 201.455 187.4 201.519C186.85 201.585 186.371 201.671 185.963 201.781C185.559 201.891 185.212 202.018 184.932 202.164C184.648 202.31 184.382 202.466 184.14 202.632L195.597 202.747Z" fill="#FCB048"/>
<path d="M183.565 198.179C167.621 198.179 151.02 199.587 148.365 202.312C148.469 202.408 148.566 202.511 148.655 202.619C150.893 200.726 164.601 198.821 183.565 198.821C203.016 198.821 216.943 200.826 218.63 202.764C218.713 202.658 218.802 202.556 218.898 202.461C216.704 199.639 199.792 198.179 183.565 198.179Z" fill="url(#paint44_linear_1057_59377)"/>
<path d="M143.961 193.312V201.271C143.961 203.842 159.97 205.927 179.719 205.927C199.467 205.927 215.476 203.842 215.476 201.271V193.312H143.961Z" fill="url(#paint45_linear_1057_59377)"/>
<path d="M215.476 193.312C215.476 195.884 199.467 197.969 179.719 197.969C159.97 197.969 143.961 195.884 143.961 193.312C143.961 190.741 159.97 188.656 179.719 188.656C199.467 188.656 215.476 190.741 215.476 193.312Z" fill="url(#paint46_linear_1057_59377)"/>
<path d="M179.718 198.29C162.228 198.29 143.94 196.614 143.94 193.381C143.94 193.203 144.003 192.891 144.18 192.891C144.357 192.891 144.281 193.135 144.281 193.313C144.281 195.363 158.834 197.647 179.718 197.647C200.602 197.647 215.155 195.363 215.155 193.313C215.155 193.135 215.186 192.969 215.363 192.969C215.539 192.969 215.497 193.206 215.497 193.383C215.497 196.616 197.208 198.29 179.718 198.29Z" fill="url(#paint47_linear_1057_59377)"/>
<path d="M176.339 193.572C176.69 193.328 177.064 193.088 177.463 192.851C177.859 192.614 178.375 192.399 178.999 192.208C179.627 192.017 180.413 191.861 181.356 191.74C182.3 191.62 183.479 191.556 184.887 191.549C186.269 191.542 187.565 191.586 188.779 191.681C189.989 191.776 191.057 191.918 191.979 192.106C192.898 192.295 193.648 192.528 194.226 192.806C194.801 193.084 195.143 193.402 195.253 193.761L199.28 193.802C199.572 193.804 199.83 193.827 200.051 193.874C200.276 193.92 200.385 193.978 200.386 194.048L200.387 194.381L195.211 194.331C195.03 194.738 194.567 195.111 193.823 195.449C193.084 195.787 192.137 196.08 190.985 196.328L189.1 196.065C188.931 196.039 188.793 196.006 188.684 195.966C188.575 195.926 188.522 195.883 188.522 195.836C188.522 195.772 188.667 195.699 188.959 195.617C189.251 195.535 189.58 195.433 189.946 195.312C190.313 195.191 190.672 195.048 191.027 194.883C191.378 194.719 191.613 194.522 191.735 194.293L179.518 194.171C179.197 194.408 178.835 194.641 178.439 194.87C178.04 195.099 177.512 195.305 176.854 195.487C176.196 195.67 175.376 195.819 174.396 195.933C173.411 196.047 172.18 196.108 170.689 196.115C169.569 196.121 168.479 196.078 167.411 195.988C166.343 195.897 165.395 195.761 164.567 195.581C163.738 195.4 163.059 195.176 162.526 194.91C161.997 194.644 161.699 194.338 161.638 193.992L158.323 193.958C158.031 193.956 157.773 193.933 157.54 193.889C157.312 193.845 157.195 193.786 157.195 193.712L157.193 193.379L161.725 193.422C161.926 193.072 162.336 192.766 162.964 192.507C163.592 192.246 164.358 192.015 165.264 191.812L166.782 192.021C167.243 192.086 167.471 192.162 167.472 192.25C167.472 192.297 167.379 192.355 167.188 192.425C166.994 192.495 166.769 192.578 166.508 192.675C166.25 192.773 165.996 192.886 165.753 193.017C165.506 193.147 165.323 193.295 165.201 193.461L176.339 193.572ZM165.158 194.025C165.25 194.243 165.453 194.431 165.76 194.589C166.068 194.748 166.451 194.877 166.912 194.979C167.373 195.081 167.89 195.156 168.464 195.203C169.041 195.251 169.644 195.273 170.273 195.27C171.007 195.267 171.647 195.235 172.194 195.175C172.737 195.115 173.215 195.034 173.631 194.931C174.042 194.828 174.405 194.709 174.711 194.573C175.018 194.437 175.29 194.29 175.537 194.13L165.158 194.025ZM191.755 193.728C191.664 193.507 191.442 193.313 191.097 193.147C190.752 192.98 190.309 192.84 189.773 192.727C189.237 192.614 188.611 192.529 187.895 192.474C187.183 192.419 186.397 192.394 185.535 192.398C184.772 192.402 184.109 192.436 183.559 192.501C183.008 192.566 182.529 192.653 182.122 192.762C181.718 192.872 181.37 193 181.09 193.145C180.806 193.291 180.541 193.447 180.298 193.613L191.755 193.728Z" fill="#FCB048"/>
<path d="M179.723 189.16C163.78 189.16 147.178 190.568 144.523 193.293C144.627 193.389 144.724 193.492 144.813 193.6C147.052 191.708 160.759 189.803 179.723 189.803C199.174 189.803 213.101 191.807 214.788 193.746C214.871 193.639 214.96 193.538 215.056 193.442C212.863 190.62 195.95 189.16 179.723 189.16Z" fill="url(#paint48_linear_1057_59377)"/>
<path d="M134.021 184.953V192.911C134.021 195.483 150.03 197.567 169.778 197.567C189.527 197.567 205.536 195.483 205.536 192.911V184.953H134.021Z" fill="url(#paint49_linear_1057_59377)"/>
<path d="M169.777 189.609C189.526 189.609 205.535 187.525 205.535 184.953C205.535 182.382 189.526 180.297 169.777 180.297C150.029 180.297 134.02 182.382 134.02 184.953C134.02 187.525 150.029 189.609 169.777 189.609Z" fill="url(#paint50_linear_1057_59377)"/>
<path d="M169.778 189.931C152.289 189.931 134 188.254 134 185.021C134 184.844 134.063 184.531 134.24 184.531C134.417 184.531 134.341 184.776 134.341 184.953C134.341 187.004 148.895 189.288 169.778 189.288C190.662 189.288 205.216 187.004 205.216 184.953C205.216 184.776 205.246 184.609 205.423 184.609C205.6 184.609 205.557 184.846 205.557 185.024C205.557 188.257 187.268 189.931 169.778 189.931Z" fill="url(#paint51_linear_1057_59377)"/>
<path d="M166.4 185.213C166.751 184.969 167.124 184.729 167.524 184.491C167.919 184.254 168.435 184.04 169.06 183.849C169.688 183.658 170.474 183.502 171.417 183.381C172.36 183.26 173.539 183.197 174.948 183.19C176.33 183.183 177.626 183.227 178.839 183.322C180.05 183.417 181.118 183.559 182.04 183.747C182.958 183.936 183.709 184.169 184.287 184.447C184.861 184.725 185.203 185.043 185.314 185.402L189.34 185.443C189.632 185.445 189.891 185.468 190.112 185.514C190.337 185.56 190.446 185.619 190.446 185.689L190.448 186.022L185.272 185.972C185.09 186.379 184.628 186.752 183.884 187.09C183.144 187.428 182.198 187.721 181.046 187.969L179.16 187.705C178.992 187.68 178.853 187.647 178.744 187.607C178.635 187.567 178.583 187.524 178.583 187.477C178.582 187.413 178.728 187.34 179.02 187.258C179.311 187.176 179.64 187.074 180.007 186.953C180.373 186.832 180.732 186.689 181.087 186.524C181.438 186.359 181.673 186.163 181.796 185.934L169.579 185.812C169.258 186.049 168.896 186.282 168.5 186.51C168.1 186.739 167.573 186.945 166.915 187.128C166.256 187.311 165.437 187.46 164.456 187.574C163.472 187.688 162.24 187.749 160.75 187.756C159.63 187.761 158.54 187.719 157.472 187.628C156.404 187.538 155.456 187.402 154.627 187.222C153.799 187.041 153.12 186.817 152.587 186.551C152.057 186.285 151.76 185.979 151.698 185.633L148.384 185.599C148.092 185.597 147.833 185.574 147.601 185.53C147.372 185.485 147.256 185.426 147.255 185.353L147.254 185.02L151.785 185.063C151.986 184.713 152.396 184.407 153.024 184.147C153.652 183.887 154.419 183.656 155.324 183.453L156.842 183.662C157.303 183.727 157.532 183.803 157.532 183.891C157.533 183.938 157.439 183.996 157.249 184.066C157.054 184.136 156.83 184.219 156.568 184.316C156.31 184.413 156.056 184.527 155.813 184.658C155.567 184.788 155.384 184.936 155.261 185.102L166.4 185.213ZM155.219 185.666C155.31 185.884 155.513 186.072 155.821 186.23C156.129 186.388 156.511 186.518 156.973 186.62C157.434 186.722 157.951 186.797 158.524 186.844C159.101 186.892 159.704 186.914 160.333 186.911C161.067 186.908 161.708 186.876 162.254 186.816C162.797 186.756 163.276 186.675 163.691 186.572C164.103 186.469 164.465 186.35 164.772 186.214C165.078 186.078 165.351 185.93 165.597 185.771L155.219 185.666ZM181.816 185.369C181.725 185.148 181.503 184.954 181.157 184.787C180.812 184.621 180.369 184.481 179.833 184.368C179.297 184.255 178.671 184.17 177.956 184.115C177.244 184.06 176.457 184.034 175.596 184.039C174.832 184.042 174.169 184.077 173.619 184.141C173.069 184.207 172.59 184.293 172.182 184.403C171.778 184.513 171.43 184.64 171.15 184.786C170.866 184.932 170.601 185.088 170.359 185.254L181.816 185.369Z" fill="#FCB048"/>
<path d="M169.783 180.801C153.839 180.801 137.238 182.209 134.583 184.934C134.687 185.03 134.783 185.133 134.873 185.24C137.111 183.348 150.819 181.443 169.783 181.443C189.233 181.443 203.161 183.448 204.848 185.386C204.931 185.28 205.019 185.178 205.115 185.082C202.922 182.261 186.009 180.801 169.783 180.801Z" fill="url(#paint52_linear_1057_59377)"/>
<path d="M142.597 176.618V184.577C142.597 187.148 158.606 189.233 178.355 189.233C198.103 189.233 214.112 187.148 214.112 184.577V176.618H142.597Z" fill="url(#paint53_linear_1057_59377)"/>
<path d="M178.355 181.275C198.103 181.275 214.112 179.19 214.112 176.618C214.112 174.047 198.103 171.962 178.355 171.962C158.606 171.962 142.597 174.047 142.597 176.618C142.597 179.19 158.606 181.275 178.355 181.275Z" fill="url(#paint54_linear_1057_59377)"/>
<path d="M178.355 181.596C160.865 181.596 142.576 179.919 142.576 176.686C142.576 176.509 142.64 176.197 142.816 176.197C142.993 176.197 142.917 176.441 142.917 176.618C142.917 178.669 157.471 180.953 178.355 180.953C199.239 180.953 213.792 178.669 213.792 176.618C213.792 176.441 213.822 176.274 213.999 176.274C214.176 176.274 214.134 176.511 214.134 176.689C214.134 179.922 195.844 181.596 178.355 181.596Z" fill="url(#paint55_linear_1057_59377)"/>
<path d="M174.976 176.878C175.327 176.634 175.7 176.394 176.1 176.156C176.496 175.919 177.011 175.705 177.636 175.514C178.264 175.322 179.05 175.167 179.993 175.046C180.936 174.925 182.116 174.862 183.524 174.855C184.906 174.848 186.202 174.892 187.416 174.987C188.626 175.081 189.694 175.223 190.616 175.412C191.535 175.601 192.285 175.834 192.863 176.111C193.437 176.39 193.78 176.708 193.89 177.067L197.916 177.108C198.208 177.109 198.467 177.133 198.688 177.179C198.913 177.225 199.022 177.283 199.022 177.354L199.024 177.687L193.848 177.637C193.666 178.044 193.204 178.417 192.46 178.755C191.72 179.093 190.774 179.386 189.622 179.633L187.737 179.37C187.568 179.344 187.429 179.311 187.321 179.271C187.212 179.232 187.159 179.188 187.159 179.141C187.158 179.077 187.304 179.004 187.596 178.923C187.888 178.84 188.217 178.739 188.583 178.617C188.95 178.497 189.308 178.354 189.663 178.189C190.015 178.024 190.25 177.827 190.372 177.598L178.155 177.477C177.834 177.714 177.472 177.946 177.076 178.175C176.676 178.404 176.149 178.61 175.491 178.793C174.833 178.976 174.013 179.124 173.033 179.239C172.048 179.353 170.816 179.413 169.326 179.421C168.206 179.426 167.116 179.383 166.048 179.293C164.98 179.202 164.032 179.067 163.204 178.886C162.375 178.705 161.696 178.482 161.163 178.216C160.634 177.949 160.336 177.644 160.275 177.298L156.96 177.264C156.668 177.262 156.409 177.239 156.177 177.194C155.948 177.15 155.832 177.091 155.831 177.017L155.83 176.685L160.362 176.728C160.562 176.377 160.973 176.072 161.601 175.812C162.229 175.552 162.995 175.32 163.901 175.118L165.418 175.327C165.879 175.392 166.108 175.468 166.109 175.555C166.109 175.602 166.015 175.661 165.825 175.73C165.63 175.8 165.406 175.884 165.144 175.981C164.886 176.078 164.632 176.192 164.39 176.322C164.143 176.453 163.96 176.601 163.837 176.766L174.976 176.878ZM163.795 177.331C163.886 177.549 164.089 177.737 164.397 177.895C164.705 178.053 165.088 178.183 165.549 178.285C166.01 178.387 166.527 178.461 167.1 178.509C167.677 178.557 168.281 178.579 168.91 178.576C169.644 178.572 170.284 178.541 170.83 178.481C171.373 178.421 171.852 178.34 172.267 178.237C172.679 178.134 173.042 178.015 173.348 177.879C173.654 177.743 173.927 177.595 174.173 177.436L163.795 177.331ZM190.392 177.033C190.301 176.812 190.079 176.619 189.734 176.452C189.388 176.286 188.946 176.146 188.41 176.033C187.873 175.919 187.248 175.835 186.532 175.78C185.82 175.725 185.033 175.699 184.172 175.703C183.408 175.707 182.745 175.742 182.195 175.806C181.645 175.871 181.166 175.958 180.758 176.068C180.354 176.178 180.007 176.305 179.727 176.451C179.443 176.597 179.178 176.753 178.935 176.919L190.392 177.033Z" fill="#FCB048"/>
<path d="M178.36 172.466C162.416 172.466 145.815 173.874 143.16 176.599C143.264 176.695 143.36 176.798 143.45 176.906C145.688 175.014 159.396 173.109 178.36 173.109C197.811 173.109 211.738 175.113 213.425 177.052C213.508 176.945 213.597 176.843 213.692 176.748C211.499 173.926 194.587 172.466 178.36 172.466Z" fill="url(#paint56_linear_1057_59377)"/>
<path d="M138.136 168.259V176.218C138.136 178.789 154.146 180.874 173.894 180.874C193.642 180.874 209.652 178.789 209.652 176.218V168.259H138.136Z" fill="url(#paint57_linear_1057_59377)"/>
<path d="M173.894 172.916C193.643 172.916 209.652 170.831 209.652 168.259C209.652 165.688 193.643 163.603 173.894 163.603C154.146 163.603 138.136 165.688 138.136 168.259C138.136 170.831 154.146 172.916 173.894 172.916Z" fill="url(#paint58_linear_1057_59377)"/>
<path d="M173.894 173.237C156.404 173.237 138.116 171.56 138.116 168.327C138.116 168.15 138.179 167.838 138.356 167.838C138.533 167.838 138.457 168.082 138.457 168.259C138.457 170.31 153.01 172.594 173.894 172.594C194.778 172.594 209.332 170.31 209.332 168.259C209.332 168.082 209.362 167.915 209.539 167.915C209.716 167.915 209.673 168.152 209.673 168.33C209.673 171.563 191.384 173.237 173.894 173.237Z" fill="url(#paint59_linear_1057_59377)"/>
<path d="M173.897 164.107C157.954 164.107 141.353 165.515 138.698 168.24C138.801 168.336 138.898 168.439 138.988 168.547C141.226 166.654 154.934 164.749 173.898 164.749C193.348 164.749 207.276 166.754 208.963 168.692C209.046 168.586 209.134 168.484 209.23 168.389C207.037 165.567 190.124 164.107 173.897 164.107Z" fill="url(#paint60_linear_1057_59377)"/>
<path d="M283.759 140.559C283.759 159.425 269.058 174.266 250.267 173.687C230.712 173.084 214.266 156.138 214.266 135.858C214.266 115.578 230.712 100.857 250.267 102.9C269.058 104.863 283.759 121.693 283.759 140.559Z" fill="url(#paint61_linear_1057_59377)"/>
<path d="M288.837 138.933C288.837 157.798 274.135 172.639 255.345 172.06C235.789 171.458 219.343 154.511 219.343 134.231C219.343 113.952 235.789 99.2302 255.345 101.273C274.135 103.237 288.837 120.067 288.837 138.933Z" fill="url(#paint62_linear_1057_59377)"/>
<path d="M287.362 138.833C287.362 156.868 273.295 171.031 255.345 170.448C236.698 169.842 221.042 153.669 221.042 134.346C221.042 115.023 236.698 100.969 255.345 102.886C273.295 104.731 287.362 120.798 287.362 138.833Z" fill="url(#paint63_linear_1057_59377)"/>
<path d="M286.305 138.761C286.305 156.201 272.694 169.881 255.344 169.296C237.345 168.69 222.251 153.07 222.251 134.428C222.251 115.787 237.345 102.209 255.344 104.037C272.694 105.8 286.305 121.321 286.305 138.761Z" fill="url(#paint64_linear_1057_59377)"/>
<path opacity="0.3" d="M249.742 143.032C250.788 132.665 260.283 128.276 259.044 118.74C258.28 112.863 253.84 107.91 248.888 104.042C233.867 105.623 222.251 118.104 222.251 134.428C222.251 153.07 237.345 168.69 255.344 169.296C257.092 169.355 258.799 169.264 260.458 169.046C253.31 161.908 248.843 151.938 249.742 143.032Z" fill="url(#paint65_linear_1057_59377)"/>
<path d="M238.228 134.323C238.228 132.185 239.981 130.046 242.651 130.046C245.321 130.046 246.997 132.183 246.997 134.323V138.635C246.997 142.377 250.048 145.659 254.09 145.659C258.131 145.659 261.182 142.377 261.182 138.635V134.323C261.182 132.185 262.936 130.046 265.605 130.046C268.275 130.046 269.951 132.183 269.951 134.323V138.635C269.951 146.574 263.47 154.134 254.09 154.134C244.709 154.134 238.228 146.574 238.228 138.635V134.323Z" fill="#307CFE"/>
<path d="M242.644 128.065C245.083 128.065 247.059 126.085 247.059 123.644C247.059 121.202 245.083 119.223 242.644 119.223C240.205 119.223 238.228 121.202 238.228 123.644C238.228 126.085 240.205 128.065 242.644 128.065Z" fill="#307CFE"/>
<path d="M265.533 128.065C267.971 128.065 269.948 126.085 269.948 123.644C269.948 121.202 267.971 119.223 265.533 119.223C263.094 119.223 261.117 121.202 261.117 123.644C261.117 126.085 263.094 128.065 265.533 128.065Z" fill="#307CFE"/>
</g>
<defs>
<linearGradient id="paint0_linear_1057_59377" x1="239.609" y1="75.2744" x2="130.204" y2="221.502" gradientUnits="userSpaceOnUse">
<stop stop-color="#AACAFF"/>
<stop offset="1" stop-color="#DEEAFF"/>
</linearGradient>
<linearGradient id="paint1_linear_1057_59377" x1="299.628" y1="84.0262" x2="87.3999" y2="387.05" gradientUnits="userSpaceOnUse">
<stop stop-color="#C4DAFF"/>
<stop offset="1" stop-color="#A0C0F4"/>
</linearGradient>
<linearGradient id="paint2_linear_1057_59377" x1="256.295" y1="218.936" x2="259.316" y2="244.135" gradientUnits="userSpaceOnUse">
<stop stop-color="#FFDB44"/>
<stop offset="1" stop-color="#FEEF06"/>
</linearGradient>
<linearGradient id="paint3_linear_1057_59377" x1="256.165" y1="217.812" x2="257.092" y2="225.551" gradientUnits="userSpaceOnUse">
<stop stop-color="#FFDB44"/>
<stop offset="1" stop-color="#FEEF06"/>
</linearGradient>
<linearGradient id="paint4_linear_1057_59377" x1="257.031" y1="224.74" x2="256.107" y2="217.029" gradientUnits="userSpaceOnUse">
<stop offset="0.0036" stop-color="#F36F56"/>
<stop offset="0.3059" stop-color="#F99C4C"/>
<stop offset="0.545" stop-color="#FDB946"/>
<stop offset="0.6817" stop-color="#FFC444"/>
<stop offset="0.8038" stop-color="#FFC244"/>
<stop offset="0.8667" stop-color="#FEBA46"/>
<stop offset="0.916" stop-color="#FCAD49"/>
<stop offset="0.958" stop-color="#F99A4D"/>
<stop offset="0.9955" stop-color="#F58152"/>
<stop offset="1" stop-color="#F57E53"/>
</linearGradient>
<linearGradient id="paint5_linear_1057_59377" x1="220.705" y1="219.586" x2="277.612" y2="219.586" gradientUnits="userSpaceOnUse">
<stop stop-color="#FCB148"/>
<stop offset="0.0521" stop-color="#FDBA46"/>
<stop offset="0.1424" stop-color="#FFC244"/>
<stop offset="0.3183" stop-color="#FFC444"/>
<stop offset="0.4849" stop-color="#FDB946"/>
<stop offset="0.7754" stop-color="#F99C4D"/>
<stop offset="0.8658" stop-color="#F8924F"/>
<stop offset="1" stop-color="#F8924F"/>
</linearGradient>
<linearGradient id="paint6_linear_1057_59377" x1="249.419" y1="213.154" x2="252.44" y2="238.352" gradientUnits="userSpaceOnUse">
<stop stop-color="#FFDB44"/>
<stop offset="1" stop-color="#FEEF06"/>
</linearGradient>
<linearGradient id="paint7_linear_1057_59377" x1="249.289" y1="212.03" x2="250.217" y2="219.769" gradientUnits="userSpaceOnUse">
<stop stop-color="#FFDB44"/>
<stop offset="1" stop-color="#FEEF06"/>
</linearGradient>
<linearGradient id="paint8_linear_1057_59377" x1="250.155" y1="218.958" x2="249.231" y2="211.247" gradientUnits="userSpaceOnUse">
<stop offset="0.0036" stop-color="#F36F56"/>
<stop offset="0.3059" stop-color="#F99C4C"/>
<stop offset="0.545" stop-color="#FDB946"/>
<stop offset="0.6817" stop-color="#FFC444"/>
<stop offset="0.8038" stop-color="#FFC244"/>
<stop offset="0.8667" stop-color="#FEBA46"/>
<stop offset="0.916" stop-color="#FCAD49"/>
<stop offset="0.958" stop-color="#F99A4D"/>
<stop offset="0.9955" stop-color="#F58152"/>
<stop offset="1" stop-color="#F57E53"/>
</linearGradient>
<linearGradient id="paint9_linear_1057_59377" x1="226.637" y1="213.821" x2="283.544" y2="213.821" gradientUnits="userSpaceOnUse">
<stop stop-color="#FCB148"/>
<stop offset="0.0521" stop-color="#FDBA46"/>
<stop offset="0.1424" stop-color="#FFC244"/>
<stop offset="0.3183" stop-color="#FFC444"/>
<stop offset="0.4849" stop-color="#FDB946"/>
<stop offset="0.7754" stop-color="#F99C4D"/>
<stop offset="0.8658" stop-color="#F8924F"/>
<stop offset="1" stop-color="#F8924F"/>
</linearGradient>
<linearGradient id="paint10_linear_1057_59377" x1="255.352" y1="207.389" x2="258.373" y2="232.587" gradientUnits="userSpaceOnUse">
<stop stop-color="#FFDB44"/>
<stop offset="1" stop-color="#FEEF06"/>
</linearGradient>
<linearGradient id="paint11_linear_1057_59377" x1="255.222" y1="206.265" x2="256.149" y2="214.004" gradientUnits="userSpaceOnUse">
<stop stop-color="#FFDB44"/>
<stop offset="1" stop-color="#FEEF06"/>
</linearGradient>
<linearGradient id="paint12_linear_1057_59377" x1="256.088" y1="213.193" x2="255.163" y2="205.482" gradientUnits="userSpaceOnUse">
<stop offset="0.0036" stop-color="#F36F56"/>
<stop offset="0.3059" stop-color="#F99C4C"/>
<stop offset="0.545" stop-color="#FDB946"/>
<stop offset="0.6817" stop-color="#FFC444"/>
<stop offset="0.8038" stop-color="#FFC244"/>
<stop offset="0.8667" stop-color="#FEBA46"/>
<stop offset="0.916" stop-color="#FCAD49"/>
<stop offset="0.958" stop-color="#F99A4D"/>
<stop offset="0.9955" stop-color="#F58152"/>
<stop offset="1" stop-color="#F57E53"/>
</linearGradient>
<linearGradient id="paint13_linear_1057_59377" x1="230.238" y1="208.039" x2="287.145" y2="208.039" gradientUnits="userSpaceOnUse">
<stop stop-color="#FCB148"/>
<stop offset="0.0521" stop-color="#FDBA46"/>
<stop offset="0.1424" stop-color="#FFC244"/>
<stop offset="0.3183" stop-color="#FFC444"/>
<stop offset="0.4849" stop-color="#FDB946"/>
<stop offset="0.7754" stop-color="#F99C4D"/>
<stop offset="0.8658" stop-color="#F8924F"/>
<stop offset="1" stop-color="#F8924F"/>
</linearGradient>
<linearGradient id="paint14_linear_1057_59377" x1="258.952" y1="201.607" x2="261.973" y2="226.805" gradientUnits="userSpaceOnUse">
<stop stop-color="#FFDB44"/>
<stop offset="1" stop-color="#FEEF06"/>
</linearGradient>
<linearGradient id="paint15_linear_1057_59377" x1="258.822" y1="200.483" x2="259.75" y2="208.222" gradientUnits="userSpaceOnUse">
<stop stop-color="#FFDB44"/>
<stop offset="1" stop-color="#FEEF06"/>
</linearGradient>
<linearGradient id="paint16_linear_1057_59377" x1="259.688" y1="207.411" x2="258.764" y2="199.7" gradientUnits="userSpaceOnUse">
<stop offset="0.0036" stop-color="#F36F56"/>
<stop offset="0.3059" stop-color="#F99C4C"/>
<stop offset="0.545" stop-color="#FDB946"/>
<stop offset="0.6817" stop-color="#FFC444"/>
<stop offset="0.8038" stop-color="#FFC244"/>
<stop offset="0.8667" stop-color="#FEBA46"/>
<stop offset="0.916" stop-color="#FCAD49"/>
<stop offset="0.958" stop-color="#F99A4D"/>
<stop offset="0.9955" stop-color="#F58152"/>
<stop offset="1" stop-color="#F57E53"/>
</linearGradient>
<linearGradient id="paint17_linear_1057_59377" x1="227.58" y1="201.801" x2="284.487" y2="201.801" gradientUnits="userSpaceOnUse">
<stop stop-color="#FCB148"/>
<stop offset="0.0521" stop-color="#FDBA46"/>
<stop offset="0.1424" stop-color="#FFC244"/>
<stop offset="0.3183" stop-color="#FFC444"/>
<stop offset="0.4849" stop-color="#FDB946"/>
<stop offset="0.7754" stop-color="#F99C4D"/>
<stop offset="0.8658" stop-color="#F8924F"/>
<stop offset="1" stop-color="#F8924F"/>
</linearGradient>
<linearGradient id="paint18_linear_1057_59377" x1="256.295" y1="195.368" x2="259.316" y2="220.567" gradientUnits="userSpaceOnUse">
<stop stop-color="#FFDB44"/>
<stop offset="1" stop-color="#FEEF06"/>
</linearGradient>
<linearGradient id="paint19_linear_1057_59377" x1="256.165" y1="194.245" x2="257.092" y2="201.984" gradientUnits="userSpaceOnUse">
<stop stop-color="#FFDB44"/>
<stop offset="1" stop-color="#FEEF06"/>
</linearGradient>
<linearGradient id="paint20_linear_1057_59377" x1="257.031" y1="201.173" x2="256.107" y2="193.461" gradientUnits="userSpaceOnUse">
<stop offset="0.0036" stop-color="#F36F56"/>
<stop offset="0.3059" stop-color="#F99C4C"/>
<stop offset="0.545" stop-color="#FDB946"/>
<stop offset="0.6817" stop-color="#FFC444"/>
<stop offset="0.8038" stop-color="#FFC244"/>
<stop offset="0.8667" stop-color="#FEBA46"/>
<stop offset="0.916" stop-color="#FCAD49"/>
<stop offset="0.958" stop-color="#F99A4D"/>
<stop offset="0.9955" stop-color="#F58152"/>
<stop offset="1" stop-color="#F57E53"/>
</linearGradient>
<linearGradient id="paint21_linear_1057_59377" x1="220.705" y1="196.019" x2="277.612" y2="196.019" gradientUnits="userSpaceOnUse">
<stop stop-color="#FCB148"/>
<stop offset="0.0521" stop-color="#FDBA46"/>
<stop offset="0.1424" stop-color="#FFC244"/>
<stop offset="0.3183" stop-color="#FFC444"/>
<stop offset="0.4849" stop-color="#FDB946"/>
<stop offset="0.7754" stop-color="#F99C4D"/>
<stop offset="0.8658" stop-color="#F8924F"/>
<stop offset="1" stop-color="#F8924F"/>
</linearGradient>
<linearGradient id="paint22_linear_1057_59377" x1="249.419" y1="189.587" x2="252.44" y2="214.786" gradientUnits="userSpaceOnUse">
<stop stop-color="#FFDB44"/>
<stop offset="1" stop-color="#FEEF06"/>
</linearGradient>
<linearGradient id="paint23_linear_1057_59377" x1="249.289" y1="188.463" x2="250.217" y2="196.202" gradientUnits="userSpaceOnUse">
<stop stop-color="#FFDB44"/>
<stop offset="1" stop-color="#FEEF06"/>
</linearGradient>
<linearGradient id="paint24_linear_1057_59377" x1="250.155" y1="195.391" x2="249.231" y2="187.679" gradientUnits="userSpaceOnUse">
<stop offset="0.0036" stop-color="#F36F56"/>
<stop offset="0.3059" stop-color="#F99C4C"/>
<stop offset="0.545" stop-color="#FDB946"/>
<stop offset="0.6817" stop-color="#FFC444"/>
<stop offset="0.8038" stop-color="#FFC244"/>
<stop offset="0.8667" stop-color="#FEBA46"/>
<stop offset="0.916" stop-color="#FCAD49"/>
<stop offset="0.958" stop-color="#F99A4D"/>
<stop offset="0.9955" stop-color="#F58152"/>
<stop offset="1" stop-color="#F57E53"/>
</linearGradient>
<linearGradient id="paint25_linear_1057_59377" x1="226.637" y1="190.254" x2="283.544" y2="190.254" gradientUnits="userSpaceOnUse">
<stop stop-color="#FCB148"/>
<stop offset="0.0521" stop-color="#FDBA46"/>
<stop offset="0.1424" stop-color="#FFC244"/>
<stop offset="0.3183" stop-color="#FFC444"/>
<stop offset="0.4849" stop-color="#FDB946"/>
<stop offset="0.7754" stop-color="#F99C4D"/>
<stop offset="0.8658" stop-color="#F8924F"/>
<stop offset="1" stop-color="#F8924F"/>
</linearGradient>
<linearGradient id="paint26_linear_1057_59377" x1="255.352" y1="183.822" x2="258.372" y2="209.02" gradientUnits="userSpaceOnUse">
<stop stop-color="#FFDB44"/>
<stop offset="1" stop-color="#FEEF06"/>
</linearGradient>
<linearGradient id="paint27_linear_1057_59377" x1="255.222" y1="182.697" x2="256.149" y2="190.436" gradientUnits="userSpaceOnUse">
<stop stop-color="#FFDB44"/>
<stop offset="1" stop-color="#FEEF06"/>
</linearGradient>
<linearGradient id="paint28_linear_1057_59377" x1="256.088" y1="189.626" x2="255.163" y2="181.914" gradientUnits="userSpaceOnUse">
<stop offset="0.0036" stop-color="#F36F56"/>
<stop offset="0.3059" stop-color="#F99C4C"/>
<stop offset="0.545" stop-color="#FDB946"/>
<stop offset="0.6817" stop-color="#FFC444"/>
<stop offset="0.8038" stop-color="#FFC244"/>
<stop offset="0.8667" stop-color="#FEBA46"/>
<stop offset="0.916" stop-color="#FCAD49"/>
<stop offset="0.958" stop-color="#F99A4D"/>
<stop offset="0.9955" stop-color="#F58152"/>
<stop offset="1" stop-color="#F57E53"/>
</linearGradient>
<linearGradient id="paint29_linear_1057_59377" x1="223.551" y1="184.472" x2="280.458" y2="184.472" gradientUnits="userSpaceOnUse">
<stop stop-color="#FCB148"/>
<stop offset="0.0521" stop-color="#FDBA46"/>
<stop offset="0.1424" stop-color="#FFC244"/>
<stop offset="0.3183" stop-color="#FFC444"/>
<stop offset="0.4849" stop-color="#FDB946"/>
<stop offset="0.7754" stop-color="#F99C4D"/>
<stop offset="0.8658" stop-color="#F8924F"/>
<stop offset="1" stop-color="#F8924F"/>
</linearGradient>
<linearGradient id="paint30_linear_1057_59377" x1="252.266" y1="178.04" x2="255.287" y2="203.239" gradientUnits="userSpaceOnUse">
<stop stop-color="#FFDB44"/>
<stop offset="1" stop-color="#FEEF06"/>
</linearGradient>
<linearGradient id="paint31_linear_1057_59377" x1="252.136" y1="176.916" x2="253.063" y2="184.655" gradientUnits="userSpaceOnUse">
<stop stop-color="#FFDB44"/>
<stop offset="1" stop-color="#FEEF06"/>
</linearGradient>
<linearGradient id="paint32_linear_1057_59377" x1="253.001" y1="183.844" x2="252.077" y2="176.133" gradientUnits="userSpaceOnUse">
<stop offset="0.0036" stop-color="#F36F56"/>
<stop offset="0.3059" stop-color="#F99C4C"/>
<stop offset="0.545" stop-color="#FDB946"/>
<stop offset="0.6817" stop-color="#FFC444"/>
<stop offset="0.8038" stop-color="#FFC244"/>
<stop offset="0.8667" stop-color="#FEBA46"/>
<stop offset="0.916" stop-color="#FCAD49"/>
<stop offset="0.958" stop-color="#F99A4D"/>
<stop offset="0.9955" stop-color="#F58152"/>
<stop offset="1" stop-color="#F57E53"/>
</linearGradient>
<linearGradient id="paint33_linear_1057_59377" x1="127.907" y1="225.333" x2="210.181" y2="225.333" gradientUnits="userSpaceOnUse">
<stop stop-color="#FCB148"/>
<stop offset="0.0521" stop-color="#FDBA46"/>
<stop offset="0.1424" stop-color="#FFC244"/>
<stop offset="0.3183" stop-color="#FFC444"/>
<stop offset="0.4849" stop-color="#FDB946"/>
<stop offset="0.7754" stop-color="#F99C4D"/>
<stop offset="0.8658" stop-color="#F8924F"/>
<stop offset="1" stop-color="#F8924F"/>
</linearGradient>
<linearGradient id="paint34_linear_1057_59377" x1="169.421" y1="216.033" x2="173.788" y2="252.464" gradientUnits="userSpaceOnUse">
<stop stop-color="#FFDB44"/>
<stop offset="1" stop-color="#FEEF06"/>
</linearGradient>
<linearGradient id="paint35_linear_1057_59377" x1="169.234" y1="214.408" x2="170.575" y2="225.597" gradientUnits="userSpaceOnUse">
<stop stop-color="#FFDB44"/>
<stop offset="1" stop-color="#FEEF06"/>
</linearGradient>
<linearGradient id="paint36_linear_1057_59377" x1="170.485" y1="224.425" x2="169.149" y2="213.276" gradientUnits="userSpaceOnUse">
<stop offset="0.0036" stop-color="#F36F56"/>
<stop offset="0.3059" stop-color="#F99C4C"/>
<stop offset="0.545" stop-color="#FDB946"/>
<stop offset="0.6817" stop-color="#FFC444"/>
<stop offset="0.8038" stop-color="#FFC244"/>
<stop offset="0.8667" stop-color="#FEBA46"/>
<stop offset="0.916" stop-color="#FCAD49"/>
<stop offset="0.958" stop-color="#F99A4D"/>
<stop offset="0.9955" stop-color="#F58152"/>
<stop offset="1" stop-color="#F57E53"/>
</linearGradient>
<linearGradient id="paint37_linear_1057_59377" x1="136.483" y1="216.998" x2="218.757" y2="216.998" gradientUnits="userSpaceOnUse">
<stop stop-color="#FCB148"/>
<stop offset="0.0521" stop-color="#FDBA46"/>
<stop offset="0.1424" stop-color="#FFC244"/>
<stop offset="0.3183" stop-color="#FFC444"/>
<stop offset="0.4849" stop-color="#FDB946"/>
<stop offset="0.7754" stop-color="#F99C4D"/>
<stop offset="0.8658" stop-color="#F8924F"/>
<stop offset="1" stop-color="#F8924F"/>
</linearGradient>
<linearGradient id="paint38_linear_1057_59377" x1="177.999" y1="207.698" x2="182.365" y2="244.13" gradientUnits="userSpaceOnUse">
<stop stop-color="#FFDB44"/>
<stop offset="1" stop-color="#FEEF06"/>
</linearGradient>
<linearGradient id="paint39_linear_1057_59377" x1="177.81" y1="206.074" x2="179.151" y2="217.262" gradientUnits="userSpaceOnUse">
<stop stop-color="#FFDB44"/>
<stop offset="1" stop-color="#FEEF06"/>
</linearGradient>
<linearGradient id="paint40_linear_1057_59377" x1="179.062" y1="216.09" x2="177.726" y2="204.941" gradientUnits="userSpaceOnUse">
<stop offset="0.0036" stop-color="#F36F56"/>
<stop offset="0.3059" stop-color="#F99C4C"/>
<stop offset="0.545" stop-color="#FDB946"/>
<stop offset="0.6817" stop-color="#FFC444"/>
<stop offset="0.8038" stop-color="#FFC244"/>
<stop offset="0.8667" stop-color="#FEBA46"/>
<stop offset="0.916" stop-color="#FCAD49"/>
<stop offset="0.958" stop-color="#F99A4D"/>
<stop offset="0.9955" stop-color="#F58152"/>
<stop offset="1" stop-color="#F57E53"/>
</linearGradient>
<linearGradient id="paint41_linear_1057_59377" x1="141.689" y1="208.639" x2="223.963" y2="208.639" gradientUnits="userSpaceOnUse">
<stop stop-color="#FCB148"/>
<stop offset="0.0521" stop-color="#FDBA46"/>
<stop offset="0.1424" stop-color="#FFC244"/>
<stop offset="0.3183" stop-color="#FFC444"/>
<stop offset="0.4849" stop-color="#FDB946"/>
<stop offset="0.7754" stop-color="#F99C4D"/>
<stop offset="0.8658" stop-color="#F8924F"/>
<stop offset="1" stop-color="#F8924F"/>
</linearGradient>
<linearGradient id="paint42_linear_1057_59377" x1="183.203" y1="199.339" x2="187.57" y2="235.77" gradientUnits="userSpaceOnUse">
<stop stop-color="#FFDB44"/>
<stop offset="1" stop-color="#FEEF06"/>
</linearGradient>
<linearGradient id="paint43_linear_1057_59377" x1="183.015" y1="197.714" x2="184.356" y2="208.902" gradientUnits="userSpaceOnUse">
<stop stop-color="#FFDB44"/>
<stop offset="1" stop-color="#FEEF06"/>
</linearGradient>
<linearGradient id="paint44_linear_1057_59377" x1="184.268" y1="207.731" x2="182.931" y2="196.582" gradientUnits="userSpaceOnUse">
<stop offset="0.0036" stop-color="#F36F56"/>
<stop offset="0.3059" stop-color="#F99C4C"/>
<stop offset="0.545" stop-color="#FDB946"/>
<stop offset="0.6817" stop-color="#FFC444"/>
<stop offset="0.8038" stop-color="#FFC244"/>
<stop offset="0.8667" stop-color="#FEBA46"/>
<stop offset="0.916" stop-color="#FCAD49"/>
<stop offset="0.958" stop-color="#F99A4D"/>
<stop offset="0.9955" stop-color="#F58152"/>
<stop offset="1" stop-color="#F57E53"/>
</linearGradient>
<linearGradient id="paint45_linear_1057_59377" x1="137.848" y1="199.62" x2="220.122" y2="199.62" gradientUnits="userSpaceOnUse">
<stop stop-color="#FCB148"/>
<stop offset="0.0521" stop-color="#FDBA46"/>
<stop offset="0.1424" stop-color="#FFC244"/>
<stop offset="0.3183" stop-color="#FFC444"/>
<stop offset="0.4849" stop-color="#FDB946"/>
<stop offset="0.7754" stop-color="#F99C4D"/>
<stop offset="0.8658" stop-color="#F8924F"/>
<stop offset="1" stop-color="#F8924F"/>
</linearGradient>
<linearGradient id="paint46_linear_1057_59377" x1="179.362" y1="190.32" x2="183.729" y2="226.751" gradientUnits="userSpaceOnUse">
<stop stop-color="#FFDB44"/>
<stop offset="1" stop-color="#FEEF06"/>
</linearGradient>
<linearGradient id="paint47_linear_1057_59377" x1="179.173" y1="188.695" x2="180.514" y2="199.884" gradientUnits="userSpaceOnUse">
<stop stop-color="#FFDB44"/>
<stop offset="1" stop-color="#FEEF06"/>
</linearGradient>
<linearGradient id="paint48_linear_1057_59377" x1="180.426" y1="198.712" x2="179.089" y2="187.563" gradientUnits="userSpaceOnUse">
<stop offset="0.0036" stop-color="#F36F56"/>
<stop offset="0.3059" stop-color="#F99C4C"/>
<stop offset="0.545" stop-color="#FDB946"/>
<stop offset="0.6817" stop-color="#FFC444"/>
<stop offset="0.8038" stop-color="#FFC244"/>
<stop offset="0.8667" stop-color="#FEBA46"/>
<stop offset="0.916" stop-color="#FCAD49"/>
<stop offset="0.958" stop-color="#F99A4D"/>
<stop offset="0.9955" stop-color="#F58152"/>
<stop offset="1" stop-color="#F57E53"/>
</linearGradient>
<linearGradient id="paint49_linear_1057_59377" x1="127.907" y1="191.26" x2="210.181" y2="191.26" gradientUnits="userSpaceOnUse">
<stop stop-color="#FCB148"/>
<stop offset="0.0521" stop-color="#FDBA46"/>
<stop offset="0.1424" stop-color="#FFC244"/>
<stop offset="0.3183" stop-color="#FFC444"/>
<stop offset="0.4849" stop-color="#FDB946"/>
<stop offset="0.7754" stop-color="#F99C4D"/>
<stop offset="0.8658" stop-color="#F8924F"/>
<stop offset="1" stop-color="#F8924F"/>
</linearGradient>
<linearGradient id="paint50_linear_1057_59377" x1="169.421" y1="181.961" x2="173.788" y2="218.392" gradientUnits="userSpaceOnUse">
<stop stop-color="#FFDB44"/>
<stop offset="1" stop-color="#FEEF06"/>
</linearGradient>
<linearGradient id="paint51_linear_1057_59377" x1="169.234" y1="180.336" x2="170.575" y2="191.525" gradientUnits="userSpaceOnUse">
<stop stop-color="#FFDB44"/>
<stop offset="1" stop-color="#FEEF06"/>
</linearGradient>
<linearGradient id="paint52_linear_1057_59377" x1="170.485" y1="190.352" x2="169.149" y2="179.204" gradientUnits="userSpaceOnUse">
<stop offset="0.0036" stop-color="#F36F56"/>
<stop offset="0.3059" stop-color="#F99C4C"/>
<stop offset="0.545" stop-color="#FDB946"/>
<stop offset="0.6817" stop-color="#FFC444"/>
<stop offset="0.8038" stop-color="#FFC244"/>
<stop offset="0.8667" stop-color="#FEBA46"/>
<stop offset="0.916" stop-color="#FCAD49"/>
<stop offset="0.958" stop-color="#F99A4D"/>
<stop offset="0.9955" stop-color="#F58152"/>
<stop offset="1" stop-color="#F57E53"/>
</linearGradient>
<linearGradient id="paint53_linear_1057_59377" x1="136.483" y1="182.925" x2="218.757" y2="182.925" gradientUnits="userSpaceOnUse">
<stop stop-color="#FCB148"/>
<stop offset="0.0521" stop-color="#FDBA46"/>
<stop offset="0.1424" stop-color="#FFC244"/>
<stop offset="0.3183" stop-color="#FFC444"/>
<stop offset="0.4849" stop-color="#FDB946"/>
<stop offset="0.7754" stop-color="#F99C4D"/>
<stop offset="0.8658" stop-color="#F8924F"/>
<stop offset="1" stop-color="#F8924F"/>
</linearGradient>
<linearGradient id="paint54_linear_1057_59377" x1="177.999" y1="173.626" x2="182.365" y2="210.058" gradientUnits="userSpaceOnUse">
<stop stop-color="#FFDB44"/>
<stop offset="1" stop-color="#FEEF06"/>
</linearGradient>
<linearGradient id="paint55_linear_1057_59377" x1="177.81" y1="172.001" x2="179.151" y2="183.19" gradientUnits="userSpaceOnUse">
<stop stop-color="#FFDB44"/>
<stop offset="1" stop-color="#FEEF06"/>
</linearGradient>
<linearGradient id="paint56_linear_1057_59377" x1="179.062" y1="182.018" x2="177.726" y2="170.869" gradientUnits="userSpaceOnUse">
<stop offset="0.0036" stop-color="#F36F56"/>
<stop offset="0.3059" stop-color="#F99C4C"/>
<stop offset="0.545" stop-color="#FDB946"/>
<stop offset="0.6817" stop-color="#FFC444"/>
<stop offset="0.8038" stop-color="#FFC244"/>
<stop offset="0.8667" stop-color="#FEBA46"/>
<stop offset="0.916" stop-color="#FCAD49"/>
<stop offset="0.958" stop-color="#F99A4D"/>
<stop offset="0.9955" stop-color="#F58152"/>
<stop offset="1" stop-color="#F57E53"/>
</linearGradient>
<linearGradient id="paint57_linear_1057_59377" x1="132.023" y1="174.567" x2="214.297" y2="174.567" gradientUnits="userSpaceOnUse">
<stop stop-color="#FCB148"/>
<stop offset="0.0521" stop-color="#FDBA46"/>
<stop offset="0.1424" stop-color="#FFC244"/>
<stop offset="0.3183" stop-color="#FFC444"/>
<stop offset="0.4849" stop-color="#FDB946"/>
<stop offset="0.7754" stop-color="#F99C4D"/>
<stop offset="0.8658" stop-color="#F8924F"/>
<stop offset="1" stop-color="#F8924F"/>
</linearGradient>
<linearGradient id="paint58_linear_1057_59377" x1="173.538" y1="165.267" x2="177.905" y2="201.698" gradientUnits="userSpaceOnUse">
<stop stop-color="#FFDB44"/>
<stop offset="1" stop-color="#FEEF06"/>
</linearGradient>
<linearGradient id="paint59_linear_1057_59377" x1="173.349" y1="163.642" x2="174.691" y2="174.831" gradientUnits="userSpaceOnUse">
<stop stop-color="#FFDB44"/>
<stop offset="1" stop-color="#FEEF06"/>
</linearGradient>
<linearGradient id="paint60_linear_1057_59377" x1="174.6" y1="173.659" x2="173.264" y2="162.51" gradientUnits="userSpaceOnUse">
<stop offset="0.0036" stop-color="#F36F56"/>
<stop offset="0.3059" stop-color="#F99C4C"/>
<stop offset="0.545" stop-color="#FDB946"/>
<stop offset="0.6817" stop-color="#FFC444"/>
<stop offset="0.8038" stop-color="#FFC244"/>
<stop offset="0.8667" stop-color="#FEBA46"/>
<stop offset="0.916" stop-color="#FCAD49"/>
<stop offset="0.958" stop-color="#F99A4D"/>
<stop offset="0.9955" stop-color="#F58152"/>
<stop offset="1" stop-color="#F57E53"/>
</linearGradient>
<linearGradient id="paint61_linear_1057_59377" x1="297.224" y1="115.134" x2="231.705" y2="156.457" gradientUnits="userSpaceOnUse">
<stop stop-color="#FFBD17"/>
<stop offset="1" stop-color="#FF9C17"/>
</linearGradient>
<linearGradient id="paint62_linear_1057_59377" x1="269.887" y1="101.555" x2="233.501" y2="181.557" gradientUnits="userSpaceOnUse">
<stop stop-color="#FFDB44"/>
<stop offset="1" stop-color="#FEEF06"/>
</linearGradient>
<linearGradient id="paint63_linear_1057_59377" x1="300.211" y1="114.568" x2="237.682" y2="154.002" gradientUnits="userSpaceOnUse">
<stop stop-color="#FFBD17"/>
<stop offset="1" stop-color="#FF9C17"/>
</linearGradient>
<linearGradient id="paint64_linear_1057_59377" x1="254.278" y1="103.872" x2="254.278" y2="169.314" gradientUnits="userSpaceOnUse">
<stop stop-color="#FFD14F"/>
<stop offset="1" stop-color="#FFBC00"/>
</linearGradient>
<linearGradient id="paint65_linear_1057_59377" x1="267.861" y1="115.465" x2="223.78" y2="132.09" gradientUnits="userSpaceOnUse">
<stop stop-color="#FFBD17"/>
<stop offset="1" stop-color="#FF9C17"/>
</linearGradient>
<clipPath id="clip0_1057_59377">
<rect width="288" height="221" rx="12" fill="white"/>
</clipPath>
</defs>
</svg>
