<svg width="944" height="124" viewBox="0 0 944 124" fill="none" xmlns="http://www.w3.org/2000/svg">
<g clip-path="url(#clip0_1057_59212)">
<rect width="944" height="124" rx="12" fill="#D1E2FD"/>
<path d="M904.415 -29.1576C861.031 -30.4795 823.451 2.00434 817.773 44.6272C811.565 91.2295 845.732 133.16 887.772 139.876C940.064 148.23 990.784 99.9043 986.229 47.4784C982.798 7.98006 948.516 -27.8138 904.415 -29.1576Z" fill="url(#paint0_linear_1057_59212)"/>
<path d="M935.901 -32.9611C892.516 -34.283 854.936 -1.79913 849.259 40.8237C843.051 87.426 877.217 129.357 919.258 136.073C971.549 144.426 1022.27 96.1008 1017.72 43.6749C1014.28 4.17659 980.002 -31.6172 935.901 -32.9611Z" fill="url(#paint1_linear_1057_59212)"/>
<path d="M887.809 123.005V128.51C887.809 130.289 898.882 131.731 912.542 131.731C926.201 131.731 937.275 130.289 937.275 128.51V123.005H887.809Z" fill="url(#paint2_linear_1057_59212)"/>
<path d="M937.275 123.006C937.275 124.784 926.201 126.226 912.542 126.226C898.882 126.226 887.809 124.784 887.809 123.006C887.809 121.227 898.882 119.785 912.542 119.785C926.201 119.785 937.275 121.227 937.275 123.006Z" fill="url(#paint3_linear_1057_59212)"/>
<path d="M912.542 126.448C900.444 126.448 887.794 125.289 887.794 123.053C887.794 122.93 887.838 122.714 887.961 122.714C888.083 122.714 888.03 122.883 888.03 123.006C888.03 124.424 898.097 126.004 912.542 126.004C926.987 126.004 937.053 124.424 937.053 123.006C937.053 122.883 937.074 122.768 937.196 122.768C937.319 122.768 937.289 122.931 937.289 123.054C937.289 125.291 924.639 126.448 912.542 126.448Z" fill="url(#paint4_linear_1057_59212)"/>
<path d="M910.205 123.185C910.447 123.016 910.705 122.85 910.982 122.686C911.256 122.522 911.612 122.374 912.044 122.241C912.479 122.109 913.022 122.001 913.675 121.918C914.327 121.834 915.143 121.79 916.117 121.786C917.073 121.781 917.969 121.811 918.809 121.877C919.646 121.942 920.385 122.041 921.022 122.171C921.658 122.302 922.177 122.463 922.577 122.655C922.974 122.847 923.211 123.067 923.287 123.316L926.072 123.344C926.274 123.345 926.453 123.362 926.606 123.393C926.761 123.425 926.837 123.466 926.837 123.514L926.838 123.744L923.258 123.71C923.132 123.992 922.812 124.249 922.298 124.483C921.786 124.717 921.132 124.92 920.335 125.091L919.031 124.909C918.914 124.891 918.818 124.868 918.743 124.841C918.668 124.813 918.631 124.783 918.631 124.751C918.631 124.706 918.732 124.656 918.933 124.599C919.135 124.542 919.363 124.472 919.616 124.388C919.87 124.305 920.118 124.206 920.363 124.092C920.606 123.978 920.769 123.842 920.854 123.683L912.403 123.599C912.181 123.763 911.931 123.924 911.657 124.082C911.381 124.241 911.016 124.383 910.561 124.51C910.105 124.636 909.539 124.739 908.86 124.818C908.179 124.897 907.327 124.939 906.296 124.944C905.522 124.948 904.768 124.918 904.029 124.856C903.291 124.793 902.635 124.699 902.062 124.574C901.489 124.449 901.019 124.294 900.65 124.111C900.284 123.926 900.078 123.715 900.036 123.475L897.743 123.452C897.541 123.451 897.362 123.435 897.202 123.404C897.043 123.373 896.963 123.333 896.963 123.281L896.961 123.051L900.096 123.081C900.235 122.839 900.519 122.628 900.953 122.448C901.387 122.268 901.918 122.108 902.544 121.968L903.594 122.112C903.913 122.157 904.071 122.21 904.071 122.27C904.071 122.303 904.007 122.343 903.875 122.391C903.74 122.44 903.585 122.498 903.404 122.565C903.226 122.632 903.05 122.71 902.882 122.801C902.711 122.891 902.585 122.993 902.5 123.108L910.205 123.185ZM902.471 123.498C902.534 123.649 902.674 123.779 902.887 123.888C903.1 123.998 903.365 124.088 903.684 124.158C904.003 124.229 904.361 124.28 904.757 124.313C905.156 124.346 905.573 124.362 906.009 124.36C906.516 124.357 906.959 124.335 907.337 124.294C907.713 124.252 908.044 124.196 908.331 124.125C908.616 124.054 908.866 123.971 909.078 123.877C909.29 123.783 909.479 123.681 909.649 123.571L902.471 123.498ZM920.867 123.293C920.804 123.14 920.651 123.006 920.412 122.891C920.173 122.776 919.867 122.679 919.496 122.601C919.125 122.522 918.693 122.464 918.197 122.426C917.705 122.387 917.161 122.37 916.565 122.373C916.037 122.375 915.578 122.399 915.198 122.444C914.817 122.489 914.486 122.549 914.204 122.625C913.925 122.701 913.684 122.789 913.49 122.89C913.294 122.991 913.111 123.098 912.943 123.213L920.867 123.293Z" fill="#FCB048"/>
<path d="M912.545 120.134C901.517 120.134 890.034 121.107 888.198 122.992C888.27 123.059 888.337 123.13 888.399 123.204C889.947 121.896 899.428 120.578 912.545 120.578C925.999 120.578 935.632 121.964 936.799 123.305C936.856 123.232 936.918 123.161 936.984 123.095C935.467 121.143 923.769 120.134 912.545 120.134Z" fill="url(#paint5_linear_1057_59212)"/>
<path d="M880.933 117.223V122.728C880.933 124.507 892.007 125.949 905.666 125.949C919.326 125.949 930.399 124.507 930.399 122.728V117.223H880.933Z" fill="url(#paint6_linear_1057_59212)"/>
<path d="M930.398 117.223C930.398 119.002 919.325 120.444 905.666 120.444C892.006 120.444 880.933 119.002 880.933 117.223C880.933 115.445 892.006 114.003 905.666 114.003C919.325 114.003 930.398 115.445 930.398 117.223Z" fill="url(#paint7_linear_1057_59212)"/>
<path d="M905.666 120.666C893.569 120.666 880.919 119.507 880.919 117.27C880.919 117.148 880.962 116.932 881.085 116.932C881.207 116.932 881.155 117.1 881.155 117.223C881.155 118.642 891.221 120.222 905.666 120.222C920.111 120.222 930.177 118.642 930.177 117.223C930.177 117.1 930.198 116.985 930.32 116.985C930.443 116.985 930.413 117.149 930.413 117.272C930.413 119.508 917.763 120.666 905.666 120.666Z" fill="url(#paint8_linear_1057_59212)"/>
<path d="M903.329 117.403C903.572 117.234 903.83 117.068 904.106 116.904C904.38 116.74 904.737 116.592 905.169 116.459C905.603 116.327 906.147 116.219 906.799 116.136C907.451 116.052 908.267 116.008 909.241 116.004C910.197 115.999 911.094 116.029 911.933 116.095C912.77 116.16 913.509 116.259 914.147 116.389C914.782 116.52 915.301 116.681 915.701 116.873C916.098 117.065 916.335 117.285 916.411 117.534L919.196 117.562C919.398 117.563 919.577 117.58 919.73 117.611C919.886 117.643 919.961 117.684 919.961 117.732L919.962 117.962L916.382 117.928C916.257 118.21 915.937 118.467 915.422 118.701C914.91 118.935 914.256 119.138 913.459 119.309L912.155 119.127C912.038 119.109 911.943 119.086 911.867 119.059C911.792 119.031 911.756 119.001 911.755 118.969C911.755 118.924 911.856 118.874 912.058 118.817C912.26 118.76 912.487 118.69 912.741 118.606C912.994 118.523 913.242 118.424 913.488 118.31C913.731 118.196 913.893 118.06 913.978 117.901L905.528 117.817C905.306 117.981 905.055 118.142 904.781 118.3C904.505 118.459 904.14 118.601 903.685 118.728C903.23 118.854 902.663 118.957 901.985 119.036C901.304 119.115 900.452 119.157 899.421 119.162C898.646 119.166 897.892 119.136 897.154 119.074C896.415 119.011 895.759 118.917 895.186 118.792C894.613 118.667 894.143 118.512 893.775 118.328C893.409 118.144 893.203 117.933 893.16 117.693L890.868 117.67C890.665 117.669 890.487 117.653 890.326 117.622C890.168 117.591 890.087 117.551 890.087 117.499L890.086 117.269L893.22 117.299C893.359 117.057 893.643 116.846 894.077 116.666C894.512 116.486 895.042 116.326 895.668 116.186L896.718 116.33C897.037 116.375 897.195 116.428 897.195 116.488C897.196 116.521 897.131 116.561 896.999 116.609C896.865 116.658 896.71 116.716 896.528 116.783C896.35 116.85 896.174 116.928 896.006 117.019C895.836 117.109 895.709 117.211 895.624 117.326L903.329 117.403ZM895.595 117.716C895.658 117.867 895.799 117.997 896.012 118.106C896.225 118.216 896.489 118.306 896.808 118.376C897.127 118.447 897.485 118.498 897.882 118.531C898.281 118.564 898.698 118.58 899.133 118.578C899.641 118.575 900.084 118.553 900.461 118.512C900.837 118.47 901.168 118.414 901.455 118.343C901.74 118.272 901.991 118.189 902.203 118.095C902.415 118.001 902.603 117.899 902.774 117.789L895.595 117.716ZM913.992 117.511C913.929 117.358 913.775 117.224 913.536 117.109C913.298 116.994 912.991 116.897 912.621 116.819C912.25 116.74 911.817 116.682 911.322 116.644C910.829 116.605 910.285 116.588 909.69 116.591C909.161 116.593 908.703 116.617 908.322 116.662C907.942 116.707 907.61 116.767 907.328 116.843C907.049 116.919 906.809 117.007 906.615 117.108C906.418 117.209 906.235 117.316 906.067 117.431L913.992 117.511Z" fill="#FCB048"/>
<path d="M905.669 114.351C894.641 114.351 883.159 115.325 881.322 117.21C881.394 117.276 881.461 117.347 881.523 117.422C883.071 116.113 892.552 114.796 905.669 114.796C919.123 114.796 928.756 116.182 929.923 117.523C929.981 117.449 930.042 117.379 930.108 117.313C928.591 115.361 916.893 114.351 905.669 114.351Z" fill="url(#paint9_linear_1057_59212)"/>
<path d="M886.866 111.458V116.963C886.866 118.742 897.939 120.184 911.599 120.184C925.258 120.184 936.332 118.742 936.332 116.963V111.458H886.866Z" fill="url(#paint10_linear_1057_59212)"/>
<path d="M936.331 111.458C936.331 113.237 925.258 114.679 911.599 114.679C897.939 114.679 886.866 113.237 886.866 111.458C886.866 109.68 897.939 108.238 911.599 108.238C925.258 108.238 936.331 109.68 936.331 111.458Z" fill="url(#paint11_linear_1057_59212)"/>
<path d="M911.598 114.901C899.501 114.901 886.851 113.742 886.851 111.505C886.851 111.383 886.895 111.167 887.017 111.167C887.14 111.167 887.087 111.336 887.087 111.458C887.087 112.877 897.154 114.457 911.599 114.457C926.043 114.457 936.11 112.877 936.11 111.458C936.11 111.336 936.131 111.22 936.253 111.22C936.375 111.22 936.346 111.384 936.346 111.507C936.346 113.743 923.696 114.901 911.598 114.901Z" fill="url(#paint12_linear_1057_59212)"/>
<path d="M909.261 111.638C909.504 111.469 909.762 111.303 910.039 111.139C910.313 110.975 910.669 110.827 911.101 110.694C911.536 110.562 912.079 110.454 912.732 110.371C913.384 110.287 914.2 110.243 915.174 110.239C916.13 110.234 917.026 110.264 917.866 110.33C918.703 110.395 919.441 110.494 920.079 110.624C920.715 110.755 921.234 110.916 921.633 111.108C922.031 111.3 922.268 111.52 922.344 111.768L925.129 111.797C925.331 111.798 925.51 111.814 925.663 111.846C925.818 111.878 925.894 111.918 925.894 111.967L925.895 112.197L922.315 112.163C922.189 112.445 921.869 112.702 921.355 112.936C920.843 113.17 920.189 113.372 919.392 113.544L918.088 113.362C917.971 113.344 917.875 113.321 917.8 113.293C917.725 113.266 917.688 113.236 917.688 113.203C917.688 113.159 917.789 113.109 917.99 113.052C918.192 112.995 918.42 112.925 918.673 112.841C918.927 112.758 919.175 112.659 919.42 112.545C919.663 112.431 919.826 112.295 919.911 112.136L911.46 112.052C911.238 112.216 910.988 112.377 910.714 112.535C910.437 112.694 910.073 112.836 909.618 112.963C909.162 113.089 908.595 113.192 907.917 113.271C907.236 113.35 906.384 113.392 905.353 113.397C904.579 113.4 903.825 113.371 903.086 113.309C902.348 113.246 901.692 113.152 901.119 113.027C900.546 112.902 900.076 112.747 899.707 112.563C899.341 112.379 899.135 112.168 899.093 111.928L896.8 111.905C896.598 111.903 896.419 111.888 896.258 111.857C896.1 111.826 896.02 111.785 896.02 111.734L896.018 111.504L899.153 111.534C899.292 111.292 899.576 111.08 900.01 110.901C900.444 110.721 900.975 110.561 901.601 110.42L902.651 110.565C902.969 110.61 903.128 110.663 903.128 110.723C903.128 110.756 903.064 110.796 902.932 110.844C902.797 110.893 902.642 110.95 902.461 111.017C902.283 111.085 902.107 111.163 901.939 111.254C901.768 111.344 901.642 111.446 901.557 111.561L909.261 111.638ZM901.528 111.951C901.591 112.102 901.731 112.232 901.944 112.341C902.157 112.451 902.422 112.541 902.741 112.611C903.06 112.682 903.418 112.733 903.814 112.766C904.213 112.799 904.63 112.815 905.065 112.813C905.573 112.81 906.016 112.788 906.394 112.747C906.769 112.705 907.101 112.649 907.388 112.578C907.673 112.507 907.923 112.424 908.135 112.33C908.347 112.236 908.536 112.134 908.706 112.024L901.528 111.951ZM919.924 111.746C919.861 111.593 919.708 111.459 919.469 111.343C919.23 111.229 918.924 111.132 918.553 111.053C918.182 110.975 917.749 110.917 917.254 110.879C916.762 110.84 916.218 110.823 915.622 110.826C915.094 110.828 914.635 110.852 914.255 110.897C913.874 110.942 913.543 111.002 913.261 111.078C912.982 111.153 912.741 111.242 912.547 111.343C912.351 111.443 912.167 111.551 912 111.666L919.924 111.746Z" fill="#FCB048"/>
<path d="M911.602 108.586C900.574 108.586 889.091 109.56 887.255 111.445C887.327 111.512 887.393 111.583 887.456 111.657C889.004 110.348 898.485 109.031 911.602 109.031C925.056 109.031 934.689 110.417 935.856 111.758C935.913 111.685 935.974 111.614 936.041 111.548C934.524 109.596 922.826 108.586 911.602 108.586Z" fill="url(#paint13_linear_1057_59212)"/>
<path d="M890.466 105.677V111.181C890.466 112.96 901.539 114.402 915.199 114.402C928.858 114.402 939.932 112.96 939.932 111.181V105.677H890.466Z" fill="url(#paint14_linear_1057_59212)"/>
<path d="M915.199 108.897C928.858 108.897 939.932 107.455 939.932 105.676C939.932 103.898 928.858 102.456 915.199 102.456C901.539 102.456 890.466 103.898 890.466 105.676C890.466 107.455 901.539 108.897 915.199 108.897Z" fill="url(#paint15_linear_1057_59212)"/>
<path d="M915.199 109.119C903.102 109.119 890.452 107.96 890.452 105.723C890.452 105.601 890.495 105.385 890.618 105.385C890.74 105.385 890.688 105.554 890.688 105.676C890.688 107.095 900.754 108.675 915.199 108.675C929.644 108.675 939.71 107.095 939.71 105.676C939.71 105.554 939.731 105.439 939.853 105.439C939.976 105.439 939.946 105.602 939.946 105.725C939.946 107.962 927.296 109.119 915.199 109.119Z" fill="url(#paint16_linear_1057_59212)"/>
<path d="M912.862 105.856C913.104 105.687 913.363 105.521 913.639 105.357C913.913 105.193 914.27 105.045 914.702 104.913C915.136 104.78 915.68 104.673 916.332 104.589C916.984 104.506 917.8 104.462 918.774 104.457C919.73 104.452 920.626 104.483 921.466 104.548C922.303 104.614 923.042 104.712 923.68 104.842C924.315 104.973 924.834 105.134 925.234 105.326C925.631 105.518 925.868 105.739 925.944 105.987L928.729 106.015C928.931 106.016 929.11 106.033 929.263 106.065C929.418 106.096 929.494 106.137 929.494 106.185L929.495 106.416L925.915 106.381C925.789 106.663 925.469 106.921 924.955 107.154C924.443 107.388 923.789 107.591 922.992 107.762L921.688 107.58C921.571 107.562 921.475 107.539 921.4 107.512C921.325 107.484 921.288 107.454 921.288 107.422C921.288 107.378 921.389 107.327 921.591 107.271C921.792 107.214 922.02 107.143 922.273 107.059C922.527 106.976 922.775 106.877 923.021 106.763C923.264 106.649 923.426 106.513 923.511 106.354L915.06 106.27C914.838 106.434 914.588 106.595 914.314 106.754C914.038 106.912 913.673 107.054 913.218 107.181C912.763 107.307 912.196 107.41 911.517 107.489C910.837 107.568 909.985 107.61 908.954 107.615C908.179 107.619 907.425 107.589 906.686 107.527C905.948 107.464 905.292 107.37 904.719 107.245C904.146 107.12 903.676 106.966 903.307 106.782C902.941 106.597 902.736 106.386 902.693 106.147L900.4 106.123C900.198 106.122 900.019 106.106 899.859 106.075C899.701 106.045 899.62 106.004 899.62 105.953L899.619 105.723L902.753 105.753C902.892 105.51 903.176 105.299 903.61 105.119C904.045 104.939 904.575 104.779 905.201 104.639L906.251 104.783C906.57 104.828 906.728 104.881 906.728 104.941C906.729 104.974 906.664 105.014 906.532 105.063C906.398 105.111 906.242 105.169 906.061 105.236C905.883 105.303 905.707 105.382 905.539 105.472C905.369 105.562 905.242 105.665 905.157 105.779L912.862 105.856ZM905.128 106.17C905.191 106.32 905.332 106.45 905.545 106.56C905.758 106.669 906.022 106.759 906.341 106.829C906.66 106.9 907.018 106.951 907.414 106.984C907.813 107.017 908.231 107.033 908.666 107.031C909.174 107.028 909.616 107.006 909.994 106.965C910.37 106.923 910.701 106.867 910.988 106.796C911.273 106.725 911.524 106.642 911.736 106.548C911.948 106.454 912.136 106.352 912.307 106.242L905.128 106.17ZM923.525 105.964C923.462 105.811 923.308 105.677 923.069 105.562C922.83 105.447 922.524 105.35 922.153 105.272C921.783 105.193 921.35 105.135 920.855 105.097C920.362 105.059 919.818 105.041 919.222 105.044C918.694 105.046 918.236 105.07 917.855 105.115C917.474 105.16 917.143 105.22 916.861 105.296C916.582 105.372 916.341 105.46 916.148 105.561C915.951 105.662 915.768 105.77 915.6 105.884L923.525 105.964Z" fill="#FCB048"/>
<path d="M915.202 102.804C904.174 102.804 892.692 103.778 890.855 105.663C890.927 105.73 890.994 105.801 891.056 105.875C892.604 104.566 902.085 103.249 915.202 103.249C928.656 103.249 938.289 104.635 939.456 105.976C939.514 105.903 939.575 105.832 939.641 105.766C938.124 103.814 926.426 102.804 915.202 102.804Z" fill="url(#paint17_linear_1057_59212)"/>
<path d="M887.809 99.4382V104.943C887.809 106.722 898.882 108.163 912.542 108.163C926.201 108.163 937.275 106.722 937.275 104.943V99.4382H887.809Z" fill="url(#paint18_linear_1057_59212)"/>
<path d="M937.275 99.4382C937.275 101.217 926.201 102.659 912.542 102.659C898.882 102.659 887.809 101.217 887.809 99.4382C887.809 97.6595 898.882 96.2175 912.542 96.2175C926.201 96.2175 937.275 97.6595 937.275 99.4382Z" fill="url(#paint19_linear_1057_59212)"/>
<path d="M912.542 102.881C900.444 102.881 887.794 101.721 887.794 99.4852C887.794 99.3624 887.838 99.1465 887.961 99.1465C888.083 99.1465 888.03 99.3154 888.03 99.4382C888.03 100.856 898.097 102.437 912.542 102.437C926.987 102.437 937.053 100.856 937.053 99.4382C937.053 99.3154 937.074 99.2003 937.196 99.2003C937.319 99.2003 937.289 99.3642 937.289 99.487C937.289 101.723 924.639 102.881 912.542 102.881Z" fill="url(#paint20_linear_1057_59212)"/>
<path d="M910.205 99.6177C910.447 99.4491 910.705 99.283 910.982 99.1188C911.256 98.9549 911.612 98.8067 912.044 98.6743C912.479 98.542 913.022 98.4344 913.675 98.3508C914.327 98.2673 915.143 98.2233 916.117 98.2185C917.073 98.2138 917.969 98.2442 918.809 98.3099C919.646 98.3753 920.385 98.4735 921.022 98.604C921.658 98.7345 922.177 98.8959 922.577 99.0878C922.974 99.2802 923.211 99.5003 923.287 99.7485L926.072 99.7768C926.274 99.7781 926.453 99.7945 926.606 99.8263C926.761 99.8582 926.837 99.8984 926.837 99.9472L926.838 100.177L923.258 100.143C923.132 100.425 922.812 100.682 922.298 100.916C921.786 101.15 921.132 101.353 920.335 101.524L919.031 101.342C918.914 101.324 918.818 101.301 918.743 101.273C918.668 101.246 918.631 101.216 918.631 101.183C918.631 101.139 918.732 101.089 918.933 101.032C919.135 100.975 919.363 100.905 919.616 100.821C919.87 100.738 920.118 100.639 920.363 100.525C920.606 100.411 920.769 100.275 920.854 100.116L912.403 100.032C912.181 100.196 911.931 100.357 911.657 100.515C911.381 100.674 911.016 100.816 910.561 100.943C910.105 101.069 909.539 101.172 908.86 101.251C908.179 101.33 907.327 101.372 906.296 101.377C905.522 101.381 904.768 101.351 904.029 101.289C903.291 101.226 902.635 101.132 902.062 101.007C901.489 100.882 901.019 100.727 900.65 100.543C900.284 100.359 900.078 100.148 900.036 99.9084L897.743 99.8848C897.541 99.8835 897.362 99.8677 897.202 99.8369C897.043 99.8062 896.963 99.7655 896.963 99.7145L896.961 99.4844L900.096 99.5143C900.235 99.2719 900.519 99.0605 900.953 98.8808C901.387 98.7008 901.918 98.5407 902.544 98.4006L903.594 98.5452C903.913 98.5902 904.071 98.6428 904.071 98.7032C904.071 98.7358 904.007 98.7761 903.875 98.8244C903.74 98.8727 903.585 98.9305 903.404 98.9975C903.226 99.0648 903.05 99.1434 902.882 99.2339C902.711 99.3241 902.585 99.4263 902.5 99.5408L910.205 99.6177ZM902.471 99.9313C902.534 100.082 902.674 100.212 902.887 100.321C903.1 100.431 903.365 100.521 903.684 100.591C904.003 100.662 904.361 100.713 904.757 100.746C905.156 100.779 905.573 100.795 906.009 100.793C906.516 100.79 906.959 100.768 907.337 100.727C907.713 100.685 908.044 100.629 908.331 100.558C908.616 100.487 908.866 100.404 909.078 100.31C909.29 100.216 909.479 100.114 909.649 100.004L902.471 99.9313ZM920.867 99.7255C920.804 99.5726 920.651 99.4386 920.412 99.3234C920.173 99.2086 919.867 99.1116 919.496 99.0334C919.125 98.955 918.693 98.8967 918.197 98.8586C917.705 98.8204 917.161 98.8026 916.565 98.8056C916.037 98.8082 915.578 98.832 915.198 98.8767C914.817 98.9217 914.486 98.9818 914.204 99.0577C913.925 99.1335 913.684 99.2218 913.49 99.3226C913.294 99.4234 913.111 99.5313 912.943 99.6462L920.867 99.7255Z" fill="#FCB048"/>
<path d="M912.545 96.5662C901.517 96.5662 890.034 97.5399 888.198 99.4248C888.27 99.4914 888.337 99.5624 888.399 99.637C889.947 98.3282 899.428 97.0105 912.545 97.0105C925.999 97.0105 935.632 98.3969 936.799 99.7379C936.856 99.6643 936.918 99.5939 936.984 99.5277C935.467 97.5759 923.769 96.5662 912.545 96.5662Z" fill="url(#paint21_linear_1057_59212)"/>
<path d="M880.933 93.6562V99.1609C880.933 100.94 892.007 102.381 905.666 102.381C919.326 102.381 930.399 100.94 930.399 99.1609V93.6562H880.933Z" fill="url(#paint22_linear_1057_59212)"/>
<path d="M905.666 96.8771C919.325 96.8771 930.398 95.4351 930.398 93.6564C930.398 91.8777 919.325 90.4358 905.666 90.4358C892.006 90.4358 880.933 91.8777 880.933 93.6564C880.933 95.4351 892.006 96.8771 905.666 96.8771Z" fill="url(#paint23_linear_1057_59212)"/>
<path d="M905.666 97.0992C893.569 97.0992 880.919 95.9398 880.919 93.7034C880.919 93.5806 880.962 93.3647 881.085 93.3647C881.207 93.3647 881.155 93.5336 881.155 93.6564C881.155 95.0746 891.221 96.6547 905.666 96.6547C920.111 96.6547 930.177 95.0746 930.177 93.6564C930.177 93.5336 930.198 93.4185 930.32 93.4185C930.443 93.4185 930.413 93.5824 930.413 93.7052C930.413 95.9415 917.763 97.0992 905.666 97.0992Z" fill="url(#paint24_linear_1057_59212)"/>
<path d="M903.329 93.8359C903.572 93.6673 903.83 93.5011 904.106 93.337C904.38 93.1731 904.737 93.0249 905.169 92.8926C905.603 92.7602 906.147 92.6526 906.799 92.569C907.451 92.4855 908.267 92.4415 909.241 92.4368C910.197 92.432 911.094 92.4625 911.933 92.5282C912.77 92.5936 913.509 92.6918 914.147 92.8223C914.782 92.9528 915.301 93.1142 915.701 93.3061C916.098 93.4984 916.335 93.7186 916.411 93.9667L919.196 93.995C919.398 93.9963 919.577 94.0127 919.73 94.0446C919.886 94.0764 919.961 94.1167 919.961 94.1655L919.962 94.3955L916.382 94.3609C916.257 94.6427 915.937 94.9005 915.422 95.1343C914.91 95.3683 914.256 95.5707 913.459 95.742L912.155 95.56C912.038 95.5422 911.943 95.5194 911.867 95.4917C911.792 95.4643 911.756 95.4344 911.755 95.4018C911.755 95.3575 911.856 95.307 912.058 95.2505C912.26 95.1936 912.487 95.1232 912.741 95.0394C912.994 94.9559 913.242 94.857 913.488 94.7429C913.731 94.6291 913.893 94.493 913.978 94.3345L905.528 94.2504C905.306 94.4143 905.055 94.5753 904.781 94.7335C904.505 94.8918 904.14 95.0344 903.685 95.1609C903.23 95.2874 902.663 95.39 901.985 95.4691C901.304 95.5479 900.452 95.5899 899.421 95.5949C898.646 95.5988 897.892 95.5693 897.154 95.5067C896.415 95.444 895.759 95.3502 895.186 95.2254C894.613 95.1003 894.143 94.9457 893.775 94.7617C893.409 94.5774 893.203 94.3659 893.16 94.1266L890.868 94.103C890.665 94.1018 890.487 94.0859 890.326 94.0552C890.168 94.0245 890.087 93.9837 890.087 93.9327L890.086 93.7026L893.22 93.7325C893.359 93.4901 893.643 93.2788 894.077 93.099C894.512 92.919 895.042 92.7589 895.668 92.6188L896.718 92.7634C897.037 92.8084 897.195 92.8609 897.195 92.9214C897.196 92.954 897.131 92.9943 896.999 93.0426C896.865 93.091 896.71 93.1487 896.528 93.2158C896.35 93.283 896.174 93.3616 896.006 93.4521C895.836 93.5423 895.709 93.6445 895.624 93.759L903.329 93.8359ZM895.595 94.1495C895.658 94.3004 895.799 94.4302 896.012 94.5395C896.225 94.6491 896.489 94.7389 896.808 94.8094C897.127 94.8798 897.485 94.9314 897.882 94.9644C898.281 94.9973 898.698 95.0128 899.133 95.0107C899.641 95.0082 900.084 94.9862 900.461 94.9449C900.837 94.9033 901.168 94.8472 901.455 94.776C901.74 94.7048 901.991 94.6224 902.203 94.5283C902.415 94.4342 902.603 94.3323 902.774 94.2222L895.595 94.1495ZM913.992 93.9437C913.929 93.7908 913.775 93.6568 913.536 93.5416C913.298 93.4267 912.991 93.3298 912.621 93.2517C912.25 93.1732 911.817 93.1149 911.322 93.0768C910.829 93.0387 910.285 93.0209 909.69 93.0238C909.161 93.0264 908.703 93.0502 908.322 93.0949C907.942 93.1399 907.61 93.2 907.328 93.276C907.049 93.3517 906.809 93.44 906.615 93.5408C906.418 93.6416 906.235 93.7495 906.067 93.8644L913.992 93.9437Z" fill="#FCB048"/>
<path d="M905.669 90.7842C894.641 90.7842 883.159 91.7579 881.322 93.6428C881.394 93.7094 881.461 93.7804 881.523 93.855C883.071 92.5462 892.552 91.2286 905.669 91.2286C919.123 91.2286 928.756 92.6149 929.923 93.9559C929.981 93.8823 930.042 93.8119 930.108 93.7457C928.591 91.7939 916.893 90.7842 905.669 90.7842Z" fill="url(#paint25_linear_1057_59212)"/>
<path d="M886.866 87.8911V93.3957C886.866 95.1744 897.939 96.6163 911.599 96.6163C925.258 96.6163 936.332 95.1744 936.332 93.3957V87.8911H886.866Z" fill="url(#paint26_linear_1057_59212)"/>
<path d="M911.599 91.1119C925.258 91.1119 936.331 89.67 936.331 87.8913C936.331 86.1126 925.258 84.6707 911.599 84.6707C897.939 84.6707 886.866 86.1126 886.866 87.8913C886.866 89.67 897.939 91.1119 911.599 91.1119Z" fill="url(#paint27_linear_1057_59212)"/>
<path d="M911.598 91.3338C899.501 91.3338 886.851 90.1744 886.851 87.938C886.851 87.8152 886.895 87.5994 887.017 87.5994C887.14 87.5994 887.087 87.7682 887.087 87.8911C887.087 89.3093 897.154 90.8894 911.599 90.8894C926.043 90.8894 936.11 89.3093 936.11 87.8911C936.11 87.7683 936.131 87.6532 936.253 87.6532C936.375 87.6532 936.346 87.817 936.346 87.9398C936.346 90.1762 923.696 91.3338 911.598 91.3338Z" fill="url(#paint28_linear_1057_59212)"/>
<path d="M909.261 88.0705C909.504 87.902 909.762 87.7358 910.039 87.5716C910.313 87.4078 910.669 87.2595 911.101 87.1272C911.536 86.9949 912.079 86.8872 912.732 86.8036C913.384 86.7202 914.2 86.6761 915.174 86.6714C916.13 86.6667 917.026 86.6971 917.866 86.7628C918.703 86.8282 919.441 86.9264 920.079 87.0569C920.715 87.1874 921.234 87.3488 921.633 87.5406C922.031 87.733 922.268 87.9532 922.344 88.2013L925.129 88.2296C925.331 88.2309 925.51 88.2473 925.663 88.2792C925.818 88.3111 925.894 88.3513 925.894 88.4001L925.895 88.6302L922.315 88.5955C922.189 88.8774 921.869 89.1352 921.355 89.3689C920.843 89.6029 920.189 89.8053 919.392 89.9766L918.088 89.7947C917.971 89.7768 917.875 89.754 917.8 89.7263C917.725 89.6989 917.688 89.669 917.688 89.6363C917.688 89.5921 917.789 89.5416 917.99 89.485C918.192 89.4281 918.42 89.3578 918.673 89.2739C918.927 89.1904 919.175 89.0916 919.42 88.9775C919.663 88.8636 919.826 88.7275 919.911 88.569L911.46 88.485C911.238 88.6489 910.988 88.8099 910.714 88.9681C910.437 89.1264 910.073 89.2689 909.618 89.3954C909.162 89.522 908.595 89.6246 907.917 89.7037C907.236 89.7825 906.384 89.8245 905.353 89.8295C904.579 89.8334 903.825 89.8038 903.086 89.7414C902.348 89.6786 901.692 89.5849 901.119 89.4599C900.546 89.3348 900.076 89.1802 899.707 88.9962C899.341 88.8119 899.135 88.6004 899.093 88.3611L896.8 88.3376C896.598 88.3363 896.419 88.3205 896.258 88.2897C896.1 88.259 896.02 88.2183 896.02 88.1672L896.018 87.9371L899.153 87.967C899.292 87.7246 899.576 87.5133 900.01 87.3335C900.444 87.1535 900.975 86.9934 901.601 86.8533L902.651 86.9979C902.969 87.0429 903.128 87.0954 903.128 87.1559C903.128 87.1885 903.064 87.2288 902.932 87.2771C902.797 87.3255 902.642 87.3833 902.461 87.4503C902.283 87.5175 902.107 87.5961 901.939 87.6866C901.768 87.7768 901.642 87.879 901.557 87.9935L909.261 88.0705ZM901.528 88.3841C901.591 88.535 901.731 88.6648 901.944 88.7741C902.157 88.8838 902.422 88.9735 902.741 89.044C903.06 89.1145 903.418 89.1661 903.814 89.199C904.213 89.232 904.63 89.2475 905.065 89.2453C905.573 89.2429 906.016 89.2208 906.394 89.1795C906.769 89.1379 907.101 89.0818 907.388 89.0106C907.673 88.9395 907.923 88.8571 908.135 88.763C908.347 88.6689 908.536 88.5669 908.706 88.4568L901.528 88.3841ZM919.924 88.1784C919.861 88.0255 919.708 87.8915 919.469 87.7763C919.23 87.6614 918.924 87.5645 918.553 87.4863C918.182 87.4078 917.749 87.3495 917.254 87.3113C916.762 87.2732 916.218 87.2555 915.622 87.2584C915.094 87.2609 914.635 87.2848 914.255 87.3295C913.874 87.3746 913.543 87.4346 913.261 87.5106C912.982 87.5863 912.741 87.6746 912.547 87.7754C912.351 87.8763 912.167 87.9841 912 88.099L919.924 88.1784Z" fill="#FCB048"/>
<path d="M911.602 85.019C900.574 85.019 889.091 85.9928 887.255 87.8777C887.327 87.9443 887.393 88.0152 887.456 88.0899C889.004 86.7811 898.485 85.4635 911.602 85.4635C925.056 85.4635 934.689 86.8498 935.856 88.1908C935.913 88.1172 935.974 88.0468 936.041 87.9805C934.524 86.0288 922.826 85.019 911.602 85.019Z" fill="url(#paint29_linear_1057_59212)"/>
<path d="M883.78 82.1096V87.6142C883.78 89.393 894.853 90.8349 908.513 90.8349C922.172 90.8349 933.246 89.393 933.246 87.6142V82.1096H883.78Z" fill="url(#paint30_linear_1057_59212)"/>
<path d="M908.513 85.3302C922.172 85.3302 933.246 83.8883 933.246 82.1096C933.246 80.3308 922.172 78.8889 908.513 78.8889C894.853 78.8889 883.78 80.3308 883.78 82.1096C883.78 83.8883 894.853 85.3302 908.513 85.3302Z" fill="url(#paint31_linear_1057_59212)"/>
<path d="M908.513 85.5522C896.415 85.5522 883.765 84.3928 883.765 82.1565C883.765 82.0337 883.809 81.8179 883.931 81.8179C884.054 81.8179 884.001 81.9867 884.001 82.1095C884.001 83.5277 894.068 85.1079 908.513 85.1079C922.957 85.1079 933.024 83.5277 933.024 82.1095C933.024 81.9867 933.045 81.8716 933.167 81.8716C933.29 81.8716 933.26 82.0355 933.26 82.1583C933.26 84.3946 920.61 85.5522 908.513 85.5522Z" fill="url(#paint32_linear_1057_59212)"/>
<path d="M908.515 79.2375C897.488 79.2375 886.005 80.2113 884.168 82.0962C884.24 82.1627 884.307 82.2337 884.369 82.3084C885.917 80.9996 895.399 79.682 908.515 79.682C921.969 79.682 931.602 81.0683 932.769 82.4093C932.827 82.3357 932.888 82.2653 932.954 82.199C931.437 80.2473 919.739 79.2375 908.515 79.2375Z" fill="url(#paint33_linear_1057_59212)"/>
<path d="M790.021 121.025V128.984C790.021 131.555 806.03 133.64 825.778 133.64C845.527 133.64 861.536 131.555 861.536 128.984V121.025H790.021Z" fill="url(#paint34_linear_1057_59212)"/>
<path d="M861.535 121.025C861.535 123.597 845.526 125.682 825.777 125.682C806.029 125.682 790.02 123.597 790.02 121.025C790.02 118.454 806.029 116.369 825.777 116.369C845.526 116.369 861.535 118.454 861.535 121.025Z" fill="url(#paint35_linear_1057_59212)"/>
<path d="M825.778 126.002C808.289 126.002 790 124.326 790 121.093C790 120.916 790.063 120.604 790.24 120.604C790.417 120.604 790.341 120.848 790.341 121.025C790.341 123.076 804.895 125.36 825.778 125.36C846.662 125.36 861.216 123.076 861.216 121.025C861.216 120.848 861.246 120.681 861.423 120.681C861.6 120.681 861.557 120.918 861.557 121.096C861.557 124.329 843.268 126.002 825.778 126.002Z" fill="url(#paint36_linear_1057_59212)"/>
<path d="M822.4 121.285C822.751 121.041 823.124 120.801 823.524 120.564C823.919 120.326 824.435 120.112 825.06 119.921C825.688 119.73 826.474 119.574 827.417 119.453C828.36 119.333 829.539 119.269 830.947 119.262C832.33 119.255 833.626 119.299 834.839 119.394C836.05 119.489 837.118 119.631 838.04 119.819C838.958 120.008 839.708 120.241 840.287 120.519C840.861 120.797 841.203 121.115 841.314 121.474L845.34 121.515C845.632 121.517 845.891 121.54 846.112 121.586C846.337 121.632 846.446 121.691 846.446 121.761L846.448 122.094L841.272 122.044C841.09 122.451 840.627 122.824 839.884 123.162C839.144 123.5 838.198 123.793 837.045 124.04L835.16 123.777C834.992 123.752 834.853 123.719 834.744 123.679C834.635 123.639 834.583 123.596 834.582 123.548C834.582 123.484 834.728 123.412 835.02 123.33C835.311 123.248 835.64 123.146 836.007 123.025C836.373 122.904 836.732 122.761 837.087 122.596C837.438 122.431 837.673 122.235 837.796 122.006L825.579 121.884C825.258 122.121 824.895 122.354 824.5 122.583C824.1 122.811 823.573 123.017 822.915 123.2C822.256 123.383 821.437 123.532 820.456 123.646C819.472 123.76 818.24 123.82 816.749 123.828C815.63 123.833 814.54 123.791 813.472 123.7C812.404 123.61 811.456 123.474 810.627 123.294C809.799 123.113 809.12 122.889 808.587 122.623C808.057 122.357 807.76 122.051 807.698 121.705L804.384 121.671C804.092 121.669 803.833 121.646 803.601 121.602C803.372 121.557 803.255 121.498 803.255 121.425L803.253 121.092L807.785 121.135C807.986 120.785 808.396 120.479 809.024 120.219C809.652 119.959 810.419 119.728 811.324 119.525L812.842 119.734C813.303 119.799 813.532 119.875 813.532 119.962C813.533 120.01 813.439 120.068 813.248 120.138C813.054 120.208 812.83 120.291 812.568 120.388C812.31 120.485 812.056 120.599 811.813 120.73C811.567 120.86 811.384 121.008 811.261 121.173L822.4 121.285ZM811.219 121.738C811.31 121.956 811.513 122.144 811.821 122.302C812.129 122.46 812.511 122.59 812.973 122.692C813.434 122.794 813.951 122.869 814.524 122.916C815.101 122.964 815.704 122.986 816.333 122.983C817.067 122.98 817.708 122.948 818.254 122.888C818.797 122.828 819.276 122.747 819.691 122.644C820.103 122.541 820.465 122.422 820.772 122.286C821.078 122.15 821.351 122.002 821.597 121.843L811.219 121.738ZM837.816 121.441C837.725 121.22 837.503 121.026 837.157 120.859C836.812 120.693 836.369 120.553 835.833 120.44C835.297 120.327 834.671 120.242 833.956 120.187C833.244 120.132 832.457 120.106 831.596 120.111C830.832 120.114 830.169 120.149 829.619 120.213C829.069 120.279 828.59 120.365 828.182 120.475C827.778 120.585 827.43 120.712 827.15 120.858C826.866 121.004 826.601 121.16 826.359 121.326L837.816 121.441Z" fill="#FCB048"/>
<path d="M825.782 116.873C809.839 116.873 793.238 118.281 790.583 121.006C790.686 121.102 790.783 121.205 790.873 121.313C793.111 119.42 806.819 117.515 825.782 117.515C845.233 117.515 859.161 119.52 860.848 121.459C860.931 121.352 861.019 121.25 861.115 121.155C858.922 118.333 842.009 116.873 825.782 116.873Z" fill="url(#paint37_linear_1057_59212)"/>
<path d="M798.597 112.691V120.649C798.597 123.221 814.606 125.305 834.355 125.305C854.103 125.305 870.112 123.221 870.112 120.649V112.691H798.597Z" fill="url(#paint38_linear_1057_59212)"/>
<path d="M870.112 112.691C870.112 115.262 854.103 117.347 834.355 117.347C814.607 117.347 798.597 115.262 798.597 112.691C798.597 110.119 814.606 108.034 834.355 108.034C854.103 108.034 870.112 110.119 870.112 112.691Z" fill="url(#paint39_linear_1057_59212)"/>
<path d="M834.355 117.668C816.865 117.668 798.576 115.992 798.576 112.759C798.576 112.581 798.64 112.269 798.816 112.269C798.993 112.269 798.917 112.513 798.917 112.691C798.917 114.741 813.471 117.025 834.355 117.025C855.239 117.025 869.792 114.741 869.792 112.691C869.792 112.513 869.822 112.347 869.999 112.347C870.176 112.347 870.134 112.584 870.134 112.761C870.134 115.994 851.844 117.668 834.355 117.668Z" fill="url(#paint40_linear_1057_59212)"/>
<path d="M830.976 112.95C831.327 112.706 831.7 112.466 832.1 112.229C832.496 111.992 833.011 111.778 833.636 111.586C834.264 111.395 835.05 111.239 835.993 111.118C836.936 110.998 838.116 110.934 839.524 110.927C840.906 110.92 842.202 110.965 843.416 111.059C844.626 111.154 845.694 111.296 846.616 111.485C847.535 111.673 848.285 111.907 848.863 112.184C849.437 112.462 849.78 112.78 849.89 113.139L853.916 113.18C854.209 113.182 854.467 113.206 854.688 113.252C854.913 113.298 855.022 113.356 855.022 113.426L855.024 113.759L849.848 113.709C849.666 114.117 849.204 114.489 848.46 114.827C847.72 115.165 846.774 115.458 845.622 115.706L843.737 115.443C843.568 115.417 843.429 115.384 843.321 115.344C843.212 115.304 843.159 115.261 843.159 115.214C843.159 115.15 843.304 115.077 843.596 114.995C843.888 114.913 844.217 114.811 844.583 114.69C844.95 114.569 845.309 114.426 845.663 114.261C846.015 114.097 846.25 113.9 846.372 113.671L834.155 113.549C833.834 113.786 833.472 114.019 833.076 114.248C832.676 114.477 832.149 114.683 831.491 114.866C830.833 115.048 830.013 115.197 829.033 115.311C828.048 115.425 826.816 115.486 825.326 115.493C824.206 115.499 823.116 115.456 822.048 115.366C820.98 115.275 820.032 115.139 819.204 114.959C818.375 114.778 817.696 114.554 817.163 114.288C816.634 114.022 816.336 113.716 816.275 113.37L812.96 113.336C812.668 113.334 812.409 113.311 812.177 113.267C811.948 113.223 811.832 113.164 811.832 113.09L811.83 112.757L816.362 112.8C816.562 112.45 816.973 112.144 817.601 111.885C818.229 111.624 818.995 111.393 819.901 111.19L821.418 111.399C821.879 111.464 822.108 111.54 822.109 111.628C822.109 111.675 822.016 111.733 821.825 111.803C821.63 111.873 821.406 111.956 821.144 112.053C820.886 112.151 820.632 112.264 820.39 112.395C820.143 112.525 819.96 112.673 819.837 112.839L830.976 112.95ZM819.795 113.403C819.886 113.622 820.089 113.809 820.397 113.967C820.705 114.126 821.088 114.256 821.549 114.357C822.01 114.459 822.527 114.534 823.101 114.582C823.678 114.629 824.281 114.652 824.91 114.649C825.644 114.645 826.284 114.613 826.831 114.553C827.373 114.493 827.852 114.412 828.267 114.309C828.679 114.206 829.042 114.087 829.348 113.951C829.654 113.815 829.927 113.668 830.173 113.509L819.795 113.403ZM846.392 113.106C846.301 112.885 846.079 112.691 845.734 112.525C845.388 112.359 844.946 112.218 844.41 112.105C843.873 111.992 843.248 111.908 842.532 111.853C841.82 111.797 841.034 111.772 840.172 111.776C839.408 111.78 838.746 111.814 838.195 111.879C837.645 111.944 837.166 112.031 836.759 112.141C836.355 112.25 836.007 112.378 835.727 112.523C835.443 112.669 835.178 112.825 834.935 112.991L846.392 113.106Z" fill="#FCB048"/>
<path d="M834.36 108.538C818.416 108.538 801.815 109.946 799.16 112.671C799.264 112.767 799.36 112.87 799.45 112.978C801.688 111.086 815.396 109.181 834.36 109.181C853.811 109.181 867.738 111.185 869.425 113.124C869.508 113.018 869.597 112.916 869.693 112.82C867.499 109.998 850.587 108.538 834.36 108.538Z" fill="url(#paint41_linear_1057_59212)"/>
<path d="M803.803 104.331V112.29C803.803 114.861 819.812 116.946 839.561 116.946C859.309 116.946 875.318 114.861 875.318 112.29V104.331H803.803Z" fill="url(#paint42_linear_1057_59212)"/>
<path d="M839.559 108.987C859.308 108.987 875.317 106.903 875.317 104.331C875.317 101.759 859.308 99.6748 839.559 99.6748C819.811 99.6748 803.802 101.759 803.802 104.331C803.802 106.903 819.811 108.987 839.559 108.987Z" fill="url(#paint43_linear_1057_59212)"/>
<path d="M839.56 109.308C822.07 109.308 803.781 107.632 803.781 104.399C803.781 104.221 803.845 103.909 804.022 103.909C804.199 103.909 804.122 104.153 804.122 104.331C804.122 106.381 818.676 108.666 839.56 108.666C860.444 108.666 874.997 106.381 874.997 104.331C874.997 104.153 875.027 103.987 875.204 103.987C875.381 103.987 875.339 104.224 875.339 104.401C875.339 107.635 857.05 109.308 839.56 109.308Z" fill="url(#paint44_linear_1057_59212)"/>
<path d="M836.181 104.591C836.532 104.347 836.905 104.107 837.305 103.869C837.701 103.632 838.217 103.418 838.841 103.227C839.469 103.035 840.255 102.88 841.198 102.759C842.141 102.638 843.321 102.575 844.729 102.568C846.111 102.561 847.407 102.605 848.621 102.7C849.831 102.795 850.899 102.937 851.821 103.125C852.74 103.314 853.49 103.547 854.068 103.825C854.642 104.103 854.985 104.421 855.095 104.78L859.121 104.821C859.413 104.823 859.672 104.846 859.893 104.892C860.118 104.938 860.227 104.997 860.227 105.067L860.229 105.4L855.053 105.35C854.871 105.757 854.409 106.13 853.665 106.468C852.925 106.806 851.979 107.099 850.827 107.346L848.942 107.083C848.773 107.057 848.634 107.025 848.525 106.984C848.417 106.945 848.364 106.902 848.364 106.854C848.364 106.791 848.509 106.718 848.801 106.636C849.093 106.553 849.422 106.452 849.788 106.331C850.155 106.21 850.513 106.067 850.868 105.902C851.22 105.737 851.455 105.541 851.577 105.311L839.36 105.19C839.039 105.427 838.677 105.66 838.281 105.888C837.881 106.117 837.354 106.323 836.696 106.506C836.038 106.689 835.218 106.838 834.238 106.952C833.253 107.066 832.021 107.127 830.531 107.134C829.411 107.139 828.321 107.097 827.253 107.006C826.185 106.916 825.237 106.78 824.409 106.6C823.58 106.419 822.901 106.195 822.368 105.929C821.839 105.663 821.541 105.357 821.48 105.011L818.165 104.977C817.873 104.975 817.614 104.952 817.382 104.908C817.153 104.863 817.037 104.804 817.037 104.73L817.035 104.398L821.567 104.441C821.767 104.091 822.178 103.785 822.806 103.525C823.434 103.265 824.2 103.034 825.106 102.831L826.623 103.04C827.084 103.105 827.313 103.181 827.314 103.268C827.314 103.316 827.221 103.374 827.03 103.444C826.836 103.514 826.611 103.597 826.35 103.694C826.092 103.791 825.837 103.905 825.595 104.036C825.348 104.166 825.165 104.314 825.043 104.479L836.181 104.591ZM825 105.044C825.091 105.262 825.294 105.45 825.602 105.608C825.91 105.766 826.293 105.896 826.754 105.998C827.215 106.1 827.732 106.175 828.306 106.222C828.882 106.27 829.485 106.292 830.115 106.289C830.849 106.286 831.489 106.254 832.035 106.194C832.578 106.134 833.057 106.053 833.472 105.95C833.884 105.847 834.247 105.728 834.553 105.592C834.859 105.456 835.132 105.308 835.379 105.149L825 105.044ZM851.597 104.747C851.506 104.526 851.284 104.332 850.939 104.165C850.593 103.999 850.151 103.859 849.615 103.746C849.078 103.633 848.453 103.548 847.737 103.493C847.025 103.438 846.239 103.412 845.377 103.417C844.613 103.42 843.95 103.455 843.4 103.519C842.85 103.585 842.371 103.671 841.963 103.781C841.559 103.891 841.212 104.018 840.932 104.164C840.648 104.31 840.382 104.466 840.14 104.632L851.597 104.747Z" fill="#FCB048"/>
<path d="M839.565 100.179C823.621 100.179 807.02 101.587 804.365 104.312C804.469 104.408 804.566 104.511 804.655 104.619C806.894 102.726 820.601 100.821 839.565 100.821C859.016 100.821 872.943 102.826 874.63 104.764C874.713 104.658 874.802 104.556 874.898 104.461C872.704 101.639 855.792 100.179 839.565 100.179Z" fill="url(#paint45_linear_1057_59212)"/>
<path d="M799.961 95.3125V103.271C799.961 105.842 815.97 107.927 835.719 107.927C855.467 107.927 871.476 105.842 871.476 103.271V95.3125H799.961Z" fill="url(#paint46_linear_1057_59212)"/>
<path d="M871.476 95.3123C871.476 97.8839 855.467 99.9685 835.719 99.9685C815.97 99.9685 799.961 97.8839 799.961 95.3123C799.961 92.7407 815.97 90.656 835.719 90.656C855.467 90.656 871.476 92.7407 871.476 95.3123Z" fill="url(#paint47_linear_1057_59212)"/>
<path d="M835.718 100.29C818.228 100.29 799.94 98.6137 799.94 95.3806C799.94 95.203 800.003 94.8909 800.18 94.8909C800.357 94.8909 800.281 95.135 800.281 95.3126C800.281 97.363 814.834 99.6474 835.718 99.6474C856.602 99.6474 871.155 97.363 871.155 95.3126C871.155 95.135 871.186 94.9687 871.363 94.9687C871.54 94.9687 871.497 95.2056 871.497 95.3832C871.497 98.6163 853.208 100.29 835.718 100.29Z" fill="url(#paint48_linear_1057_59212)"/>
<path d="M832.339 95.5719C832.69 95.3282 833.063 95.088 833.463 94.8506C833.859 94.6136 834.375 94.3994 834.999 94.208C835.627 94.0167 836.413 93.8611 837.356 93.7403C838.299 93.6196 839.479 93.556 840.887 93.549C842.269 93.5423 843.565 93.5862 844.779 93.6812C845.989 93.7758 847.057 93.9178 847.979 94.1064C848.898 94.2951 849.648 94.5284 850.226 94.8059C850.801 95.0839 851.143 95.4023 851.253 95.761L855.279 95.8019C855.572 95.8038 855.83 95.8275 856.051 95.8736C856.276 95.9197 856.385 95.9778 856.386 96.0483L856.387 96.3809L851.211 96.331C851.03 96.7384 850.567 97.1111 849.823 97.4491C849.083 97.7874 848.137 98.0801 846.985 98.3277L845.1 98.0645C844.931 98.0387 844.793 98.0057 844.684 97.9657C844.575 97.9261 844.522 97.8828 844.522 97.8357C844.522 97.7717 844.667 97.6988 844.959 97.617C845.251 97.5347 845.58 97.433 845.946 97.3118C846.313 97.1911 846.672 97.0482 847.027 96.8832C847.378 96.7186 847.613 96.5218 847.735 96.2927L835.518 96.1711C835.197 96.4081 834.835 96.6409 834.439 96.8697C834.039 97.0985 833.512 97.3046 832.854 97.4875C832.196 97.6704 831.376 97.8187 830.396 97.9331C829.411 98.0471 828.179 98.1077 826.689 98.115C825.569 98.1206 824.479 98.0779 823.411 97.9876C822.343 97.8968 821.395 97.7613 820.567 97.5808C819.738 97.3998 819.059 97.1764 818.526 96.9103C817.997 96.6439 817.699 96.3381 817.638 95.9922L814.323 95.9581C814.031 95.9562 813.773 95.9333 813.54 95.8889C813.311 95.8445 813.195 95.7856 813.195 95.7118L813.193 95.3792L817.725 95.4225C817.925 95.072 818.336 94.7664 818.964 94.5065C819.592 94.2463 820.358 94.0148 821.264 93.8122L822.782 94.0213C823.243 94.0864 823.471 94.1624 823.472 94.2498C823.472 94.2969 823.379 94.3552 823.188 94.425C822.994 94.4949 822.769 94.5784 822.508 94.6753C822.25 94.7725 821.996 94.8862 821.753 95.0171C821.506 95.1475 821.323 95.2952 821.201 95.4607L832.339 95.5719ZM821.158 96.0253C821.249 96.2434 821.453 96.431 821.76 96.5892C822.068 96.7476 822.451 96.8775 822.912 96.9793C823.373 97.0812 823.89 97.1558 824.464 97.2035C825.041 97.251 825.644 97.2735 826.273 97.2704C827.007 97.2668 827.647 97.2349 828.194 97.1753C828.736 97.1152 829.215 97.034 829.631 96.9311C830.042 96.8281 830.405 96.7091 830.711 96.5729C831.018 96.4369 831.29 96.2895 831.537 96.1304L821.158 96.0253ZM847.755 95.7278C847.664 95.5068 847.442 95.313 847.097 95.1465C846.752 94.9805 846.309 94.8403 845.773 94.7272C845.237 94.6138 844.611 94.5295 843.895 94.4744C843.183 94.4193 842.397 94.3935 841.535 94.3978C840.771 94.4016 840.109 94.436 839.558 94.5007C839.008 94.5657 838.529 94.6526 838.122 94.7624C837.718 94.8719 837.37 94.9995 837.09 95.1453C836.806 95.2911 836.541 95.447 836.298 95.6131L847.755 95.7278Z" fill="#FCB048"/>
<path d="M835.723 91.1602C819.779 91.1602 803.178 92.568 800.523 95.2931C800.627 95.3893 800.724 95.4919 800.813 95.5998C803.052 93.7077 816.759 91.8026 835.723 91.8026C855.174 91.8026 869.101 93.8069 870.788 95.7457C870.871 95.6393 870.96 95.5375 871.056 95.4418C868.862 92.62 851.95 91.1602 835.723 91.1602Z" fill="url(#paint49_linear_1057_59212)"/>
<path d="M790.021 86.9529V94.9113C790.021 97.4828 806.03 99.5674 825.778 99.5674C845.527 99.5674 861.536 97.4828 861.536 94.9113V86.9529H790.021Z" fill="url(#paint50_linear_1057_59212)"/>
<path d="M825.777 91.6094C845.526 91.6094 861.535 89.5247 861.535 86.9531C861.535 84.3816 845.526 82.2969 825.777 82.2969C806.029 82.2969 790.02 84.3816 790.02 86.9531C790.02 89.5247 806.029 91.6094 825.777 91.6094Z" fill="url(#paint51_linear_1057_59212)"/>
<path d="M825.778 91.9305C808.289 91.9305 790 90.2543 790 87.0212C790 86.8435 790.063 86.5315 790.24 86.5315C790.417 86.5315 790.341 86.7756 790.341 86.9531C790.341 89.0035 804.895 91.288 825.778 91.288C846.662 91.288 861.216 89.0035 861.216 86.9531C861.216 86.7756 861.246 86.6092 861.423 86.6092C861.6 86.6092 861.557 86.8461 861.557 87.0237C861.557 90.2569 843.268 91.9305 825.778 91.9305Z" fill="url(#paint52_linear_1057_59212)"/>
<path d="M822.4 87.2127C822.751 86.969 823.124 86.7288 823.524 86.4914C823.919 86.2544 824.435 86.0402 825.06 85.8489C825.688 85.6576 826.474 85.5019 827.417 85.3811C828.36 85.2604 829.539 85.1967 830.947 85.1899C832.33 85.183 833.626 85.2271 834.839 85.3221C836.05 85.4166 837.118 85.5586 838.04 85.7473C838.958 85.9359 839.708 86.1693 840.287 86.4467C840.861 86.7248 841.203 87.0431 841.314 87.4018L845.34 87.4428C845.632 87.4446 845.891 87.4684 846.112 87.5144C846.337 87.5605 846.446 87.6186 846.446 87.6892L846.448 88.0218L841.272 87.9718C841.09 88.3792 840.627 88.7519 839.884 89.0898C839.144 89.4282 838.198 89.7208 837.045 89.9685L835.16 89.7054C834.992 89.6796 834.853 89.6467 834.744 89.6066C834.635 89.5669 834.583 89.5237 834.582 89.4766C834.582 89.4126 834.728 89.3396 835.02 89.2578C835.311 89.1756 835.64 89.0739 836.007 88.9527C836.373 88.8319 836.732 88.689 837.087 88.524C837.438 88.3594 837.673 88.1627 837.796 87.9336L825.579 87.8119C825.258 88.049 824.895 88.2817 824.5 88.5105C824.1 88.7393 823.573 88.9454 822.915 89.1283C822.256 89.3112 821.437 89.4595 820.456 89.5739C819.472 89.6879 818.24 89.7486 816.749 89.7558C815.63 89.7614 814.54 89.7187 813.472 89.6284C812.404 89.5377 811.456 89.4021 810.627 89.2216C809.799 89.0407 809.12 88.8172 808.587 88.5512C808.057 88.2847 807.76 87.9789 807.698 87.633L804.384 87.5989C804.092 87.5971 803.833 87.5742 803.601 87.5297C803.372 87.4854 803.255 87.4264 803.255 87.3527L803.253 87.02L807.785 87.0633C807.986 86.7128 808.396 86.4073 809.024 86.1474C809.652 85.8871 810.419 85.6556 811.324 85.4531L812.842 85.6622C813.303 85.7272 813.532 85.8031 813.532 85.8905C813.533 85.9377 813.439 85.996 813.248 86.0658C813.054 86.1358 812.83 86.2193 812.568 86.3162C812.31 86.4134 812.056 86.527 811.813 86.6579C811.567 86.7883 811.384 86.936 811.261 87.1015L822.4 87.2127ZM811.219 87.6661C811.31 87.8843 811.513 88.0719 811.821 88.2299C812.129 88.3884 812.511 88.5183 812.973 88.6202C813.434 88.722 813.951 88.7966 814.524 88.8442C815.101 88.8919 815.704 88.9143 816.333 88.9112C817.067 88.9076 817.708 88.8757 818.254 88.816C818.797 88.7559 819.276 88.6748 819.691 88.5719C820.103 88.469 820.465 88.3498 820.772 88.2138C821.078 88.0777 821.351 87.9304 821.597 87.7712L811.219 87.6661ZM837.816 87.3686C837.725 87.1475 837.503 86.9538 837.157 86.7873C836.812 86.6212 836.369 86.481 835.833 86.3681C835.297 86.2546 834.671 86.1703 833.956 86.1152C833.244 86.0601 832.457 86.0344 831.596 86.0386C830.832 86.0423 830.169 86.0768 829.619 86.1414C829.069 86.2065 828.59 86.2934 828.182 86.4032C827.778 86.5127 827.43 86.6403 827.15 86.7861C826.866 86.9319 826.601 87.0878 826.359 87.2539L837.816 87.3686Z" fill="#FCB048"/>
<path d="M825.782 82.8008C809.839 82.8008 793.238 84.2086 790.583 86.9337C790.686 87.03 790.783 87.1325 790.873 87.2404C793.111 85.3483 806.819 83.4433 825.782 83.4433C845.233 83.4433 859.161 85.4475 860.848 87.3863C860.931 87.28 861.019 87.1782 861.115 87.0824C858.922 84.2607 842.009 82.8008 825.782 82.8008Z" fill="url(#paint53_linear_1057_59212)"/>
<path d="M798.597 78.6182V86.5765C798.597 89.1481 814.606 91.2327 834.355 91.2327C854.103 91.2327 870.112 89.148 870.112 86.5765V78.6182H798.597Z" fill="url(#paint54_linear_1057_59212)"/>
<path d="M834.355 83.2747C854.103 83.2747 870.112 81.19 870.112 78.6184C870.112 76.0468 854.103 73.9622 834.355 73.9622C814.606 73.9622 798.597 76.0468 798.597 78.6184C798.597 81.19 814.606 83.2747 834.355 83.2747Z" fill="url(#paint55_linear_1057_59212)"/>
<path d="M834.355 83.5956C816.865 83.5956 798.576 81.9193 798.576 78.6862C798.576 78.5086 798.64 78.1965 798.816 78.1965C798.993 78.1965 798.917 78.4407 798.917 78.6183C798.917 80.6686 813.471 82.9531 834.355 82.9531C855.239 82.9531 869.792 80.6686 869.792 78.6183C869.792 78.4407 869.822 78.2743 869.999 78.2743C870.176 78.2743 870.134 78.5112 870.134 78.6888C870.134 81.9219 851.844 83.5956 834.355 83.5956Z" fill="url(#paint56_linear_1057_59212)"/>
<path d="M830.976 78.8776C831.327 78.6338 831.7 78.3936 832.1 78.1562C832.496 77.9193 833.011 77.705 833.636 77.5137C834.264 77.3224 835.05 77.1667 835.993 77.0459C836.936 76.9252 838.116 76.8616 839.524 76.8547C840.906 76.8479 842.202 76.8919 843.416 76.9869C844.626 77.0814 845.694 77.2234 846.616 77.4121C847.535 77.6007 848.285 77.8341 848.863 78.1115C849.437 78.3895 849.78 78.7078 849.89 79.0666L853.916 79.1075C854.209 79.1094 854.467 79.1332 854.688 79.1792C854.913 79.2253 855.022 79.2834 855.022 79.354L855.024 79.6866L849.848 79.6366C849.666 80.044 849.204 80.4167 848.46 80.7546C847.72 81.093 846.774 81.3857 845.622 81.6333L843.737 81.3702C843.568 81.3444 843.429 81.3114 843.321 81.2714C843.212 81.2317 843.159 81.1885 843.159 81.1413C843.159 81.0774 843.304 81.0043 843.596 80.9225C843.888 80.8402 844.217 80.7386 844.583 80.6174C844.95 80.4966 845.309 80.3537 845.663 80.1887C846.015 80.0241 846.25 79.8273 846.372 79.5982L834.155 79.4767C833.834 79.7137 833.472 79.9464 833.076 80.1752C832.676 80.404 832.149 80.6102 831.491 80.793C830.833 80.976 830.013 81.1243 829.033 81.2386C828.048 81.3527 826.816 81.4133 825.326 81.4206C824.206 81.4261 823.116 81.3835 822.048 81.2932C820.98 81.2024 820.032 81.0669 819.204 80.8863C818.375 80.7054 817.696 80.4819 817.163 80.2159C816.634 79.9494 816.336 79.6436 816.275 79.2977L812.96 79.2636C812.668 79.2617 812.409 79.2389 812.177 79.1944C811.948 79.15 811.832 79.0911 811.832 79.0173L811.83 78.6846L816.362 78.7279C816.562 78.3774 816.973 78.0719 817.601 77.812C818.229 77.5517 818.995 77.3202 819.901 77.1177L821.418 77.3268C821.879 77.3918 822.108 77.4678 822.109 77.5552C822.109 77.6023 822.016 77.6606 821.825 77.7304C821.63 77.8004 821.406 77.8839 821.144 77.9808C820.886 78.078 820.632 78.1917 820.39 78.3225C820.143 78.4529 819.96 78.6006 819.837 78.7661L830.976 78.8776ZM819.795 79.3309C819.886 79.5491 820.089 79.7368 820.397 79.8948C820.705 80.0533 821.088 80.1831 821.549 80.285C822.01 80.3868 822.527 80.4614 823.101 80.5091C823.678 80.5567 824.281 80.5792 824.91 80.576C825.644 80.5725 826.284 80.5406 826.831 80.4808C827.373 80.4207 827.852 80.3396 828.267 80.2367C828.679 80.1338 829.042 80.0147 829.348 79.8786C829.654 79.7426 829.927 79.5952 830.173 79.4361L819.795 79.3309ZM846.392 79.0334C846.301 78.8124 846.079 78.6186 845.734 78.4521C845.388 78.286 844.946 78.1459 844.41 78.0329C843.873 77.9194 843.248 77.8351 842.532 77.7799C841.82 77.7249 841.034 77.6992 840.172 77.7034C839.408 77.7071 838.746 77.7416 838.195 77.8062C837.645 77.8713 837.166 77.9582 836.759 78.068C836.355 78.1775 836.007 78.3051 835.727 78.4509C835.443 78.5967 835.178 78.7526 834.935 78.9187L846.392 79.0334Z" fill="#FCB048"/>
<path d="M834.36 74.4661C818.416 74.4661 801.815 75.8739 799.16 78.599C799.264 78.6952 799.36 78.7978 799.45 78.9057C801.688 77.0136 815.396 75.1086 834.36 75.1086C853.811 75.1086 867.738 77.1129 869.425 79.0516C869.508 78.9453 869.597 78.8435 869.693 78.7477C867.499 75.926 850.587 74.4661 834.36 74.4661Z" fill="url(#paint57_linear_1057_59212)"/>
<path d="M794.137 70.2593V78.2176C794.137 80.7892 810.146 82.8739 829.894 82.8739C849.642 82.8739 865.652 80.7892 865.652 78.2176V70.2593H794.137Z" fill="url(#paint58_linear_1057_59212)"/>
<path d="M829.894 74.9155C849.643 74.9155 865.652 72.8309 865.652 70.2593C865.652 67.6877 849.643 65.603 829.894 65.603C810.146 65.603 794.137 67.6877 794.137 70.2593C794.137 72.8309 810.146 74.9155 829.894 74.9155Z" fill="url(#paint59_linear_1057_59212)"/>
<path d="M829.894 75.2366C812.405 75.2366 794.116 73.5603 794.116 70.3272C794.116 70.1497 794.179 69.8376 794.356 69.8376C794.533 69.8376 794.457 70.0817 794.457 70.2593C794.457 72.3097 809.011 74.5942 829.894 74.5942C850.778 74.5942 865.332 72.3097 865.332 70.2593C865.332 70.0817 865.362 69.9153 865.539 69.9153C865.716 69.9153 865.673 70.1523 865.673 70.3298C865.673 73.5629 847.384 75.2366 829.894 75.2366Z" fill="url(#paint60_linear_1057_59212)"/>
<path d="M829.897 66.1069C813.954 66.1069 797.353 67.5147 794.698 70.2399C794.801 70.336 794.898 70.4387 794.988 70.5466C797.226 68.6544 810.934 66.7495 829.898 66.7495C849.348 66.7495 863.276 68.7537 864.963 70.6924C865.046 70.5861 865.134 70.4843 865.23 70.3885C863.037 67.5668 846.124 66.1069 829.897 66.1069Z" fill="url(#paint61_linear_1057_59212)"/>
<path d="M939.759 42.5591C939.759 61.425 925.058 76.2659 906.267 75.6869C886.712 75.0843 870.266 58.1376 870.266 37.858C870.266 17.5784 886.712 2.85689 906.267 4.90007C925.058 6.86324 939.759 23.6932 939.759 42.5591Z" fill="url(#paint62_linear_1057_59212)"/>
<path d="M944.837 40.9325C944.837 59.7985 930.135 74.6393 911.345 74.0602C891.789 73.4577 875.343 56.511 875.343 36.2313C875.343 15.9516 891.789 1.23018 911.345 3.27336C930.135 5.23667 944.837 22.0666 944.837 40.9325Z" fill="url(#paint63_linear_1057_59212)"/>
<path d="M943.362 40.8326C943.362 58.8678 929.295 73.0311 911.345 72.4479C892.698 71.8421 877.042 55.6691 877.042 36.3462C877.042 17.0233 892.698 2.96867 911.345 4.88564C929.295 6.73108 943.362 22.7975 943.362 40.8326Z" fill="url(#paint64_linear_1057_59212)"/>
<path d="M942.305 40.7613C942.305 58.2014 928.694 71.8808 911.344 71.2964C893.345 70.6899 878.251 55.0696 878.251 36.4282C878.251 17.7867 893.345 4.20851 911.344 6.03736C928.694 7.80018 942.305 23.3211 942.305 40.7613Z" fill="url(#paint65_linear_1057_59212)"/>
<path opacity="0.3" d="M905.742 45.032C906.788 34.665 916.283 30.2764 915.044 20.7404C914.28 14.863 909.84 9.90983 904.888 6.04248C889.866 7.62327 878.251 20.104 878.251 36.428C878.251 55.0695 893.345 70.6898 911.344 71.2963C913.092 71.3551 914.799 71.264 916.458 71.0456C909.31 63.9081 904.843 53.9384 905.742 45.032Z" fill="url(#paint66_linear_1057_59212)"/>
<path d="M894.228 36.3225C894.228 34.1853 895.981 32.0457 898.651 32.0457C901.32 32.0457 902.997 34.1829 902.997 36.3225V40.6354C902.997 44.3767 906.048 47.6594 910.09 47.6594C914.131 47.6594 917.182 44.3767 917.182 40.6354V36.3225C917.182 34.1853 918.935 32.0457 921.605 32.0457C924.275 32.0457 925.951 34.1829 925.951 36.3225V40.6354C925.951 48.5743 919.47 56.1339 910.09 56.1339C900.709 56.1339 894.228 48.5743 894.228 40.6354V36.3225Z" fill="#307CFE"/>
<path d="M898.644 30.0645C901.082 30.0645 903.059 28.0852 903.059 25.6436C903.059 23.202 901.082 21.2227 898.644 21.2227C896.205 21.2227 894.228 23.202 894.228 25.6436C894.228 28.0852 896.205 30.0645 898.644 30.0645Z" fill="#307CFE"/>
<path d="M921.533 30.0645C923.971 30.0645 925.948 28.0852 925.948 25.6436C925.948 23.202 923.971 21.2227 921.533 21.2227C919.094 21.2227 917.117 23.202 917.117 25.6436C917.117 28.0852 919.094 30.0645 921.533 30.0645Z" fill="#307CFE"/>
</g>
<defs>
<linearGradient id="paint0_linear_1057_59212" x1="895.609" y1="-22.7256" x2="786.204" y2="123.502" gradientUnits="userSpaceOnUse">
<stop stop-color="#AACAFF"/>
<stop offset="1" stop-color="#DEEAFF"/>
</linearGradient>
<linearGradient id="paint1_linear_1057_59212" x1="955.628" y1="-13.9738" x2="743.4" y2="289.05" gradientUnits="userSpaceOnUse">
<stop stop-color="#C4DAFF"/>
<stop offset="1" stop-color="#A0C0F4"/>
</linearGradient>
<linearGradient id="paint2_linear_1057_59212" x1="883.58" y1="127.368" x2="940.488" y2="127.368" gradientUnits="userSpaceOnUse">
<stop stop-color="#FCB148"/>
<stop offset="0.0521" stop-color="#FDBA46"/>
<stop offset="0.1424" stop-color="#FFC244"/>
<stop offset="0.3183" stop-color="#FFC444"/>
<stop offset="0.4849" stop-color="#FDB946"/>
<stop offset="0.7754" stop-color="#F99C4D"/>
<stop offset="0.8658" stop-color="#F8924F"/>
<stop offset="1" stop-color="#F8924F"/>
</linearGradient>
<linearGradient id="paint3_linear_1057_59212" x1="912.295" y1="120.936" x2="915.316" y2="146.135" gradientUnits="userSpaceOnUse">
<stop stop-color="#FFDB44"/>
<stop offset="1" stop-color="#FEEF06"/>
</linearGradient>
<linearGradient id="paint4_linear_1057_59212" x1="912.165" y1="119.812" x2="913.092" y2="127.551" gradientUnits="userSpaceOnUse">
<stop stop-color="#FFDB44"/>
<stop offset="1" stop-color="#FEEF06"/>
</linearGradient>
<linearGradient id="paint5_linear_1057_59212" x1="913.031" y1="126.74" x2="912.107" y2="119.029" gradientUnits="userSpaceOnUse">
<stop offset="0.0036" stop-color="#F36F56"/>
<stop offset="0.3059" stop-color="#F99C4C"/>
<stop offset="0.545" stop-color="#FDB946"/>
<stop offset="0.6817" stop-color="#FFC444"/>
<stop offset="0.8038" stop-color="#FFC244"/>
<stop offset="0.8667" stop-color="#FEBA46"/>
<stop offset="0.916" stop-color="#FCAD49"/>
<stop offset="0.958" stop-color="#F99A4D"/>
<stop offset="0.9955" stop-color="#F58152"/>
<stop offset="1" stop-color="#F57E53"/>
</linearGradient>
<linearGradient id="paint6_linear_1057_59212" x1="876.705" y1="121.586" x2="933.612" y2="121.586" gradientUnits="userSpaceOnUse">
<stop stop-color="#FCB148"/>
<stop offset="0.0521" stop-color="#FDBA46"/>
<stop offset="0.1424" stop-color="#FFC244"/>
<stop offset="0.3183" stop-color="#FFC444"/>
<stop offset="0.4849" stop-color="#FDB946"/>
<stop offset="0.7754" stop-color="#F99C4D"/>
<stop offset="0.8658" stop-color="#F8924F"/>
<stop offset="1" stop-color="#F8924F"/>
</linearGradient>
<linearGradient id="paint7_linear_1057_59212" x1="905.419" y1="115.154" x2="908.44" y2="140.352" gradientUnits="userSpaceOnUse">
<stop stop-color="#FFDB44"/>
<stop offset="1" stop-color="#FEEF06"/>
</linearGradient>
<linearGradient id="paint8_linear_1057_59212" x1="905.289" y1="114.03" x2="906.217" y2="121.769" gradientUnits="userSpaceOnUse">
<stop stop-color="#FFDB44"/>
<stop offset="1" stop-color="#FEEF06"/>
</linearGradient>
<linearGradient id="paint9_linear_1057_59212" x1="906.155" y1="120.958" x2="905.231" y2="113.247" gradientUnits="userSpaceOnUse">
<stop offset="0.0036" stop-color="#F36F56"/>
<stop offset="0.3059" stop-color="#F99C4C"/>
<stop offset="0.545" stop-color="#FDB946"/>
<stop offset="0.6817" stop-color="#FFC444"/>
<stop offset="0.8038" stop-color="#FFC244"/>
<stop offset="0.8667" stop-color="#FEBA46"/>
<stop offset="0.916" stop-color="#FCAD49"/>
<stop offset="0.958" stop-color="#F99A4D"/>
<stop offset="0.9955" stop-color="#F58152"/>
<stop offset="1" stop-color="#F57E53"/>
</linearGradient>
<linearGradient id="paint10_linear_1057_59212" x1="882.637" y1="115.821" x2="939.544" y2="115.821" gradientUnits="userSpaceOnUse">
<stop stop-color="#FCB148"/>
<stop offset="0.0521" stop-color="#FDBA46"/>
<stop offset="0.1424" stop-color="#FFC244"/>
<stop offset="0.3183" stop-color="#FFC444"/>
<stop offset="0.4849" stop-color="#FDB946"/>
<stop offset="0.7754" stop-color="#F99C4D"/>
<stop offset="0.8658" stop-color="#F8924F"/>
<stop offset="1" stop-color="#F8924F"/>
</linearGradient>
<linearGradient id="paint11_linear_1057_59212" x1="911.352" y1="109.389" x2="914.373" y2="134.587" gradientUnits="userSpaceOnUse">
<stop stop-color="#FFDB44"/>
<stop offset="1" stop-color="#FEEF06"/>
</linearGradient>
<linearGradient id="paint12_linear_1057_59212" x1="911.222" y1="108.265" x2="912.149" y2="116.004" gradientUnits="userSpaceOnUse">
<stop stop-color="#FFDB44"/>
<stop offset="1" stop-color="#FEEF06"/>
</linearGradient>
<linearGradient id="paint13_linear_1057_59212" x1="912.088" y1="115.193" x2="911.164" y2="107.482" gradientUnits="userSpaceOnUse">
<stop offset="0.0036" stop-color="#F36F56"/>
<stop offset="0.3059" stop-color="#F99C4C"/>
<stop offset="0.545" stop-color="#FDB946"/>
<stop offset="0.6817" stop-color="#FFC444"/>
<stop offset="0.8038" stop-color="#FFC244"/>
<stop offset="0.8667" stop-color="#FEBA46"/>
<stop offset="0.916" stop-color="#FCAD49"/>
<stop offset="0.958" stop-color="#F99A4D"/>
<stop offset="0.9955" stop-color="#F58152"/>
<stop offset="1" stop-color="#F57E53"/>
</linearGradient>
<linearGradient id="paint14_linear_1057_59212" x1="886.238" y1="110.039" x2="943.145" y2="110.039" gradientUnits="userSpaceOnUse">
<stop stop-color="#FCB148"/>
<stop offset="0.0521" stop-color="#FDBA46"/>
<stop offset="0.1424" stop-color="#FFC244"/>
<stop offset="0.3183" stop-color="#FFC444"/>
<stop offset="0.4849" stop-color="#FDB946"/>
<stop offset="0.7754" stop-color="#F99C4D"/>
<stop offset="0.8658" stop-color="#F8924F"/>
<stop offset="1" stop-color="#F8924F"/>
</linearGradient>
<linearGradient id="paint15_linear_1057_59212" x1="914.952" y1="103.607" x2="917.973" y2="128.805" gradientUnits="userSpaceOnUse">
<stop stop-color="#FFDB44"/>
<stop offset="1" stop-color="#FEEF06"/>
</linearGradient>
<linearGradient id="paint16_linear_1057_59212" x1="914.822" y1="102.483" x2="915.75" y2="110.222" gradientUnits="userSpaceOnUse">
<stop stop-color="#FFDB44"/>
<stop offset="1" stop-color="#FEEF06"/>
</linearGradient>
<linearGradient id="paint17_linear_1057_59212" x1="915.688" y1="109.411" x2="914.764" y2="101.7" gradientUnits="userSpaceOnUse">
<stop offset="0.0036" stop-color="#F36F56"/>
<stop offset="0.3059" stop-color="#F99C4C"/>
<stop offset="0.545" stop-color="#FDB946"/>
<stop offset="0.6817" stop-color="#FFC444"/>
<stop offset="0.8038" stop-color="#FFC244"/>
<stop offset="0.8667" stop-color="#FEBA46"/>
<stop offset="0.916" stop-color="#FCAD49"/>
<stop offset="0.958" stop-color="#F99A4D"/>
<stop offset="0.9955" stop-color="#F58152"/>
<stop offset="1" stop-color="#F57E53"/>
</linearGradient>
<linearGradient id="paint18_linear_1057_59212" x1="883.58" y1="103.801" x2="940.488" y2="103.801" gradientUnits="userSpaceOnUse">
<stop stop-color="#FCB148"/>
<stop offset="0.0521" stop-color="#FDBA46"/>
<stop offset="0.1424" stop-color="#FFC244"/>
<stop offset="0.3183" stop-color="#FFC444"/>
<stop offset="0.4849" stop-color="#FDB946"/>
<stop offset="0.7754" stop-color="#F99C4D"/>
<stop offset="0.8658" stop-color="#F8924F"/>
<stop offset="1" stop-color="#F8924F"/>
</linearGradient>
<linearGradient id="paint19_linear_1057_59212" x1="912.295" y1="97.3685" x2="915.316" y2="122.567" gradientUnits="userSpaceOnUse">
<stop stop-color="#FFDB44"/>
<stop offset="1" stop-color="#FEEF06"/>
</linearGradient>
<linearGradient id="paint20_linear_1057_59212" x1="912.165" y1="96.2446" x2="913.092" y2="103.984" gradientUnits="userSpaceOnUse">
<stop stop-color="#FFDB44"/>
<stop offset="1" stop-color="#FEEF06"/>
</linearGradient>
<linearGradient id="paint21_linear_1057_59212" x1="913.031" y1="103.173" x2="912.107" y2="95.4614" gradientUnits="userSpaceOnUse">
<stop offset="0.0036" stop-color="#F36F56"/>
<stop offset="0.3059" stop-color="#F99C4C"/>
<stop offset="0.545" stop-color="#FDB946"/>
<stop offset="0.6817" stop-color="#FFC444"/>
<stop offset="0.8038" stop-color="#FFC244"/>
<stop offset="0.8667" stop-color="#FEBA46"/>
<stop offset="0.916" stop-color="#FCAD49"/>
<stop offset="0.958" stop-color="#F99A4D"/>
<stop offset="0.9955" stop-color="#F58152"/>
<stop offset="1" stop-color="#F57E53"/>
</linearGradient>
<linearGradient id="paint22_linear_1057_59212" x1="876.705" y1="98.0189" x2="933.612" y2="98.0189" gradientUnits="userSpaceOnUse">
<stop stop-color="#FCB148"/>
<stop offset="0.0521" stop-color="#FDBA46"/>
<stop offset="0.1424" stop-color="#FFC244"/>
<stop offset="0.3183" stop-color="#FFC444"/>
<stop offset="0.4849" stop-color="#FDB946"/>
<stop offset="0.7754" stop-color="#F99C4D"/>
<stop offset="0.8658" stop-color="#F8924F"/>
<stop offset="1" stop-color="#F8924F"/>
</linearGradient>
<linearGradient id="paint23_linear_1057_59212" x1="905.419" y1="91.5867" x2="908.44" y2="116.786" gradientUnits="userSpaceOnUse">
<stop stop-color="#FFDB44"/>
<stop offset="1" stop-color="#FEEF06"/>
</linearGradient>
<linearGradient id="paint24_linear_1057_59212" x1="905.289" y1="90.4629" x2="906.217" y2="98.2018" gradientUnits="userSpaceOnUse">
<stop stop-color="#FFDB44"/>
<stop offset="1" stop-color="#FEEF06"/>
</linearGradient>
<linearGradient id="paint25_linear_1057_59212" x1="906.155" y1="97.3909" x2="905.231" y2="89.6794" gradientUnits="userSpaceOnUse">
<stop offset="0.0036" stop-color="#F36F56"/>
<stop offset="0.3059" stop-color="#F99C4C"/>
<stop offset="0.545" stop-color="#FDB946"/>
<stop offset="0.6817" stop-color="#FFC444"/>
<stop offset="0.8038" stop-color="#FFC244"/>
<stop offset="0.8667" stop-color="#FEBA46"/>
<stop offset="0.916" stop-color="#FCAD49"/>
<stop offset="0.958" stop-color="#F99A4D"/>
<stop offset="0.9955" stop-color="#F58152"/>
<stop offset="1" stop-color="#F57E53"/>
</linearGradient>
<linearGradient id="paint26_linear_1057_59212" x1="882.637" y1="92.2538" x2="939.544" y2="92.2538" gradientUnits="userSpaceOnUse">
<stop stop-color="#FCB148"/>
<stop offset="0.0521" stop-color="#FDBA46"/>
<stop offset="0.1424" stop-color="#FFC244"/>
<stop offset="0.3183" stop-color="#FFC444"/>
<stop offset="0.4849" stop-color="#FDB946"/>
<stop offset="0.7754" stop-color="#F99C4D"/>
<stop offset="0.8658" stop-color="#F8924F"/>
<stop offset="1" stop-color="#F8924F"/>
</linearGradient>
<linearGradient id="paint27_linear_1057_59212" x1="911.352" y1="85.8216" x2="914.373" y2="111.02" gradientUnits="userSpaceOnUse">
<stop stop-color="#FFDB44"/>
<stop offset="1" stop-color="#FEEF06"/>
</linearGradient>
<linearGradient id="paint28_linear_1057_59212" x1="911.222" y1="84.6975" x2="912.149" y2="92.4364" gradientUnits="userSpaceOnUse">
<stop stop-color="#FFDB44"/>
<stop offset="1" stop-color="#FEEF06"/>
</linearGradient>
<linearGradient id="paint29_linear_1057_59212" x1="912.088" y1="91.6258" x2="911.164" y2="83.9143" gradientUnits="userSpaceOnUse">
<stop offset="0.0036" stop-color="#F36F56"/>
<stop offset="0.3059" stop-color="#F99C4C"/>
<stop offset="0.545" stop-color="#FDB946"/>
<stop offset="0.6817" stop-color="#FFC444"/>
<stop offset="0.8038" stop-color="#FFC244"/>
<stop offset="0.8667" stop-color="#FEBA46"/>
<stop offset="0.916" stop-color="#FCAD49"/>
<stop offset="0.958" stop-color="#F99A4D"/>
<stop offset="0.9955" stop-color="#F58152"/>
<stop offset="1" stop-color="#F57E53"/>
</linearGradient>
<linearGradient id="paint30_linear_1057_59212" x1="879.551" y1="86.4723" x2="936.458" y2="86.4723" gradientUnits="userSpaceOnUse">
<stop stop-color="#FCB148"/>
<stop offset="0.0521" stop-color="#FDBA46"/>
<stop offset="0.1424" stop-color="#FFC244"/>
<stop offset="0.3183" stop-color="#FFC444"/>
<stop offset="0.4849" stop-color="#FDB946"/>
<stop offset="0.7754" stop-color="#F99C4D"/>
<stop offset="0.8658" stop-color="#F8924F"/>
<stop offset="1" stop-color="#F8924F"/>
</linearGradient>
<linearGradient id="paint31_linear_1057_59212" x1="908.266" y1="80.0399" x2="911.287" y2="105.239" gradientUnits="userSpaceOnUse">
<stop stop-color="#FFDB44"/>
<stop offset="1" stop-color="#FEEF06"/>
</linearGradient>
<linearGradient id="paint32_linear_1057_59212" x1="908.136" y1="78.9159" x2="909.063" y2="86.6548" gradientUnits="userSpaceOnUse">
<stop stop-color="#FFDB44"/>
<stop offset="1" stop-color="#FEEF06"/>
</linearGradient>
<linearGradient id="paint33_linear_1057_59212" x1="909.001" y1="85.8443" x2="908.077" y2="78.1328" gradientUnits="userSpaceOnUse">
<stop offset="0.0036" stop-color="#F36F56"/>
<stop offset="0.3059" stop-color="#F99C4C"/>
<stop offset="0.545" stop-color="#FDB946"/>
<stop offset="0.6817" stop-color="#FFC444"/>
<stop offset="0.8038" stop-color="#FFC244"/>
<stop offset="0.8667" stop-color="#FEBA46"/>
<stop offset="0.916" stop-color="#FCAD49"/>
<stop offset="0.958" stop-color="#F99A4D"/>
<stop offset="0.9955" stop-color="#F58152"/>
<stop offset="1" stop-color="#F57E53"/>
</linearGradient>
<linearGradient id="paint34_linear_1057_59212" x1="783.907" y1="127.333" x2="866.181" y2="127.333" gradientUnits="userSpaceOnUse">
<stop stop-color="#FCB148"/>
<stop offset="0.0521" stop-color="#FDBA46"/>
<stop offset="0.1424" stop-color="#FFC244"/>
<stop offset="0.3183" stop-color="#FFC444"/>
<stop offset="0.4849" stop-color="#FDB946"/>
<stop offset="0.7754" stop-color="#F99C4D"/>
<stop offset="0.8658" stop-color="#F8924F"/>
<stop offset="1" stop-color="#F8924F"/>
</linearGradient>
<linearGradient id="paint35_linear_1057_59212" x1="825.421" y1="118.033" x2="829.788" y2="154.464" gradientUnits="userSpaceOnUse">
<stop stop-color="#FFDB44"/>
<stop offset="1" stop-color="#FEEF06"/>
</linearGradient>
<linearGradient id="paint36_linear_1057_59212" x1="825.234" y1="116.408" x2="826.575" y2="127.597" gradientUnits="userSpaceOnUse">
<stop stop-color="#FFDB44"/>
<stop offset="1" stop-color="#FEEF06"/>
</linearGradient>
<linearGradient id="paint37_linear_1057_59212" x1="826.485" y1="126.425" x2="825.149" y2="115.276" gradientUnits="userSpaceOnUse">
<stop offset="0.0036" stop-color="#F36F56"/>
<stop offset="0.3059" stop-color="#F99C4C"/>
<stop offset="0.545" stop-color="#FDB946"/>
<stop offset="0.6817" stop-color="#FFC444"/>
<stop offset="0.8038" stop-color="#FFC244"/>
<stop offset="0.8667" stop-color="#FEBA46"/>
<stop offset="0.916" stop-color="#FCAD49"/>
<stop offset="0.958" stop-color="#F99A4D"/>
<stop offset="0.9955" stop-color="#F58152"/>
<stop offset="1" stop-color="#F57E53"/>
</linearGradient>
<linearGradient id="paint38_linear_1057_59212" x1="792.483" y1="118.998" x2="874.757" y2="118.998" gradientUnits="userSpaceOnUse">
<stop stop-color="#FCB148"/>
<stop offset="0.0521" stop-color="#FDBA46"/>
<stop offset="0.1424" stop-color="#FFC244"/>
<stop offset="0.3183" stop-color="#FFC444"/>
<stop offset="0.4849" stop-color="#FDB946"/>
<stop offset="0.7754" stop-color="#F99C4D"/>
<stop offset="0.8658" stop-color="#F8924F"/>
<stop offset="1" stop-color="#F8924F"/>
</linearGradient>
<linearGradient id="paint39_linear_1057_59212" x1="833.999" y1="109.698" x2="838.365" y2="146.13" gradientUnits="userSpaceOnUse">
<stop stop-color="#FFDB44"/>
<stop offset="1" stop-color="#FEEF06"/>
</linearGradient>
<linearGradient id="paint40_linear_1057_59212" x1="833.81" y1="108.074" x2="835.151" y2="119.262" gradientUnits="userSpaceOnUse">
<stop stop-color="#FFDB44"/>
<stop offset="1" stop-color="#FEEF06"/>
</linearGradient>
<linearGradient id="paint41_linear_1057_59212" x1="835.063" y1="118.09" x2="833.726" y2="106.941" gradientUnits="userSpaceOnUse">
<stop offset="0.0036" stop-color="#F36F56"/>
<stop offset="0.3059" stop-color="#F99C4C"/>
<stop offset="0.545" stop-color="#FDB946"/>
<stop offset="0.6817" stop-color="#FFC444"/>
<stop offset="0.8038" stop-color="#FFC244"/>
<stop offset="0.8667" stop-color="#FEBA46"/>
<stop offset="0.916" stop-color="#FCAD49"/>
<stop offset="0.958" stop-color="#F99A4D"/>
<stop offset="0.9955" stop-color="#F58152"/>
<stop offset="1" stop-color="#F57E53"/>
</linearGradient>
<linearGradient id="paint42_linear_1057_59212" x1="797.689" y1="110.639" x2="879.963" y2="110.639" gradientUnits="userSpaceOnUse">
<stop stop-color="#FCB148"/>
<stop offset="0.0521" stop-color="#FDBA46"/>
<stop offset="0.1424" stop-color="#FFC244"/>
<stop offset="0.3183" stop-color="#FFC444"/>
<stop offset="0.4849" stop-color="#FDB946"/>
<stop offset="0.7754" stop-color="#F99C4D"/>
<stop offset="0.8658" stop-color="#F8924F"/>
<stop offset="1" stop-color="#F8924F"/>
</linearGradient>
<linearGradient id="paint43_linear_1057_59212" x1="839.203" y1="101.339" x2="843.57" y2="137.77" gradientUnits="userSpaceOnUse">
<stop stop-color="#FFDB44"/>
<stop offset="1" stop-color="#FEEF06"/>
</linearGradient>
<linearGradient id="paint44_linear_1057_59212" x1="839.015" y1="99.7138" x2="840.356" y2="110.902" gradientUnits="userSpaceOnUse">
<stop stop-color="#FFDB44"/>
<stop offset="1" stop-color="#FEEF06"/>
</linearGradient>
<linearGradient id="paint45_linear_1057_59212" x1="840.268" y1="109.731" x2="838.931" y2="98.5817" gradientUnits="userSpaceOnUse">
<stop offset="0.0036" stop-color="#F36F56"/>
<stop offset="0.3059" stop-color="#F99C4C"/>
<stop offset="0.545" stop-color="#FDB946"/>
<stop offset="0.6817" stop-color="#FFC444"/>
<stop offset="0.8038" stop-color="#FFC244"/>
<stop offset="0.8667" stop-color="#FEBA46"/>
<stop offset="0.916" stop-color="#FCAD49"/>
<stop offset="0.958" stop-color="#F99A4D"/>
<stop offset="0.9955" stop-color="#F58152"/>
<stop offset="1" stop-color="#F57E53"/>
</linearGradient>
<linearGradient id="paint46_linear_1057_59212" x1="793.848" y1="101.62" x2="876.122" y2="101.62" gradientUnits="userSpaceOnUse">
<stop stop-color="#FCB148"/>
<stop offset="0.0521" stop-color="#FDBA46"/>
<stop offset="0.1424" stop-color="#FFC244"/>
<stop offset="0.3183" stop-color="#FFC444"/>
<stop offset="0.4849" stop-color="#FDB946"/>
<stop offset="0.7754" stop-color="#F99C4D"/>
<stop offset="0.8658" stop-color="#F8924F"/>
<stop offset="1" stop-color="#F8924F"/>
</linearGradient>
<linearGradient id="paint47_linear_1057_59212" x1="835.362" y1="92.32" x2="839.729" y2="128.751" gradientUnits="userSpaceOnUse">
<stop stop-color="#FFDB44"/>
<stop offset="1" stop-color="#FEEF06"/>
</linearGradient>
<linearGradient id="paint48_linear_1057_59212" x1="835.173" y1="90.6955" x2="836.514" y2="101.884" gradientUnits="userSpaceOnUse">
<stop stop-color="#FFDB44"/>
<stop offset="1" stop-color="#FEEF06"/>
</linearGradient>
<linearGradient id="paint49_linear_1057_59212" x1="836.426" y1="100.712" x2="835.089" y2="89.563" gradientUnits="userSpaceOnUse">
<stop offset="0.0036" stop-color="#F36F56"/>
<stop offset="0.3059" stop-color="#F99C4C"/>
<stop offset="0.545" stop-color="#FDB946"/>
<stop offset="0.6817" stop-color="#FFC444"/>
<stop offset="0.8038" stop-color="#FFC244"/>
<stop offset="0.8667" stop-color="#FEBA46"/>
<stop offset="0.916" stop-color="#FCAD49"/>
<stop offset="0.958" stop-color="#F99A4D"/>
<stop offset="0.9955" stop-color="#F58152"/>
<stop offset="1" stop-color="#F57E53"/>
</linearGradient>
<linearGradient id="paint50_linear_1057_59212" x1="783.907" y1="93.2602" x2="866.181" y2="93.2602" gradientUnits="userSpaceOnUse">
<stop stop-color="#FCB148"/>
<stop offset="0.0521" stop-color="#FDBA46"/>
<stop offset="0.1424" stop-color="#FFC244"/>
<stop offset="0.3183" stop-color="#FFC444"/>
<stop offset="0.4849" stop-color="#FDB946"/>
<stop offset="0.7754" stop-color="#F99C4D"/>
<stop offset="0.8658" stop-color="#F8924F"/>
<stop offset="1" stop-color="#F8924F"/>
</linearGradient>
<linearGradient id="paint51_linear_1057_59212" x1="825.421" y1="83.9609" x2="829.788" y2="120.392" gradientUnits="userSpaceOnUse">
<stop stop-color="#FFDB44"/>
<stop offset="1" stop-color="#FEEF06"/>
</linearGradient>
<linearGradient id="paint52_linear_1057_59212" x1="825.234" y1="82.3361" x2="826.575" y2="93.5247" gradientUnits="userSpaceOnUse">
<stop stop-color="#FFDB44"/>
<stop offset="1" stop-color="#FEEF06"/>
</linearGradient>
<linearGradient id="paint53_linear_1057_59212" x1="826.485" y1="92.3525" x2="825.149" y2="81.2036" gradientUnits="userSpaceOnUse">
<stop offset="0.0036" stop-color="#F36F56"/>
<stop offset="0.3059" stop-color="#F99C4C"/>
<stop offset="0.545" stop-color="#FDB946"/>
<stop offset="0.6817" stop-color="#FFC444"/>
<stop offset="0.8038" stop-color="#FFC244"/>
<stop offset="0.8667" stop-color="#FEBA46"/>
<stop offset="0.916" stop-color="#FCAD49"/>
<stop offset="0.958" stop-color="#F99A4D"/>
<stop offset="0.9955" stop-color="#F58152"/>
<stop offset="1" stop-color="#F57E53"/>
</linearGradient>
<linearGradient id="paint54_linear_1057_59212" x1="792.483" y1="84.9255" x2="874.757" y2="84.9255" gradientUnits="userSpaceOnUse">
<stop stop-color="#FCB148"/>
<stop offset="0.0521" stop-color="#FDBA46"/>
<stop offset="0.1424" stop-color="#FFC244"/>
<stop offset="0.3183" stop-color="#FFC444"/>
<stop offset="0.4849" stop-color="#FDB946"/>
<stop offset="0.7754" stop-color="#F99C4D"/>
<stop offset="0.8658" stop-color="#F8924F"/>
<stop offset="1" stop-color="#F8924F"/>
</linearGradient>
<linearGradient id="paint55_linear_1057_59212" x1="833.999" y1="75.6262" x2="838.365" y2="112.058" gradientUnits="userSpaceOnUse">
<stop stop-color="#FFDB44"/>
<stop offset="1" stop-color="#FEEF06"/>
</linearGradient>
<linearGradient id="paint56_linear_1057_59212" x1="833.81" y1="74.0011" x2="835.151" y2="85.1898" gradientUnits="userSpaceOnUse">
<stop stop-color="#FFDB44"/>
<stop offset="1" stop-color="#FEEF06"/>
</linearGradient>
<linearGradient id="paint57_linear_1057_59212" x1="835.063" y1="84.0178" x2="833.726" y2="72.8689" gradientUnits="userSpaceOnUse">
<stop offset="0.0036" stop-color="#F36F56"/>
<stop offset="0.3059" stop-color="#F99C4C"/>
<stop offset="0.545" stop-color="#FDB946"/>
<stop offset="0.6817" stop-color="#FFC444"/>
<stop offset="0.8038" stop-color="#FFC244"/>
<stop offset="0.8667" stop-color="#FEBA46"/>
<stop offset="0.916" stop-color="#FCAD49"/>
<stop offset="0.958" stop-color="#F99A4D"/>
<stop offset="0.9955" stop-color="#F58152"/>
<stop offset="1" stop-color="#F57E53"/>
</linearGradient>
<linearGradient id="paint58_linear_1057_59212" x1="788.023" y1="76.5666" x2="870.297" y2="76.5666" gradientUnits="userSpaceOnUse">
<stop stop-color="#FCB148"/>
<stop offset="0.0521" stop-color="#FDBA46"/>
<stop offset="0.1424" stop-color="#FFC244"/>
<stop offset="0.3183" stop-color="#FFC444"/>
<stop offset="0.4849" stop-color="#FDB946"/>
<stop offset="0.7754" stop-color="#F99C4D"/>
<stop offset="0.8658" stop-color="#F8924F"/>
<stop offset="1" stop-color="#F8924F"/>
</linearGradient>
<linearGradient id="paint59_linear_1057_59212" x1="829.538" y1="67.267" x2="833.905" y2="103.698" gradientUnits="userSpaceOnUse">
<stop stop-color="#FFDB44"/>
<stop offset="1" stop-color="#FEEF06"/>
</linearGradient>
<linearGradient id="paint60_linear_1057_59212" x1="829.35" y1="65.6421" x2="830.691" y2="76.8307" gradientUnits="userSpaceOnUse">
<stop stop-color="#FFDB44"/>
<stop offset="1" stop-color="#FEEF06"/>
</linearGradient>
<linearGradient id="paint61_linear_1057_59212" x1="830.6" y1="75.6586" x2="829.264" y2="64.5097" gradientUnits="userSpaceOnUse">
<stop offset="0.0036" stop-color="#F36F56"/>
<stop offset="0.3059" stop-color="#F99C4C"/>
<stop offset="0.545" stop-color="#FDB946"/>
<stop offset="0.6817" stop-color="#FFC444"/>
<stop offset="0.8038" stop-color="#FFC244"/>
<stop offset="0.8667" stop-color="#FEBA46"/>
<stop offset="0.916" stop-color="#FCAD49"/>
<stop offset="0.958" stop-color="#F99A4D"/>
<stop offset="0.9955" stop-color="#F58152"/>
<stop offset="1" stop-color="#F57E53"/>
</linearGradient>
<linearGradient id="paint62_linear_1057_59212" x1="953.224" y1="17.1344" x2="887.705" y2="58.4567" gradientUnits="userSpaceOnUse">
<stop stop-color="#FFBD17"/>
<stop offset="1" stop-color="#FF9C17"/>
</linearGradient>
<linearGradient id="paint63_linear_1057_59212" x1="925.887" y1="3.55494" x2="889.501" y2="83.5569" gradientUnits="userSpaceOnUse">
<stop stop-color="#FFDB44"/>
<stop offset="1" stop-color="#FEEF06"/>
</linearGradient>
<linearGradient id="paint64_linear_1057_59212" x1="956.211" y1="16.5677" x2="893.682" y2="56.0021" gradientUnits="userSpaceOnUse">
<stop stop-color="#FFBD17"/>
<stop offset="1" stop-color="#FF9C17"/>
</linearGradient>
<linearGradient id="paint65_linear_1057_59212" x1="910.278" y1="5.87231" x2="910.278" y2="71.3144" gradientUnits="userSpaceOnUse">
<stop stop-color="#FFD14F"/>
<stop offset="1" stop-color="#FFBC00"/>
</linearGradient>
<linearGradient id="paint66_linear_1057_59212" x1="923.861" y1="17.465" x2="879.78" y2="34.09" gradientUnits="userSpaceOnUse">
<stop stop-color="#FFBD17"/>
<stop offset="1" stop-color="#FF9C17"/>
</linearGradient>
<clipPath id="clip0_1057_59212">
<rect width="944" height="124" rx="12" fill="white"/>
</clipPath>
</defs>
</svg>
