<svg width="966" height="146" viewBox="0 0 966 146" fill="none" xmlns="http://www.w3.org/2000/svg">
<g filter="url(#filter0_d_1057_59212)">
<g clip-path="url(#clip0_1057_59212)">
<rect x="11" y="7" width="944" height="124" rx="12" fill="#D1E2FD"/>
<path d="M915.415 -22.1576C872.031 -23.4795 834.451 9.00434 828.773 51.6272C822.565 98.2295 856.732 140.16 898.772 146.876C951.064 155.23 1001.78 106.904 997.229 54.4784C993.798 14.9801 959.516 -20.8138 915.415 -22.1576Z" fill="url(#paint0_linear_1057_59212)"/>
<path d="M946.901 -25.9611C903.516 -27.283 865.936 5.20087 860.259 47.8237C854.051 94.426 888.217 136.357 930.258 143.073C982.549 151.426 1033.27 103.101 1028.72 50.6749C1025.28 11.1766 991.002 -24.6172 946.901 -25.9611Z" fill="url(#paint1_linear_1057_59212)"/>
<path d="M898.809 130.005V135.51C898.809 137.289 909.882 138.731 923.542 138.731C937.201 138.731 948.275 137.289 948.275 135.51V130.005H898.809Z" fill="url(#paint2_linear_1057_59212)"/>
<path d="M948.275 130.006C948.275 131.784 937.201 133.226 923.542 133.226C909.882 133.226 898.809 131.784 898.809 130.006C898.809 128.227 909.882 126.785 923.542 126.785C937.201 126.785 948.275 128.227 948.275 130.006Z" fill="url(#paint3_linear_1057_59212)"/>
<path d="M923.542 133.448C911.444 133.448 898.794 132.289 898.794 130.053C898.794 129.93 898.838 129.714 898.961 129.714C899.083 129.714 899.03 129.883 899.03 130.006C899.03 131.424 909.097 133.004 923.542 133.004C937.987 133.004 948.053 131.424 948.053 130.006C948.053 129.883 948.074 129.768 948.196 129.768C948.319 129.768 948.289 129.931 948.289 130.054C948.289 132.291 935.639 133.448 923.542 133.448Z" fill="url(#paint4_linear_1057_59212)"/>
<path d="M921.205 130.185C921.447 130.016 921.705 129.85 921.982 129.686C922.256 129.522 922.612 129.374 923.044 129.241C923.479 129.109 924.022 129.001 924.675 128.918C925.327 128.834 926.143 128.79 927.117 128.786C928.073 128.781 928.969 128.811 929.809 128.877C930.646 128.942 931.385 129.041 932.022 129.171C932.658 129.302 933.177 129.463 933.577 129.655C933.974 129.847 934.211 130.067 934.287 130.316L937.072 130.344C937.274 130.345 937.453 130.362 937.606 130.393C937.761 130.425 937.837 130.466 937.837 130.514L937.838 130.744L934.258 130.71C934.132 130.992 933.812 131.249 933.298 131.483C932.786 131.717 932.132 131.92 931.335 132.091L930.031 131.909C929.914 131.891 929.818 131.868 929.743 131.841C929.668 131.813 929.631 131.783 929.631 131.751C929.631 131.706 929.732 131.656 929.933 131.599C930.135 131.542 930.363 131.472 930.616 131.388C930.87 131.305 931.118 131.206 931.363 131.092C931.606 130.978 931.769 130.842 931.854 130.683L923.403 130.599C923.181 130.763 922.931 130.924 922.657 131.082C922.381 131.241 922.016 131.383 921.561 131.51C921.105 131.636 920.539 131.739 919.86 131.818C919.179 131.897 918.327 131.939 917.296 131.944C916.522 131.948 915.768 131.918 915.029 131.856C914.291 131.793 913.635 131.699 913.062 131.574C912.489 131.449 912.019 131.294 911.65 131.111C911.284 130.926 911.078 130.715 911.036 130.475L908.743 130.452C908.541 130.451 908.362 130.435 908.202 130.404C908.043 130.373 907.963 130.333 907.963 130.281L907.961 130.051L911.096 130.081C911.235 129.839 911.519 129.628 911.953 129.448C912.387 129.268 912.918 129.108 913.544 128.968L914.594 129.112C914.913 129.157 915.071 129.21 915.071 129.27C915.071 129.303 915.007 129.343 914.875 129.391C914.74 129.44 914.585 129.498 914.404 129.565C914.226 129.632 914.05 129.71 913.882 129.801C913.711 129.891 913.585 129.993 913.5 130.108L921.205 130.185ZM913.471 130.498C913.534 130.649 913.674 130.779 913.887 130.888C914.1 130.998 914.365 131.088 914.684 131.158C915.003 131.229 915.361 131.28 915.757 131.313C916.156 131.346 916.573 131.362 917.009 131.36C917.516 131.357 917.959 131.335 918.337 131.294C918.713 131.252 919.044 131.196 919.331 131.125C919.616 131.054 919.866 130.971 920.078 130.877C920.29 130.783 920.479 130.681 920.649 130.571L913.471 130.498ZM931.867 130.293C931.804 130.14 931.651 130.006 931.412 129.891C931.173 129.776 930.867 129.679 930.496 129.601C930.125 129.522 929.693 129.464 929.197 129.426C928.705 129.387 928.161 129.37 927.565 129.373C927.037 129.375 926.578 129.399 926.198 129.444C925.817 129.489 925.486 129.549 925.204 129.625C924.925 129.701 924.684 129.789 924.49 129.89C924.294 129.991 924.111 130.098 923.943 130.213L931.867 130.293Z" fill="#FCB048"/>
<path d="M923.545 127.134C912.517 127.134 901.034 128.107 899.198 129.992C899.27 130.059 899.337 130.13 899.399 130.204C900.947 128.896 910.428 127.578 923.545 127.578C936.999 127.578 946.632 128.964 947.799 130.305C947.856 130.232 947.918 130.161 947.984 130.095C946.467 128.143 934.769 127.134 923.545 127.134Z" fill="url(#paint5_linear_1057_59212)"/>
<path d="M891.933 124.223V129.728C891.933 131.507 903.007 132.949 916.666 132.949C930.326 132.949 941.399 131.507 941.399 129.728V124.223H891.933Z" fill="url(#paint6_linear_1057_59212)"/>
<path d="M941.398 124.223C941.398 126.002 930.325 127.444 916.666 127.444C903.006 127.444 891.933 126.002 891.933 124.223C891.933 122.445 903.006 121.003 916.666 121.003C930.325 121.003 941.398 122.445 941.398 124.223Z" fill="url(#paint7_linear_1057_59212)"/>
<path d="M916.666 127.666C904.569 127.666 891.919 126.507 891.919 124.27C891.919 124.148 891.962 123.932 892.085 123.932C892.207 123.932 892.155 124.1 892.155 124.223C892.155 125.642 902.221 127.222 916.666 127.222C931.111 127.222 941.177 125.642 941.177 124.223C941.177 124.1 941.198 123.985 941.32 123.985C941.443 123.985 941.413 124.149 941.413 124.272C941.413 126.508 928.763 127.666 916.666 127.666Z" fill="url(#paint8_linear_1057_59212)"/>
<path d="M914.329 124.403C914.572 124.234 914.83 124.068 915.106 123.904C915.38 123.74 915.737 123.592 916.169 123.459C916.603 123.327 917.147 123.219 917.799 123.136C918.451 123.052 919.267 123.008 920.241 123.004C921.197 122.999 922.094 123.029 922.933 123.095C923.77 123.16 924.509 123.259 925.147 123.389C925.782 123.52 926.301 123.681 926.701 123.873C927.098 124.065 927.335 124.285 927.411 124.534L930.196 124.562C930.398 124.563 930.577 124.58 930.73 124.611C930.886 124.643 930.961 124.684 930.961 124.732L930.962 124.962L927.382 124.928C927.257 125.21 926.937 125.467 926.422 125.701C925.91 125.935 925.256 126.138 924.459 126.309L923.155 126.127C923.038 126.109 922.943 126.086 922.867 126.059C922.792 126.031 922.756 126.001 922.755 125.969C922.755 125.924 922.856 125.874 923.058 125.817C923.26 125.76 923.487 125.69 923.741 125.606C923.994 125.523 924.242 125.424 924.488 125.31C924.731 125.196 924.893 125.06 924.978 124.901L916.528 124.817C916.306 124.981 916.055 125.142 915.781 125.3C915.505 125.459 915.14 125.601 914.685 125.728C914.23 125.854 913.663 125.957 912.985 126.036C912.304 126.115 911.452 126.157 910.421 126.162C909.646 126.166 908.892 126.136 908.154 126.074C907.415 126.011 906.759 125.917 906.186 125.792C905.613 125.667 905.143 125.512 904.775 125.328C904.409 125.144 904.203 124.933 904.16 124.693L901.868 124.67C901.665 124.669 901.487 124.653 901.326 124.622C901.168 124.591 901.087 124.551 901.087 124.499L901.086 124.269L904.22 124.299C904.359 124.057 904.643 123.846 905.077 123.666C905.512 123.486 906.042 123.326 906.668 123.186L907.718 123.33C908.037 123.375 908.195 123.428 908.195 123.488C908.196 123.521 908.131 123.561 907.999 123.609C907.865 123.658 907.71 123.716 907.528 123.783C907.35 123.85 907.174 123.928 907.006 124.019C906.836 124.109 906.709 124.211 906.624 124.326L914.329 124.403ZM906.595 124.716C906.658 124.867 906.799 124.997 907.012 125.106C907.225 125.216 907.489 125.306 907.808 125.376C908.127 125.447 908.485 125.498 908.882 125.531C909.281 125.564 909.698 125.58 910.133 125.578C910.641 125.575 911.084 125.553 911.461 125.512C911.837 125.47 912.168 125.414 912.455 125.343C912.74 125.272 912.991 125.189 913.203 125.095C913.415 125.001 913.603 124.899 913.774 124.789L906.595 124.716ZM924.992 124.511C924.929 124.358 924.775 124.224 924.536 124.109C924.298 123.994 923.991 123.897 923.621 123.819C923.25 123.74 922.817 123.682 922.322 123.644C921.829 123.605 921.285 123.588 920.69 123.591C920.161 123.593 919.703 123.617 919.322 123.662C918.942 123.707 918.61 123.767 918.328 123.843C918.049 123.919 917.809 124.007 917.615 124.108C917.418 124.209 917.235 124.316 917.067 124.431L924.992 124.511Z" fill="#FCB048"/>
<path d="M916.669 121.351C905.641 121.351 894.159 122.325 892.322 124.21C892.394 124.276 892.461 124.347 892.523 124.422C894.071 123.113 903.552 121.796 916.669 121.796C930.123 121.796 939.756 123.182 940.923 124.523C940.981 124.449 941.042 124.379 941.108 124.313C939.591 122.361 927.893 121.351 916.669 121.351Z" fill="url(#paint9_linear_1057_59212)"/>
<path d="M897.866 118.458V123.963C897.866 125.742 908.939 127.184 922.599 127.184C936.258 127.184 947.332 125.742 947.332 123.963V118.458H897.866Z" fill="url(#paint10_linear_1057_59212)"/>
<path d="M947.331 118.458C947.331 120.237 936.258 121.679 922.599 121.679C908.939 121.679 897.866 120.237 897.866 118.458C897.866 116.68 908.939 115.238 922.599 115.238C936.258 115.238 947.331 116.68 947.331 118.458Z" fill="url(#paint11_linear_1057_59212)"/>
<path d="M922.598 121.901C910.501 121.901 897.851 120.742 897.851 118.505C897.851 118.383 897.895 118.167 898.017 118.167C898.14 118.167 898.087 118.336 898.087 118.458C898.087 119.877 908.154 121.457 922.599 121.457C937.043 121.457 947.11 119.877 947.11 118.458C947.11 118.336 947.131 118.22 947.253 118.22C947.375 118.22 947.346 118.384 947.346 118.507C947.346 120.743 934.696 121.901 922.598 121.901Z" fill="url(#paint12_linear_1057_59212)"/>
<path d="M920.261 118.638C920.504 118.469 920.762 118.303 921.039 118.139C921.313 117.975 921.669 117.827 922.101 117.694C922.536 117.562 923.079 117.454 923.732 117.371C924.384 117.287 925.2 117.243 926.174 117.239C927.13 117.234 928.026 117.264 928.866 117.33C929.703 117.395 930.441 117.494 931.079 117.624C931.715 117.755 932.234 117.916 932.633 118.108C933.031 118.3 933.268 118.52 933.344 118.768L936.129 118.797C936.331 118.798 936.51 118.814 936.663 118.846C936.818 118.878 936.894 118.918 936.894 118.967L936.895 119.197L933.315 119.163C933.189 119.445 932.869 119.702 932.355 119.936C931.843 120.17 931.189 120.372 930.392 120.544L929.088 120.362C928.971 120.344 928.875 120.321 928.8 120.293C928.725 120.266 928.688 120.236 928.688 120.203C928.688 120.159 928.789 120.109 928.99 120.052C929.192 119.995 929.42 119.925 929.673 119.841C929.927 119.758 930.175 119.659 930.42 119.545C930.663 119.431 930.826 119.295 930.911 119.136L922.46 119.052C922.238 119.216 921.988 119.377 921.714 119.535C921.437 119.694 921.073 119.836 920.618 119.963C920.162 120.089 919.595 120.192 918.917 120.271C918.236 120.35 917.384 120.392 916.353 120.397C915.579 120.4 914.825 120.371 914.086 120.309C913.348 120.246 912.692 120.152 912.119 120.027C911.546 119.902 911.076 119.747 910.707 119.563C910.341 119.379 910.135 119.168 910.093 118.928L907.8 118.905C907.598 118.903 907.419 118.888 907.258 118.857C907.1 118.826 907.02 118.785 907.02 118.734L907.018 118.504L910.153 118.534C910.292 118.292 910.576 118.08 911.01 117.901C911.444 117.721 911.975 117.561 912.601 117.42L913.651 117.565C913.969 117.61 914.128 117.663 914.128 117.723C914.128 117.756 914.064 117.796 913.932 117.844C913.797 117.893 913.642 117.95 913.461 118.017C913.283 118.085 913.107 118.163 912.939 118.254C912.768 118.344 912.642 118.446 912.557 118.561L920.261 118.638ZM912.528 118.951C912.591 119.102 912.731 119.232 912.944 119.341C913.157 119.451 913.422 119.541 913.741 119.611C914.06 119.682 914.418 119.733 914.814 119.766C915.213 119.799 915.63 119.815 916.065 119.813C916.573 119.81 917.016 119.788 917.394 119.747C917.769 119.705 918.101 119.649 918.388 119.578C918.673 119.507 918.923 119.424 919.135 119.33C919.347 119.236 919.536 119.134 919.706 119.024L912.528 118.951ZM930.924 118.746C930.861 118.593 930.708 118.459 930.469 118.343C930.23 118.229 929.924 118.132 929.553 118.053C929.182 117.975 928.749 117.917 928.254 117.879C927.762 117.84 927.218 117.823 926.622 117.826C926.094 117.828 925.635 117.852 925.255 117.897C924.874 117.942 924.543 118.002 924.261 118.078C923.982 118.153 923.741 118.242 923.547 118.343C923.351 118.443 923.167 118.551 923 118.666L930.924 118.746Z" fill="#FCB048"/>
<path d="M922.602 115.586C911.574 115.586 900.091 116.56 898.255 118.445C898.327 118.512 898.393 118.583 898.456 118.657C900.004 117.348 909.485 116.031 922.602 116.031C936.056 116.031 945.689 117.417 946.856 118.758C946.913 118.685 946.974 118.614 947.041 118.548C945.524 116.596 933.826 115.586 922.602 115.586Z" fill="url(#paint13_linear_1057_59212)"/>
<path d="M901.466 112.677V118.181C901.466 119.96 912.539 121.402 926.199 121.402C939.858 121.402 950.932 119.96 950.932 118.181V112.677H901.466Z" fill="url(#paint14_linear_1057_59212)"/>
<path d="M926.199 115.897C939.858 115.897 950.932 114.455 950.932 112.676C950.932 110.898 939.858 109.456 926.199 109.456C912.539 109.456 901.466 110.898 901.466 112.676C901.466 114.455 912.539 115.897 926.199 115.897Z" fill="url(#paint15_linear_1057_59212)"/>
<path d="M926.199 116.119C914.102 116.119 901.452 114.96 901.452 112.723C901.452 112.601 901.495 112.385 901.618 112.385C901.74 112.385 901.688 112.554 901.688 112.676C901.688 114.095 911.754 115.675 926.199 115.675C940.644 115.675 950.71 114.095 950.71 112.676C950.71 112.554 950.731 112.439 950.853 112.439C950.976 112.439 950.946 112.602 950.946 112.725C950.946 114.962 938.296 116.119 926.199 116.119Z" fill="url(#paint16_linear_1057_59212)"/>
<path d="M923.862 112.856C924.104 112.687 924.363 112.521 924.639 112.357C924.913 112.193 925.27 112.045 925.702 111.913C926.136 111.78 926.68 111.673 927.332 111.589C927.984 111.506 928.8 111.462 929.774 111.457C930.73 111.452 931.626 111.483 932.466 111.548C933.303 111.614 934.042 111.712 934.68 111.842C935.315 111.973 935.834 112.134 936.234 112.326C936.631 112.518 936.868 112.739 936.944 112.987L939.729 113.015C939.931 113.016 940.11 113.033 940.263 113.065C940.418 113.096 940.494 113.137 940.494 113.185L940.495 113.416L936.915 113.381C936.789 113.663 936.469 113.921 935.955 114.154C935.443 114.388 934.789 114.591 933.992 114.762L932.688 114.58C932.571 114.562 932.475 114.539 932.4 114.512C932.325 114.484 932.288 114.454 932.288 114.422C932.288 114.378 932.389 114.327 932.591 114.271C932.792 114.214 933.02 114.143 933.273 114.059C933.527 113.976 933.775 113.877 934.021 113.763C934.264 113.649 934.426 113.513 934.511 113.354L926.06 113.27C925.838 113.434 925.588 113.595 925.314 113.754C925.038 113.912 924.673 114.054 924.218 114.181C923.763 114.307 923.196 114.41 922.517 114.489C921.837 114.568 920.985 114.61 919.954 114.615C919.179 114.619 918.425 114.589 917.686 114.527C916.948 114.464 916.292 114.37 915.719 114.245C915.146 114.12 914.676 113.966 914.307 113.782C913.941 113.597 913.736 113.386 913.693 113.147L911.4 113.123C911.198 113.122 911.019 113.106 910.859 113.075C910.701 113.045 910.62 113.004 910.62 112.953L910.619 112.723L913.753 112.753C913.892 112.51 914.176 112.299 914.61 112.119C915.045 111.939 915.575 111.779 916.201 111.639L917.251 111.783C917.57 111.828 917.728 111.881 917.728 111.941C917.729 111.974 917.664 112.014 917.532 112.063C917.398 112.111 917.242 112.169 917.061 112.236C916.883 112.303 916.707 112.382 916.539 112.472C916.369 112.562 916.242 112.665 916.157 112.779L923.862 112.856ZM916.128 113.17C916.191 113.32 916.332 113.45 916.545 113.56C916.758 113.669 917.022 113.759 917.341 113.829C917.66 113.9 918.018 113.951 918.414 113.984C918.813 114.017 919.231 114.033 919.666 114.031C920.174 114.028 920.616 114.006 920.994 113.965C921.37 113.923 921.701 113.867 921.988 113.796C922.273 113.725 922.524 113.642 922.736 113.548C922.948 113.454 923.136 113.352 923.307 113.242L916.128 113.17ZM934.525 112.964C934.462 112.811 934.308 112.677 934.069 112.562C933.83 112.447 933.524 112.35 933.153 112.272C932.783 112.193 932.35 112.135 931.855 112.097C931.362 112.059 930.818 112.041 930.222 112.044C929.694 112.046 929.236 112.07 928.855 112.115C928.474 112.16 928.143 112.22 927.861 112.296C927.582 112.372 927.341 112.46 927.148 112.561C926.951 112.662 926.768 112.77 926.6 112.884L934.525 112.964Z" fill="#FCB048"/>
<path d="M926.202 109.804C915.174 109.804 903.692 110.778 901.855 112.663C901.927 112.73 901.994 112.801 902.056 112.875C903.604 111.566 913.085 110.249 926.202 110.249C939.656 110.249 949.289 111.635 950.456 112.976C950.514 112.903 950.575 112.832 950.641 112.766C949.124 110.814 937.426 109.804 926.202 109.804Z" fill="url(#paint17_linear_1057_59212)"/>
<path d="M898.809 106.438V111.943C898.809 113.722 909.882 115.163 923.542 115.163C937.201 115.163 948.275 113.722 948.275 111.943V106.438H898.809Z" fill="url(#paint18_linear_1057_59212)"/>
<path d="M948.275 106.438C948.275 108.217 937.201 109.659 923.542 109.659C909.882 109.659 898.809 108.217 898.809 106.438C898.809 104.659 909.882 103.218 923.542 103.218C937.201 103.218 948.275 104.659 948.275 106.438Z" fill="url(#paint19_linear_1057_59212)"/>
<path d="M923.542 109.881C911.444 109.881 898.794 108.721 898.794 106.485C898.794 106.362 898.838 106.146 898.961 106.146C899.083 106.146 899.03 106.315 899.03 106.438C899.03 107.856 909.097 109.437 923.542 109.437C937.987 109.437 948.053 107.856 948.053 106.438C948.053 106.315 948.074 106.2 948.196 106.2C948.319 106.2 948.289 106.364 948.289 106.487C948.289 108.723 935.639 109.881 923.542 109.881Z" fill="url(#paint20_linear_1057_59212)"/>
<path d="M921.205 106.618C921.447 106.449 921.705 106.283 921.982 106.119C922.256 105.955 922.612 105.807 923.044 105.674C923.479 105.542 924.022 105.434 924.675 105.351C925.327 105.267 926.143 105.223 927.117 105.218C928.073 105.214 928.969 105.244 929.809 105.31C930.646 105.375 931.385 105.474 932.022 105.604C932.658 105.735 933.177 105.896 933.577 106.088C933.974 106.28 934.211 106.5 934.287 106.748L937.072 106.777C937.274 106.778 937.453 106.794 937.606 106.826C937.761 106.858 937.837 106.898 937.837 106.947L937.838 107.177L934.258 107.143C934.132 107.425 933.812 107.682 933.298 107.916C932.786 108.15 932.132 108.353 931.335 108.524L930.031 108.342C929.914 108.324 929.818 108.301 929.743 108.273C929.668 108.246 929.631 108.216 929.631 108.183C929.631 108.139 929.732 108.089 929.933 108.032C930.135 107.975 930.363 107.905 930.616 107.821C930.87 107.738 931.118 107.639 931.363 107.525C931.606 107.411 931.769 107.275 931.854 107.116L923.403 107.032C923.181 107.196 922.931 107.357 922.657 107.515C922.381 107.674 922.016 107.816 921.561 107.943C921.105 108.069 920.539 108.172 919.86 108.251C919.179 108.33 918.327 108.372 917.296 108.377C916.522 108.381 915.768 108.351 915.029 108.289C914.291 108.226 913.635 108.132 913.062 108.007C912.489 107.882 912.019 107.727 911.65 107.543C911.284 107.359 911.078 107.148 911.036 106.908L908.743 106.885C908.541 106.883 908.362 106.868 908.202 106.837C908.043 106.806 907.963 106.765 907.963 106.714L907.961 106.484L911.096 106.514C911.235 106.272 911.519 106.061 911.953 105.881C912.387 105.701 912.918 105.541 913.544 105.401L914.594 105.545C914.913 105.59 915.071 105.643 915.071 105.703C915.071 105.736 915.007 105.776 914.875 105.824C914.74 105.873 914.585 105.93 914.404 105.997C914.226 106.065 914.05 106.143 913.882 106.234C913.711 106.324 913.585 106.426 913.5 106.541L921.205 106.618ZM913.471 106.931C913.534 107.082 913.674 107.212 913.887 107.321C914.1 107.431 914.365 107.521 914.684 107.591C915.003 107.662 915.361 107.713 915.757 107.746C916.156 107.779 916.573 107.795 917.009 107.793C917.516 107.79 917.959 107.768 918.337 107.727C918.713 107.685 919.044 107.629 919.331 107.558C919.616 107.487 919.866 107.404 920.078 107.31C920.29 107.216 920.479 107.114 920.649 107.004L913.471 106.931ZM931.867 106.726C931.804 106.573 931.651 106.439 931.412 106.323C931.173 106.209 930.867 106.112 930.496 106.033C930.125 105.955 929.693 105.897 929.197 105.859C928.705 105.82 928.161 105.803 927.565 105.806C927.037 105.808 926.578 105.832 926.198 105.877C925.817 105.922 925.486 105.982 925.204 106.058C924.925 106.134 924.684 106.222 924.49 106.323C924.294 106.423 924.111 106.531 923.943 106.646L931.867 106.726Z" fill="#FCB048"/>
<path d="M923.545 103.566C912.517 103.566 901.034 104.54 899.198 106.425C899.27 106.491 899.337 106.562 899.399 106.637C900.947 105.328 910.428 104.011 923.545 104.011C936.999 104.011 946.632 105.397 947.799 106.738C947.856 106.664 947.918 106.594 947.984 106.528C946.467 104.576 934.769 103.566 923.545 103.566Z" fill="url(#paint21_linear_1057_59212)"/>
<path d="M891.933 100.656V106.161C891.933 107.94 903.007 109.381 916.666 109.381C930.326 109.381 941.399 107.94 941.399 106.161V100.656H891.933Z" fill="url(#paint22_linear_1057_59212)"/>
<path d="M916.666 103.877C930.325 103.877 941.398 102.435 941.398 100.656C941.398 98.8777 930.325 97.4358 916.666 97.4358C903.006 97.4358 891.933 98.8777 891.933 100.656C891.933 102.435 903.006 103.877 916.666 103.877Z" fill="url(#paint23_linear_1057_59212)"/>
<path d="M916.666 104.099C904.569 104.099 891.919 102.94 891.919 100.703C891.919 100.581 891.962 100.365 892.085 100.365C892.207 100.365 892.155 100.534 892.155 100.656C892.155 102.075 902.221 103.655 916.666 103.655C931.111 103.655 941.177 102.075 941.177 100.656C941.177 100.534 941.198 100.418 941.32 100.418C941.443 100.418 941.413 100.582 941.413 100.705C941.413 102.942 928.763 104.099 916.666 104.099Z" fill="url(#paint24_linear_1057_59212)"/>
<path d="M914.329 100.836C914.572 100.667 914.83 100.501 915.106 100.337C915.38 100.173 915.737 100.025 916.169 99.8926C916.603 99.7602 917.147 99.6526 917.799 99.569C918.451 99.4855 919.267 99.4415 920.241 99.4368C921.197 99.432 922.094 99.4625 922.933 99.5282C923.77 99.5936 924.509 99.6918 925.147 99.8223C925.782 99.9528 926.301 100.114 926.701 100.306C927.098 100.498 927.335 100.719 927.411 100.967L930.196 100.995C930.398 100.996 930.577 101.013 930.73 101.045C930.886 101.076 930.961 101.117 930.961 101.165L930.962 101.396L927.382 101.361C927.257 101.643 926.937 101.901 926.422 102.134C925.91 102.368 925.256 102.571 924.459 102.742L923.155 102.56C923.038 102.542 922.943 102.519 922.867 102.492C922.792 102.464 922.756 102.434 922.755 102.402C922.755 102.358 922.856 102.307 923.058 102.25C923.26 102.194 923.487 102.123 923.741 102.039C923.994 101.956 924.242 101.857 924.488 101.743C924.731 101.629 924.893 101.493 924.978 101.335L916.528 101.25C916.306 101.414 916.055 101.575 915.781 101.734C915.505 101.892 915.14 102.034 914.685 102.161C914.23 102.287 913.663 102.39 912.985 102.469C912.304 102.548 911.452 102.59 910.421 102.595C909.646 102.599 908.892 102.569 908.154 102.507C907.415 102.444 906.759 102.35 906.186 102.225C905.613 102.1 905.143 101.946 904.775 101.762C904.409 101.577 904.203 101.366 904.16 101.127L901.868 101.103C901.665 101.102 901.487 101.086 901.326 101.055C901.168 101.024 901.087 100.984 901.087 100.933L901.086 100.703L904.22 100.733C904.359 100.49 904.643 100.279 905.077 100.099C905.512 99.919 906.042 99.7589 906.668 99.6188L907.718 99.7634C908.037 99.8084 908.195 99.8609 908.195 99.9214C908.196 99.954 908.131 99.9943 907.999 100.043C907.865 100.091 907.71 100.149 907.528 100.216C907.35 100.283 907.174 100.362 907.006 100.452C906.836 100.542 906.709 100.645 906.624 100.759L914.329 100.836ZM906.595 101.149C906.658 101.3 906.799 101.43 907.012 101.539C907.225 101.649 907.489 101.739 907.808 101.809C908.127 101.88 908.485 101.931 908.882 101.964C909.281 101.997 909.698 102.013 910.133 102.011C910.641 102.008 911.084 101.986 911.461 101.945C911.837 101.903 912.168 101.847 912.455 101.776C912.74 101.705 912.991 101.622 913.203 101.528C913.415 101.434 913.603 101.332 913.774 101.222L906.595 101.149ZM924.992 100.944C924.929 100.791 924.775 100.657 924.536 100.542C924.298 100.427 923.991 100.33 923.621 100.252C923.25 100.173 922.817 100.115 922.322 100.077C921.829 100.039 921.285 100.021 920.69 100.024C920.161 100.026 919.703 100.05 919.322 100.095C918.942 100.14 918.61 100.2 918.328 100.276C918.049 100.352 917.809 100.44 917.615 100.541C917.418 100.642 917.235 100.75 917.067 100.864L924.992 100.944Z" fill="#FCB048"/>
<path d="M916.669 97.7842C905.641 97.7842 894.159 98.7579 892.322 100.643C892.394 100.709 892.461 100.78 892.523 100.855C894.071 99.5462 903.552 98.2286 916.669 98.2286C930.123 98.2286 939.756 99.6149 940.923 100.956C940.981 100.882 941.042 100.812 941.108 100.746C939.591 98.7939 927.893 97.7842 916.669 97.7842Z" fill="url(#paint25_linear_1057_59212)"/>
<path d="M897.866 94.8911V100.396C897.866 102.174 908.939 103.616 922.599 103.616C936.258 103.616 947.332 102.174 947.332 100.396V94.8911H897.866Z" fill="url(#paint26_linear_1057_59212)"/>
<path d="M922.599 98.1119C936.258 98.1119 947.331 96.67 947.331 94.8913C947.331 93.1126 936.258 91.6707 922.599 91.6707C908.939 91.6707 897.866 93.1126 897.866 94.8913C897.866 96.67 908.939 98.1119 922.599 98.1119Z" fill="url(#paint27_linear_1057_59212)"/>
<path d="M922.598 98.3338C910.501 98.3338 897.851 97.1744 897.851 94.938C897.851 94.8152 897.895 94.5994 898.017 94.5994C898.14 94.5994 898.087 94.7682 898.087 94.8911C898.087 96.3093 908.154 97.8894 922.599 97.8894C937.043 97.8894 947.11 96.3093 947.11 94.8911C947.11 94.7683 947.131 94.6532 947.253 94.6532C947.375 94.6532 947.346 94.817 947.346 94.9398C947.346 97.1762 934.696 98.3338 922.598 98.3338Z" fill="url(#paint28_linear_1057_59212)"/>
<path d="M920.261 95.0705C920.504 94.902 920.762 94.7358 921.039 94.5716C921.313 94.4078 921.669 94.2595 922.101 94.1272C922.536 93.9949 923.079 93.8872 923.732 93.8036C924.384 93.7202 925.2 93.6761 926.174 93.6714C927.13 93.6667 928.026 93.6971 928.866 93.7628C929.703 93.8282 930.441 93.9264 931.079 94.0569C931.715 94.1874 932.234 94.3488 932.633 94.5406C933.031 94.733 933.268 94.9532 933.344 95.2013L936.129 95.2296C936.331 95.2309 936.51 95.2473 936.663 95.2792C936.818 95.3111 936.894 95.3513 936.894 95.4001L936.895 95.6302L933.315 95.5955C933.189 95.8774 932.869 96.1352 932.355 96.3689C931.843 96.6029 931.189 96.8053 930.392 96.9766L929.088 96.7947C928.971 96.7768 928.875 96.754 928.8 96.7263C928.725 96.6989 928.688 96.669 928.688 96.6363C928.688 96.5921 928.789 96.5416 928.99 96.485C929.192 96.4281 929.42 96.3578 929.673 96.2739C929.927 96.1904 930.175 96.0916 930.42 95.9775C930.663 95.8636 930.826 95.7275 930.911 95.569L922.46 95.485C922.238 95.6489 921.988 95.8099 921.714 95.9681C921.437 96.1264 921.073 96.2689 920.618 96.3954C920.162 96.522 919.595 96.6246 918.917 96.7037C918.236 96.7825 917.384 96.8245 916.353 96.8295C915.579 96.8334 914.825 96.8038 914.086 96.7414C913.348 96.6786 912.692 96.5849 912.119 96.4599C911.546 96.3348 911.076 96.1802 910.707 95.9962C910.341 95.8119 910.135 95.6004 910.093 95.3611L907.8 95.3376C907.598 95.3363 907.419 95.3205 907.258 95.2897C907.1 95.259 907.02 95.2183 907.02 95.1672L907.018 94.9371L910.153 94.967C910.292 94.7246 910.576 94.5133 911.01 94.3335C911.444 94.1535 911.975 93.9934 912.601 93.8533L913.651 93.9979C913.969 94.0429 914.128 94.0954 914.128 94.1559C914.128 94.1885 914.064 94.2288 913.932 94.2771C913.797 94.3255 913.642 94.3833 913.461 94.4503C913.283 94.5175 913.107 94.5961 912.939 94.6866C912.768 94.7768 912.642 94.879 912.557 94.9935L920.261 95.0705ZM912.528 95.3841C912.591 95.535 912.731 95.6648 912.944 95.7741C913.157 95.8838 913.422 95.9735 913.741 96.044C914.06 96.1145 914.418 96.1661 914.814 96.199C915.213 96.232 915.63 96.2475 916.065 96.2453C916.573 96.2429 917.016 96.2208 917.394 96.1795C917.769 96.1379 918.101 96.0818 918.388 96.0106C918.673 95.9395 918.923 95.8571 919.135 95.763C919.347 95.6689 919.536 95.5669 919.706 95.4568L912.528 95.3841ZM930.924 95.1784C930.861 95.0255 930.708 94.8915 930.469 94.7763C930.23 94.6614 929.924 94.5645 929.553 94.4863C929.182 94.4078 928.749 94.3495 928.254 94.3113C927.762 94.2732 927.218 94.2555 926.622 94.2584C926.094 94.2609 925.635 94.2848 925.255 94.3295C924.874 94.3746 924.543 94.4346 924.261 94.5106C923.982 94.5863 923.741 94.6746 923.547 94.7754C923.351 94.8763 923.167 94.9841 923 95.099L930.924 95.1784Z" fill="#FCB048"/>
<path d="M922.602 92.019C911.574 92.019 900.091 92.9928 898.255 94.8777C898.327 94.9443 898.393 95.0152 898.456 95.0899C900.004 93.7811 909.485 92.4635 922.602 92.4635C936.056 92.4635 945.689 93.8498 946.856 95.1908C946.913 95.1172 946.974 95.0468 947.041 94.9805C945.524 93.0288 933.826 92.019 922.602 92.019Z" fill="url(#paint29_linear_1057_59212)"/>
<path d="M894.78 89.1096V94.6142C894.78 96.393 905.853 97.8349 919.513 97.8349C933.172 97.8349 944.246 96.393 944.246 94.6142V89.1096H894.78Z" fill="url(#paint30_linear_1057_59212)"/>
<path d="M919.513 92.3302C933.172 92.3302 944.246 90.8883 944.246 89.1096C944.246 87.3308 933.172 85.8889 919.513 85.8889C905.853 85.8889 894.78 87.3308 894.78 89.1096C894.78 90.8883 905.853 92.3302 919.513 92.3302Z" fill="url(#paint31_linear_1057_59212)"/>
<path d="M919.513 92.5522C907.415 92.5522 894.765 91.3928 894.765 89.1565C894.765 89.0337 894.809 88.8179 894.931 88.8179C895.054 88.8179 895.001 88.9867 895.001 89.1095C895.001 90.5277 905.068 92.1079 919.513 92.1079C933.957 92.1079 944.024 90.5277 944.024 89.1095C944.024 88.9867 944.045 88.8716 944.167 88.8716C944.29 88.8716 944.26 89.0355 944.26 89.1583C944.26 91.3946 931.61 92.5522 919.513 92.5522Z" fill="url(#paint32_linear_1057_59212)"/>
<path d="M919.515 86.2375C908.488 86.2375 897.005 87.2113 895.168 89.0962C895.24 89.1627 895.307 89.2337 895.369 89.3084C896.917 87.9996 906.399 86.682 919.515 86.682C932.969 86.682 942.602 88.0683 943.769 89.4093C943.827 89.3357 943.888 89.2653 943.954 89.199C942.437 87.2473 930.739 86.2375 919.515 86.2375Z" fill="url(#paint33_linear_1057_59212)"/>
<path d="M801.021 128.025V135.984C801.021 138.555 817.03 140.64 836.778 140.64C856.527 140.64 872.536 138.555 872.536 135.984V128.025H801.021Z" fill="url(#paint34_linear_1057_59212)"/>
<path d="M872.535 128.025C872.535 130.597 856.526 132.682 836.777 132.682C817.029 132.682 801.02 130.597 801.02 128.025C801.02 125.454 817.029 123.369 836.777 123.369C856.526 123.369 872.535 125.454 872.535 128.025Z" fill="url(#paint35_linear_1057_59212)"/>
<path d="M836.778 133.002C819.289 133.002 801 131.326 801 128.093C801 127.916 801.063 127.604 801.24 127.604C801.417 127.604 801.341 127.848 801.341 128.025C801.341 130.076 815.895 132.36 836.778 132.36C857.662 132.36 872.216 130.076 872.216 128.025C872.216 127.848 872.246 127.681 872.423 127.681C872.6 127.681 872.557 127.918 872.557 128.096C872.557 131.329 854.268 133.002 836.778 133.002Z" fill="url(#paint36_linear_1057_59212)"/>
<path d="M833.4 128.285C833.751 128.041 834.124 127.801 834.524 127.564C834.919 127.326 835.435 127.112 836.06 126.921C836.688 126.73 837.474 126.574 838.417 126.453C839.36 126.333 840.539 126.269 841.947 126.262C843.33 126.255 844.626 126.299 845.839 126.394C847.05 126.489 848.118 126.631 849.04 126.819C849.958 127.008 850.708 127.241 851.287 127.519C851.861 127.797 852.203 128.115 852.314 128.474L856.34 128.515C856.632 128.517 856.891 128.54 857.112 128.586C857.337 128.632 857.446 128.691 857.446 128.761L857.448 129.094L852.272 129.044C852.09 129.451 851.627 129.824 850.884 130.162C850.144 130.5 849.198 130.793 848.045 131.04L846.16 130.777C845.992 130.752 845.853 130.719 845.744 130.679C845.635 130.639 845.583 130.596 845.582 130.548C845.582 130.484 845.728 130.412 846.02 130.33C846.311 130.248 846.64 130.146 847.007 130.025C847.373 129.904 847.732 129.761 848.087 129.596C848.438 129.431 848.673 129.235 848.796 129.006L836.579 128.884C836.258 129.121 835.895 129.354 835.5 129.583C835.1 129.811 834.573 130.017 833.915 130.2C833.256 130.383 832.437 130.532 831.456 130.646C830.472 130.76 829.24 130.82 827.749 130.828C826.63 130.833 825.54 130.791 824.472 130.7C823.404 130.61 822.456 130.474 821.627 130.294C820.799 130.113 820.12 129.889 819.587 129.623C819.057 129.357 818.76 129.051 818.698 128.705L815.384 128.671C815.092 128.669 814.833 128.646 814.601 128.602C814.372 128.557 814.255 128.498 814.255 128.425L814.253 128.092L818.785 128.135C818.986 127.785 819.396 127.479 820.024 127.219C820.652 126.959 821.419 126.728 822.324 126.525L823.842 126.734C824.303 126.799 824.532 126.875 824.532 126.962C824.533 127.01 824.439 127.068 824.248 127.138C824.054 127.208 823.83 127.291 823.568 127.388C823.31 127.485 823.056 127.599 822.813 127.73C822.567 127.86 822.384 128.008 822.261 128.173L833.4 128.285ZM822.219 128.738C822.31 128.956 822.513 129.144 822.821 129.302C823.129 129.46 823.511 129.59 823.973 129.692C824.434 129.794 824.951 129.869 825.524 129.916C826.101 129.964 826.704 129.986 827.333 129.983C828.067 129.98 828.708 129.948 829.254 129.888C829.797 129.828 830.276 129.747 830.691 129.644C831.103 129.541 831.465 129.422 831.772 129.286C832.078 129.15 832.351 129.002 832.597 128.843L822.219 128.738ZM848.816 128.441C848.725 128.22 848.503 128.026 848.157 127.859C847.812 127.693 847.369 127.553 846.833 127.44C846.297 127.327 845.671 127.242 844.956 127.187C844.244 127.132 843.457 127.106 842.596 127.111C841.832 127.114 841.169 127.149 840.619 127.213C840.069 127.279 839.59 127.365 839.182 127.475C838.778 127.585 838.43 127.712 838.15 127.858C837.866 128.004 837.601 128.16 837.359 128.326L848.816 128.441Z" fill="#FCB048"/>
<path d="M836.782 123.873C820.839 123.873 804.238 125.281 801.583 128.006C801.686 128.102 801.783 128.205 801.873 128.313C804.111 126.42 817.819 124.515 836.782 124.515C856.233 124.515 870.161 126.52 871.848 128.459C871.931 128.352 872.019 128.25 872.115 128.155C869.922 125.333 853.009 123.873 836.782 123.873Z" fill="url(#paint37_linear_1057_59212)"/>
<path d="M809.597 119.691V127.649C809.597 130.221 825.606 132.305 845.355 132.305C865.103 132.305 881.112 130.221 881.112 127.649V119.691H809.597Z" fill="url(#paint38_linear_1057_59212)"/>
<path d="M881.112 119.691C881.112 122.262 865.103 124.347 845.355 124.347C825.607 124.347 809.597 122.262 809.597 119.691C809.597 117.119 825.606 115.034 845.355 115.034C865.103 115.034 881.112 117.119 881.112 119.691Z" fill="url(#paint39_linear_1057_59212)"/>
<path d="M845.355 124.668C827.865 124.668 809.576 122.992 809.576 119.759C809.576 119.581 809.64 119.269 809.816 119.269C809.993 119.269 809.917 119.513 809.917 119.691C809.917 121.741 824.471 124.025 845.355 124.025C866.239 124.025 880.792 121.741 880.792 119.691C880.792 119.513 880.822 119.347 880.999 119.347C881.176 119.347 881.134 119.584 881.134 119.761C881.134 122.994 862.844 124.668 845.355 124.668Z" fill="url(#paint40_linear_1057_59212)"/>
<path d="M841.976 119.95C842.327 119.706 842.7 119.466 843.1 119.229C843.496 118.992 844.011 118.778 844.636 118.586C845.264 118.395 846.05 118.239 846.993 118.118C847.936 117.998 849.116 117.934 850.524 117.927C851.906 117.92 853.202 117.965 854.416 118.059C855.626 118.154 856.694 118.296 857.616 118.485C858.535 118.673 859.285 118.907 859.863 119.184C860.437 119.462 860.78 119.78 860.89 120.139L864.916 120.18C865.209 120.182 865.467 120.206 865.688 120.252C865.913 120.298 866.022 120.356 866.022 120.426L866.024 120.759L860.848 120.709C860.666 121.117 860.204 121.489 859.46 121.827C858.72 122.165 857.774 122.458 856.622 122.706L854.737 122.443C854.568 122.417 854.429 122.384 854.321 122.344C854.212 122.304 854.159 122.261 854.159 122.214C854.159 122.15 854.304 122.077 854.596 121.995C854.888 121.913 855.217 121.811 855.583 121.69C855.95 121.569 856.309 121.426 856.663 121.261C857.015 121.097 857.25 120.9 857.372 120.671L845.155 120.549C844.834 120.786 844.472 121.019 844.076 121.248C843.676 121.477 843.149 121.683 842.491 121.866C841.833 122.048 841.013 122.197 840.033 122.311C839.048 122.425 837.816 122.486 836.326 122.493C835.206 122.499 834.116 122.456 833.048 122.366C831.98 122.275 831.032 122.139 830.204 121.959C829.375 121.778 828.696 121.554 828.163 121.288C827.634 121.022 827.336 120.716 827.275 120.37L823.96 120.336C823.668 120.334 823.409 120.311 823.177 120.267C822.948 120.223 822.832 120.164 822.832 120.09L822.83 119.757L827.362 119.8C827.562 119.45 827.973 119.144 828.601 118.885C829.229 118.624 829.995 118.393 830.901 118.19L832.418 118.399C832.879 118.464 833.108 118.54 833.109 118.628C833.109 118.675 833.016 118.733 832.825 118.803C832.63 118.873 832.406 118.956 832.144 119.053C831.886 119.151 831.632 119.264 831.39 119.395C831.143 119.525 830.96 119.673 830.837 119.839L841.976 119.95ZM830.795 120.403C830.886 120.622 831.089 120.809 831.397 120.967C831.705 121.126 832.088 121.256 832.549 121.357C833.01 121.459 833.527 121.534 834.101 121.582C834.678 121.629 835.281 121.652 835.91 121.649C836.644 121.645 837.284 121.613 837.831 121.553C838.373 121.493 838.852 121.412 839.267 121.309C839.679 121.206 840.042 121.087 840.348 120.951C840.654 120.815 840.927 120.668 841.173 120.509L830.795 120.403ZM857.392 120.106C857.301 119.885 857.079 119.691 856.734 119.525C856.388 119.359 855.946 119.218 855.41 119.105C854.873 118.992 854.248 118.908 853.532 118.853C852.82 118.797 852.034 118.772 851.172 118.776C850.408 118.78 849.746 118.814 849.195 118.879C848.645 118.944 848.166 119.031 847.759 119.141C847.355 119.25 847.007 119.378 846.727 119.523C846.443 119.669 846.178 119.825 845.935 119.991L857.392 120.106Z" fill="#FCB048"/>
<path d="M845.36 115.538C829.416 115.538 812.815 116.946 810.16 119.671C810.264 119.767 810.36 119.87 810.45 119.978C812.688 118.086 826.396 116.181 845.36 116.181C864.811 116.181 878.738 118.185 880.425 120.124C880.508 120.018 880.597 119.916 880.693 119.82C878.499 116.998 861.587 115.538 845.36 115.538Z" fill="url(#paint41_linear_1057_59212)"/>
<path d="M814.803 111.331V119.29C814.803 121.861 830.812 123.946 850.561 123.946C870.309 123.946 886.318 121.861 886.318 119.29V111.331H814.803Z" fill="url(#paint42_linear_1057_59212)"/>
<path d="M850.559 115.987C870.308 115.987 886.317 113.903 886.317 111.331C886.317 108.759 870.308 106.675 850.559 106.675C830.811 106.675 814.802 108.759 814.802 111.331C814.802 113.903 830.811 115.987 850.559 115.987Z" fill="url(#paint43_linear_1057_59212)"/>
<path d="M850.56 116.308C833.07 116.308 814.781 114.632 814.781 111.399C814.781 111.221 814.845 110.909 815.022 110.909C815.199 110.909 815.122 111.153 815.122 111.331C815.122 113.381 829.676 115.666 850.56 115.666C871.444 115.666 885.997 113.381 885.997 111.331C885.997 111.153 886.027 110.987 886.204 110.987C886.381 110.987 886.339 111.224 886.339 111.401C886.339 114.635 868.05 116.308 850.56 116.308Z" fill="url(#paint44_linear_1057_59212)"/>
<path d="M847.181 111.591C847.532 111.347 847.905 111.107 848.305 110.869C848.701 110.632 849.217 110.418 849.841 110.227C850.469 110.035 851.255 109.88 852.198 109.759C853.141 109.638 854.321 109.575 855.729 109.568C857.111 109.561 858.407 109.605 859.621 109.7C860.831 109.795 861.899 109.937 862.821 110.125C863.74 110.314 864.49 110.547 865.068 110.825C865.642 111.103 865.985 111.421 866.095 111.78L870.121 111.821C870.413 111.823 870.672 111.846 870.893 111.892C871.118 111.938 871.227 111.997 871.227 112.067L871.229 112.4L866.053 112.35C865.871 112.757 865.409 113.13 864.665 113.468C863.925 113.806 862.979 114.099 861.827 114.346L859.942 114.083C859.773 114.057 859.634 114.025 859.525 113.984C859.417 113.945 859.364 113.902 859.364 113.854C859.364 113.791 859.509 113.718 859.801 113.636C860.093 113.553 860.422 113.452 860.788 113.331C861.155 113.21 861.513 113.067 861.868 112.902C862.22 112.737 862.455 112.541 862.577 112.311L850.36 112.19C850.039 112.427 849.677 112.66 849.281 112.888C848.881 113.117 848.354 113.323 847.696 113.506C847.038 113.689 846.218 113.838 845.238 113.952C844.253 114.066 843.021 114.127 841.531 114.134C840.411 114.139 839.321 114.097 838.253 114.006C837.185 113.916 836.237 113.78 835.409 113.6C834.58 113.419 833.901 113.195 833.368 112.929C832.839 112.663 832.541 112.357 832.48 112.011L829.165 111.977C828.873 111.975 828.614 111.952 828.382 111.908C828.153 111.863 828.037 111.804 828.037 111.73L828.035 111.398L832.567 111.441C832.767 111.091 833.178 110.785 833.806 110.525C834.434 110.265 835.2 110.034 836.106 109.831L837.623 110.04C838.084 110.105 838.313 110.181 838.314 110.268C838.314 110.316 838.221 110.374 838.03 110.444C837.836 110.514 837.611 110.597 837.35 110.694C837.092 110.791 836.837 110.905 836.595 111.036C836.348 111.166 836.165 111.314 836.043 111.479L847.181 111.591ZM836 112.044C836.091 112.262 836.294 112.45 836.602 112.608C836.91 112.766 837.293 112.896 837.754 112.998C838.215 113.1 838.732 113.175 839.306 113.222C839.882 113.27 840.485 113.292 841.115 113.289C841.849 113.286 842.489 113.254 843.035 113.194C843.578 113.134 844.057 113.053 844.472 112.95C844.884 112.847 845.247 112.728 845.553 112.592C845.859 112.456 846.132 112.308 846.379 112.149L836 112.044ZM862.597 111.747C862.506 111.526 862.284 111.332 861.939 111.165C861.593 110.999 861.151 110.859 860.615 110.746C860.078 110.633 859.453 110.548 858.737 110.493C858.025 110.438 857.239 110.412 856.377 110.417C855.613 110.42 854.95 110.455 854.4 110.519C853.85 110.585 853.371 110.671 852.963 110.781C852.559 110.891 852.212 111.018 851.932 111.164C851.648 111.31 851.382 111.466 851.14 111.632L862.597 111.747Z" fill="#FCB048"/>
<path d="M850.565 107.179C834.621 107.179 818.02 108.587 815.365 111.312C815.469 111.408 815.566 111.511 815.655 111.619C817.894 109.726 831.601 107.821 850.565 107.821C870.016 107.821 883.943 109.826 885.63 111.764C885.713 111.658 885.802 111.556 885.898 111.461C883.704 108.639 866.792 107.179 850.565 107.179Z" fill="url(#paint45_linear_1057_59212)"/>
<path d="M810.961 102.312V110.271C810.961 112.842 826.97 114.927 846.719 114.927C866.467 114.927 882.476 112.842 882.476 110.271V102.312H810.961Z" fill="url(#paint46_linear_1057_59212)"/>
<path d="M882.476 102.312C882.476 104.884 866.467 106.969 846.719 106.969C826.97 106.969 810.961 104.884 810.961 102.312C810.961 99.7407 826.97 97.656 846.719 97.656C866.467 97.656 882.476 99.7407 882.476 102.312Z" fill="url(#paint47_linear_1057_59212)"/>
<path d="M846.718 107.29C829.228 107.29 810.94 105.614 810.94 102.381C810.94 102.203 811.003 101.891 811.18 101.891C811.357 101.891 811.281 102.135 811.281 102.313C811.281 104.363 825.834 106.647 846.718 106.647C867.602 106.647 882.155 104.363 882.155 102.313C882.155 102.135 882.186 101.969 882.363 101.969C882.54 101.969 882.497 102.206 882.497 102.383C882.497 105.616 864.208 107.29 846.718 107.29Z" fill="url(#paint48_linear_1057_59212)"/>
<path d="M843.339 102.572C843.69 102.328 844.063 102.088 844.463 101.851C844.859 101.614 845.375 101.399 845.999 101.208C846.627 101.017 847.413 100.861 848.356 100.74C849.299 100.62 850.479 100.556 851.887 100.549C853.269 100.542 854.565 100.586 855.779 100.681C856.989 100.776 858.057 100.918 858.979 101.106C859.898 101.295 860.648 101.528 861.226 101.806C861.801 102.084 862.143 102.402 862.253 102.761L866.279 102.802C866.572 102.804 866.83 102.827 867.051 102.874C867.276 102.92 867.385 102.978 867.386 103.048L867.387 103.381L862.211 103.331C862.03 103.738 861.567 104.111 860.823 104.449C860.083 104.787 859.137 105.08 857.985 105.328L856.1 105.065C855.931 105.039 855.793 105.006 855.684 104.966C855.575 104.926 855.522 104.883 855.522 104.836C855.522 104.772 855.667 104.699 855.959 104.617C856.251 104.535 856.58 104.433 856.946 104.312C857.313 104.191 857.672 104.048 858.027 103.883C858.378 103.719 858.613 103.522 858.735 103.293L846.518 103.171C846.197 103.408 845.835 103.641 845.439 103.87C845.039 104.099 844.512 104.305 843.854 104.487C843.196 104.67 842.376 104.819 841.396 104.933C840.411 105.047 839.179 105.108 837.689 105.115C836.569 105.121 835.479 105.078 834.411 104.988C833.343 104.897 832.395 104.761 831.567 104.581C830.738 104.4 830.059 104.176 829.526 103.91C828.997 103.644 828.699 103.338 828.638 102.992L825.323 102.958C825.031 102.956 824.773 102.933 824.54 102.889C824.311 102.845 824.195 102.786 824.195 102.712L824.193 102.379L828.725 102.422C828.925 102.072 829.336 101.766 829.964 101.507C830.592 101.246 831.358 101.015 832.264 100.812L833.782 101.021C834.243 101.086 834.471 101.162 834.472 101.25C834.472 101.297 834.379 101.355 834.188 101.425C833.994 101.495 833.769 101.578 833.508 101.675C833.25 101.773 832.996 101.886 832.753 102.017C832.506 102.147 832.323 102.295 832.201 102.461L843.339 102.572ZM832.158 103.025C832.249 103.243 832.453 103.431 832.76 103.589C833.068 103.748 833.451 103.877 833.912 103.979C834.373 104.081 834.89 104.156 835.464 104.203C836.041 104.251 836.644 104.273 837.273 104.27C838.007 104.267 838.647 104.235 839.194 104.175C839.736 104.115 840.215 104.034 840.631 103.931C841.042 103.828 841.405 103.709 841.711 103.573C842.018 103.437 842.29 103.29 842.537 103.13L832.158 103.025ZM858.755 102.728C858.664 102.507 858.442 102.313 858.097 102.147C857.752 101.98 857.309 101.84 856.773 101.727C856.237 101.614 855.611 101.529 854.895 101.474C854.183 101.419 853.397 101.394 852.535 101.398C851.771 101.402 851.109 101.436 850.558 101.501C850.008 101.566 849.529 101.653 849.122 101.762C848.718 101.872 848.37 102 848.09 102.145C847.806 102.291 847.541 102.447 847.298 102.613L858.755 102.728Z" fill="#FCB048"/>
<path d="M846.723 98.1602C830.779 98.1602 814.178 99.568 811.523 102.293C811.627 102.389 811.724 102.492 811.813 102.6C814.052 100.708 827.759 98.8026 846.723 98.8026C866.174 98.8026 880.101 100.807 881.788 102.746C881.871 102.639 881.96 102.538 882.056 102.442C879.862 99.62 862.95 98.1602 846.723 98.1602Z" fill="url(#paint49_linear_1057_59212)"/>
<path d="M801.021 93.9529V101.911C801.021 104.483 817.03 106.567 836.778 106.567C856.527 106.567 872.536 104.483 872.536 101.911V93.9529H801.021Z" fill="url(#paint50_linear_1057_59212)"/>
<path d="M836.777 98.6094C856.526 98.6094 872.535 96.5247 872.535 93.9531C872.535 91.3816 856.526 89.2969 836.777 89.2969C817.029 89.2969 801.02 91.3816 801.02 93.9531C801.02 96.5247 817.029 98.6094 836.777 98.6094Z" fill="url(#paint51_linear_1057_59212)"/>
<path d="M836.778 98.9305C819.289 98.9305 801 97.2543 801 94.0212C801 93.8435 801.063 93.5315 801.24 93.5315C801.417 93.5315 801.341 93.7756 801.341 93.9531C801.341 96.0035 815.895 98.288 836.778 98.288C857.662 98.288 872.216 96.0035 872.216 93.9531C872.216 93.7756 872.246 93.6092 872.423 93.6092C872.6 93.6092 872.557 93.8461 872.557 94.0237C872.557 97.2569 854.268 98.9305 836.778 98.9305Z" fill="url(#paint52_linear_1057_59212)"/>
<path d="M833.4 94.2127C833.751 93.969 834.124 93.7288 834.524 93.4914C834.919 93.2544 835.435 93.0402 836.06 92.8489C836.688 92.6576 837.474 92.5019 838.417 92.3811C839.36 92.2604 840.539 92.1967 841.947 92.1899C843.33 92.183 844.626 92.2271 845.839 92.3221C847.05 92.4166 848.118 92.5586 849.04 92.7473C849.958 92.9359 850.708 93.1693 851.287 93.4467C851.861 93.7248 852.203 94.0431 852.314 94.4018L856.34 94.4428C856.632 94.4446 856.891 94.4684 857.112 94.5144C857.337 94.5605 857.446 94.6186 857.446 94.6892L857.448 95.0218L852.272 94.9718C852.09 95.3792 851.627 95.7519 850.884 96.0898C850.144 96.4282 849.198 96.7208 848.045 96.9685L846.16 96.7054C845.992 96.6796 845.853 96.6467 845.744 96.6066C845.635 96.5669 845.583 96.5237 845.582 96.4766C845.582 96.4126 845.728 96.3396 846.02 96.2578C846.311 96.1756 846.64 96.0739 847.007 95.9527C847.373 95.8319 847.732 95.689 848.087 95.524C848.438 95.3594 848.673 95.1627 848.796 94.9336L836.579 94.8119C836.258 95.049 835.895 95.2817 835.5 95.5105C835.1 95.7393 834.573 95.9454 833.915 96.1283C833.256 96.3112 832.437 96.4595 831.456 96.5739C830.472 96.6879 829.24 96.7486 827.749 96.7558C826.63 96.7614 825.54 96.7187 824.472 96.6284C823.404 96.5377 822.456 96.4021 821.627 96.2216C820.799 96.0407 820.12 95.8172 819.587 95.5512C819.057 95.2847 818.76 94.9789 818.698 94.633L815.384 94.5989C815.092 94.5971 814.833 94.5742 814.601 94.5297C814.372 94.4854 814.255 94.4264 814.255 94.3527L814.253 94.02L818.785 94.0633C818.986 93.7128 819.396 93.4073 820.024 93.1474C820.652 92.8871 821.419 92.6556 822.324 92.4531L823.842 92.6622C824.303 92.7272 824.532 92.8031 824.532 92.8905C824.533 92.9377 824.439 92.996 824.248 93.0658C824.054 93.1358 823.83 93.2193 823.568 93.3162C823.31 93.4134 823.056 93.527 822.813 93.6579C822.567 93.7883 822.384 93.936 822.261 94.1015L833.4 94.2127ZM822.219 94.6661C822.31 94.8843 822.513 95.0719 822.821 95.2299C823.129 95.3884 823.511 95.5183 823.973 95.6202C824.434 95.722 824.951 95.7966 825.524 95.8442C826.101 95.8919 826.704 95.9143 827.333 95.9112C828.067 95.9076 828.708 95.8757 829.254 95.816C829.797 95.7559 830.276 95.6748 830.691 95.5719C831.103 95.469 831.465 95.3498 831.772 95.2138C832.078 95.0777 832.351 94.9304 832.597 94.7712L822.219 94.6661ZM848.816 94.3686C848.725 94.1475 848.503 93.9538 848.157 93.7873C847.812 93.6212 847.369 93.481 846.833 93.3681C846.297 93.2546 845.671 93.1703 844.956 93.1152C844.244 93.0601 843.457 93.0344 842.596 93.0386C841.832 93.0423 841.169 93.0768 840.619 93.1414C840.069 93.2065 839.59 93.2934 839.182 93.4032C838.778 93.5127 838.43 93.6403 838.15 93.7861C837.866 93.9319 837.601 94.0878 837.359 94.2539L848.816 94.3686Z" fill="#FCB048"/>
<path d="M836.782 89.8008C820.839 89.8008 804.238 91.2086 801.583 93.9337C801.686 94.03 801.783 94.1325 801.873 94.2404C804.111 92.3483 817.819 90.4433 836.782 90.4433C856.233 90.4433 870.161 92.4475 871.848 94.3863C871.931 94.28 872.019 94.1782 872.115 94.0824C869.922 91.2607 853.009 89.8008 836.782 89.8008Z" fill="url(#paint53_linear_1057_59212)"/>
<path d="M809.597 85.6182V93.5765C809.597 96.1481 825.606 98.2327 845.355 98.2327C865.103 98.2327 881.112 96.148 881.112 93.5765V85.6182H809.597Z" fill="url(#paint54_linear_1057_59212)"/>
<path d="M845.355 90.2747C865.103 90.2747 881.112 88.19 881.112 85.6184C881.112 83.0468 865.103 80.9622 845.355 80.9622C825.606 80.9622 809.597 83.0468 809.597 85.6184C809.597 88.19 825.606 90.2747 845.355 90.2747Z" fill="url(#paint55_linear_1057_59212)"/>
<path d="M845.355 90.5956C827.865 90.5956 809.576 88.9193 809.576 85.6862C809.576 85.5086 809.64 85.1965 809.816 85.1965C809.993 85.1965 809.917 85.4407 809.917 85.6183C809.917 87.6686 824.471 89.9531 845.355 89.9531C866.239 89.9531 880.792 87.6686 880.792 85.6183C880.792 85.4407 880.822 85.2743 880.999 85.2743C881.176 85.2743 881.134 85.5112 881.134 85.6888C881.134 88.9219 862.844 90.5956 845.355 90.5956Z" fill="url(#paint56_linear_1057_59212)"/>
<path d="M841.976 85.8776C842.327 85.6338 842.7 85.3936 843.1 85.1562C843.496 84.9193 844.011 84.705 844.636 84.5137C845.264 84.3224 846.05 84.1667 846.993 84.0459C847.936 83.9252 849.116 83.8616 850.524 83.8547C851.906 83.8479 853.202 83.8919 854.416 83.9869C855.626 84.0814 856.694 84.2234 857.616 84.4121C858.535 84.6007 859.285 84.8341 859.863 85.1115C860.437 85.3895 860.78 85.7078 860.89 86.0666L864.916 86.1075C865.209 86.1094 865.467 86.1332 865.688 86.1792C865.913 86.2253 866.022 86.2834 866.022 86.354L866.024 86.6866L860.848 86.6366C860.666 87.044 860.204 87.4167 859.46 87.7546C858.72 88.093 857.774 88.3857 856.622 88.6333L854.737 88.3702C854.568 88.3444 854.429 88.3114 854.321 88.2714C854.212 88.2317 854.159 88.1885 854.159 88.1413C854.159 88.0774 854.304 88.0043 854.596 87.9225C854.888 87.8402 855.217 87.7386 855.583 87.6174C855.95 87.4966 856.309 87.3537 856.663 87.1887C857.015 87.0241 857.25 86.8273 857.372 86.5982L845.155 86.4767C844.834 86.7137 844.472 86.9464 844.076 87.1752C843.676 87.404 843.149 87.6102 842.491 87.793C841.833 87.976 841.013 88.1243 840.033 88.2386C839.048 88.3527 837.816 88.4133 836.326 88.4206C835.206 88.4261 834.116 88.3835 833.048 88.2932C831.98 88.2024 831.032 88.0669 830.204 87.8863C829.375 87.7054 828.696 87.4819 828.163 87.2159C827.634 86.9494 827.336 86.6436 827.275 86.2977L823.96 86.2636C823.668 86.2617 823.409 86.2389 823.177 86.1944C822.948 86.15 822.832 86.0911 822.832 86.0173L822.83 85.6846L827.362 85.7279C827.562 85.3774 827.973 85.0719 828.601 84.812C829.229 84.5517 829.995 84.3202 830.901 84.1177L832.418 84.3268C832.879 84.3918 833.108 84.4678 833.109 84.5552C833.109 84.6023 833.016 84.6606 832.825 84.7304C832.63 84.8004 832.406 84.8839 832.144 84.9808C831.886 85.078 831.632 85.1917 831.39 85.3225C831.143 85.4529 830.96 85.6006 830.837 85.7661L841.976 85.8776ZM830.795 86.3309C830.886 86.5491 831.089 86.7368 831.397 86.8948C831.705 87.0533 832.088 87.1831 832.549 87.285C833.01 87.3868 833.527 87.4614 834.101 87.5091C834.678 87.5567 835.281 87.5792 835.91 87.576C836.644 87.5725 837.284 87.5406 837.831 87.4808C838.373 87.4207 838.852 87.3396 839.267 87.2367C839.679 87.1338 840.042 87.0147 840.348 86.8786C840.654 86.7426 840.927 86.5952 841.173 86.4361L830.795 86.3309ZM857.392 86.0334C857.301 85.8124 857.079 85.6186 856.734 85.4521C856.388 85.286 855.946 85.1459 855.41 85.0329C854.873 84.9194 854.248 84.8351 853.532 84.7799C852.82 84.7249 852.034 84.6992 851.172 84.7034C850.408 84.7071 849.746 84.7416 849.195 84.8062C848.645 84.8713 848.166 84.9582 847.759 85.068C847.355 85.1775 847.007 85.3051 846.727 85.4509C846.443 85.5967 846.178 85.7526 845.935 85.9187L857.392 86.0334Z" fill="#FCB048"/>
<path d="M845.36 81.4661C829.416 81.4661 812.815 82.8739 810.16 85.599C810.264 85.6952 810.36 85.7978 810.45 85.9057C812.688 84.0136 826.396 82.1086 845.36 82.1086C864.811 82.1086 878.738 84.1129 880.425 86.0516C880.508 85.9453 880.597 85.8435 880.693 85.7477C878.499 82.926 861.587 81.4661 845.36 81.4661Z" fill="url(#paint57_linear_1057_59212)"/>
<path d="M805.137 77.2593V85.2176C805.137 87.7892 821.146 89.8739 840.894 89.8739C860.642 89.8739 876.652 87.7892 876.652 85.2176V77.2593H805.137Z" fill="url(#paint58_linear_1057_59212)"/>
<path d="M840.894 81.9155C860.643 81.9155 876.652 79.8309 876.652 77.2593C876.652 74.6877 860.643 72.603 840.894 72.603C821.146 72.603 805.137 74.6877 805.137 77.2593C805.137 79.8309 821.146 81.9155 840.894 81.9155Z" fill="url(#paint59_linear_1057_59212)"/>
<path d="M840.894 82.2366C823.405 82.2366 805.116 80.5603 805.116 77.3272C805.116 77.1497 805.179 76.8376 805.356 76.8376C805.533 76.8376 805.457 77.0817 805.457 77.2593C805.457 79.3097 820.011 81.5942 840.894 81.5942C861.778 81.5942 876.332 79.3097 876.332 77.2593C876.332 77.0817 876.362 76.9153 876.539 76.9153C876.716 76.9153 876.673 77.1523 876.673 77.3298C876.673 80.5629 858.384 82.2366 840.894 82.2366Z" fill="url(#paint60_linear_1057_59212)"/>
<path d="M840.897 73.1069C824.954 73.1069 808.353 74.5147 805.698 77.2399C805.801 77.336 805.898 77.4387 805.988 77.5466C808.226 75.6544 821.934 73.7495 840.898 73.7495C860.348 73.7495 874.276 75.7537 875.963 77.6924C876.046 77.5861 876.134 77.4843 876.23 77.3885C874.037 74.5668 857.124 73.1069 840.897 73.1069Z" fill="url(#paint61_linear_1057_59212)"/>
<path d="M950.759 49.5591C950.759 68.425 936.058 83.2659 917.267 82.6869C897.712 82.0843 881.266 65.1376 881.266 44.858C881.266 24.5784 897.712 9.85689 917.267 11.9001C936.058 13.8632 950.759 30.6932 950.759 49.5591Z" fill="url(#paint62_linear_1057_59212)"/>
<path d="M955.837 47.9325C955.837 66.7985 941.135 81.6393 922.345 81.0602C902.789 80.4577 886.343 63.511 886.343 43.2313C886.343 22.9516 902.789 8.23018 922.345 10.2734C941.135 12.2367 955.837 29.0666 955.837 47.9325Z" fill="url(#paint63_linear_1057_59212)"/>
<path d="M954.362 47.8326C954.362 65.8678 940.295 80.0311 922.345 79.4479C903.698 78.8421 888.042 62.6691 888.042 43.3462C888.042 24.0233 903.698 9.96867 922.345 11.8856C940.295 13.7311 954.362 29.7975 954.362 47.8326Z" fill="url(#paint64_linear_1057_59212)"/>
<path d="M953.305 47.7613C953.305 65.2014 939.694 78.8808 922.344 78.2964C904.345 77.6899 889.251 62.0696 889.251 43.4282C889.251 24.7867 904.345 11.2085 922.344 13.0374C939.694 14.8002 953.305 30.3211 953.305 47.7613Z" fill="url(#paint65_linear_1057_59212)"/>
<path opacity="0.3" d="M916.742 52.032C917.788 41.665 927.283 37.2764 926.044 27.7404C925.28 21.863 920.84 16.9098 915.888 13.0425C900.866 14.6233 889.251 27.104 889.251 43.428C889.251 62.0695 904.345 77.6898 922.344 78.2963C924.092 78.3551 925.799 78.264 927.458 78.0456C920.31 70.9081 915.843 60.9384 916.742 52.032Z" fill="url(#paint66_linear_1057_59212)"/>
<path d="M905.228 43.3225C905.228 41.1853 906.981 39.0457 909.651 39.0457C912.32 39.0457 913.997 41.1829 913.997 43.3225V47.6354C913.997 51.3767 917.048 54.6594 921.09 54.6594C925.131 54.6594 928.182 51.3767 928.182 47.6354V43.3225C928.182 41.1853 929.935 39.0457 932.605 39.0457C935.275 39.0457 936.951 41.1829 936.951 43.3225V47.6354C936.951 55.5743 930.47 63.1339 921.09 63.1339C911.709 63.1339 905.228 55.5743 905.228 47.6354V43.3225Z" fill="#307CFE"/>
<path d="M909.644 37.0645C912.082 37.0645 914.059 35.0852 914.059 32.6436C914.059 30.202 912.082 28.2227 909.644 28.2227C907.205 28.2227 905.228 30.202 905.228 32.6436C905.228 35.0852 907.205 37.0645 909.644 37.0645Z" fill="#307CFE"/>
<path d="M932.533 37.0645C934.971 37.0645 936.948 35.0852 936.948 32.6436C936.948 30.202 934.971 28.2227 932.533 28.2227C930.094 28.2227 928.117 30.202 928.117 32.6436C928.117 35.0852 930.094 37.0645 932.533 37.0645Z" fill="#307CFE"/>
</g>
</g>
<defs>
<filter id="filter0_d_1057_59212" x="0" y="0" width="966" height="146" filterUnits="userSpaceOnUse" color-interpolation-filters="sRGB">
<feFlood flood-opacity="0" result="BackgroundImageFix"/>
<feColorMatrix in="SourceAlpha" type="matrix" values="0 0 0 0 0 0 0 0 0 0 0 0 0 0 0 0 0 0 127 0" result="hardAlpha"/>
<feOffset dy="4"/>
<feGaussianBlur stdDeviation="5.5"/>
<feComposite in2="hardAlpha" operator="out"/>
<feColorMatrix type="matrix" values="0 0 0 0 0.254167 0 0 0 0 0.254167 0 0 0 0 0.254167 0 0 0 0.25 0"/>
<feBlend mode="normal" in2="BackgroundImageFix" result="effect1_dropShadow_1057_59212"/>
<feBlend mode="normal" in="SourceGraphic" in2="effect1_dropShadow_1057_59212" result="shape"/>
</filter>
<linearGradient id="paint0_linear_1057_59212" x1="906.609" y1="-15.7256" x2="797.204" y2="130.502" gradientUnits="userSpaceOnUse">
<stop stop-color="#AACAFF"/>
<stop offset="1" stop-color="#DEEAFF"/>
</linearGradient>
<linearGradient id="paint1_linear_1057_59212" x1="966.628" y1="-6.97378" x2="754.4" y2="296.05" gradientUnits="userSpaceOnUse">
<stop stop-color="#C4DAFF"/>
<stop offset="1" stop-color="#A0C0F4"/>
</linearGradient>
<linearGradient id="paint2_linear_1057_59212" x1="894.58" y1="134.368" x2="951.488" y2="134.368" gradientUnits="userSpaceOnUse">
<stop stop-color="#FCB148"/>
<stop offset="0.0521" stop-color="#FDBA46"/>
<stop offset="0.1424" stop-color="#FFC244"/>
<stop offset="0.3183" stop-color="#FFC444"/>
<stop offset="0.4849" stop-color="#FDB946"/>
<stop offset="0.7754" stop-color="#F99C4D"/>
<stop offset="0.8658" stop-color="#F8924F"/>
<stop offset="1" stop-color="#F8924F"/>
</linearGradient>
<linearGradient id="paint3_linear_1057_59212" x1="923.295" y1="127.936" x2="926.316" y2="153.135" gradientUnits="userSpaceOnUse">
<stop stop-color="#FFDB44"/>
<stop offset="1" stop-color="#FEEF06"/>
</linearGradient>
<linearGradient id="paint4_linear_1057_59212" x1="923.165" y1="126.812" x2="924.092" y2="134.551" gradientUnits="userSpaceOnUse">
<stop stop-color="#FFDB44"/>
<stop offset="1" stop-color="#FEEF06"/>
</linearGradient>
<linearGradient id="paint5_linear_1057_59212" x1="924.031" y1="133.74" x2="923.107" y2="126.029" gradientUnits="userSpaceOnUse">
<stop offset="0.0036" stop-color="#F36F56"/>
<stop offset="0.3059" stop-color="#F99C4C"/>
<stop offset="0.545" stop-color="#FDB946"/>
<stop offset="0.6817" stop-color="#FFC444"/>
<stop offset="0.8038" stop-color="#FFC244"/>
<stop offset="0.8667" stop-color="#FEBA46"/>
<stop offset="0.916" stop-color="#FCAD49"/>
<stop offset="0.958" stop-color="#F99A4D"/>
<stop offset="0.9955" stop-color="#F58152"/>
<stop offset="1" stop-color="#F57E53"/>
</linearGradient>
<linearGradient id="paint6_linear_1057_59212" x1="887.705" y1="128.586" x2="944.612" y2="128.586" gradientUnits="userSpaceOnUse">
<stop stop-color="#FCB148"/>
<stop offset="0.0521" stop-color="#FDBA46"/>
<stop offset="0.1424" stop-color="#FFC244"/>
<stop offset="0.3183" stop-color="#FFC444"/>
<stop offset="0.4849" stop-color="#FDB946"/>
<stop offset="0.7754" stop-color="#F99C4D"/>
<stop offset="0.8658" stop-color="#F8924F"/>
<stop offset="1" stop-color="#F8924F"/>
</linearGradient>
<linearGradient id="paint7_linear_1057_59212" x1="916.419" y1="122.154" x2="919.44" y2="147.352" gradientUnits="userSpaceOnUse">
<stop stop-color="#FFDB44"/>
<stop offset="1" stop-color="#FEEF06"/>
</linearGradient>
<linearGradient id="paint8_linear_1057_59212" x1="916.289" y1="121.03" x2="917.217" y2="128.769" gradientUnits="userSpaceOnUse">
<stop stop-color="#FFDB44"/>
<stop offset="1" stop-color="#FEEF06"/>
</linearGradient>
<linearGradient id="paint9_linear_1057_59212" x1="917.155" y1="127.958" x2="916.231" y2="120.247" gradientUnits="userSpaceOnUse">
<stop offset="0.0036" stop-color="#F36F56"/>
<stop offset="0.3059" stop-color="#F99C4C"/>
<stop offset="0.545" stop-color="#FDB946"/>
<stop offset="0.6817" stop-color="#FFC444"/>
<stop offset="0.8038" stop-color="#FFC244"/>
<stop offset="0.8667" stop-color="#FEBA46"/>
<stop offset="0.916" stop-color="#FCAD49"/>
<stop offset="0.958" stop-color="#F99A4D"/>
<stop offset="0.9955" stop-color="#F58152"/>
<stop offset="1" stop-color="#F57E53"/>
</linearGradient>
<linearGradient id="paint10_linear_1057_59212" x1="893.637" y1="122.821" x2="950.544" y2="122.821" gradientUnits="userSpaceOnUse">
<stop stop-color="#FCB148"/>
<stop offset="0.0521" stop-color="#FDBA46"/>
<stop offset="0.1424" stop-color="#FFC244"/>
<stop offset="0.3183" stop-color="#FFC444"/>
<stop offset="0.4849" stop-color="#FDB946"/>
<stop offset="0.7754" stop-color="#F99C4D"/>
<stop offset="0.8658" stop-color="#F8924F"/>
<stop offset="1" stop-color="#F8924F"/>
</linearGradient>
<linearGradient id="paint11_linear_1057_59212" x1="922.352" y1="116.389" x2="925.373" y2="141.587" gradientUnits="userSpaceOnUse">
<stop stop-color="#FFDB44"/>
<stop offset="1" stop-color="#FEEF06"/>
</linearGradient>
<linearGradient id="paint12_linear_1057_59212" x1="922.222" y1="115.265" x2="923.149" y2="123.004" gradientUnits="userSpaceOnUse">
<stop stop-color="#FFDB44"/>
<stop offset="1" stop-color="#FEEF06"/>
</linearGradient>
<linearGradient id="paint13_linear_1057_59212" x1="923.088" y1="122.193" x2="922.164" y2="114.482" gradientUnits="userSpaceOnUse">
<stop offset="0.0036" stop-color="#F36F56"/>
<stop offset="0.3059" stop-color="#F99C4C"/>
<stop offset="0.545" stop-color="#FDB946"/>
<stop offset="0.6817" stop-color="#FFC444"/>
<stop offset="0.8038" stop-color="#FFC244"/>
<stop offset="0.8667" stop-color="#FEBA46"/>
<stop offset="0.916" stop-color="#FCAD49"/>
<stop offset="0.958" stop-color="#F99A4D"/>
<stop offset="0.9955" stop-color="#F58152"/>
<stop offset="1" stop-color="#F57E53"/>
</linearGradient>
<linearGradient id="paint14_linear_1057_59212" x1="897.238" y1="117.039" x2="954.145" y2="117.039" gradientUnits="userSpaceOnUse">
<stop stop-color="#FCB148"/>
<stop offset="0.0521" stop-color="#FDBA46"/>
<stop offset="0.1424" stop-color="#FFC244"/>
<stop offset="0.3183" stop-color="#FFC444"/>
<stop offset="0.4849" stop-color="#FDB946"/>
<stop offset="0.7754" stop-color="#F99C4D"/>
<stop offset="0.8658" stop-color="#F8924F"/>
<stop offset="1" stop-color="#F8924F"/>
</linearGradient>
<linearGradient id="paint15_linear_1057_59212" x1="925.952" y1="110.607" x2="928.973" y2="135.805" gradientUnits="userSpaceOnUse">
<stop stop-color="#FFDB44"/>
<stop offset="1" stop-color="#FEEF06"/>
</linearGradient>
<linearGradient id="paint16_linear_1057_59212" x1="925.822" y1="109.483" x2="926.75" y2="117.222" gradientUnits="userSpaceOnUse">
<stop stop-color="#FFDB44"/>
<stop offset="1" stop-color="#FEEF06"/>
</linearGradient>
<linearGradient id="paint17_linear_1057_59212" x1="926.688" y1="116.411" x2="925.764" y2="108.7" gradientUnits="userSpaceOnUse">
<stop offset="0.0036" stop-color="#F36F56"/>
<stop offset="0.3059" stop-color="#F99C4C"/>
<stop offset="0.545" stop-color="#FDB946"/>
<stop offset="0.6817" stop-color="#FFC444"/>
<stop offset="0.8038" stop-color="#FFC244"/>
<stop offset="0.8667" stop-color="#FEBA46"/>
<stop offset="0.916" stop-color="#FCAD49"/>
<stop offset="0.958" stop-color="#F99A4D"/>
<stop offset="0.9955" stop-color="#F58152"/>
<stop offset="1" stop-color="#F57E53"/>
</linearGradient>
<linearGradient id="paint18_linear_1057_59212" x1="894.58" y1="110.801" x2="951.488" y2="110.801" gradientUnits="userSpaceOnUse">
<stop stop-color="#FCB148"/>
<stop offset="0.0521" stop-color="#FDBA46"/>
<stop offset="0.1424" stop-color="#FFC244"/>
<stop offset="0.3183" stop-color="#FFC444"/>
<stop offset="0.4849" stop-color="#FDB946"/>
<stop offset="0.7754" stop-color="#F99C4D"/>
<stop offset="0.8658" stop-color="#F8924F"/>
<stop offset="1" stop-color="#F8924F"/>
</linearGradient>
<linearGradient id="paint19_linear_1057_59212" x1="923.295" y1="104.368" x2="926.316" y2="129.567" gradientUnits="userSpaceOnUse">
<stop stop-color="#FFDB44"/>
<stop offset="1" stop-color="#FEEF06"/>
</linearGradient>
<linearGradient id="paint20_linear_1057_59212" x1="923.165" y1="103.245" x2="924.092" y2="110.984" gradientUnits="userSpaceOnUse">
<stop stop-color="#FFDB44"/>
<stop offset="1" stop-color="#FEEF06"/>
</linearGradient>
<linearGradient id="paint21_linear_1057_59212" x1="924.031" y1="110.173" x2="923.107" y2="102.461" gradientUnits="userSpaceOnUse">
<stop offset="0.0036" stop-color="#F36F56"/>
<stop offset="0.3059" stop-color="#F99C4C"/>
<stop offset="0.545" stop-color="#FDB946"/>
<stop offset="0.6817" stop-color="#FFC444"/>
<stop offset="0.8038" stop-color="#FFC244"/>
<stop offset="0.8667" stop-color="#FEBA46"/>
<stop offset="0.916" stop-color="#FCAD49"/>
<stop offset="0.958" stop-color="#F99A4D"/>
<stop offset="0.9955" stop-color="#F58152"/>
<stop offset="1" stop-color="#F57E53"/>
</linearGradient>
<linearGradient id="paint22_linear_1057_59212" x1="887.705" y1="105.019" x2="944.612" y2="105.019" gradientUnits="userSpaceOnUse">
<stop stop-color="#FCB148"/>
<stop offset="0.0521" stop-color="#FDBA46"/>
<stop offset="0.1424" stop-color="#FFC244"/>
<stop offset="0.3183" stop-color="#FFC444"/>
<stop offset="0.4849" stop-color="#FDB946"/>
<stop offset="0.7754" stop-color="#F99C4D"/>
<stop offset="0.8658" stop-color="#F8924F"/>
<stop offset="1" stop-color="#F8924F"/>
</linearGradient>
<linearGradient id="paint23_linear_1057_59212" x1="916.419" y1="98.5867" x2="919.44" y2="123.786" gradientUnits="userSpaceOnUse">
<stop stop-color="#FFDB44"/>
<stop offset="1" stop-color="#FEEF06"/>
</linearGradient>
<linearGradient id="paint24_linear_1057_59212" x1="916.289" y1="97.4629" x2="917.217" y2="105.202" gradientUnits="userSpaceOnUse">
<stop stop-color="#FFDB44"/>
<stop offset="1" stop-color="#FEEF06"/>
</linearGradient>
<linearGradient id="paint25_linear_1057_59212" x1="917.155" y1="104.391" x2="916.231" y2="96.6794" gradientUnits="userSpaceOnUse">
<stop offset="0.0036" stop-color="#F36F56"/>
<stop offset="0.3059" stop-color="#F99C4C"/>
<stop offset="0.545" stop-color="#FDB946"/>
<stop offset="0.6817" stop-color="#FFC444"/>
<stop offset="0.8038" stop-color="#FFC244"/>
<stop offset="0.8667" stop-color="#FEBA46"/>
<stop offset="0.916" stop-color="#FCAD49"/>
<stop offset="0.958" stop-color="#F99A4D"/>
<stop offset="0.9955" stop-color="#F58152"/>
<stop offset="1" stop-color="#F57E53"/>
</linearGradient>
<linearGradient id="paint26_linear_1057_59212" x1="893.637" y1="99.2538" x2="950.544" y2="99.2538" gradientUnits="userSpaceOnUse">
<stop stop-color="#FCB148"/>
<stop offset="0.0521" stop-color="#FDBA46"/>
<stop offset="0.1424" stop-color="#FFC244"/>
<stop offset="0.3183" stop-color="#FFC444"/>
<stop offset="0.4849" stop-color="#FDB946"/>
<stop offset="0.7754" stop-color="#F99C4D"/>
<stop offset="0.8658" stop-color="#F8924F"/>
<stop offset="1" stop-color="#F8924F"/>
</linearGradient>
<linearGradient id="paint27_linear_1057_59212" x1="922.352" y1="92.8216" x2="925.373" y2="118.02" gradientUnits="userSpaceOnUse">
<stop stop-color="#FFDB44"/>
<stop offset="1" stop-color="#FEEF06"/>
</linearGradient>
<linearGradient id="paint28_linear_1057_59212" x1="922.222" y1="91.6975" x2="923.149" y2="99.4364" gradientUnits="userSpaceOnUse">
<stop stop-color="#FFDB44"/>
<stop offset="1" stop-color="#FEEF06"/>
</linearGradient>
<linearGradient id="paint29_linear_1057_59212" x1="923.088" y1="98.6258" x2="922.164" y2="90.9143" gradientUnits="userSpaceOnUse">
<stop offset="0.0036" stop-color="#F36F56"/>
<stop offset="0.3059" stop-color="#F99C4C"/>
<stop offset="0.545" stop-color="#FDB946"/>
<stop offset="0.6817" stop-color="#FFC444"/>
<stop offset="0.8038" stop-color="#FFC244"/>
<stop offset="0.8667" stop-color="#FEBA46"/>
<stop offset="0.916" stop-color="#FCAD49"/>
<stop offset="0.958" stop-color="#F99A4D"/>
<stop offset="0.9955" stop-color="#F58152"/>
<stop offset="1" stop-color="#F57E53"/>
</linearGradient>
<linearGradient id="paint30_linear_1057_59212" x1="890.551" y1="93.4723" x2="947.458" y2="93.4723" gradientUnits="userSpaceOnUse">
<stop stop-color="#FCB148"/>
<stop offset="0.0521" stop-color="#FDBA46"/>
<stop offset="0.1424" stop-color="#FFC244"/>
<stop offset="0.3183" stop-color="#FFC444"/>
<stop offset="0.4849" stop-color="#FDB946"/>
<stop offset="0.7754" stop-color="#F99C4D"/>
<stop offset="0.8658" stop-color="#F8924F"/>
<stop offset="1" stop-color="#F8924F"/>
</linearGradient>
<linearGradient id="paint31_linear_1057_59212" x1="919.266" y1="87.0399" x2="922.287" y2="112.239" gradientUnits="userSpaceOnUse">
<stop stop-color="#FFDB44"/>
<stop offset="1" stop-color="#FEEF06"/>
</linearGradient>
<linearGradient id="paint32_linear_1057_59212" x1="919.136" y1="85.9159" x2="920.063" y2="93.6548" gradientUnits="userSpaceOnUse">
<stop stop-color="#FFDB44"/>
<stop offset="1" stop-color="#FEEF06"/>
</linearGradient>
<linearGradient id="paint33_linear_1057_59212" x1="920.001" y1="92.8443" x2="919.077" y2="85.1328" gradientUnits="userSpaceOnUse">
<stop offset="0.0036" stop-color="#F36F56"/>
<stop offset="0.3059" stop-color="#F99C4C"/>
<stop offset="0.545" stop-color="#FDB946"/>
<stop offset="0.6817" stop-color="#FFC444"/>
<stop offset="0.8038" stop-color="#FFC244"/>
<stop offset="0.8667" stop-color="#FEBA46"/>
<stop offset="0.916" stop-color="#FCAD49"/>
<stop offset="0.958" stop-color="#F99A4D"/>
<stop offset="0.9955" stop-color="#F58152"/>
<stop offset="1" stop-color="#F57E53"/>
</linearGradient>
<linearGradient id="paint34_linear_1057_59212" x1="794.907" y1="134.333" x2="877.181" y2="134.333" gradientUnits="userSpaceOnUse">
<stop stop-color="#FCB148"/>
<stop offset="0.0521" stop-color="#FDBA46"/>
<stop offset="0.1424" stop-color="#FFC244"/>
<stop offset="0.3183" stop-color="#FFC444"/>
<stop offset="0.4849" stop-color="#FDB946"/>
<stop offset="0.7754" stop-color="#F99C4D"/>
<stop offset="0.8658" stop-color="#F8924F"/>
<stop offset="1" stop-color="#F8924F"/>
</linearGradient>
<linearGradient id="paint35_linear_1057_59212" x1="836.421" y1="125.033" x2="840.788" y2="161.464" gradientUnits="userSpaceOnUse">
<stop stop-color="#FFDB44"/>
<stop offset="1" stop-color="#FEEF06"/>
</linearGradient>
<linearGradient id="paint36_linear_1057_59212" x1="836.234" y1="123.408" x2="837.575" y2="134.597" gradientUnits="userSpaceOnUse">
<stop stop-color="#FFDB44"/>
<stop offset="1" stop-color="#FEEF06"/>
</linearGradient>
<linearGradient id="paint37_linear_1057_59212" x1="837.485" y1="133.425" x2="836.149" y2="122.276" gradientUnits="userSpaceOnUse">
<stop offset="0.0036" stop-color="#F36F56"/>
<stop offset="0.3059" stop-color="#F99C4C"/>
<stop offset="0.545" stop-color="#FDB946"/>
<stop offset="0.6817" stop-color="#FFC444"/>
<stop offset="0.8038" stop-color="#FFC244"/>
<stop offset="0.8667" stop-color="#FEBA46"/>
<stop offset="0.916" stop-color="#FCAD49"/>
<stop offset="0.958" stop-color="#F99A4D"/>
<stop offset="0.9955" stop-color="#F58152"/>
<stop offset="1" stop-color="#F57E53"/>
</linearGradient>
<linearGradient id="paint38_linear_1057_59212" x1="803.483" y1="125.998" x2="885.757" y2="125.998" gradientUnits="userSpaceOnUse">
<stop stop-color="#FCB148"/>
<stop offset="0.0521" stop-color="#FDBA46"/>
<stop offset="0.1424" stop-color="#FFC244"/>
<stop offset="0.3183" stop-color="#FFC444"/>
<stop offset="0.4849" stop-color="#FDB946"/>
<stop offset="0.7754" stop-color="#F99C4D"/>
<stop offset="0.8658" stop-color="#F8924F"/>
<stop offset="1" stop-color="#F8924F"/>
</linearGradient>
<linearGradient id="paint39_linear_1057_59212" x1="844.999" y1="116.698" x2="849.365" y2="153.13" gradientUnits="userSpaceOnUse">
<stop stop-color="#FFDB44"/>
<stop offset="1" stop-color="#FEEF06"/>
</linearGradient>
<linearGradient id="paint40_linear_1057_59212" x1="844.81" y1="115.074" x2="846.151" y2="126.262" gradientUnits="userSpaceOnUse">
<stop stop-color="#FFDB44"/>
<stop offset="1" stop-color="#FEEF06"/>
</linearGradient>
<linearGradient id="paint41_linear_1057_59212" x1="846.063" y1="125.09" x2="844.726" y2="113.941" gradientUnits="userSpaceOnUse">
<stop offset="0.0036" stop-color="#F36F56"/>
<stop offset="0.3059" stop-color="#F99C4C"/>
<stop offset="0.545" stop-color="#FDB946"/>
<stop offset="0.6817" stop-color="#FFC444"/>
<stop offset="0.8038" stop-color="#FFC244"/>
<stop offset="0.8667" stop-color="#FEBA46"/>
<stop offset="0.916" stop-color="#FCAD49"/>
<stop offset="0.958" stop-color="#F99A4D"/>
<stop offset="0.9955" stop-color="#F58152"/>
<stop offset="1" stop-color="#F57E53"/>
</linearGradient>
<linearGradient id="paint42_linear_1057_59212" x1="808.689" y1="117.639" x2="890.963" y2="117.639" gradientUnits="userSpaceOnUse">
<stop stop-color="#FCB148"/>
<stop offset="0.0521" stop-color="#FDBA46"/>
<stop offset="0.1424" stop-color="#FFC244"/>
<stop offset="0.3183" stop-color="#FFC444"/>
<stop offset="0.4849" stop-color="#FDB946"/>
<stop offset="0.7754" stop-color="#F99C4D"/>
<stop offset="0.8658" stop-color="#F8924F"/>
<stop offset="1" stop-color="#F8924F"/>
</linearGradient>
<linearGradient id="paint43_linear_1057_59212" x1="850.203" y1="108.339" x2="854.57" y2="144.77" gradientUnits="userSpaceOnUse">
<stop stop-color="#FFDB44"/>
<stop offset="1" stop-color="#FEEF06"/>
</linearGradient>
<linearGradient id="paint44_linear_1057_59212" x1="850.015" y1="106.714" x2="851.356" y2="117.902" gradientUnits="userSpaceOnUse">
<stop stop-color="#FFDB44"/>
<stop offset="1" stop-color="#FEEF06"/>
</linearGradient>
<linearGradient id="paint45_linear_1057_59212" x1="851.268" y1="116.731" x2="849.931" y2="105.582" gradientUnits="userSpaceOnUse">
<stop offset="0.0036" stop-color="#F36F56"/>
<stop offset="0.3059" stop-color="#F99C4C"/>
<stop offset="0.545" stop-color="#FDB946"/>
<stop offset="0.6817" stop-color="#FFC444"/>
<stop offset="0.8038" stop-color="#FFC244"/>
<stop offset="0.8667" stop-color="#FEBA46"/>
<stop offset="0.916" stop-color="#FCAD49"/>
<stop offset="0.958" stop-color="#F99A4D"/>
<stop offset="0.9955" stop-color="#F58152"/>
<stop offset="1" stop-color="#F57E53"/>
</linearGradient>
<linearGradient id="paint46_linear_1057_59212" x1="804.848" y1="108.62" x2="887.122" y2="108.62" gradientUnits="userSpaceOnUse">
<stop stop-color="#FCB148"/>
<stop offset="0.0521" stop-color="#FDBA46"/>
<stop offset="0.1424" stop-color="#FFC244"/>
<stop offset="0.3183" stop-color="#FFC444"/>
<stop offset="0.4849" stop-color="#FDB946"/>
<stop offset="0.7754" stop-color="#F99C4D"/>
<stop offset="0.8658" stop-color="#F8924F"/>
<stop offset="1" stop-color="#F8924F"/>
</linearGradient>
<linearGradient id="paint47_linear_1057_59212" x1="846.362" y1="99.32" x2="850.729" y2="135.751" gradientUnits="userSpaceOnUse">
<stop stop-color="#FFDB44"/>
<stop offset="1" stop-color="#FEEF06"/>
</linearGradient>
<linearGradient id="paint48_linear_1057_59212" x1="846.173" y1="97.6955" x2="847.514" y2="108.884" gradientUnits="userSpaceOnUse">
<stop stop-color="#FFDB44"/>
<stop offset="1" stop-color="#FEEF06"/>
</linearGradient>
<linearGradient id="paint49_linear_1057_59212" x1="847.426" y1="107.712" x2="846.089" y2="96.563" gradientUnits="userSpaceOnUse">
<stop offset="0.0036" stop-color="#F36F56"/>
<stop offset="0.3059" stop-color="#F99C4C"/>
<stop offset="0.545" stop-color="#FDB946"/>
<stop offset="0.6817" stop-color="#FFC444"/>
<stop offset="0.8038" stop-color="#FFC244"/>
<stop offset="0.8667" stop-color="#FEBA46"/>
<stop offset="0.916" stop-color="#FCAD49"/>
<stop offset="0.958" stop-color="#F99A4D"/>
<stop offset="0.9955" stop-color="#F58152"/>
<stop offset="1" stop-color="#F57E53"/>
</linearGradient>
<linearGradient id="paint50_linear_1057_59212" x1="794.907" y1="100.26" x2="877.181" y2="100.26" gradientUnits="userSpaceOnUse">
<stop stop-color="#FCB148"/>
<stop offset="0.0521" stop-color="#FDBA46"/>
<stop offset="0.1424" stop-color="#FFC244"/>
<stop offset="0.3183" stop-color="#FFC444"/>
<stop offset="0.4849" stop-color="#FDB946"/>
<stop offset="0.7754" stop-color="#F99C4D"/>
<stop offset="0.8658" stop-color="#F8924F"/>
<stop offset="1" stop-color="#F8924F"/>
</linearGradient>
<linearGradient id="paint51_linear_1057_59212" x1="836.421" y1="90.9609" x2="840.788" y2="127.392" gradientUnits="userSpaceOnUse">
<stop stop-color="#FFDB44"/>
<stop offset="1" stop-color="#FEEF06"/>
</linearGradient>
<linearGradient id="paint52_linear_1057_59212" x1="836.234" y1="89.3361" x2="837.575" y2="100.525" gradientUnits="userSpaceOnUse">
<stop stop-color="#FFDB44"/>
<stop offset="1" stop-color="#FEEF06"/>
</linearGradient>
<linearGradient id="paint53_linear_1057_59212" x1="837.485" y1="99.3525" x2="836.149" y2="88.2036" gradientUnits="userSpaceOnUse">
<stop offset="0.0036" stop-color="#F36F56"/>
<stop offset="0.3059" stop-color="#F99C4C"/>
<stop offset="0.545" stop-color="#FDB946"/>
<stop offset="0.6817" stop-color="#FFC444"/>
<stop offset="0.8038" stop-color="#FFC244"/>
<stop offset="0.8667" stop-color="#FEBA46"/>
<stop offset="0.916" stop-color="#FCAD49"/>
<stop offset="0.958" stop-color="#F99A4D"/>
<stop offset="0.9955" stop-color="#F58152"/>
<stop offset="1" stop-color="#F57E53"/>
</linearGradient>
<linearGradient id="paint54_linear_1057_59212" x1="803.483" y1="91.9255" x2="885.757" y2="91.9255" gradientUnits="userSpaceOnUse">
<stop stop-color="#FCB148"/>
<stop offset="0.0521" stop-color="#FDBA46"/>
<stop offset="0.1424" stop-color="#FFC244"/>
<stop offset="0.3183" stop-color="#FFC444"/>
<stop offset="0.4849" stop-color="#FDB946"/>
<stop offset="0.7754" stop-color="#F99C4D"/>
<stop offset="0.8658" stop-color="#F8924F"/>
<stop offset="1" stop-color="#F8924F"/>
</linearGradient>
<linearGradient id="paint55_linear_1057_59212" x1="844.999" y1="82.6262" x2="849.365" y2="119.058" gradientUnits="userSpaceOnUse">
<stop stop-color="#FFDB44"/>
<stop offset="1" stop-color="#FEEF06"/>
</linearGradient>
<linearGradient id="paint56_linear_1057_59212" x1="844.81" y1="81.0011" x2="846.151" y2="92.1898" gradientUnits="userSpaceOnUse">
<stop stop-color="#FFDB44"/>
<stop offset="1" stop-color="#FEEF06"/>
</linearGradient>
<linearGradient id="paint57_linear_1057_59212" x1="846.063" y1="91.0178" x2="844.726" y2="79.8689" gradientUnits="userSpaceOnUse">
<stop offset="0.0036" stop-color="#F36F56"/>
<stop offset="0.3059" stop-color="#F99C4C"/>
<stop offset="0.545" stop-color="#FDB946"/>
<stop offset="0.6817" stop-color="#FFC444"/>
<stop offset="0.8038" stop-color="#FFC244"/>
<stop offset="0.8667" stop-color="#FEBA46"/>
<stop offset="0.916" stop-color="#FCAD49"/>
<stop offset="0.958" stop-color="#F99A4D"/>
<stop offset="0.9955" stop-color="#F58152"/>
<stop offset="1" stop-color="#F57E53"/>
</linearGradient>
<linearGradient id="paint58_linear_1057_59212" x1="799.023" y1="83.5666" x2="881.297" y2="83.5666" gradientUnits="userSpaceOnUse">
<stop stop-color="#FCB148"/>
<stop offset="0.0521" stop-color="#FDBA46"/>
<stop offset="0.1424" stop-color="#FFC244"/>
<stop offset="0.3183" stop-color="#FFC444"/>
<stop offset="0.4849" stop-color="#FDB946"/>
<stop offset="0.7754" stop-color="#F99C4D"/>
<stop offset="0.8658" stop-color="#F8924F"/>
<stop offset="1" stop-color="#F8924F"/>
</linearGradient>
<linearGradient id="paint59_linear_1057_59212" x1="840.538" y1="74.267" x2="844.905" y2="110.698" gradientUnits="userSpaceOnUse">
<stop stop-color="#FFDB44"/>
<stop offset="1" stop-color="#FEEF06"/>
</linearGradient>
<linearGradient id="paint60_linear_1057_59212" x1="840.35" y1="72.6421" x2="841.691" y2="83.8307" gradientUnits="userSpaceOnUse">
<stop stop-color="#FFDB44"/>
<stop offset="1" stop-color="#FEEF06"/>
</linearGradient>
<linearGradient id="paint61_linear_1057_59212" x1="841.6" y1="82.6586" x2="840.264" y2="71.5097" gradientUnits="userSpaceOnUse">
<stop offset="0.0036" stop-color="#F36F56"/>
<stop offset="0.3059" stop-color="#F99C4C"/>
<stop offset="0.545" stop-color="#FDB946"/>
<stop offset="0.6817" stop-color="#FFC444"/>
<stop offset="0.8038" stop-color="#FFC244"/>
<stop offset="0.8667" stop-color="#FEBA46"/>
<stop offset="0.916" stop-color="#FCAD49"/>
<stop offset="0.958" stop-color="#F99A4D"/>
<stop offset="0.9955" stop-color="#F58152"/>
<stop offset="1" stop-color="#F57E53"/>
</linearGradient>
<linearGradient id="paint62_linear_1057_59212" x1="964.224" y1="24.1344" x2="898.705" y2="65.4567" gradientUnits="userSpaceOnUse">
<stop stop-color="#FFBD17"/>
<stop offset="1" stop-color="#FF9C17"/>
</linearGradient>
<linearGradient id="paint63_linear_1057_59212" x1="936.887" y1="10.5549" x2="900.501" y2="90.5569" gradientUnits="userSpaceOnUse">
<stop stop-color="#FFDB44"/>
<stop offset="1" stop-color="#FEEF06"/>
</linearGradient>
<linearGradient id="paint64_linear_1057_59212" x1="967.211" y1="23.5677" x2="904.682" y2="63.0021" gradientUnits="userSpaceOnUse">
<stop stop-color="#FFBD17"/>
<stop offset="1" stop-color="#FF9C17"/>
</linearGradient>
<linearGradient id="paint65_linear_1057_59212" x1="921.278" y1="12.8723" x2="921.278" y2="78.3144" gradientUnits="userSpaceOnUse">
<stop stop-color="#FFD14F"/>
<stop offset="1" stop-color="#FFBC00"/>
</linearGradient>
<linearGradient id="paint66_linear_1057_59212" x1="934.861" y1="24.465" x2="890.78" y2="41.09" gradientUnits="userSpaceOnUse">
<stop stop-color="#FFBD17"/>
<stop offset="1" stop-color="#FF9C17"/>
</linearGradient>
<clipPath id="clip0_1057_59212">
<rect x="11" y="7" width="944" height="124" rx="12" fill="white"/>
</clipPath>
</defs>
</svg>
