<svg width="24" height="24" viewBox="0 0 24 24" fill="none" xmlns="http://www.w3.org/2000/svg">
<g clip-path="url(#clip0_3296_49314)">
<path d="M12 20.4844C16.6599 20.4844 20.4375 16.6858 20.4375 12C20.4375 7.31421 16.6599 3.51562 12 3.51562C7.3401 3.51562 3.5625 7.31421 3.5625 12C3.5625 16.6858 7.3401 20.4844 12 20.4844Z" fill="url(#paint0_linear_3296_49314)"/>
<path d="M20.4375 12C20.4375 7.34728 16.6527 3.51562 12 3.51562V20.4844C16.6527 20.4844 20.4375 16.6527 20.4375 12Z" fill="url(#paint1_linear_3296_49314)"/>
<path d="M16.091 2.22951C15.2059 1.85596 14.2735 1.51809 13.319 1.39931C12.9338 1.35126 12.6605 1.00035 12.7086 0.614479C12.756 0.229963 13.1069 -0.0364741 13.4934 0.00407275C14.5749 0.138651 15.6331 0.510182 16.6376 0.933135C16.9953 1.08421 17.1629 1.4962 17.0125 1.8546C16.8624 2.21034 16.4528 2.37984 16.091 2.22951Z" fill="#FABE2C"/>
<path d="M20.4031 5.57852C19.8222 4.81291 19.1397 4.13037 18.3741 3.54949C18.0644 3.31465 18.004 2.87313 18.2388 2.56413C18.4743 2.25377 18.9145 2.19542 19.2242 2.42885C20.0914 3.08735 20.8653 3.86121 21.5238 4.72845C21.7586 5.03745 21.6982 5.47896 21.3885 5.71381C21.0795 5.94752 20.6387 5.88879 20.4031 5.57852Z" fill="#FABE2C"/>
<path d="M22.5988 10.6814C22.48 9.72694 22.0967 8.74758 21.7231 7.86249C21.5728 7.50408 21.7403 7.09205 22.098 6.94102C22.4558 6.79271 22.8685 6.95818 23.0195 7.31593C23.4425 8.3205 23.8595 9.42549 23.994 10.5069C24.0421 10.8928 23.7688 11.2437 23.3836 11.2918C22.9822 11.3385 22.6449 11.0543 22.5988 10.6814Z" fill="#FABE2C"/>
<path d="M6.98779 1.8546C6.83741 1.49619 7.00494 1.08416 7.36269 0.933127C8.36727 0.510174 9.42538 0.138643 10.5068 0.00406451C10.8914 -0.0364355 11.2436 0.229955 11.2917 0.614471C11.3397 1.00035 11.0664 1.35125 10.6813 1.3993C9.72683 1.51808 8.79435 1.85596 7.90926 2.2295C7.54832 2.37946 7.13821 2.21103 6.98779 1.8546Z" fill="#FED843"/>
<path d="M16.2188 8.48438C15.8301 8.48438 15.5156 8.79886 15.5156 9.1875V11.2969H14.1094V9.1875C14.1094 8.79886 13.7949 8.48438 13.4062 8.48438C13.0176 8.48438 12.7031 8.79886 12.7031 9.1875V12C12.7031 12.3886 13.0176 12.7031 13.4062 12.7031H15.5156V14.8125C15.5156 15.2011 15.8301 15.5156 16.2188 15.5156C16.6074 15.5156 16.9219 15.2011 16.9219 14.8125V9.1875C16.9219 8.79886 16.6074 8.48438 16.2188 8.48438Z" fill="#D5E8FE"/>
<path d="M9.60909 13.2655C10.361 12.7018 11.2969 12 11.2969 10.5938C11.2969 9.43059 10.3507 8.48438 9.1875 8.48438C8.02434 8.48438 7.07812 9.43059 7.07812 10.5938C7.07812 10.9824 7.39261 11.2969 7.78125 11.2969C8.16989 11.2969 8.48438 10.9824 8.48438 10.5938C8.48438 10.2058 8.79956 9.89062 9.1875 9.89062C9.57544 9.89062 9.89062 10.2058 9.89062 10.5938C9.89062 11.2639 9.48412 11.6017 8.76591 12.1408C8.01403 12.7045 7.07812 13.4062 7.07812 14.8125C7.07812 15.2011 7.39261 15.5156 7.78125 15.5156H10.5938C10.9824 15.5156 11.2969 15.2011 11.2969 14.8125C11.2969 14.4239 10.9824 14.1094 10.5938 14.1094H8.70764C8.89594 13.8281 9.19256 13.5781 9.60909 13.2655Z" fill="#EDF5FF"/>
<path d="M23.3841 12.7083C22.9968 12.665 22.6466 12.9335 22.5992 13.3187C21.9428 18.5798 17.3098 22.5935 12 22.5935C6.18412 22.5935 1.40625 17.8156 1.40625 11.9997C1.40625 9.43644 2.39039 6.95586 4.04522 5.05067V5.28345C4.04522 5.67209 4.3597 5.98658 4.74834 5.98658C5.13698 5.98658 5.45147 5.67209 5.45147 5.28345V3.29492C5.45147 2.90628 5.13698 2.5918 4.74834 2.5918H2.75911C2.37047 2.5918 2.05598 2.90628 2.05598 3.29492C2.05598 3.68356 2.37047 3.99805 2.75911 3.99805H3.09773C1.15013 6.17572 0 9.03505 0 11.9997C0 18.5908 5.40891 23.9997 12 23.9997C18.0178 23.9997 23.2509 19.456 23.9945 13.4931C24.0426 13.108 23.7693 12.7564 23.3841 12.7083Z" fill="#FED843"/>
<path d="M23.9945 13.4935C24.0426 13.1083 23.7693 12.7567 23.3841 12.7087C22.9968 12.6654 22.6467 12.9339 22.5993 13.3191C21.9428 18.5802 17.3098 22.5938 12 22.5938V24.0001C18.0178 24.0001 23.2509 19.4563 23.9945 13.4935Z" fill="#FABE2C"/>
</g>
<defs>
<linearGradient id="paint0_linear_3296_49314" x1="9.60937" y1="24.4002" x2="23.897" y2="16.6737" gradientUnits="userSpaceOnUse">
<stop stop-color="#770000"/>
<stop offset="0.51" stop-color="#BF0808"/>
<stop offset="1" stop-color="#770000"/>
</linearGradient>
<linearGradient id="paint1_linear_3296_49314" x1="15.0234" y1="24.4002" x2="23.6274" y2="22.0738" gradientUnits="userSpaceOnUse">
<stop stop-color="#770000"/>
<stop offset="0.51" stop-color="#BF0808"/>
<stop offset="1" stop-color="#770000"/>
</linearGradient>
<clipPath id="clip0_3296_49314">
<rect width="24" height="24" fill="white"/>
</clipPath>
</defs>
</svg>
