<svg width="20" height="20" viewBox="0 0 20 20" fill="none" xmlns="http://www.w3.org/2000/svg">
<path d="M5.16428 17.4452L12.7131 10.3405L16.2655 13.8929M5.16428 17.4452H14.0452C15.5167 17.4452 16.7095 16.2524 16.7095 14.781V10.3405M5.16428 17.4452C3.69284 17.4452 2.5 16.2524 2.5 14.781V5.90001C2.5 4.42856 3.69284 3.23572 5.16428 3.23572H10.9369M15.8214 7.52382L15.8214 5.01191M15.8214 5.01191L15.8214 2.5M15.8214 5.01191L13.3095 5.01191M15.8214 5.01191L18.3333 5.01191M7.82857 7.23215C7.82857 7.96787 7.23215 8.56429 6.49643 8.56429C5.7607 8.56429 5.16428 7.96787 5.16428 7.23215C5.16428 6.49643 5.7607 5.90001 6.49643 5.90001C7.23215 5.90001 7.82857 6.49643 7.82857 7.23215Z" stroke="#555555" stroke-width="1.5" stroke-linecap="round" stroke-linejoin="round"/>
</svg>
