<svg width="24" height="24" viewBox="0 0 24 24" fill="none" xmlns="http://www.w3.org/2000/svg">
<path d="M12.793 3.79298C13.1591 3.42686 13.7381 3.40427 14.1309 3.72462L14.207 3.79298L21.707 11.293C22.0976 11.6835 22.0976 12.3165 21.707 12.707L14.207 20.207C13.8165 20.5976 13.1835 20.5976 12.793 20.207C12.4024 19.8165 12.4024 19.1835 12.793 18.793L18.5859 13H3C2.44772 13 2 12.5523 2 12C2 11.4477 2.44772 11 3 11H18.5859L12.793 5.20704L12.7246 5.13087C12.4043 4.7381 12.4269 4.15909 12.793 3.79298Z" fill="#555555"/>
</svg>