<svg width="24" height="24" viewBox="0 0 24 24" fill="none" xmlns="http://www.w3.org/2000/svg">
<path d="M11.9996 2.24219C12.8537 2.24223 13.6339 2.72578 14.0143 3.49023L15.9732 7.39941L20.3141 8.02051H20.315C21.1699 8.14032 21.8808 8.73884 22.1451 9.56055L22.1891 9.71582C22.3791 10.4932 22.1407 11.3176 21.5563 11.876L21.5572 11.877L18.4381 14.8652L19.1793 19.1123H19.1783C19.3179 19.9032 19.0259 20.7041 18.4195 21.2188L18.2936 21.3184C17.6026 21.825 16.6844 21.8944 15.9244 21.499V21.5L11.9986 19.4717L8.07481 21.499L8.07384 21.498C7.3615 21.8684 6.51036 21.8309 5.83751 21.4072L5.70567 21.3174C5.0572 20.8419 4.71524 20.0594 4.79844 19.2676L4.81993 19.1084L5.56016 14.8652L2.442 11.877L2.44298 11.876C1.81928 11.2803 1.58999 10.3817 1.85411 9.56055L1.9088 9.40918C2.18783 8.71563 2.794 8.20523 3.52501 8.04883L3.68419 8.02051L8.02305 7.39941L9.98399 3.49023C10.3644 2.72557 11.1454 2.24219 11.9996 2.24219ZM11.9996 3.74219C11.7144 3.74219 11.4535 3.90368 11.3268 4.15918L11.3258 4.16211L9.18907 8.42285C9.07896 8.6425 8.86879 8.7952 8.62559 8.83008L3.89415 9.50586H3.89219C3.64269 9.54083 3.43021 9.69851 3.32188 9.9209L3.28184 10.0195C3.20468 10.2594 3.25373 10.5195 3.40684 10.7139L3.47813 10.793L3.48009 10.7939L6.88731 14.0596L6.94981 14.1279C7.08582 14.2951 7.1445 14.5142 7.10704 14.7295L6.29747 19.3691V19.3711C6.24748 19.6527 6.36175 19.9382 6.59239 20.1074L6.68223 20.1641C6.89891 20.28 7.16151 20.2836 7.38341 20.168L7.38634 20.166L11.6549 17.9609L11.7379 17.9248C11.9345 17.8516 12.1545 17.8635 12.3434 17.9609L16.6129 20.167L16.6158 20.1689L16.7125 20.2109C16.9444 20.2929 17.2049 20.2565 17.4068 20.1084L17.4879 20.04C17.6636 19.8682 17.7455 19.6185 17.7018 19.3721V19.3701L16.8922 14.7295C16.8494 14.4835 16.9316 14.2324 17.1119 14.0596L20.5191 10.7939L20.5211 10.793L20.5924 10.7139C20.7237 10.5472 20.7786 10.3322 20.7428 10.123L20.7174 10.0195C20.6292 9.7456 20.392 9.54586 20.107 9.50586H20.1051L15.3736 8.83008C15.1608 8.79962 14.9726 8.67954 14.8551 8.50293L14.8092 8.42285L12.6734 4.16211L12.6725 4.15918C12.5458 3.90366 12.2848 3.74223 11.9996 3.74219Z" fill="currentColor"/>
</svg>
