<svg width="16" height="16" viewBox="0 0 16 16" fill="none" xmlns="http://www.w3.org/2000/svg">
<path fill-rule="evenodd" clip-rule="evenodd" d="M7.54156 1.43149C7.37394 1.50008 6.15489 2.1106 4.83679 2.78285C3.87926 3.26623 2.94183 3.74599 2.40715 4.01963C2.20581 4.12267 2.06158 4.19648 1.99489 4.23026C1.74346 4.36745 1.51489 4.5458 1.44632 4.66928C1.34727 4.84077 1.33203 5.36211 1.33203 7.99624C1.33203 10.6304 1.34727 11.1517 1.44632 11.3232C1.51489 11.4467 1.74346 11.625 1.99489 11.7622C2.06158 11.796 2.2058 11.8698 2.40713 11.9729C2.94181 12.2465 3.87925 12.7263 4.83679 13.2096C6.15489 13.8819 7.38917 14.4924 7.57965 14.5679C7.8006 14.6502 8.00632 14.6845 8.15108 14.657C8.2806 14.6365 9.72822 13.9299 11.3816 13.093C13.9873 11.7622 14.3987 11.529 14.5206 11.3232C14.6577 11.0968 14.6654 10.8842 14.6654 7.99624C14.6654 5.10144 14.6577 4.89565 14.5206 4.66928C14.4063 4.47721 14.1625 4.31943 13.3244 3.88727C12.8389 3.64316 11.8315 3.13124 10.894 2.65481C10.6987 2.55555 10.5064 2.45784 10.3225 2.36441C9.25584 1.82249 8.25775 1.36289 8.11298 1.34231C7.93775 1.31487 7.73965 1.34917 7.54156 1.43149ZM7.11742 2.73484C6.42873 3.09155 6.24508 3.21502 6.3216 3.2699C6.37516 3.31106 7.52299 3.89414 8.86977 4.56639L11.3185 5.78742C11.9153 5.49245 12.3286 5.28666 12.6193 5.12889C13.1014 4.8888 13.1397 4.84764 13.0019 4.7859C12.9178 4.74474 11.7853 4.17539 10.4767 3.51685C9.16821 2.85832 8.0816 2.30954 8.05864 2.29582C8.03569 2.28896 7.60716 2.48789 7.11742 2.73484ZM3.99534 4.31258C3.42143 4.60069 2.96995 4.86136 3.00056 4.88194C3.03116 4.90938 4.17134 5.49245 5.54108 6.17157C6.91082 6.85754 8.05099 7.41318 8.08925 7.41318C8.11986 7.41318 8.6096 7.17309 9.17586 6.88498C9.74977 6.59001 10.1859 6.32934 10.1553 6.30876C10.1247 6.28132 9.00751 5.71882 7.68369 5.06029C6.35986 4.3949 5.21969 3.83926 5.15847 3.81868C5.09725 3.7981 4.56925 4.01761 3.99534 4.31258ZM2.36543 10.8568L2.34247 8.2775C2.33482 6.85754 2.34247 5.69824 2.36543 5.69824C2.38838 5.69824 3.55916 6.27446 7.53829 8.27064L7.53064 10.8293C7.53064 12.8255 7.50769 13.3811 7.43882 13.3811C7.38525 13.3811 6.22212 12.8118 2.36543 10.8568ZM12.7341 6.16471L11.8541 6.62431C11.8159 9.24472 11.7929 9.45051 11.6781 9.56027C11.6093 9.62887 11.4409 9.68375 11.3185 9.68375C11.1884 9.68375 11.0277 9.62887 10.9588 9.56027C10.844 9.45051 10.8211 9.28588 10.8211 8.32552C10.8211 7.70814 10.7981 7.20738 10.7599 7.20738C10.7293 7.20738 10.2319 7.44747 9.65795 7.74244L8.60195 8.27064C8.60195 11.7279 8.57899 12.8735 8.54838 13.0587C8.50247 13.2988 8.51012 13.3811 8.57899 13.3811C8.63256 13.3811 9.79569 12.8186 11.1654 12.1327L13.6447 10.8773C13.6524 6.8644 13.6447 5.69824 13.6294 5.69824C13.6261 5.70125 13.5462 5.74251 13.4169 5.8093C13.2514 5.89482 13.0048 6.02219 12.7341 6.16471Z" fill="#461B02"/>
</svg>
