<svg width="25" height="24" viewBox="0 0 25 24" fill="none" xmlns="http://www.w3.org/2000/svg">
<path d="M21.75 9.79688H3.25V19.0049C3.25024 19.691 3.80822 20.25 4.5 20.25H20.5C21.1918 20.25 21.7498 19.691 21.75 19.0049V9.79688ZM11.8604 14.2734H13.3604V12.7803H11.8604V14.2734ZM6.11035 14.2734H7.61035V12.7803H6.11035V14.2734ZM21.75 7.03125C21.75 6.34491 21.1919 5.78516 20.5 5.78516H4.5C3.80807 5.78516 3.25 6.34491 3.25 7.03125V8.29688H21.75V7.03125ZM9.11035 14.5244C9.11034 15.2156 8.54896 15.7732 7.86035 15.7734H5.86035C5.17157 15.7734 4.61036 15.2157 4.61035 14.5244V12.5293C4.61035 11.838 5.17157 11.2803 5.86035 11.2803H7.86035C8.54897 11.2805 9.11035 11.8381 9.11035 12.5293V14.5244ZM14.8604 14.5244C14.8603 15.2156 14.299 15.7733 13.6104 15.7734H11.6104C10.9216 15.7734 10.3604 15.2157 10.3604 14.5244V12.5293C10.3604 11.838 10.9216 11.2803 11.6104 11.2803H13.6104C14.299 11.2804 14.8604 11.8381 14.8604 12.5293V14.5244ZM23.25 19.0049C23.2498 20.5226 22.0171 21.75 20.5 21.75H4.5C2.98294 21.75 1.75024 20.5226 1.75 19.0049V7.03125C1.75 5.51335 2.98279 4.28516 4.5 4.28516H5.80957V3C5.80957 2.58593 6.14555 2.25023 6.55957 2.25C6.97378 2.25 7.30957 2.58579 7.30957 3V4.28516H17.9404V3C17.9404 2.58579 18.2762 2.25 18.6904 2.25C19.1044 2.25024 19.4404 2.58594 19.4404 3V4.28516H20.5C22.0172 4.28516 23.25 5.51335 23.25 7.03125V19.0049Z" fill="#555555"/>
</svg>
