<svg width="16" height="16" viewBox="0 0 16 16" fill="none" xmlns="http://www.w3.org/2000/svg">
<path d="M6.66255 4.23112C6.65399 4.14438 6.63222 4.05932 6.59875 3.97852C6.55411 3.87075 6.48913 3.77252 6.40669 3.6901L6.40474 3.6888L5.48352 2.75977C5.40116 2.67728 5.30335 2.61234 5.19575 2.56771C5.0882 2.52313 4.97297 2.5 4.85656 2.5C4.74015 2.5 4.62493 2.52312 4.51737 2.56771C4.40976 2.61235 4.31197 2.67791 4.22961 2.76042L4.22766 2.76172L2.55643 4.41927L2.55708 4.41992C2.5254 4.45143 2.50569 4.49318 2.50109 4.53776C2.49662 4.58172 2.50709 4.62575 2.53104 4.66276L2.9731 5.31185C5.07305 8.31242 7.68154 10.9221 10.6801 13.0234L11.3286 13.4661L11.3305 13.4674L11.3592 13.4831C11.3894 13.4966 11.4229 13.5025 11.4562 13.4993C11.4893 13.4962 11.5209 13.4843 11.548 13.4655L11.5734 13.444L13.2329 11.7839L13.2928 11.7188C13.3494 11.651 13.3958 11.5752 13.4301 11.4935C13.476 11.3845 13.4998 11.2673 13.4998 11.1491C13.4998 11.0308 13.476 10.9137 13.4301 10.8047C13.3843 10.6957 13.3173 10.597 13.2329 10.5143L12.2856 9.56641C12.2033 9.48394 12.1054 9.41832 11.9978 9.3737C11.9171 9.34022 11.8319 9.31908 11.7452 9.31055L11.6586 9.30599C11.5422 9.30599 11.4264 9.32906 11.3188 9.3737C11.2112 9.41834 11.1134 9.48392 11.031 9.56641L11.0291 9.56836L10.4047 10.1862C10.2424 10.3467 9.99183 10.3772 9.79602 10.2598C8.11913 9.25423 6.71528 7.85125 5.70747 6.17513C5.58871 5.97755 5.62046 5.72468 5.7843 5.5625L6.40799 4.94466C6.48964 4.8626 6.55441 4.76523 6.59875 4.6582C6.64337 4.55046 6.66646 4.43501 6.66646 4.31836L6.66255 4.23112ZM7.65734 4.50391C7.63915 4.68828 7.59374 4.86923 7.52258 5.04102C7.42766 5.27015 7.28848 5.47832 7.11307 5.65365L7.11177 5.6556L6.77258 5.99023C7.60696 7.27198 8.70021 8.36441 9.98286 9.19661L10.3234 8.86003L10.4607 8.73503C10.6039 8.61737 10.7642 8.52178 10.936 8.45052C11.1651 8.3555 11.4107 8.30599 11.6586 8.30599L11.8435 8.3151C12.0281 8.3333 12.2094 8.37922 12.3813 8.45052C12.6102 8.54552 12.8182 8.68462 12.9933 8.86003L13.9321 9.79948L14.0597 9.9375C14.1802 10.0815 14.2789 10.2429 14.352 10.4167C14.4495 10.6484 14.4998 10.8977 14.4998 11.1491C14.4998 11.4004 14.4494 11.6492 14.352 11.8809C14.2552 12.111 14.1133 12.3191 13.9353 12.4941L13.936 12.4948L12.2771 14.1549L12.2765 14.1543C12.0809 14.3479 11.8246 14.4687 11.5506 14.4948C11.2766 14.5208 11.0018 14.4514 10.7732 14.2982C7.17301 11.9068 4.08722 8.8182 1.69771 5.21549L1.69706 5.21484C1.5454 4.98476 1.47804 4.70899 1.5063 4.4349C1.53457 4.1608 1.65657 3.90457 1.852 3.71029L3.52323 2.05208C3.69809 1.87734 3.90556 1.73861 4.13391 1.64388C4.36297 1.54886 4.60859 1.5 4.85656 1.5C5.10455 1.5 5.35015 1.54886 5.57922 1.64388C5.7511 1.71518 5.91125 1.8113 6.05448 1.92904L6.19185 2.05404L6.1925 2.05469L7.11503 2.98438C7.28986 3.15944 7.42787 3.36711 7.52258 3.5957C7.61749 3.82481 7.66645 4.07036 7.66646 4.31836L7.65734 4.50391Z" fill="currentColor"/>
</svg>
