<svg width="20" height="20" viewBox="0 0 20 20" fill="none" xmlns="http://www.w3.org/2000/svg">
<path d="M5.57723 14.433C5.51813 14.3717 5.4712 14.2987 5.43916 14.2181C5.40712 14.1376 5.39062 14.0511 5.39062 13.9637C5.39062 13.8764 5.40712 13.7899 5.43916 13.7094C5.4712 13.6288 5.51813 13.5558 5.57723 13.4945L8.97872 9.99721L5.57723 6.69487C5.51891 6.63904 5.47231 6.57099 5.44042 6.49507C5.40853 6.41915 5.39205 6.33705 5.39205 6.25403C5.39205 6.17102 5.40853 6.08892 5.44042 6.013C5.47231 5.93708 5.51891 5.86903 5.57723 5.8132C5.70155 5.69459 5.86329 5.62891 6.03101 5.62891C6.19874 5.62891 6.36047 5.69459 6.48479 5.8132L9.88814 9.11554L13.2952 5.81418C13.4198 5.69543 13.5819 5.62968 13.7499 5.62968C13.918 5.62968 14.08 5.69543 14.2046 5.81418C14.2637 5.86984 14.3108 5.93811 14.3429 6.01446C14.375 6.09081 14.3912 6.17349 14.3906 6.25697C14.3907 6.34037 14.3741 6.42284 14.3421 6.4991C14.3101 6.57536 14.2632 6.64372 14.2046 6.69977L10.792 9.99917L14.2009 13.4925C14.2596 13.5538 14.3062 13.6268 14.338 13.7071C14.3698 13.7875 14.3862 13.8737 14.3862 13.9608C14.3862 14.0479 14.3698 14.1341 14.338 14.2145C14.3062 14.2948 14.2596 14.3678 14.2009 14.4291C14.0793 14.5541 13.9161 14.6241 13.7462 14.6241C13.5763 14.6241 13.4131 14.5541 13.2915 14.4291L9.88814 10.9337L6.48479 14.433C6.36379 14.5579 6.20134 14.6282 6.03194 14.6289C5.8619 14.6287 5.69869 14.5584 5.57723 14.433Z" fill="currentColor"/>
</svg>
