<svg width="16" height="16" viewBox="0 0 16 16" fill="none" xmlns="http://www.w3.org/2000/svg">
<path fill-rule="evenodd" clip-rule="evenodd" d="M1.33334 7.99947C1.33357 4.81917 3.58032 2.08191 6.69957 1.46167C9.81882 0.841434 12.9418 2.51097 14.1587 5.44925C15.3756 8.38754 14.3474 11.7762 11.703 13.543C9.05853 15.3097 5.53433 14.9624 3.28562 12.7135C2.03548 11.4632 1.33322 9.76752 1.33334 7.99947Z" stroke="currentColor" stroke-linecap="round" stroke-linejoin="round"/>
<path d="M5.14664 10.1449C4.95134 10.3402 4.95128 10.6568 5.1465 10.8521C5.34173 11.0474 5.65831 11.0474 5.85361 10.8522L5.14664 10.1449ZM8.35336 8.35338C8.54866 8.15816 8.54872 7.84158 8.3535 7.64628C8.15827 7.45098 7.84169 7.45092 7.64639 7.64614L8.35336 8.35338ZM7.64622 7.64631C7.45103 7.84165 7.45115 8.15823 7.64649 8.35342C7.84182 8.54861 8.1584 8.54848 8.35359 8.35315L7.64622 7.64631ZM10.8524 5.85244C11.0476 5.65711 11.0475 5.34052 10.8521 5.14534C10.6568 4.95015 10.3402 4.95027 10.145 5.1456L10.8524 5.85244ZM8.35339 7.64614C8.15809 7.45092 7.84151 7.45098 7.64628 7.64628C7.45106 7.84158 7.45112 8.15816 7.64642 8.35338L8.35339 7.64614ZM10.1462 10.8522C10.3415 11.0474 10.6581 11.0474 10.8533 10.8521C11.0485 10.6568 11.0484 10.3402 10.8531 10.1449L10.1462 10.8522ZM7.64626 8.35322C7.84148 8.54852 8.15806 8.54858 8.35336 8.35335C8.54866 8.15813 8.54872 7.84154 8.3535 7.64624L7.64626 8.35322ZM5.85374 5.14554C5.65852 4.95024 5.34194 4.95018 5.14664 5.1454C4.95134 5.34063 4.95128 5.65721 5.1465 5.85251L5.85374 5.14554ZM5.50012 10.4986L5.85361 10.8522L8.35336 8.35338L7.99988 7.99976L7.64639 7.64614L5.14664 10.1449L5.50012 10.4986ZM7.9999 7.99973L8.35359 8.35315L10.8524 5.85244L10.4987 5.49902L10.145 5.1456L7.64622 7.64631L7.9999 7.99973ZM7.9999 7.99976L7.64642 8.35338L10.1462 10.8522L10.4997 10.4986L10.8531 10.1449L8.35339 7.64614L7.9999 7.99976ZM7.99988 7.99973L8.3535 7.64624L5.85374 5.14554L5.50012 5.49902L5.1465 5.85251L7.64626 8.35322L7.99988 7.99973Z" fill="currentColor"/>
</svg>
