<svg width="16" height="17" viewBox="0 0 16 17" fill="none" xmlns="http://www.w3.org/2000/svg">
<path d="M6.66255 4.73081C6.65399 4.64407 6.63222 4.55902 6.59875 4.47821C6.55411 4.37045 6.48913 4.27221 6.40669 4.1898L6.40474 4.1885L5.48352 3.25946C5.40116 3.17697 5.30335 3.11203 5.19575 3.0674C5.0882 3.02282 4.97297 2.99969 4.85656 2.99969C4.74015 2.9997 4.62493 3.02281 4.51737 3.0674C4.40976 3.11204 4.31197 3.17761 4.22961 3.26011L4.22766 3.26141L2.55643 4.91897L2.55708 4.91962C2.5254 4.95113 2.50569 4.99287 2.50109 5.03746C2.49662 5.08142 2.50709 5.12544 2.53104 5.16246L2.9731 5.81154C5.07305 8.81211 7.68154 11.4218 10.6801 13.5231L11.3286 13.9658L11.3305 13.9671L11.3592 13.9828C11.3894 13.9963 11.4229 14.0022 11.4562 13.999C11.4893 13.9959 11.5209 13.984 11.548 13.9652L11.5734 13.9437L13.2329 12.2835L13.2928 12.2184C13.3494 12.1507 13.3958 12.0749 13.4301 11.9932C13.476 11.8842 13.4998 11.767 13.4998 11.6488C13.4998 11.5305 13.476 11.4134 13.4301 11.3044C13.3843 11.1954 13.3173 11.0967 13.2329 11.014L12.2856 10.0661C12.2033 9.98364 12.1054 9.91802 11.9978 9.87339C11.9171 9.83991 11.8319 9.81877 11.7452 9.81024L11.6586 9.80568C11.5422 9.80568 11.4264 9.82875 11.3188 9.87339C11.2112 9.91803 11.1134 9.98362 11.031 10.0661L11.0291 10.0681L10.4047 10.6859C10.2424 10.8464 9.99183 10.8769 9.79602 10.7595C8.11913 9.75392 6.71528 8.35095 5.70747 6.67483C5.58871 6.47724 5.62046 6.22437 5.7843 6.06219L6.40799 5.44436C6.48964 5.3623 6.55441 5.26492 6.59875 5.1579C6.64337 5.05015 6.66646 4.9347 6.66646 4.81805L6.66255 4.73081ZM7.65734 5.0036C7.63915 5.18798 7.59374 5.36893 7.52258 5.54071C7.42766 5.76984 7.28848 5.97802 7.11307 6.15334L7.11177 6.15529L6.77258 6.48993C7.60696 7.77168 8.70021 8.86411 9.98286 9.69631L10.3234 9.35972L10.4607 9.23472C10.6039 9.11707 10.7642 9.02147 10.936 8.95022C11.1651 8.8552 11.4107 8.80568 11.6586 8.80568L11.8435 8.8148C12.0281 8.83299 12.2094 8.87892 12.3813 8.95022C12.6102 9.04522 12.8182 9.18431 12.9933 9.35972L13.9321 10.2992L14.0597 10.4372C14.1802 10.5812 14.2789 10.7426 14.352 10.9164C14.4495 11.1481 14.4998 11.3974 14.4998 11.6488C14.4998 11.9001 14.4494 12.1489 14.352 12.3806C14.2552 12.6107 14.1133 12.8188 13.9353 12.9938L13.936 12.9945L12.2771 14.6546L12.2765 14.654C12.0809 14.8476 11.8246 14.9684 11.5506 14.9945C11.2766 15.0205 11.0018 14.9511 10.7732 14.7979C7.17301 12.4065 4.08722 9.31789 1.69771 5.71519L1.69706 5.71454C1.5454 5.48445 1.47804 5.20869 1.5063 4.93459C1.53457 4.6605 1.65657 4.40427 1.852 4.20998L3.52323 2.55178C3.69809 2.37704 3.90556 2.2383 4.13391 2.14358C4.36297 2.04856 4.60859 1.9997 4.85656 1.99969C5.10455 1.99969 5.35015 2.04856 5.57922 2.14358C5.7511 2.21487 5.91125 2.31099 6.05448 2.42873L6.19185 2.55373L6.1925 2.55438L7.11503 3.48407C7.28986 3.65913 7.42787 3.86681 7.52258 4.0954C7.61749 4.32451 7.66645 4.57006 7.66646 4.81805L7.65734 5.0036Z" fill="currentColor"/>
</svg>
