<svg width="24" height="24" viewBox="0 0 24 24" fill="none" xmlns="http://www.w3.org/2000/svg">
  <path d="M17 9V7C17 4.243 14.757 2 12 2C9.243 2 7 4.243 7 7V9C5.897 9 5 9.897 5 11V20C5 21.103 5.897 22 7 22H17C18.103 22 19 21.103 19 20V11C19 9.897 18.103 9 17 9ZM9 7C9 5.346 10.346 4 12 4C13.654 4 15 5.346 15 7V9H9V7ZM17 20H7V11H17V20Z" fill="currentColor"/>
  <path d="M12 17C12.553 17 13 16.553 13 16V14C13 13.447 12.553 13 12 13C11.447 13 11 13.447 11 14V16C11 16.553 11.447 17 12 17Z" fill="currentColor"/>
</svg>