<svg width="20" height="20" viewBox="0 0 20 20" fill="none" xmlns="http://www.w3.org/2000/svg">
<path d="M15.0837 6.78867L15.0739 6.68043C14.9687 5.4947 14.3989 4.38515 13.4699 3.57659V3.57578C12.4992 2.72954 11.2217 2.26787 9.89975 2.29241C8.57791 2.31701 7.32 2.82503 6.38494 3.70598L6.38575 3.7068C5.77271 4.28576 5.32964 5.00459 5.09669 5.79176C4.8929 6.48039 4.85541 7.2025 4.9852 7.90439L5.05112 8.20387L5.05926 8.23968C5.32241 9.59814 5.84183 10.8998 6.59246 12.0808L6.74545 12.316L6.75522 12.3298L6.76417 12.3445C7.6648 13.8575 8.71464 15.2841 9.89812 16.6064C10.2673 16.2411 10.619 15.8596 10.9512 15.463L10.9553 15.4581L11.3646 14.9649C12.2991 13.7998 13.0985 12.5403 13.7482 11.2092V11.2084L14.0241 10.6249C14.2908 10.0381 14.5308 9.44049 14.7435 8.83375L14.7549 8.80283C14.9424 8.34556 15.054 7.86377 15.0853 7.3746L15.0861 7.3624L15.0877 7.35019C15.0945 7.28447 15.0951 7.21596 15.0951 7.10849V7.08082C15.0951 6.98424 15.0898 6.88865 15.0837 6.78867ZM9.99985 4.08766L10.1349 4.0901C10.8087 4.11899 11.4536 4.38585 11.9424 4.84856C12.4646 5.34302 12.7664 6.02182 12.7717 6.7374V6.74147L12.7643 6.94003C12.7289 7.39971 12.57 7.84219 12.3045 8.22421C12.0013 8.66055 11.5731 8.99795 11.0765 9.19671C10.5802 9.39533 10.0347 9.44841 9.50831 9.35052C8.9819 9.25254 8.49362 9.00686 8.10694 8.64088C7.71993 8.27446 7.45119 7.80257 7.33953 7.28427C7.22794 6.76599 7.2789 6.22784 7.4852 5.73886C7.69151 5.25011 8.04262 4.83473 8.48943 4.54257C8.9361 4.25058 9.46083 4.09341 9.99659 4.08766H9.99985ZM10.0072 5.33766C9.70741 5.34135 9.41742 5.42916 9.17384 5.58831C8.92979 5.74785 8.74478 5.97069 8.63754 6.2247C8.53046 6.47839 8.5045 6.75517 8.56186 7.02141C8.61929 7.28782 8.7584 7.53582 8.96632 7.73268C9.17456 7.92982 9.44234 8.06683 9.73699 8.12167C10.0316 8.17645 10.3365 8.1464 10.6118 8.03623C10.8871 7.92607 11.118 7.74191 11.2783 7.51132C11.4375 7.28225 11.5209 7.01609 11.5217 6.74635L11.5135 6.60963C11.4784 6.29196 11.3293 5.98997 11.083 5.75677C10.801 5.48972 10.4147 5.33625 10.0072 5.33766ZM16.3451 7.10849C16.3451 7.20069 16.344 7.32294 16.332 7.45354L16.3329 7.45436C16.2928 8.07987 16.1509 8.69508 15.9121 9.27727C15.6145 10.1223 15.2664 10.95 14.8705 11.7569L14.8713 11.7577C14.0828 13.373 13.0872 14.8868 11.909 16.2654L11.9098 16.2662C11.4092 16.8639 10.8683 17.4305 10.2904 17.9605L9.83383 18.3788L9.41147 17.9272C7.9958 16.416 6.75144 14.7645 5.69972 13.0004C4.78098 11.6277 4.14815 10.0961 3.8353 8.49033C3.58251 7.48425 3.60333 6.43251 3.89796 5.43694C4.19475 4.43412 4.75707 3.5251 5.52719 2.79778L5.52801 2.79697L5.75099 2.59677C6.88897 1.62232 8.35231 1.07079 9.87615 1.04241C11.5015 1.01217 13.0817 1.5792 14.291 2.63339L14.5042 2.82789C15.5236 3.80301 16.1633 5.09239 16.3084 6.47942C16.3208 6.52615 16.3285 6.57413 16.3304 6.62265V6.6788C16.3391 6.81019 16.3451 6.94252 16.3451 7.08082V7.10849Z" fill="currentColor"/>
</svg>
