<svg width="45" height="58" viewBox="0 0 45 58" fill="none" xmlns="http://www.w3.org/2000/svg">
<path d="M45 22.7484C45 38.2054 25.8019 58 22.5003 58C17.9392 58 0 38.2033 0 22.7484C-8.11068e-10 19.761 0.581982 16.8029 1.71273 14.0428C2.84348 11.2828 4.50086 8.77509 6.59021 6.6627C8.67956 4.5503 11.16 2.87465 13.8898 1.73147C16.6197 0.588285 19.5455 -6.99894e-05 22.5003 6.24469e-09C28.4676 6.24481e-09 34.1905 2.39667 38.41 6.66283C42.6295 10.929 45 16.7151 45 22.7484Z" fill="white"/>
<path d="M22.3997 55.705C20.8894 55.2786 16.0921 51.3834 11.0786 44.4624C5.46267 36.7089 2.24219 28.7954 2.24219 22.7502C2.24833 17.32 4.38456 12.114 8.18228 8.27431C11.98 4.43461 17.1291 2.27476 22.4999 2.26855C27.8707 2.27476 33.0197 4.43461 36.8174 8.27431C40.6151 12.114 42.7514 17.32 42.7576 22.7502C42.7576 30.6919 37.0962 39.5397 33.7212 44.1059C28.7948 50.7737 23.9 55.0526 22.3997 55.705Z" fill="#FFC217"/>
<path d="M12.2421 24.2809C12.2483 23.9187 12.3267 23.5614 12.4727 23.2292C12.6187 22.897 12.8295 22.5966 13.0931 22.345C13.3566 22.0934 13.6678 21.8957 14.0087 21.7631C14.3496 21.6305 14.7136 21.5656 15.0799 21.5722C15.4436 21.5663 15.8049 21.632 16.1427 21.7654C16.4805 21.8988 16.7881 22.0974 17.0476 22.3494C17.3071 22.6014 17.5133 22.902 17.6542 23.2336C17.7951 23.5651 17.8679 23.9211 17.8684 24.2807L17.8684 27.0132C17.8806 28.1981 18.3653 29.3303 19.2172 30.1639C20.069 30.9974 21.2192 31.465 22.4178 31.465C23.6164 31.4649 24.7666 30.9973 25.6185 30.1637C26.4704 29.3301 26.9552 28.1979 26.9675 27.013L26.9676 24.2805C26.9738 23.9184 27.0522 23.561 27.1982 23.2289C27.3442 22.8968 27.555 22.5963 27.8185 22.3448C28.082 22.0932 28.3931 21.8955 28.734 21.7628C29.0748 21.6302 29.4388 21.5653 29.8051 21.5718C30.1688 21.566 30.53 21.6317 30.8678 21.7652C31.2055 21.8986 31.5131 22.0971 31.7725 22.3492C32.0319 22.6012 32.2381 22.9017 32.379 23.2333C32.5199 23.5648 32.5927 23.9207 32.5931 24.2803L32.5931 27.0128C32.5286 29.6385 31.4283 32.1353 29.527 33.9699C27.6257 35.8045 25.0743 36.8315 22.4176 36.8315C19.7608 36.8316 17.2094 35.8047 15.3083 33.9702C13.4071 32.1358 12.3069 29.6391 12.2425 27.0134L12.2421 24.2809Z" fill="#461B02"/>
<path d="M17.9096 17.5155C17.9095 18.0693 17.7433 18.6107 17.4319 19.0711C17.1205 19.5316 16.6779 19.8904 16.1601 20.1023C15.6423 20.3143 15.0726 20.3697 14.5229 20.2617C13.9732 20.1536 13.4683 19.887 13.0721 19.4954C12.6758 19.1038 12.4059 18.6049 12.2966 18.0618C12.1872 17.5186 12.2433 16.9556 12.4578 16.444C12.6723 15.9323 13.0354 15.495 13.5014 15.1873C13.9674 14.8796 14.5152 14.7153 15.0757 14.7153C15.8273 14.7153 16.5481 15.0103 17.0795 15.5355C17.611 16.0606 17.9096 16.7728 17.9096 17.5155" fill="#461B02"/>
<path d="M32.5776 17.3471C32.5775 17.9009 32.4113 18.4422 32.0999 18.9027C31.7885 19.3631 31.3459 19.722 30.8281 19.9339C30.3103 20.1458 29.7405 20.2013 29.1909 20.0932C28.6412 19.9852 28.1363 19.7185 27.74 19.3269C27.3437 18.9354 27.0739 18.4365 26.9645 17.8933C26.8552 17.3502 26.9113 16.7872 27.1258 16.2755C27.3402 15.7639 27.7034 15.3266 28.1694 15.0188C28.6354 14.7111 29.1832 14.5469 29.7437 14.5468C30.4953 14.5468 31.216 14.8419 31.7475 15.367C32.2789 15.8922 32.5775 16.6044 32.5776 17.3471Z" fill="#461B02"/>
</svg>
