<svg width="24" height="24" viewBox="0 0 24 24" fill="none" xmlns="http://www.w3.org/2000/svg">
<path fill-rule="evenodd" clip-rule="evenodd" d="M8.08121 12.5221C7.94545 12.3863 7.8613 12.1989 7.86201 11.9917C7.86201 11.5774 8.19718 11.2422 8.61154 11.2422H15.3885C15.8028 11.2422 16.138 11.5774 16.138 11.9917C16.138 12.4061 15.8028 12.7413 15.3885 12.7413H8.61154C8.40436 12.742 8.21698 12.6578 8.08121 12.5221Z" fill="#176CF7"/>
<path fill-rule="evenodd" clip-rule="evenodd" d="M11.469 15.913C11.3332 15.7772 11.2491 15.5898 11.2498 15.3826L11.2505 8.59937C11.2505 8.185 11.5856 7.84984 12 7.84984C12.4151 7.85054 12.7502 8.18571 12.7495 8.59937L12.7488 15.3826C12.7488 15.797 12.4137 16.1322 11.9993 16.1322C11.7921 16.1329 11.604 16.048 11.469 15.913Z" fill="#176CF7"/>
<path fill-rule="evenodd" clip-rule="evenodd" d="M7.66499 3.5C5.13499 3.5 3.49999 5.233 3.49999 7.916V16.084C3.49999 18.767 5.13499 20.5 7.66499 20.5H16.333C18.864 20.5 20.5 18.767 20.5 16.084V7.916C20.5 5.233 18.864 3.5 16.334 3.5H7.66499ZM16.333 22H7.665C4.276 22 2 19.622 2 16.084V7.916C2 4.378 4.276 2 7.665 2H16.334C19.723 2 22 4.378 22 7.916V16.084C22 19.622 19.723 22 16.333 22Z" fill="#176CF7"/>
</svg>
