<svg width="16" height="16" viewBox="0 0 16 16" fill="none" xmlns="http://www.w3.org/2000/svg">
<g clip-path="url(#clip0_2065_365255)">
<path d="M10.5794 4.39421C10.5794 2.97451 9.44274 1.83301 8.05272 1.83301C6.6628 1.83313 5.52668 2.97458 5.52668 4.39421C5.52683 5.81369 6.6629 6.95463 8.05272 6.95475C9.44265 6.95475 10.5793 5.81377 10.5794 4.39421ZM11.5794 4.39421C11.5793 5.83135 10.7337 7.07284 9.51366 7.63444C11.4091 8.1775 13.0836 9.75183 13.8652 12.2803L13.9557 12.5934L14.4824 14.5355L14.4935 14.5856C14.5347 14.8356 14.3806 15.081 14.1308 15.1488C13.881 15.2165 13.6239 15.0826 13.5332 14.846L13.5176 14.7972L12.9909 12.8558L12.9101 12.5778C12.0388 9.75333 9.98229 8.42025 7.99998 8.42025C5.95377 8.42025 3.82823 9.8408 3.0091 12.8558L2.48241 14.7972C2.41012 15.0637 2.13563 15.221 1.86913 15.1488C1.60263 15.0765 1.44529 14.802 1.51756 14.5355L2.04426 12.5934L2.13475 12.2803C2.92517 9.72338 4.62834 8.14122 6.55012 7.61556C5.35265 7.04501 4.52679 5.81487 4.52668 4.39421C4.52668 2.43299 6.09989 0.833134 8.05272 0.833008C10.0057 0.833008 11.5794 2.43292 11.5794 4.39421Z" fill="currentColor"/>
</g>
<defs>
<clipPath id="clip0_2065_365255">
<rect width="16" height="16" fill="white"/>
</clipPath>
</defs>
</svg>
