<svg width="16" height="16" viewBox="0 0 16 16" fill="none" xmlns="http://www.w3.org/2000/svg">
<g clip-path="url(#clip0_12017_73144)">
<path fill-rule="evenodd" clip-rule="evenodd" d="M7.29411 11.8596C4.37025 11.8596 2 9.50322 2 6.59646C2 3.68971 4.37025 1.33331 7.29411 1.33331C10.218 1.33331 12.5882 3.68971 12.5882 6.59646C12.5882 7.98627 12.0464 9.25025 11.1612 10.191L13.8453 13.5265C14.0888 13.8291 14.0395 14.2707 13.7351 14.5128C13.4306 14.755 12.9864 14.7059 12.7429 14.4033L10.0685 11.0799C9.26177 11.5743 8.31145 11.8596 7.29411 11.8596ZM7.29411 10.4561C9.43827 10.4561 11.1765 8.72809 11.1765 6.59647C11.1765 4.46484 9.43827 2.73682 7.29411 2.73682C5.14995 2.73682 3.41176 4.46484 3.41176 6.59647C3.41176 8.72809 5.14995 10.4561 7.29411 10.4561Z" fill="currentColor"/>
</g>
<defs>
<clipPath id="clip0_12017_73144">
<rect width="16" height="16" fill="white"/>
</clipPath>
</defs>
</svg>
