<svg width="16" height="16" viewBox="0 0 16 16" fill="none" xmlns="http://www.w3.org/2000/svg">
<path d="M2.83203 12.7201V3.19141C2.83203 2.74269 3.01063 2.31189 3.32813 1.99479C3.64557 1.67785 4.07614 1.5 4.52474 1.5H9.80534L9.93685 1.50781C10.0672 1.52353 10.1941 1.56284 10.3112 1.6237C10.4283 1.68455 10.5333 1.76565 10.6211 1.86328L10.7031 1.96615V1.9668L13.1745 5.49154L13.2201 5.5625C13.3198 5.73094 13.373 5.92362 13.373 6.12044V12.7201C13.373 13.1687 13.1944 13.5989 12.877 13.916C12.5595 14.2331 12.129 14.4114 11.6803 14.4115H4.52474C4.07606 14.4115 3.64559 14.2331 3.32813 13.916C3.01064 13.5989 2.83203 13.1688 2.83203 12.7201ZM10.5918 10.1243C10.8678 10.1245 11.0918 10.3483 11.0918 10.6243C11.0917 10.9003 10.8677 11.1242 10.5918 11.1243H5.40625C5.13021 11.1243 4.90635 10.9004 4.90625 10.6243C4.90625 10.3482 5.13015 10.1244 5.40625 10.1243H10.5918ZM10.5918 8.2513L10.6426 8.25391C10.8947 8.27949 11.0918 8.4924 11.0918 8.7513C11.0918 9.01019 10.8947 9.22312 10.6426 9.2487L10.5918 9.2513H5.40625C5.13016 9.25126 4.90627 9.0274 4.90625 8.7513C4.90625 8.47519 5.13015 8.25135 5.40625 8.2513H10.5918ZM10.5918 6.17708L10.6426 6.17969C10.8946 6.20524 11.0916 6.41831 11.0918 6.67708C11.0918 6.936 10.8947 7.14957 10.6426 7.17513L10.5918 7.17708H5.40625C5.13015 7.17704 4.90625 6.9532 4.90625 6.67708C4.90642 6.40111 5.13025 6.17713 5.40625 6.17708H10.5918ZM9.03581 4.10807L9.08724 4.11068C9.33924 4.13634 9.53571 4.34933 9.53581 4.60807C9.53581 4.8669 9.33928 5.07978 9.08724 5.10547L9.03581 5.10807H5.40625C5.13015 5.10803 4.90625 4.88419 4.90625 4.60807C4.90636 4.33205 5.13021 4.10812 5.40625 4.10807H9.03581ZM3.83203 12.7201C3.83203 12.9031 3.9048 13.0787 4.03451 13.2083C4.16434 13.338 4.34085 13.4115 4.52474 13.4115H11.6803C11.8642 13.4114 12.0401 13.338 12.1699 13.2083C12.2997 13.0787 12.373 12.9031 12.373 12.7201V6.12044C12.373 6.1107 12.3714 6.10101 12.3685 6.0918L12.3555 6.06576L9.88411 2.54102V2.54036C9.87537 2.5281 9.86375 2.5181 9.85026 2.51107C9.84344 2.50753 9.8362 2.50443 9.82878 2.5026L9.80534 2.5H4.52474C4.34085 2.5 4.16434 2.5728 4.03451 2.70247C3.90469 2.83213 3.83203 3.00831 3.83203 3.19141V12.7201Z" fill="#555555"/>
</svg>
