<svg width="16" height="16" viewBox="0 0 16 16" fill="none" xmlns="http://www.w3.org/2000/svg">
<path d="M5.00391 10.472C4.53988 10.472 4.16348 10.8478 4.16341 11.3119C4.16341 11.3276 4.16452 11.3433 4.16536 11.3587C4.16725 11.3744 4.16887 11.3902 4.16927 11.4063C4.21615 11.8259 4.57172 12.1524 5.00391 12.1524C5.38422 12.1523 5.70504 11.8994 5.80859 11.5527C5.79062 11.5012 5.7793 11.4464 5.7793 11.3887C5.7793 11.31 5.79836 11.2361 5.83073 11.1699C5.76314 10.7737 5.41944 10.4721 5.00391 10.472ZM10.6836 10.472C10.2196 10.472 9.84317 10.8479 9.8431 11.3119C9.84697 11.3369 9.84961 11.3625 9.84961 11.3887C9.84961 11.3941 9.84848 11.3996 9.84831 11.405C9.89456 11.8253 10.251 12.1523 10.6836 12.1524C11.1477 12.1524 11.5241 11.7759 11.5241 11.3119C11.524 10.8478 11.1476 10.472 10.6836 10.472ZM9.74479 8.66537V5.66733C9.73545 5.62912 9.72917 5.58927 9.72917 5.54819C9.72919 5.50701 9.73538 5.46733 9.74479 5.42905V4.53061C9.74479 4.43906 9.72709 4.34826 9.69206 4.26368C9.65706 4.17918 9.60567 4.10247 9.54102 4.03777C9.47628 3.97303 9.39904 3.92176 9.31445 3.88673C9.25111 3.8605 9.18452 3.84332 9.11654 3.8366L9.04818 3.83334H3.19727C3.01237 3.83334 2.83517 3.90703 2.70443 4.03777C2.57368 4.16851 2.5 4.34571 2.5 4.53061V10.222C2.50002 10.4069 2.5737 10.5841 2.70443 10.7149C2.83516 10.8455 3.01241 10.9193 3.19727 10.9193H3.20703C3.38706 10.0918 4.12244 9.47202 5.00391 9.47202C5.87437 9.47205 6.60158 10.0766 6.79297 10.8887H8.89453C9.08593 10.0766 9.81311 9.47203 10.6836 9.47202C11.5459 9.47202 12.2672 10.0654 12.4668 10.8659H13.5156V8.25717L13.5078 8.16537C13.4927 8.07497 13.4563 7.98895 13.401 7.91472L12.0573 6.12761L12.0247 6.09441C12.0126 6.08456 11.9992 6.07591 11.985 6.06902C11.9569 6.05538 11.9258 6.04816 11.8945 6.04819H10.7448V8.66537C10.7448 8.94152 10.5209 9.16537 10.2448 9.16537C9.96878 9.16522 9.74479 8.94142 9.74479 8.66537ZM10.7448 5.04819H11.8939L12.0299 5.056C12.1657 5.0713 12.2984 5.10997 12.4219 5.16993C12.5452 5.22983 12.6573 5.30985 12.7533 5.40691L12.8438 5.50978L12.8503 5.51824L14.2005 7.31381L14.2012 7.31511L14.2728 7.41863C14.4294 7.66722 14.5137 7.95583 14.5156 8.25131V11.2461C14.5156 11.4105 14.4502 11.568 14.334 11.6843C14.2178 11.8004 14.0602 11.8659 13.8958 11.8659H12.4388C12.2037 12.6115 11.5069 13.1524 10.6836 13.1524C9.86882 13.1523 9.17893 12.6223 8.93685 11.8887H6.75C6.50787 12.6222 5.81859 13.1523 5.00391 13.1524C4.2006 13.1524 3.51931 12.6369 3.26823 11.9193H3.19727C2.74719 11.9193 2.31567 11.7401 1.9974 11.4219C1.67913 11.1036 1.50002 10.6721 1.5 10.222V4.53061C1.5 4.0805 1.67912 3.64902 1.9974 3.33074C2.31567 3.01246 2.74715 2.83334 3.19727 2.83334H9.04818L9.21419 2.84181C9.37995 2.85813 9.54282 2.8983 9.69727 2.96225C9.90317 3.04754 10.0905 3.17314 10.248 3.33074C10.4055 3.48826 10.5306 3.67509 10.6159 3.88087C10.7012 4.08678 10.7448 4.30774 10.7448 4.53061V5.04819Z" fill="currentColor"/>
</svg>
