<svg width="12" height="12" viewBox="0 0 12 12" fill="none" xmlns="http://www.w3.org/2000/svg">
<g clip-path="url(#clip0_3526_220765)">
<path d="M4.37109 7.14032C4.50628 7.00514 4.7254 7.00514 4.86058 7.14032C4.99528 7.27554 4.9956 7.49479 4.86058 7.62981L2.68179 9.80769H3.69231C3.88348 9.80769 4.03846 9.96267 4.03846 10.1538C4.03843 10.345 3.88347 10.5 3.69231 10.5H1.84615C1.82524 10.5 1.80475 10.4981 1.78486 10.4946C1.78245 10.4942 1.78005 10.4933 1.77764 10.4928C1.77161 10.4916 1.76552 10.489 1.75962 10.4874C1.74433 10.4834 1.72837 10.4799 1.71364 10.4739C1.70032 10.4683 1.68819 10.4602 1.67578 10.4531C1.6498 10.4383 1.62409 10.4211 1.60186 10.399C1.58709 10.3843 1.57374 10.3678 1.5622 10.3513C1.5481 10.331 1.53571 10.3094 1.52614 10.2864C1.51658 10.2632 1.50972 10.2386 1.50541 10.2142C1.50195 10.1946 1.5 10.1744 1.5 10.1538V8.30769C1.5 8.11652 1.65498 7.96154 1.84615 7.96154C2.03733 7.96154 2.19231 8.11652 2.19231 8.30769V9.31821L4.37109 7.14032Z" fill="currentColor"/>
<path d="M9.69231 6C9.94721 6 10.1538 6.20664 10.1538 6.46154V8.76923C10.1538 9.53413 9.53413 10.1538 8.76923 10.1538H6C5.7451 10.1538 5.53846 9.94721 5.53846 9.69231C5.53846 9.43741 5.7451 9.23077 6 9.23077H8.76923C9.02433 9.23077 9.23077 9.02433 9.23077 8.76923V6.46154C9.23077 6.20664 9.43741 6 9.69231 6Z" fill="currentColor"/>
<path d="M5.53846 1.84615C5.79336 1.84615 6 2.05279 6 2.30769C6 2.56259 5.79336 2.76923 5.53846 2.76923H3.23077C2.97567 2.76923 2.76923 2.97567 2.76923 3.23077V5.53846C2.76923 5.79336 2.56259 6 2.30769 6C2.05279 6 1.84615 5.79336 1.84615 5.53846V3.23077C1.84615 2.46587 2.46587 1.84615 3.23077 1.84615H5.53846Z" fill="currentColor"/>
<path d="M10.1899 1.5018C10.1949 1.50237 10.2003 1.50377 10.2052 1.50451C10.2157 1.50608 10.2265 1.50829 10.2368 1.51082C10.2475 1.51347 10.258 1.51711 10.2683 1.52073C10.2776 1.524 10.2872 1.52747 10.2963 1.53155C10.3088 1.53723 10.3207 1.54431 10.3323 1.55138C10.3409 1.55656 10.3503 1.56161 10.3585 1.56761C10.3612 1.56957 10.364 1.57187 10.3666 1.57392C10.3775 1.58249 10.389 1.59178 10.399 1.60186C10.4016 1.60446 10.4038 1.60735 10.4062 1.60998C10.4085 1.61238 10.4113 1.61472 10.4135 1.61719C10.4252 1.63043 10.4357 1.6451 10.445 1.65956C10.4541 1.67368 10.4615 1.6892 10.4684 1.70463C10.4704 1.70878 10.4731 1.71302 10.4748 1.71725C10.4798 1.72987 10.4829 1.74361 10.4865 1.75691C10.4887 1.76495 10.4921 1.77309 10.4937 1.78125C10.4977 1.80228 10.5 1.82396 10.5 1.84615V3.69231C10.5 3.88347 10.345 4.03843 10.1538 4.03846C9.96267 4.03846 9.80769 3.88348 9.80769 3.69231V2.68179L7.62981 4.86058C7.49479 4.9956 7.27554 4.99528 7.14032 4.86058C7.00514 4.7254 7.00514 4.50628 7.14032 4.37109L9.31821 2.19231H8.30769C8.11652 2.19231 7.96154 2.03733 7.96154 1.84615C7.96154 1.65498 8.11652 1.5 8.30769 1.5H10.1538L10.1899 1.5018Z" fill="currentColor"/>
</g>
<defs>
<clipPath id="clip0_3526_220765">
<rect width="12" height="12" fill="white" transform="matrix(-1 0 0 1 12 0)"/>
</clipPath>
</defs>
</svg>
