<svg width="16" height="16" viewBox="0 0 16 16" fill="none" xmlns="http://www.w3.org/2000/svg">
<path d="M4.37225 7.30555C3.97781 7.30555 3.57781 7.16111 3.27225 6.86666C2.25003 5.89444 1.83892 4.83333 2.07781 3.79444C2.36114 2.57222 3.43337 2.02777 4.37225 2.02777C5.31114 2.02777 6.38892 2.57777 6.6667 3.79444C6.90559 4.83333 6.48892 5.89444 5.47225 6.86666C5.1667 7.16111 4.77225 7.30555 4.37225 7.30555ZM2.88892 3.98333C2.67781 4.9111 3.29448 5.73333 3.85003 6.26111C4.14448 6.54444 4.60559 6.53888 4.90003 6.26111C5.45559 5.73333 6.07225 4.9111 5.85559 3.97777C5.6667 3.15555 4.93892 2.8611 4.37781 2.8611C3.81114 2.8611 3.08337 3.15555 2.88892 3.98333Z" fill="currentColor"/>
<path d="M4.3954 4.77774C4.08984 4.77774 3.83984 4.52774 3.83984 4.22218C3.83984 3.91663 4.08429 3.66663 4.3954 3.66663H4.40095C4.70651 3.66663 4.95651 3.91663 4.95651 4.22218C4.95651 4.52774 4.70651 4.77774 4.3954 4.77774Z" fill="currentColor"/>
<path d="M11.6061 13.9722C11.2116 13.9722 10.8116 13.8277 10.5005 13.5333C9.47275 12.5611 9.05608 11.5 9.30053 10.4555C9.58386 9.23884 10.6616 8.68884 11.6061 8.68884C12.5505 8.68884 13.6283 9.23884 13.9116 10.4555C14.1505 11.4944 13.7339 12.5611 12.7061 13.5277C12.4005 13.8277 12.0061 13.9722 11.6061 13.9722ZM11.6061 9.52773C11.0394 9.52773 10.3061 9.82218 10.1116 10.65C9.89497 11.5777 10.5172 12.4055 11.0728 12.9333C11.3672 13.2166 11.8339 13.2166 12.1339 12.9333C12.6894 12.4055 13.3116 11.5833 13.095 10.6555C12.9116 9.82218 12.1783 9.52773 11.6061 9.52773Z" fill="currentColor"/>
<path d="M11.6278 11.4444C11.3223 11.4444 11.0723 11.1944 11.0723 10.8889C11.0723 10.5833 11.3167 10.3333 11.6278 10.3333H11.6334C11.9389 10.3333 12.1889 10.5833 12.1889 10.8889C12.1889 11.1944 11.9334 11.4444 11.6278 11.4444Z" fill="currentColor"/>
<path d="M7.9997 12.3055H6.51081C5.86636 12.3055 5.30525 11.9166 5.08303 11.3166C4.85525 10.7166 5.02192 10.0555 5.50525 9.62773L9.94414 5.7444C10.2108 5.51106 10.2164 5.1944 10.1386 4.97773C10.0553 4.76106 9.84414 4.52773 9.48858 4.52773H7.9997C7.77192 4.52773 7.58303 4.33884 7.58303 4.11106C7.58303 3.88329 7.77192 3.6944 7.9997 3.6944H9.48858C10.133 3.6944 10.6941 4.08329 10.9164 4.68329C11.1441 5.28329 10.9775 5.9444 10.4941 6.37217L6.05525 10.2555C5.78858 10.4888 5.78303 10.8055 5.86081 11.0222C5.94414 11.2388 6.15525 11.4722 6.51081 11.4722H7.9997C8.22747 11.4722 8.41636 11.6611 8.41636 11.8888C8.41636 12.1166 8.22747 12.3055 7.9997 12.3055Z" fill="currentColor"/>
<path d="M7.9997 12.3055H6.51081C5.86636 12.3055 5.30525 11.9166 5.08303 11.3166C4.85525 10.7166 5.02192 10.0555 5.50525 9.62773L9.94414 5.7444C10.2108 5.51106 10.2164 5.1944 10.1386 4.97773C10.0553 4.76106 9.84414 4.52773 9.48858 4.52773H7.9997C7.77192 4.52773 7.58303 4.33884 7.58303 4.11106C7.58303 3.88329 7.77192 3.6944 7.9997 3.6944H9.48858C10.133 3.6944 10.6941 4.08329 10.9164 4.68329C11.1441 5.28329 10.9775 5.9444 10.4941 6.37217L6.05525 10.2555C5.78858 10.4888 5.78303 10.8055 5.86081 11.0222C5.94414 11.2388 6.15525 11.4722 6.51081 11.4722H7.9997C8.22747 11.4722 8.41636 11.6611 8.41636 11.8888C8.41636 12.1166 8.22747 12.3055 7.9997 12.3055Z" fill="currentColor"/>
</svg>
