<svg width="17" height="16" viewBox="0 0 17 16" fill="none" xmlns="http://www.w3.org/2000/svg">
<path fill-rule="evenodd" clip-rule="evenodd" d="M8.04253 1.43185C7.87491 1.50045 6.65587 2.11097 5.33777 2.78322C4.38022 3.2666 3.44278 3.74637 2.9081 4.02C2.70678 4.12304 2.56256 4.19685 2.49586 4.23062C2.24444 4.36782 2.01586 4.54617 1.94729 4.66964C1.84825 4.84114 1.83301 5.36248 1.83301 7.99661C1.83301 10.6307 1.84825 11.1521 1.94729 11.3236C2.01586 11.4471 2.24444 11.6254 2.49586 11.7626C2.56255 11.7964 2.70677 11.8702 2.90809 11.9732C3.44277 12.2468 4.38022 12.7266 5.33777 13.21C6.65587 13.8823 7.89015 14.4928 8.08063 14.5682C8.30158 14.6505 8.50729 14.6848 8.65206 14.6574C8.78158 14.6368 10.2292 13.9303 11.8825 13.0934C14.4882 11.7626 14.8997 11.5294 15.0216 11.3236C15.1587 11.0972 15.1663 10.8846 15.1663 7.99661C15.1663 5.10181 15.1587 4.89601 15.0216 4.66964C14.9073 4.47757 14.6635 4.3198 13.8254 3.88764C13.3399 3.64355 12.3327 3.13172 11.3953 2.65534C11.1999 2.55603 11.0075 2.45826 10.8235 2.36478C9.75682 1.82286 8.75872 1.36326 8.61396 1.34268C8.43872 1.31524 8.24063 1.34954 8.04253 1.43185ZM7.6184 2.73521C6.92971 3.09192 6.74605 3.21539 6.82258 3.27027C6.87614 3.31143 8.02397 3.8945 9.37075 4.56676L11.8194 5.78779C12.4163 5.49282 12.8295 5.28703 13.1203 5.12925C13.6024 4.88916 13.6407 4.848 13.5029 4.78627C13.4187 4.74511 12.2862 4.17575 10.9777 3.51722C9.66918 2.85868 8.58258 2.30991 8.55962 2.29619C8.53666 2.28933 8.10814 2.48826 7.6184 2.73521ZM4.49632 4.31295C3.9224 4.60105 3.47092 4.86172 3.50153 4.8823C3.53214 4.90974 4.67231 5.49282 6.04205 6.17193C7.41179 6.8579 8.55197 7.41354 8.59023 7.41354C8.62084 7.41354 9.11058 7.17345 9.67684 6.88534C10.2507 6.59038 10.6869 6.32971 10.6563 6.30913C10.6257 6.28169 9.50849 5.71919 8.18466 5.06066C6.86084 4.39526 5.72066 3.83963 5.65945 3.81905C5.59823 3.79847 5.07023 4.01798 4.49632 4.31295ZM2.8664 10.8571L2.84345 8.27787C2.83579 6.8579 2.84345 5.69861 2.8664 5.69861C2.88936 5.69861 4.06014 6.27483 8.03927 8.27101L8.03162 10.8297C8.03162 12.8259 8.00866 13.3815 7.93979 13.3815C7.88623 13.3815 6.7231 12.8121 2.8664 10.8571ZM13.2351 6.16507L12.3551 6.62467C12.3168 9.24509 12.2939 9.45088 12.1791 9.56064C12.1102 9.62923 11.9419 9.68411 11.8194 9.68411C11.6894 9.68411 11.5287 9.62923 11.4598 9.56064C11.345 9.45088 11.3221 9.28625 11.3221 8.32589C11.3221 7.70851 11.2991 7.20775 11.2608 7.20775C11.2302 7.20775 10.7328 7.44784 10.1589 7.74281L9.10292 8.27101C9.10292 11.7283 9.07997 12.8739 9.04936 13.0591C9.00345 13.2992 9.0111 13.3815 9.07997 13.3815C9.13353 13.3815 10.2967 12.819 11.6664 12.133L14.1457 10.8777C14.1534 6.86476 14.1457 5.69861 14.1304 5.69861C14.127 5.70162 14.0472 5.74288 13.9179 5.80966L13.9179 5.80967L13.9179 5.80967L13.9178 5.80971C13.7523 5.89523 13.5057 6.02258 13.2351 6.16507Z" fill="currentColor"/>
</svg>
