<svg width="17" height="16" viewBox="0 0 17 16" fill="none" xmlns="http://www.w3.org/2000/svg">
<path d="M12.3626 3.17676C12.3626 3.08397 12.3434 2.99172 12.3066 2.90527C12.2699 2.81877 12.2157 2.73906 12.1465 2.67155C12.0772 2.6041 11.9944 2.54989 11.9023 2.5127C11.8101 2.47547 11.7106 2.45605 11.61 2.45605H4.72461C4.52113 2.45612 4.32823 2.53501 4.18815 2.67155C4.04852 2.8077 3.97266 2.98992 3.97266 3.17676V13.0283L5.36263 11.9131C5.47637 11.8201 5.61808 11.7699 5.76302 11.7699L5.82031 11.7725C5.93824 11.7831 6.05163 11.8272 6.14714 11.9001L8.20964 13.4196L10.0059 11.9202L10.0163 11.9118C10.1312 11.8209 10.2729 11.7725 10.4173 11.7725L10.5247 11.7816C10.6264 11.7987 10.7229 11.8406 10.8066 11.904L10.8073 11.9033L12.3626 13.0654V3.17676ZM12.9173 13.4808C12.9214 13.4837 12.9263 13.4856 12.9303 13.4886C12.9249 13.4845 12.919 13.4813 12.9134 13.4775L12.9173 13.4808ZM10.7266 8.84408L10.778 8.84668C11.0301 8.8723 11.2266 9.0852 11.2266 9.34408C11.2264 9.60285 11.03 9.81589 10.778 9.84147L10.7266 9.84408H5.09375C4.8177 9.84408 4.59389 9.6201 4.59375 9.34408C4.59375 9.06793 4.81761 8.84408 5.09375 8.84408H10.7266ZM8.22331 6.40332L8.27474 6.40592C8.52664 6.43163 8.72314 6.64467 8.72331 6.90332C8.72331 7.16212 8.52675 7.37565 8.27474 7.40137L8.22331 7.40332H5.09375C4.81761 7.40332 4.59375 7.17946 4.59375 6.90332C4.59392 6.62733 4.81772 6.40332 5.09375 6.40332H8.22331ZM10.1009 3.96322L10.1517 3.96582C10.4038 3.99131 10.6008 4.20437 10.6009 4.46322C10.6009 4.72216 10.4039 4.93509 10.1517 4.96061L10.1009 4.96322H5.09375C4.81761 4.96322 4.59375 4.73936 4.59375 4.46322C4.59389 4.18719 4.81769 3.96322 5.09375 3.96322H10.1009ZM13.3626 13.7848C13.3612 13.9064 13.3247 14.0245 13.2591 14.1253C13.1936 14.226 13.1019 14.3054 12.9954 14.3558C12.889 14.4062 12.7708 14.426 12.6543 14.4144C12.5523 14.4042 12.4545 14.3689 12.3678 14.3128C12.3556 14.3052 12.3425 14.2988 12.3307 14.29L10.429 12.8688L8.63737 14.3656C8.52032 14.4633 8.37338 14.5153 8.22331 14.5153C8.08308 14.5153 7.94691 14.4682 7.83398 14.3825L7.83333 14.3844L5.77214 12.8656L4.02344 14.2705L3.9987 14.2887C3.90456 14.3552 3.79505 14.3949 3.68164 14.4053C3.56807 14.4156 3.45314 14.396 3.34896 14.348C3.24469 14.2999 3.15384 14.2246 3.08724 14.1286C3.0373 14.0565 3.00236 13.9751 2.98503 13.889L2.97331 13.8011C2.9727 13.791 2.97266 13.7806 2.97266 13.7705V3.17676C2.97266 2.71628 3.16031 2.27701 3.49023 1.9554C3.8197 1.63427 4.26406 1.45612 4.72461 1.45605H11.61C11.8384 1.45605 12.0651 1.50017 12.2767 1.58561C12.4882 1.67103 12.6812 1.79639 12.8444 1.9554C13.0077 2.11456 13.1381 2.30435 13.2272 2.514C13.3163 2.72367 13.3626 2.94903 13.3626 3.17676V13.7848Z" fill="currentColor"/>
</svg>
