<svg width="17" height="16" viewBox="0 0 17 16" fill="none" xmlns="http://www.w3.org/2000/svg">
<path d="M7.41667 0.916654C10.6631 0.418748 13.8531 2.19879 15.1204 5.25845L15.2363 5.55598C16.322 8.5435 15.3048 11.8954 12.7422 13.776L12.4811 13.959C9.72739 15.7987 6.08596 15.5062 3.66341 13.2884L3.43229 13.0677C2.17246 11.8077 1.43018 10.1267 1.34245 8.35546L1.33398 7.99999C1.3343 4.5814 3.74929 1.63878 7.10221 0.971993L7.41667 0.916654ZM11.4798 5.42512C11.6751 5.22993 11.9916 5.22985 12.1868 5.42512C12.3819 5.62037 12.3819 5.93695 12.1868 6.13215L7.74219 10.5755C7.54693 10.7707 7.2304 10.7707 7.03516 10.5755L4.81315 8.3535C4.6182 8.15824 4.61805 7.84164 4.81315 7.64647C5.00841 7.45121 5.32557 7.45121 5.52083 7.64647L7.38867 9.51496L11.4798 5.42512ZM2.3418 8.30598C2.4173 9.83002 3.05593 11.2765 4.13997 12.3607L4.33789 12.5501C6.42235 14.4587 9.55552 14.7106 11.9251 13.1276L12.1504 12.97C14.3553 11.3518 15.2304 8.4677 14.2962 5.89712L14.1966 5.64126C13.1062 3.00843 10.3613 1.47706 7.56771 1.90559L7.29753 1.95311C4.41245 2.52679 2.3343 5.05844 2.33398 7.99999L2.3418 8.30598Z" fill="currentColor"/>
</svg>
