<svg width="17" height="16" viewBox="0 0 17 16" fill="none" xmlns="http://www.w3.org/2000/svg">
<path fill-rule="evenodd" clip-rule="evenodd" d="M10.6117 1.65292C11.0895 1.4425 11.6352 1.44577 12.1104 1.66204L12.2113 1.71152L12.2119 1.71217L12.0544 2.00579L11.9763 2.15292L12.2119 1.71217L15.2132 3.31243L15.2829 3.35344C15.6016 3.55289 15.805 3.89423 15.8285 4.26946L15.8311 4.35019C15.8281 4.78382 15.5842 5.17983 15.1989 5.37883L15.1996 5.37948L14.7412 5.61581L15.1989 5.85214L15.2699 5.8912C15.6141 6.1002 15.8282 6.47433 15.8311 6.88079L15.8285 6.96217C15.8049 7.33729 15.6015 7.67877 15.2829 7.87818L15.2132 7.91855L14.0726 8.52662V10.8521C14.0726 11.5294 13.6989 12.1512 13.1013 12.47L13.1019 12.4706L9.70022 14.2864C9.43342 14.4286 9.14021 14.5003 8.84671 14.5019C8.84239 14.502 8.83803 14.5025 8.83369 14.5025C8.82933 14.5025 8.825 14.502 8.82066 14.5019C8.5666 14.4996 8.31288 14.4449 8.07652 14.3372L7.97431 14.2864L4.57262 12.4706C3.97522 12.1518 3.60191 11.5292 3.60191 10.8521V8.52987L2.45478 7.91855C2.07201 7.7144 1.83403 7.31456 1.83694 6.88079L1.8402 6.80006C1.87086 6.39861 2.10733 6.03865 2.46845 5.85214L2.92613 5.61581L2.46845 5.37948C2.10708 5.19293 1.87073 4.83261 1.8402 4.43092L1.83694 4.35019C1.83412 3.91651 2.07208 3.51653 2.45478 3.31243L5.45608 1.71217L5.45673 1.71152L5.55764 1.66204C6.0669 1.43046 6.65708 1.44336 7.1579 1.70175L8.83369 2.56633L10.5101 1.70175L10.6117 1.65292ZM9.33369 13.3482L12.6306 11.5885C12.9022 11.4435 13.0726 11.1602 13.0726 10.8521V9.05982L12.2119 9.51946C11.7137 9.78521 11.1227 9.80526 10.6097 9.57935L10.5082 9.53118L9.33369 8.92441V13.3482ZM7.15986 9.53118L7.05829 9.57935C6.57948 9.7903 6.03286 9.78641 5.55699 9.56894L5.45608 9.51946L4.60191 9.06373V10.8521C4.60191 11.1602 4.77163 11.4435 5.04332 11.5885L8.33369 13.3443V8.92441L7.15986 9.53118ZM9.92353 8.10344L10.9665 8.6425L11.0596 8.68352C11.2814 8.76545 11.5298 8.74945 11.7412 8.63665L14.7425 7.03639L14.7796 7.00969C14.8014 6.98881 14.8173 6.96194 14.8252 6.93287L14.8311 6.88795C14.8307 6.84147 14.8107 6.79767 14.7777 6.76685L14.7406 6.74081L13.6514 6.17831L9.92353 8.10344ZM2.92744 6.74081C2.88625 6.76208 2.85609 6.79912 2.84345 6.84237L2.83694 6.88795C2.83662 6.94994 2.8708 7.00722 2.92548 7.03639L4.29332 7.76555C4.30566 7.77067 4.31666 7.77838 4.32848 7.78443L5.92678 8.63665L6.01923 8.67896C6.23973 8.76395 6.48795 8.75213 6.70087 8.6425L7.74384 8.10344L4.01598 6.17831L2.92744 6.74081ZM5.10582 5.61581L8.83369 7.54094L12.5609 5.61581L8.83369 3.69198L5.10582 5.61581ZM11.7419 2.59498C11.5306 2.48281 11.2829 2.46755 11.0616 2.54941L10.9685 2.59042L9.92353 3.12948L13.6507 5.05331L14.7406 4.49081L14.7777 4.46412C14.8105 4.43334 14.8307 4.38998 14.8311 4.34368L14.8252 4.2981C14.8173 4.26915 14.8013 4.24274 14.7796 4.22193L14.7425 4.19524L11.7419 2.59498ZM6.69892 2.59042C6.45609 2.46519 6.16684 2.46695 5.92548 2.59498L2.92548 4.19524C2.8708 4.2244 2.83662 4.28169 2.83694 4.34368L2.84345 4.3886C2.85601 4.43207 2.88608 4.46947 2.92744 4.49081L4.01598 5.05266L7.74319 3.12948L6.69892 2.59042Z" fill="currentColor"/>
</svg>
