<svg width="17" height="16" viewBox="0 0 17 16" fill="none" xmlns="http://www.w3.org/2000/svg">
<path d="M7.75065 0.916593C10.9971 0.418687 14.1871 2.19873 15.4544 5.25839L15.5703 5.55592C16.656 8.54344 15.6388 11.8953 13.0762 13.776L12.8151 13.9589C10.0614 15.7987 6.41995 15.5061 3.9974 13.2883L3.76628 13.0676C2.50644 11.8076 1.76417 10.1266 1.67643 8.3554L1.66797 7.99993C1.66828 4.58134 4.08327 1.63872 7.4362 0.971932L7.75065 0.916593ZM11.8138 5.42506C12.0091 5.22987 12.3256 5.22979 12.5208 5.42506C12.7159 5.62031 12.7159 5.93689 12.5208 6.13209L8.07617 10.5754C7.88091 10.7706 7.56438 10.7707 7.36914 10.5754L5.14714 8.35344C4.95219 8.15818 4.95204 7.84158 5.14714 7.64641C5.3424 7.45115 5.65956 7.45115 5.85482 7.64641L7.72266 9.5149L11.8138 5.42506ZM2.67578 8.30592C2.75129 9.82996 3.38991 11.2764 4.47396 12.3606L4.67187 12.5501C6.75633 14.4587 9.88951 14.7106 12.2591 13.1275L12.4844 12.97C14.6893 11.3518 15.5644 8.46763 14.6302 5.89706L14.5306 5.6412C13.4402 3.00837 10.6952 1.477 7.90169 1.90553L7.63151 1.95305C4.74643 2.52673 2.66828 5.05838 2.66797 7.99993L2.67578 8.30592Z" fill="currentColor"/>
</svg>
