<svg width="17" height="16" viewBox="0 0 17 16" fill="none" xmlns="http://www.w3.org/2000/svg">
<path d="M13.833 12C13.833 10.8034 12.8635 9.83337 11.6663 9.83337C10.4698 9.83337 9.49967 10.8035 9.49967 12C9.49967 13.1966 10.4698 14.1667 11.6663 14.1667C12.8635 14.1667 13.833 13.1966 13.833 12ZM12.4984 11.0541C12.6936 10.8588 13.0101 10.8588 13.2054 11.0541C13.4004 11.2494 13.4006 11.5659 13.2054 11.7611L11.7236 13.2422C11.5284 13.4373 11.2118 13.4373 11.0166 13.2422L10.1273 12.3536L10.0934 12.3158C9.93309 12.1195 9.94426 11.8297 10.1273 11.6465C10.3103 11.4634 10.6001 11.4519 10.7965 11.612L10.8343 11.6465L11.3695 12.1817L12.4984 11.0541ZM6.33301 10.8334L6.38444 10.836C6.63642 10.8617 6.83301 11.0746 6.83301 11.3334C6.83301 11.5922 6.63642 11.805 6.38444 11.8308L6.33301 11.8334H4.99967C4.72353 11.8334 4.49967 11.6095 4.49967 11.3334C4.49967 11.0572 4.72353 10.8334 4.99967 10.8334H6.33301ZM7.66634 8.16671C7.94248 8.16671 8.16634 8.39057 8.16634 8.66671C8.16634 8.94285 7.94248 9.16671 7.66634 9.16671H4.99967C4.72353 9.16671 4.49967 8.94285 4.49967 8.66671C4.49967 8.39057 4.72353 8.16671 4.99967 8.16671H7.66634ZM10.333 5.50004L10.3844 5.50265C10.6364 5.52839 10.833 5.74126 10.833 6.00004C10.833 6.25882 10.6364 6.47169 10.3844 6.49744L10.333 6.50004H4.99967C4.72353 6.50004 4.49967 6.27618 4.49967 6.00004C4.49967 5.7239 4.72353 5.50004 4.99967 5.50004H10.333ZM9.83301 2.84184L9.0765 1.89587V1.89522C9.0446 1.85589 8.99672 1.83337 8.94629 1.83337H6.38704C6.33647 1.83337 6.28809 1.85569 6.25619 1.89522L6.25684 1.89587L5.49967 2.84184V3.33337C5.49967 3.42523 5.57448 3.50004 5.66634 3.50004H9.66634C9.7582 3.50004 9.83301 3.42523 9.83301 3.33337V2.84184ZM13.4997 9.41801C14.3066 9.99197 14.833 10.9345 14.833 12C14.833 13.7488 13.4159 15.1667 11.6663 15.1667C10.934 15.1667 10.2601 14.9175 9.72363 14.5H3.66634C2.65353 14.5 1.83301 13.6795 1.83301 12.6667V4.00004C1.83301 2.98723 2.65353 2.16671 3.66634 2.16671H4.75879L5.47559 1.27087H5.47624L5.56413 1.17257C5.78141 0.956612 6.07671 0.833374 6.38704 0.833374H8.94629C9.30087 0.833374 9.63566 0.994666 9.8571 1.27087H9.85775L10.5739 2.16671H11.6663L11.8538 2.17647C12.7785 2.27034 13.4997 3.05054 13.4997 4.00004V9.41801ZM10.833 3.33337C10.833 3.97752 10.3105 4.50004 9.66634 4.50004H5.66634C5.0222 4.50004 4.49967 3.97752 4.49967 3.33337V3.16671H3.66634C3.20582 3.16671 2.83301 3.53952 2.83301 4.00004V12.6667C2.83301 13.1272 3.20582 13.5 3.66634 13.5H8.87728C8.63661 13.0535 8.49967 12.5428 8.49967 12C8.49967 10.2512 9.91753 8.83337 11.6663 8.83337C11.9548 8.83337 12.2341 8.87247 12.4997 8.9447V4.00004C12.4997 3.56832 12.172 3.21394 11.7516 3.17126L11.6663 3.16671H10.833V3.33337Z" fill="currentColor"/>
</svg>
