<svg width="16" height="16" viewBox="0 0 16 16" fill="none" xmlns="http://www.w3.org/2000/svg">
<path d="M4.04557 10.1217L4.36523 10.1471C4.68467 10.1678 5.00391 10.1749 5.32161 10.1673L5.3724 10.1686C5.62512 10.1881 5.82712 10.3968 5.83333 10.6556C5.83939 10.9143 5.64778 11.1317 5.39648 11.1634L5.34505 11.1673C4.996 11.1757 4.64755 11.1676 4.30078 11.1452L3.95443 11.1178L3.90365 11.1107C3.65511 11.062 3.47837 10.8319 3.50195 10.5742C3.52561 10.3167 3.74105 10.1226 3.99414 10.1198L4.04557 10.1217Z" fill="currentColor"/>
<path fill-rule="evenodd" clip-rule="evenodd" d="M8 6.10743C9.01252 6.10743 9.83333 6.92824 9.83333 7.94076C9.83333 8.95328 9.01252 9.77409 8 9.77409C6.98763 9.77392 6.16667 8.95317 6.16667 7.94076C6.16667 6.92835 6.98763 6.1076 8 6.10743ZM8 7.10743C7.53991 7.1076 7.16667 7.48063 7.16667 7.94076C7.16667 8.40089 7.53991 8.77392 8 8.77409C8.46024 8.77409 8.83333 8.401 8.83333 7.94076C8.83333 7.48052 8.46024 7.10743 8 7.10743Z" fill="currentColor"/>
<path d="M11.0033 4.83399C11.2358 4.83551 11.4681 4.84435 11.6992 4.85938L12.0456 4.88672L12.0964 4.89388C12.3451 4.9424 12.5217 5.17255 12.498 5.43034C12.4744 5.68802 12.2591 5.88211 12.0059 5.88477L11.9544 5.88282L11.6341 5.85743C11.4212 5.84358 11.2085 5.83538 10.9967 5.83399L10.6797 5.83724C10.4038 5.8441 10.1738 5.62614 10.1667 5.35026C10.1596 5.07442 10.3779 4.84459 10.6536 4.83724L11.0033 4.83399Z" fill="currentColor"/>
<path fill-rule="evenodd" clip-rule="evenodd" d="M8.36003 3.11589C9.98428 2.75761 11.6669 2.74029 13.3001 3.06706L13.2995 3.06771L13.5612 3.11914L13.6621 3.14388C14.1549 3.2886 14.4999 3.74125 14.5 4.26303V11.4889C14.5 12.2252 13.8263 12.7775 13.1042 12.6328C11.5073 12.3135 9.85977 12.3523 8.27995 12.7467L8.2806 12.7474L8.1224 12.7871L8.12109 12.7878C6.29344 13.2443 4.38709 13.2898 2.53971 12.9199H2.53841L2.4388 12.8991C1.89216 12.7905 1.5 12.3111 1.5 11.7559V4.52995C1.5 3.79363 2.17321 3.24225 2.89453 3.38542C4.49184 3.70488 6.14044 3.66557 7.7207 3.27084L8.03646 3.19206L8.36003 3.11589ZM13.1042 4.04753C11.6073 3.74804 10.0646 3.764 8.57552 4.09245L8.27865 4.16211L7.96289 4.24089C6.23943 4.67137 4.44229 4.71429 2.69987 4.36589C2.59596 4.34524 2.5 4.42504 2.5 4.52995V11.7559C2.5 11.8254 2.54291 11.8864 2.60547 11.9108L2.63346 11.9186L2.63542 11.9193L2.73568 11.9395C4.43716 12.2801 6.19369 12.2382 7.8776 11.8177L8.03516 11.778L8.03711 11.7773L8.36068 11.7012C9.87659 11.3668 11.4429 11.3297 12.9733 11.5918L13.3008 11.6523L13.3392 11.6556C13.4267 11.6529 13.5 11.5808 13.5 11.4889V4.26303C13.4999 4.18387 13.4445 4.11559 13.3652 4.09961L13.1042 4.04753Z" fill="currentColor"/>
</svg>
