<svg width="16" height="16" viewBox="0 0 16 16" fill="none" xmlns="http://www.w3.org/2000/svg">
<path d="M5.00391 10.4722C4.53988 10.4722 4.16348 10.848 4.16341 11.312C4.16341 11.3277 4.16452 11.3434 4.16536 11.3589C4.16725 11.3745 4.16887 11.3903 4.16927 11.4064C4.21615 11.8261 4.57172 12.1525 5.00391 12.1525C5.38422 12.1525 5.70504 11.8995 5.80859 11.5529C5.79062 11.5013 5.7793 11.4465 5.7793 11.3888C5.7793 11.3102 5.79836 11.2363 5.83073 11.1701C5.76314 10.7738 5.41944 10.4722 5.00391 10.4722ZM10.6836 10.4722C10.2196 10.4722 9.84317 10.848 9.8431 11.312C9.84697 11.3371 9.84961 11.3627 9.84961 11.3888C9.84961 11.3943 9.84848 11.3997 9.84831 11.4051C9.89456 11.8254 10.251 12.1525 10.6836 12.1525C11.1477 12.1525 11.5241 11.7761 11.5241 11.312C11.524 10.848 11.1476 10.4722 10.6836 10.4722ZM9.74479 8.66553V5.66748C9.73545 5.62927 9.72917 5.58943 9.72917 5.54834C9.72919 5.50716 9.73538 5.46748 9.74479 5.4292V4.53076C9.74479 4.43921 9.72709 4.34842 9.69206 4.26383C9.65705 4.17933 9.60567 4.10262 9.54102 4.03792C9.47628 3.97319 9.39904 3.92192 9.31445 3.88688C9.25111 3.86066 9.18452 3.84347 9.11654 3.83675L9.04818 3.8335H3.19727C3.01237 3.8335 2.83517 3.90718 2.70443 4.03792C2.57368 4.16867 2.5 4.34586 2.5 4.53076V10.2222C2.50002 10.407 2.5737 10.5843 2.70443 10.715C2.83516 10.8457 3.01241 10.9194 3.19727 10.9194H3.20703C3.38706 10.0919 4.12244 9.47217 5.00391 9.47217C5.87437 9.47221 6.60158 10.0768 6.79297 10.8888H8.89453C9.08593 10.0768 9.81311 9.47218 10.6836 9.47217C11.5459 9.47217 12.2672 10.0656 12.4668 10.866H13.5156V8.25732L13.5078 8.16553C13.4927 8.07512 13.4563 7.9891 13.401 7.91488L12.0573 6.12777L12.0247 6.09456C12.0126 6.08472 11.9992 6.07606 11.985 6.06917C11.9569 6.05553 11.9258 6.04831 11.8945 6.04834H10.7448V8.66553C10.7448 8.94167 10.5209 9.16553 10.2448 9.16553C9.96878 9.16537 9.74479 8.94157 9.74479 8.66553ZM10.7448 5.04834H11.8939L12.0299 5.05615C12.1657 5.07145 12.2984 5.11013 12.4219 5.17008C12.5452 5.22999 12.6573 5.31 12.7533 5.40706L12.8438 5.50993L12.8503 5.51839L14.2005 7.31396L14.2012 7.31527L14.2728 7.41878C14.4294 7.66737 14.5137 7.95598 14.5156 8.25146V11.2463C14.5156 11.4106 14.4502 11.5682 14.334 11.6844C14.2178 11.8006 14.0602 11.866 13.8958 11.866H12.4388C12.2037 12.6117 11.5069 13.1525 10.6836 13.1525C9.86882 13.1525 9.17893 12.6225 8.93685 11.8888H6.75C6.50787 12.6224 5.81859 13.1525 5.00391 13.1525C4.2006 13.1525 3.51931 12.637 3.26823 11.9194H3.19727C2.74719 11.9194 2.31567 11.7403 1.9974 11.422C1.67913 11.1038 1.50002 10.6723 1.5 10.2222V4.53076C1.5 4.08065 1.67912 3.64917 1.9974 3.33089C2.31567 3.01261 2.74715 2.8335 3.19727 2.8335H9.04818L9.21419 2.84196C9.37995 2.85828 9.54282 2.89845 9.69727 2.9624C9.90318 3.04769 10.0905 3.1733 10.248 3.33089C10.4055 3.48841 10.5306 3.67525 10.6159 3.88102C10.7012 4.08693 10.7448 4.30789 10.7448 4.53076V5.04834Z" fill="currentColor"/>
</svg>
