<svg width="16" height="16" viewBox="0 0 16 16" fill="none" xmlns="http://www.w3.org/2000/svg">
<path d="M2.83398 12.7201V3.19141C2.83398 2.74269 3.01259 2.31189 3.33008 1.99479C3.64753 1.67785 4.07809 1.5 4.52669 1.5H9.80729L9.9388 1.50781C10.0691 1.52353 10.196 1.56284 10.3132 1.6237C10.4303 1.68455 10.5353 1.76565 10.623 1.86328L10.7051 1.96615V1.9668L13.1764 5.49154L13.222 5.5625C13.3218 5.73094 13.375 5.92362 13.375 6.12044V12.7201C13.375 13.1687 13.1963 13.5989 12.8789 13.916C12.5615 14.2331 12.1309 14.4114 11.6823 14.4115H4.52669C4.07801 14.4115 3.64754 14.2331 3.33008 13.916C3.01259 13.5989 2.83399 13.1688 2.83398 12.7201ZM10.5938 10.1243C10.8698 10.1245 11.0938 10.3483 11.0938 10.6243C11.0937 10.9003 10.8697 11.1242 10.5938 11.1243H5.4082C5.13216 11.1243 4.9083 10.9004 4.9082 10.6243C4.9082 10.3482 5.1321 10.1244 5.4082 10.1243H10.5938ZM10.5938 8.2513L10.6445 8.25391C10.8967 8.27949 11.0938 8.4924 11.0938 8.7513C11.0937 9.01019 10.8967 9.22312 10.6445 9.2487L10.5938 9.2513H5.4082C5.13211 9.25126 4.90823 9.0274 4.9082 8.7513C4.9082 8.47519 5.1321 8.25135 5.4082 8.2513H10.5938ZM10.5938 6.17708L10.6445 6.17969C10.8966 6.20524 11.0936 6.41831 11.0938 6.67708C11.0938 6.936 10.8967 7.14957 10.6445 7.17513L10.5938 7.17708H5.4082C5.1321 7.17704 4.9082 6.9532 4.9082 6.67708C4.90837 6.40111 5.1322 6.17713 5.4082 6.17708H10.5938ZM9.03776 4.10807L9.08919 4.11068C9.34119 4.13634 9.53766 4.34933 9.53776 4.60807C9.53776 4.8669 9.34124 5.07978 9.08919 5.10547L9.03776 5.10807H5.4082C5.1321 5.10803 4.9082 4.88419 4.9082 4.60807C4.90831 4.33205 5.13216 4.10812 5.4082 4.10807H9.03776ZM3.83398 12.7201C3.83399 12.9031 3.90675 13.0787 4.03646 13.2083C4.1663 13.338 4.34281 13.4115 4.52669 13.4115H11.6823C11.8661 13.4114 12.0421 13.338 12.1719 13.2083C12.3017 13.0787 12.375 12.9031 12.375 12.7201V6.12044C12.375 6.1107 12.3734 6.10101 12.3704 6.0918L12.3574 6.06575L9.88607 2.54102V2.54036C9.87732 2.5281 9.8657 2.5181 9.85221 2.51107C9.84539 2.50753 9.83816 2.50443 9.83073 2.5026L9.80729 2.5H4.52669C4.34281 2.5 4.1663 2.5728 4.03646 2.70247C3.90664 2.83213 3.83398 3.00831 3.83398 3.19141V12.7201Z" fill="#176CF7"/>
</svg>
