<svg width="96" height="77" viewBox="0 0 96 77" fill="none" xmlns="http://www.w3.org/2000/svg">
<path d="M68.6314 54.6602H50.8411H49.6379L55.0524 62.7388L74.1318 61.5356L68.6314 54.6602Z" fill="white" stroke="white"/>
<path d="M78.0981 7.5C78.5486 6.92723 79.3595 6.89238 79.9224 7.4209C80.2986 7.77447 80.3208 7.91572 80.3208 10.0312C80.3208 12.0908 80.2909 12.2996 79.9468 12.666C79.4184 13.2281 78.5637 13.2023 78.0981 12.6104C77.7818 12.2084 77.7417 11.9216 77.7417 10.0557C77.7417 8.18915 77.7817 7.90204 78.0981 7.5ZM28.0005 6C28.5525 6.00026 29.0005 6.44788 29.0005 7V10C29.0005 10.5521 28.5525 10.9997 28.0005 11C27.4482 11 27.0005 10.5523 27.0005 10V7C27.0005 6.44772 27.4482 6 28.0005 6ZM18.0063 1.40332C18.8379 0.673354 19.385 0.55558 19.9604 0.983398C20.6761 1.51573 20.6644 2.33476 19.9292 3.18457L19.3394 3.86719L19.9214 4.5127C21.3862 6.13524 19.6235 7.84786 18.103 6.2793L17.5249 5.68359L16.8657 6.2793C16.0651 7.00277 15.2148 7.08756 14.6665 6.49902C14.1454 5.93971 14.2278 5.32114 14.9341 4.49609L15.5522 3.77441L14.9341 3.08984C14.1008 2.16758 14.1524 1.23019 15.0571 0.856445C15.6133 0.627015 16.2238 0.81727 16.8423 1.41211L17.3931 1.94141L18.0063 1.40332ZM28.9644 0C30.1712 7.64945e-06 30.3624 0.0453567 30.7388 0.421875C31.504 1.18694 31.1297 2.30016 30.0386 2.50488C29.5652 2.59371 29.442 2.69716 29.4419 3.00781C29.4419 3.56389 28.9325 4.10588 28.2935 4.22949C27.8521 4.31475 27.66 4.25034 27.3042 3.89453C26.907 3.49731 26.8638 3.32175 26.8638 2.125C26.8638 0.997339 26.9197 0.73518 27.2368 0.397461C27.5662 0.046984 27.7723 0 28.9644 0ZM78.1958 0C79.3236 0 79.5846 0.0568925 79.9224 0.374023C80.2728 0.703334 80.3208 0.908603 80.3208 2.10059C80.3208 3.32378 80.2782 3.49578 79.8794 3.89453C79.5236 4.25031 79.3325 4.31472 78.8911 4.22949C78.2519 4.10608 77.7417 3.56404 77.7417 3.00781C77.7416 2.69716 77.6184 2.59371 77.145 2.50488C76.0542 2.30002 75.6798 1.18686 76.4448 0.421875C76.8199 0.0466485 77.0141 5.03089e-07 78.1958 0ZM36.6069 0C38.609 0 38.8197 0.0309759 39.1851 0.374023C39.7123 0.869501 39.7028 1.615 39.1616 2.15625C38.761 2.55709 38.6364 2.57812 36.6919 2.57812C34.8812 2.57812 34.5925 2.53691 34.1919 2.22168C33.6246 1.77527 33.5709 0.855598 34.0825 0.34375C34.3902 0.0360848 34.6557 2.79929e-06 36.6069 0ZM45.1138 0C47.0887 3.42891e-06 47.3537 0.0358725 47.6616 0.34375C48.2203 0.902382 48.1788 1.63277 47.5571 2.19141C47.1614 2.54691 46.9607 2.57812 45.0659 2.57812C43.1072 2.57812 42.9845 2.55741 42.5835 2.15625C42.0589 1.63165 42.0399 0.925315 42.5356 0.397461C42.8884 0.0222541 43.0324 0 45.1138 0ZM62.0464 0C64.0485 3.88646e-08 64.2591 0.0309379 64.6245 0.374023C65.1518 0.869573 65.1415 1.61501 64.6001 2.15625C64.1992 2.5573 64.0764 2.57812 62.1177 2.57812C60.2227 2.57812 60.0223 2.54704 59.6265 2.19141C59.0048 1.63279 58.9634 0.902368 59.522 0.34375C59.8297 0.0360729 60.095 0 62.0464 0ZM70.5522 0C72.5277 0 72.7931 0.0357487 73.1011 0.34375C73.613 0.855628 73.5593 1.77529 72.9917 2.22168C72.591 2.53691 72.3025 2.57812 70.4917 2.57812C68.5474 2.57812 68.4235 2.557 68.0229 2.15625C67.4984 1.63165 67.4784 0.925325 67.9741 0.397461C68.3271 0.0219244 68.4706 3.27887e-06 70.5522 0ZM53.5923 0C55.6861 1.45624e-06 55.7701 0.014698 56.1968 0.441406C56.5538 0.798455 56.618 0.985874 56.5298 1.42676C56.3304 2.42368 56.1405 2.49218 53.5708 2.49219C51.3304 2.49219 51.2284 2.47704 50.9126 2.08691C50.4657 1.53516 50.5001 0.927909 51.0063 0.421875C51.4094 0.0187123 51.5241 0 53.5923 0Z" fill="#002D84"/>
<rect x="82.26" y="27.1904" width="2.14634" height="23.6068" rx="1.07317" transform="rotate(-0.0407076 82.26 27.1904)" fill="white"/>
<rect x="82.2678" y="23.6113" width="2.14634" height="2.05959" rx="1.02979" transform="rotate(-0.0407076 82.2678 23.6113)" fill="white"/>
<path fill-rule="evenodd" clip-rule="evenodd" d="M21.5 42.7588V13.7588C21.5 12.6542 22.3954 11.7588 23.5 11.7588H45.8175C46.5774 11.7588 47.309 12.0471 47.8645 12.5656L53.6355 17.952C54.191 18.4704 54.9226 18.7588 55.6825 18.7588H85.5C86.6046 18.7588 87.5 19.6542 87.5 20.7588V66.7588L23.5 65.2588L21.5 42.7588ZM53.5 46.7588C57.366 46.7588 60.5 43.6248 60.5 39.7588C60.5 35.8928 57.366 32.7588 53.5 32.7588C49.634 32.7588 46.5 35.8928 46.5 39.7588C46.5 43.6248 49.634 46.7588 53.5 46.7588Z" fill="url(#paint0_linear_1071_59544)"/>
<path d="M65.589 42.7588H4.35788C2.64762 42.7588 1.72636 44.7662 2.84151 46.0629L20.3265 66.3943C21.0728 67.262 22.1551 67.7686 23.2995 67.7856L84.2326 68.6951C85.9277 68.7204 86.8836 66.7575 85.8183 65.4386L68.7008 44.2454C67.9414 43.3052 66.7976 42.7588 65.589 42.7588Z" fill="url(#paint1_linear_1071_59544)"/>
<path d="M54.8997 62.02L50.3249 56.3894C49.7939 55.7359 50.2589 54.7588 51.101 54.7588H68.0481C68.6503 54.7588 69.2205 55.0302 69.6003 55.4976L74.1751 61.1282C74.7061 61.7817 74.2411 62.7588 73.399 62.7588H56.4519C55.8497 62.7588 55.2795 62.4874 54.8997 62.02Z" fill="url(#paint2_linear_1071_59544)"/>
<rect x="40.5" y="56.7588" width="5" height="2" rx="1" fill="url(#paint3_linear_1071_59544)"/>
<rect x="37.5" y="59.7588" width="8" height="2" rx="1" fill="url(#paint4_linear_1071_59544)"/>
<circle cx="85" cy="66.2588" r="10.5" fill="url(#paint5_linear_1071_59544)"/>
<line x1="87.6692" y1="69.0137" x2="82.0089" y2="63.3534" stroke="white" stroke-width="3" stroke-linecap="round"/>
<line x1="87.8833" y1="63.3528" x2="82.223" y2="69.0131" stroke="white" stroke-width="3" stroke-linecap="round"/>
<defs>
<linearGradient id="paint0_linear_1071_59544" x1="77.5" y1="18.7686" x2="50.5" y2="55.7686" gradientUnits="userSpaceOnUse">
<stop stop-color="#5193FF"/>
<stop offset="1" stop-color="#045FF2"/>
</linearGradient>
<linearGradient id="paint1_linear_1071_59544" x1="23.5" y1="66.7588" x2="65" y2="46.7588" gradientUnits="userSpaceOnUse">
<stop stop-color="#FFC00E"/>
<stop offset="1" stop-color="#FECE48"/>
</linearGradient>
<linearGradient id="paint2_linear_1071_59544" x1="62.25" y1="54.7588" x2="62.25" y2="62.7588" gradientUnits="userSpaceOnUse">
<stop stop-color="#176CF7"/>
<stop offset="1" stop-color="#0C36C1"/>
</linearGradient>
<linearGradient id="paint3_linear_1071_59544" x1="40.5" y1="58.7588" x2="45" y2="57.2588" gradientUnits="userSpaceOnUse">
<stop stop-color="#0060FF"/>
<stop offset="1" stop-color="#3581FF"/>
</linearGradient>
<linearGradient id="paint4_linear_1071_59544" x1="37" y1="62.7588" x2="42.5" y2="60.2588" gradientUnits="userSpaceOnUse">
<stop stop-color="#0060FF"/>
<stop offset="1" stop-color="#3581FF"/>
</linearGradient>
<linearGradient id="paint5_linear_1071_59544" x1="91.5624" y1="57.5684" x2="78.7208" y2="74.5377" gradientUnits="userSpaceOnUse">
<stop stop-color="#FF4E4E"/>
<stop offset="1" stop-color="#F71717"/>
</linearGradient>
</defs>
</svg>
