<svg width="14" height="14" viewBox="0 0 14 14" fill="none" xmlns="http://www.w3.org/2000/svg">
<g clip-path="url(#clip0_270_59196)">
<path d="M11.6667 3.50517H11.3948C11.571 3.18308 11.6644 2.82228 11.6667 2.45517C11.6669 1.96089 11.5059 1.48002 11.2082 1.08551C10.8936 0.671036 10.4651 0.357237 9.975 0.182507C9.46832 -0.00148042 8.92139 -0.0454118 8.39183 0.0553407C7.87231 0.149802 7.38993 0.38877 7 0.744841C6.61081 0.387695 6.12882 0.147507 5.60933 0.0518407C5.07978 -0.0489119 4.53285 -0.00498045 4.02617 0.179007C3.53607 0.353737 3.10754 0.667536 2.793 1.08201C2.49408 1.47733 2.33265 1.95956 2.33333 2.45517C2.3356 2.82228 2.429 3.18308 2.60517 3.50517H2.33333C1.72661 3.50063 1.13942 3.71948 0.683667 4.12001C0.471452 4.30537 0.300834 4.53352 0.183009 4.78948C0.0651849 5.04544 0.00281758 5.32341 0 5.60517V7.00517C0.00167226 7.09944 0.0233364 7.19228 0.0635598 7.27756C0.103783 7.36283 0.16165 7.43859 0.233333 7.49984C0.385094 7.6334 0.580675 7.70648 0.782833 7.70517H1.561V11.9052C1.56398 12.1867 1.62643 12.4645 1.74425 12.7202C1.86207 12.976 2.0326 13.2039 2.24467 13.3892C2.70048 13.7896 3.28763 14.0084 3.89433 14.004H10.1162C10.7229 14.0084 11.31 13.7896 11.7658 13.3892C11.9779 13.2039 12.1484 12.976 12.2663 12.7202C12.3841 12.4645 12.4465 12.1867 12.4495 11.9052V7.70517H13.2277C13.4298 7.70648 13.6254 7.6334 13.7772 7.49984C13.8469 7.43763 13.9028 7.36144 13.9412 7.27622C13.9796 7.19099 13.9996 7.09865 14 7.00517V5.60517C13.997 5.32361 13.9346 5.04586 13.8168 4.79011C13.6989 4.53437 13.5284 4.30641 13.3163 4.12117C12.8607 3.72022 12.2735 3.50096 11.6667 3.50517ZM6.22183 12.6052H3.8885C3.68634 12.6065 3.49076 12.5334 3.339 12.3998C3.26732 12.3386 3.20945 12.2628 3.16923 12.1776C3.129 12.0923 3.10734 11.9994 3.10567 11.9052V7.70517H6.22183V12.6052ZM6.22183 6.30517H1.55517V5.60517C1.55684 5.5109 1.5785 5.41806 1.61873 5.33279C1.65895 5.24752 1.71682 5.17175 1.7885 5.11051C1.93906 4.97801 2.13278 4.90501 2.33333 4.90517H6.22183V6.30517ZM6.22183 3.50517H5.05517C4.82688 3.50586 4.60269 3.44457 4.4065 3.32784C4.22002 3.21862 4.07049 3.05609 3.97717 2.86117C3.88902 2.67173 3.86566 2.45855 3.91067 2.25451C3.95838 2.04622 4.07017 1.85812 4.23033 1.71667C4.39892 1.56738 4.60576 1.468 4.82767 1.42967C5.05372 1.3888 5.2866 1.40934 5.502 1.48917C5.71017 1.56473 5.89208 1.69883 6.02583 1.87534C6.15275 2.04343 6.22191 2.24805 6.223 2.45867L6.22183 3.50517ZM7.777 2.45517C7.77809 2.24455 7.84725 2.03993 7.97417 1.87184C8.10792 1.69533 8.28983 1.56123 8.498 1.48567C8.7134 1.40584 8.94628 1.3853 9.17233 1.42617C9.39424 1.4645 9.60108 1.56388 9.76967 1.71317C9.92983 1.85462 10.0416 2.04272 10.0893 2.25101C10.1343 2.45505 10.111 2.66823 10.0228 2.85767C9.9295 3.05259 9.77998 3.21512 9.5935 3.32434C9.39766 3.4423 9.17345 3.5048 8.94483 3.50517H7.77817L7.777 2.45517ZM10.8885 11.9052C10.8868 11.9994 10.8652 12.0923 10.8249 12.1776C10.7847 12.2628 10.7269 12.3386 10.6552 12.3998C10.5034 12.5334 10.3078 12.6065 10.1057 12.6052H7.77233V7.70517H10.8838L10.8885 11.9052ZM12.4437 6.30517H7.777V4.90517H11.6667C11.8688 4.90386 12.0644 4.97695 12.2162 5.11051C12.2878 5.17175 12.3457 5.24752 12.3859 5.33279C12.4262 5.41806 12.4478 5.5109 12.4495 5.60517L12.4437 6.30517Z" fill="#FF7A00"/>
</g>
<defs>
<clipPath id="clip0_270_59196">
<rect width="14" height="14" fill="white"/>
</clipPath>
</defs>
</svg>
