<svg width="1219" height="359" viewBox="0 0 1219 359" fill="none" xmlns="http://www.w3.org/2000/svg">
<path d="M400.092 184.486C400.092 205.195 394.061 225.44 382.762 242.659C371.463 259.879 355.404 273.299 336.614 281.224C317.825 289.149 297.15 291.222 277.204 287.181C257.257 283.14 238.935 273.167 224.556 258.523C210.175 243.878 200.383 225.22 196.416 204.908C192.45 184.596 194.487 163.542 202.271 144.409C210.056 125.276 223.236 108.924 240.147 97.4199C257.057 85.9149 276.939 79.7756 297.276 79.7773C310.779 79.7773 324.15 82.4861 336.625 87.7481C349.1 93.0101 360.436 100.722 369.984 110.446C379.532 120.169 387.106 131.712 392.274 144.415C397.441 157.119 400.101 170.735 400.101 184.486" fill="#FFC217"/>
<path d="M14.8216 135.897C17.2658 135.866 19.6773 136.45 21.8261 137.592C23.9748 138.733 25.7892 140.395 27.0961 142.418C37.4409 136.888 49.3403 134.8 61.0013 136.472C72.6623 138.142 83.4533 143.481 91.7471 151.682C99.0571 144.318 108.422 139.23 118.67 137.055C128.918 134.88 139.593 135.715 149.358 139.456C159.123 143.196 167.546 149.676 173.569 158.083C179.594 166.49 182.952 176.452 183.224 186.72V234.287C183.103 238.032 181.479 241.579 178.703 244.157C175.928 246.735 172.226 248.136 168.402 248.055C166.522 248.091 164.654 247.763 162.904 247.09C161.154 246.418 159.556 245.413 158.203 244.134C156.851 242.854 155.769 241.326 155.021 239.637C154.273 237.946 153.872 236.129 153.843 234.287V186.729C153.843 180.555 151.339 174.634 146.882 170.268C142.426 165.902 136.382 163.45 130.08 163.45C123.777 163.45 117.733 165.902 113.276 170.268C108.82 174.634 106.316 180.555 106.316 186.729V234.287C106.287 236.129 105.887 237.946 105.138 239.637C104.39 241.326 103.308 242.854 101.956 244.134C100.602 245.413 99.0053 246.418 97.2555 247.09C95.5048 247.763 93.6361 248.091 91.7568 248.055C87.9294 248.14 84.2226 246.742 81.4437 244.164C78.6644 241.585 77.0373 238.035 76.9168 234.287V186.729C76.9168 180.555 74.4132 174.634 69.9568 170.268C65.5003 165.902 59.456 163.45 53.1536 163.45C46.8511 163.45 40.8068 165.902 36.3504 170.268C31.8939 174.634 29.3902 180.555 29.3902 186.729V234.287C29.3609 236.129 28.9606 237.946 28.2122 239.637C27.4639 241.326 26.3823 242.854 25.0295 244.134C23.6768 245.413 22.0794 246.418 20.3293 247.09C18.579 247.763 16.7104 248.091 14.8306 248.055C11.0052 248.138 7.30097 246.739 4.5236 244.16C1.74624 241.582 0.120483 238.034 0 234.287V149.682C0.115819 145.934 1.73828 142.383 4.5142 139.801C7.29012 137.219 10.9947 135.816 14.8216 135.897Z" fill="white"/>
<path d="M411.319 191.964C411.413 184.499 412.989 177.126 415.96 170.265C418.93 163.405 423.236 157.193 428.63 151.983C434.025 146.775 440.402 142.672 447.397 139.909C454.394 137.146 461.869 135.779 469.399 135.884C479.986 135.886 490.373 138.74 499.451 144.141C500.584 141.588 502.468 139.432 504.857 137.959C507.247 136.485 510.029 135.762 512.84 135.884C514.698 135.846 516.545 136.174 518.276 136.846C520.007 137.519 521.587 138.523 522.924 139.803C524.262 141.083 525.331 142.612 526.072 144.302C526.812 145.992 527.208 147.812 527.237 149.654V234.275C527.208 236.118 526.812 237.937 526.072 239.627C525.331 241.318 524.262 242.847 522.924 244.126C521.587 245.407 520.007 246.411 518.276 247.084C516.545 247.756 514.698 248.083 512.84 248.045C510.029 248.167 507.247 247.444 504.857 245.971C502.468 244.497 500.584 242.342 499.451 239.789C490.373 245.191 479.986 248.045 469.399 248.045C461.869 248.151 454.394 246.783 447.397 244.02C440.402 241.258 434.025 237.155 428.63 231.946C423.236 226.737 418.93 220.525 415.96 213.664C412.989 206.804 411.413 199.43 411.319 191.964ZM440.355 191.964C440.284 197.645 441.917 203.219 445.046 207.978C448.175 212.737 452.66 216.467 457.93 218.695C463.201 220.923 469.021 221.548 474.651 220.492C480.281 219.434 485.467 216.743 489.551 212.759C493.637 208.775 496.436 203.678 497.593 198.114C498.752 192.55 498.217 186.771 496.057 181.509C493.897 176.247 490.209 171.74 485.461 168.56C480.713 165.379 475.12 163.669 469.39 163.646C465.607 163.612 461.855 164.318 458.348 165.723C454.84 167.129 451.647 169.206 448.95 171.836C446.253 174.466 444.106 177.598 442.631 181.052C441.156 184.506 440.383 188.214 440.355 191.964Z" fill="white"/>
<path d="M549.672 196.573V116.167C549.792 112.373 551.406 108.779 554.162 106.167C556.92 103.555 560.597 102.136 564.395 102.218C566.263 102.18 568.12 102.511 569.86 103.193C571.6 103.874 573.187 104.892 574.532 106.188C575.876 107.484 576.952 109.033 577.696 110.746C578.44 112.459 578.838 114.301 578.867 116.167V134.187H597.142C599.035 134.12 600.921 134.434 602.689 135.11C604.456 135.787 606.069 136.814 607.432 138.127C608.794 139.441 609.878 141.015 610.618 142.756C611.359 144.497 611.74 146.37 611.74 148.262C611.74 150.153 611.359 152.026 610.618 153.768C609.878 155.508 608.794 157.083 607.432 158.397C606.069 159.71 604.456 160.736 602.689 161.413C600.921 162.09 599.035 162.404 597.142 162.337H578.867V196.582C578.914 202.798 581.425 208.741 585.849 213.11C590.274 217.479 596.251 219.917 602.472 219.891H613.381C615.291 219.794 617.2 220.087 618.993 220.751C620.786 221.415 622.425 222.436 623.81 223.752C625.197 225.068 626.3 226.653 627.054 228.409C627.807 230.164 628.196 232.055 628.196 233.965C628.196 235.876 627.807 237.767 627.054 239.523C626.3 241.278 625.197 242.862 623.81 244.179C622.425 245.495 620.786 246.517 618.993 247.18C617.2 247.844 615.291 248.137 613.381 248.041H602.472C595.622 248.124 588.822 246.859 582.462 244.317C576.102 241.775 570.305 238.006 565.403 233.225C560.5 228.444 556.589 222.745 553.892 216.452C551.194 210.161 549.763 203.399 549.682 196.556" fill="white"/>
<path d="M635.693 234.079V186.861C635.848 173.221 641.529 160.198 651.491 150.648C661.453 141.096 674.883 135.796 688.837 135.909C696.016 135.883 703.129 137.262 709.755 139.964C716.382 142.667 722.388 146.637 727.421 151.642C734.746 144.28 744.136 139.199 754.406 137.038C764.677 134.876 775.373 135.731 785.149 139.495C794.924 143.259 803.343 149.763 809.345 158.191C815.355 166.619 818.672 176.593 818.899 186.861V234.071C818.866 235.94 818.454 237.786 817.693 239.501C816.925 241.216 815.825 242.767 814.449 244.066C813.074 245.365 811.448 246.385 809.668 247.07C807.888 247.755 805.987 248.09 804.076 248.056C802.176 248.086 800.289 247.747 798.524 247.058C796.76 246.37 795.153 245.345 793.798 244.044C792.442 242.742 791.364 241.19 790.628 239.478C789.892 237.766 789.51 235.928 789.507 234.071V186.861C789.507 180.701 787.004 174.792 782.547 170.436C778.09 166.08 772.046 163.632 765.744 163.632C759.442 163.632 753.398 166.08 748.941 170.436C744.484 174.792 741.981 180.701 741.981 186.861V234.071C741.977 235.928 741.596 237.766 740.86 239.478C740.123 241.19 739.046 242.742 737.69 244.044C736.334 245.345 734.728 246.37 732.963 247.058C731.199 247.747 729.312 248.086 727.412 248.056C725.5 248.09 723.599 247.755 721.818 247.07C720.038 246.385 718.413 245.365 717.037 244.066C715.66 242.767 714.559 241.216 713.796 239.501C713.033 237.786 712.624 235.94 712.591 234.071V186.861C712.591 180.701 710.087 174.792 705.631 170.436C701.174 166.08 695.13 163.632 688.828 163.632C682.526 163.632 676.481 166.08 672.025 170.436C667.568 174.792 665.064 180.701 665.064 186.861V234.071C665.061 235.928 664.68 237.766 663.944 239.478C663.207 241.19 662.129 242.742 660.774 244.044C659.419 245.345 657.812 246.37 656.048 247.058C654.283 247.747 652.396 248.086 650.496 248.056C648.583 248.09 646.683 247.755 644.902 247.07C643.122 246.385 641.497 245.365 640.12 244.066C638.744 242.767 637.643 241.216 636.88 239.501C636.117 237.786 635.708 235.94 635.675 234.071" fill="white"/>
<path d="M833.856 149.852C833.889 147.983 834.31 146.138 835.086 144.425C835.861 142.71 836.983 141.159 838.386 139.861C839.797 138.563 841.448 137.543 843.271 136.858C845.087 136.174 847.026 135.839 848.973 135.873C850.913 135.843 852.835 136.182 854.634 136.87C856.433 137.559 858.075 138.583 859.462 139.884C860.84 141.185 861.937 142.736 862.688 144.447C863.439 146.158 863.827 147.996 863.835 149.852V197.287C863.835 203.445 866.385 209.351 870.932 213.705C875.479 218.059 881.643 220.506 888.071 220.506C894.499 220.506 900.664 218.059 905.21 213.705C909.757 209.351 912.315 203.445 912.315 197.287V149.852C912.348 147.983 912.761 146.138 913.545 144.425C914.321 142.71 915.443 141.159 916.846 139.861C918.248 138.563 919.907 137.543 921.723 136.858C923.538 136.174 925.477 135.839 927.433 135.873C929.372 135.843 931.295 136.182 933.094 136.87C934.893 137.559 936.535 138.583 937.913 139.884C939.299 141.185 940.397 142.736 941.148 144.447C941.899 146.158 942.286 147.996 942.295 149.852V197.287C941.973 210.857 936.122 223.768 925.989 233.257C915.855 242.745 902.248 248.059 888.079 248.059C873.911 248.059 860.303 242.745 850.17 233.257C840.037 223.768 834.186 210.857 833.864 197.287L833.856 149.852Z" fill="white"/>
<path d="M953.528 192.039C953.856 177.032 960.1 162.749 970.933 152.25C981.766 141.75 996.325 135.871 1011.48 135.871C1026.63 135.871 1041.19 141.75 1052.02 152.25C1062.86 162.749 1069.1 177.032 1069.43 192.039V234.052C1069.43 235.912 1069.05 237.752 1068.33 239.466C1067.6 241.18 1066.53 242.734 1065.19 244.037C1063.85 245.339 1062.27 246.365 1060.52 247.055C1058.77 247.745 1056.91 248.084 1055.03 248.054C1052.23 248.123 1049.47 247.377 1047.09 245.91C1044.71 244.443 1042.81 242.318 1041.65 239.798C1032.56 245.166 1022.17 248.017 1011.59 248.054C996.397 248.224 981.75 242.425 970.869 231.927C959.98 221.428 953.744 207.085 953.512 192.039H953.528ZM1011.59 220.325C1017.25 220.252 1022.76 218.523 1027.42 215.355C1032.09 212.188 1035.7 207.724 1037.81 202.527C1039.92 197.328 1040.42 191.629 1039.27 186.145C1038.11 180.662 1035.35 175.639 1031.32 171.71C1027.28 167.782 1022.16 165.123 1016.61 164.069C1011.05 163.015 1005.31 163.612 1000.1 165.785C994.885 167.959 990.432 171.612 987.314 176.283C984.188 180.955 982.533 186.437 982.557 192.039C982.637 199.596 985.739 206.813 991.184 212.113C996.62 217.413 1003.96 220.365 1011.59 220.325Z" fill="white"/>
<path d="M1088.13 196.573V116.167C1088.25 112.373 1089.86 108.779 1092.62 106.167C1095.37 103.555 1099.05 102.136 1102.85 102.218C1104.71 102.18 1106.57 102.511 1108.31 103.193C1110.05 103.874 1111.64 104.892 1112.98 106.188C1114.33 107.484 1115.4 109.033 1116.14 110.746C1116.89 112.459 1117.28 114.301 1117.32 116.167V134.187H1135.59C1137.48 134.12 1139.36 134.434 1141.13 135.11C1142.9 135.787 1144.51 136.814 1145.88 138.127C1147.24 139.441 1148.32 141.015 1149.06 142.756C1149.8 144.497 1150.19 146.37 1150.19 148.262C1150.19 150.153 1149.8 152.026 1149.06 153.768C1148.32 155.508 1147.24 157.083 1145.88 158.397C1144.51 159.71 1142.9 160.736 1141.13 161.413C1139.36 162.09 1137.48 162.404 1135.59 162.337H1117.32V196.582C1117.36 202.798 1119.87 208.741 1124.3 213.11C1128.72 217.479 1134.7 219.917 1140.91 219.891H1151.83C1153.75 219.794 1155.65 220.087 1157.44 220.751C1159.23 221.415 1160.87 222.436 1162.26 223.752C1163.65 225.068 1164.75 226.653 1165.5 228.409C1166.26 230.164 1166.65 232.055 1166.65 233.965C1166.65 235.876 1166.26 237.767 1165.5 239.523C1164.75 241.278 1163.65 242.862 1162.26 244.179C1160.87 245.495 1159.23 246.517 1157.44 247.18C1155.65 247.844 1153.75 248.137 1151.83 248.041H1140.91C1134.07 248.124 1127.27 246.859 1120.91 244.317C1114.55 241.775 1108.75 238.006 1103.85 233.225C1098.95 228.444 1095.04 222.745 1092.34 216.452C1089.64 210.161 1088.21 203.399 1088.13 196.556" fill="white"/>
<path d="M594.543 135.871H512.279V162.048H594.543V135.871Z" fill="white"/>
<path d="M243.052 183.448C243.086 181.587 243.503 179.751 244.281 178.044C245.06 176.337 246.183 174.793 247.587 173.5C248.991 172.208 250.649 171.192 252.466 170.51C254.281 169.829 256.221 169.496 258.172 169.53C260.11 169.499 262.035 169.837 263.835 170.522C265.635 171.208 267.274 172.228 268.657 173.523C270.04 174.818 271.139 176.363 271.89 178.067C272.642 179.77 273.031 181.6 273.034 183.448V197.507C273.034 203.638 275.588 209.518 280.134 213.854C284.681 218.189 290.846 220.625 297.276 220.625C303.705 220.625 309.871 218.189 314.417 213.854C318.964 209.518 321.518 203.638 321.518 197.507V183.448C321.551 181.587 321.969 179.751 322.748 178.044C323.526 176.337 324.649 174.793 326.053 173.5C327.457 172.208 329.115 171.192 330.931 170.51C332.747 169.829 334.686 169.496 336.638 169.53C338.575 169.501 340.498 169.839 342.298 170.524C344.097 171.211 345.735 172.231 347.116 173.526C348.499 174.821 349.597 176.365 350.347 178.068C351.098 179.771 351.487 181.6 351.49 183.448V197.507C351.17 211.018 345.317 223.873 335.185 233.321C325.051 242.768 311.443 248.059 297.271 248.059C283.099 248.059 269.491 242.768 259.358 233.321C249.225 223.873 243.372 211.018 243.052 197.507V183.448Z" fill="#176CF7"/>
<path d="M272.966 147.091C272.966 150.05 272.088 152.942 270.445 155.401C268.801 157.861 266.465 159.779 263.733 160.911C260.999 162.043 257.992 162.339 255.091 161.762C252.189 161.185 249.524 159.76 247.433 157.668C245.341 155.576 243.916 152.911 243.339 150.01C242.762 147.108 243.058 144.1 244.19 141.367C245.322 138.634 247.24 136.298 249.699 134.654C252.159 133.01 255.051 132.133 258.009 132.133C261.975 132.133 265.779 133.709 268.585 136.514C271.39 139.319 272.966 143.124 272.966 147.091Z" fill="#176CF7"/>
<path d="M351.49 147.091C351.49 150.05 350.613 152.942 348.969 155.401C347.326 157.861 344.99 159.779 342.257 160.911C339.524 162.043 336.517 162.339 333.615 161.762C330.714 161.185 328.049 159.76 325.957 157.668C323.865 155.576 322.441 152.911 321.864 150.01C321.287 147.108 321.582 144.1 322.715 141.367C323.847 138.634 325.764 136.298 328.224 134.654C330.683 133.01 333.575 132.133 336.533 132.133C340.5 132.133 344.305 133.709 347.109 136.514C349.914 139.319 351.49 143.124 351.49 147.091Z" fill="#176CF7"/>
<path d="M243.052 183.448C243.086 181.587 243.503 179.751 244.281 178.044C245.06 176.337 246.183 174.793 247.587 173.5C248.991 172.208 250.649 171.192 252.466 170.51C254.281 169.829 256.221 169.496 258.172 169.53C260.11 169.499 262.035 169.837 263.835 170.522C265.635 171.208 267.274 172.228 268.657 173.523C270.04 174.818 271.139 176.363 271.89 178.067C272.642 179.77 273.031 181.6 273.034 183.448V197.507C273.034 203.638 275.588 209.518 280.134 213.854C284.681 218.189 290.846 220.625 297.276 220.625C303.705 220.625 309.871 218.189 314.417 213.854C318.964 209.518 321.518 203.638 321.518 197.507V183.448C321.551 181.587 321.969 179.751 322.748 178.044C323.526 176.337 324.649 174.793 326.053 173.5C327.457 172.208 329.115 171.192 330.931 170.51C332.747 169.829 334.686 169.496 336.638 169.53C338.575 169.501 340.498 169.839 342.298 170.524C344.097 171.211 345.735 172.231 347.116 173.526C348.499 174.821 349.597 176.365 350.347 178.068C351.098 179.771 351.487 181.6 351.49 183.448V197.507C351.17 211.018 345.317 223.873 335.185 233.321C325.051 242.768 311.443 248.059 297.271 248.059C283.099 248.059 269.491 242.768 259.358 233.321C249.225 223.873 243.372 211.018 243.052 197.507V183.448Z" fill="#176CF7"/>
<path d="M272.966 147.091C272.966 150.05 272.088 152.942 270.445 155.401C268.801 157.861 266.465 159.779 263.733 160.911C260.999 162.043 257.992 162.339 255.091 161.762C252.189 161.185 249.524 159.76 247.433 157.668C245.341 155.576 243.916 152.911 243.339 150.01C242.762 147.108 243.058 144.1 244.19 141.367C245.322 138.634 247.24 136.298 249.699 134.654C252.159 133.01 255.051 132.133 258.009 132.133C261.975 132.133 265.779 133.709 268.585 136.514C271.39 139.319 272.966 143.124 272.966 147.091Z" fill="#176CF7"/>
<path d="M351.49 147.091C351.49 150.05 350.613 152.942 348.969 155.401C347.326 157.861 344.99 159.779 342.257 160.911C339.524 162.043 336.517 162.339 333.615 161.762C330.714 161.185 328.049 159.76 325.957 157.668C323.865 155.576 322.441 152.911 321.864 150.01C321.287 147.108 321.582 144.1 322.715 141.367C323.847 138.634 325.764 136.298 328.224 134.654C330.683 133.01 333.575 132.133 336.533 132.133C340.5 132.133 344.305 133.709 347.109 136.514C349.914 139.319 351.49 143.124 351.49 147.091Z" fill="#176CF7"/>
</svg>
