<svg width="45" height="35" viewBox="0 0 45 35" fill="none" xmlns="http://www.w3.org/2000/svg">
<path d="M27.2733 7.58985C27.2733 5.43658 28.1246 3.63321 29.8273 2.17976C31.53 0.726298 33.6583 -0.000431463 36.2124 -0.000431463C38.6448 -0.000431463 40.7123 0.833961 42.415 2.50275C44.1177 4.17153 44.969 6.27097 44.969 8.80106C44.969 10.6313 44.5129 12.65 43.6008 14.8571C42.6278 17.0642 41.3812 19.2983 39.861 21.5592C38.2799 23.8201 36.5164 26.0541 34.5705 28.2613C32.5638 30.5222 30.557 32.6216 28.5503 34.5596L26.0875 32.7831C28.8239 29.93 31.1043 27.05 32.9286 24.1431C34.7529 21.2362 35.8475 18.3831 36.2124 15.5839C33.78 15.4224 31.682 14.6149 29.9185 13.1614C28.155 11.708 27.2733 9.85078 27.2733 7.58985ZM1.0946 7.58985C1.0946 5.43658 1.94594 3.63321 3.64862 2.17976C5.3513 0.726298 7.47965 -0.000431463 10.0337 -0.000431463C12.4661 -0.000431463 14.5336 0.833961 16.2363 2.50275C17.939 4.17153 18.7903 6.27097 18.7903 8.80106C18.7903 10.6313 18.3342 12.65 17.4221 14.8571C16.4491 17.0642 15.2025 19.2983 13.6823 21.5592C12.1012 23.8201 10.3377 26.0541 8.3918 28.2613C6.38507 30.5222 4.37834 32.6216 2.37161 34.5596L2.13981e-05 32.7831C2.73647 29.93 5.01684 27.05 6.84114 24.1431C8.60463 21.2362 9.66881 18.3831 10.0337 15.5839C7.60127 15.4224 5.50332 14.6149 3.73983 13.1614C1.97635 11.708 1.0946 9.85078 1.0946 7.58985Z" fill="#176CF7" fill-opacity="0.25"/>
</svg>
