<svg width="14" height="14" viewBox="0 0 14 14" fill="none" xmlns="http://www.w3.org/2000/svg">
<g clip-path="url(#clip0_270_59182)">
<path d="M6.72405 8.53244C8.94258 8.53244 10.7411 6.78045 10.7411 4.61925C10.7411 2.45805 8.94258 0.706055 6.72405 0.706055C4.50551 0.706055 2.70703 2.45805 2.70703 4.61925C2.70703 6.78045 4.50551 8.53244 6.72405 8.53244Z" stroke="#176CF7" stroke-width="1.5" stroke-linecap="round" stroke-linejoin="round"/>
<path d="M4.54935 7.91184L3.85498 13.0046L6.72428 11.3275L9.59357 13.0046L8.8992 7.90625" stroke="#176CF7" stroke-width="1.5" stroke-linecap="round" stroke-linejoin="round"/>
<path d="M7.78172 3.16699H6.16774C5.96798 3.16699 5.77641 3.2443 5.63516 3.38189C5.4939 3.51949 5.41455 3.70612 5.41455 3.90072C5.41455 4.09531 5.4939 4.28194 5.63516 4.41954C5.77641 4.55714 5.96798 4.63444 6.16774 4.63444H7.24373C7.44349 4.63444 7.63506 4.71174 7.77631 4.84934C7.91756 4.98694 7.99692 5.17357 7.99692 5.36816C7.99692 5.56276 7.91756 5.74939 7.77631 5.88699C7.63506 6.02459 7.44349 6.10189 7.24373 6.10189H5.41455" stroke="#176CF7" stroke-linecap="round" stroke-linejoin="round"/>
</g>
<defs>
<clipPath id="clip0_270_59182">
<rect width="14" height="14" fill="white"/>
</clipPath>
</defs>
</svg>
