<svg width="20" height="20" viewBox="0 0 20 20" fill="none" xmlns="http://www.w3.org/2000/svg">
<path fill-rule="evenodd" clip-rule="evenodd" d="M9.9235 1.6665C10.1298 1.66909 10.3305 1.72461 10.5086 1.8252C10.686 1.92537 10.8349 2.06656 10.9448 2.23454L10.9456 2.23617L12.0776 3.95329H10.5811L9.8999 2.92139L9.89665 2.9165H4.37581C4.22277 2.9165 4.06764 2.98105 3.94694 3.10938C3.82505 3.239 3.75005 3.42238 3.75 3.62126V14.2609C3.75 14.4599 3.82501 14.6439 3.94694 14.7736C4.06761 14.9018 4.22284 14.9665 4.37581 14.9665H4.99349V5.40023C4.99349 5.01908 5.1585 4.6533 5.45166 4.38379C5.74479 4.11443 6.14234 3.96305 6.5568 3.96305H13.4814C13.606 3.96439 13.7286 3.99322 13.8387 4.04688C13.9488 4.10063 14.0435 4.1781 14.1146 4.2723L17.3576 8.52441L16.8376 8.92236L17.3177 8.55615L17.3576 8.52441L17.3584 8.52604C17.4525 8.64482 17.502 8.78847 17.4992 8.93538V16.8968C17.4992 17.278 17.3342 17.6437 17.041 17.9132C16.7479 18.1827 16.3504 18.334 15.9359 18.334H6.5568C6.14228 18.334 5.74481 18.1827 5.45166 17.9132C5.1585 17.6437 4.99349 17.278 4.99349 16.8968V16.2165H4.37581C3.8656 16.2165 3.38463 16.0001 3.0363 15.6297C2.68917 15.2606 2.5 14.7674 2.5 14.2609V3.62126C2.50005 3.11484 2.68923 2.62236 3.0363 2.25326C3.38465 1.88279 3.86553 1.6665 4.37581 1.6665H9.9235ZM6.5568 5.21305C6.44139 5.21305 6.34943 5.25618 6.2972 5.3042C6.24856 5.34895 6.24349 5.38615 6.24349 5.40023V16.8968C6.24349 16.9109 6.24869 16.9481 6.2972 16.9928C6.34943 17.0409 6.44139 17.084 6.5568 17.084H15.9359C16.0513 17.084 16.1432 17.0409 16.1955 16.9928C16.244 16.9481 16.2492 16.9109 16.2492 16.8968V9.13151L13.2609 5.21305H6.5568ZM17.3177 8.55615L16.8563 8.92318L17.3584 8.52604L17.3177 8.55615Z" fill="#176CF7"/>
</svg>
