<svg width="14" height="14" viewBox="0 0 14 14" fill="none" xmlns="http://www.w3.org/2000/svg">
<g clip-path="url(#clip0_1440_57802)">
<path d="M11.8125 7C11.8125 4.34213 9.65787 2.1875 7 2.1875C4.34213 2.1875 2.1875 4.34213 2.1875 7C2.1875 9.65787 4.34213 11.8125 7 11.8125C9.65787 11.8125 11.8125 9.65787 11.8125 7ZM6.52604 3.55184C6.52616 3.31035 6.72204 3.1144 6.96354 3.11434C7.2051 3.11434 7.40093 3.31031 7.40104 3.55184V6.68726H9.48202L9.52702 6.68953C9.74759 6.71198 9.91952 6.89826 9.91952 7.12476C9.91951 7.35125 9.74759 7.53754 9.52702 7.55998L9.48202 7.56226H6.96354C6.72197 7.56219 6.52605 7.36634 6.52604 7.12476V3.55184ZM12.6875 7C12.6875 10.1411 10.1411 12.6875 7 12.6875C3.85888 12.6875 1.3125 10.1411 1.3125 7C1.3125 3.85888 3.85888 1.3125 7 1.3125C10.1411 1.3125 12.6875 3.85888 12.6875 7Z" fill="#EE4343"/>
</g>
<defs>
<clipPath id="clip0_1440_57802">
<rect width="14" height="14" fill="white"/>
</clipPath>
</defs>
</svg>
