<svg width="42" height="42" viewBox="0 0 42 42" fill="none" xmlns="http://www.w3.org/2000/svg">
<g clip-path="url(#clip0_270_59845)">
<path d="M21 42C32.598 42 42 32.598 42 21C42 9.40202 32.598 0 21 0C9.40202 0 0 9.40202 0 21C0 32.598 9.40202 42 21 42Z" fill="url(#paint0_linear_270_59845)"/>
<path d="M25.4183 41.5049C25.821 41.4268 26.2214 41.337 26.6188 41.2354C27.2927 41.047 27.9568 40.8251 28.6086 40.5704C29.2612 40.3179 29.9007 40.0328 30.5248 39.7164C31.1491 39.3988 31.7571 39.0501 32.3466 38.6717C32.9353 38.2932 33.5048 37.8855 34.0528 37.4502C34.6018 37.0142 35.1286 36.5511 35.6313 36.0624C36.1332 35.575 36.6103 35.0627 37.0611 34.5277C37.5122 33.9921 37.9362 33.4343 38.3316 32.8564C38.7268 32.2795 39.0931 31.6832 39.4288 31.0697C39.7646 30.4553 40.0695 29.8245 40.3423 29.1797C40.6154 28.5347 40.856 27.8764 41.0633 27.2074C41.2408 26.6217 41.3926 26.0284 41.5183 25.4294L29.0408 12.9537C27.9871 11.8953 26.7345 11.0557 25.355 10.4833C23.9756 9.91084 22.4966 9.61683 21.0031 9.61817C19.5082 9.61654 18.0278 9.91038 16.6469 10.4828C15.266 11.0552 14.0119 11.8949 12.9566 12.9537C11.8986 14.0093 11.0593 15.2632 10.4866 16.6436C9.91392 18.0241 9.61914 19.5039 9.61914 20.9984C9.61914 22.4929 9.91392 23.9728 10.4866 25.3532C11.0593 26.7336 11.8986 27.9876 12.9566 29.0432L25.4183 41.5049Z" fill="url(#paint1_linear_270_59845)"/>
<path d="M21.0018 9.00196C24.0682 9.00196 27.1346 10.1735 29.4814 12.5185C30.5968 13.6314 31.4817 14.9534 32.0854 16.4088C32.6892 17.8641 33 19.4243 33 20.9999C33 22.5756 32.6892 24.1357 32.0854 25.5911C31.4817 27.0464 30.5968 28.3684 29.4814 29.4813C28.3685 30.5967 27.0465 31.4816 25.5912 32.0854C24.1358 32.6891 22.5756 32.9999 21 32.9999C19.4244 32.9999 17.8642 32.6891 16.4088 32.0854C14.9535 31.4816 13.6315 30.5967 12.5186 29.4813C11.4032 28.3684 10.5183 27.0464 9.91455 25.5911C9.31078 24.1357 9 22.5756 9 20.9999C9 19.4243 9.31078 17.8641 9.91455 16.4088C10.5183 14.9534 11.4032 13.6314 12.5186 12.5185C13.6312 11.4023 14.9534 10.517 16.4092 9.91352C17.8651 9.31003 19.4259 9.00024 21.0018 9.00196ZM26.463 17.3081C26.2884 17.3248 26.122 17.3907 25.9833 17.4981L19.2417 22.5534L16.1182 19.4317C15.441 18.7269 14.1071 20.059 14.8138 20.7361L18.5037 24.4261C18.6637 24.5773 18.8711 24.6686 19.0906 24.6844C19.3102 24.7002 19.5285 24.6396 19.7085 24.5128L27.0885 18.9778C27.7084 18.5258 27.3265 17.321 26.559 17.3099C26.5276 17.3083 26.4962 17.3083 26.4649 17.3099L26.463 17.3081Z" fill="white"/>
</g>
<defs>
<linearGradient id="paint0_linear_270_59845" x1="-7" y1="35" x2="32.178" y2="35.7903" gradientUnits="userSpaceOnUse">
<stop stop-color="#004F37"/>
<stop offset="1" stop-color="#00B57E"/>
</linearGradient>
<linearGradient id="paint1_linear_270_59845" x1="23.626" y1="23.625" x2="33.1911" y2="42.858" gradientUnits="userSpaceOnUse">
<stop stop-color="#004F37"/>
<stop offset="1" stop-color="#00B57E"/>
</linearGradient>
<clipPath id="clip0_270_59845">
<rect width="42" height="42" fill="white"/>
</clipPath>
</defs>
</svg>
