<svg width="42" height="42" viewBox="0 0 42 42" fill="none" xmlns="http://www.w3.org/2000/svg">
<g clip-path="url(#clip0_270_60150)">
<path d="M21 42C32.598 42 42 32.598 42 21C42 9.40202 32.598 0 21 0C9.40202 0 0 9.40202 0 21C0 32.598 9.40202 42 21 42Z" fill="url(#paint0_linear_270_60150)"/>
<path d="M25.4183 41.5049C25.821 41.4268 26.2214 41.337 26.6188 41.2354C27.2927 41.047 27.9568 40.8251 28.6086 40.5704C29.2612 40.3179 29.9007 40.0328 30.5248 39.7164C31.1491 39.3988 31.7571 39.0501 32.3466 38.6717C32.9353 38.2932 33.5048 37.8855 34.0528 37.4502C34.6018 37.0142 35.1286 36.5511 35.6313 36.0624C36.1332 35.575 36.6103 35.0627 37.0611 34.5277C37.5122 33.9921 37.9362 33.4343 38.3316 32.8564C38.7268 32.2795 39.0931 31.6832 39.4288 31.0697C39.7646 30.4553 40.0695 29.8245 40.3423 29.1797C40.6154 28.5347 40.856 27.8764 41.0633 27.2074C41.2408 26.6217 41.3926 26.0284 41.5183 25.4294L29.0408 12.9537C27.9871 11.8953 26.7345 11.0557 25.355 10.4833C23.9756 9.91084 22.4966 9.61683 21.0031 9.61817C19.5082 9.61654 18.0278 9.91038 16.6469 10.4828C15.266 11.0552 14.0119 11.8949 12.9566 12.9537C11.8986 14.0093 11.0593 15.2632 10.4866 16.6436C9.91392 18.0241 9.61914 19.5039 9.61914 20.9984C9.61914 22.4929 9.91392 23.9728 10.4866 25.3532C11.0593 26.7336 11.8986 27.9876 12.9566 29.0432L25.4183 41.5049Z" fill="url(#paint1_linear_270_60150)"/>
<path d="M21 9C27.6274 9 33 14.3726 33 21C33 27.6274 27.6274 33 21 33C14.3726 33 9 27.6274 9 21C9 14.3726 14.3726 9 21 9ZM21 13.9092C19.5976 13.9092 18.2266 14.3253 17.0605 15.1045C15.8946 15.8836 14.9859 16.9907 14.4492 18.2861C13.9125 19.5818 13.7713 21.0083 14.0449 22.3838C14.3186 23.7592 14.9947 25.0221 15.9863 26.0137C16.9779 27.0053 18.2408 27.6814 19.6162 27.9551C20.9917 28.2287 22.4182 28.0875 23.7139 27.5508C25.0093 27.0141 26.1164 26.1054 26.8955 24.9395C27.6747 23.7734 28.0908 22.4024 28.0908 21C28.0908 20.0688 27.9071 19.1464 27.5508 18.2861C27.1944 17.426 26.672 16.6447 26.0137 15.9863C25.3553 15.328 24.574 14.8056 23.7139 14.4492C22.8536 14.0929 21.9312 13.9092 21 13.9092ZM19.8936 15.4365C20.9939 15.2177 22.1344 15.3295 23.1709 15.7588C24.2075 16.1881 25.0935 16.9158 25.7168 17.8486C26.34 18.7815 26.6729 19.8781 26.6729 21C26.6729 22.5045 26.0746 23.9469 25.0107 25.0107C23.9469 26.0746 22.5045 26.6729 21 26.6729C19.8781 26.6729 18.7815 26.34 17.8486 25.7168C16.9158 25.0935 16.1881 24.2075 15.7588 23.1709C15.3295 22.1344 15.2177 20.9939 15.4365 19.8936C15.6554 18.7932 16.1959 17.7826 16.9893 16.9893C17.7826 16.1959 18.7932 15.6554 19.8936 15.4365ZM21 23.127C20.6085 23.127 20.2902 23.4445 20.29 23.8359C20.29 24.2276 20.6084 24.5449 21 24.5449C21.3914 24.5447 21.709 24.2274 21.709 23.8359C21.7088 23.4446 21.3913 23.1272 21 23.127ZM21 17.4541C20.8119 17.4541 20.631 17.5291 20.498 17.6621C20.3651 17.7951 20.29 17.976 20.29 18.1641V21.709C20.29 21.897 20.3651 22.078 20.498 22.2109C20.631 22.3438 20.812 22.418 21 22.418C21.1878 22.4179 21.3681 22.3437 21.501 22.2109C21.634 22.078 21.709 21.897 21.709 21.709V18.1641C21.709 17.976 21.634 17.7951 21.501 17.6621C21.3681 17.5293 21.1879 17.4542 21 17.4541Z" fill="white"/>
</g>
<defs>
<linearGradient id="paint0_linear_270_60150" x1="15.05" y1="51.6923" x2="50.5208" y2="32.4036" gradientUnits="userSpaceOnUse">
<stop stop-color="#770000"/>
<stop offset="0.51" stop-color="#BF0808"/>
<stop offset="1" stop-color="#770000"/>
</linearGradient>
<linearGradient id="paint1_linear_270_60150" x1="25" y1="21.5002" x2="22.0246" y2="42.2836" gradientUnits="userSpaceOnUse">
<stop stop-color="#770000"/>
<stop offset="0.51" stop-color="#BF0808"/>
<stop offset="1" stop-color="#770000"/>
</linearGradient>
<clipPath id="clip0_270_60150">
<rect width="42" height="42" fill="white"/>
</clipPath>
</defs>
</svg>
