<svg width="42" height="42" viewBox="0 0 42 42" fill="none" xmlns="http://www.w3.org/2000/svg">
<g clip-path="url(#clip0_270_59744)">
<path d="M21 42C32.598 42 42 32.598 42 21C42 9.40202 32.598 0 21 0C9.40202 0 0 9.40202 0 21C0 32.598 9.40202 42 21 42Z" fill="url(#paint0_linear_270_59744)"/>
<path d="M25.4183 41.5049C25.821 41.4268 26.2214 41.337 26.6188 41.2354C27.2927 41.047 27.9568 40.8251 28.6086 40.5704C29.2612 40.3179 29.9007 40.0328 30.5248 39.7164C31.1491 39.3988 31.7571 39.0501 32.3466 38.6717C32.9353 38.2932 33.5048 37.8855 34.0528 37.4502C34.6018 37.0142 35.1286 36.5511 35.6313 36.0624C36.1332 35.575 36.6103 35.0627 37.0611 34.5277C37.5122 33.9921 37.9362 33.4343 38.3316 32.8564C38.7268 32.2795 39.0931 31.6832 39.4288 31.0697C39.7646 30.4553 40.0695 29.8245 40.3423 29.1797C40.6154 28.5347 40.856 27.8764 41.0633 27.2074C41.2408 26.6217 41.3926 26.0284 41.5183 25.4294L29.0408 12.9537C27.9871 11.8953 26.7345 11.0557 25.355 10.4833C23.9756 9.91084 22.4966 9.61683 21.0031 9.61817C19.5082 9.61654 18.0278 9.91038 16.6469 10.4828C15.266 11.0552 14.0119 11.8949 12.9566 12.9537C11.8986 14.0093 11.0593 15.2632 10.4866 16.6436C9.91392 18.0241 9.61914 19.5039 9.61914 20.9984C9.61914 22.4929 9.91392 23.9728 10.4866 25.3532C11.0593 26.7336 11.8986 27.9876 12.9566 29.0432L25.4183 41.5049Z" fill="url(#paint1_linear_270_59744)"/>
<path d="M21 9C27.6274 9 33 14.3726 33 21C33 27.6274 27.6274 33 21 33C14.3726 33 9 27.6274 9 21C9 14.3726 14.3726 9 21 9ZM21.2217 14.4541C17.6144 14.4541 14.6729 17.3914 14.6729 20.998C14.6729 24.6048 17.6149 27.5459 21.2217 27.5459C24.8283 27.5457 27.7637 24.6047 27.7637 20.998C27.7636 17.3915 24.8282 14.4543 21.2217 14.4541ZM21.2217 15.6445C21.9249 15.6434 22.6215 15.7812 23.2715 16.0498C23.9215 16.3185 24.5125 16.7126 25.0098 17.21C25.5069 17.7073 25.9005 18.2983 26.1689 18.9482C26.4374 19.5983 26.5755 20.2947 26.5742 20.998C26.5756 21.7015 26.4383 22.3986 26.1699 23.0488C25.9015 23.6992 25.507 24.2904 25.0098 24.7881C24.5125 25.2858 23.9216 25.6802 23.2715 25.9492C22.6216 26.2181 21.9251 26.3562 21.2217 26.3555C20.5178 26.3563 19.8204 26.2181 19.1699 25.9492C18.5195 25.6803 17.9284 25.2857 17.4307 24.7881C16.9331 24.2906 16.5385 23.7 16.2695 23.0498C16.0005 22.3994 15.8616 21.7019 15.8623 20.998C15.8624 18.0344 18.258 15.6445 21.2217 15.6445ZM21.2119 16.8262C21.1333 16.8269 21.0557 16.8431 20.9834 16.874C20.9113 16.905 20.8457 16.9496 20.791 17.0059C20.7363 17.0622 20.6929 17.1291 20.6641 17.2021C20.6352 17.2753 20.6215 17.354 20.623 17.4326V20.998C20.6234 21.0763 20.6386 21.1544 20.6689 21.2266C20.6993 21.2986 20.7442 21.364 20.7998 21.4189L23.1787 23.7998C23.2338 23.8564 23.3004 23.9017 23.373 23.9326C23.4456 23.9634 23.5238 23.979 23.6025 23.9795C23.6814 23.9799 23.7601 23.9647 23.833 23.9346C23.9057 23.9045 23.9718 23.8604 24.0273 23.8047C24.083 23.7487 24.1275 23.6816 24.1572 23.6084C24.1868 23.5353 24.2011 23.4568 24.2002 23.3779C24.1993 23.299 24.1827 23.2209 24.1514 23.1484C24.12 23.0761 24.0744 23.0107 24.0176 22.9561L21.8135 20.752V17.4326C21.8151 17.3529 21.8011 17.2732 21.7715 17.1992C21.7419 17.1254 21.6976 17.0584 21.6416 17.002C21.5854 16.9453 21.5181 16.9003 21.4443 16.8701C21.3706 16.8399 21.2916 16.8252 21.2119 16.8262Z" fill="white"/>
</g>
<defs>
<linearGradient id="paint0_linear_270_59744" x1="1.5" y1="16" x2="23.9227" y2="26.4838" gradientUnits="userSpaceOnUse">
<stop stop-color="#E9AD06"/>
<stop offset="1" stop-color="#FFD14F"/>
</linearGradient>
<linearGradient id="paint1_linear_270_59744" x1="29.5" y1="25.0002" x2="35.3214" y2="32.3152" gradientUnits="userSpaceOnUse">
<stop stop-color="#E5A902"/>
<stop offset="1" stop-color="#FFD14F"/>
</linearGradient>
<clipPath id="clip0_270_59744">
<rect width="42" height="42" fill="white"/>
</clipPath>
</defs>
</svg>
