<svg width="87" height="71" viewBox="0 0 87 71" fill="none" xmlns="http://www.w3.org/2000/svg">
<rect width="10.7642" height="28.9175" rx="5.38208" transform="matrix(0.702001 -0.712175 0.702001 0.712175 2.12891 9.7915)" fill="url(#paint0_linear_883_119418)"/>
<rect width="10.7641" height="28.9174" rx="5.38207" transform="matrix(-0.702001 0.712176 -0.702001 -0.712176 82.082 76.0229)" fill="url(#paint1_linear_883_119418)"/>
<rect width="10.7642" height="28.9175" rx="5.38208" transform="matrix(-0.702001 0.712175 -0.702001 -0.712175 73.1768 7.36139)" fill="url(#paint2_linear_883_119418)"/>
<ellipse cx="61.7963" cy="63.1077" rx="5.3432" ry="5.42065" fill="#461B02"/>
<ellipse cx="37.3051" cy="37.8108" rx="5.3432" ry="5.42067" fill="#461B02"/>
<ellipse cx="22.6127" cy="22.9045" rx="5.3432" ry="5.42064" fill="white"/>
<rect width="10.7641" height="28.9174" rx="5.38207" transform="matrix(0.702001 -0.712176 0.702001 0.712176 0.347656 58.1255)" fill="url(#paint3_linear_883_119418)"/>
<defs>
<linearGradient id="paint0_linear_883_119418" x1="5.38208" y1="0" x2="5.38208" y2="28.9175" gradientUnits="userSpaceOnUse">
<stop stop-color="white" stop-opacity="0"/>
<stop offset="1" stop-color="white"/>
</linearGradient>
<linearGradient id="paint1_linear_883_119418" x1="5.38207" y1="0" x2="5.38207" y2="28.9174" gradientUnits="userSpaceOnUse">
<stop stop-color="white" stop-opacity="0"/>
<stop offset="0.0001" stop-color="#461B02" stop-opacity="0"/>
<stop offset="1" stop-color="#461B02"/>
</linearGradient>
<linearGradient id="paint2_linear_883_119418" x1="5.38208" y1="0" x2="5.38208" y2="28.9175" gradientUnits="userSpaceOnUse">
<stop stop-color="white" stop-opacity="0"/>
<stop offset="0.0001" stop-color="#461B02" stop-opacity="0"/>
<stop offset="1" stop-color="#461B02"/>
</linearGradient>
<linearGradient id="paint3_linear_883_119418" x1="5.38207" y1="0" x2="5.38207" y2="28.9174" gradientUnits="userSpaceOnUse">
<stop stop-color="white" stop-opacity="0"/>
<stop offset="1" stop-color="white"/>
</linearGradient>
</defs>
</svg>
