<svg width="77" height="71" viewBox="0 0 77 71" fill="none" xmlns="http://www.w3.org/2000/svg">
<rect width="10.7641" height="28.9175" rx="5.38207" transform="matrix(-0.702001 0.712176 -0.702001 -0.712176 74.5234 60.6641)" fill="url(#paint0_linear_883_119428)"/>
<rect width="10.7641" height="28.9175" rx="5.38207" transform="matrix(-0.702001 0.712175 -0.702001 -0.712175 9.51562 49.958)" fill="url(#paint1_linear_883_119428)"/>
<rect width="10.7641" height="28.9175" rx="5.38207" transform="matrix(0.702001 -0.712175 0.702001 0.712175 -5.42969 -5.56732)" fill="url(#paint2_linear_883_119428)"/>
<rect width="10.7641" height="28.9175" rx="5.38207" transform="matrix(0.702001 -0.712175 0.702001 0.712175 3.47656 63.0947)" fill="url(#paint3_linear_883_119428)"/>
<ellipse cx="14.856" cy="7.3479" rx="5.34322" ry="5.42065" transform="rotate(180 14.856 7.3479)" fill="#461B02"/>
<ellipse cx="23.7632" cy="76.0095" rx="5.34322" ry="5.42065" transform="rotate(180 23.7632 76.0095)" fill="#461B02"/>
<ellipse cx="27.8873" cy="34.784" rx="5.34322" ry="5.42062" transform="rotate(180 27.8873 34.784)" fill="#461B02"/>
<ellipse cx="54.0396" cy="47.551" rx="5.34322" ry="5.42067" transform="rotate(180 54.0396 47.551)" fill="white"/>
<rect width="10.7641" height="28.9175" rx="5.38207" transform="matrix(-0.702001 0.712176 -0.702001 -0.712176 76.3047 12.3306)" fill="url(#paint4_linear_883_119428)"/>
<rect width="10.7641" height="28.9175" rx="5.38207" transform="matrix(-0.702001 0.712176 -0.702001 -0.712176 76.3047 12.3306)" fill="url(#paint5_linear_883_119428)"/>
<defs>
<linearGradient id="paint0_linear_883_119428" x1="5.38207" y1="0" x2="5.38207" y2="28.9175" gradientUnits="userSpaceOnUse">
<stop stop-color="white" stop-opacity="0"/>
<stop offset="1" stop-color="white"/>
</linearGradient>
<linearGradient id="paint1_linear_883_119428" x1="5.38207" y1="0" x2="5.38207" y2="28.9175" gradientUnits="userSpaceOnUse">
<stop stop-color="white" stop-opacity="0"/>
<stop offset="1" stop-color="white"/>
</linearGradient>
<linearGradient id="paint2_linear_883_119428" x1="5.38207" y1="0" x2="5.38207" y2="28.9175" gradientUnits="userSpaceOnUse">
<stop stop-color="white" stop-opacity="0"/>
<stop offset="0.0001" stop-color="#461B02" stop-opacity="0"/>
<stop offset="1" stop-color="#461B02"/>
</linearGradient>
<linearGradient id="paint3_linear_883_119428" x1="5.38207" y1="0" x2="5.38207" y2="28.9175" gradientUnits="userSpaceOnUse">
<stop stop-color="white" stop-opacity="0"/>
<stop offset="0.0001" stop-color="#461B02" stop-opacity="0"/>
<stop offset="1" stop-color="#461B02"/>
</linearGradient>
<linearGradient id="paint4_linear_883_119428" x1="5.38207" y1="0" x2="5.38207" y2="28.9175" gradientUnits="userSpaceOnUse">
<stop stop-color="white" stop-opacity="0"/>
<stop offset="1" stop-color="white"/>
</linearGradient>
<linearGradient id="paint5_linear_883_119428" x1="5.38207" y1="0" x2="5.38207" y2="28.9175" gradientUnits="userSpaceOnUse">
<stop stop-color="white" stop-opacity="0"/>
<stop offset="0.0001" stop-color="#461B02" stop-opacity="0"/>
<stop offset="1" stop-color="#461B02"/>
</linearGradient>
</defs>
</svg>
