<svg width="48" height="49" viewBox="0 0 48 49" fill="none" xmlns="http://www.w3.org/2000/svg">
<path d="M48 24.5C48 29.2467 46.5924 33.8869 43.9553 37.8337C41.3181 41.7805 37.5698 44.8566 33.1844 46.6731C28.799 48.4896 23.9734 48.9649 19.3178 48.0388C14.6623 47.1128 10.3859 44.827 7.02945 41.4706C3.67299 38.1141 1.38721 33.8377 0.461164 29.1822C-0.464881 24.5266 0.0103989 19.701 1.8269 15.3156C3.6434 10.9302 6.71955 7.18188 10.6663 4.54473C14.6131 1.90758 19.2533 0.5 24 0.5C30.3652 0.5 36.4697 3.02856 40.9706 7.52944C45.4714 12.0303 48 18.1348 48 24.5Z" fill="#461B02"/>
<path d="M11.8682 23.7217C11.8755 23.2852 11.9689 22.8543 12.1429 22.4538C12.3169 22.0534 12.5681 21.6911 12.8821 21.3878C13.1962 21.0844 13.567 20.8459 13.9732 20.686C14.3795 20.526 14.8133 20.4477 15.2499 20.4554C15.6835 20.4483 16.1142 20.5275 16.517 20.6884C16.9197 20.8494 17.2864 21.0888 17.5957 21.3927C17.905 21.6967 18.1508 22.0591 18.3188 22.459C18.4867 22.8588 18.5735 23.2881 18.5739 23.7217V27.02C18.5936 28.4453 19.1736 29.8056 20.1885 30.8066C21.2034 31.8076 22.5715 32.3688 23.997 32.3688C25.4225 32.3688 26.7906 31.8076 27.8055 30.8066C28.8204 29.8056 29.4004 28.4453 29.4201 27.02V23.7217C29.4275 23.2851 29.5208 22.8542 29.6949 22.4536C29.8689 22.0531 30.1202 21.6907 30.4344 21.3874C30.7486 21.084 31.1195 20.8456 31.5259 20.6857C31.9323 20.5258 32.3662 20.4475 32.8028 20.4554C33.2365 20.4483 33.6672 20.5275 34.0699 20.6884C34.4726 20.8494 34.8393 21.0888 35.1487 21.3927C35.458 21.6967 35.7038 22.0591 35.8717 22.459C36.0397 22.8588 36.1264 23.2881 36.1269 23.7217V27.02C36.0553 30.1895 34.746 33.205 32.4791 35.4213C30.2122 37.6376 27.1678 38.8785 23.9975 38.8785C20.8272 38.8785 17.7829 37.6376 15.516 35.4213C13.2491 33.205 11.9397 30.1895 11.8682 27.02V23.7217Z" fill="#FFC217"/>
<path d="M18.6244 15.5637C18.6244 16.2317 18.4263 16.8847 18.0552 17.4402C17.684 17.9956 17.1565 18.4286 16.5393 18.6842C15.9222 18.9399 15.243 19.0067 14.5878 18.8764C13.9326 18.7461 13.3308 18.4244 12.8584 17.952C12.3861 17.4797 12.0644 16.8778 11.934 16.2226C11.8037 15.5674 11.8706 14.8883 12.1262 14.2711C12.3819 13.6539 12.8148 13.1264 13.3703 12.7553C13.9257 12.3841 14.5787 12.186 15.2468 12.186C16.1426 12.186 17.0017 12.5419 17.6351 13.1753C18.2685 13.8088 18.6244 14.6679 18.6244 15.5637Z" fill="#FFC217"/>
<path d="M36.1264 15.5637C36.1264 16.2317 35.9283 16.8847 35.5571 17.4402C35.186 17.9956 34.6585 18.4286 34.0413 18.6842C33.4241 18.9399 32.745 19.0067 32.0898 18.8764C31.4346 18.7461 30.8328 18.4244 30.3604 17.952C29.888 17.4797 29.5663 16.8778 29.436 16.2226C29.3057 15.5674 29.3726 14.8883 29.6282 14.2711C29.8839 13.6539 30.3168 13.1264 30.8722 12.7553C31.4277 12.3841 32.0807 12.186 32.7487 12.186C33.6445 12.186 34.5036 12.5419 35.1371 13.1753C35.7705 13.8088 36.1264 14.6679 36.1264 15.5637Z" fill="#FFC217"/>
</svg>
